ISO-10303-21;
HEADER;
FILE_DESCRIPTION (( 'STEP AP214' ),
    '1' );
FILE_NAME ('6.87.12.60.631.STEP',
    '2024-12-11T15:57:34',
    ( 'LENOVO' ),
    ( '' ),
    'SwSTEP 2.0',
    'SolidWorks 2021',
    '' );
FILE_SCHEMA (( 'AUTOMOTIVE_DESIGN' ));
ENDSEC;

DATA;
#1 = LINE ( 'NONE', #320, #781 ) ;
#2 = CARTESIAN_POINT ( 'NONE',  ( 3.250000000000001332, 1.300000000000000266, 0.000000000000000000 ) ) ;
#3 = ORIENTED_EDGE ( 'NONE', *, *, #705, .T. ) ;
#4 = MANIFOLD_SOLID_BREP ( 'Fillet2', #461 ) ;
#5 = ORIENTED_EDGE ( 'NONE', *, *, #514, .F. ) ;
#6 = CARTESIAN_POINT ( 'NONE',  ( 3.549999999999999822, 1.000000000000000222, 0.000000000000000000 ) ) ;
#7 = ORIENTED_EDGE ( 'NONE', *, *, #873, .F. ) ;
#8 =( LENGTH_UNIT ( ) NAMED_UNIT ( * ) SI_UNIT ( .MILLI., .METRE. ) );
#9 = EDGE_LOOP ( 'NONE', ( #757, #321 ) ) ;
#10 = FACE_OUTER_BOUND ( 'NONE', #291, .T. ) ;
#11 = EDGE_CURVE ( 'NONE', #307, #1004, #457, .T. ) ;
#12 = DIRECTION ( 'NONE',  ( 0.000000000000000000, 0.000000000000000000, 1.000000000000000000 ) ) ;
#13 = DIRECTION ( 'NONE',  ( 0.000000000000000000, 0.000000000000000000, 1.000000000000000000 ) ) ;
#14 = ORIENTED_EDGE ( 'NONE', *, *, #11, .F. ) ;
#15 = AXIS2_PLACEMENT_3D ( 'NONE', #487, #492, #466 ) ;
#16 = ORIENTED_EDGE ( 'NONE', *, *, #72, .F. ) ;
#17 = CYLINDRICAL_SURFACE ( 'NONE', #354, 0.2999999999999999334 ) ;
#18 = APPLICATION_CONTEXT ( 'automotive_design' ) ;
#19 = DIRECTION ( 'NONE',  ( -1.000000000000000000, -0.000000000000000000, -0.000000000000000000 ) ) ;
#20 = AXIS2_PLACEMENT_3D ( 'NONE', #503, #555, #444 ) ;
#21 = VERTEX_POINT ( 'NONE', #551 ) ;
#22 = SURFACE_STYLE_FILL_AREA ( #963 ) ;
#23 = CARTESIAN_POINT ( 'NONE',  ( 3.549999999999999822, 1.000000000000000222, 0.000000000000000000 ) ) ;
#24 = ORIENTED_EDGE ( 'NONE', *, *, #347, .F. ) ;
#25 = DIRECTION ( 'NONE',  ( 0.000000000000000000, 0.000000000000000000, 1.000000000000000000 ) ) ;
#26 =( NAMED_UNIT ( * ) PLANE_ANGLE_UNIT ( ) SI_UNIT ( $, .RADIAN. ) );
#27 = EDGE_LOOP ( 'NONE', ( #764, #1029 ) ) ;
#28 = CIRCLE ( 'NONE', #707, 0.1000000000000000472 ) ;
#29 = ORIENTED_EDGE ( 'NONE', *, *, #987, .F. ) ;
#30 = FACE_BOUND ( 'NONE', #637, .T. ) ;
#31 = DIRECTION ( 'NONE',  ( -1.000000000000000000, 0.000000000000000000, 0.000000000000000000 ) ) ;
#32 = ORIENTED_EDGE ( 'NONE', *, *, #948, .T. ) ;
#33 = TOROIDAL_SURFACE ( 'NONE', #287, 0.6500000000000000222, 0.5136570195779390779 ) ;
#34 = CARTESIAN_POINT ( 'NONE',  ( 3.150000000000001243, 1.300000000000000266, 0.000000000000000000 ) ) ;
#35 = EDGE_CURVE ( 'NONE', #603, #182, #53, .T. ) ;
#36 = ORIENTED_EDGE ( 'NONE', *, *, #165, .T. ) ;
#37 = VECTOR ( 'NONE', #1061, 1000.000000000000000 ) ;
#38 = CARTESIAN_POINT ( 'NONE',  ( -1.792833917812870270, 1.300000000000000266, 1.891084727092229745 ) ) ;
#39 = DIRECTION ( 'NONE',  ( -1.000000000000000000, -0.000000000000000000, -0.000000000000000000 ) ) ;
#40 = AXIS2_PLACEMENT_3D ( 'NONE', #217, #140, #502 ) ;
#41 = DIRECTION ( 'NONE',  ( -7.186474170114657620E-16, -1.000000000000000000, 0.000000000000000000 ) ) ;
#42 = CIRCLE ( 'NONE', #241, 0.4999999999999997780 ) ;
#43 = CARTESIAN_POINT ( 'NONE',  ( -3.149999999999999911, 1.300000000000000266, 0.000000000000000000 ) ) ;
#44 = DIRECTION ( 'NONE',  ( 0.000000000000000000, 0.000000000000000000, 1.000000000000000000 ) ) ;
#45 = CARTESIAN_POINT ( 'NONE',  ( -0.7096920590035187271, 1.300000000000000488, -1.137499999999999289 ) ) ;
#46 = ORIENTED_EDGE ( 'NONE', *, *, #109, .F. ) ;
#47 = ADVANCED_FACE ( 'NONE', ( #71 ), #805, .F. ) ;
#48 = EDGE_CURVE ( 'NONE', #998, #617, #796, .T. ) ;
#49 = LINE ( 'NONE', #622, #440 ) ;
#50 = AXIS2_PLACEMENT_3D ( 'NONE', #357, #123, #450 ) ;
#51 = DIRECTION ( 'NONE',  ( -1.000000000000000000, -0.000000000000000000, -0.000000000000000000 ) ) ;
#52 = CARTESIAN_POINT ( 'NONE',  ( 3.150000000000001243, 1.300000000000000266, 0.000000000000000000 ) ) ;
#53 = CIRCLE ( 'NONE', #93, 0.2999999999999999889 ) ;
#54 = AXIS2_PLACEMENT_3D ( 'NONE', #512, #592, #214 ) ;
#55 = DIRECTION ( 'NONE',  ( -1.000000000000000000, -0.000000000000000000, -0.000000000000000000 ) ) ;
#56 = CARTESIAN_POINT ( 'NONE',  ( 0.7096920590035189491, 1.300000000000000488, -1.637499999999998845 ) ) ;
#57 = ORIENTED_EDGE ( 'NONE', *, *, #896, .T. ) ;
#58 = CARTESIAN_POINT ( 'NONE',  ( 3.150000000000001243, 1.300000000000000266, 0.3999999999999999667 ) ) ;
#59 = DIRECTION ( 'NONE',  ( 0.000000000000000000, 0.000000000000000000, 1.000000000000000000 ) ) ;
#60 = LINE ( 'NONE', #1106, #441 ) ;
#61 = DIRECTION ( 'NONE',  ( 1.541358054578229619E-16, -1.000000000000000000, 0.000000000000000000 ) ) ;
#62 = EDGE_CURVE ( 'NONE', #623, #262, #439, .T. ) ;
#63 = CARTESIAN_POINT ( 'NONE',  ( -0.7096920590035189491, 1.300000000000000266, 0.000000000000000000 ) ) ;
#64 = CARTESIAN_POINT ( 'NONE',  ( -3.250000000000001332, 1.300000000000000266, 0.000000000000000000 ) ) ;
#65 = DIRECTION ( 'NONE',  ( 0.000000000000000000, 0.000000000000000000, 1.000000000000000000 ) ) ;
#66 = PRESENTATION_STYLE_ASSIGNMENT (( #90 ) ) ;
#67 = ADVANCED_FACE ( 'NONE', ( #68 ), #460, .T. ) ;
#68 = FACE_OUTER_BOUND ( 'NONE', #179, .T. ) ;
#69 = ORIENTED_EDGE ( 'NONE', *, *, #1107, .T. ) ;
#70 = DIRECTION ( 'NONE',  ( 0.000000000000000000, 0.000000000000000000, 1.000000000000000000 ) ) ;
#71 = FACE_OUTER_BOUND ( 'NONE', #990, .T. ) ;
#72 = EDGE_CURVE ( 'NONE', #272, #1041, #798, .T. ) ;
#73 = VERTEX_POINT ( 'NONE', #23 ) ;
#74 = PRESENTATION_LAYER_ASSIGNMENT (  '', '', ( #443 ) ) ;
#75 = CIRCLE ( 'NONE', #1143, 0.6500000000000000222 ) ;
#76 = AXIS2_PLACEMENT_3D ( 'NONE', #566, #142, #59 ) ;
#77 = FACE_OUTER_BOUND ( 'NONE', #1026, .T. ) ;
#78 = CARTESIAN_POINT ( 'NONE',  ( 3.150000000000001243, 1.300000000000000266, -0.3999999999999999667 ) ) ;
#79 = CARTESIAN_POINT ( 'NONE',  ( 3.150000000000001243, 1.000000000000000444, 0.000000000000000000 ) ) ;
#80 = LINE ( 'NONE', #800, #840 ) ;
#81 = TOROIDAL_SURFACE ( 'NONE', #776, 0.3999999999999999667, 0.1000000000000000056 ) ;
#82 = CARTESIAN_POINT ( 'NONE',  ( 4.599999999999999645, 0.3999999999999995226, 0.000000000000000000 ) ) ;
#83 = CARTESIAN_POINT ( 'NONE',  ( -0.7096920590035187271, 1.300000000000000266, 1.137499999999999289 ) ) ;
#84 = CARTESIAN_POINT ( 'NONE',  ( 5.499999999999995559, -27.73628330588458368, 0.000000000000000000 ) ) ;
#85 = EDGE_CURVE ( 'NONE', #1040, #602, #809, .T. ) ;
#86 = AXIS2_PLACEMENT_3D ( 'NONE', #1066, #1001, #254 ) ;
#87 = AXIS2_PLACEMENT_3D ( 'NONE', #522, #636, #389 ) ;
#88 = CARTESIAN_POINT ( 'NONE',  ( -1.792833917812870270, 1.300000000000000266, 0.000000000000000000 ) ) ;
#89 = CARTESIAN_POINT ( 'NONE',  ( -3.150000000000001243, 1.300000000000000266, 0.000000000000000000 ) ) ;
#90 = SURFACE_STYLE_USAGE ( .BOTH. , #795 ) ;
#91 = EDGE_CURVE ( 'NONE', #633, #977, #49, .T. ) ;
#92 = DIRECTION ( 'NONE',  ( 0.000000000000000000, 0.000000000000000000, -1.000000000000000000 ) ) ;
#93 = AXIS2_PLACEMENT_3D ( 'NONE', #893, #653, #729 ) ;
#94 = CARTESIAN_POINT ( 'NONE',  ( 3.549999999999999822, 1.300000000000000266, 0.000000000000000000 ) ) ;
#95 = DIRECTION ( 'NONE',  ( 0.000000000000000000, 0.000000000000000000, 1.000000000000000000 ) ) ;
#96 = DIRECTION ( 'NONE',  ( 1.000000000000000000, -5.981805089575206058E-16, 0.000000000000000000 ) ) ;
#97 = CARTESIAN_POINT ( 'NONE',  ( -5.799999999999999822, 0.4000000000000001332, 3.673940397442058882E-17 ) ) ;
#98 = FILL_AREA_STYLE_COLOUR ( '', #947 ) ;
#99 = DIRECTION ( 'NONE',  ( 0.000000000000000000, 0.000000000000000000, -1.000000000000000000 ) ) ;
#100 = DIRECTION ( 'NONE',  ( 0.000000000000000000, 0.000000000000000000, 1.000000000000000000 ) ) ;
#101 = EDGE_CURVE ( 'NONE', #1018, #1004, #42, .T. ) ;
#102 = DIRECTION ( 'NONE',  ( -4.440447034996976439E-16, 1.000000000000000000, -0.000000000000000000 ) ) ;
#103 = DIRECTION ( 'NONE',  ( -1.000000000000000000, -0.000000000000000000, -0.000000000000000000 ) ) ;
#104 = DIRECTION ( 'NONE',  ( 1.000000000000000000, 0.000000000000000000, 0.000000000000000000 ) ) ;
#105 = CARTESIAN_POINT ( 'NONE',  ( -3.150000000000001243, 1.300000000000000266, -0.3999999999999999667 ) ) ;
#106 = DIRECTION ( 'NONE',  ( -1.000000000000000000, -0.000000000000000000, -0.000000000000000000 ) ) ;
#107 = DIRECTION ( 'NONE',  ( 1.000000000000000000, 0.000000000000000000, 0.000000000000000000 ) ) ;
#108 = DIRECTION ( 'NONE',  ( -1.000000000000000000, -5.981805089575206058E-16, 0.000000000000000000 ) ) ;
#109 = EDGE_CURVE ( 'NONE', #73, #249, #811, .T. ) ;
#110 = DIRECTION ( 'NONE',  ( -0.000000000000000000, 1.000000000000000000, 1.224646799147353207E-16 ) ) ;
#111 = CARTESIAN_POINT ( 'NONE',  ( -0.8564161169558039965, 1.300000000000000488, -1.159512499307758571 ) ) ;
#112 = AXIS2_PLACEMENT_3D ( 'NONE', #181, #108, #942 ) ;
#113 = AXIS2_PLACEMENT_3D ( 'NONE', #378, #469, #25 ) ;
#114 = DIRECTION ( 'NONE',  ( -1.000000000000000000, -0.000000000000000000, -0.000000000000000000 ) ) ;
#115 = CARTESIAN_POINT ( 'NONE',  ( -0.7096920590035189491, 1.300000000000000266, 1.637499999999998845 ) ) ;
#116 = CARTESIAN_POINT ( 'NONE',  ( -2.636342980422061277, 1.300000000000000266, 0.000000000000000000 ) ) ;
#117 = CARTESIAN_POINT ( 'NONE',  ( 4.599999999999998757, 1.299999999999999600, 0.000000000000000000 ) ) ;
#118 = CARTESIAN_POINT ( 'NONE',  ( -4.599999999999998757, 1.299999999999999600, 0.000000000000000000 ) ) ;
#119 = EDGE_CURVE ( 'NONE', #272, #979, #60, .T. ) ;
#120 = AXIS2_PLACEMENT_3D ( 'NONE', #901, #846, #574 ) ;
#121 = AXIS2_PLACEMENT_3D ( 'NONE', #286, #1114, #738 ) ;
#122 = DIRECTION ( 'NONE',  ( 0.000000000000000000, 0.000000000000000000, 1.000000000000000000 ) ) ;
#123 = DIRECTION ( 'NONE',  ( -1.000000000000000000, -5.981805089575206058E-16, 0.000000000000000000 ) ) ;
#124 = AXIS2_PLACEMENT_3D ( 'NONE', #1113, #897, #334 ) ;
#125 = PLANE ( 'NONE',  #124 ) ;
#126 = ADVANCED_FACE ( 'NONE', ( #442 ), #446, .T. ) ;
#127 = DIRECTION ( 'NONE',  ( -0.000000000000000000, 1.000000000000000000, 1.224646799147353207E-16 ) ) ;
#128 = DIRECTION ( 'NONE',  ( 0.000000000000000000, 0.000000000000000000, -1.000000000000000000 ) ) ;
#129 = CARTESIAN_POINT ( 'NONE',  ( -4.599999999999999645, 0.3999999999999995226, 0.000000000000000000 ) ) ;
#130 = EDGE_CURVE ( 'NONE', #1041, #568, #816, .T. ) ;
#131 = STYLED_ITEM ( 'NONE', ( #743 ), #855 ) ;
#132 = AXIS2_PLACEMENT_3D ( 'NONE', #152, #688, #350 ) ;
#133 = CARTESIAN_POINT ( 'NONE',  ( 1.792833917812870270, 1.300000000000000266, 0.000000000000000000 ) ) ;
#134 = AXIS2_PLACEMENT_3D ( 'NONE', #341, #890, #870 ) ;
#135 = ADVANCED_FACE ( 'NONE', ( #480 ), #474, .T. ) ;
#136 = DIRECTION ( 'NONE',  ( -1.000000000000000000, -0.000000000000000000, -0.000000000000000000 ) ) ;
#137 = DIRECTION ( 'NONE',  ( 0.000000000000000000, 0.000000000000000000, 1.000000000000000000 ) ) ;
#138 = EDGE_CURVE ( 'NONE', #285, #302, #75, .T. ) ;
#139 = AXIS2_PLACEMENT_3D ( 'NONE', #885, #167, #815 ) ;
#140 = DIRECTION ( 'NONE',  ( -1.000000000000000000, 0.000000000000000000, -0.000000000000000000 ) ) ;
#141 = CARTESIAN_POINT ( 'NONE',  ( -5.799999999999999822, 0.4000000000000008549, 3.673940397442081685E-17 ) ) ;
#142 = DIRECTION ( 'NONE',  ( -0.000000000000000000, 1.000000000000000000, 1.224646799147353207E-16 ) ) ;
#143 = ADVANCED_FACE ( 'NONE', ( #482 ), #838, .T. ) ;
#144 = DIRECTION ( 'NONE',  ( 0.000000000000000000, 0.000000000000000000, 1.000000000000000000 ) ) ;
#145 = CARTESIAN_POINT ( 'NONE',  ( -3.549999999999999822, 1.300000000000000266, 0.000000000000000000 ) ) ;
#146 = DIRECTION ( 'NONE',  ( -1.000000000000000000, -5.981805089575206058E-16, 0.000000000000000000 ) ) ;
#147 = EDGE_CURVE ( 'NONE', #937, #202, #468, .T. ) ;
#148 = AXIS2_PLACEMENT_3D ( 'NONE', #1104, #727, #1162 ) ;
#149 = CIRCLE ( 'NONE', #898, 3.191084727092228679 ) ;
#150 = FACE_OUTER_BOUND ( 'NONE', #1147, .T. ) ;
#151 = AXIS2_PLACEMENT_3D ( 'NONE', #309, #19, #943 ) ;
#152 = CARTESIAN_POINT ( 'NONE',  ( 2.798167835625740452, 1.300000000000000266, 0.000000000000000000 ) ) ;
#153 = FACE_OUTER_BOUND ( 'NONE', #939, .T. ) ;
#154 =( NAMED_UNIT ( * ) PLANE_ANGLE_UNIT ( ) SI_UNIT ( $, .RADIAN. ) );
#155 = DIRECTION ( 'NONE',  ( 0.000000000000000000, -1.000000000000000000, 0.000000000000000000 ) ) ;
#156 = CYLINDRICAL_SURFACE ( 'NONE', #611, 0.2999999999999999334 ) ;
#157 = ORIENTED_EDGE ( 'NONE', *, *, #416, .F. ) ;
#158 = ADVANCED_FACE ( 'NONE', ( #77 ), #81, .F. ) ;
#159 = CYLINDRICAL_SURFACE ( 'NONE', #533, 0.2999999999999999334 ) ;
#160 = ORIENTED_EDGE ( 'NONE', *, *, #1159, .T. ) ;
#161 = DIRECTION ( 'NONE',  ( 0.000000000000000000, 0.000000000000000000, 1.000000000000000000 ) ) ;
#162 = CARTESIAN_POINT ( 'NONE',  ( 5.799999999999999822, 0.4000000000000008549, -3.673940397442081685E-17 ) ) ;
#163 = FACE_OUTER_BOUND ( 'NONE', #193, .T. ) ;
#164 = VERTEX_POINT ( 'NONE', #462 ) ;
#165 = EDGE_CURVE ( 'NONE', #789, #782, #477, .T. ) ;
#166 = DIRECTION ( 'NONE',  ( 0.000000000000000000, 0.000000000000000000, 1.000000000000000000 ) ) ;
#167 = DIRECTION ( 'NONE',  ( 1.000000000000000000, 0.000000000000000000, 0.000000000000000000 ) ) ;
#168 = AXIS2_PLACEMENT_3D ( 'NONE', #693, #768, #1130 ) ;
#169 = CYLINDRICAL_SURFACE ( 'NONE', #50, 0.2999999999999999334 ) ;
#170 =( NAMED_UNIT ( * ) SI_UNIT ( $, .STERADIAN. ) SOLID_ANGLE_UNIT ( ) );
#171 = ORIENTED_EDGE ( 'NONE', *, *, #971, .T. ) ;
#172 = STYLED_ITEM ( 'NONE', ( #921 ), #731 ) ;
#173 = ORIENTED_EDGE ( 'NONE', *, *, #529, .F. ) ;
#174 = DIRECTION ( 'NONE',  ( 0.000000000000000000, -1.359039029306436666E-16, 1.000000000000000000 ) ) ;
#175 = DIRECTION ( 'NONE',  ( 1.000000000000000000, 0.000000000000000000, 0.000000000000000000 ) ) ;
#176 = CIRCLE ( 'NONE', #900, 0.2999999999999999889 ) ;
#177 = EDGE_LOOP ( 'NONE', ( #1165, #394, #237, #294 ) ) ;
#178 = CARTESIAN_POINT ( 'NONE',  ( 3.150000000000001243, 1.000000000000000444, 0.000000000000000000 ) ) ;
#179 = EDGE_LOOP ( 'NONE', ( #933, #600, #57, #552 ) ) ;
#180 = LINE ( 'NONE', #79, #912 ) ;
#181 = CARTESIAN_POINT ( 'NONE',  ( -3.150000000000001243, 1.300000000000000266, 0.000000000000000000 ) ) ;
#182 = VERTEX_POINT ( 'NONE', #497 ) ;
#183 = ORIENTED_EDGE ( 'NONE', *, *, #308, .F. ) ;
#184 = DIRECTION ( 'NONE',  ( 0.000000000000000000, 0.000000000000000000, -1.000000000000000000 ) ) ;
#185 = DIRECTION ( 'NONE',  ( 0.000000000000000000, 0.000000000000000000, -1.000000000000000000 ) ) ;
#186 = CIRCLE ( 'NONE', #876, 1.137499999999999289 ) ;
#187 = EDGE_CURVE ( 'NONE', #21, #657, #80, .T. ) ;
#188 = VERTEX_POINT ( 'NONE', #1014 ) ;
#189 = DIRECTION ( 'NONE',  ( 0.000000000000000000, 0.000000000000000000, 1.000000000000000000 ) ) ;
#190 = ORIENTED_EDGE ( 'NONE', *, *, #416, .T. ) ;
#191 = CIRCLE ( 'NONE', #54, 0.2999999999999999889 ) ;
#192 = DIRECTION ( 'NONE',  ( 0.000000000000000000, 0.000000000000000000, 1.000000000000000000 ) ) ;
#193 = EDGE_LOOP ( 'NONE', ( #235, #239, #229, #917, #300 ) ) ;
#194 = ORIENTED_EDGE ( 'NONE', *, *, #130, .F. ) ;
#195 = CARTESIAN_POINT ( 'NONE',  ( 3.150000000000000799, 1.300000000000000266, 0.000000000000000000 ) ) ;
#196 = DIRECTION ( 'NONE',  ( 0.000000000000000000, 0.000000000000000000, -1.000000000000000000 ) ) ;
#197 = ORIENTED_EDGE ( 'NONE', *, *, #843, .F. ) ;
#198 = DIRECTION ( 'NONE',  ( 0.000000000000000000, 0.000000000000000000, 1.000000000000000000 ) ) ;
#199 = EDGE_LOOP ( 'NONE', ( #612, #762, #1048, #929 ) ) ;
#200 = ADVANCED_FACE ( 'NONE', ( #30, #398 ), #265, .F. ) ;
#201 = CIRCLE ( 'NONE', #472, 0.5136570195779390779 ) ;
#202 = VERTEX_POINT ( 'NONE', #1126 ) ;
#203 = EDGE_CURVE ( 'NONE', #188, #210, #413, .T. ) ;
#204 = LINE ( 'NONE', #880, #593 ) ;
#205 = MECHANICAL_DESIGN_GEOMETRIC_PRESENTATION_REPRESENTATION (  '', ( #989 ), #832 ) ;
#206 = CIRCLE ( 'NONE', #1112, 0.2999999999999999889 ) ;
#207 = ORIENTED_EDGE ( 'NONE', *, *, #1107, .F. ) ;
#208 = DIRECTION ( 'NONE',  ( 0.000000000000000000, 0.000000000000000000, 1.000000000000000000 ) ) ;
#209 = ORIENTED_EDGE ( 'NONE', *, *, #435, .T. ) ;
#210 = VERTEX_POINT ( 'NONE', #839 ) ;
#211 = ADVANCED_FACE ( 'NONE', ( #1158 ), #774, .T. ) ;
#212 = ORIENTED_EDGE ( 'NONE', *, *, #395, .F. ) ;
#213 = CARTESIAN_POINT ( 'NONE',  ( 4.599999999999999645, 0.3999999999999995226, -3.673940397442058882E-17 ) ) ;
#214 = DIRECTION ( 'NONE',  ( 0.000000000000000000, 0.000000000000000000, -1.000000000000000000 ) ) ;
#215 = EDGE_LOOP ( 'NONE', ( #1036, #677, #32, #306, #277 ) ) ;
#216 = DIRECTION ( 'NONE',  ( 1.000000000000000000, 0.000000000000000000, 0.000000000000000000 ) ) ;
#217 = CARTESIAN_POINT ( 'NONE',  ( 3.150000000000001243, 1.950000000000000622, 0.000000000000000000 ) ) ;
#218 = EDGE_CURVE ( 'NONE', #249, #73, #754, .T. ) ;
#219 = CYLINDRICAL_SURFACE ( 'NONE', #113, 1.137499999999999289 ) ;
#220 = AXIS2_PLACEMENT_3D ( 'NONE', #94, #1092, #475 ) ;
#221 = DIRECTION ( 'NONE',  ( 1.000000000000000000, 0.000000000000000000, 0.000000000000000000 ) ) ;
#222 = DIRECTION ( 'NONE',  ( -1.000000000000000000, 0.000000000000000000, 0.000000000000000000 ) ) ;
#223 = ADVANCED_FACE ( 'NONE', ( #787 ), #746, .F. ) ;
#224 = EDGE_LOOP ( 'NONE', ( #771, #207 ) ) ;
#225 = CIRCLE ( 'NONE', #863, 0.5999999999999980904 ) ;
#226 = AXIS2_PLACEMENT_3D ( 'NONE', #64, #221, #1135 ) ;
#227 = ORIENTED_EDGE ( 'NONE', *, *, #1076, .F. ) ;
#228 = ORIENTED_EDGE ( 'NONE', *, *, #91, .F. ) ;
#229 = ORIENTED_EDGE ( 'NONE', *, *, #332, .T. ) ;
#230 = VERTEX_POINT ( 'NONE', #571 ) ;
#231 = VECTOR ( 'NONE', #891, 1000.000000000000000 ) ;
#232 = ORIENTED_EDGE ( 'NONE', *, *, #666, .T. ) ;
#233 = DIRECTION ( 'NONE',  ( -0.000000000000000000, 1.000000000000000000, 1.224646799147353207E-16 ) ) ;
#234 = DIRECTION ( 'NONE',  ( 0.000000000000000000, 0.000000000000000000, 1.000000000000000000 ) ) ;
#235 = ORIENTED_EDGE ( 'NONE', *, *, #395, .T. ) ;
#236 = ORIENTED_EDGE ( 'NONE', *, *, #907, .F. ) ;
#237 = ORIENTED_EDGE ( 'NONE', *, *, #713, .F. ) ;
#238 = EDGE_CURVE ( 'NONE', #310, #307, #1138, .T. ) ;
#239 = ORIENTED_EDGE ( 'NONE', *, *, #931, .T. ) ;
#240 = ORIENTED_EDGE ( 'NONE', *, *, #187, .F. ) ;
#241 = AXIS2_PLACEMENT_3D ( 'NONE', #115, #734, #826 ) ;
#242 = FACE_OUTER_BOUND ( 'NONE', #255, .T. ) ;
#243 = PRODUCT ( '6.87.12.60.631', '6.87.12.60.631', '', ( #721 ) ) ;
#244 = ORIENTED_EDGE ( 'NONE', *, *, #384, .F. ) ;
#245 = DIRECTION ( 'NONE',  ( 0.000000000000000000, -1.000000000000000000, 0.000000000000000000 ) ) ;
#246 = DIRECTION ( 'NONE',  ( -4.440447034996976439E-16, 1.000000000000000000, -0.000000000000000000 ) ) ;
#247 = AXIS2_PLACEMENT_3D ( 'NONE', #712, #102, #793 ) ;
#248 = ADVANCED_FACE ( 'NONE', ( #391 ), #763, .F. ) ;
#249 = VERTEX_POINT ( 'NONE', #1146 ) ;
#250 = FACE_OUTER_BOUND ( 'NONE', #426, .T. ) ;
#251 = ADVANCED_FACE ( 'NONE', ( #377 ), #382, .T. ) ;
#252 = VERTEX_POINT ( 'NONE', #454 ) ;
#253 = CIRCLE ( 'NONE', #854, 1.159512499307758571 ) ;
#254 = DIRECTION ( 'NONE',  ( 1.000000000000000000, 1.807003620809174385E-16, 0.000000000000000000 ) ) ;
#255 = EDGE_LOOP ( 'NONE', ( #1064, #775 ) ) ;
#256 = CLOSED_SHELL ( 'NONE', ( #848, #491, #211, #1023, #661, #67, #695, #352 ) ) ;
#257 = ORIENTED_EDGE ( 'NONE', *, *, #580, .T. ) ;
#258 = CARTESIAN_POINT ( 'NONE',  ( -0.8564161169558039965, 1.300000000000000266, 0.000000000000000000 ) ) ;
#259 = CARTESIAN_POINT ( 'NONE',  ( 0.8564161169558039965, 1.300000000000000266, 1.159512499307758571 ) ) ;
#260 = TOROIDAL_SURFACE ( 'NONE', #316, 0.3999999999999999667, 0.1000000000000000056 ) ;
#261 = ORIENTED_EDGE ( 'NONE', *, *, #367, .T. ) ;
#262 = VERTEX_POINT ( 'NONE', #562 ) ;
#263 = EDGE_CURVE ( 'NONE', #262, #1040, #388, .T. ) ;
#264 = VERTEX_POINT ( 'NONE', #105 ) ;
#265 = PLANE ( 'NONE',  #40 ) ;
#266 = CIRCLE ( 'NONE', #339, 0.2999999999999999889 ) ;
#267 = ORIENTED_EDGE ( 'NONE', *, *, #1159, .F. ) ;
#268 = DIRECTION ( 'NONE',  ( -1.000000000000000000, -0.000000000000000000, -0.000000000000000000 ) ) ;
#269 = DIRECTION ( 'NONE',  ( -7.186474170114657620E-16, 1.000000000000000000, -0.000000000000000000 ) ) ;
#270 = ORIENTED_EDGE ( 'NONE', *, *, #138, .T. ) ;
#271 = VERTEX_POINT ( 'NONE', #1102 ) ;
#272 = VERTEX_POINT ( 'NONE', #162 ) ;
#273 = ORIENTED_EDGE ( 'NONE', *, *, #934, .T. ) ;
#274 = ORIENTED_EDGE ( 'NONE', *, *, #859, .F. ) ;
#275 = TOROIDAL_SURFACE ( 'NONE', #674, -1.891084727092229745, 3.191084727092228679 ) ;
#276 = DIRECTION ( 'NONE',  ( -1.000000000000000000, -0.000000000000000000, -0.000000000000000000 ) ) ;
#277 = ORIENTED_EDGE ( 'NONE', *, *, #788, .F. ) ;
#278 = ORIENTED_EDGE ( 'NONE', *, *, #561, .T. ) ;
#279 = VECTOR ( 'NONE', #61, 1000.000000000000000 ) ;
#280 = EDGE_LOOP ( 'NONE', ( #783, #1043, #315, #650 ) ) ;
#281 =( NAMED_UNIT ( * ) SI_UNIT ( $, .STERADIAN. ) SOLID_ANGLE_UNIT ( ) );
#282 = CARTESIAN_POINT ( 'NONE',  ( -0.7096920590035189491, 1.300000000000000266, 0.000000000000000000 ) ) ;
#283 = EDGE_CURVE ( 'NONE', #230, #789, #766, .T. ) ;
#284 = VERTEX_POINT ( 'NONE', #1111 ) ;
#285 = VERTEX_POINT ( 'NONE', #828 ) ;
#286 = CARTESIAN_POINT ( 'NONE',  ( 4.599999999999999645, 0.3999999999999995226, 0.000000000000000000 ) ) ;
#287 = AXIS2_PLACEMENT_3D ( 'NONE', #882, #39, #234 ) ;
#288 = ORIENTED_EDGE ( 'NONE', *, *, #35, .F. ) ;
#289 = ORIENTED_EDGE ( 'NONE', *, *, #580, .F. ) ;
#290 = AXIS2_PLACEMENT_3D ( 'NONE', #927, #585, #852 ) ;
#291 = EDGE_LOOP ( 'NONE', ( #1054, #615, #687, #983, #685 ) ) ;
#292 = DIRECTION ( 'NONE',  ( -1.000000000000000000, -0.000000000000000000, -0.000000000000000000 ) ) ;
#293 = DIRECTION ( 'NONE',  ( -1.000000000000000000, -0.000000000000000000, -0.000000000000000000 ) ) ;
#294 = ORIENTED_EDGE ( 'NONE', *, *, #353, .F. ) ;
#295 = ORIENTED_EDGE ( 'NONE', *, *, #883, .F. ) ;
#296 = FACE_OUTER_BOUND ( 'NONE', #280, .T. ) ;
#297 = ORIENTED_EDGE ( 'NONE', *, *, #101, .T. ) ;
#298 = CARTESIAN_POINT ( 'NONE',  ( -5.500000000000000000, 0.4000000000000001887, 0.000000000000000000 ) ) ;
#299 = ORIENTED_EDGE ( 'NONE', *, *, #62, .F. ) ;
#300 = ORIENTED_EDGE ( 'NONE', *, *, #165, .F. ) ;
#301 = EDGE_LOOP ( 'NONE', ( #289, #1035, #407, #753 ) ) ;
#302 = VERTEX_POINT ( 'NONE', #645 ) ;
#303 = ORIENTED_EDGE ( 'NONE', *, *, #629, .F. ) ;
#304 = CARTESIAN_POINT ( 'NONE',  ( -3.250000000000001332, 1.300000000000000266, 0.000000000000000000 ) ) ;
#305 =( LENGTH_UNIT ( ) NAMED_UNIT ( * ) SI_UNIT ( .MILLI., .METRE. ) );
#306 = ORIENTED_EDGE ( 'NONE', *, *, #934, .F. ) ;
#307 = VERTEX_POINT ( 'NONE', #45 ) ;
#308 = EDGE_CURVE ( 'NONE', #568, #1041, #1152, .T. ) ;
#309 = CARTESIAN_POINT ( 'NONE',  ( -3.149999999999999911, 1.300000000000000266, 0.000000000000000000 ) ) ;
#310 = VERTEX_POINT ( 'NONE', #111 ) ;
#311 = AXIS2_PLACEMENT_3D ( 'NONE', #692, #767, #910 ) ;
#312 = AXIS2_PLACEMENT_3D ( 'NONE', #849, #924, #899 ) ;
#313 = FACE_OUTER_BOUND ( 'NONE', #582, .T. ) ;
#314 = DIRECTION ( 'NONE',  ( 0.000000000000000000, 0.000000000000000000, 1.000000000000000000 ) ) ;
#315 = ORIENTED_EDGE ( 'NONE', *, *, #629, .T. ) ;
#316 = AXIS2_PLACEMENT_3D ( 'NONE', #348, #807, #1101 ) ;
#317 = TOROIDAL_SURFACE ( 'NONE', #226, 0.3999999999999999667, 0.1000000000000000056 ) ;
#318 = ORIENTED_EDGE ( 'NONE', *, *, #732, .T. ) ;
#319 = CARTESIAN_POINT ( 'NONE',  ( 1.792833917812870270, 1.300000000000000266, 1.891084727092229745 ) ) ;
#320 = CARTESIAN_POINT ( 'NONE',  ( -3.150000000000002576, 1.300000000000000266, 1.137499999999999289 ) ) ;
#321 = ORIENTED_EDGE ( 'NONE', *, *, #1094, .T. ) ;
#322 = DIRECTION ( 'NONE',  ( 1.541358054578229619E-16, -1.000000000000000000, 0.000000000000000000 ) ) ;
#323 = CARTESIAN_POINT ( 'NONE',  ( 2.636342980422061277, 1.300000000000000266, 0.6500000000000000222 ) ) ;
#324 = ORIENTED_EDGE ( 'NONE', *, *, #578, .F. ) ;
#325 = CIRCLE ( 'NONE', #120, 0.2999999999999999889 ) ;
#326 = CARTESIAN_POINT ( 'NONE',  ( -4.599999999999999645, 0.3999999999999995226, 0.000000000000000000 ) ) ;
#327 = ORIENTED_EDGE ( 'NONE', *, *, #1034, .T. ) ;
#328 = TOROIDAL_SURFACE ( 'NONE', #744, -1.891084727092229745, 3.191084727092228679 ) ;
#329 = ORIENTED_EDGE ( 'NONE', *, *, #640, .F. ) ;
#330 = DIRECTION ( 'NONE',  ( -1.000000000000000000, -0.000000000000000000, -0.000000000000000000 ) ) ;
#331 = CIRCLE ( 'NONE', #523, 0.5136570195779390779 ) ;
#332 = EDGE_CURVE ( 'NONE', #164, #401, #1154, .T. ) ;
#333 = ORIENTED_EDGE ( 'NONE', *, *, #887, .T. ) ;
#334 = DIRECTION ( 'NONE',  ( 0.000000000000000000, 0.000000000000000000, -1.000000000000000000 ) ) ;
#335 = CIRCLE ( 'NONE', #493, 1.137499999999999289 ) ;
#336 = AXIS2_PLACEMENT_3D ( 'NONE', #871, #895, #997 ) ;
#337 = ORIENTED_EDGE ( 'NONE', *, *, #561, .F. ) ;
#338 = CARTESIAN_POINT ( 'NONE',  ( 0.8564161169558039965, 1.300000000000000266, 0.000000000000000000 ) ) ;
#339 = AXIS2_PLACEMENT_3D ( 'NONE', #484, #974, #536 ) ;
#340 = CIRCLE ( 'NONE', #889, 0.4999999999999997780 ) ;
#341 = CARTESIAN_POINT ( 'NONE',  ( -3.150000000000001243, 1.950000000000000178, 0.000000000000000000 ) ) ;
#342 = PLANE ( 'NONE',  #806 ) ;
#343 = CIRCLE ( 'NONE', #1079, 1.137499999999999734 ) ;
#344 = DIRECTION ( 'NONE',  ( 0.000000000000000000, 0.000000000000000000, 1.000000000000000000 ) ) ;
#345 = DIRECTION ( 'NONE',  ( 0.000000000000000000, 0.000000000000000000, 1.000000000000000000 ) ) ;
#346 = CARTESIAN_POINT ( 'NONE',  ( 3.250000000000001332, 1.300000000000000266, 0.000000000000000000 ) ) ;
#347 = EDGE_CURVE ( 'NONE', #657, #648, #425, .T. ) ;
#348 = CARTESIAN_POINT ( 'NONE',  ( -3.250000000000001332, 1.300000000000000266, 0.000000000000000000 ) ) ;
#349 = ADVANCED_FACE ( 'NONE', ( #770 ), #417, .T. ) ;
#350 = DIRECTION ( 'NONE',  ( 0.000000000000000000, 0.000000000000000000, 1.000000000000000000 ) ) ;
#351 = DIRECTION ( 'NONE',  ( 1.000000000000000000, -5.981805089575206058E-16, 0.000000000000000000 ) ) ;
#352 = ADVANCED_FACE ( 'NONE', ( #772 ), #342, .T. ) ;
#353 = EDGE_CURVE ( 'NONE', #623, #1004, #1, .T. ) ;
#354 = AXIS2_PLACEMENT_3D ( 'NONE', #719, #96, #808 ) ;
#355 = CARTESIAN_POINT ( 'NONE',  ( 3.250000000000001332, 1.300000000000000266, 0.2999999999999999889 ) ) ;
#356 = AXIS2_PLACEMENT_3D ( 'NONE', #38, #110, #174 ) ;
#357 = CARTESIAN_POINT ( 'NONE',  ( -3.150000000000001243, 1.300000000000000266, 0.000000000000000000 ) ) ;
#358 = EDGE_CURVE ( 'NONE', #1067, #668, #411, .T. ) ;
#359 = DIRECTION ( 'NONE',  ( 0.000000000000000000, 0.000000000000000000, 1.000000000000000000 ) ) ;
#360 = AXIS2_PLACEMENT_3D ( 'NONE', #118, #1077, #1156 ) ;
#361 = DIRECTION ( 'NONE',  ( -0.000000000000000000, 1.000000000000000000, 1.224646799147353207E-16 ) ) ;
#362 = CARTESIAN_POINT ( 'NONE',  ( -5.199999999999995737, -27.73628330588458368, 0.000000000000000000 ) ) ;
#363 = AXIS2_PLACEMENT_3D ( 'NONE', #936, #107, #1083 ) ;
#364 =( LENGTH_UNIT ( ) NAMED_UNIT ( * ) SI_UNIT ( .MILLI., .METRE. ) );
#365 = DIRECTION ( 'NONE',  ( -1.000000000000000000, -0.000000000000000000, -0.000000000000000000 ) ) ;
#366 = CIRCLE ( 'NONE', #690, 0.2999999999999999889 ) ;
#367 = EDGE_CURVE ( 'NONE', #1002, #1063, #392, .T. ) ;
#368 = LINE ( 'NONE', #97, #737 ) ;
#369 = AXIS2_PLACEMENT_3D ( 'NONE', #88, #792, #598 ) ;
#370 = AXIS2_PLACEMENT_3D ( 'NONE', #129, #1140, #853 ) ;
#371 = AXIS2_PLACEMENT_3D ( 'NONE', #626, #827, #543 ) ;
#372 = DIRECTION ( 'NONE',  ( 0.000000000000000000, 0.000000000000000000, 1.000000000000000000 ) ) ;
#373 = CARTESIAN_POINT ( 'NONE',  ( 3.549999999999999822, 1.600000000000000089, -3.673940397442059498E-17 ) ) ;
#374 = CYLINDRICAL_SURFACE ( 'NONE', #515, 1.137499999999999289 ) ;
#375 = UNCERTAINTY_MEASURE_WITH_UNIT (LENGTH_MEASURE( 1.000000000000000082E-05 ), #305, 'distance_accuracy_value', 'NONE');
#376 = DIRECTION ( 'NONE',  ( 0.000000000000000000, 0.000000000000000000, 1.000000000000000000 ) ) ;
#377 = FACE_OUTER_BOUND ( 'NONE', #641, .T. ) ;
#378 = CARTESIAN_POINT ( 'NONE',  ( -3.150000000000002576, 1.300000000000000266, 0.000000000000000000 ) ) ;
#379 = CARTESIAN_POINT ( 'NONE',  ( -3.549999999999999822, 1.600000000000000089, 3.673940397442059498E-17 ) ) ;
#380 =( NAMED_UNIT ( * ) SI_UNIT ( $, .STERADIAN. ) SOLID_ANGLE_UNIT ( ) );
#381 = DIRECTION ( 'NONE',  ( 1.000000000000000000, -5.981805089575206058E-16, 0.000000000000000000 ) ) ;
#382 = TOROIDAL_SURFACE ( 'NONE', #669, 0.8999999999999980238, 0.2999999999999999889 ) ;
#383 = CARTESIAN_POINT ( 'NONE',  ( 0.7096920590035187271, 1.300000000000000266, 0.000000000000000000 ) ) ;
#384 = EDGE_CURVE ( 'NONE', #310, #1018, #1142, .T. ) ;
#385 = ORIENTED_EDGE ( 'NONE', *, *, #358, .T. ) ;
#386 = PLANE ( 'NONE',  #134 ) ;
#387 = ORIENTED_EDGE ( 'NONE', *, *, #931, .F. ) ;
#388 = CIRCLE ( 'NONE', #851, 0.4999999999999997780 ) ;
#389 = DIRECTION ( 'NONE',  ( 0.000000000000000000, -1.000000000000000000, 0.000000000000000000 ) ) ;
#390 = ORIENTED_EDGE ( 'NONE', *, *, #489, .F. ) ;
#391 = FACE_OUTER_BOUND ( 'NONE', #215, .T. ) ;
#392 = CIRCLE ( 'NONE', #542, 0.3999999999999999667 ) ;
#393 = CARTESIAN_POINT ( 'NONE',  ( -0.8564161169558039965, 1.300000000000000266, 0.000000000000000000 ) ) ;
#394 = ORIENTED_EDGE ( 'NONE', *, *, #830, .T. ) ;
#395 = EDGE_CURVE ( 'NONE', #789, #694, #408, .T. ) ;
#396 = CARTESIAN_POINT ( 'NONE',  ( -2.798167835625740008, 1.300000000000000488, -1.137499999999999289 ) ) ;
#397 = PRODUCT_DEFINITION_CONTEXT ( 'detailed design', #18, 'design' ) ;
#398 = FACE_OUTER_BOUND ( 'NONE', #663, .T. ) ;
#399 = AXIS2_PLACEMENT_3D ( 'NONE', #117, #485, #100 ) ;
#400 = DIRECTION ( 'NONE',  ( 0.000000000000000000, 0.000000000000000000, 1.000000000000000000 ) ) ;
#401 = VERTEX_POINT ( 'NONE', #379 ) ;
#402 = AXIS2_PLACEMENT_3D ( 'NONE', #499, #711, #682 ) ;
#403 = ORIENTED_EDGE ( 'NONE', *, *, #887, .F. ) ;
#404 = DIRECTION ( 'NONE',  ( -1.000000000000000000, -0.000000000000000000, -0.000000000000000000 ) ) ;
#405 = DIRECTION ( 'NONE',  ( 0.000000000000000000, 0.000000000000000000, 1.000000000000000000 ) ) ;
#406 = ADVANCED_FACE ( 'NONE', ( #10 ), #17, .T. ) ;
#407 = ORIENTED_EDGE ( 'NONE', *, *, #987, .T. ) ;
#408 = CIRCLE ( 'NONE', #336, 0.2999999999999999889 ) ;
#409 = DIRECTION ( 'NONE',  ( 0.000000000000000000, 0.000000000000000000, 1.000000000000000000 ) ) ;
#410 = SHAPE_DEFINITION_REPRESENTATION ( #476, #855 ) ;
#411 = CIRCLE ( 'NONE', #436, 1.137499999999999289 ) ;
#412 = ORIENTED_EDGE ( 'NONE', *, *, #508, .F. ) ;
#413 = CIRCLE ( 'NONE', #132, 1.137499999999999734 ) ;
#414 = CARTESIAN_POINT ( 'NONE',  ( 1.792833917812870270, 1.300000000000000266, 0.000000000000000000 ) ) ;
#415 = DIRECTION ( 'NONE',  ( -1.000000000000000000, 0.000000000000000000, 0.000000000000000000 ) ) ;
#416 = EDGE_CURVE ( 'NONE', #1063, #1002, #748, .T. ) ;
#417 = TOROIDAL_SURFACE ( 'NONE', #951, 0.8999999999999980238, 0.2999999999999999889 ) ;
#418 = PLANE ( 'NONE',  #613 ) ;
#419 =( GEOMETRIC_REPRESENTATION_CONTEXT ( 3 ) GLOBAL_UNCERTAINTY_ASSIGNED_CONTEXT ( ( #714 ) ) GLOBAL_UNIT_ASSIGNED_CONTEXT ( ( #364, #954, #380 ) ) REPRESENTATION_CONTEXT ( 'NONE', 'WORKASPACE' ) );
#420 = ORIENTED_EDGE ( 'NONE', *, *, #358, .F. ) ;
#421 = AXIS2_PLACEMENT_3D ( 'NONE', #483, #980, #400 ) ;
#422 = CARTESIAN_POINT ( 'NONE',  ( 3.250000000000001332, 1.300000000000000266, 0.000000000000000000 ) ) ;
#423 = ORIENTED_EDGE ( 'NONE', *, *, #48, .F. ) ;
#424 = AXIS2_PLACEMENT_3D ( 'NONE', #116, #1110, #44 ) ;
#425 = CIRCLE ( 'NONE', #501, 0.2999999999999999889 ) ;
#426 = EDGE_LOOP ( 'NONE', ( #779, #968, #1050, #228 ) ) ;
#427 = CARTESIAN_POINT ( 'NONE',  ( 0.8564161169558039965, 1.300000000000000488, -1.159512499307758571 ) ) ;
#428 = CARTESIAN_POINT ( 'NONE',  ( 0.7096920590035187271, 1.300000000000000266, 1.137499999999999289 ) ) ;
#429 = CIRCLE ( 'NONE', #875, 0.2999999999999999889 ) ;
#430 = ORIENTED_EDGE ( 'NONE', *, *, #1094, .F. ) ;
#431 = FACE_OUTER_BOUND ( 'NONE', #1025, .T. ) ;
#432 = DIRECTION ( 'NONE',  ( 0.000000000000000000, 0.000000000000000000, 1.000000000000000000 ) ) ;
#433 = DIRECTION ( 'NONE',  ( 0.000000000000000000, 0.000000000000000000, -1.000000000000000000 ) ) ;
#434 = DIRECTION ( 'NONE',  ( 1.000000000000000000, -5.981805089575206058E-16, 0.000000000000000000 ) ) ;
#435 = EDGE_CURVE ( 'NONE', #994, #694, #28, .T. ) ;
#436 = AXIS2_PLACEMENT_3D ( 'NONE', #479, #293, #405 ) ;
#437 = MANIFOLD_SOLID_BREP ( 'Mirror1[2]', #679 ) ;
#438 = CARTESIAN_POINT ( 'NONE',  ( 2.636342980422061277, 1.300000000000000266, -0.6500000000000000222 ) ) ;
#439 = CIRCLE ( 'NONE', #490, 1.137499999999999289 ) ;
#440 = VECTOR ( 'NONE', #869, 1000.000000000000000 ) ;
#441 = VECTOR ( 'NONE', #888, 1000.000000000000000 ) ;
#442 = FACE_OUTER_BOUND ( 'NONE', #704, .T. ) ;
#443 = STYLED_ITEM ( 'NONE', ( #66 ), #4 ) ;
#444 = DIRECTION ( 'NONE',  ( 0.000000000000000000, -1.000000000000000000, 0.000000000000000000 ) ) ;
#445 = DIRECTION ( 'NONE',  ( 0.000000000000000000, 0.000000000000000000, 1.000000000000000000 ) ) ;
#446 = TOROIDAL_SURFACE ( 'NONE', #456, 0.6500000000000000222, 0.5136570195779390779 ) ;
#447 =( GEOMETRIC_REPRESENTATION_CONTEXT ( 3 ) GLOBAL_UNCERTAINTY_ASSIGNED_CONTEXT ( ( #1115 ) ) GLOBAL_UNIT_ASSIGNED_CONTEXT ( ( #872, #534, #865 ) ) REPRESENTATION_CONTEXT ( 'NONE', 'WORKASPACE' ) );
#448 = ADVANCED_FACE ( 'NONE', ( #799 ), #33, .T. ) ;
#449 = DIRECTION ( 'NONE',  ( -1.000000000000000000, 0.000000000000000000, 0.000000000000000000 ) ) ;
#450 = DIRECTION ( 'NONE',  ( 0.000000000000000000, -1.000000000000000000, 0.000000000000000000 ) ) ;
#451 = COLOUR_RGB ( '',0.000000000000000000, 0.6274509803921568540, 0.8862745098039215286 ) ;
#452 = EDGE_CURVE ( 'NONE', #617, #271, #797, .T. ) ;
#453 = SURFACE_STYLE_FILL_AREA ( #715 ) ;
#454 = CARTESIAN_POINT ( 'NONE',  ( 3.150000000000000799, 1.300000000000000266, 0.6500000000000001332 ) ) ;
#455 = PRODUCT_RELATED_PRODUCT_CATEGORY ( 'part', '', ( #243 ) ) ;
#456 = AXIS2_PLACEMENT_3D ( 'NONE', #946, #970, #192 ) ;
#457 = CIRCLE ( 'NONE', #15, 1.137499999999999289 ) ;
#458 = SURFACE_STYLE_USAGE ( .BOTH. , #728 ) ;
#459 = AXIS2_PLACEMENT_3D ( 'NONE', #813, #718, #161 ) ;
#460 = TOROIDAL_SURFACE ( 'NONE', #758, 0.8999999999999980238, 0.2999999999999999889 ) ;
#461 = CLOSED_SHELL ( 'NONE', ( #992, #158, #689, #1118, #1128, #223, #892, #47, #864, #126, #406, #836, #1073, #200, #448, #1010, #829, #1155, #747, #923, #908, #856, #1103, #143, #248, #850 ) ) ;
#462 = CARTESIAN_POINT ( 'NONE',  ( -3.250000000000001332, 1.600000000000000311, 3.673940397442059498E-17 ) ) ;
#463 = CARTESIAN_POINT ( 'NONE',  ( -3.150000000000002576, 1.300000000000000266, 0.000000000000000000 ) ) ;
#464 = CARTESIAN_POINT ( 'NONE',  ( 3.150000000000000799, 1.300000000000000266, -0.6500000000000001332 ) ) ;
#465 = VECTOR ( 'NONE', #755, 1000.000000000000000 ) ;
#466 = DIRECTION ( 'NONE',  ( 0.000000000000000000, 0.000000000000000000, 1.000000000000000000 ) ) ;
#467 = EDGE_CURVE ( 'NONE', #182, #603, #429, .T. ) ;
#468 = CIRCLE ( 'NONE', #360, 0.2999999999999999889 ) ;
#469 = DIRECTION ( 'NONE',  ( -1.000000000000000000, -0.000000000000000000, -0.000000000000000000 ) ) ;
#470 = CARTESIAN_POINT ( 'NONE',  ( -3.250000000000001332, 1.300000000000000266, 0.3999999999999999667 ) ) ;
#471 = AXIS2_PLACEMENT_3D ( 'NONE', #902, #916, #1151 ) ;
#472 = AXIS2_PLACEMENT_3D ( 'NONE', #323, #1091, #92 ) ;
#473 = CARTESIAN_POINT ( 'NONE',  ( 3.150000000000001243, 1.300000000000000266, 0.000000000000000000 ) ) ;
#474 = CYLINDRICAL_SURFACE ( 'NONE', #723, 0.2999999999999999334 ) ;
#475 = DIRECTION ( 'NONE',  ( 0.000000000000000000, 0.000000000000000000, -1.000000000000000000 ) ) ;
#476 = PRODUCT_DEFINITION_SHAPE ( 'NONE', 'NONE',  #1132 ) ;
#477 = LINE ( 'NONE', #765, #465 ) ;
#478 = DIRECTION ( 'NONE',  ( -1.000000000000000000, 1.807003620809174385E-16, 0.000000000000000000 ) ) ;
#479 = CARTESIAN_POINT ( 'NONE',  ( -2.798167835625740008, 1.300000000000000266, 0.000000000000000000 ) ) ;
#480 = FACE_OUTER_BOUND ( 'NONE', #925, .T. ) ;
#481 = FILL_AREA_STYLE ('',( #98 ) ) ;
#482 = FACE_OUTER_BOUND ( 'NONE', #825, .T. ) ;
#483 = CARTESIAN_POINT ( 'NONE',  ( 3.250000000000001332, 1.300000000000000266, 0.000000000000000000 ) ) ;
#484 = CARTESIAN_POINT ( 'NONE',  ( -3.250000000000001332, 1.300000000000000266, 0.000000000000000000 ) ) ;
#485 = DIRECTION ( 'NONE',  ( -1.000000000000000000, -0.000000000000000000, -0.000000000000000000 ) ) ;
#486 = CARTESIAN_POINT ( 'NONE',  ( -3.250000000000001332, 1.300000000000000266, 0.2999999999999999889 ) ) ;
#487 = CARTESIAN_POINT ( 'NONE',  ( -0.7096920590035187271, 1.300000000000000266, 0.000000000000000000 ) ) ;
#488 = DIRECTION ( 'NONE',  ( -1.000000000000000000, -0.000000000000000000, -0.000000000000000000 ) ) ;
#489 = EDGE_CURVE ( 'NONE', #284, #937, #791, .T. ) ;
#490 = AXIS2_PLACEMENT_3D ( 'NONE', #383, #632, #314 ) ;
#491 = ADVANCED_FACE ( 'NONE', ( #431 ), #169, .T. ) ;
#492 = DIRECTION ( 'NONE',  ( -1.000000000000000000, -0.000000000000000000, -0.000000000000000000 ) ) ;
#493 = AXIS2_PLACEMENT_3D ( 'NONE', #701, #136, #494 ) ;
#494 = DIRECTION ( 'NONE',  ( 0.000000000000000000, 0.000000000000000000, 1.000000000000000000 ) ) ;
#495 = DIRECTION ( 'NONE',  ( -1.000000000000000000, -0.000000000000000000, -0.000000000000000000 ) ) ;
#496 = CARTESIAN_POINT ( 'NONE',  ( 3.549999999999999822, 0.000000000000000000, 0.000000000000000000 ) ) ;
#497 = CARTESIAN_POINT ( 'NONE',  ( -5.799999999999995381, -27.73628330588458368, 3.673940397442059498E-17 ) ) ;
#498 = DIRECTION ( 'NONE',  ( 1.000000000000000000, 0.000000000000000000, 0.000000000000000000 ) ) ;
#499 = CARTESIAN_POINT ( 'NONE',  ( -1.792833917812870270, 1.300000000000000266, -1.891084727092229745 ) ) ;
#500 = EDGE_CURVE ( 'NONE', #1063, #271, #541, .T. ) ;
#501 = AXIS2_PLACEMENT_3D ( 'NONE', #736, #415, #196 ) ;
#502 = DIRECTION ( 'NONE',  ( -0.000000000000000000, 0.000000000000000000, 1.000000000000000000 ) ) ;
#503 = CARTESIAN_POINT ( 'NONE',  ( 3.150000000000001243, 1.300000000000000266, 0.000000000000000000 ) ) ;
#504 = CARTESIAN_POINT ( 'NONE',  ( -5.499999999999995559, -27.73628330588458368, 0.000000000000000000 ) ) ;
#505 = ADVANCED_FACE ( 'NONE', ( #567 ), #906, .T. ) ;
#506 = CARTESIAN_POINT ( 'NONE',  ( 5.199999999999995737, -27.73628330588458368, 0.000000000000000000 ) ) ;
#507 = DIRECTION ( 'NONE',  ( -4.440447034996976439E-16, -1.000000000000000000, 0.000000000000000000 ) ) ;
#508 = EDGE_CURVE ( 'NONE', #249, #1041, #918, .T. ) ;
#509 = AXIS2_PLACEMENT_3D ( 'NONE', #1089, #627, #13 ) ;
#510 = AXIS2_PLACEMENT_3D ( 'NONE', #643, #1095, #99 ) ;
#511 = CARTESIAN_POINT ( 'NONE',  ( -2.636342980422061277, 1.300000000000000266, 0.6500000000000000222 ) ) ;
#512 = CARTESIAN_POINT ( 'NONE',  ( -3.549999999999999822, 1.300000000000000266, 0.000000000000000000 ) ) ;
#513 = DIRECTION ( 'NONE',  ( -0.000000000000000000, 1.000000000000000000, 1.224646799147353207E-16 ) ) ;
#514 = EDGE_CURVE ( 'NONE', #202, #937, #576, .T. ) ;
#515 = AXIS2_PLACEMENT_3D ( 'NONE', #463, #106, #166 ) ;
#516 = DIRECTION ( 'NONE',  ( 1.000000000000000000, 1.807003620809174385E-16, 0.000000000000000000 ) ) ;
#517 = EDGE_CURVE ( 'NONE', #202, #1006, #539, .T. ) ;
#518 = DIRECTION ( 'NONE',  ( 0.000000000000000000, 0.000000000000000000, 1.000000000000000000 ) ) ;
#519 = DIRECTION ( 'NONE',  ( 0.000000000000000000, 0.000000000000000000, 1.000000000000000000 ) ) ;
#520 = AXIS2_PLACEMENT_3D ( 'NONE', #639, #1100, #376 ) ;
#521 = APPLICATION_CONTEXT ( 'automotive_design' ) ;
#522 = CARTESIAN_POINT ( 'NONE',  ( -3.150000000000001243, 1.300000000000000266, 0.000000000000000000 ) ) ;
#523 = AXIS2_PLACEMENT_3D ( 'NONE', #438, #361, #70 ) ;
#524 =( NAMED_UNIT ( * ) PLANE_ANGLE_UNIT ( ) SI_UNIT ( $, .RADIAN. ) );
#525 = ADVANCED_FACE ( 'NONE', ( #560 ), #156, .T. ) ;
#526 = CARTESIAN_POINT ( 'NONE',  ( -4.599999999999999645, 0.3999999999999995226, -3.673940397442058882E-17 ) ) ;
#527 = DIRECTION ( 'NONE',  ( 0.000000000000000000, 1.000000000000000000, -1.224646799147353207E-16 ) ) ;
#528 =( LENGTH_UNIT ( ) NAMED_UNIT ( * ) SI_UNIT ( .MILLI., .METRE. ) );
#529 = EDGE_CURVE ( 'NONE', #73, #568, #180, .T. ) ;
#530 = DIRECTION ( 'NONE',  ( 0.000000000000000000, 0.000000000000000000, 1.000000000000000000 ) ) ;
#531 = DIRECTION ( 'NONE',  ( 0.000000000000000000, 0.000000000000000000, 1.000000000000000000 ) ) ;
#532 = AXIS2_PLACEMENT_3D ( 'NONE', #422, #1055, #208 ) ;
#533 = AXIS2_PLACEMENT_3D ( 'NONE', #89, #146, #155 ) ;
#534 =( NAMED_UNIT ( * ) PLANE_ANGLE_UNIT ( ) SI_UNIT ( $, .RADIAN. ) );
#535 = DIRECTION ( 'NONE',  ( -1.000000000000000000, -0.000000000000000000, -0.000000000000000000 ) ) ;
#536 = DIRECTION ( 'NONE',  ( 0.000000000000000000, 7.228014483236696555E-16, -1.000000000000000000 ) ) ;
#537 = CARTESIAN_POINT ( 'NONE',  ( -3.250000000000001332, 1.300000000000000266, 0.000000000000000000 ) ) ;
#538 = CIRCLE ( 'NONE', #860, 0.2999999999999999889 ) ;
#539 = CIRCLE ( 'NONE', #370, 1.199999999999997957 ) ;
#540 = EDGE_CURVE ( 'NONE', #210, #602, #149, .T. ) ;
#541 = CIRCLE ( 'NONE', #168, 0.09999999999999999167 ) ;
#542 = AXIS2_PLACEMENT_3D ( 'NONE', #52, #495, #531 ) ;
#543 = DIRECTION ( 'NONE',  ( 0.000000000000000000, 0.000000000000000000, 1.000000000000000000 ) ) ;
#544 = CARTESIAN_POINT ( 'NONE',  ( 4.599999999999999645, 0.3999999999999995226, 0.000000000000000000 ) ) ;
#545 = CYLINDRICAL_SURFACE ( 'NONE', #833, 0.2999999999999999334 ) ;
#546 = AXIS2_PLACEMENT_3D ( 'NONE', #1008, #1125, #216 ) ;
#547 = FACE_OUTER_BOUND ( 'NONE', #631, .T. ) ;
#548 = CARTESIAN_POINT ( 'NONE',  ( -5.200000000000000178, 0.4000000000000002442, 0.000000000000000000 ) ) ;
#549 = EDGE_LOOP ( 'NONE', ( #327, #786, #420, #303 ) ) ;
#550 = CIRCLE ( 'NONE', #151, 0.6500000000000000222 ) ;
#551 = CARTESIAN_POINT ( 'NONE',  ( 3.250000000000001332, 1.600000000000000311, -3.673940397442059498E-17 ) ) ;
#552 = ORIENTED_EDGE ( 'NONE', *, *, #732, .F. ) ;
#553 = CYLINDRICAL_SURFACE ( 'NONE', #87, 0.2999999999999999334 ) ;
#554 = ORIENTED_EDGE ( 'NONE', *, *, #666, .F. ) ;
#555 = DIRECTION ( 'NONE',  ( 1.000000000000000000, -5.981805089575206058E-16, 0.000000000000000000 ) ) ;
#556 = DIRECTION ( 'NONE',  ( -1.000000000000000000, -0.000000000000000000, -0.000000000000000000 ) ) ;
#557 = EDGE_LOOP ( 'NONE', ( #700, #299, #930, #1062 ) ) ;
#558 = DIRECTION ( 'NONE',  ( -1.000000000000000000, 0.000000000000000000, 0.000000000000000000 ) ) ;
#559 = ORIENTED_EDGE ( 'NONE', *, *, #1007, .T. ) ;
#560 = FACE_OUTER_BOUND ( 'NONE', #655, .T. ) ;
#561 = EDGE_CURVE ( 'NONE', #262, #623, #569, .T. ) ;
#562 = CARTESIAN_POINT ( 'NONE',  ( 0.7096920590035187271, 1.300000000000000488, -1.137499999999999289 ) ) ;
#563 = ORIENTED_EDGE ( 'NONE', *, *, #773, .T. ) ;
#564 = VECTOR ( 'NONE', #434, 1000.000000000000000 ) ;
#565 = DIRECTION ( 'NONE',  ( 0.000000000000000000, 0.000000000000000000, -1.000000000000000000 ) ) ;
#566 = CARTESIAN_POINT ( 'NONE',  ( -2.636342980422061277, 1.300000000000000266, -0.6500000000000000222 ) ) ;
#567 = FACE_OUTER_BOUND ( 'NONE', #699, .T. ) ;
#568 = VERTEX_POINT ( 'NONE', #1046 ) ;
#569 = CIRCLE ( 'NONE', #471, 1.137499999999999289 ) ;
#570 = CARTESIAN_POINT ( 'NONE',  ( -3.150000000000002576, 1.300000000000000488, -1.137499999999999289 ) ) ;
#571 = CARTESIAN_POINT ( 'NONE',  ( -3.250000000000001332, 1.300000000000000266, -0.2999999999999999889 ) ) ;
#572 = ORIENTED_EDGE ( 'NONE', *, *, #130, .T. ) ;
#573 = CIRCLE ( 'NONE', #402, 3.191084727092228679 ) ;
#574 = DIRECTION ( 'NONE',  ( 0.000000000000000000, 0.000000000000000000, -1.000000000000000000 ) ) ;
#575 = CARTESIAN_POINT ( 'NONE',  ( -4.599999999999998757, 1.299999999999999600, 0.000000000000000000 ) ) ;
#576 = CIRCLE ( 'NONE', #1109, 0.2999999999999999889 ) ;
#577 = ORIENTED_EDGE ( 'NONE', *, *, #467, .F. ) ;
#578 = EDGE_CURVE ( 'NONE', #977, #979, #538, .T. ) ;
#579 = EDGE_LOOP ( 'NONE', ( #1024, #972 ) ) ;
#580 = EDGE_CURVE ( 'NONE', #668, #285, #909, .T. ) ;
#581 = SURFACE_STYLE_FILL_AREA ( #481 ) ;
#582 = EDGE_LOOP ( 'NONE', ( #240, #273, #605, #563, #922 ) ) ;
#583 = AXIS2_PLACEMENT_3D ( 'NONE', #834, #404, #12 ) ;
#584 = EDGE_LOOP ( 'NONE', ( #1031, #1042, #232, #1157 ) ) ;
#585 = DIRECTION ( 'NONE',  ( -4.440447034996976439E-16, -1.000000000000000000, 0.000000000000000000 ) ) ;
#586 = CIRCLE ( 'NONE', #1145, 0.3999999999999999667 ) ;
#587 = ORIENTED_EDGE ( 'NONE', *, *, #91, .T. ) ;
#588 = ORIENTED_EDGE ( 'NONE', *, *, #803, .F. ) ;
#589 = VECTOR ( 'NONE', #733, 1000.000000000000000 ) ;
#590 = ORIENTED_EDGE ( 'NONE', *, *, #1141, .T. ) ;
#591 = DIRECTION ( 'NONE',  ( 0.000000000000000000, -1.000000000000000000, 0.000000000000000000 ) ) ;
#592 = DIRECTION ( 'NONE',  ( -1.000000000000000000, -0.000000000000000000, -0.000000000000000000 ) ) ;
#593 = VECTOR ( 'NONE', #802, 1000.000000000000000 ) ;
#594 = ORIENTED_EDGE ( 'NONE', *, *, #814, .F. ) ;
#595 = MECHANICAL_DESIGN_GEOMETRIC_PRESENTATION_REPRESENTATION (  '', ( #443 ), #818 ) ;
#596 = EDGE_LOOP ( 'NONE', ( #329, #24 ) ) ;
#597 = AXIS2_PLACEMENT_3D ( 'NONE', #810, #269, #189 ) ;
#598 = DIRECTION ( 'NONE',  ( 0.000000000000000000, 0.000000000000000000, 1.000000000000000000 ) ) ;
#599 = DIRECTION ( 'NONE',  ( 0.000000000000000000, 0.000000000000000000, 1.000000000000000000 ) ) ;
#600 = ORIENTED_EDGE ( 'NONE', *, *, #514, .T. ) ;
#601 = FILL_AREA_STYLE_COLOUR ( '', #451 ) ;
#602 = VERTEX_POINT ( 'NONE', #259 ) ;
#603 = VERTEX_POINT ( 'NONE', #362 ) ;
#604 = CIRCLE ( 'NONE', #583, 0.6500000000000001332 ) ;
#605 = ORIENTED_EDGE ( 'NONE', *, *, #48, .T. ) ;
#606 = EDGE_CURVE ( 'NONE', #782, #401, #191, .T. ) ;
#607 = FILL_AREA_STYLE_COLOUR ( '', #1127 ) ;
#608 = DIRECTION ( 'NONE',  ( 0.000000000000000000, 0.000000000000000000, 1.000000000000000000 ) ) ;
#609 = ORIENTED_EDGE ( 'NONE', *, *, #540, .F. ) ;
#610 = FACE_OUTER_BOUND ( 'NONE', #177, .T. ) ;
#611 = AXIS2_PLACEMENT_3D ( 'NONE', #672, #911, #1032 ) ;
#612 = ORIENTED_EDGE ( 'NONE', *, *, #971, .F. ) ;
#613 = AXIS2_PLACEMENT_3D ( 'NONE', #496, #558, #903 ) ;
#614 = FACE_OUTER_BOUND ( 'NONE', #941, .T. ) ;
#615 = ORIENTED_EDGE ( 'NONE', *, *, #788, .T. ) ;
#616 = DIRECTION ( 'NONE',  ( 0.000000000000000000, 0.000000000000000000, -1.000000000000000000 ) ) ;
#617 = VERTEX_POINT ( 'NONE', #1019 ) ;
#618 = FILL_AREA_STYLE ('',( #607 ) ) ;
#619 = TOROIDAL_SURFACE ( 'NONE', #546, 0.8999999999999980238, 0.2999999999999999889 ) ;
#620 = ORIENTED_EDGE ( 'NONE', *, *, #756, .F. ) ;
#621 = CIRCLE ( 'NONE', #371, 0.2999999999999999889 ) ;
#622 = CARTESIAN_POINT ( 'NONE',  ( 5.200000000000000178, 0.4000000000000002442, 0.000000000000000000 ) ) ;
#623 = VERTEX_POINT ( 'NONE', #428 ) ;
#624 = FACE_BOUND ( 'NONE', #27, .T. ) ;
#625 = EDGE_LOOP ( 'NONE', ( #662, #171, #197, #609 ) ) ;
#626 = CARTESIAN_POINT ( 'NONE',  ( 5.500000000000000000, 0.4000000000000006328, 0.000000000000000000 ) ) ;
#627 = DIRECTION ( 'NONE',  ( -1.000000000000000000, -0.000000000000000000, -0.000000000000000000 ) ) ;
#628 = LINE ( 'NONE', #548, #279 ) ;
#629 = EDGE_CURVE ( 'NONE', #1018, #1067, #573, .T. ) ;
#630 = CARTESIAN_POINT ( 'NONE',  ( -0.7096920590035187271, 1.300000000000000266, 0.000000000000000000 ) ) ;
#631 = EDGE_LOOP ( 'NONE', ( #1069, #69, #920, #5 ) ) ;
#632 = DIRECTION ( 'NONE',  ( -1.000000000000000000, -0.000000000000000000, -0.000000000000000000 ) ) ;
#633 = VERTEX_POINT ( 'NONE', #760 ) ;
#634 = DIRECTION ( 'NONE',  ( -1.000000000000000000, -0.000000000000000000, -0.000000000000000000 ) ) ;
#635 =( NAMED_UNIT ( * ) SI_UNIT ( $, .STERADIAN. ) SOLID_ANGLE_UNIT ( ) );
#636 = DIRECTION ( 'NONE',  ( -1.000000000000000000, -5.981805089575206058E-16, 0.000000000000000000 ) ) ;
#637 = EDGE_LOOP ( 'NONE', ( #261, #190 ) ) ;
#638 = EDGE_LOOP ( 'NONE', ( #659, #160, #288, #594 ) ) ;
#639 = CARTESIAN_POINT ( 'NONE',  ( 4.599999999999998757, 1.299999999999999600, 0.000000000000000000 ) ) ;
#640 = EDGE_CURVE ( 'NONE', #648, #657, #176, .T. ) ;
#641 = EDGE_LOOP ( 'NONE', ( #16, #697, #996, #194 ) ) ;
#642 = FACE_OUTER_BOUND ( 'NONE', #794, .T. ) ;
#643 = CARTESIAN_POINT ( 'NONE',  ( -3.250000000000001332, 1.300000000000000266, -0.3999999999999999667 ) ) ;
#644 = AXIS2_PLACEMENT_3D ( 'NONE', #213, #345, #498 ) ;
#645 = CARTESIAN_POINT ( 'NONE',  ( -3.149999999999999911, 1.300000000000000266, 0.6500000000000000222 ) ) ;
#646 = AXIS2_PLACEMENT_3D ( 'NONE', #1120, #127, #432 ) ;
#647 = ORIENTED_EDGE ( 'NONE', *, *, #353, .T. ) ;
#648 = VERTEX_POINT ( 'NONE', #6 ) ;
#649 = TOROIDAL_SURFACE ( 'NONE', #424, 0.6500000000000000222, 0.5136570195779388559 ) ;
#650 = ORIENTED_EDGE ( 'NONE', *, *, #1058, .F. ) ;
#651 = ORIENTED_EDGE ( 'NONE', *, *, #720, .F. ) ;
#652 = FACE_OUTER_BOUND ( 'NONE', #596, .T. ) ;
#653 = DIRECTION ( 'NONE',  ( -4.440447034996976439E-16, -1.000000000000000000, 0.000000000000000000 ) ) ;
#654 = ORIENTED_EDGE ( 'NONE', *, *, #238, .F. ) ;
#655 = EDGE_LOOP ( 'NONE', ( #1009, #1078, #587, #1086 ) ) ;
#656 = CIRCLE ( 'NONE', #821, 0.2999999999999999889 ) ;
#657 = VERTEX_POINT ( 'NONE', #373 ) ;
#658 = DIRECTION ( 'NONE',  ( 0.000000000000000000, 0.000000000000000000, 1.000000000000000000 ) ) ;
#659 = ORIENTED_EDGE ( 'NONE', *, *, #873, .T. ) ;
#660 = ORIENTED_EDGE ( 'NONE', *, *, #686, .F. ) ;
#661 = ADVANCED_FACE ( 'NONE', ( #150 ), #949, .T. ) ;
#662 = ORIENTED_EDGE ( 'NONE', *, *, #1076, .T. ) ;
#663 = EDGE_LOOP ( 'NONE', ( #403, #274 ) ) ;
#664 = VERTEX_POINT ( 'NONE', #464 ) ;
#665 = CARTESIAN_POINT ( 'NONE',  ( 0.7096920590035189491, 1.300000000000000266, 0.000000000000000000 ) ) ;
#666 = EDGE_CURVE ( 'NONE', #252, #210, #201, .T. ) ;
#667 = EDGE_LOOP ( 'NONE', ( #588, #209, #212, #964, #236 ) ) ;
#668 = VERTEX_POINT ( 'NONE', #396 ) ;
#669 = AXIS2_PLACEMENT_3D ( 'NONE', #82, #359, #449 ) ;
#670 = ORIENTED_EDGE ( 'NONE', *, *, #517, .T. ) ;
#671 = CARTESIAN_POINT ( 'NONE',  ( 2.798167835625740452, 1.300000000000000266, 0.000000000000000000 ) ) ;
#672 = CARTESIAN_POINT ( 'NONE',  ( 5.500000000000000000, 0.4000000000000001887, 0.000000000000000000 ) ) ;
#673 = ORIENTED_EDGE ( 'NONE', *, *, #332, .F. ) ;
#674 = AXIS2_PLACEMENT_3D ( 'NONE', #414, #51, #95 ) ;
#675 = ORIENTED_EDGE ( 'NONE', *, *, #263, .T. ) ;
#676 = ORIENTED_EDGE ( 'NONE', *, *, #896, .F. ) ;
#677 = ORIENTED_EDGE ( 'NONE', *, *, #367, .F. ) ;
#678 = ORIENTED_EDGE ( 'NONE', *, *, #508, .T. ) ;
#679 = CLOSED_SHELL ( 'NONE', ( #349, #680, #904, #844, #505, #525, #251, #135 ) ) ;
#680 = ADVANCED_FACE ( 'NONE', ( #153 ), #545, .T. ) ;
#682 = DIRECTION ( 'NONE',  ( 0.000000000000000000, 0.000000000000000000, -1.000000000000000000 ) ) ;
#681 = CIRCLE ( 'NONE', #1015, 0.2999999999999999889 ) ;
#683 = ORIENTED_EDGE ( 'NONE', *, *, #720, .T. ) ;
#684 = CYLINDRICAL_SURFACE ( 'NONE', #20, 0.2999999999999999334 ) ;
#685 = ORIENTED_EDGE ( 'NONE', *, *, #773, .F. ) ;
#686 = EDGE_CURVE ( 'NONE', #264, #994, #926, .T. ) ;
#687 = ORIENTED_EDGE ( 'NONE', *, *, #187, .T. ) ;
#688 = DIRECTION ( 'NONE',  ( -1.000000000000000000, -0.000000000000000000, -0.000000000000000000 ) ) ;
#689 = ADVANCED_FACE ( 'NONE', ( #163 ), #553, .T. ) ;
#690 = AXIS2_PLACEMENT_3D ( 'NONE', #145, #268, #966 ) ;
#691 = ORIENTED_EDGE ( 'NONE', *, *, #883, .T. ) ;
#692 = CARTESIAN_POINT ( 'NONE',  ( -3.549999999999999822, 1.300000000000000266, 0.000000000000000000 ) ) ;
#693 = CARTESIAN_POINT ( 'NONE',  ( 3.250000000000001332, 1.300000000000000266, -0.3999999999999999667 ) ) ;
#694 = VERTEX_POINT ( 'NONE', #486 ) ;
#695 = ADVANCED_FACE ( 'NONE', ( #547 ), #159, .T. ) ;
#696 = CIRCLE ( 'NONE', #938, 0.5136570195779388559 ) ;
#697 = ORIENTED_EDGE ( 'NONE', *, *, #866, .T. ) ;
#698 = CIRCLE ( 'NONE', #311, 0.2999999999999999889 ) ;
#699 = EDGE_LOOP ( 'NONE', ( #324, #620 ) ) ;
#700 = ORIENTED_EDGE ( 'NONE', *, *, #263, .F. ) ;
#701 = CARTESIAN_POINT ( 'NONE',  ( -2.798167835625740008, 1.300000000000000266, 0.000000000000000000 ) ) ;
#703 = CARTESIAN_POINT ( 'NONE',  ( -3.150000000000001243, 1.000000000000000444, 0.000000000000000000 ) ) ;
#702 = FACE_OUTER_BOUND ( 'NONE', #769, .T. ) ;
#704 = EDGE_LOOP ( 'NONE', ( #333, #559, #227, #554 ) ) ;
#705 = EDGE_CURVE ( 'NONE', #633, #272, #940, .T. ) ;
#706 = TOROIDAL_SURFACE ( 'NONE', #148, 0.6500000000000000222, 0.5136570195779388559 ) ;
#707 = AXIS2_PLACEMENT_3D ( 'NONE', #470, #527, #726 ) ;
#708 = AXIS2_PLACEMENT_3D ( 'NONE', #282, #955, #967 ) ;
#709 = CIRCLE ( 'NONE', #761, 0.09999999999999999167 ) ;
#710 = CARTESIAN_POINT ( 'NONE',  ( 0.7096920590035189491, 1.300000000000000266, 1.637499999999998845 ) ) ;
#711 = DIRECTION ( 'NONE',  ( 0.000000000000000000, -1.000000000000000000, 0.000000000000000000 ) ) ;
#712 = CARTESIAN_POINT ( 'NONE',  ( 5.499999999999995559, -27.73628330588458368, 0.000000000000000000 ) ) ;
#713 = EDGE_CURVE ( 'NONE', #1004, #307, #186, .T. ) ;
#714 = UNCERTAINTY_MEASURE_WITH_UNIT (LENGTH_MEASURE( 1.000000000000000082E-05 ), #364, 'distance_accuracy_value', 'NONE');
#715 = FILL_AREA_STYLE ('',( #601 ) ) ;
#716 = AXIS2_PLACEMENT_3D ( 'NONE', #393, #488, #658 ) ;
#717 = CARTESIAN_POINT ( 'NONE',  ( 0.000000000000000000, 0.000000000000000000, 0.000000000000000000 ) ) ;
#718 = DIRECTION ( 'NONE',  ( -7.186474170114657620E-16, -1.000000000000000000, 0.000000000000000000 ) ) ;
#719 = CARTESIAN_POINT ( 'NONE',  ( 3.150000000000001243, 1.300000000000000266, 0.000000000000000000 ) ) ;
#720 = EDGE_CURVE ( 'NONE', #302, #285, #550, .T. ) ;
#721 = PRODUCT_CONTEXT ( 'NONE', #521, 'mechanical' ) ;
#722 = DIRECTION ( 'NONE',  ( 0.000000000000000000, -1.000000000000000000, 0.000000000000000000 ) ) ;
#723 = AXIS2_PLACEMENT_3D ( 'NONE', #34, #1087, #724 ) ;
#724 = DIRECTION ( 'NONE',  ( 0.000000000000000000, -1.000000000000000000, 0.000000000000000000 ) ) ;
#725 = AXIS2_PLACEMENT_3D ( 'NONE', #195, #292, #518 ) ;
#726 = DIRECTION ( 'NONE',  ( 0.000000000000000000, 0.000000000000000000, 1.000000000000000000 ) ) ;
#727 = DIRECTION ( 'NONE',  ( -1.000000000000000000, -0.000000000000000000, -0.000000000000000000 ) ) ;
#728 = SURFACE_SIDE_STYLE ('',( #581 ) ) ;
#729 = DIRECTION ( 'NONE',  ( 0.000000000000000000, 0.000000000000000000, 1.000000000000000000 ) ) ;
#730 = CARTESIAN_POINT ( 'NONE',  ( 3.250000000000001332, 1.300000000000000266, 0.000000000000000000 ) ) ;
#731 = MANIFOLD_SOLID_BREP ( 'Split1[2]', #256 ) ;
#732 = EDGE_CURVE ( 'NONE', #1006, #1056, #206, .T. ) ;
#733 = DIRECTION ( 'NONE',  ( 1.000000000000000000, -5.981805089575206058E-16, 0.000000000000000000 ) ) ;
#734 = DIRECTION ( 'NONE',  ( 0.000000000000000000, -1.000000000000000000, 0.000000000000000000 ) ) ;
#735 = DIRECTION ( 'NONE',  ( 0.000000000000000000, -1.000000000000000000, 0.000000000000000000 ) ) ;
#736 = CARTESIAN_POINT ( 'NONE',  ( 3.549999999999999822, 1.300000000000000266, 0.000000000000000000 ) ) ;
#737 = VECTOR ( 'NONE', #322, 1000.000000000000000 ) ;
#738 = DIRECTION ( 'NONE',  ( 1.000000000000000000, 0.000000000000000000, 0.000000000000000000 ) ) ;
#739 = EDGE_CURVE ( 'NONE', #1060, #202, #204, .T. ) ;
#740 = CARTESIAN_POINT ( 'NONE',  ( 5.500000000000000000, 0.4000000000000001887, 0.000000000000000000 ) ) ;
#741 = DIRECTION ( 'NONE',  ( -1.000000000000000000, -5.981805089575206058E-16, 0.000000000000000000 ) ) ;
#742 = PRESENTATION_LAYER_ASSIGNMENT (  '', '', ( #989 ) ) ;
#743 = PRESENTATION_STYLE_ASSIGNMENT (( #935 ) ) ;
#744 = AXIS2_PLACEMENT_3D ( 'NONE', #133, #1044, #122 ) ;
#745 = DIRECTION ( 'NONE',  ( 0.000000000000000000, 0.000000000000000000, -1.000000000000000000 ) ) ;
#746 = TOROIDAL_SURFACE ( 'NONE', #1039, 1.637499999999998845, 0.4999999999999997780 ) ;
#747 = ADVANCED_FACE ( 'NONE', ( #960 ), #952, .F. ) ;
#748 = CIRCLE ( 'NONE', #509, 0.3999999999999999667 ) ;
#749 = DIRECTION ( 'NONE',  ( -1.000000000000000000, -0.000000000000000000, -0.000000000000000000 ) ) ;
#750 = CARTESIAN_POINT ( 'NONE',  ( 5.499999999999995559, -27.73628330588458368, 0.000000000000000000 ) ) ;
#751 = ORIENTED_EDGE ( 'NONE', *, *, #948, .F. ) ;
#752 = CARTESIAN_POINT ( 'NONE',  ( 0.8564161169558039965, 1.300000000000000266, 0.000000000000000000 ) ) ;
#753 = ORIENTED_EDGE ( 'NONE', *, *, #138, .F. ) ;
#754 = CIRCLE ( 'NONE', #312, 0.2999999999999999889 ) ;
#755 = DIRECTION ( 'NONE',  ( -1.000000000000000000, -5.981805089575206058E-16, 0.000000000000000000 ) ) ;
#756 = EDGE_CURVE ( 'NONE', #979, #977, #957, .T. ) ;
#757 = ORIENTED_EDGE ( 'NONE', *, *, #606, .T. ) ;
#758 = AXIS2_PLACEMENT_3D ( 'NONE', #326, #819, #804 ) ;
#759 = PLANE ( 'NONE',  #973 ) ;
#760 = CARTESIAN_POINT ( 'NONE',  ( 5.200000000000000178, 0.4000000000000004108, 0.000000000000000000 ) ) ;
#761 = AXIS2_PLACEMENT_3D ( 'NONE', #982, #735, #184 ) ;
#762 = ORIENTED_EDGE ( 'NONE', *, *, #203, .T. ) ;
#763 = TOROIDAL_SURFACE ( 'NONE', #532, 0.3999999999999999667, 0.1000000000000000056 ) ;
#764 = ORIENTED_EDGE ( 'NONE', *, *, #686, .T. ) ;
#765 = CARTESIAN_POINT ( 'NONE',  ( -3.150000000000001243, 1.000000000000000444, 0.000000000000000000 ) ) ;
#766 = CIRCLE ( 'NONE', #1080, 0.2999999999999999889 ) ;
#767 = DIRECTION ( 'NONE',  ( -1.000000000000000000, -0.000000000000000000, -0.000000000000000000 ) ) ;
#768 = DIRECTION ( 'NONE',  ( -0.000000000000000000, 1.000000000000000000, 1.224646799147353207E-16 ) ) ;
#769 = EDGE_LOOP ( 'NONE', ( #385, #257, #651, #29 ) ) ;
#770 = FACE_OUTER_BOUND ( 'NONE', #981, .T. ) ;
#771 = ORIENTED_EDGE ( 'NONE', *, *, #1141, .F. ) ;
#772 = FACE_OUTER_BOUND ( 'NONE', #224, .T. ) ;
#773 = EDGE_CURVE ( 'NONE', #617, #648, #965, .T. ) ;
#774 = CYLINDRICAL_SURFACE ( 'NONE', #86, 0.2999999999999999334 ) ;
#775 = ORIENTED_EDGE ( 'NONE', *, *, #218, .T. ) ;
#776 = AXIS2_PLACEMENT_3D ( 'NONE', #2, #276, #519 ) ;
#777 = UNCERTAINTY_MEASURE_WITH_UNIT (LENGTH_MEASURE( 1.000000000000000082E-05 ), #8, 'distance_accuracy_value', 'NONE');
#778 = CARTESIAN_POINT ( 'NONE',  ( -3.549999999999999822, 1.600000000000000089, 3.673940397442061963E-17 ) ) ;
#779 = ORIENTED_EDGE ( 'NONE', *, *, #866, .F. ) ;
#780 = MECHANICAL_DESIGN_GEOMETRIC_PRESENTATION_REPRESENTATION (  '', ( #172 ), #447 ) ;
#781 = VECTOR ( 'NONE', #330, 1000.000000000000000 ) ;
#782 = VERTEX_POINT ( 'NONE', #978 ) ;
#783 = ORIENTED_EDGE ( 'NONE', *, *, #913, .F. ) ;
#784 = CARTESIAN_POINT ( 'NONE',  ( 3.150000000000001243, 1.600000000000000311, -3.673940397442058882E-17 ) ) ;
#785 = ORIENTED_EDGE ( 'NONE', *, *, #435, .F. ) ;
#786 = ORIENTED_EDGE ( 'NONE', *, *, #913, .T. ) ;
#787 = FACE_OUTER_BOUND ( 'NONE', #944, .T. ) ;
#788 = EDGE_CURVE ( 'NONE', #271, #21, #961, .T. ) ;
#789 = VERTEX_POINT ( 'NONE', #1105 ) ;
#790 = ORIENTED_EDGE ( 'NONE', *, *, #283, .T. ) ;
#791 = LINE ( 'NONE', #703, #37 ) ;
#792 = DIRECTION ( 'NONE',  ( -1.000000000000000000, -0.000000000000000000, -0.000000000000000000 ) ) ;
#793 = DIRECTION ( 'NONE',  ( 0.000000000000000000, 0.000000000000000000, 1.000000000000000000 ) ) ;
#794 = EDGE_LOOP ( 'NONE', ( #785, #660, #1166, #295, #387 ) ) ;
#795 = SURFACE_SIDE_STYLE ('',( #453 ) ) ;
#796 = CIRCLE ( 'NONE', #421, 0.2999999999999999889 ) ;
#797 = CIRCLE ( 'NONE', #914, 0.2999999999999999889 ) ;
#798 = CIRCLE ( 'NONE', #121, 1.199999999999997957 ) ;
#799 = FACE_OUTER_BOUND ( 'NONE', #584, .T. ) ;
#800 = CARTESIAN_POINT ( 'NONE',  ( 3.150000000000001243, 1.600000000000000311, -3.673940397442058882E-17 ) ) ;
#801 = APPLICATION_PROTOCOL_DEFINITION ( 'draft international standard', 'automotive_design', 1998, #521 ) ;
#802 = DIRECTION ( 'NONE',  ( -1.000000000000000000, -5.981805089575206058E-16, 0.000000000000000000 ) ) ;
#803 = EDGE_CURVE ( 'NONE', #994, #264, #586, .T. ) ;
#804 = DIRECTION ( 'NONE',  ( 1.000000000000000000, 0.000000000000000000, 0.000000000000000000 ) ) ;
#805 = TOROIDAL_SURFACE ( 'NONE', #1119, 1.637499999999998845, 0.4999999999999997780 ) ;
#806 = AXIS2_PLACEMENT_3D ( 'NONE', #984, #175, #1117 ) ;
#807 = DIRECTION ( 'NONE',  ( 1.000000000000000000, 0.000000000000000000, 0.000000000000000000 ) ) ;
#808 = DIRECTION ( 'NONE',  ( 0.000000000000000000, -1.000000000000000000, 0.000000000000000000 ) ) ;
#809 = CIRCLE ( 'NONE', #1133, 1.159512499307758571 ) ;
#810 = CARTESIAN_POINT ( 'NONE',  ( 5.500000000000000000, 0.4000000000000006328, 0.000000000000000000 ) ) ;
#811 = CIRCLE ( 'NONE', #220, 0.2999999999999999889 ) ;
#812 = DIRECTION ( 'NONE',  ( 0.000000000000000000, 0.000000000000000000, 1.000000000000000000 ) ) ;
#813 = CARTESIAN_POINT ( 'NONE',  ( -5.500000000000000000, 0.4000000000000006328, 0.000000000000000000 ) ) ;
#814 = EDGE_CURVE ( 'NONE', #1056, #603, #628, .T. ) ;
#815 = DIRECTION ( 'NONE',  ( 0.000000000000000000, 0.000000000000000000, -1.000000000000000000 ) ) ;
#816 = CIRCLE ( 'NONE', #520, 0.2999999999999999889 ) ;
#817 = AXIS2_PLACEMENT_3D ( 'NONE', #717, #372, #879 ) ;
#818 =( GEOMETRIC_REPRESENTATION_CONTEXT ( 3 ) GLOBAL_UNCERTAINTY_ASSIGNED_CONTEXT ( ( #777 ) ) GLOBAL_UNIT_ASSIGNED_CONTEXT ( ( #8, #524, #170 ) ) REPRESENTATION_CONTEXT ( 'NONE', 'WORKASPACE' ) );
#819 = DIRECTION ( 'NONE',  ( 0.000000000000000000, 0.000000000000000000, 1.000000000000000000 ) ) ;
#820 = ORIENTED_EDGE ( 'NONE', *, *, #72, .T. ) ;
#821 = AXIS2_PLACEMENT_3D ( 'NONE', #304, #634, #616 ) ;
#822 = DIRECTION ( 'NONE',  ( 0.000000000000000000, 7.228014483236696555E-16, 1.000000000000000000 ) ) ;
#823 = SURFACE_SIDE_STYLE ('',( #22 ) ) ;
#824 = DIRECTION ( 'NONE',  ( 0.000000000000000000, 0.000000000000000000, -1.000000000000000000 ) ) ;
#825 = EDGE_LOOP ( 'NONE', ( #673, #691, #790, #36, #430 ) ) ;
#826 = DIRECTION ( 'NONE',  ( 0.000000000000000000, 0.000000000000000000, -1.000000000000000000 ) ) ;
#827 = DIRECTION ( 'NONE',  ( -7.186474170114657620E-16, 1.000000000000000000, -0.000000000000000000 ) ) ;
#828 = CARTESIAN_POINT ( 'NONE',  ( -3.149999999999999911, 1.300000000000000266, -0.6500000000000000222 ) ) ;
#829 = ADVANCED_FACE ( 'NONE', ( #988 ), #1012, .F. ) ;
#830 = EDGE_CURVE ( 'NONE', #262, #307, #1033, .T. ) ;
#831 = DIRECTION ( 'NONE',  ( 1.000000000000000000, 0.000000000000000000, 0.000000000000000000 ) ) ;
#832 =( GEOMETRIC_REPRESENTATION_CONTEXT ( 3 ) GLOBAL_UNCERTAINTY_ASSIGNED_CONTEXT ( ( #375 ) ) GLOBAL_UNIT_ASSIGNED_CONTEXT ( ( #305, #26, #635 ) ) REPRESENTATION_CONTEXT ( 'NONE', 'WORKASPACE' ) );
#833 = AXIS2_PLACEMENT_3D ( 'NONE', #473, #381, #722 ) ;
#834 = CARTESIAN_POINT ( 'NONE',  ( 3.150000000000000799, 1.300000000000000266, 0.000000000000000000 ) ) ;
#835 = DIRECTION ( 'NONE',  ( -1.000000000000000000, 0.000000000000000000, 0.000000000000000000 ) ) ;
#836 = ADVANCED_FACE ( 'NONE', ( #652 ), #125, .F. ) ;
#837 = CARTESIAN_POINT ( 'NONE',  ( 0.7096920590035189491, 1.300000000000000266, 0.000000000000000000 ) ) ;
#838 = CYLINDRICAL_SURFACE ( 'NONE', #112, 0.2999999999999999334 ) ;
#839 = CARTESIAN_POINT ( 'NONE',  ( 2.798167835625740452, 1.300000000000000266, 1.137499999999999734 ) ) ;
#840 = VECTOR ( 'NONE', #932, 1000.000000000000000 ) ;
#841 = DIRECTION ( 'NONE',  ( 0.000000000000000000, 0.000000000000000000, 1.000000000000000000 ) ) ;
#842 = DIRECTION ( 'NONE',  ( 0.000000000000000000, 0.000000000000000000, 1.000000000000000000 ) ) ;
#843 = EDGE_CURVE ( 'NONE', #602, #1040, #253, .T. ) ;
#844 = ADVANCED_FACE ( 'NONE', ( #242 ), #418, .T. ) ;
#845 = DIRECTION ( 'NONE',  ( -1.000000000000000000, -0.000000000000000000, -0.000000000000000000 ) ) ;
#846 = DIRECTION ( 'NONE',  ( -1.000000000000000000, -0.000000000000000000, -0.000000000000000000 ) ) ;
#847 = DIRECTION ( 'NONE',  ( 0.000000000000000000, -1.000000000000000000, 0.000000000000000000 ) ) ;
#848 = ADVANCED_FACE ( 'NONE', ( #1037 ), #619, .T. ) ;
#849 = CARTESIAN_POINT ( 'NONE',  ( 3.549999999999999822, 1.300000000000000266, 0.000000000000000000 ) ) ;
#850 = ADVANCED_FACE ( 'NONE', ( #642 ), #260, .F. ) ;
#851 = AXIS2_PLACEMENT_3D ( 'NONE', #56, #513, #344 ) ;
#852 = DIRECTION ( 'NONE',  ( 0.000000000000000000, 0.000000000000000000, 1.000000000000000000 ) ) ;
#853 = DIRECTION ( 'NONE',  ( 1.000000000000000000, 0.000000000000000000, 0.000000000000000000 ) ) ;
#854 = AXIS2_PLACEMENT_3D ( 'NONE', #752, #55, #409 ) ;
#855 = ADVANCED_BREP_SHAPE_REPRESENTATION ( '6.87.12.60.631', ( #731, #437, #4, #817 ), #1164 ) ;
#856 = ADVANCED_FACE ( 'NONE', ( #624, #614 ), #386, .F. ) ;
#857 = DIRECTION ( 'NONE',  ( -1.000000000000000000, -0.000000000000000000, -0.000000000000000000 ) ) ;
#858 = DIRECTION ( 'NONE',  ( 4.440447034996976439E-16, -1.000000000000000000, 0.000000000000000000 ) ) ;
#859 = EDGE_CURVE ( 'NONE', #664, #252, #604, .T. ) ;
#860 = AXIS2_PLACEMENT_3D ( 'NONE', #750, #246, #445 ) ;
#861 = PLANE ( 'NONE',  #290 ) ;
#862 = CARTESIAN_POINT ( 'NONE',  ( 3.549999999999999822, 1.300000000000000266, 0.000000000000000000 ) ) ;
#863 = AXIS2_PLACEMENT_3D ( 'NONE', #526, #962, #877 ) ;
#864 = ADVANCED_FACE ( 'NONE', ( #1016 ), #275, .T. ) ;
#865 =( NAMED_UNIT ( * ) SI_UNIT ( $, .STERADIAN. ) SOLID_ANGLE_UNIT ( ) );
#866 = EDGE_CURVE ( 'NONE', #272, #633, #621, .T. ) ;
#867 = AXIS2_PLACEMENT_3D ( 'NONE', #84, #858, #65 ) ;
#868 = APPLICATION_PROTOCOL_DEFINITION ( 'draft international standard', 'automotive_design', 1998, #18 ) ;
#869 = DIRECTION ( 'NONE',  ( -1.541358054578229619E-16, -1.000000000000000000, 0.000000000000000000 ) ) ;
#870 = DIRECTION ( 'NONE',  ( 0.000000000000000000, 0.000000000000000000, -1.000000000000000000 ) ) ;
#871 = CARTESIAN_POINT ( 'NONE',  ( -3.250000000000001332, 1.300000000000000266, 0.000000000000000000 ) ) ;
#872 =( LENGTH_UNIT ( ) NAMED_UNIT ( * ) SI_UNIT ( .MILLI., .METRE. ) );
#873 = EDGE_CURVE ( 'NONE', #1056, #1006, #1028, .T. ) ;
#874 = DIRECTION ( 'NONE',  ( 0.000000000000000000, 0.000000000000000000, 1.000000000000000000 ) ) ;
#875 = AXIS2_PLACEMENT_3D ( 'NONE', #504, #507, #928 ) ;
#876 = AXIS2_PLACEMENT_3D ( 'NONE', #630, #365, #599 ) ;
#877 = DIRECTION ( 'NONE',  ( 1.000000000000000000, 0.000000000000000000, 0.000000000000000000 ) ) ;
#878 = FILL_AREA_STYLE_COLOUR ( '', #1148 ) ;
#879 = DIRECTION ( 'NONE',  ( 1.000000000000000000, 0.000000000000000000, 0.000000000000000000 ) ) ;
#880 = CARTESIAN_POINT ( 'NONE',  ( -3.150000000000001243, 1.600000000000000311, 3.673940397442058882E-17 ) ) ;
#881 = CARTESIAN_POINT ( 'NONE',  ( -4.599999999999998757, 0.9999999999999995559, 0.000000000000000000 ) ) ;
#882 = CARTESIAN_POINT ( 'NONE',  ( 2.636342980422061277, 1.300000000000000266, 0.000000000000000000 ) ) ;
#883 = EDGE_CURVE ( 'NONE', #164, #230, #266, .T. ) ;
#884 = SURFACE_SIDE_STYLE ('',( #1124 ) ) ;
#885 = CARTESIAN_POINT ( 'NONE',  ( -3.150000000000001243, 1.300000000000000266, 0.000000000000000000 ) ) ;
#886 = MECHANICAL_DESIGN_GEOMETRIC_PRESENTATION_REPRESENTATION (  '', ( #131 ), #419 ) ;
#887 = EDGE_CURVE ( 'NONE', #252, #664, #999, .T. ) ;
#888 = DIRECTION ( 'NONE',  ( -1.541358054578229619E-16, -1.000000000000000000, 0.000000000000000000 ) ) ;
#889 = AXIS2_PLACEMENT_3D ( 'NONE', #710, #591, #565 ) ;
#890 = DIRECTION ( 'NONE',  ( 1.000000000000000000, 0.000000000000000000, 0.000000000000000000 ) ) ;
#891 = DIRECTION ( 'NONE',  ( -1.000000000000000000, -0.000000000000000000, -0.000000000000000000 ) ) ;
#892 = ADVANCED_FACE ( 'NONE', ( #610 ), #219, .T. ) ;
#893 = CARTESIAN_POINT ( 'NONE',  ( -5.499999999999995559, -27.73628330588458368, 0.000000000000000000 ) ) ;
#894 = DIRECTION ( 'NONE',  ( -1.541358054578229619E-16, -1.000000000000000000, 0.000000000000000000 ) ) ;
#895 = DIRECTION ( 'NONE',  ( -1.000000000000000000, -0.000000000000000000, -0.000000000000000000 ) ) ;
#896 = EDGE_CURVE ( 'NONE', #937, #1056, #225, .T. ) ;
#897 = DIRECTION ( 'NONE',  ( -1.000000000000000000, 0.000000000000000000, 0.000000000000000000 ) ) ;
#898 = AXIS2_PLACEMENT_3D ( 'NONE', #1123, #847, #1136 ) ;
#899 = DIRECTION ( 'NONE',  ( 0.000000000000000000, 0.000000000000000000, -1.000000000000000000 ) ) ;
#900 = AXIS2_PLACEMENT_3D ( 'NONE', #862, #31, #824 ) ;
#901 = CARTESIAN_POINT ( 'NONE',  ( -3.549999999999999822, 1.300000000000000266, 0.000000000000000000 ) ) ;
#902 = CARTESIAN_POINT ( 'NONE',  ( 0.7096920590035187271, 1.300000000000000266, 0.000000000000000000 ) ) ;
#903 = DIRECTION ( 'NONE',  ( 0.000000000000000000, 0.000000000000000000, -1.000000000000000000 ) ) ;
#904 = ADVANCED_FACE ( 'NONE', ( #250 ), #1020, .T. ) ;
#905 = CARTESIAN_POINT ( 'NONE',  ( -3.549999999999999822, 0.000000000000000000, 0.000000000000000000 ) ) ;
#906 = PLANE ( 'NONE',  #867 ) ;
#907 = EDGE_CURVE ( 'NONE', #264, #230, #1022, .T. ) ;
#908 = ADVANCED_FACE ( 'NONE', ( #985 ), #649, .T. ) ;
#909 = CIRCLE ( 'NONE', #76, 0.5136570195779388559 ) ;
#910 = DIRECTION ( 'NONE',  ( 0.000000000000000000, 0.000000000000000000, -1.000000000000000000 ) ) ;
#911 = DIRECTION ( 'NONE',  ( -1.541358054578229619E-16, -1.000000000000000000, 0.000000000000000000 ) ) ;
#912 = VECTOR ( 'NONE', #351, 1000.000000000000000 ) ;
#913 = EDGE_CURVE ( 'NONE', #310, #668, #1047, .T. ) ;
#914 = AXIS2_PLACEMENT_3D ( 'NONE', #346, #1005, #842 ) ;
#915 = CARTESIAN_POINT ( 'NONE',  ( -0.8564161169558039965, 1.300000000000000266, 1.159512499307758571 ) ) ;
#916 = DIRECTION ( 'NONE',  ( -1.000000000000000000, -0.000000000000000000, -0.000000000000000000 ) ) ;
#917 = ORIENTED_EDGE ( 'NONE', *, *, #606, .F. ) ;
#918 = LINE ( 'NONE', #784, #564 ) ;
#919 = AXIS2_PLACEMENT_3D ( 'NONE', #258, #857, #841 ) ;
#920 = ORIENTED_EDGE ( 'NONE', *, *, #489, .T. ) ;
#921 = PRESENTATION_STYLE_ASSIGNMENT (( #458 ) ) ;
#922 = ORIENTED_EDGE ( 'NONE', *, *, #640, .T. ) ;
#923 = ADVANCED_FACE ( 'NONE', ( #296 ), #1051, .T. ) ;
#924 = DIRECTION ( 'NONE',  ( -1.000000000000000000, 0.000000000000000000, 0.000000000000000000 ) ) ;
#925 = EDGE_LOOP ( 'NONE', ( #412, #46, #1082, #945 ) ) ;
#926 = CIRCLE ( 'NONE', #139, 0.3999999999999999667 ) ;
#927 = CARTESIAN_POINT ( 'NONE',  ( -5.499999999999995559, -27.73628330588458368, 0.000000000000000000 ) ) ;
#928 = DIRECTION ( 'NONE',  ( 0.000000000000000000, 0.000000000000000000, 1.000000000000000000 ) ) ;
#929 = ORIENTED_EDGE ( 'NONE', *, *, #85, .F. ) ;
#930 = ORIENTED_EDGE ( 'NONE', *, *, #1011, .T. ) ;
#931 = EDGE_CURVE ( 'NONE', #694, #164, #656, .T. ) ;
#932 = DIRECTION ( 'NONE',  ( 1.000000000000000000, -5.981805089575206058E-16, 0.000000000000000000 ) ) ;
#933 = ORIENTED_EDGE ( 'NONE', *, *, #517, .F. ) ;
#934 = EDGE_CURVE ( 'NONE', #21, #998, #681, .T. ) ;
#935 = SURFACE_STYLE_USAGE ( .BOTH. , #884 ) ;
#936 = CARTESIAN_POINT ( 'NONE',  ( 3.250000000000001332, 1.300000000000000266, 0.000000000000000000 ) ) ;
#937 = VERTEX_POINT ( 'NONE', #881 ) ;
#938 = AXIS2_PLACEMENT_3D ( 'NONE', #511, #245, #433 ) ;
#939 = EDGE_LOOP ( 'NONE', ( #976, #678, #572, #173 ) ) ;
#940 = CIRCLE ( 'NONE', #597, 0.2999999999999999889 ) ;
#941 = EDGE_LOOP ( 'NONE', ( #683, #270 ) ) ;
#942 = DIRECTION ( 'NONE',  ( 0.000000000000000000, -1.000000000000000000, 0.000000000000000000 ) ) ;
#943 = DIRECTION ( 'NONE',  ( 0.000000000000000000, 0.000000000000000000, 1.000000000000000000 ) ) ;
#944 = EDGE_LOOP ( 'NONE', ( #244, #1053, #1072, #1088 ) ) ;
#945 = ORIENTED_EDGE ( 'NONE', *, *, #308, .T. ) ;
#946 = CARTESIAN_POINT ( 'NONE',  ( 2.636342980422061277, 1.300000000000000266, 0.000000000000000000 ) ) ;
#947 = COLOUR_RGB ( '',0.7921568627450980005, 0.8196078431372548767, 0.9333333333333333481 ) ;
#948 = EDGE_CURVE ( 'NONE', #1002, #998, #709, .T. ) ;
#949 = CYLINDRICAL_SURFACE ( 'NONE', #1121, 0.2999999999999999334 ) ;
#950 = DIRECTION ( 'NONE',  ( 0.000000000000000000, 0.000000000000000000, 1.000000000000000000 ) ) ;
#951 = AXIS2_PLACEMENT_3D ( 'NONE', #544, #950, #835 ) ;
#952 = TOROIDAL_SURFACE ( 'NONE', #708, 1.637499999999998845, 0.4999999999999997780 ) ;
#953 = AXIS2_PLACEMENT_3D ( 'NONE', #740, #894, #478 ) ;
#954 =( NAMED_UNIT ( * ) PLANE_ANGLE_UNIT ( ) SI_UNIT ( $, .RADIAN. ) );
#955 = DIRECTION ( 'NONE',  ( -1.000000000000000000, -0.000000000000000000, -0.000000000000000000 ) ) ;
#956 = ORIENTED_EDGE ( 'NONE', *, *, #147, .F. ) ;
#957 = CIRCLE ( 'NONE', #247, 0.2999999999999999889 ) ;
#958 = EDGE_LOOP ( 'NONE', ( #654, #1160, #297, #1027 ) ) ;
#959 = DIRECTION ( 'NONE',  ( -1.000000000000000000, -0.000000000000000000, -0.000000000000000000 ) ) ;
#960 = FACE_OUTER_BOUND ( 'NONE', #958, .T. ) ;
#961 = CIRCLE ( 'NONE', #363, 0.2999999999999999889 ) ;
#962 = DIRECTION ( 'NONE',  ( 0.000000000000000000, 0.000000000000000000, 1.000000000000000000 ) ) ;
#963 = FILL_AREA_STYLE ('',( #878 ) ) ;
#964 = ORIENTED_EDGE ( 'NONE', *, *, #283, .F. ) ;
#965 = LINE ( 'NONE', #178, #589 ) ;
#966 = DIRECTION ( 'NONE',  ( 0.000000000000000000, 0.000000000000000000, -1.000000000000000000 ) ) ;
#967 = DIRECTION ( 'NONE',  ( 0.000000000000000000, 0.000000000000000000, 1.000000000000000000 ) ) ;
#968 = ORIENTED_EDGE ( 'NONE', *, *, #119, .T. ) ;
#969 = ORIENTED_EDGE ( 'NONE', *, *, #1011, .F. ) ;
#970 = DIRECTION ( 'NONE',  ( -1.000000000000000000, -0.000000000000000000, -0.000000000000000000 ) ) ;
#971 = EDGE_CURVE ( 'NONE', #188, #1040, #1074, .T. ) ;
#972 = ORIENTED_EDGE ( 'NONE', *, *, #467, .T. ) ;
#973 = AXIS2_PLACEMENT_3D ( 'NONE', #905, #1129, #128 ) ;
#974 = DIRECTION ( 'NONE',  ( -1.000000000000000000, -0.000000000000000000, -0.000000000000000000 ) ) ;
#975 = CARTESIAN_POINT ( 'NONE',  ( -3.150000000000001243, 1.600000000000000311, 3.673940397442058882E-17 ) ) ;
#976 = ORIENTED_EDGE ( 'NONE', *, *, #218, .F. ) ;
#977 = VERTEX_POINT ( 'NONE', #506 ) ;
#978 = CARTESIAN_POINT ( 'NONE',  ( -3.549999999999999822, 1.000000000000000222, 0.000000000000000000 ) ) ;
#979 = VERTEX_POINT ( 'NONE', #1122 ) ;
#980 = DIRECTION ( 'NONE',  ( 1.000000000000000000, 0.000000000000000000, 0.000000000000000000 ) ) ;
#981 = EDGE_LOOP ( 'NONE', ( #3, #820, #183, #1000 ) ) ;
#982 = CARTESIAN_POINT ( 'NONE',  ( 3.250000000000001332, 1.300000000000000266, 0.3999999999999999667 ) ) ;
#983 = ORIENTED_EDGE ( 'NONE', *, *, #347, .T. ) ;
#984 = CARTESIAN_POINT ( 'NONE',  ( -3.549999999999999822, 0.000000000000000000, 0.000000000000000000 ) ) ;
#985 = FACE_OUTER_BOUND ( 'NONE', #301, .T. ) ;
#986 = ORIENTED_EDGE ( 'NONE', *, *, #85, .T. ) ;
#987 = EDGE_CURVE ( 'NONE', #1067, #302, #696, .T. ) ;
#988 = FACE_OUTER_BOUND ( 'NONE', #557, .T. ) ;
#989 = STYLED_ITEM ( 'NONE', ( #1161 ), #437 ) ;
#990 = EDGE_LOOP ( 'NONE', ( #337, #675, #986, #969 ) ) ;
#991 = DIRECTION ( 'NONE',  ( 0.000000000000000000, 0.000000000000000000, 1.000000000000000000 ) ) ;
#992 = ADVANCED_FACE ( 'NONE', ( #1068 ), #317, .F. ) ;
#993 = AXIS2_PLACEMENT_3D ( 'NONE', #319, #233, #1017 ) ;
#994 = VERTEX_POINT ( 'NONE', #1030 ) ;
#995 = CARTESIAN_POINT ( 'NONE',  ( -1.792833917812870270, 1.300000000000000266, 0.000000000000000000 ) ) ;
#996 = ORIENTED_EDGE ( 'NONE', *, *, #1097, .T. ) ;
#997 = DIRECTION ( 'NONE',  ( 0.000000000000000000, 0.000000000000000000, -1.000000000000000000 ) ) ;
#998 = VERTEX_POINT ( 'NONE', #355 ) ;
#999 = CIRCLE ( 'NONE', #725, 0.6500000000000001332 ) ;
#1000 = ORIENTED_EDGE ( 'NONE', *, *, #1097, .F. ) ;
#1001 = DIRECTION ( 'NONE',  ( 1.541358054578229619E-16, -1.000000000000000000, 0.000000000000000000 ) ) ;
#1002 = VERTEX_POINT ( 'NONE', #58 ) ;
#1003 = DIRECTION ( 'NONE',  ( 0.000000000000000000, 0.000000000000000000, 1.000000000000000000 ) ) ;
#1004 = VERTEX_POINT ( 'NONE', #83 ) ;
#1005 = DIRECTION ( 'NONE',  ( 1.000000000000000000, 0.000000000000000000, 0.000000000000000000 ) ) ;
#1006 = VERTEX_POINT ( 'NONE', #141 ) ;
#1007 = EDGE_CURVE ( 'NONE', #664, #188, #331, .T. ) ;
#1008 = CARTESIAN_POINT ( 'NONE',  ( -4.599999999999999645, 0.3999999999999995226, 0.000000000000000000 ) ) ;
#1009 = ORIENTED_EDGE ( 'NONE', *, *, #119, .F. ) ;
#1010 = ADVANCED_FACE ( 'NONE', ( #1065 ), #328, .T. ) ;
#1011 = EDGE_CURVE ( 'NONE', #623, #602, #340, .T. ) ;
#1012 = TOROIDAL_SURFACE ( 'NONE', #1084, 1.637499999999998845, 0.4999999999999997780 ) ;
#1013 = ORIENTED_EDGE ( 'NONE', *, *, #500, .T. ) ;
#1014 = CARTESIAN_POINT ( 'NONE',  ( 2.798167835625740452, 1.300000000000000266, -1.137499999999999734 ) ) ;
#1015 = AXIS2_PLACEMENT_3D ( 'NONE', #730, #104, #822 ) ;
#1016 = FACE_OUTER_BOUND ( 'NONE', #625, .T. ) ;
#1017 = DIRECTION ( 'NONE',  ( 0.000000000000000000, -1.359039029306436666E-16, 1.000000000000000000 ) ) ;
#1018 = VERTEX_POINT ( 'NONE', #915 ) ;
#1019 = CARTESIAN_POINT ( 'NONE',  ( 3.250000000000001332, 1.000000000000000444, 0.000000000000000000 ) ) ;
#1020 = CYLINDRICAL_SURFACE ( 'NONE', #953, 0.2999999999999999334 ) ;
#1021 = EDGE_LOOP ( 'NONE', ( #1057, #278, #647, #14 ) ) ;
#1022 = CIRCLE ( 'NONE', #510, 0.1000000000000000472 ) ;
#1023 = ADVANCED_FACE ( 'NONE', ( #1085 ), #861, .T. ) ;
#1024 = ORIENTED_EDGE ( 'NONE', *, *, #35, .T. ) ;
#1025 = EDGE_LOOP ( 'NONE', ( #590, #1153, #956, #390 ) ) ;
#1026 = EDGE_LOOP ( 'NONE', ( #157, #1013, #1052, #423, #751 ) ) ;
#1027 = ORIENTED_EDGE ( 'NONE', *, *, #713, .T. ) ;
#1028 = CIRCLE ( 'NONE', #459, 0.2999999999999999889 ) ;
#1029 = ORIENTED_EDGE ( 'NONE', *, *, #803, .T. ) ;
#1030 = CARTESIAN_POINT ( 'NONE',  ( -3.150000000000001243, 1.300000000000000266, 0.3999999999999999667 ) ) ;
#1031 = ORIENTED_EDGE ( 'NONE', *, *, #1007, .F. ) ;
#1032 = DIRECTION ( 'NONE',  ( -1.000000000000000000, 1.807003620809174385E-16, 0.000000000000000000 ) ) ;
#1033 = LINE ( 'NONE', #570, #231 ) ;
#1034 = EDGE_CURVE ( 'NONE', #1018, #310, #1081, .T. ) ;
#1035 = ORIENTED_EDGE ( 'NONE', *, *, #1058, .T. ) ;
#1036 = ORIENTED_EDGE ( 'NONE', *, *, #500, .F. ) ;
#1037 = FACE_OUTER_BOUND ( 'NONE', #1045, .T. ) ;
#1038 = PRESENTATION_LAYER_ASSIGNMENT (  '', '', ( #131 ) ) ;
#1039 = AXIS2_PLACEMENT_3D ( 'NONE', #63, #845, #144 ) ;
#1040 = VERTEX_POINT ( 'NONE', #427 ) ;
#1041 = VERTEX_POINT ( 'NONE', #1059 ) ;
#1042 = ORIENTED_EDGE ( 'NONE', *, *, #859, .T. ) ;
#1043 = ORIENTED_EDGE ( 'NONE', *, *, #384, .T. ) ;
#1044 = DIRECTION ( 'NONE',  ( -1.000000000000000000, -0.000000000000000000, -0.000000000000000000 ) ) ;
#1045 = EDGE_LOOP ( 'NONE', ( #1149, #670, #7, #676 ) ) ;
#1046 = CARTESIAN_POINT ( 'NONE',  ( 4.599999999999998757, 0.9999999999999995559, 0.000000000000000000 ) ) ;
#1047 = CIRCLE ( 'NONE', #356, 3.191084727092228679 ) ;
#1048 = ORIENTED_EDGE ( 'NONE', *, *, #540, .T. ) ;
#1049 = UNCERTAINTY_MEASURE_WITH_UNIT (LENGTH_MEASURE( 1.000000000000000082E-05 ), #528, 'distance_accuracy_value', 'NONE');
#1050 = ORIENTED_EDGE ( 'NONE', *, *, #756, .T. ) ;
#1051 = TOROIDAL_SURFACE ( 'NONE', #1098, -1.891084727092229745, 3.191084727092228679 ) ;
#1052 = ORIENTED_EDGE ( 'NONE', *, *, #452, .F. ) ;
#1053 = ORIENTED_EDGE ( 'NONE', *, *, #238, .T. ) ;
#1054 = ORIENTED_EDGE ( 'NONE', *, *, #452, .T. ) ;
#1055 = DIRECTION ( 'NONE',  ( -1.000000000000000000, -0.000000000000000000, -0.000000000000000000 ) ) ;
#1056 = VERTEX_POINT ( 'NONE', #1139 ) ;
#1057 = ORIENTED_EDGE ( 'NONE', *, *, #830, .F. ) ;
#1058 = EDGE_CURVE ( 'NONE', #668, #1067, #335, .T. ) ;
#1059 = CARTESIAN_POINT ( 'NONE',  ( 4.599999999999998757, 1.599999999999999423, -3.673940397442059498E-17 ) ) ;
#1060 = VERTEX_POINT ( 'NONE', #778 ) ;
#1061 = DIRECTION ( 'NONE',  ( -1.000000000000000000, -5.981805089575206058E-16, 0.000000000000000000 ) ) ;
#1062 = ORIENTED_EDGE ( 'NONE', *, *, #843, .T. ) ;
#1063 = VERTEX_POINT ( 'NONE', #78 ) ;
#1064 = ORIENTED_EDGE ( 'NONE', *, *, #109, .T. ) ;
#1065 = FACE_OUTER_BOUND ( 'NONE', #199, .T. ) ;
#1066 = CARTESIAN_POINT ( 'NONE',  ( -5.500000000000000000, 0.4000000000000001887, 0.000000000000000000 ) ) ;
#1067 = VERTEX_POINT ( 'NONE', #1150 ) ;
#1068 = FACE_OUTER_BOUND ( 'NONE', #667, .T. ) ;
#1069 = ORIENTED_EDGE ( 'NONE', *, *, #739, .F. ) ;
#1070 = CARTESIAN_POINT ( 'NONE',  ( -3.150000000000001243, 1.300000000000000266, 0.000000000000000000 ) ) ;
#1071 = CIRCLE ( 'NONE', #644, 0.5999999999999980904 ) ;
#1072 = ORIENTED_EDGE ( 'NONE', *, *, #11, .T. ) ;
#1073 = ADVANCED_FACE ( 'NONE', ( #313 ), #684, .T. ) ;
#1074 = CIRCLE ( 'NONE', #993, 3.191084727092228679 ) ;
#1075 = ORIENTED_EDGE ( 'NONE', *, *, #814, .T. ) ;
#1076 = EDGE_CURVE ( 'NONE', #210, #188, #343, .T. ) ;
#1077 = DIRECTION ( 'NONE',  ( -1.000000000000000000, 0.000000000000000000, 0.000000000000000000 ) ) ;
#1078 = ORIENTED_EDGE ( 'NONE', *, *, #705, .F. ) ;
#1079 = AXIS2_PLACEMENT_3D ( 'NONE', #671, #749, #1003 ) ;
#1080 = AXIS2_PLACEMENT_3D ( 'NONE', #537, #556, #185 ) ;
#1081 = CIRCLE ( 'NONE', #919, 1.159512499307758571 ) ;
#1082 = ORIENTED_EDGE ( 'NONE', *, *, #529, .T. ) ;
#1083 = DIRECTION ( 'NONE',  ( 0.000000000000000000, 0.000000000000000000, 1.000000000000000000 ) ) ;
#1084 = AXIS2_PLACEMENT_3D ( 'NONE', #837, #114, #198 ) ;
#1085 = FACE_OUTER_BOUND ( 'NONE', #579, .T. ) ;
#1086 = ORIENTED_EDGE ( 'NONE', *, *, #578, .T. ) ;
#1087 = DIRECTION ( 'NONE',  ( 1.000000000000000000, -5.981805089575206058E-16, 0.000000000000000000 ) ) ;
#1088 = ORIENTED_EDGE ( 'NONE', *, *, #101, .F. ) ;
#1089 = CARTESIAN_POINT ( 'NONE',  ( 3.150000000000001243, 1.300000000000000266, 0.000000000000000000 ) ) ;
#1090 = FACE_OUTER_BOUND ( 'NONE', #549, .T. ) ;
#1091 = DIRECTION ( 'NONE',  ( 0.000000000000000000, -1.000000000000000000, 0.000000000000000000 ) ) ;
#1092 = DIRECTION ( 'NONE',  ( -1.000000000000000000, 0.000000000000000000, 0.000000000000000000 ) ) ;
#1093 = FACE_OUTER_BOUND ( 'NONE', #9, .T. ) ;
#1094 = EDGE_CURVE ( 'NONE', #401, #782, #325, .T. ) ;
#1095 = DIRECTION ( 'NONE',  ( 0.000000000000000000, -1.000000000000000000, 0.000000000000000000 ) ) ;
#1096 = SURFACE_STYLE_USAGE ( .BOTH. , #823 ) ;
#1097 = EDGE_CURVE ( 'NONE', #633, #568, #1071, .T. ) ;
#1098 = AXIS2_PLACEMENT_3D ( 'NONE', #995, #1116, #530 ) ;
#1099 = CARTESIAN_POINT ( 'NONE',  ( -5.500000000000000000, 0.4000000000000006328, 0.000000000000000000 ) ) ;
#1100 = DIRECTION ( 'NONE',  ( -1.000000000000000000, -0.000000000000000000, -0.000000000000000000 ) ) ;
#1101 = DIRECTION ( 'NONE',  ( 0.000000000000000000, 0.000000000000000000, -1.000000000000000000 ) ) ;
#1102 = CARTESIAN_POINT ( 'NONE',  ( 3.250000000000001332, 1.300000000000000266, -0.2999999999999999889 ) ) ;
#1103 = ADVANCED_FACE ( 'NONE', ( #1093 ), #759, .F. ) ;
#1104 = CARTESIAN_POINT ( 'NONE',  ( -2.636342980422061277, 1.300000000000000266, 0.000000000000000000 ) ) ;
#1105 = CARTESIAN_POINT ( 'NONE',  ( -3.250000000000001332, 1.000000000000000444, 0.000000000000000000 ) ) ;
#1106 = CARTESIAN_POINT ( 'NONE',  ( 5.799999999999999822, 0.4000000000000001332, -3.673940397442058882E-17 ) ) ;
#1107 = EDGE_CURVE ( 'NONE', #1060, #284, #698, .T. ) ;
#1108 = PRODUCT_DEFINITION_FORMATION_WITH_SPECIFIED_SOURCE ( 'ANY', '', #243, .NOT_KNOWN. ) ;
#1109 = AXIS2_PLACEMENT_3D ( 'NONE', #575, #222, #137 ) ;
#1110 = DIRECTION ( 'NONE',  ( -1.000000000000000000, -0.000000000000000000, -0.000000000000000000 ) ) ;
#1111 = CARTESIAN_POINT ( 'NONE',  ( -3.549999999999999822, 1.000000000000000222, 0.000000000000000000 ) ) ;
#1112 = AXIS2_PLACEMENT_3D ( 'NONE', #1099, #41, #608 ) ;
#1113 = CARTESIAN_POINT ( 'NONE',  ( 3.549999999999999822, 0.000000000000000000, 0.000000000000000000 ) ) ;
#1114 = DIRECTION ( 'NONE',  ( 0.000000000000000000, 0.000000000000000000, 1.000000000000000000 ) ) ;
#1115 = UNCERTAINTY_MEASURE_WITH_UNIT (LENGTH_MEASURE( 1.000000000000000082E-05 ), #872, 'distance_accuracy_value', 'NONE');
#1116 = DIRECTION ( 'NONE',  ( -1.000000000000000000, -0.000000000000000000, -0.000000000000000000 ) ) ;
#1117 = DIRECTION ( 'NONE',  ( 0.000000000000000000, 0.000000000000000000, -1.000000000000000000 ) ) ;
#1118 = ADVANCED_FACE ( 'NONE', ( #702 ), #706, .T. ) ;
#1119 = AXIS2_PLACEMENT_3D ( 'NONE', #665, #959, #874 ) ;
#1120 = CARTESIAN_POINT ( 'NONE',  ( -0.7096920590035189491, 1.300000000000000488, -1.637499999999998845 ) ) ;
#1121 = AXIS2_PLACEMENT_3D ( 'NONE', #298, #1163, #516 ) ;
#1122 = CARTESIAN_POINT ( 'NONE',  ( 5.799999999999995381, -27.73628330588458368, -3.673940397442059498E-17 ) ) ;
#1123 = CARTESIAN_POINT ( 'NONE',  ( 1.792833917812870270, 1.300000000000000266, -1.891084727092229745 ) ) ;
#1124 = SURFACE_STYLE_FILL_AREA ( #618 ) ;
#1125 = DIRECTION ( 'NONE',  ( 0.000000000000000000, 0.000000000000000000, 1.000000000000000000 ) ) ;
#1126 = CARTESIAN_POINT ( 'NONE',  ( -4.599999999999998757, 1.599999999999999423, 3.673940397442059498E-17 ) ) ;
#1127 = COLOUR_RGB ( '',0.7921568627450980005, 0.8196078431372548767, 0.9333333333333333481 ) ;
#1128 = ADVANCED_FACE ( 'NONE', ( #1090 ), #1131, .T. ) ;
#1129 = DIRECTION ( 'NONE',  ( 1.000000000000000000, 0.000000000000000000, 0.000000000000000000 ) ) ;
#1130 = DIRECTION ( 'NONE',  ( 0.000000000000000000, 0.000000000000000000, 1.000000000000000000 ) ) ;
#1131 = TOROIDAL_SURFACE ( 'NONE', #369, -1.891084727092229745, 3.191084727092228679 ) ;
#1132 = PRODUCT_DEFINITION ( 'UNKNOWN', '', #1108, #397 ) ;
#1133 = AXIS2_PLACEMENT_3D ( 'NONE', #338, #535, #991 ) ;
#1134 = PRESENTATION_LAYER_ASSIGNMENT (  '', '', ( #172 ) ) ;
#1135 = DIRECTION ( 'NONE',  ( 0.000000000000000000, 0.000000000000000000, -1.000000000000000000 ) ) ;
#1136 = DIRECTION ( 'NONE',  ( 0.000000000000000000, 0.000000000000000000, -1.000000000000000000 ) ) ;
#1137 = FACE_OUTER_BOUND ( 'NONE', #1021, .T. ) ;
#1138 = CIRCLE ( 'NONE', #646, 0.4999999999999997780 ) ;
#1139 = CARTESIAN_POINT ( 'NONE',  ( -5.200000000000000178, 0.4000000000000004108, 0.000000000000000000 ) ) ;
#1140 = DIRECTION ( 'NONE',  ( 0.000000000000000000, 0.000000000000000000, 1.000000000000000000 ) ) ;
#1141 = EDGE_CURVE ( 'NONE', #284, #1060, #366, .T. ) ;
#1142 = CIRCLE ( 'NONE', #716, 1.159512499307758571 ) ;
#1143 = AXIS2_PLACEMENT_3D ( 'NONE', #43, #103, #812 ) ;
#1144 = VECTOR ( 'NONE', #741, 1000.000000000000000 ) ;
#1145 = AXIS2_PLACEMENT_3D ( 'NONE', #1070, #831, #745 ) ;
#1146 = CARTESIAN_POINT ( 'NONE',  ( 3.549999999999999822, 1.600000000000000089, -3.673940397442061963E-17 ) ) ;
#1147 = EDGE_LOOP ( 'NONE', ( #267, #318, #1075, #577 ) ) ;
#1148 = COLOUR_RGB ( '',0.7921568627450980005, 0.8196078431372548767, 0.9333333333333333481 ) ;
#1149 = ORIENTED_EDGE ( 'NONE', *, *, #147, .T. ) ;
#1150 = CARTESIAN_POINT ( 'NONE',  ( -2.798167835625740008, 1.300000000000000266, 1.137499999999999289 ) ) ;
#1151 = DIRECTION ( 'NONE',  ( 0.000000000000000000, 0.000000000000000000, 1.000000000000000000 ) ) ;
#1152 = CIRCLE ( 'NONE', #399, 0.2999999999999999889 ) ;
#1153 = ORIENTED_EDGE ( 'NONE', *, *, #739, .T. ) ;
#1154 = LINE ( 'NONE', #975, #1144 ) ;
#1155 = ADVANCED_FACE ( 'NONE', ( #1137 ), #374, .T. ) ;
#1156 = DIRECTION ( 'NONE',  ( 0.000000000000000000, 0.000000000000000000, 1.000000000000000000 ) ) ;
#1157 = ORIENTED_EDGE ( 'NONE', *, *, #203, .F. ) ;
#1158 = FACE_OUTER_BOUND ( 'NONE', #638, .T. ) ;
#1159 = EDGE_CURVE ( 'NONE', #1006, #182, #368, .T. ) ;
#1160 = ORIENTED_EDGE ( 'NONE', *, *, #1034, .F. ) ;
#1161 = PRESENTATION_STYLE_ASSIGNMENT (( #1096 ) ) ;
#1162 = DIRECTION ( 'NONE',  ( 0.000000000000000000, 0.000000000000000000, 1.000000000000000000 ) ) ;
#1163 = DIRECTION ( 'NONE',  ( 1.541358054578229619E-16, -1.000000000000000000, 0.000000000000000000 ) ) ;
#1164 =( GEOMETRIC_REPRESENTATION_CONTEXT ( 3 ) GLOBAL_UNCERTAINTY_ASSIGNED_CONTEXT ( ( #1049 ) ) GLOBAL_UNIT_ASSIGNED_CONTEXT ( ( #528, #154, #281 ) ) REPRESENTATION_CONTEXT ( 'NONE', 'WORKASPACE' ) );
#1165 = ORIENTED_EDGE ( 'NONE', *, *, #62, .T. ) ;
#1166 = ORIENTED_EDGE ( 'NONE', *, *, #907, .T. ) ;
ENDSEC;
END-ISO-10303-21;
