ISO-10303-21;
HEADER;
FILE_DESCRIPTION(('STEP AP214'),'1');
FILE_NAME('TO252-3_ROM','2026-07-20T06:25:27',(''),(''),'','','');
FILE_SCHEMA(('AUTOMOTIVE_DESIGN'));
ENDSEC;
DATA;
#1=SHAPE_DEFINITION_REPRESENTATION(#2,#3);
#2=PRODUCT_DEFINITION_SHAPE('',$,#4);
#3=SHAPE_REPRESENTATION('',(#188,#244,#540,#837,#1707,#2578,#19),#11);
#4=PRODUCT_DEFINITION('design','example product_definition',#6,#5);
#5=PRODUCT_DEFINITION_CONTEXT('3D Mechanical Parts',#10,'design');
#6=PRODUCT_DEFINITION_FORMATION('1.0','first version',#8);
#7=APPLICATION_PROTOCOL_DEFINITION('international standard','automotive_design',2003,#10);
#8=PRODUCT('product','part','',(#9));
#9=PRODUCT_CONTEXT('3D Mechanical Parts',#10,'mechanical');
#10=APPLICATION_CONTEXT('Core Data for Automotive Mechanical Design Process');
#11=(GEOMETRIC_REPRESENTATION_CONTEXT(3) GLOBAL_UNCERTAINTY_ASSIGNED_CONTEXT((#12)) GLOBAL_UNIT_ASSIGNED_CONTEXT((#13,#14,#18)) REPRESENTATION_CONTEXT('ID1','3D'));
#12=UNCERTAINTY_MEASURE_WITH_UNIT(LENGTH_MEASURE(1.E-005),#13,'DISTANCE_ACCURACY_VALUE','Maximum model space distance between geometric entities at asserted connectivities');
#13=(LENGTH_UNIT() NAMED_UNIT(*) SI_UNIT(.MILLI.,.METRE.));
#14=(CONVERSION_BASED_UNIT('degree',#16) NAMED_UNIT(#15) PLANE_ANGLE_UNIT());
#15=DIMENSIONAL_EXPONENTS(0.,0.,0.,0.,0.,0.,0.);
#16=MEASURE_WITH_UNIT(PLANE_ANGLE_MEASURE(0.01745329252),#17);
#17=(NAMED_UNIT(*) PLANE_ANGLE_UNIT() SI_UNIT($,.RADIAN.));
#18=(NAMED_UNIT(*) SI_UNIT($,.STERADIAN.) SOLID_ANGLE_UNIT());
#19=AXIS2_PLACEMENT_3D('',#20,#21,#22);
#20=CARTESIAN_POINT('',(0.0,0.0,0.0));
#21=DIRECTION('',(0.0,0.0,1.0));
#22=DIRECTION('',(1.0,0.0,0.0));
#25=MECHANICAL_DESIGN_GEOMETRIC_PRESENTATION_REPRESENTATION($,(#240,#241,#242,#246,#295,#344,#393,#442,#491,#542,#591,#640,#689,#738,#787,#839,#888,#937,#986,#1035,#1084,#1133,#1182,#1231,#1282,#1333,#1384,#1435,#1571,#1709,#1758,#1807,#1856,#1905,#1954,#2003,#2052,#2101,#2152,#2203,#2254,#2305,#2441,#2580,#2629,#2678,#2727,#2776,#2825,#2874,#2923,#2972,#3021,#3070,#3119,#3168,#3237,#3326,#3475),#11);
#26=PRODUCT_CATEGORY_RELATIONSHIP('','',#27,#28);
#27=PRODUCT_CATEGORY('part','');
#28=PRODUCT_RELATED_PRODUCT_CATEGORY('','',(#8));
#34=PRESENTATION_STYLE_ASSIGNMENT((#35,#40));
#35=SURFACE_STYLE_USAGE(.BOTH.,#36);
#36=SURFACE_SIDE_STYLE('',(#37));
#37=SURFACE_STYLE_FILL_AREA(#38);
#38=FILL_AREA_STYLE('',(#39));
#39=FILL_AREA_STYLE_COLOUR('',#41);
#40=CURVE_STYLE('',#42,POSITIVE_LENGTH_MEASURE(0.1),#41);
#41=COLOUR_RGB('Aluminum',0.725,0.725,0.725);
#42=DRAUGHTING_PRE_DEFINED_CURVE_FONT('continuous');
#43=PRESENTATION_STYLE_ASSIGNMENT((#44,#49));
#44=SURFACE_STYLE_USAGE(.BOTH.,#45);
#45=SURFACE_SIDE_STYLE('',(#46));
#46=SURFACE_STYLE_FILL_AREA(#47);
#47=FILL_AREA_STYLE('',(#48));
#48=FILL_AREA_STYLE_COLOUR('',#50);
#49=CURVE_STYLE('',#51,POSITIVE_LENGTH_MEASURE(0.1),#50);
#50=COLOUR_RGB('Black',0.196,0.196,0.196);
#51=DRAUGHTING_PRE_DEFINED_CURVE_FONT('continuous');
#52=PRESENTATION_STYLE_ASSIGNMENT((#53,#58));
#53=SURFACE_STYLE_USAGE(.BOTH.,#54);
#54=SURFACE_SIDE_STYLE('',(#55));
#55=SURFACE_STYLE_FILL_AREA(#56);
#56=FILL_AREA_STYLE('',(#57));
#57=FILL_AREA_STYLE_COLOUR('',#59);
#58=CURVE_STYLE('',#60,POSITIVE_LENGTH_MEASURE(0.1),#59);
#59=COLOUR_RGB('Pin1',0.588,0.588,0.588);
#60=DRAUGHTING_PRE_DEFINED_CURVE_FONT('continuous');
#61=PRESENTATION_STYLE_ASSIGNMENT((#62,#67));
#62=SURFACE_STYLE_USAGE(.BOTH.,#63);
#63=SURFACE_SIDE_STYLE('',(#64));
#64=SURFACE_STYLE_FILL_AREA(#65);
#65=FILL_AREA_STYLE('',(#66));
#66=FILL_AREA_STYLE_COLOUR('',#68);
#67=CURVE_STYLE('',#69,POSITIVE_LENGTH_MEASURE(0.1),#68);
#68=COLOUR_RGB('HeatTab',0.588,0.588,0.588);
#69=DRAUGHTING_PRE_DEFINED_CURVE_FONT('continuous');
#70=PRESENTATION_STYLE_ASSIGNMENT((#71,#76));
#71=SURFACE_STYLE_USAGE(.BOTH.,#72);
#72=SURFACE_SIDE_STYLE('',(#73));
#73=SURFACE_STYLE_FILL_AREA(#74);
#74=FILL_AREA_STYLE('',(#75));
#75=FILL_AREA_STYLE_COLOUR('',#77);
#76=CURVE_STYLE('',#78,POSITIVE_LENGTH_MEASURE(0.1),#77);
#77=COLOUR_RGB('Gold',0.843,0.686,0.0);
#78=DRAUGHTING_PRE_DEFINED_CURVE_FONT('continuous');
#79=PRESENTATION_STYLE_ASSIGNMENT((#80,#85));
#80=SURFACE_STYLE_USAGE(.BOTH.,#81);
#81=SURFACE_SIDE_STYLE('',(#82));
#82=SURFACE_STYLE_FILL_AREA(#83);
#83=FILL_AREA_STYLE('',(#84));
#84=FILL_AREA_STYLE_COLOUR('',#86);
#85=CURVE_STYLE('',#87,POSITIVE_LENGTH_MEASURE(0.1),#86);
#86=COLOUR_RGB('Brown',0.459,0.345,0.176);
#87=DRAUGHTING_PRE_DEFINED_CURVE_FONT('continuous');
#88=PRESENTATION_STYLE_ASSIGNMENT((#89,#94));
#89=SURFACE_STYLE_USAGE(.BOTH.,#90);
#90=SURFACE_SIDE_STYLE('',(#91));
#91=SURFACE_STYLE_FILL_AREA(#92);
#92=FILL_AREA_STYLE('',(#93));
#93=FILL_AREA_STYLE_COLOUR('',#95);
#94=CURVE_STYLE('',#96,POSITIVE_LENGTH_MEASURE(0.1),#95);
#95=COLOUR_RGB('Tan',0.784,0.686,0.51);
#96=DRAUGHTING_PRE_DEFINED_CURVE_FONT('continuous');
#97=PRESENTATION_STYLE_ASSIGNMENT((#98,#103));
#98=SURFACE_STYLE_USAGE(.BOTH.,#99);
#99=SURFACE_SIDE_STYLE('',(#100));
#100=SURFACE_STYLE_FILL_AREA(#101);
#101=FILL_AREA_STYLE('',(#102));
#102=FILL_AREA_STYLE_COLOUR('',#104);
#103=CURVE_STYLE('',#105,POSITIVE_LENGTH_MEASURE(0.1),#104);
#104=COLOUR_RGB('Gray',0.431,0.431,0.431);
#105=DRAUGHTING_PRE_DEFINED_CURVE_FONT('continuous');
#106=PRESENTATION_STYLE_ASSIGNMENT((#107,#112));
#107=SURFACE_STYLE_USAGE(.BOTH.,#108);
#108=SURFACE_SIDE_STYLE('',(#109));
#109=SURFACE_STYLE_FILL_AREA(#110);
#110=FILL_AREA_STYLE('',(#111));
#111=FILL_AREA_STYLE_COLOUR('',#113);
#112=CURVE_STYLE('',#114,POSITIVE_LENGTH_MEASURE(0.1),#113);
#113=COLOUR_RGB('Red',0.6,0.0,0.0);
#114=DRAUGHTING_PRE_DEFINED_CURVE_FONT('continuous');
#115=PRESENTATION_STYLE_ASSIGNMENT((#116,#121));
#116=SURFACE_STYLE_USAGE(.BOTH.,#117);
#117=SURFACE_SIDE_STYLE('',(#118));
#118=SURFACE_STYLE_FILL_AREA(#119);
#119=FILL_AREA_STYLE('',(#120));
#120=FILL_AREA_STYLE_COLOUR('',#122);
#121=CURVE_STYLE('',#123,POSITIVE_LENGTH_MEASURE(0.1),#122);
#122=COLOUR_RGB('Blue',0.157,0.157,0.588);
#123=DRAUGHTING_PRE_DEFINED_CURVE_FONT('continuous');
#124=PRESENTATION_STYLE_ASSIGNMENT((#125,#130));
#125=SURFACE_STYLE_USAGE(.BOTH.,#126);
#126=SURFACE_SIDE_STYLE('',(#127));
#127=SURFACE_STYLE_FILL_AREA(#128);
#128=FILL_AREA_STYLE('',(#129));
#129=FILL_AREA_STYLE_COLOUR('',#131);
#130=CURVE_STYLE('',#132,POSITIVE_LENGTH_MEASURE(0.1),#131);
#131=COLOUR_RGB('Maroon',0.294,0.0,0.0);
#132=DRAUGHTING_PRE_DEFINED_CURVE_FONT('continuous');
#133=PRESENTATION_STYLE_ASSIGNMENT((#134,#139));
#134=SURFACE_STYLE_USAGE(.BOTH.,#135);
#135=SURFACE_SIDE_STYLE('',(#136));
#136=SURFACE_STYLE_FILL_AREA(#137);
#137=FILL_AREA_STYLE('',(#138));
#138=FILL_AREA_STYLE_COLOUR('',#140);
#139=CURVE_STYLE('',#141,POSITIVE_LENGTH_MEASURE(0.1),#140);
#140=COLOUR_RGB('Green',0.0,0.294,0.0);
#141=DRAUGHTING_PRE_DEFINED_CURVE_FONT('continuous');
#142=PRESENTATION_STYLE_ASSIGNMENT((#143,#148));
#143=SURFACE_STYLE_USAGE(.BOTH.,#144);
#144=SURFACE_SIDE_STYLE('',(#145));
#145=SURFACE_STYLE_FILL_AREA(#146);
#146=FILL_AREA_STYLE('',(#147));
#147=FILL_AREA_STYLE_COLOUR('',#149);
#148=CURVE_STYLE('',#150,POSITIVE_LENGTH_MEASURE(0.1),#149);
#149=COLOUR_RGB('Pin1Wrap',0.98,0.706,0.176);
#150=DRAUGHTING_PRE_DEFINED_CURVE_FONT('continuous');
#151=PRESENTATION_STYLE_ASSIGNMENT((#152,#157));
#152=SURFACE_STYLE_USAGE(.BOTH.,#153);
#153=SURFACE_SIDE_STYLE('',(#154));
#154=SURFACE_STYLE_FILL_AREA(#155);
#155=FILL_AREA_STYLE('',(#156));
#156=FILL_AREA_STYLE_COLOUR('',#158);
#157=CURVE_STYLE('',#159,POSITIVE_LENGTH_MEASURE(0.1),#158);
#158=COLOUR_RGB('Pin1Rad',0.588,0.588,0.588);
#159=DRAUGHTING_PRE_DEFINED_CURVE_FONT('continuous');
#160=PRESENTATION_STYLE_ASSIGNMENT((#161,#166));
#161=SURFACE_STYLE_USAGE(.BOTH.,#162);
#162=SURFACE_SIDE_STYLE('',(#163));
#163=SURFACE_STYLE_FILL_AREA(#164);
#164=FILL_AREA_STYLE('',(#165));
#165=FILL_AREA_STYLE_COLOUR('',#167);
#166=CURVE_STYLE('',#168,POSITIVE_LENGTH_MEASURE(0.1),#167);
#167=COLOUR_RGB('Pin1Axial',0.98,0.706,0.176);
#168=DRAUGHTING_PRE_DEFINED_CURVE_FONT('continuous');
#169=PRESENTATION_STYLE_ASSIGNMENT((#170,#175));
#170=SURFACE_STYLE_USAGE(.BOTH.,#171);
#171=SURFACE_SIDE_STYLE('',(#172));
#172=SURFACE_STYLE_FILL_AREA(#173);
#173=FILL_AREA_STYLE('',(#174));
#174=FILL_AREA_STYLE_COLOUR('',#176);
#175=CURVE_STYLE('',#177,POSITIVE_LENGTH_MEASURE(0.1),#176);
#176=COLOUR_RGB('Pin1Tant',0.459,0.345,0.176);
#177=DRAUGHTING_PRE_DEFINED_CURVE_FONT('continuous');
#178=PRESENTATION_STYLE_ASSIGNMENT((#179,#184));
#179=SURFACE_STYLE_USAGE(.BOTH.,#180);
#180=SURFACE_SIDE_STYLE('',(#181));
#181=SURFACE_STYLE_FILL_AREA(#182);
#182=FILL_AREA_STYLE('',(#183));
#183=FILL_AREA_STYLE_COLOUR('',#185);
#184=CURVE_STYLE('',#186,POSITIVE_LENGTH_MEASURE(0.1),#185);
#185=COLOUR_RGB('Shroud',0.235,0.235,0.235);
#186=DRAUGHTING_PRE_DEFINED_CURVE_FONT('continuous');
#188=MANIFOLD_SOLID_BREP($,#189);
#189=CLOSED_SHELL('',(#190,#191,#192));
#190=ADVANCED_FACE($,(#196,#195),#213,.T.);
#191=ADVANCED_FACE($,(#197),#193,.F.);
#192=ADVANCED_FACE($,(#198),#194,.T.);
#193=PLANE($,#218);
#194=PLANE($,#219);
#195=FACE_BOUND($,#200,.T.);
#196=FACE_OUTER_BOUND($,#199,.T.);
#197=FACE_OUTER_BOUND($,#201,.T.);
#198=FACE_OUTER_BOUND($,#202,.T.);
#199=EDGE_LOOP($,(#209));
#200=EDGE_LOOP($,(#210));
#201=EDGE_LOOP($,(#211));
#202=EDGE_LOOP($,(#212));
#203=CIRCLE($,#216,0.16764);
#204=CIRCLE($,#217,0.16764);
#205=VERTEX_POINT('',#234);
#206=VERTEX_POINT('',#236);
#207=EDGE_CURVE($,#205,#205,#203,.T.);
#208=EDGE_CURVE($,#206,#206,#204,.T.);
#209=ORIENTED_EDGE($,*,*,#207,.F.);
#210=ORIENTED_EDGE($,*,*,#208,.F.);
#211=ORIENTED_EDGE($,*,*,#208,.T.);
#212=ORIENTED_EDGE($,*,*,#207,.T.);
#213=CYLINDRICAL_SURFACE($,#215,0.16764);
#214=AXIS2_PLACEMENT_3D('placement',#232,#220,#221);
#215=AXIS2_PLACEMENT_3D($,#233,#222,#223);
#216=AXIS2_PLACEMENT_3D($,#235,#224,#225);
#217=AXIS2_PLACEMENT_3D($,#237,#226,#227);
#218=AXIS2_PLACEMENT_3D($,#238,#228,#229);
#219=AXIS2_PLACEMENT_3D($,#239,#230,#231);
#220=DIRECTION('axis',(0.,1.,0.));
#221=DIRECTION('refdir',(1.,0.,0.));
#222=DIRECTION('',(0.,0.,1.));
#223=DIRECTION('',(1.,0.,0.));
#224=DIRECTION('',(0.,0.,1.));
#225=DIRECTION('',(1.,0.,0.));
#226=DIRECTION('',(0.,0.,-1.));
#227=DIRECTION('',(1.,0.,0.));
#228=DIRECTION('',(0.,0.,1.));
#229=DIRECTION('',(0.,1.,0.));
#230=DIRECTION('',(0.,0.,1.));
#231=DIRECTION('',(0.,1.,0.));
#232=CARTESIAN_POINT('',(0.,0.,0.));
#233=CARTESIAN_POINT('',(-2.3,-1.804,2.489));
#234=CARTESIAN_POINT('',(-2.468,-1.804,2.492));
#235=CARTESIAN_POINT('',(-2.3,-1.804,2.492));
#236=CARTESIAN_POINT('',(-2.468,-1.804,2.489));
#237=CARTESIAN_POINT('',(-2.3,-1.804,2.489));
#238=CARTESIAN_POINT('',(-2.3,-1.804,2.489));
#239=CARTESIAN_POINT('',(-2.3,-1.804,2.492));
#240=STYLED_ITEM('color',(#52),#190);
#241=STYLED_ITEM('color',(#52),#191);
#242=STYLED_ITEM('color',(#52),#192);
#244=MANIFOLD_SOLID_BREP($,#245);
#245=CLOSED_SHELL('',(#247,#296,#345,#394,#443,#492));
#246=STYLED_ITEM('',(#43),#247);
#247=ADVANCED_FACE('',(#253),#248,.T.);
#248=PLANE('',#249);
#249=AXIS2_PLACEMENT_3D('',#250,#251,#252);
#250=CARTESIAN_POINT('',(-3.353,-2.845,0.0));
#251=DIRECTION('',(0.0,-1.0,0.0));
#252=DIRECTION('',(0.,0.,1.));
#253=FACE_OUTER_BOUND('',#254,.T.);
#254=EDGE_LOOP('',(#255,#265,#275,#285));
#258=CARTESIAN_POINT('',(3.353,-2.845,0.0));
#257=VERTEX_POINT('',#258);
#260=CARTESIAN_POINT('',(-3.353,-2.845,0.0));
#259=VERTEX_POINT('',#260);
#256=EDGE_CURVE('',#257,#259,#261,.T.);
#261=LINE('',#258,#263);
#263=VECTOR('',#264,6.7056);
#264=DIRECTION('',(-1.0,0.0,0.0));
#255=ORIENTED_EDGE('',*,*,#256,.F.);
#268=CARTESIAN_POINT('',(3.353,-2.845,2.489));
#267=VERTEX_POINT('',#268);
#266=EDGE_CURVE('',#267,#257,#271,.T.);
#271=LINE('',#268,#273);
#273=VECTOR('',#274,2.4892);
#274=DIRECTION('',(0.0,0.0,-1.0));
#265=ORIENTED_EDGE('',*,*,#266,.F.);
#278=CARTESIAN_POINT('',(-3.353,-2.845,2.489));
#277=VERTEX_POINT('',#278);
#276=EDGE_CURVE('',#277,#267,#281,.T.);
#281=LINE('',#278,#283);
#283=VECTOR('',#284,6.7056);
#284=DIRECTION('',(1.0,0.0,0.0));
#275=ORIENTED_EDGE('',*,*,#276,.F.);
#286=EDGE_CURVE('',#259,#277,#291,.T.);
#291=LINE('',#260,#293);
#293=VECTOR('',#294,2.4892);
#294=DIRECTION('',(0.0,0.0,1.0));
#285=ORIENTED_EDGE('',*,*,#286,.F.);
#295=STYLED_ITEM('',(#43),#296);
#296=ADVANCED_FACE('',(#302),#297,.T.);
#297=PLANE('',#298);
#298=AXIS2_PLACEMENT_3D('',#299,#300,#301);
#299=CARTESIAN_POINT('',(3.353,-2.845,0.0));
#300=DIRECTION('',(1.0,0.0,0.0));
#301=DIRECTION('',(0.,0.,1.));
#302=FACE_OUTER_BOUND('',#303,.T.);
#303=EDGE_LOOP('',(#304,#314,#324,#334));
#307=CARTESIAN_POINT('',(3.353,2.845,0.0));
#306=VERTEX_POINT('',#307);
#305=EDGE_CURVE('',#306,#257,#310,.T.);
#310=LINE('',#307,#312);
#312=VECTOR('',#313,5.6896);
#313=DIRECTION('',(0.0,-1.0,0.0));
#304=ORIENTED_EDGE('',*,*,#305,.F.);
#317=CARTESIAN_POINT('',(3.353,2.845,2.489));
#316=VERTEX_POINT('',#317);
#315=EDGE_CURVE('',#316,#306,#320,.T.);
#320=LINE('',#317,#322);
#322=VECTOR('',#323,2.4892);
#323=DIRECTION('',(0.0,0.0,-1.0));
#314=ORIENTED_EDGE('',*,*,#315,.F.);
#325=EDGE_CURVE('',#267,#316,#330,.T.);
#330=LINE('',#268,#332);
#332=VECTOR('',#333,5.6896);
#333=DIRECTION('',(0.0,1.0,0.0));
#324=ORIENTED_EDGE('',*,*,#325,.F.);
#334=ORIENTED_EDGE('',*,*,#266,.T.);
#344=STYLED_ITEM('',(#43),#345);
#345=ADVANCED_FACE('',(#351),#346,.T.);
#346=PLANE('',#347);
#347=AXIS2_PLACEMENT_3D('',#348,#349,#350);
#348=CARTESIAN_POINT('',(3.353,2.845,0.0));
#349=DIRECTION('',(0.0,1.0,0.0));
#350=DIRECTION('',(0.,0.,1.));
#351=FACE_OUTER_BOUND('',#352,.T.);
#352=EDGE_LOOP('',(#353,#363,#373,#383));
#356=CARTESIAN_POINT('',(-3.353,2.845,0.0));
#355=VERTEX_POINT('',#356);
#354=EDGE_CURVE('',#355,#306,#359,.T.);
#359=LINE('',#356,#361);
#361=VECTOR('',#362,6.7056);
#362=DIRECTION('',(1.0,0.0,0.0));
#353=ORIENTED_EDGE('',*,*,#354,.F.);
#366=CARTESIAN_POINT('',(-3.353,2.845,2.489));
#365=VERTEX_POINT('',#366);
#364=EDGE_CURVE('',#365,#355,#369,.T.);
#369=LINE('',#366,#371);
#371=VECTOR('',#372,2.4892);
#372=DIRECTION('',(0.0,0.0,-1.0));
#363=ORIENTED_EDGE('',*,*,#364,.F.);
#374=EDGE_CURVE('',#316,#365,#379,.T.);
#379=LINE('',#317,#381);
#381=VECTOR('',#382,6.7056);
#382=DIRECTION('',(-1.0,0.0,0.0));
#373=ORIENTED_EDGE('',*,*,#374,.F.);
#383=ORIENTED_EDGE('',*,*,#315,.T.);
#393=STYLED_ITEM('',(#43),#394);
#394=ADVANCED_FACE('',(#400),#395,.T.);
#395=PLANE('',#396);
#396=AXIS2_PLACEMENT_3D('',#397,#398,#399);
#397=CARTESIAN_POINT('',(-3.353,2.845,0.0));
#398=DIRECTION('',(-1.0,0.0,0.0));
#399=DIRECTION('',(0.,0.,1.));
#400=FACE_OUTER_BOUND('',#401,.T.);
#401=EDGE_LOOP('',(#402,#412,#422,#432));
#403=EDGE_CURVE('',#259,#355,#408,.T.);
#408=LINE('',#260,#410);
#410=VECTOR('',#411,5.6896);
#411=DIRECTION('',(0.0,1.0,0.0));
#402=ORIENTED_EDGE('',*,*,#403,.F.);
#412=ORIENTED_EDGE('',*,*,#286,.T.);
#423=EDGE_CURVE('',#365,#277,#428,.T.);
#428=LINE('',#366,#430);
#430=VECTOR('',#431,5.6896);
#431=DIRECTION('',(0.0,-1.0,0.0));
#422=ORIENTED_EDGE('',*,*,#423,.F.);
#432=ORIENTED_EDGE('',*,*,#364,.T.);
#442=STYLED_ITEM('',(#43),#443);
#443=ADVANCED_FACE('',(#449),#444,.T.);
#444=PLANE('',#445);
#445=AXIS2_PLACEMENT_3D('',#446,#447,#448);
#446=CARTESIAN_POINT('',(-3.353,2.845,0.0));
#447=DIRECTION('',(0.0,0.0,-1.0));
#448=DIRECTION('',(0.,1.,0.));
#449=FACE_OUTER_BOUND('',#450,.T.);
#450=EDGE_LOOP('',(#451,#461,#471,#481));
#451=ORIENTED_EDGE('',*,*,#354,.T.);
#461=ORIENTED_EDGE('',*,*,#305,.T.);
#471=ORIENTED_EDGE('',*,*,#256,.T.);
#481=ORIENTED_EDGE('',*,*,#403,.T.);
#491=STYLED_ITEM('',(#43),#492);
#492=ADVANCED_FACE('',(#498),#493,.T.);
#493=PLANE('',#494);
#494=AXIS2_PLACEMENT_3D('',#495,#496,#497);
#495=CARTESIAN_POINT('',(-3.353,-2.845,2.489));
#496=DIRECTION('',(0.0,0.0,1.0));
#497=DIRECTION('',(0.,1.,0.));
#498=FACE_OUTER_BOUND('',#499,.T.);
#499=EDGE_LOOP('',(#500,#510,#520,#530));
#500=ORIENTED_EDGE('',*,*,#276,.T.);
#510=ORIENTED_EDGE('',*,*,#325,.T.);
#520=ORIENTED_EDGE('',*,*,#374,.T.);
#530=ORIENTED_EDGE('',*,*,#423,.T.);
#540=MANIFOLD_SOLID_BREP($,#541);
#541=CLOSED_SHELL('',(#543,#592,#641,#690,#739,#788));
#542=STYLED_ITEM('',(#34),#543);
#543=ADVANCED_FACE('',(#549),#544,.T.);
#544=PLANE('',#545);
#545=AXIS2_PLACEMENT_3D('',#546,#547,#548);
#546=CARTESIAN_POINT('',(-0.406,-3.658,1.118));
#547=DIRECTION('',(0.0,-1.0,0.0));
#548=DIRECTION('',(0.,0.,1.));
#549=FACE_OUTER_BOUND('',#550,.T.);
#550=EDGE_LOOP('',(#551,#561,#571,#581));
#554=CARTESIAN_POINT('',(0.406,-3.658,1.118));
#553=VERTEX_POINT('',#554);
#556=CARTESIAN_POINT('',(-0.406,-3.658,1.118));
#555=VERTEX_POINT('',#556);
#552=EDGE_CURVE('',#553,#555,#557,.T.);
#557=LINE('',#554,#559);
#559=VECTOR('',#560,0.8128);
#560=DIRECTION('',(-1.0,0.0,0.0));
#551=ORIENTED_EDGE('',*,*,#552,.F.);
#564=CARTESIAN_POINT('',(0.406,-3.658,1.372));
#563=VERTEX_POINT('',#564);
#562=EDGE_CURVE('',#563,#553,#567,.T.);
#567=LINE('',#564,#569);
#569=VECTOR('',#570,0.254);
#570=DIRECTION('',(0.0,0.0,-1.0));
#561=ORIENTED_EDGE('',*,*,#562,.F.);
#574=CARTESIAN_POINT('',(-0.406,-3.658,1.372));
#573=VERTEX_POINT('',#574);
#572=EDGE_CURVE('',#573,#563,#577,.T.);
#577=LINE('',#574,#579);
#579=VECTOR('',#580,0.8128);
#580=DIRECTION('',(1.0,0.0,0.0));
#571=ORIENTED_EDGE('',*,*,#572,.F.);
#582=EDGE_CURVE('',#555,#573,#587,.T.);
#587=LINE('',#556,#589);
#589=VECTOR('',#590,0.254);
#590=DIRECTION('',(0.0,0.0,1.0));
#581=ORIENTED_EDGE('',*,*,#582,.F.);
#591=STYLED_ITEM('',(#34),#592);
#592=ADVANCED_FACE('',(#598),#593,.T.);
#593=PLANE('',#594);
#594=AXIS2_PLACEMENT_3D('',#595,#596,#597);
#595=CARTESIAN_POINT('',(0.406,-3.658,1.118));
#596=DIRECTION('',(1.0,0.0,0.0));
#597=DIRECTION('',(0.,0.,1.));
#598=FACE_OUTER_BOUND('',#599,.T.);
#599=EDGE_LOOP('',(#600,#610,#620,#630));
#603=CARTESIAN_POINT('',(0.406,-2.845,1.118));
#602=VERTEX_POINT('',#603);
#601=EDGE_CURVE('',#602,#553,#606,.T.);
#606=LINE('',#603,#608);
#608=VECTOR('',#609,0.8128);
#609=DIRECTION('',(0.0,-1.0,0.0));
#600=ORIENTED_EDGE('',*,*,#601,.F.);
#613=CARTESIAN_POINT('',(0.406,-2.845,1.372));
#612=VERTEX_POINT('',#613);
#611=EDGE_CURVE('',#612,#602,#616,.T.);
#616=LINE('',#613,#618);
#618=VECTOR('',#619,0.254);
#619=DIRECTION('',(0.0,0.0,-1.0));
#610=ORIENTED_EDGE('',*,*,#611,.F.);
#621=EDGE_CURVE('',#563,#612,#626,.T.);
#626=LINE('',#564,#628);
#628=VECTOR('',#629,0.8128);
#629=DIRECTION('',(0.0,1.0,0.0));
#620=ORIENTED_EDGE('',*,*,#621,.F.);
#630=ORIENTED_EDGE('',*,*,#562,.T.);
#640=STYLED_ITEM('',(#34),#641);
#641=ADVANCED_FACE('',(#647),#642,.T.);
#642=PLANE('',#643);
#643=AXIS2_PLACEMENT_3D('',#644,#645,#646);
#644=CARTESIAN_POINT('',(0.406,-2.845,1.118));
#645=DIRECTION('',(0.0,1.0,0.0));
#646=DIRECTION('',(0.,0.,1.));
#647=FACE_OUTER_BOUND('',#648,.T.);
#648=EDGE_LOOP('',(#649,#659,#669,#679));
#652=CARTESIAN_POINT('',(-0.406,-2.845,1.118));
#651=VERTEX_POINT('',#652);
#650=EDGE_CURVE('',#651,#602,#655,.T.);
#655=LINE('',#652,#657);
#657=VECTOR('',#658,0.8128);
#658=DIRECTION('',(1.0,0.0,0.0));
#649=ORIENTED_EDGE('',*,*,#650,.F.);
#662=CARTESIAN_POINT('',(-0.406,-2.845,1.372));
#661=VERTEX_POINT('',#662);
#660=EDGE_CURVE('',#661,#651,#665,.T.);
#665=LINE('',#662,#667);
#667=VECTOR('',#668,0.254);
#668=DIRECTION('',(0.0,0.0,-1.0));
#659=ORIENTED_EDGE('',*,*,#660,.F.);
#670=EDGE_CURVE('',#612,#661,#675,.T.);
#675=LINE('',#613,#677);
#677=VECTOR('',#678,0.8128);
#678=DIRECTION('',(-1.0,0.0,0.0));
#669=ORIENTED_EDGE('',*,*,#670,.F.);
#679=ORIENTED_EDGE('',*,*,#611,.T.);
#689=STYLED_ITEM('',(#34),#690);
#690=ADVANCED_FACE('',(#696),#691,.T.);
#691=PLANE('',#692);
#692=AXIS2_PLACEMENT_3D('',#693,#694,#695);
#693=CARTESIAN_POINT('',(-0.406,-2.845,1.118));
#694=DIRECTION('',(-1.0,0.0,0.0));
#695=DIRECTION('',(0.,0.,1.));
#696=FACE_OUTER_BOUND('',#697,.T.);
#697=EDGE_LOOP('',(#698,#708,#718,#728));
#699=EDGE_CURVE('',#555,#651,#704,.T.);
#704=LINE('',#556,#706);
#706=VECTOR('',#707,0.8128);
#707=DIRECTION('',(0.0,1.0,0.0));
#698=ORIENTED_EDGE('',*,*,#699,.F.);
#708=ORIENTED_EDGE('',*,*,#582,.T.);
#719=EDGE_CURVE('',#661,#573,#724,.T.);
#724=LINE('',#662,#726);
#726=VECTOR('',#727,0.8128);
#727=DIRECTION('',(0.0,-1.0,0.0));
#718=ORIENTED_EDGE('',*,*,#719,.F.);
#728=ORIENTED_EDGE('',*,*,#660,.T.);
#738=STYLED_ITEM('',(#34),#739);
#739=ADVANCED_FACE('',(#745),#740,.T.);
#740=PLANE('',#741);
#741=AXIS2_PLACEMENT_3D('',#742,#743,#744);
#742=CARTESIAN_POINT('',(-0.406,-2.845,1.118));
#743=DIRECTION('',(0.0,0.0,-1.0));
#744=DIRECTION('',(0.,1.,0.));
#745=FACE_OUTER_BOUND('',#746,.T.);
#746=EDGE_LOOP('',(#747,#757,#767,#777));
#747=ORIENTED_EDGE('',*,*,#650,.T.);
#757=ORIENTED_EDGE('',*,*,#601,.T.);
#767=ORIENTED_EDGE('',*,*,#552,.T.);
#777=ORIENTED_EDGE('',*,*,#699,.T.);
#787=STYLED_ITEM('',(#34),#788);
#788=ADVANCED_FACE('',(#794),#789,.T.);
#789=PLANE('',#790);
#790=AXIS2_PLACEMENT_3D('',#791,#792,#793);
#791=CARTESIAN_POINT('',(-0.406,-3.658,1.372));
#792=DIRECTION('',(0.0,0.0,1.0));
#793=DIRECTION('',(0.,1.,0.));
#794=FACE_OUTER_BOUND('',#795,.T.);
#795=EDGE_LOOP('',(#796,#806,#816,#826));
#796=ORIENTED_EDGE('',*,*,#572,.T.);
#806=ORIENTED_EDGE('',*,*,#621,.T.);
#816=ORIENTED_EDGE('',*,*,#670,.T.);
#826=ORIENTED_EDGE('',*,*,#719,.T.);
#837=MANIFOLD_SOLID_BREP($,#838);
#838=CLOSED_SHELL('',(#840,#889,#938,#987,#1036,#1085,#1134,#1183,#1232,#1283,#1334,#1385,#1436,#1572));
#839=STYLED_ITEM('',(#34),#840);
#840=ADVANCED_FACE('',(#846),#841,.T.);
#841=PLANE('',#842);
#842=AXIS2_PLACEMENT_3D('',#843,#844,#845);
#843=CARTESIAN_POINT('',(-1.925,-2.845,1.118));
#844=DIRECTION('',(0.0,1.0,0.0));
#845=DIRECTION('',(0.,0.,1.));
#846=FACE_OUTER_BOUND('',#847,.T.);
#847=EDGE_LOOP('',(#848,#858,#868,#878));
#851=CARTESIAN_POINT('',(-2.675,-2.845,1.118));
#850=VERTEX_POINT('',#851);
#853=CARTESIAN_POINT('',(-1.925,-2.845,1.118));
#852=VERTEX_POINT('',#853);
#849=EDGE_CURVE('',#850,#852,#854,.T.);
#854=LINE('',#851,#856);
#856=VECTOR('',#857,0.750000011250254);
#857=DIRECTION('',(1.0,0.0,0.0));
#848=ORIENTED_EDGE('',*,*,#849,.F.);
#861=CARTESIAN_POINT('',(-2.675,-2.845,1.372));
#860=VERTEX_POINT('',#861);
#859=EDGE_CURVE('',#860,#850,#864,.T.);
#864=LINE('',#861,#866);
#866=VECTOR('',#867,0.254);
#867=DIRECTION('',(0.0,0.0,-1.0));
#858=ORIENTED_EDGE('',*,*,#859,.F.);
#871=CARTESIAN_POINT('',(-1.925,-2.845,1.372));
#870=VERTEX_POINT('',#871);
#869=EDGE_CURVE('',#870,#860,#874,.T.);
#874=LINE('',#871,#876);
#876=VECTOR('',#877,0.750000011250254);
#877=DIRECTION('',(-1.0,0.0,0.0));
#868=ORIENTED_EDGE('',*,*,#869,.F.);
#879=EDGE_CURVE('',#852,#870,#884,.T.);
#884=LINE('',#853,#886);
#886=VECTOR('',#887,0.254);
#887=DIRECTION('',(0.0,0.0,1.0));
#878=ORIENTED_EDGE('',*,*,#879,.F.);
#888=STYLED_ITEM('',(#34),#889);
#889=ADVANCED_FACE('',(#895),#890,.T.);
#890=PLANE('',#891);
#891=AXIS2_PLACEMENT_3D('',#892,#893,#894);
#892=CARTESIAN_POINT('',(-1.925,-2.845,1.372));
#893=DIRECTION('',(0.0,0.0,1.0));
#894=DIRECTION('',(0.,1.,0.));
#895=FACE_OUTER_BOUND('',#896,.T.);
#896=EDGE_LOOP('',(#897,#907,#917,#927));
#897=ORIENTED_EDGE('',*,*,#869,.T.);
#910=CARTESIAN_POINT('',(-2.675,-4.562,1.372));
#909=VERTEX_POINT('',#910);
#908=EDGE_CURVE('',#909,#860,#913,.T.);
#913=LINE('',#910,#915);
#915=VECTOR('',#916,1.71691931532453);
#916=DIRECTION('',(0.0,1.0,0.0));
#907=ORIENTED_EDGE('',*,*,#908,.F.);
#920=CARTESIAN_POINT('',(-1.925,-4.562,1.372));
#919=VERTEX_POINT('',#920);
#918=EDGE_CURVE('',#919,#909,#923,.T.);
#923=LINE('',#920,#925);
#925=VECTOR('',#926,0.750000011305735);
#926=DIRECTION('',(-1.0,0.0,0.0));
#917=ORIENTED_EDGE('',*,*,#918,.F.);
#928=EDGE_CURVE('',#870,#919,#933,.T.);
#933=LINE('',#871,#935);
#935=VECTOR('',#936,1.71691931532453);
#936=DIRECTION('',(0.0,-1.0,0.0));
#927=ORIENTED_EDGE('',*,*,#928,.F.);
#937=STYLED_ITEM('',(#34),#938);
#938=ADVANCED_FACE('',(#944),#939,.T.);
#939=PLANE('',#940);
#940=AXIS2_PLACEMENT_3D('',#941,#942,#943);
#941=CARTESIAN_POINT('',(-2.675,-2.845,1.118));
#942=DIRECTION('',(0.0,0.0,-1.0));
#943=DIRECTION('',(0.,1.,0.));
#944=FACE_OUTER_BOUND('',#945,.T.);
#945=EDGE_LOOP('',(#946,#956,#966,#976));
#946=ORIENTED_EDGE('',*,*,#849,.T.);
#959=CARTESIAN_POINT('',(-1.925,-4.562,1.118));
#958=VERTEX_POINT('',#959);
#957=EDGE_CURVE('',#958,#852,#962,.T.);
#962=LINE('',#959,#964);
#964=VECTOR('',#965,1.71691931532453);
#965=DIRECTION('',(0.0,1.0,0.0));
#956=ORIENTED_EDGE('',*,*,#957,.F.);
#969=CARTESIAN_POINT('',(-2.675,-4.562,1.118));
#968=VERTEX_POINT('',#969);
#967=EDGE_CURVE('',#968,#958,#972,.T.);
#972=LINE('',#969,#974);
#974=VECTOR('',#975,0.750000011305735);
#975=DIRECTION('',(1.0,0.0,0.0));
#966=ORIENTED_EDGE('',*,*,#967,.F.);
#977=EDGE_CURVE('',#850,#968,#982,.T.);
#982=LINE('',#851,#984);
#984=VECTOR('',#985,1.71691931532453);
#985=DIRECTION('',(0.0,-1.0,0.0));
#976=ORIENTED_EDGE('',*,*,#977,.F.);
#986=STYLED_ITEM('',(#34),#987);
#987=ADVANCED_FACE('',(#993),#988,.T.);
#988=PLANE('',#989);
#989=AXIS2_PLACEMENT_3D('',#990,#991,#992);
#990=CARTESIAN_POINT('',(-2.675,-5.201,0.442));
#991=DIRECTION('',(0.0,-0.966,0.259));
#992=DIRECTION('',(0.,0.,1.));
#993=FACE_OUTER_BOUND('',#994,.T.);
#994=EDGE_LOOP('',(#995,#1005,#1015,#1025));
#998=CARTESIAN_POINT('',(-1.925,-5.201,0.442));
#997=VERTEX_POINT('',#998);
#1000=CARTESIAN_POINT('',(-2.675,-5.201,0.442));
#999=VERTEX_POINT('',#1000);
#996=EDGE_CURVE('',#997,#999,#1001,.T.);
#1001=LINE('',#998,#1003);
#1003=VECTOR('',#1004,0.750000011370542);
#1004=DIRECTION('',(-1.0,0.0,0.0));
#995=ORIENTED_EDGE('',*,*,#996,.F.);
#1008=CARTESIAN_POINT('',(-1.925,-5.052,0.995));
#1007=VERTEX_POINT('',#1008);
#1006=EDGE_CURVE('',#1007,#997,#1011,.T.);
#1011=LINE('',#1008,#1013);
#1013=VECTOR('',#1014,0.57231869246923);
#1014=DIRECTION('',(0.0,-0.259,-0.966));
#1005=ORIENTED_EDGE('',*,*,#1006,.F.);
#1018=CARTESIAN_POINT('',(-2.675,-5.052,0.995));
#1017=VERTEX_POINT('',#1018);
#1016=EDGE_CURVE('',#1017,#1007,#1021,.T.);
#1021=LINE('',#1018,#1023);
#1023=VECTOR('',#1024,0.750000011350298);
#1024=DIRECTION('',(1.0,0.0,0.0));
#1015=ORIENTED_EDGE('',*,*,#1016,.F.);
#1026=EDGE_CURVE('',#999,#1017,#1031,.T.);
#1031=LINE('',#1000,#1033);
#1033=VECTOR('',#1034,0.57231869246923);
#1034=DIRECTION('',(0.0,0.259,0.966));
#1025=ORIENTED_EDGE('',*,*,#1026,.F.);
#1035=STYLED_ITEM('',(#34),#1036);
#1036=ADVANCED_FACE('',(#1042),#1037,.T.);
#1037=PLANE('',#1038);
#1038=AXIS2_PLACEMENT_3D('',#1039,#1040,#1041);
#1039=CARTESIAN_POINT('',(-1.925,-4.955,0.377));
#1040=DIRECTION('',(0.0,0.966,-0.259));
#1041=DIRECTION('',(0.,0.,1.));
#1042=FACE_OUTER_BOUND('',#1043,.T.);
#1043=EDGE_LOOP('',(#1044,#1054,#1064,#1074));
#1047=CARTESIAN_POINT('',(-2.675,-4.955,0.377));
#1046=VERTEX_POINT('',#1047);
#1049=CARTESIAN_POINT('',(-1.925,-4.955,0.377));
#1048=VERTEX_POINT('',#1049);
#1045=EDGE_CURVE('',#1046,#1048,#1050,.T.);
#1050=LINE('',#1047,#1052);
#1052=VECTOR('',#1053,0.750000011339117);
#1053=DIRECTION('',(1.0,0.0,0.0));
#1044=ORIENTED_EDGE('',*,*,#1045,.F.);
#1057=CARTESIAN_POINT('',(-2.675,-4.807,0.929));
#1056=VERTEX_POINT('',#1057);
#1055=EDGE_CURVE('',#1056,#1046,#1060,.T.);
#1060=LINE('',#1057,#1062);
#1062=VECTOR('',#1063,0.572318692473485);
#1063=DIRECTION('',(0.0,-0.259,-0.966));
#1054=ORIENTED_EDGE('',*,*,#1055,.F.);
#1067=CARTESIAN_POINT('',(-1.925,-4.807,0.929));
#1066=VERTEX_POINT('',#1067);
#1065=EDGE_CURVE('',#1066,#1056,#1070,.T.);
#1070=LINE('',#1067,#1072);
#1072=VECTOR('',#1073,0.750000011324619);
#1073=DIRECTION('',(-1.0,0.0,0.0));
#1064=ORIENTED_EDGE('',*,*,#1065,.F.);
#1075=EDGE_CURVE('',#1048,#1066,#1080,.T.);
#1080=LINE('',#1049,#1082);
#1082=VECTOR('',#1083,0.572318692473485);
#1083=DIRECTION('',(0.0,0.259,0.966));
#1074=ORIENTED_EDGE('',*,*,#1075,.F.);
#1084=STYLED_ITEM('',(#34),#1085);
#1085=ADVANCED_FACE('',(#1091),#1086,.T.);
#1086=PLANE('',#1087);
#1087=AXIS2_PLACEMENT_3D('',#1088,#1089,#1090);
#1088=CARTESIAN_POINT('',(-2.675,-7.163,0.254));
#1089=DIRECTION('',(0.0,0.0,1.0));
#1090=DIRECTION('',(0.,1.,0.));
#1091=FACE_OUTER_BOUND('',#1092,.T.);
#1092=EDGE_LOOP('',(#1093,#1103,#1113,#1123));
#1096=CARTESIAN_POINT('',(-1.925,-7.163,0.254));
#1095=VERTEX_POINT('',#1096);
#1098=CARTESIAN_POINT('',(-2.675,-7.163,0.254));
#1097=VERTEX_POINT('',#1098);
#1094=EDGE_CURVE('',#1095,#1097,#1099,.T.);
#1099=LINE('',#1096,#1101);
#1101=VECTOR('',#1102,0.750000024);
#1102=DIRECTION('',(-1.0,0.0,0.0));
#1093=ORIENTED_EDGE('',*,*,#1094,.F.);
#1106=CARTESIAN_POINT('',(-1.925,-5.446,0.254));
#1105=VERTEX_POINT('',#1106);
#1104=EDGE_CURVE('',#1105,#1095,#1109,.T.);
#1109=LINE('',#1106,#1111);
#1111=VECTOR('',#1112,1.71691930701216);
#1112=DIRECTION('',(0.0,-1.0,0.0));
#1103=ORIENTED_EDGE('',*,*,#1104,.F.);
#1116=CARTESIAN_POINT('',(-2.675,-5.446,0.254));
#1115=VERTEX_POINT('',#1116);
#1114=EDGE_CURVE('',#1115,#1105,#1119,.T.);
#1119=LINE('',#1116,#1121);
#1121=VECTOR('',#1122,0.750000011415891);
#1122=DIRECTION('',(1.0,0.0,0.0));
#1113=ORIENTED_EDGE('',*,*,#1114,.F.);
#1124=EDGE_CURVE('',#1097,#1115,#1129,.T.);
#1129=LINE('',#1098,#1131);
#1131=VECTOR('',#1132,1.71691930701216);
#1132=DIRECTION('',(0.0,1.0,0.0));
#1123=ORIENTED_EDGE('',*,*,#1124,.F.);
#1133=STYLED_ITEM('',(#34),#1134);
#1134=ADVANCED_FACE('',(#1140),#1135,.T.);
#1135=PLANE('',#1136);
#1136=AXIS2_PLACEMENT_3D('',#1137,#1138,#1139);
#1137=CARTESIAN_POINT('',(-2.675,-5.446,0.0));
#1138=DIRECTION('',(0.0,0.0,-1.0));
#1139=DIRECTION('',(0.,1.,0.));
#1140=FACE_OUTER_BOUND('',#1141,.T.);
#1141=EDGE_LOOP('',(#1142,#1152,#1162,#1172));
#1145=CARTESIAN_POINT('',(-1.925,-5.446,0.0));
#1144=VERTEX_POINT('',#1145);
#1147=CARTESIAN_POINT('',(-2.675,-5.446,0.0));
#1146=VERTEX_POINT('',#1147);
#1143=EDGE_CURVE('',#1144,#1146,#1148,.T.);
#1148=LINE('',#1145,#1150);
#1150=VECTOR('',#1151,0.750000011415891);
#1151=DIRECTION('',(-1.0,0.0,0.0));
#1142=ORIENTED_EDGE('',*,*,#1143,.F.);
#1155=CARTESIAN_POINT('',(-1.925,-7.163,0.0));
#1154=VERTEX_POINT('',#1155);
#1153=EDGE_CURVE('',#1154,#1144,#1158,.T.);
#1158=LINE('',#1155,#1160);
#1160=VECTOR('',#1161,1.71691930701216);
#1161=DIRECTION('',(0.0,1.0,0.0));
#1152=ORIENTED_EDGE('',*,*,#1153,.F.);
#1165=CARTESIAN_POINT('',(-2.675,-7.163,0.0));
#1164=VERTEX_POINT('',#1165);
#1163=EDGE_CURVE('',#1164,#1154,#1168,.T.);
#1168=LINE('',#1165,#1170);
#1170=VECTOR('',#1171,0.750000024);
#1171=DIRECTION('',(1.0,0.0,0.0));
#1162=ORIENTED_EDGE('',*,*,#1163,.F.);
#1173=EDGE_CURVE('',#1146,#1164,#1178,.T.);
#1178=LINE('',#1147,#1180);
#1180=VECTOR('',#1181,1.71691930701216);
#1181=DIRECTION('',(0.0,-1.0,0.0));
#1172=ORIENTED_EDGE('',*,*,#1173,.F.);
#1182=STYLED_ITEM('',(#34),#1183);
#1183=ADVANCED_FACE('',(#1189),#1184,.T.);
#1184=PLANE('',#1185);
#1185=AXIS2_PLACEMENT_3D('',#1186,#1187,#1188);
#1186=CARTESIAN_POINT('',(-2.675,-7.163,0.0));
#1187=DIRECTION('',(0.0,-1.0,0.0));
#1188=DIRECTION('',(0.,0.,1.));
#1189=FACE_OUTER_BOUND('',#1190,.T.);
#1190=EDGE_LOOP('',(#1191,#1201,#1211,#1221));
#1191=ORIENTED_EDGE('',*,*,#1163,.T.);
#1202=EDGE_CURVE('',#1095,#1154,#1207,.T.);
#1207=LINE('',#1096,#1209);
#1209=VECTOR('',#1210,0.254);
#1210=DIRECTION('',(0.0,0.0,-1.0));
#1201=ORIENTED_EDGE('',*,*,#1202,.F.);
#1211=ORIENTED_EDGE('',*,*,#1094,.T.);
#1222=EDGE_CURVE('',#1164,#1097,#1227,.T.);
#1227=LINE('',#1165,#1229);
#1229=VECTOR('',#1230,0.254);
#1230=DIRECTION('',(0.0,0.0,1.0));
#1221=ORIENTED_EDGE('',*,*,#1222,.F.);
#1231=STYLED_ITEM($,(#34),#1232);
#1232=ADVANCED_FACE($,(#1238),#1233,.T.);
#1233=CYLINDRICAL_SURFACE($,#1234,0.508);
#1234=AXIS2_PLACEMENT_3D($,#1235,#1236,#1237);
#1235=CARTESIAN_POINT('',(-1.925,-4.562,0.864));
#1236=DIRECTION('',(1.0,0.0,0.0));
#1237=DIRECTION('',(0.,0.,1.));
#1238=FACE_OUTER_BOUND($,#1239,.T.);
#1239=EDGE_LOOP($,(#1251,#1261,#1272,#1240));
#1251=ORIENTED_EDGE('',*,*,#918,.T.);
#1262=EDGE_CURVE($,#1017,#909,#1267,.T.);
#1267=CIRCLE($,#1268,0.508);
#1269=CARTESIAN_POINT('',(-2.675,-4.562,0.864));
#1268=AXIS2_PLACEMENT_3D($,#1269,#1270,#1271);
#1270=DIRECTION('',(-1.0,0.0,0.0));
#1271=DIRECTION('',(0.0,0.793,0.609));
#1261=ORIENTED_EDGE('',*,*,#1262,.F.);
#1272=ORIENTED_EDGE('',*,*,#1016,.T.);
#1241=EDGE_CURVE($,#919,#1007,#1246,.T.);
#1246=CIRCLE($,#1247,0.508);
#1248=CARTESIAN_POINT('',(-1.925,-4.562,0.864));
#1247=AXIS2_PLACEMENT_3D($,#1248,#1249,#1250);
#1249=DIRECTION('',(1.0,0.0,0.0));
#1250=DIRECTION('',(0.0,-0.793,-0.609));
#1240=ORIENTED_EDGE('',*,*,#1241,.F.);
#1282=STYLED_ITEM($,(#34),#1283);
#1283=ADVANCED_FACE($,(#1289),#1284,.F.);
#1284=CYLINDRICAL_SURFACE($,#1285,0.254);
#1285=AXIS2_PLACEMENT_3D($,#1286,#1287,#1288);
#1286=CARTESIAN_POINT('',(-2.675,-4.562,0.864));
#1287=DIRECTION('',(1.0,0.0,0.0));
#1288=DIRECTION('',(0.,0.,-1.));
#1289=FACE_OUTER_BOUND($,#1290,.T.);
#1290=EDGE_LOOP($,(#1302,#1312,#1323,#1291));
#1302=ORIENTED_EDGE('',*,*,#967,.T.);
#1313=EDGE_CURVE($,#1066,#958,#1318,.T.);
#1318=CIRCLE($,#1319,0.254);
#1319=AXIS2_PLACEMENT_3D($,#1248,#1321,#1322);
#1321=DIRECTION('',(-1.0,0.0,0.0));
#1322=DIRECTION('',(0.0,0.793,0.609));
#1312=ORIENTED_EDGE('',*,*,#1313,.F.);
#1323=ORIENTED_EDGE('',*,*,#1065,.T.);
#1292=EDGE_CURVE($,#968,#1056,#1297,.T.);
#1297=CIRCLE($,#1298,0.254);
#1298=AXIS2_PLACEMENT_3D($,#1269,#1300,#1301);
#1300=DIRECTION('',(1.0,0.0,0.0));
#1301=DIRECTION('',(0.0,-0.793,-0.609));
#1291=ORIENTED_EDGE('',*,*,#1292,.F.);
#1333=STYLED_ITEM($,(#34),#1334);
#1334=ADVANCED_FACE($,(#1340),#1335,.F.);
#1335=CYLINDRICAL_SURFACE($,#1336,0.254);
#1336=AXIS2_PLACEMENT_3D($,#1337,#1338,#1339);
#1337=CARTESIAN_POINT('',(-2.675,-5.446,0.508));
#1338=DIRECTION('',(1.0,0.0,0.0));
#1339=DIRECTION('',(0.,0.,1.));
#1340=FACE_OUTER_BOUND($,#1341,.T.);
#1341=EDGE_LOOP($,(#1353,#1363,#1374,#1342));
#1353=ORIENTED_EDGE('',*,*,#1114,.T.);
#1364=EDGE_CURVE($,#997,#1105,#1369,.T.);
#1369=CIRCLE($,#1370,0.254);
#1371=CARTESIAN_POINT('',(-1.925,-5.446,0.508));
#1370=AXIS2_PLACEMENT_3D($,#1371,#1372,#1373);
#1372=DIRECTION('',(-1.0,0.0,0.0));
#1373=DIRECTION('',(0.0,-0.793,-0.609));
#1363=ORIENTED_EDGE('',*,*,#1364,.F.);
#1374=ORIENTED_EDGE('',*,*,#996,.T.);
#1343=EDGE_CURVE($,#1115,#999,#1348,.T.);
#1348=CIRCLE($,#1349,0.254);
#1350=CARTESIAN_POINT('',(-2.675,-5.446,0.508));
#1349=AXIS2_PLACEMENT_3D($,#1350,#1351,#1352);
#1351=DIRECTION('',(1.0,0.0,0.0));
#1352=DIRECTION('',(0.0,0.793,0.609));
#1342=ORIENTED_EDGE('',*,*,#1343,.F.);
#1384=STYLED_ITEM($,(#34),#1385);
#1385=ADVANCED_FACE($,(#1391),#1386,.T.);
#1386=CYLINDRICAL_SURFACE($,#1387,0.508);
#1387=AXIS2_PLACEMENT_3D($,#1388,#1389,#1390);
#1388=CARTESIAN_POINT('',(-2.675,-5.446,0.508));
#1389=DIRECTION('',(1.0,0.0,0.0));
#1390=DIRECTION('',(0.,0.,-1.));
#1391=FACE_OUTER_BOUND($,#1392,.T.);
#1392=EDGE_LOOP($,(#1404,#1414,#1425,#1393));
#1404=ORIENTED_EDGE('',*,*,#1143,.T.);
#1415=EDGE_CURVE($,#1046,#1146,#1420,.T.);
#1420=CIRCLE($,#1421,0.508);
#1421=AXIS2_PLACEMENT_3D($,#1350,#1423,#1424);
#1423=DIRECTION('',(-1.0,0.0,0.0));
#1424=DIRECTION('',(0.0,-0.793,-0.609));
#1414=ORIENTED_EDGE('',*,*,#1415,.F.);
#1425=ORIENTED_EDGE('',*,*,#1045,.T.);
#1394=EDGE_CURVE($,#1144,#1048,#1399,.T.);
#1399=CIRCLE($,#1400,0.508);
#1400=AXIS2_PLACEMENT_3D($,#1371,#1402,#1403);
#1402=DIRECTION('',(1.0,0.0,0.0));
#1403=DIRECTION('',(0.0,0.793,0.609));
#1393=ORIENTED_EDGE('',*,*,#1394,.F.);
#1435=STYLED_ITEM('color',(#34),#1436);
#1436=ADVANCED_FACE($,(#1442),#1437,.T.);
#1437=PLANE($,#1438);
#1438=AXIS2_PLACEMENT_3D($,#1439,#1440,#1441);
#1439=CARTESIAN_POINT('',(-2.675,-2.845,1.118));
#1440=DIRECTION('',(-1.0,0.0,0.0));
#1441=DIRECTION('',(1.,0.,0.));
#1442=FACE_OUTER_BOUND($,#1443,.T.);
#1443=EDGE_LOOP($,(#1446, #1456, #1466, #1529, #1540, #1476, #1487, #1497, #1507, #1517, #1550, #1560));
#1446=ORIENTED_EDGE('',*,*,#908,.T.);
#1456=ORIENTED_EDGE('',*,*,#859,.T.);
#1466=ORIENTED_EDGE('',*,*,#977,.T.);
#1529=ORIENTED_EDGE('',*,*,#1292,.T.);
#1540=ORIENTED_EDGE('',*,*,#1055,.T.);
#1476=ORIENTED_EDGE('',*,*,#1415,.T.);
#1487=ORIENTED_EDGE('',*,*,#1173,.T.);
#1497=ORIENTED_EDGE('',*,*,#1222,.T.);
#1507=ORIENTED_EDGE('',*,*,#1124,.T.);
#1517=ORIENTED_EDGE('',*,*,#1343,.T.);
#1550=ORIENTED_EDGE('',*,*,#1026,.T.);
#1560=ORIENTED_EDGE('',*,*,#1262,.T.);
#1571=STYLED_ITEM('color',(#34),#1572);
#1572=ADVANCED_FACE($,(#1578),#1573,.T.);
#1573=PLANE($,#1574);
#1574=AXIS2_PLACEMENT_3D($,#1575,#1576,#1577);
#1575=CARTESIAN_POINT('',(-1.925,-5.446,0.254));
#1576=DIRECTION('',(1.0,0.0,0.0));
#1577=DIRECTION('',(1.,0.,0.));
#1578=FACE_OUTER_BOUND($,#1579,.T.);
#1579=EDGE_LOOP($,(#1582, #1592, #1602, #1665, #1676, #1612, #1623, #1633, #1643, #1653, #1686, #1696));
#1582=ORIENTED_EDGE('',*,*,#957,.T.);
#1592=ORIENTED_EDGE('',*,*,#879,.T.);
#1602=ORIENTED_EDGE('',*,*,#928,.T.);
#1665=ORIENTED_EDGE('',*,*,#1241,.T.);
#1676=ORIENTED_EDGE('',*,*,#1006,.T.);
#1612=ORIENTED_EDGE('',*,*,#1364,.T.);
#1623=ORIENTED_EDGE('',*,*,#1104,.T.);
#1633=ORIENTED_EDGE('',*,*,#1202,.T.);
#1643=ORIENTED_EDGE('',*,*,#1153,.T.);
#1653=ORIENTED_EDGE('',*,*,#1394,.T.);
#1686=ORIENTED_EDGE('',*,*,#1075,.T.);
#1696=ORIENTED_EDGE('',*,*,#1313,.T.);
#1707=MANIFOLD_SOLID_BREP($,#1708);
#1708=CLOSED_SHELL('',(#1710,#1759,#1808,#1857,#1906,#1955,#2004,#2053,#2102,#2153,#2204,#2255,#2306,#2442));
#1709=STYLED_ITEM('',(#34),#1710);
#1710=ADVANCED_FACE('',(#1716),#1711,.T.);
#1711=PLANE('',#1712);
#1712=AXIS2_PLACEMENT_3D('',#1713,#1714,#1715);
#1713=CARTESIAN_POINT('',(2.675,-2.845,1.118));
#1714=DIRECTION('',(0.0,1.0,0.0));
#1715=DIRECTION('',(0.,0.,1.));
#1716=FACE_OUTER_BOUND('',#1717,.T.);
#1717=EDGE_LOOP('',(#1718,#1728,#1738,#1748));
#1721=CARTESIAN_POINT('',(1.925,-2.845,1.118));
#1720=VERTEX_POINT('',#1721);
#1723=CARTESIAN_POINT('',(2.675,-2.845,1.118));
#1722=VERTEX_POINT('',#1723);
#1719=EDGE_CURVE('',#1720,#1722,#1724,.T.);
#1724=LINE('',#1721,#1726);
#1726=VECTOR('',#1727,0.750000011250254);
#1727=DIRECTION('',(1.0,0.0,0.0));
#1718=ORIENTED_EDGE('',*,*,#1719,.F.);
#1731=CARTESIAN_POINT('',(1.925,-2.845,1.372));
#1730=VERTEX_POINT('',#1731);
#1729=EDGE_CURVE('',#1730,#1720,#1734,.T.);
#1734=LINE('',#1731,#1736);
#1736=VECTOR('',#1737,0.254);
#1737=DIRECTION('',(0.0,0.0,-1.0));
#1728=ORIENTED_EDGE('',*,*,#1729,.F.);
#1741=CARTESIAN_POINT('',(2.675,-2.845,1.372));
#1740=VERTEX_POINT('',#1741);
#1739=EDGE_CURVE('',#1740,#1730,#1744,.T.);
#1744=LINE('',#1741,#1746);
#1746=VECTOR('',#1747,0.750000011250254);
#1747=DIRECTION('',(-1.0,0.0,0.0));
#1738=ORIENTED_EDGE('',*,*,#1739,.F.);
#1749=EDGE_CURVE('',#1722,#1740,#1754,.T.);
#1754=LINE('',#1723,#1756);
#1756=VECTOR('',#1757,0.254);
#1757=DIRECTION('',(0.0,0.0,1.0));
#1748=ORIENTED_EDGE('',*,*,#1749,.F.);
#1758=STYLED_ITEM('',(#34),#1759);
#1759=ADVANCED_FACE('',(#1765),#1760,.T.);
#1760=PLANE('',#1761);
#1761=AXIS2_PLACEMENT_3D('',#1762,#1763,#1764);
#1762=CARTESIAN_POINT('',(2.675,-2.845,1.372));
#1763=DIRECTION('',(0.0,0.0,1.0));
#1764=DIRECTION('',(0.,1.,0.));
#1765=FACE_OUTER_BOUND('',#1766,.T.);
#1766=EDGE_LOOP('',(#1767,#1777,#1787,#1797));
#1767=ORIENTED_EDGE('',*,*,#1739,.T.);
#1780=CARTESIAN_POINT('',(1.925,-4.562,1.372));
#1779=VERTEX_POINT('',#1780);
#1778=EDGE_CURVE('',#1779,#1730,#1783,.T.);
#1783=LINE('',#1780,#1785);
#1785=VECTOR('',#1786,1.71691931532453);
#1786=DIRECTION('',(0.0,1.0,0.0));
#1777=ORIENTED_EDGE('',*,*,#1778,.F.);
#1790=CARTESIAN_POINT('',(2.675,-4.562,1.372));
#1789=VERTEX_POINT('',#1790);
#1788=EDGE_CURVE('',#1789,#1779,#1793,.T.);
#1793=LINE('',#1790,#1795);
#1795=VECTOR('',#1796,0.750000011305735);
#1796=DIRECTION('',(-1.0,0.0,0.0));
#1787=ORIENTED_EDGE('',*,*,#1788,.F.);
#1798=EDGE_CURVE('',#1740,#1789,#1803,.T.);
#1803=LINE('',#1741,#1805);
#1805=VECTOR('',#1806,1.71691931532453);
#1806=DIRECTION('',(0.0,-1.0,0.0));
#1797=ORIENTED_EDGE('',*,*,#1798,.F.);
#1807=STYLED_ITEM('',(#34),#1808);
#1808=ADVANCED_FACE('',(#1814),#1809,.T.);
#1809=PLANE('',#1810);
#1810=AXIS2_PLACEMENT_3D('',#1811,#1812,#1813);
#1811=CARTESIAN_POINT('',(1.925,-2.845,1.118));
#1812=DIRECTION('',(0.0,0.0,-1.0));
#1813=DIRECTION('',(0.,1.,0.));
#1814=FACE_OUTER_BOUND('',#1815,.T.);
#1815=EDGE_LOOP('',(#1816,#1826,#1836,#1846));
#1816=ORIENTED_EDGE('',*,*,#1719,.T.);
#1829=CARTESIAN_POINT('',(2.675,-4.562,1.118));
#1828=VERTEX_POINT('',#1829);
#1827=EDGE_CURVE('',#1828,#1722,#1832,.T.);
#1832=LINE('',#1829,#1834);
#1834=VECTOR('',#1835,1.71691931532453);
#1835=DIRECTION('',(0.0,1.0,0.0));
#1826=ORIENTED_EDGE('',*,*,#1827,.F.);
#1839=CARTESIAN_POINT('',(1.925,-4.562,1.118));
#1838=VERTEX_POINT('',#1839);
#1837=EDGE_CURVE('',#1838,#1828,#1842,.T.);
#1842=LINE('',#1839,#1844);
#1844=VECTOR('',#1845,0.750000011305735);
#1845=DIRECTION('',(1.0,0.0,0.0));
#1836=ORIENTED_EDGE('',*,*,#1837,.F.);
#1847=EDGE_CURVE('',#1720,#1838,#1852,.T.);
#1852=LINE('',#1721,#1854);
#1854=VECTOR('',#1855,1.71691931532453);
#1855=DIRECTION('',(0.0,-1.0,0.0));
#1846=ORIENTED_EDGE('',*,*,#1847,.F.);
#1856=STYLED_ITEM('',(#34),#1857);
#1857=ADVANCED_FACE('',(#1863),#1858,.T.);
#1858=PLANE('',#1859);
#1859=AXIS2_PLACEMENT_3D('',#1860,#1861,#1862);
#1860=CARTESIAN_POINT('',(1.925,-5.201,0.442));
#1861=DIRECTION('',(0.0,-0.966,0.259));
#1862=DIRECTION('',(0.,0.,1.));
#1863=FACE_OUTER_BOUND('',#1864,.T.);
#1864=EDGE_LOOP('',(#1865,#1875,#1885,#1895));
#1868=CARTESIAN_POINT('',(2.675,-5.201,0.442));
#1867=VERTEX_POINT('',#1868);
#1870=CARTESIAN_POINT('',(1.925,-5.201,0.442));
#1869=VERTEX_POINT('',#1870);
#1866=EDGE_CURVE('',#1867,#1869,#1871,.T.);
#1871=LINE('',#1868,#1873);
#1873=VECTOR('',#1874,0.750000011370542);
#1874=DIRECTION('',(-1.0,0.0,0.0));
#1865=ORIENTED_EDGE('',*,*,#1866,.F.);
#1878=CARTESIAN_POINT('',(2.675,-5.052,0.995));
#1877=VERTEX_POINT('',#1878);
#1876=EDGE_CURVE('',#1877,#1867,#1881,.T.);
#1881=LINE('',#1878,#1883);
#1883=VECTOR('',#1884,0.57231869246923);
#1884=DIRECTION('',(0.0,-0.259,-0.966));
#1875=ORIENTED_EDGE('',*,*,#1876,.F.);
#1888=CARTESIAN_POINT('',(1.925,-5.052,0.995));
#1887=VERTEX_POINT('',#1888);
#1886=EDGE_CURVE('',#1887,#1877,#1891,.T.);
#1891=LINE('',#1888,#1893);
#1893=VECTOR('',#1894,0.750000011350298);
#1894=DIRECTION('',(1.0,0.0,0.0));
#1885=ORIENTED_EDGE('',*,*,#1886,.F.);
#1896=EDGE_CURVE('',#1869,#1887,#1901,.T.);
#1901=LINE('',#1870,#1903);
#1903=VECTOR('',#1904,0.57231869246923);
#1904=DIRECTION('',(0.0,0.259,0.966));
#1895=ORIENTED_EDGE('',*,*,#1896,.F.);
#1905=STYLED_ITEM('',(#34),#1906);
#1906=ADVANCED_FACE('',(#1912),#1907,.T.);
#1907=PLANE('',#1908);
#1908=AXIS2_PLACEMENT_3D('',#1909,#1910,#1911);
#1909=CARTESIAN_POINT('',(2.675,-4.955,0.377));
#1910=DIRECTION('',(0.0,0.966,-0.259));
#1911=DIRECTION('',(0.,0.,1.));
#1912=FACE_OUTER_BOUND('',#1913,.T.);
#1913=EDGE_LOOP('',(#1914,#1924,#1934,#1944));
#1917=CARTESIAN_POINT('',(1.925,-4.955,0.377));
#1916=VERTEX_POINT('',#1917);
#1919=CARTESIAN_POINT('',(2.675,-4.955,0.377));
#1918=VERTEX_POINT('',#1919);
#1915=EDGE_CURVE('',#1916,#1918,#1920,.T.);
#1920=LINE('',#1917,#1922);
#1922=VECTOR('',#1923,0.750000011339117);
#1923=DIRECTION('',(1.0,0.0,0.0));
#1914=ORIENTED_EDGE('',*,*,#1915,.F.);
#1927=CARTESIAN_POINT('',(1.925,-4.807,0.929));
#1926=VERTEX_POINT('',#1927);
#1925=EDGE_CURVE('',#1926,#1916,#1930,.T.);
#1930=LINE('',#1927,#1932);
#1932=VECTOR('',#1933,0.572318692473485);
#1933=DIRECTION('',(0.0,-0.259,-0.966));
#1924=ORIENTED_EDGE('',*,*,#1925,.F.);
#1937=CARTESIAN_POINT('',(2.675,-4.807,0.929));
#1936=VERTEX_POINT('',#1937);
#1935=EDGE_CURVE('',#1936,#1926,#1940,.T.);
#1940=LINE('',#1937,#1942);
#1942=VECTOR('',#1943,0.750000011324619);
#1943=DIRECTION('',(-1.0,0.0,0.0));
#1934=ORIENTED_EDGE('',*,*,#1935,.F.);
#1945=EDGE_CURVE('',#1918,#1936,#1950,.T.);
#1950=LINE('',#1919,#1952);
#1952=VECTOR('',#1953,0.572318692473485);
#1953=DIRECTION('',(0.0,0.259,0.966));
#1944=ORIENTED_EDGE('',*,*,#1945,.F.);
#1954=STYLED_ITEM('',(#34),#1955);
#1955=ADVANCED_FACE('',(#1961),#1956,.T.);
#1956=PLANE('',#1957);
#1957=AXIS2_PLACEMENT_3D('',#1958,#1959,#1960);
#1958=CARTESIAN_POINT('',(1.925,-7.163,0.254));
#1959=DIRECTION('',(0.0,0.0,1.0));
#1960=DIRECTION('',(0.,1.,0.));
#1961=FACE_OUTER_BOUND('',#1962,.T.);
#1962=EDGE_LOOP('',(#1963,#1973,#1983,#1993));
#1966=CARTESIAN_POINT('',(2.675,-7.163,0.254));
#1965=VERTEX_POINT('',#1966);
#1968=CARTESIAN_POINT('',(1.925,-7.163,0.254));
#1967=VERTEX_POINT('',#1968);
#1964=EDGE_CURVE('',#1965,#1967,#1969,.T.);
#1969=LINE('',#1966,#1971);
#1971=VECTOR('',#1972,0.750000024);
#1972=DIRECTION('',(-1.0,0.0,0.0));
#1963=ORIENTED_EDGE('',*,*,#1964,.F.);
#1976=CARTESIAN_POINT('',(2.675,-5.446,0.254));
#1975=VERTEX_POINT('',#1976);
#1974=EDGE_CURVE('',#1975,#1965,#1979,.T.);
#1979=LINE('',#1976,#1981);
#1981=VECTOR('',#1982,1.71691930701216);
#1982=DIRECTION('',(0.0,-1.0,0.0));
#1973=ORIENTED_EDGE('',*,*,#1974,.F.);
#1986=CARTESIAN_POINT('',(1.925,-5.446,0.254));
#1985=VERTEX_POINT('',#1986);
#1984=EDGE_CURVE('',#1985,#1975,#1989,.T.);
#1989=LINE('',#1986,#1991);
#1991=VECTOR('',#1992,0.750000011415891);
#1992=DIRECTION('',(1.0,0.0,0.0));
#1983=ORIENTED_EDGE('',*,*,#1984,.F.);
#1994=EDGE_CURVE('',#1967,#1985,#1999,.T.);
#1999=LINE('',#1968,#2001);
#2001=VECTOR('',#2002,1.71691930701216);
#2002=DIRECTION('',(0.0,1.0,0.0));
#1993=ORIENTED_EDGE('',*,*,#1994,.F.);
#2003=STYLED_ITEM('',(#34),#2004);
#2004=ADVANCED_FACE('',(#2010),#2005,.T.);
#2005=PLANE('',#2006);
#2006=AXIS2_PLACEMENT_3D('',#2007,#2008,#2009);
#2007=CARTESIAN_POINT('',(1.925,-5.446,0.0));
#2008=DIRECTION('',(0.0,0.0,-1.0));
#2009=DIRECTION('',(0.,1.,0.));
#2010=FACE_OUTER_BOUND('',#2011,.T.);
#2011=EDGE_LOOP('',(#2012,#2022,#2032,#2042));
#2015=CARTESIAN_POINT('',(2.675,-5.446,0.0));
#2014=VERTEX_POINT('',#2015);
#2017=CARTESIAN_POINT('',(1.925,-5.446,0.0));
#2016=VERTEX_POINT('',#2017);
#2013=EDGE_CURVE('',#2014,#2016,#2018,.T.);
#2018=LINE('',#2015,#2020);
#2020=VECTOR('',#2021,0.750000011415891);
#2021=DIRECTION('',(-1.0,0.0,0.0));
#2012=ORIENTED_EDGE('',*,*,#2013,.F.);
#2025=CARTESIAN_POINT('',(2.675,-7.163,0.0));
#2024=VERTEX_POINT('',#2025);
#2023=EDGE_CURVE('',#2024,#2014,#2028,.T.);
#2028=LINE('',#2025,#2030);
#2030=VECTOR('',#2031,1.71691930701216);
#2031=DIRECTION('',(0.0,1.0,0.0));
#2022=ORIENTED_EDGE('',*,*,#2023,.F.);
#2035=CARTESIAN_POINT('',(1.925,-7.163,0.0));
#2034=VERTEX_POINT('',#2035);
#2033=EDGE_CURVE('',#2034,#2024,#2038,.T.);
#2038=LINE('',#2035,#2040);
#2040=VECTOR('',#2041,0.750000024);
#2041=DIRECTION('',(1.0,0.0,0.0));
#2032=ORIENTED_EDGE('',*,*,#2033,.F.);
#2043=EDGE_CURVE('',#2016,#2034,#2048,.T.);
#2048=LINE('',#2017,#2050);
#2050=VECTOR('',#2051,1.71691930701216);
#2051=DIRECTION('',(0.0,-1.0,0.0));
#2042=ORIENTED_EDGE('',*,*,#2043,.F.);
#2052=STYLED_ITEM('',(#34),#2053);
#2053=ADVANCED_FACE('',(#2059),#2054,.T.);
#2054=PLANE('',#2055);
#2055=AXIS2_PLACEMENT_3D('',#2056,#2057,#2058);
#2056=CARTESIAN_POINT('',(1.925,-7.163,0.0));
#2057=DIRECTION('',(0.0,-1.0,0.0));
#2058=DIRECTION('',(0.,0.,1.));
#2059=FACE_OUTER_BOUND('',#2060,.T.);
#2060=EDGE_LOOP('',(#2061,#2071,#2081,#2091));
#2061=ORIENTED_EDGE('',*,*,#2033,.T.);
#2072=EDGE_CURVE('',#1965,#2024,#2077,.T.);
#2077=LINE('',#1966,#2079);
#2079=VECTOR('',#2080,0.254);
#2080=DIRECTION('',(0.0,0.0,-1.0));
#2071=ORIENTED_EDGE('',*,*,#2072,.F.);
#2081=ORIENTED_EDGE('',*,*,#1964,.T.);
#2092=EDGE_CURVE('',#2034,#1967,#2097,.T.);
#2097=LINE('',#2035,#2099);
#2099=VECTOR('',#2100,0.254);
#2100=DIRECTION('',(0.0,0.0,1.0));
#2091=ORIENTED_EDGE('',*,*,#2092,.F.);
#2101=STYLED_ITEM($,(#34),#2102);
#2102=ADVANCED_FACE($,(#2108),#2103,.T.);
#2103=CYLINDRICAL_SURFACE($,#2104,0.508);
#2104=AXIS2_PLACEMENT_3D($,#2105,#2106,#2107);
#2105=CARTESIAN_POINT('',(2.675,-4.562,0.864));
#2106=DIRECTION('',(1.0,0.0,0.0));
#2107=DIRECTION('',(0.,0.,1.));
#2108=FACE_OUTER_BOUND($,#2109,.T.);
#2109=EDGE_LOOP($,(#2121,#2131,#2142,#2110));
#2121=ORIENTED_EDGE('',*,*,#1788,.T.);
#2132=EDGE_CURVE($,#1887,#1779,#2137,.T.);
#2137=CIRCLE($,#2138,0.508);
#2139=CARTESIAN_POINT('',(1.925,-4.562,0.864));
#2138=AXIS2_PLACEMENT_3D($,#2139,#2140,#2141);
#2140=DIRECTION('',(-1.0,0.0,0.0));
#2141=DIRECTION('',(0.0,0.793,0.609));
#2131=ORIENTED_EDGE('',*,*,#2132,.F.);
#2142=ORIENTED_EDGE('',*,*,#1886,.T.);
#2111=EDGE_CURVE($,#1789,#1877,#2116,.T.);
#2116=CIRCLE($,#2117,0.508);
#2118=CARTESIAN_POINT('',(2.675,-4.562,0.864));
#2117=AXIS2_PLACEMENT_3D($,#2118,#2119,#2120);
#2119=DIRECTION('',(1.0,0.0,0.0));
#2120=DIRECTION('',(0.0,-0.793,-0.609));
#2110=ORIENTED_EDGE('',*,*,#2111,.F.);
#2152=STYLED_ITEM($,(#34),#2153);
#2153=ADVANCED_FACE($,(#2159),#2154,.F.);
#2154=CYLINDRICAL_SURFACE($,#2155,0.254);
#2155=AXIS2_PLACEMENT_3D($,#2156,#2157,#2158);
#2156=CARTESIAN_POINT('',(1.925,-4.562,0.864));
#2157=DIRECTION('',(1.0,0.0,0.0));
#2158=DIRECTION('',(0.,0.,-1.));
#2159=FACE_OUTER_BOUND($,#2160,.T.);
#2160=EDGE_LOOP($,(#2172,#2182,#2193,#2161));
#2172=ORIENTED_EDGE('',*,*,#1837,.T.);
#2183=EDGE_CURVE($,#1936,#1828,#2188,.T.);
#2188=CIRCLE($,#2189,0.254);
#2189=AXIS2_PLACEMENT_3D($,#2118,#2191,#2192);
#2191=DIRECTION('',(-1.0,0.0,0.0));
#2192=DIRECTION('',(0.0,0.793,0.609));
#2182=ORIENTED_EDGE('',*,*,#2183,.F.);
#2193=ORIENTED_EDGE('',*,*,#1935,.T.);
#2162=EDGE_CURVE($,#1838,#1926,#2167,.T.);
#2167=CIRCLE($,#2168,0.254);
#2168=AXIS2_PLACEMENT_3D($,#2139,#2170,#2171);
#2170=DIRECTION('',(1.0,0.0,0.0));
#2171=DIRECTION('',(0.0,-0.793,-0.609));
#2161=ORIENTED_EDGE('',*,*,#2162,.F.);
#2203=STYLED_ITEM($,(#34),#2204);
#2204=ADVANCED_FACE($,(#2210),#2205,.F.);
#2205=CYLINDRICAL_SURFACE($,#2206,0.254);
#2206=AXIS2_PLACEMENT_3D($,#2207,#2208,#2209);
#2207=CARTESIAN_POINT('',(1.925,-5.446,0.508));
#2208=DIRECTION('',(1.0,0.0,0.0));
#2209=DIRECTION('',(0.,0.,1.));
#2210=FACE_OUTER_BOUND($,#2211,.T.);
#2211=EDGE_LOOP($,(#2223,#2233,#2244,#2212));
#2223=ORIENTED_EDGE('',*,*,#1984,.T.);
#2234=EDGE_CURVE($,#1867,#1975,#2239,.T.);
#2239=CIRCLE($,#2240,0.254);
#2241=CARTESIAN_POINT('',(2.675,-5.446,0.508));
#2240=AXIS2_PLACEMENT_3D($,#2241,#2242,#2243);
#2242=DIRECTION('',(-1.0,0.0,0.0));
#2243=DIRECTION('',(0.0,-0.793,-0.609));
#2233=ORIENTED_EDGE('',*,*,#2234,.F.);
#2244=ORIENTED_EDGE('',*,*,#1866,.T.);
#2213=EDGE_CURVE($,#1985,#1869,#2218,.T.);
#2218=CIRCLE($,#2219,0.254);
#2220=CARTESIAN_POINT('',(1.925,-5.446,0.508));
#2219=AXIS2_PLACEMENT_3D($,#2220,#2221,#2222);
#2221=DIRECTION('',(1.0,0.0,0.0));
#2222=DIRECTION('',(0.0,0.793,0.609));
#2212=ORIENTED_EDGE('',*,*,#2213,.F.);
#2254=STYLED_ITEM($,(#34),#2255);
#2255=ADVANCED_FACE($,(#2261),#2256,.T.);
#2256=CYLINDRICAL_SURFACE($,#2257,0.508);
#2257=AXIS2_PLACEMENT_3D($,#2258,#2259,#2260);
#2258=CARTESIAN_POINT('',(1.925,-5.446,0.508));
#2259=DIRECTION('',(1.0,0.0,0.0));
#2260=DIRECTION('',(0.,0.,-1.));
#2261=FACE_OUTER_BOUND($,#2262,.T.);
#2262=EDGE_LOOP($,(#2274,#2284,#2295,#2263));
#2274=ORIENTED_EDGE('',*,*,#2013,.T.);
#2285=EDGE_CURVE($,#1916,#2016,#2290,.T.);
#2290=CIRCLE($,#2291,0.508);
#2291=AXIS2_PLACEMENT_3D($,#2220,#2293,#2294);
#2293=DIRECTION('',(-1.0,0.0,0.0));
#2294=DIRECTION('',(0.0,-0.793,-0.609));
#2284=ORIENTED_EDGE('',*,*,#2285,.F.);
#2295=ORIENTED_EDGE('',*,*,#1915,.T.);
#2264=EDGE_CURVE($,#2014,#1918,#2269,.T.);
#2269=CIRCLE($,#2270,0.508);
#2270=AXIS2_PLACEMENT_3D($,#2241,#2272,#2273);
#2272=DIRECTION('',(1.0,0.0,0.0));
#2273=DIRECTION('',(0.0,0.793,0.609));
#2263=ORIENTED_EDGE('',*,*,#2264,.F.);
#2305=STYLED_ITEM('color',(#34),#2306);
#2306=ADVANCED_FACE($,(#2312),#2307,.T.);
#2307=PLANE($,#2308);
#2308=AXIS2_PLACEMENT_3D($,#2309,#2310,#2311);
#2309=CARTESIAN_POINT('',(1.925,-2.845,1.118));
#2310=DIRECTION('',(-1.0,0.0,0.0));
#2311=DIRECTION('',(1.,0.,0.));
#2312=FACE_OUTER_BOUND($,#2313,.T.);
#2313=EDGE_LOOP($,(#2316, #2326, #2336, #2399, #2410, #2346, #2357, #2367, #2377, #2387, #2420, #2430));
#2316=ORIENTED_EDGE('',*,*,#1778,.T.);
#2326=ORIENTED_EDGE('',*,*,#1729,.T.);
#2336=ORIENTED_EDGE('',*,*,#1847,.T.);
#2399=ORIENTED_EDGE('',*,*,#2162,.T.);
#2410=ORIENTED_EDGE('',*,*,#1925,.T.);
#2346=ORIENTED_EDGE('',*,*,#2285,.T.);
#2357=ORIENTED_EDGE('',*,*,#2043,.T.);
#2367=ORIENTED_EDGE('',*,*,#2092,.T.);
#2377=ORIENTED_EDGE('',*,*,#1994,.T.);
#2387=ORIENTED_EDGE('',*,*,#2213,.T.);
#2420=ORIENTED_EDGE('',*,*,#1896,.T.);
#2430=ORIENTED_EDGE('',*,*,#2132,.T.);
#2441=STYLED_ITEM('color',(#34),#2442);
#2442=ADVANCED_FACE($,(#2448),#2443,.T.);
#2443=PLANE($,#2444);
#2444=AXIS2_PLACEMENT_3D($,#2445,#2446,#2447);
#2445=CARTESIAN_POINT('',(2.675,-5.446,0.254));
#2446=DIRECTION('',(1.0,0.0,0.0));
#2447=DIRECTION('',(1.,0.,0.));
#2448=FACE_OUTER_BOUND($,#2449,.T.);
#2449=EDGE_LOOP($,(#2452, #2462, #2472, #2535, #2546, #2482, #2493, #2503, #2513, #2523, #2556, #2566));
#2452=ORIENTED_EDGE('',*,*,#1827,.T.);
#2462=ORIENTED_EDGE('',*,*,#1749,.T.);
#2472=ORIENTED_EDGE('',*,*,#1798,.T.);
#2535=ORIENTED_EDGE('',*,*,#2111,.T.);
#2546=ORIENTED_EDGE('',*,*,#1876,.T.);
#2482=ORIENTED_EDGE('',*,*,#2234,.T.);
#2493=ORIENTED_EDGE('',*,*,#1974,.T.);
#2503=ORIENTED_EDGE('',*,*,#2072,.T.);
#2513=ORIENTED_EDGE('',*,*,#2023,.T.);
#2523=ORIENTED_EDGE('',*,*,#2264,.T.);
#2556=ORIENTED_EDGE('',*,*,#1945,.T.);
#2566=ORIENTED_EDGE('',*,*,#2183,.T.);
#2578=MANIFOLD_SOLID_BREP($,#2579);
#2579=CLOSED_SHELL('',(#2581,#2630,#2679,#2728,#2777,#2826,#2875,#2924,#2973,#3022,#3071,#3120,#3169,#3238,#3327,#3476));
#2580=STYLED_ITEM('',(#61),#2581);
#2581=ADVANCED_FACE('',(#2587),#2582,.T.);
#2582=PLANE('',#2583);
#2583=AXIS2_PLACEMENT_3D('',#2584,#2585,#2586);
#2584=CARTESIAN_POINT('',(-2.256,2.134,-0.051));
#2585=DIRECTION('',(0.0,-1.0,0.0));
#2586=DIRECTION('',(0.,0.,1.));
#2587=FACE_OUTER_BOUND('',#2588,.T.);
#2588=EDGE_LOOP('',(#2589,#2599,#2609,#2619));
#2592=CARTESIAN_POINT('',(2.256,2.134,-0.051));
#2591=VERTEX_POINT('',#2592);
#2594=CARTESIAN_POINT('',(-2.256,2.134,-0.051));
#2593=VERTEX_POINT('',#2594);
#2590=EDGE_CURVE('',#2591,#2593,#2595,.T.);
#2595=LINE('',#2592,#2597);
#2597=VECTOR('',#2598,4.51231);
#2598=DIRECTION('',(-1.0,0.0,0.0));
#2589=ORIENTED_EDGE('',*,*,#2590,.F.);
#2602=CARTESIAN_POINT('',(2.256,2.134,0.0));
#2601=VERTEX_POINT('',#2602);
#2600=EDGE_CURVE('',#2601,#2591,#2605,.T.);
#2605=LINE('',#2602,#2607);
#2607=VECTOR('',#2608,0.0508);
#2608=DIRECTION('',(0.0,0.0,-1.0));
#2599=ORIENTED_EDGE('',*,*,#2600,.F.);
#2612=CARTESIAN_POINT('',(-2.256,2.134,0.0));
#2611=VERTEX_POINT('',#2612);
#2610=EDGE_CURVE('',#2611,#2601,#2615,.T.);
#2615=LINE('',#2612,#2617);
#2617=VECTOR('',#2618,4.51231);
#2618=DIRECTION('',(1.0,0.0,0.0));
#2609=ORIENTED_EDGE('',*,*,#2610,.F.);
#2620=EDGE_CURVE('',#2593,#2611,#2625,.T.);
#2625=LINE('',#2594,#2627);
#2627=VECTOR('',#2628,0.0508);
#2628=DIRECTION('',(0.0,0.0,1.0));
#2619=ORIENTED_EDGE('',*,*,#2620,.F.);
#2629=STYLED_ITEM('',(#61),#2630);
#2630=ADVANCED_FACE('',(#2636),#2631,.T.);
#2631=PLANE('',#2632);
#2632=AXIS2_PLACEMENT_3D('',#2633,#2634,#2635);
#2633=CARTESIAN_POINT('',(2.256,2.134,-0.051));
#2634=DIRECTION('',(1.0,0.0,0.0));
#2635=DIRECTION('',(0.,0.,1.));
#2636=FACE_OUTER_BOUND('',#2637,.T.);
#2637=EDGE_LOOP('',(#2638,#2648,#2658,#2668));
#2641=CARTESIAN_POINT('',(2.256,2.809,-0.051));
#2640=VERTEX_POINT('',#2641);
#2639=EDGE_CURVE('',#2640,#2591,#2644,.T.);
#2644=LINE('',#2641,#2646);
#2646=VECTOR('',#2647,0.67564);
#2647=DIRECTION('',(0.0,-1.0,0.0));
#2638=ORIENTED_EDGE('',*,*,#2639,.F.);
#2651=CARTESIAN_POINT('',(2.256,2.809,0.0));
#2650=VERTEX_POINT('',#2651);
#2649=EDGE_CURVE('',#2650,#2640,#2654,.T.);
#2654=LINE('',#2651,#2656);
#2656=VECTOR('',#2657,0.0508);
#2657=DIRECTION('',(0.0,0.0,-1.0));
#2648=ORIENTED_EDGE('',*,*,#2649,.F.);
#2659=EDGE_CURVE('',#2601,#2650,#2664,.T.);
#2664=LINE('',#2602,#2666);
#2666=VECTOR('',#2667,0.67564);
#2667=DIRECTION('',(0.0,1.0,0.0));
#2658=ORIENTED_EDGE('',*,*,#2659,.F.);
#2668=ORIENTED_EDGE('',*,*,#2600,.T.);
#2678=STYLED_ITEM('',(#61),#2679);
#2679=ADVANCED_FACE('',(#2685),#2680,.T.);
#2680=PLANE('',#2681);
#2681=AXIS2_PLACEMENT_3D('',#2682,#2683,#2684);
#2682=CARTESIAN_POINT('',(2.256,2.809,-0.051));
#2683=DIRECTION('',(0.0,1.0,0.0));
#2684=DIRECTION('',(0.,0.,1.));
#2685=FACE_OUTER_BOUND('',#2686,.T.);
#2686=EDGE_LOOP('',(#2687,#2697,#2707,#2717));
#2690=CARTESIAN_POINT('',(1.991,2.809,-0.051));
#2689=VERTEX_POINT('',#2690);
#2688=EDGE_CURVE('',#2689,#2640,#2693,.T.);
#2693=LINE('',#2690,#2695);
#2695=VECTOR('',#2696,0.26543);
#2696=DIRECTION('',(1.0,0.0,0.0));
#2687=ORIENTED_EDGE('',*,*,#2688,.F.);
#2700=CARTESIAN_POINT('',(1.991,2.809,0.0));
#2699=VERTEX_POINT('',#2700);
#2698=EDGE_CURVE('',#2699,#2689,#2703,.T.);
#2703=LINE('',#2700,#2705);
#2705=VECTOR('',#2706,0.0508);
#2706=DIRECTION('',(0.0,0.0,-1.0));
#2697=ORIENTED_EDGE('',*,*,#2698,.F.);
#2708=EDGE_CURVE('',#2650,#2699,#2713,.T.);
#2713=LINE('',#2651,#2715);
#2715=VECTOR('',#2716,0.26543);
#2716=DIRECTION('',(-1.0,0.0,0.0));
#2707=ORIENTED_EDGE('',*,*,#2708,.F.);
#2717=ORIENTED_EDGE('',*,*,#2649,.T.);
#2727=STYLED_ITEM('',(#61),#2728);
#2728=ADVANCED_FACE('',(#2734),#2729,.T.);
#2729=PLANE('',#2730);
#2730=AXIS2_PLACEMENT_3D('',#2731,#2732,#2733);
#2731=CARTESIAN_POINT('',(1.991,2.809,-0.051));
#2732=DIRECTION('',(1.0,0.0,0.0));
#2733=DIRECTION('',(0.,0.,1.));
#2734=FACE_OUTER_BOUND('',#2735,.T.);
#2735=EDGE_LOOP('',(#2736,#2746,#2756,#2766));
#2739=CARTESIAN_POINT('',(1.991,2.845,-0.051));
#2738=VERTEX_POINT('',#2739);
#2737=EDGE_CURVE('',#2738,#2689,#2742,.T.);
#2742=LINE('',#2739,#2744);
#2744=VECTOR('',#2745,0.0355600000000001);
#2745=DIRECTION('',(0.0,-1.0,0.0));
#2736=ORIENTED_EDGE('',*,*,#2737,.F.);
#2749=CARTESIAN_POINT('',(1.991,2.845,0.0));
#2748=VERTEX_POINT('',#2749);
#2747=EDGE_CURVE('',#2748,#2738,#2752,.T.);
#2752=LINE('',#2749,#2754);
#2754=VECTOR('',#2755,0.0508);
#2755=DIRECTION('',(0.0,0.0,-1.0));
#2746=ORIENTED_EDGE('',*,*,#2747,.F.);
#2757=EDGE_CURVE('',#2699,#2748,#2762,.T.);
#2762=LINE('',#2700,#2764);
#2764=VECTOR('',#2765,0.0355600000000001);
#2765=DIRECTION('',(0.0,1.0,0.0));
#2756=ORIENTED_EDGE('',*,*,#2757,.F.);
#2766=ORIENTED_EDGE('',*,*,#2698,.T.);
#2776=STYLED_ITEM('',(#61),#2777);
#2777=ADVANCED_FACE('',(#2783),#2778,.T.);
#2778=PLANE('',#2779);
#2779=AXIS2_PLACEMENT_3D('',#2780,#2781,#2782);
#2780=CARTESIAN_POINT('',(2.654,2.845,-0.051));
#2781=DIRECTION('',(1.0,0.0,0.0));
#2782=DIRECTION('',(0.,0.,1.));
#2783=FACE_OUTER_BOUND('',#2784,.T.);
#2784=EDGE_LOOP('',(#2785,#2795,#2805,#2815));
#2788=CARTESIAN_POINT('',(2.654,3.34,-0.051));
#2787=VERTEX_POINT('',#2788);
#2790=CARTESIAN_POINT('',(2.654,2.845,-0.051));
#2789=VERTEX_POINT('',#2790);
#2786=EDGE_CURVE('',#2787,#2789,#2791,.T.);
#2791=LINE('',#2788,#2793);
#2793=VECTOR('',#2794,0.4953);
#2794=DIRECTION('',(0.0,-1.0,0.0));
#2785=ORIENTED_EDGE('',*,*,#2786,.F.);
#2798=CARTESIAN_POINT('',(2.654,3.34,0.203));
#2797=VERTEX_POINT('',#2798);
#2796=EDGE_CURVE('',#2797,#2787,#2801,.T.);
#2801=LINE('',#2798,#2803);
#2803=VECTOR('',#2804,0.254);
#2804=DIRECTION('',(0.0,0.0,-1.0));
#2795=ORIENTED_EDGE('',*,*,#2796,.F.);
#2808=CARTESIAN_POINT('',(2.654,2.845,0.203));
#2807=VERTEX_POINT('',#2808);
#2806=EDGE_CURVE('',#2807,#2797,#2811,.T.);
#2811=LINE('',#2808,#2813);
#2813=VECTOR('',#2814,0.4953);
#2814=DIRECTION('',(0.0,1.0,0.0));
#2805=ORIENTED_EDGE('',*,*,#2806,.F.);
#2816=EDGE_CURVE('',#2789,#2807,#2821,.T.);
#2821=LINE('',#2790,#2823);
#2823=VECTOR('',#2824,0.254);
#2824=DIRECTION('',(0.0,0.0,1.0));
#2815=ORIENTED_EDGE('',*,*,#2816,.F.);
#2825=STYLED_ITEM('',(#61),#2826);
#2826=ADVANCED_FACE('',(#2832),#2827,.T.);
#2827=PLANE('',#2828);
#2828=AXIS2_PLACEMENT_3D('',#2829,#2830,#2831);
#2829=CARTESIAN_POINT('',(2.654,3.34,-0.051));
#2830=DIRECTION('',(0.598,0.801,0.0));
#2831=DIRECTION('',(0.,0.,1.));
#2832=FACE_OUTER_BOUND('',#2833,.T.);
#2833=EDGE_LOOP('',(#2834,#2844,#2854,#2864));
#2837=CARTESIAN_POINT('',(1.991,3.835,-0.051));
#2836=VERTEX_POINT('',#2837);
#2835=EDGE_CURVE('',#2836,#2787,#2840,.T.);
#2840=LINE('',#2837,#2842);
#2842=VECTOR('',#2843,0.828042191331456);
#2843=DIRECTION('',(0.801,-0.598,0.0));
#2834=ORIENTED_EDGE('',*,*,#2835,.F.);
#2847=CARTESIAN_POINT('',(1.991,3.835,0.203));
#2846=VERTEX_POINT('',#2847);
#2845=EDGE_CURVE('',#2846,#2836,#2850,.T.);
#2850=LINE('',#2847,#2852);
#2852=VECTOR('',#2853,0.254);
#2853=DIRECTION('',(0.0,0.0,-1.0));
#2844=ORIENTED_EDGE('',*,*,#2845,.F.);
#2855=EDGE_CURVE('',#2797,#2846,#2860,.T.);
#2860=LINE('',#2798,#2862);
#2862=VECTOR('',#2863,0.828042191331456);
#2863=DIRECTION('',(-0.801,0.598,0.0));
#2854=ORIENTED_EDGE('',*,*,#2855,.F.);
#2864=ORIENTED_EDGE('',*,*,#2796,.T.);
#2874=STYLED_ITEM('',(#61),#2875);
#2875=ADVANCED_FACE('',(#2881),#2876,.T.);
#2876=PLANE('',#2877);
#2877=AXIS2_PLACEMENT_3D('',#2878,#2879,#2880);
#2878=CARTESIAN_POINT('',(1.991,3.835,-0.051));
#2879=DIRECTION('',(0.0,1.0,0.0));
#2880=DIRECTION('',(0.,0.,1.));
#2881=FACE_OUTER_BOUND('',#2882,.T.);
#2882=EDGE_LOOP('',(#2883,#2893,#2903,#2913));
#2886=CARTESIAN_POINT('',(-1.991,3.835,-0.051));
#2885=VERTEX_POINT('',#2886);
#2884=EDGE_CURVE('',#2885,#2836,#2889,.T.);
#2889=LINE('',#2886,#2891);
#2891=VECTOR('',#2892,3.98145);
#2892=DIRECTION('',(1.0,0.0,0.0));
#2883=ORIENTED_EDGE('',*,*,#2884,.F.);
#2896=CARTESIAN_POINT('',(-1.991,3.835,0.203));
#2895=VERTEX_POINT('',#2896);
#2894=EDGE_CURVE('',#2895,#2885,#2899,.T.);
#2899=LINE('',#2896,#2901);
#2901=VECTOR('',#2902,0.254);
#2902=DIRECTION('',(0.0,0.0,-1.0));
#2893=ORIENTED_EDGE('',*,*,#2894,.F.);
#2904=EDGE_CURVE('',#2846,#2895,#2909,.T.);
#2909=LINE('',#2847,#2911);
#2911=VECTOR('',#2912,3.98145);
#2912=DIRECTION('',(-1.0,0.0,0.0));
#2903=ORIENTED_EDGE('',*,*,#2904,.F.);
#2913=ORIENTED_EDGE('',*,*,#2845,.T.);
#2923=STYLED_ITEM('',(#61),#2924);
#2924=ADVANCED_FACE('',(#2930),#2925,.T.);
#2925=PLANE('',#2926);
#2926=AXIS2_PLACEMENT_3D('',#2927,#2928,#2929);
#2927=CARTESIAN_POINT('',(-1.991,3.835,-0.051));
#2928=DIRECTION('',(-0.598,0.801,0.0));
#2929=DIRECTION('',(0.,0.,1.));
#2930=FACE_OUTER_BOUND('',#2931,.T.);
#2931=EDGE_LOOP('',(#2932,#2942,#2952,#2962));
#2935=CARTESIAN_POINT('',(-2.654,3.34,-0.051));
#2934=VERTEX_POINT('',#2935);
#2933=EDGE_CURVE('',#2934,#2885,#2938,.T.);
#2938=LINE('',#2935,#2940);
#2940=VECTOR('',#2941,0.828042191331456);
#2941=DIRECTION('',(0.801,0.598,0.0));
#2932=ORIENTED_EDGE('',*,*,#2933,.F.);
#2945=CARTESIAN_POINT('',(-2.654,3.34,0.203));
#2944=VERTEX_POINT('',#2945);
#2943=EDGE_CURVE('',#2944,#2934,#2948,.T.);
#2948=LINE('',#2945,#2950);
#2950=VECTOR('',#2951,0.254);
#2951=DIRECTION('',(0.0,0.0,-1.0));
#2942=ORIENTED_EDGE('',*,*,#2943,.F.);
#2953=EDGE_CURVE('',#2895,#2944,#2958,.T.);
#2958=LINE('',#2896,#2960);
#2960=VECTOR('',#2961,0.828042191331456);
#2961=DIRECTION('',(-0.801,-0.598,0.0));
#2952=ORIENTED_EDGE('',*,*,#2953,.F.);
#2962=ORIENTED_EDGE('',*,*,#2894,.T.);
#2972=STYLED_ITEM('',(#61),#2973);
#2973=ADVANCED_FACE('',(#2979),#2974,.T.);
#2974=PLANE('',#2975);
#2975=AXIS2_PLACEMENT_3D('',#2976,#2977,#2978);
#2976=CARTESIAN_POINT('',(-2.654,3.34,-0.051));
#2977=DIRECTION('',(-1.0,0.0,0.0));
#2978=DIRECTION('',(0.,0.,1.));
#2979=FACE_OUTER_BOUND('',#2980,.T.);
#2980=EDGE_LOOP('',(#2981,#2991,#3001,#3011));
#2984=CARTESIAN_POINT('',(-2.654,2.845,-0.051));
#2983=VERTEX_POINT('',#2984);
#2982=EDGE_CURVE('',#2983,#2934,#2987,.T.);
#2987=LINE('',#2984,#2989);
#2989=VECTOR('',#2990,0.4953);
#2990=DIRECTION('',(0.0,1.0,0.0));
#2981=ORIENTED_EDGE('',*,*,#2982,.F.);
#2994=CARTESIAN_POINT('',(-2.654,2.845,0.203));
#2993=VERTEX_POINT('',#2994);
#2992=EDGE_CURVE('',#2993,#2983,#2997,.T.);
#2997=LINE('',#2994,#2999);
#2999=VECTOR('',#3000,0.254);
#3000=DIRECTION('',(0.0,0.0,-1.0));
#2991=ORIENTED_EDGE('',*,*,#2992,.F.);
#3002=EDGE_CURVE('',#2944,#2993,#3007,.T.);
#3007=LINE('',#2945,#3009);
#3009=VECTOR('',#3010,0.4953);
#3010=DIRECTION('',(0.0,-1.0,0.0));
#3001=ORIENTED_EDGE('',*,*,#3002,.F.);
#3011=ORIENTED_EDGE('',*,*,#2943,.T.);
#3021=STYLED_ITEM('',(#61),#3022);
#3022=ADVANCED_FACE('',(#3028),#3023,.T.);
#3023=PLANE('',#3024);
#3024=AXIS2_PLACEMENT_3D('',#3025,#3026,#3027);
#3025=CARTESIAN_POINT('',(-1.991,2.845,-0.051));
#3026=DIRECTION('',(-1.0,0.0,0.0));
#3027=DIRECTION('',(0.,0.,1.));
#3028=FACE_OUTER_BOUND('',#3029,.T.);
#3029=EDGE_LOOP('',(#3030,#3040,#3050,#3060));
#3033=CARTESIAN_POINT('',(-1.991,2.809,-0.051));
#3032=VERTEX_POINT('',#3033);
#3035=CARTESIAN_POINT('',(-1.991,2.845,-0.051));
#3034=VERTEX_POINT('',#3035);
#3031=EDGE_CURVE('',#3032,#3034,#3036,.T.);
#3036=LINE('',#3033,#3038);
#3038=VECTOR('',#3039,0.0355600000000001);
#3039=DIRECTION('',(0.0,1.0,0.0));
#3030=ORIENTED_EDGE('',*,*,#3031,.F.);
#3043=CARTESIAN_POINT('',(-1.991,2.809,0.0));
#3042=VERTEX_POINT('',#3043);
#3041=EDGE_CURVE('',#3042,#3032,#3046,.T.);
#3046=LINE('',#3043,#3048);
#3048=VECTOR('',#3049,0.0508);
#3049=DIRECTION('',(0.0,0.0,-1.0));
#3040=ORIENTED_EDGE('',*,*,#3041,.F.);
#3053=CARTESIAN_POINT('',(-1.991,2.845,0.0));
#3052=VERTEX_POINT('',#3053);
#3051=EDGE_CURVE('',#3052,#3042,#3056,.T.);
#3056=LINE('',#3053,#3058);
#3058=VECTOR('',#3059,0.0355600000000001);
#3059=DIRECTION('',(0.0,-1.0,0.0));
#3050=ORIENTED_EDGE('',*,*,#3051,.F.);
#3061=EDGE_CURVE('',#3034,#3052,#3066,.T.);
#3066=LINE('',#3035,#3068);
#3068=VECTOR('',#3069,0.0508);
#3069=DIRECTION('',(0.0,0.0,1.0));
#3060=ORIENTED_EDGE('',*,*,#3061,.F.);
#3070=STYLED_ITEM('',(#61),#3071);
#3071=ADVANCED_FACE('',(#3077),#3072,.T.);
#3072=PLANE('',#3073);
#3073=AXIS2_PLACEMENT_3D('',#3074,#3075,#3076);
#3074=CARTESIAN_POINT('',(-1.991,2.809,-0.051));
#3075=DIRECTION('',(0.0,1.0,0.0));
#3076=DIRECTION('',(0.,0.,1.));
#3077=FACE_OUTER_BOUND('',#3078,.T.);
#3078=EDGE_LOOP('',(#3079,#3089,#3099,#3109));
#3082=CARTESIAN_POINT('',(-2.256,2.809,-0.051));
#3081=VERTEX_POINT('',#3082);
#3080=EDGE_CURVE('',#3081,#3032,#3085,.T.);
#3085=LINE('',#3082,#3087);
#3087=VECTOR('',#3088,0.26543);
#3088=DIRECTION('',(1.0,0.0,0.0));
#3079=ORIENTED_EDGE('',*,*,#3080,.F.);
#3092=CARTESIAN_POINT('',(-2.256,2.809,0.0));
#3091=VERTEX_POINT('',#3092);
#3090=EDGE_CURVE('',#3091,#3081,#3095,.T.);
#3095=LINE('',#3092,#3097);
#3097=VECTOR('',#3098,0.0508);
#3098=DIRECTION('',(0.0,0.0,-1.0));
#3089=ORIENTED_EDGE('',*,*,#3090,.F.);
#3100=EDGE_CURVE('',#3042,#3091,#3105,.T.);
#3105=LINE('',#3043,#3107);
#3107=VECTOR('',#3108,0.26543);
#3108=DIRECTION('',(-1.0,0.0,0.0));
#3099=ORIENTED_EDGE('',*,*,#3100,.F.);
#3109=ORIENTED_EDGE('',*,*,#3041,.T.);
#3119=STYLED_ITEM('',(#61),#3120);
#3120=ADVANCED_FACE('',(#3126),#3121,.T.);
#3121=PLANE('',#3122);
#3122=AXIS2_PLACEMENT_3D('',#3123,#3124,#3125);
#3123=CARTESIAN_POINT('',(-2.256,2.809,-0.051));
#3124=DIRECTION('',(-1.0,0.0,0.0));
#3125=DIRECTION('',(0.,0.,1.));
#3126=FACE_OUTER_BOUND('',#3127,.T.);
#3127=EDGE_LOOP('',(#3128,#3138,#3148,#3158));
#3129=EDGE_CURVE('',#2593,#3081,#3134,.T.);
#3134=LINE('',#2594,#3136);
#3136=VECTOR('',#3137,0.67564);
#3137=DIRECTION('',(0.0,1.0,0.0));
#3128=ORIENTED_EDGE('',*,*,#3129,.F.);
#3138=ORIENTED_EDGE('',*,*,#2620,.T.);
#3149=EDGE_CURVE('',#3091,#2611,#3154,.T.);
#3154=LINE('',#3092,#3156);
#3156=VECTOR('',#3157,0.67564);
#3157=DIRECTION('',(0.0,-1.0,0.0));
#3148=ORIENTED_EDGE('',*,*,#3149,.F.);
#3158=ORIENTED_EDGE('',*,*,#3090,.T.);
#3168=STYLED_ITEM('',(#61),#3169);
#3169=ADVANCED_FACE('',(#3175),#3170,.T.);
#3170=PLANE('',#3171);
#3171=AXIS2_PLACEMENT_3D('',#3172,#3173,#3174);
#3172=CARTESIAN_POINT('',(-2.654,3.34,0.203));
#3173=DIRECTION('',(0.0,0.0,1.0));
#3174=DIRECTION('',(0.,1.,0.));
#3175=FACE_OUTER_BOUND('',#3176,.T.);
#3176=EDGE_LOOP('',(#3177,#3187,#3197,#3207,#3217,#3227));
#3177=ORIENTED_EDGE('',*,*,#3002,.T.);
#3188=EDGE_CURVE('',#2807,#2993,#3193,.T.);
#3193=LINE('',#2808,#3195);
#3195=VECTOR('',#3196,5.3086);
#3196=DIRECTION('',(-1.0,0.0,0.0));
#3187=ORIENTED_EDGE('',*,*,#3188,.F.);
#3197=ORIENTED_EDGE('',*,*,#2806,.T.);
#3207=ORIENTED_EDGE('',*,*,#2855,.T.);
#3217=ORIENTED_EDGE('',*,*,#2904,.T.);
#3227=ORIENTED_EDGE('',*,*,#2953,.T.);
#3237=STYLED_ITEM('',(#61),#3238);
#3238=ADVANCED_FACE('',(#3244),#3239,.T.);
#3239=PLANE('',#3240);
#3240=AXIS2_PLACEMENT_3D('',#3241,#3242,#3243);
#3241=CARTESIAN_POINT('',(-2.256,2.809,0.0));
#3242=DIRECTION('',(0.0,0.0,1.0));
#3243=DIRECTION('',(0.,1.,0.));
#3244=FACE_OUTER_BOUND('',#3245,.T.);
#3245=EDGE_LOOP('',(#3246,#3256,#3266,#3276,#3286,#3296,#3306,#3316));
#3246=ORIENTED_EDGE('',*,*,#3149,.T.);
#3256=ORIENTED_EDGE('',*,*,#2610,.T.);
#3266=ORIENTED_EDGE('',*,*,#2659,.T.);
#3276=ORIENTED_EDGE('',*,*,#2708,.T.);
#3286=ORIENTED_EDGE('',*,*,#2757,.T.);
#3297=EDGE_CURVE('',#3052,#2748,#3302,.T.);
#3302=LINE('',#3053,#3304);
#3304=VECTOR('',#3305,3.98145);
#3305=DIRECTION('',(1.0,0.0,0.0));
#3296=ORIENTED_EDGE('',*,*,#3297,.F.);
#3306=ORIENTED_EDGE('',*,*,#3051,.T.);
#3316=ORIENTED_EDGE('',*,*,#3100,.T.);
#3326=STYLED_ITEM('',(#61),#3327);
#3327=ADVANCED_FACE('',(#3333),#3328,.T.);
#3328=PLANE('',#3329);
#3329=AXIS2_PLACEMENT_3D('',#3330,#3331,#3332);
#3330=CARTESIAN_POINT('',(2.256,2.134,-0.051));
#3331=DIRECTION('',(0.0,0.0,-1.0));
#3332=DIRECTION('',(0.,1.,0.));
#3333=FACE_OUTER_BOUND('',#3334,.T.);
#3334=EDGE_LOOP('',(#3335,#3345,#3355,#3365,#3375,#3385,#3395,#3405,#3415,#3425,#3435,#3445,#3455,#3465));
#3335=ORIENTED_EDGE('',*,*,#2590,.T.);
#3345=ORIENTED_EDGE('',*,*,#3129,.T.);
#3355=ORIENTED_EDGE('',*,*,#3080,.T.);
#3365=ORIENTED_EDGE('',*,*,#3031,.T.);
#3376=EDGE_CURVE('',#2983,#3034,#3381,.T.);
#3381=LINE('',#2984,#3383);
#3383=VECTOR('',#3384,0.663575);
#3384=DIRECTION('',(1.0,0.0,0.0));
#3375=ORIENTED_EDGE('',*,*,#3376,.F.);
#3385=ORIENTED_EDGE('',*,*,#2982,.T.);
#3395=ORIENTED_EDGE('',*,*,#2933,.T.);
#3405=ORIENTED_EDGE('',*,*,#2884,.T.);
#3415=ORIENTED_EDGE('',*,*,#2835,.T.);
#3425=ORIENTED_EDGE('',*,*,#2786,.T.);
#3436=EDGE_CURVE('',#2738,#2789,#3441,.T.);
#3441=LINE('',#2739,#3443);
#3443=VECTOR('',#3444,0.663575);
#3444=DIRECTION('',(1.0,0.0,0.0));
#3435=ORIENTED_EDGE('',*,*,#3436,.F.);
#3445=ORIENTED_EDGE('',*,*,#2737,.T.);
#3455=ORIENTED_EDGE('',*,*,#2688,.T.);
#3465=ORIENTED_EDGE('',*,*,#2639,.T.);
#3475=STYLED_ITEM('',(#61),#3476);
#3476=ADVANCED_FACE('',(#3482),#3477,.T.);
#3477=PLANE('',#3478);
#3478=AXIS2_PLACEMENT_3D('',#3479,#3480,#3481);
#3479=CARTESIAN_POINT('',(-2.654,2.845,-0.051));
#3480=DIRECTION('',(0.0,-1.0,0.0));
#3481=DIRECTION('',(0.,0.,1.));
#3482=FACE_OUTER_BOUND('',#3483,.T.);
#3483=EDGE_LOOP('',(#3484,#3494,#3504,#3514,#3524,#3534,#3544,#3554));
#3484=ORIENTED_EDGE('',*,*,#3376,.T.);
#3494=ORIENTED_EDGE('',*,*,#3061,.T.);
#3504=ORIENTED_EDGE('',*,*,#3297,.T.);
#3514=ORIENTED_EDGE('',*,*,#2747,.T.);
#3524=ORIENTED_EDGE('',*,*,#3436,.T.);
#3534=ORIENTED_EDGE('',*,*,#2816,.T.);
#3544=ORIENTED_EDGE('',*,*,#3188,.T.);
#3554=ORIENTED_EDGE('',*,*,#2992,.T.);
ENDSEC;
END-ISO-10303-21;
