ISO-10303-21;
HEADER;
FILE_DESCRIPTION (( 'STEP AP214' ),
    '1' );
FILE_NAME ('GCG31CR71E395JA01L.STEP',
    '2020-07-27T14:47:11',
    ( '' ),
    ( '' ),
    'SwSTEP 2.0',
    'SolidWorks 2018',
    '' );
FILE_SCHEMA (( 'AUTOMOTIVE_DESIGN' ));
ENDSEC;

DATA;
#1 = CARTESIAN_POINT ( 'NONE',  ( -0.9499999999999996225, 1.899999999999999911, 0.7199999999999997513 ) ) ;
#2 = FILL_AREA_STYLE_COLOUR ( '', #1199 ) ;
#3 = EDGE_CURVE ( 'NONE', #11, #686, #460, .T. ) ;
#4 = FACE_OUTER_BOUND ( 'NONE', #105, .T. ) ;
#5 = CARTESIAN_POINT ( 'NONE',  ( -1.599999999999999867, 0.07999999999999998779, -0.7999999999999999334 ) ) ;
#6 = CIRCLE ( 'NONE', #441, 0.07999999999999998779 ) ;
#7 = AXIS2_PLACEMENT_3D ( 'NONE', #688, #180, #780 ) ;
#8 = ORIENTED_EDGE ( 'NONE', *, *, #760, .F. ) ;
#9 =( NAMED_UNIT ( * ) SI_UNIT ( $, .STERADIAN. ) SOLID_ANGLE_UNIT ( ) );
#10 = ORIENTED_EDGE ( 'NONE', *, *, #626, .T. ) ;
#11 = VERTEX_POINT ( 'NONE', #355 ) ;
#12 = EDGE_LOOP ( 'NONE', ( #29, #1271, #148, #1163 ) ) ;
#13 = CLOSED_SHELL ( 'NONE', ( #54, #647, #95, #1210, #405, #1061, #828, #479, #972, #300 ) ) ;
#14 = DIRECTION ( 'NONE',  ( 0.0000000000000000000, 0.0000000000000000000, -1.000000000000000000 ) ) ;
#15 = MANIFOLD_SOLID_BREP ( 'Fillet1', #259 ) ;
#16 = DIRECTION ( 'NONE',  ( 0.0000000000000000000, 0.0000000000000000000, 1.000000000000000000 ) ) ;
#17 = DIRECTION ( 'NONE',  ( 1.000000000000000000, 0.0000000000000000000, 1.355252715606881036E-16 ) ) ;
#18 = CIRCLE ( 'NONE', #217, 0.05333333333333329512 ) ;
#19 = VECTOR ( 'NONE', #376, 1000.000000000000000 ) ;
#20 = AXIS2_PLACEMENT_3D ( 'NONE', #98, #1088, #1084 ) ;
#21 = DIRECTION ( 'NONE',  ( 0.0000000000000000000, 0.0000000000000000000, -1.000000000000000000 ) ) ;
#22 = LINE ( 'NONE', #596, #267 ) ;
#23 = ORIENTED_EDGE ( 'NONE', *, *, #317, .T. ) ;
#24 = DIRECTION ( 'NONE',  ( -1.000000000000000000, -0.0000000000000000000, -0.0000000000000000000 ) ) ;
#25 = ORIENTED_EDGE ( 'NONE', *, *, #492, .F. ) ;
#26 = EDGE_CURVE ( 'NONE', #1248, #116, #657, .T. ) ;
#27 = DIRECTION ( 'NONE',  ( -1.000000000000000000, -0.0000000000000000000, -0.0000000000000000000 ) ) ;
#28 = CARTESIAN_POINT ( 'NONE',  ( 500000.0000000000582, 1.820000000000000062, -0.7200000000433681713 ) ) ;
#29 = ORIENTED_EDGE ( 'NONE', *, *, #574, .F. ) ;
#30 = DIRECTION ( 'NONE',  ( 0.0000000000000000000, 1.000000000000000000, 0.0000000000000000000 ) ) ;
#31 = EDGE_CURVE ( 'NONE', #275, #394, #403, .T. ) ;
#32 = DIRECTION ( 'NONE',  ( 1.000000000000000000, -0.0000000000000000000, 0.0000000000000000000 ) ) ;
#33 = AXIS2_PLACEMENT_3D ( 'NONE', #1024, #349, #1218 ) ;
#34 = DIRECTION ( 'NONE',  ( -1.355252715606881036E-16, 0.0000000000000000000, 1.000000000000000000 ) ) ;
#35 = EDGE_CURVE ( 'NONE', #116, #838, #133, .T. ) ;
#36 = FACE_OUTER_BOUND ( 'NONE', #947, .T. ) ;
#37 = DIRECTION ( 'NONE',  ( -0.0000000000000000000, 0.0000000000000000000, -1.000000000000000000 ) ) ;
#38 = UNCERTAINTY_MEASURE_WITH_UNIT (LENGTH_MEASURE( 1.000000000000000082E-05 ), #854, 'distance_accuracy_value', 'NONE');
#39 = CIRCLE ( 'NONE', #279, 0.07999999999999998779 ) ;
#40 = DIRECTION ( 'NONE',  ( 1.000000000000000000, 0.0000000000000000000, 0.0000000000000000000 ) ) ;
#41 = ADVANCED_FACE ( 'NONE', ( #563 ), #1157, .T. ) ;
#42 = VECTOR ( 'NONE', #469, 1000.000000000000000 ) ;
#43 = AXIS2_PLACEMENT_3D ( 'NONE', #900, #714, #119 ) ;
#44 = DIRECTION ( 'NONE',  ( -1.000000000000000000, 0.0000000000000000000, 0.0000000000000000000 ) ) ;
#45 = ORIENTED_EDGE ( 'NONE', *, *, #160, .T. ) ;
#46 = VERTEX_POINT ( 'NONE', #282 ) ;
#47 = ORIENTED_EDGE ( 'NONE', *, *, #1064, .T. ) ;
#48 = EDGE_CURVE ( 'NONE', #248, #46, #244, .T. ) ;
#49 = EDGE_CURVE ( 'NONE', #71, #248, #855, .T. ) ;
#50 = VECTOR ( 'NONE', #668, 1000.000000000000000 ) ;
#51 = PRODUCT_DEFINITION_CONTEXT ( 'detailed design', #315, 'design' ) ;
#52 =( GEOMETRIC_REPRESENTATION_CONTEXT ( 3 ) GLOBAL_UNCERTAINTY_ASSIGNED_CONTEXT ( ( #1031 ) ) GLOBAL_UNIT_ASSIGNED_CONTEXT ( ( #413, #1097, #9 ) ) REPRESENTATION_CONTEXT ( 'NONE', 'WORKASPACE' ) );
#53 = CIRCLE ( 'NONE', #488, 0.07999999999999998779 ) ;
#54 = ADVANCED_FACE ( 'NONE', ( #548 ), #665, .T. ) ;
#55 = FACE_OUTER_BOUND ( 'NONE', #861, .T. ) ;
#56 = ORIENTED_EDGE ( 'NONE', *, *, #474, .F. ) ;
#57 = AXIS2_PLACEMENT_3D ( 'NONE', #292, #883, #577 ) ;
#58 = ORIENTED_EDGE ( 'NONE', *, *, #556, .F. ) ;
#59 = ORIENTED_EDGE ( 'NONE', *, *, #692, .T. ) ;
#60 = CARTESIAN_POINT ( 'NONE',  ( 1.599999999999999867, 1.899999999999999911, -0.7199999999999999734 ) ) ;
#61 = CARTESIAN_POINT ( 'NONE',  ( 1.519999999999999796, 1.820000000000000062, 0.7199999999999997513 ) ) ;
#62 = LINE ( 'NONE', #423, #472 ) ;
#63 = DIRECTION ( 'NONE',  ( 0.0000000000000000000, 1.000000000000000000, 0.0000000000000000000 ) ) ;
#64 = LINE ( 'NONE', #380, #476 ) ;
#65 = DIRECTION ( 'NONE',  ( 1.000000000000000000, 0.0000000000000000000, 1.355252715606881036E-16 ) ) ;
#66 = DIRECTION ( 'NONE',  ( 1.000000000000000000, 0.0000000000000000000, 1.355252715606881036E-16 ) ) ;
#67 = ORIENTED_EDGE ( 'NONE', *, *, #650, .F. ) ;
#68 = EDGE_CURVE ( 'NONE', #91, #71, #64, .T. ) ;
#69 = ADVANCED_FACE ( 'NONE', ( #224 ), #1068, .F. ) ;
#70 = CARTESIAN_POINT ( 'NONE',  ( 0.9499999999889041646, 1.873333333333333295, -0.7200000000000001954 ) ) ;
#71 = VERTEX_POINT ( 'NONE', #1169 ) ;
#72 = AXIS2_PLACEMENT_3D ( 'NONE', #280, #77, #770 ) ;
#73 = EDGE_LOOP ( 'NONE', ( #372, #478, #1235, #691 ) ) ;
#74 = CARTESIAN_POINT ( 'NONE',  ( 1.519999999999999574, 1.820000000000000062, 0.7199999999999997513 ) ) ;
#75 = DIRECTION ( 'NONE',  ( 1.000000000000000000, 0.0000000000000000000, -8.673617379884036705E-17 ) ) ;
#76 = DIRECTION ( 'NONE',  ( -1.000000000000000000, 0.0000000000000000000, 0.0000000000000000000 ) ) ;
#77 = DIRECTION ( 'NONE',  ( 1.000000000000000000, 0.0000000000000000000, -8.673617379884036705E-17 ) ) ;
#78 = DIRECTION ( 'NONE',  ( -1.355252715606881036E-16, 0.0000000000000000000, 1.000000000000000000 ) ) ;
#79 =( GEOMETRIC_REPRESENTATION_CONTEXT ( 3 ) GLOBAL_UNCERTAINTY_ASSIGNED_CONTEXT ( ( #1099 ) ) GLOBAL_UNIT_ASSIGNED_CONTEXT ( ( #1045, #559, #840 ) ) REPRESENTATION_CONTEXT ( 'NONE', 'WORKASPACE' ) );
#80 = FACE_OUTER_BOUND ( 'NONE', #1033, .T. ) ;
#81 = CARTESIAN_POINT ( 'NONE',  ( -0.9499999999999998446, 1.820000000000000062, -0.7999999999999999334 ) ) ;
#82 = LINE ( 'NONE', #425, #1200 ) ;
#83 = VECTOR ( 'NONE', #649, 1000.000000000000000 ) ;
#84 = DIRECTION ( 'NONE',  ( 8.673617379884036705E-17, -0.0000000000000000000, 1.000000000000000000 ) ) ;
#85 = SURFACE_STYLE_FILL_AREA ( #953 ) ;
#86 = DIRECTION ( 'NONE',  ( 0.0000000000000000000, 0.0000000000000000000, -1.000000000000000000 ) ) ;
#87 = VERTEX_POINT ( 'NONE', #177 ) ;
#88 = DIRECTION ( 'NONE',  ( 1.000000000000000000, 0.0000000000000000000, -1.355252715606881036E-16 ) ) ;
#89 = EDGE_LOOP ( 'NONE', ( #614, #122, #986, #231 ) ) ;
#90 = DIRECTION ( 'NONE',  ( 0.0000000000000000000, -1.000000000000000000, 0.0000000000000000000 ) ) ;
#91 = VERTEX_POINT ( 'NONE', #966 ) ;
#92 = DIRECTION ( 'NONE',  ( 1.000000000000000000, 0.0000000000000000000, 1.355252715606881036E-16 ) ) ;
#93 = CARTESIAN_POINT ( 'NONE',  ( 0.9499999999889041646, 1.873333333333333295, 0.7199999999999995293 ) ) ;
#94 = DIRECTION ( 'NONE',  ( 0.0000000000000000000, 0.0000000000000000000, -1.000000000000000000 ) ) ;
#95 = ADVANCED_FACE ( 'NONE', ( #194 ), #771, .F. ) ;
#96 = EDGE_CURVE ( 'NONE', #552, #528, #942, .T. ) ;
#97 = DIRECTION ( 'NONE',  ( -1.000000000000000000, -0.0000000000000000000, -0.0000000000000000000 ) ) ;
#98 = CARTESIAN_POINT ( 'NONE',  ( -1.519999999999999574, 0.07999999999999998779, 0.7199999999999997513 ) ) ;
#99 = LINE ( 'NONE', #899, #363 ) ;
#100 = ADVANCED_FACE ( 'NONE', ( #339 ), #1266, .F. ) ;
#101 = AXIS2_PLACEMENT_3D ( 'NONE', #383, #272, #957 ) ;
#102 = APPLICATION_CONTEXT ( 'automotive_design' ) ;
#103 = VECTOR ( 'NONE', #685, 1000.000000000000000 ) ;
#104 = CARTESIAN_POINT ( 'NONE',  ( 0.9499999999999996225, 1.820000000000000062, 0.7199999999999997513 ) ) ;
#105 = EDGE_LOOP ( 'NONE', ( #1208, #437, #890 ) ) ;
#106 = VERTEX_POINT ( 'NONE', #464 ) ;
#107 = EDGE_LOOP ( 'NONE', ( #358, #1036, #290, #182 ) ) ;
#108 = DIRECTION ( 'NONE',  ( -1.000000000000000000, -2.710505431213761479E-15, 0.0000000000000000000 ) ) ;
#109 = CARTESIAN_POINT ( 'NONE',  ( -1.519999999999999574, 0.08000000000000000167, 0.7199999999999997513 ) ) ;
#110 = AXIS2_PLACEMENT_3D ( 'NONE', #1130, #1138, #829 ) ;
#111 = FACE_OUTER_BOUND ( 'NONE', #89, .T. ) ;
#112 = EDGE_CURVE ( 'NONE', #673, #87, #523, .T. ) ;
#113 = CARTESIAN_POINT ( 'NONE',  ( -1.519999999999999796, 1.899999999999999911, -0.7199999999999999734 ) ) ;
#114 = CARTESIAN_POINT ( 'NONE',  ( 1.519999999999999796, 0.07999999999999998779, -0.7199999999999999734 ) ) ;
#115 = LINE ( 'NONE', #545, #83 ) ;
#116 = VERTEX_POINT ( 'NONE', #491 ) ;
#117 = ORIENTED_EDGE ( 'NONE', *, *, #801, .F. ) ;
#118 = EDGE_CURVE ( 'NONE', #838, #453, #1256, .T. ) ;
#119 = DIRECTION ( 'NONE',  ( -1.000000000000000000, 0.0000000000000000000, -0.0000000000000000000 ) ) ;
#120 = ORIENTED_EDGE ( 'NONE', *, *, #179, .F. ) ;
#121 = ORIENTED_EDGE ( 'NONE', *, *, #251, .T. ) ;
#122 = ORIENTED_EDGE ( 'NONE', *, *, #1117, .F. ) ;
#123 = DIRECTION ( 'NONE',  ( 0.0000000000000000000, 0.0000000000000000000, 1.000000000000000000 ) ) ;
#124 = AXIS2_PLACEMENT_3D ( 'NONE', #61, #549, #166 ) ;
#125 = CARTESIAN_POINT ( 'NONE',  ( 0.9499999999999996225, 0.08000000000000043188, 0.7999999999999997113 ) ) ;
#126 = DIRECTION ( 'NONE',  ( 1.000000000000000000, 0.0000000000000000000, 0.0000000000000000000 ) ) ;
#127 = CIRCLE ( 'NONE', #420, 0.07999999999999998779 ) ;
#128 = FACE_OUTER_BOUND ( 'NONE', #554, .T. ) ;
#129 = EDGE_CURVE ( 'NONE', #690, #1206, #810, .T. ) ;
#130 = DIRECTION ( 'NONE',  ( 0.0000000000000000000, -1.000000000000000000, -0.0000000000000000000 ) ) ;
#131 = CARTESIAN_POINT ( 'NONE',  ( -1.599999999999999645, 0.07999999999999998779, 0.7999999999999997113 ) ) ;
#132 = VECTOR ( 'NONE', #695, 1000.000000000000000 ) ;
#133 = LINE ( 'NONE', #1161, #1158 ) ;
#134 = DIRECTION ( 'NONE',  ( -1.505836350674312234E-16, 0.0000000000000000000, -1.000000000000000000 ) ) ;
#135 = DIRECTION ( 'NONE',  ( 1.000000000000000000, 0.0000000000000000000, 1.355252715606881036E-16 ) ) ;
#136 = ORIENTED_EDGE ( 'NONE', *, *, #387, .T. ) ;
#137 = CARTESIAN_POINT ( 'NONE',  ( 500000.0000000000582, 1.873333333333333295, -0.7200000000433681713 ) ) ;
#138 = EDGE_CURVE ( 'NONE', #895, #245, #593, .T. ) ;
#139 = CARTESIAN_POINT ( 'NONE',  ( -0.9499999999999998446, 1.899999999999999911, -0.7999999999999999334 ) ) ;
#140 = AXIS2_PLACEMENT_3D ( 'NONE', #933, #353, #153 ) ;
#141 = DIRECTION ( 'NONE',  ( 0.0000000000000000000, 0.0000000000000000000, -1.000000000000000000 ) ) ;
#142 = VECTOR ( 'NONE', #1025, 1000.000000000000000 ) ;
#143 = FACE_OUTER_BOUND ( 'NONE', #107, .T. ) ;
#144 = CLOSED_SHELL ( 'NONE', ( #979, #1237, #1272, #316, #41, #100, #1063, #753, #1095, #321, #482, #1278, #562, #697, #1011, #1147, #154, #1074 ) ) ;
#145 = AXIS2_PLACEMENT_3D ( 'NONE', #1260, #1173, #379 ) ;
#146 = DIRECTION ( 'NONE',  ( 0.0000000000000000000, 1.000000000000000000, 0.0000000000000000000 ) ) ;
#147 = VERTEX_POINT ( 'NONE', #977 ) ;
#148 = ORIENTED_EDGE ( 'NONE', *, *, #48, .T. ) ;
#149 = EDGE_LOOP ( 'NONE', ( #616, #329, #120, #291 ) ) ;
#150 = ORIENTED_EDGE ( 'NONE', *, *, #524, .F. ) ;
#151 = FILL_AREA_STYLE ('',( #1236 ) ) ;
#152 = AXIS2_PLACEMENT_3D ( 'NONE', #662, #364, #473 ) ;
#153 = DIRECTION ( 'NONE',  ( 1.355252715606881036E-16, 0.0000000000000000000, 1.000000000000000000 ) ) ;
#154 = ADVANCED_FACE ( 'NONE', ( #1098 ), #402, .T. ) ;
#155 = CARTESIAN_POINT ( 'NONE',  ( 0.9499999999889041646, 0.07999999999999998779, -0.7733333333333334281 ) ) ;
#156 = VECTOR ( 'NONE', #192, 1000.000000000000000 ) ;
#157 = MECHANICAL_DESIGN_GEOMETRIC_PRESENTATION_REPRESENTATION (  '', ( #913 ), #980 ) ;
#158 = CIRCLE ( 'NONE', #636, 0.07999999999999998779 ) ;
#159 = VECTOR ( 'NONE', #1179, 1000.000000000000000 ) ;
#160 = EDGE_CURVE ( 'NONE', #1067, #786, #738, .T. ) ;
#161 = DIRECTION ( 'NONE',  ( 0.0000000000000000000, -0.0000000000000000000, 1.000000000000000000 ) ) ;
#162 = AXIS2_PLACEMENT_3D ( 'NONE', #416, #202, #1277 ) ;
#163 =( NAMED_UNIT ( * ) SI_UNIT ( $, .STERADIAN. ) SOLID_ANGLE_UNIT ( ) );
#164 = EDGE_LOOP ( 'NONE', ( #1174, #181, #769, #214 ) ) ;
#165 = ORIENTED_EDGE ( 'NONE', *, *, #96, .F. ) ;
#166 = DIRECTION ( 'NONE',  ( -1.000000000000000000, 0.0000000000000000000, 0.0000000000000000000 ) ) ;
#167 = CARTESIAN_POINT ( 'NONE',  ( 1.599999999999999645, 1.899999999999999911, 0.7199999999999997513 ) ) ;
#168 = AXIS2_PLACEMENT_3D ( 'NONE', #675, #84, #773 ) ;
#169 = DIRECTION ( 'NONE',  ( 1.000000000000000000, -0.0000000000000000000, -0.0000000000000000000 ) ) ;
#170 = LINE ( 'NONE', #391, #1140 ) ;
#171 = DIRECTION ( 'NONE',  ( 1.000000000000000000, -0.0000000000000000000, -1.355252715606881036E-16 ) ) ;
#172 = CYLINDRICAL_SURFACE ( 'NONE', #808, 0.07999999999999998779 ) ;
#173 = LINE ( 'NONE', #155, #1016 ) ;
#174 = PLANE ( 'NONE',  #588 ) ;
#175 = CARTESIAN_POINT ( 'NONE',  ( 1.519999999999999796, 0.07999999999999998779, -0.7999999999999999334 ) ) ;
#176 = EDGE_LOOP ( 'NONE', ( #230, #1162, #344 ) ) ;
#177 = CARTESIAN_POINT ( 'NONE',  ( 0.9499999999999996225, 1.820000000000000062, 0.7999999999999997113 ) ) ;
#178 = ORIENTED_EDGE ( 'NONE', *, *, #891, .F. ) ;
#179 = EDGE_CURVE ( 'NONE', #1145, #247, #1219, .T. ) ;
#180 = DIRECTION ( 'NONE',  ( 0.0000000000000000000, 1.000000000000000000, 0.0000000000000000000 ) ) ;
#181 = ORIENTED_EDGE ( 'NONE', *, *, #204, .T. ) ;
#182 = ORIENTED_EDGE ( 'NONE', *, *, #865, .T. ) ;
#183 = DIRECTION ( 'NONE',  ( 1.000000000000000000, 0.0000000000000000000, 0.0000000000000000000 ) ) ;
#184 = DIRECTION ( 'NONE',  ( -1.000000000000000000, 2.710505431213761479E-15, -0.0000000000000000000 ) ) ;
#185 = EDGE_CURVE ( 'NONE', #245, #528, #507, .T. ) ;
#186 = EDGE_LOOP ( 'NONE', ( #136, #212, #345, #1120 ) ) ;
#187 = FILL_AREA_STYLE_COLOUR ( '', #209 ) ;
#188 = CARTESIAN_POINT ( 'NONE',  ( 1.519999999999999574, 0.07999999999999998779, 0.7199999999999997513 ) ) ;
#189 = STYLED_ITEM ( 'NONE', ( #852 ), #538 ) ;
#190 = CIRCLE ( 'NONE', #745, 0.07999999999999998779 ) ;
#191 = CIRCLE ( 'NONE', #302, 0.07999999999999998779 ) ;
#192 = DIRECTION ( 'NONE',  ( -1.355252715606881036E-16, 0.0000000000000000000, -1.000000000000000000 ) ) ;
#193 = CARTESIAN_POINT ( 'NONE',  ( 0.9499999999999998446, 0.07999999999999998779, -0.7199999999999999734 ) ) ;
#194 = FACE_OUTER_BOUND ( 'NONE', #164, .T. ) ;
#195 = ORIENTED_EDGE ( 'NONE', *, *, #26, .F. ) ;
#196 = DIRECTION ( 'NONE',  ( 2.710505431213761479E-15, 0.0000000000000000000, 1.000000000000000000 ) ) ;
#197 = VERTEX_POINT ( 'NONE', #1 ) ;
#198 = EDGE_CURVE ( 'NONE', #857, #91, #255, .T. ) ;
#199 = SURFACE_SIDE_STYLE ('',( #608 ) ) ;
#200 = ORIENTED_EDGE ( 'NONE', *, *, #760, .T. ) ;
#201 = ORIENTED_EDGE ( 'NONE', *, *, #179, .T. ) ;
#202 = DIRECTION ( 'NONE',  ( 0.0000000000000000000, -1.000000000000000000, 0.0000000000000000000 ) ) ;
#203 = DIRECTION ( 'NONE',  ( -1.355252715606881036E-16, 0.0000000000000000000, 1.000000000000000000 ) ) ;
#204 = EDGE_CURVE ( 'NONE', #725, #800, #22, .T. ) ;
#205 = CARTESIAN_POINT ( 'NONE',  ( 1.599999999999999645, 0.07999999999999998779, 0.7199999999999997513 ) ) ;
#206 = DIRECTION ( 'NONE',  ( 0.0000000000000000000, 1.000000000000000000, 0.0000000000000000000 ) ) ;
#207 = CYLINDRICAL_SURFACE ( 'NONE', #951, 0.07999999999999998779 ) ;
#208 = AXIS2_PLACEMENT_3D ( 'NONE', #1070, #161, #848 ) ;
#209 = COLOUR_RGB ( '',0.7921568627450980005, 0.8196078431372548767, 0.9333333333333333481 ) ;
#210 = SPHERICAL_SURFACE ( 'NONE', #567, 0.08000000000000000167 ) ;
#211 = ORIENTED_EDGE ( 'NONE', *, *, #601, .T. ) ;
#212 = ORIENTED_EDGE ( 'NONE', *, *, #881, .F. ) ;
#213 = ORIENTED_EDGE ( 'NONE', *, *, #774, .T. ) ;
#214 = ORIENTED_EDGE ( 'NONE', *, *, #1100, .F. ) ;
#215 = CARTESIAN_POINT ( 'NONE',  ( 0.0000000000000000000, 1.820000000000000062, -0.7199999999999999734 ) ) ;
#216 = DIRECTION ( 'NONE',  ( 0.0000000000000000000, 0.0000000000000000000, -1.000000000000000000 ) ) ;
#217 = AXIS2_PLACEMENT_3D ( 'NONE', #870, #1280, #1264 ) ;
#218 = DIRECTION ( 'NONE',  ( -1.000000000000000000, -0.0000000000000000000, 8.673617379884036705E-17 ) ) ;
#219 = AXIS2_PLACEMENT_3D ( 'NONE', #193, #897, #788 ) ;
#220 = VECTOR ( 'NONE', #134, 1000.000000000000000 ) ;
#221 = CARTESIAN_POINT ( 'NONE',  ( -1.519999999999999796, 0.0000000000000000000, -0.7199999999999999734 ) ) ;
#222 = LINE ( 'NONE', #361, #700 ) ;
#223 = DIRECTION ( 'NONE',  ( 0.0000000000000000000, -1.000000000000000000, 0.0000000000000000000 ) ) ;
#224 = FACE_OUTER_BOUND ( 'NONE', #967, .T. ) ;
#225 = ORIENTED_EDGE ( 'NONE', *, *, #1027, .T. ) ;
#226 = EDGE_CURVE ( 'NONE', #1002, #245, #684, .T. ) ;
#227 = CARTESIAN_POINT ( 'NONE',  ( -1.599999999999999645, 1.899999999999999911, 0.7199999999999997513 ) ) ;
#228 = CARTESIAN_POINT ( 'NONE',  ( 500000.0000000000582, 0.02666666666666666838, -0.7200000000433681713 ) ) ;
#229 = ORIENTED_EDGE ( 'NONE', *, *, #138, .F. ) ;
#230 = ORIENTED_EDGE ( 'NONE', *, *, #502, .T. ) ;
#231 = ORIENTED_EDGE ( 'NONE', *, *, #837, .F. ) ;
#232 = EDGE_CURVE ( 'NONE', #686, #1206, #285, .T. ) ;
#233 = DIRECTION ( 'NONE',  ( -1.000000000000000000, 0.0000000000000000000, 0.0000000000000000000 ) ) ;
#234 = CARTESIAN_POINT ( 'NONE',  ( -1.519999999999999574, 0.07999999999999998779, 0.7199999999999997513 ) ) ;
#235 = AXIS2_PLACEMENT_3D ( 'NONE', #343, #914, #440 ) ;
#236 = DIRECTION ( 'NONE',  ( 1.000000000000000000, 0.0000000000000000000, 0.0000000000000000000 ) ) ;
#237 = CARTESIAN_POINT ( 'NONE',  ( 500000.0000000000582, 1.873333333333333295, 0.7199999999566315534 ) ) ;
#238 = CARTESIAN_POINT ( 'NONE',  ( 1.599999999999999867, 1.899999999999999911, -0.7999999999999999334 ) ) ;
#239 = FACE_OUTER_BOUND ( 'NONE', #1035, .T. ) ;
#240 = SPHERICAL_SURFACE ( 'NONE', #7, 0.08000000000000000167 ) ;
#241 = AXIS2_PLACEMENT_3D ( 'NONE', #104, #579, #693 ) ;
#242 = PLANE ( 'NONE',  #682 ) ;
#243 = VECTOR ( 'NONE', #424, 1000.000000000000000 ) ;
#244 = CIRCLE ( 'NONE', #1044, 0.05333333333333329512 ) ;
#245 = VERTEX_POINT ( 'NONE', #1270 ) ;
#246 = CARTESIAN_POINT ( 'NONE',  ( -1.599999999999999645, 0.07999999999999998779, 0.7199999999999997513 ) ) ;
#247 = VERTEX_POINT ( 'NONE', #592 ) ;
#248 = VERTEX_POINT ( 'NONE', #603 ) ;
#249 = EDGE_CURVE ( 'NONE', #860, #247, #6, .T. ) ;
#250 = DIRECTION ( 'NONE',  ( 0.0000000000000000000, 0.0000000000000000000, -1.000000000000000000 ) ) ;
#251 = EDGE_CURVE ( 'NONE', #710, #525, #325, .T. ) ;
#252 = DIRECTION ( 'NONE',  ( 1.355252715606881036E-16, -0.0000000000000000000, -1.000000000000000000 ) ) ;
#253 = VECTOR ( 'NONE', #40, 1000.000000000000000 ) ;
#254 = VECTOR ( 'NONE', #669, 1000.000000000000000 ) ;
#255 = CIRCLE ( 'NONE', #1279, 0.05333333333333339921 ) ;
#256 = AXIS2_PLACEMENT_3D ( 'NONE', #137, #223, #338 ) ;
#257 = VERTEX_POINT ( 'NONE', #701 ) ;
#258 = ORIENTED_EDGE ( 'NONE', *, *, #365, .T. ) ;
#259 = CLOSED_SHELL ( 'NONE', ( #1216, #371, #615, #1261, #879, #69, #635, #814, #707, #991, #789, #1111, #648, #645, #1196, #818, #1212, #1115 ) ) ;
#260 = ORIENTED_EDGE ( 'NONE', *, *, #950, .T. ) ;
#261 = DIRECTION ( 'NONE',  ( 0.0000000000000000000, 0.0000000000000000000, 1.000000000000000000 ) ) ;
#262 = CARTESIAN_POINT ( 'NONE',  ( 0.0000000000000000000, 0.0000000000000000000, 0.7199999999999997513 ) ) ;
#263 = AXIS2_PLACEMENT_3D ( 'NONE', #819, #37, #1040 ) ;
#264 = DIRECTION ( 'NONE',  ( 0.0000000000000000000, 0.0000000000000000000, -1.000000000000000000 ) ) ;
#265 = VECTOR ( 'NONE', #1204, 1000.000000000000000 ) ;
#266 = VECTOR ( 'NONE', #945, 1000.000000000000000 ) ;
#267 = VECTOR ( 'NONE', #1094, 1000.000000000000000 ) ;
#268 = CARTESIAN_POINT ( 'NONE',  ( 500000.0000000000582, 0.08000000000000086209, 0.7733333332899647861 ) ) ;
#269 = EDGE_CURVE ( 'NONE', #749, #1258, #493, .T. ) ;
#270 = ORIENTED_EDGE ( 'NONE', *, *, #530, .T. ) ;
#271 = DIRECTION ( 'NONE',  ( 0.0000000000000000000, -1.000000000000000000, 0.0000000000000000000 ) ) ;
#272 = DIRECTION ( 'NONE',  ( 1.000000000000000000, -0.0000000000000000000, -1.355252715606881036E-16 ) ) ;
#273 = DIRECTION ( 'NONE',  ( 0.0000000000000000000, -0.0000000000000000000, 1.000000000000000000 ) ) ;
#274 = ORIENTED_EDGE ( 'NONE', *, *, #474, .T. ) ;
#275 = VERTEX_POINT ( 'NONE', #324 ) ;
#276 = DIRECTION ( 'NONE',  ( 1.000000000000000000, -0.0000000000000000000, 0.0000000000000000000 ) ) ;
#277 = DIRECTION ( 'NONE',  ( -1.000000000000000000, 0.0000000000000000000, 1.355252715606879063E-16 ) ) ;
#278 = DIRECTION ( 'NONE',  ( 0.0000000000000000000, 0.0000000000000000000, -1.000000000000000000 ) ) ;
#279 = AXIS2_PLACEMENT_3D ( 'NONE', #188, #878, #278 ) ;
#280 = CARTESIAN_POINT ( 'NONE',  ( -0.9499999999999998446, 1.820000000000000062, -0.7199999999999999734 ) ) ;
#281 = SHAPE_DEFINITION_REPRESENTATION ( #987, #409 ) ;
#282 = CARTESIAN_POINT ( 'NONE',  ( -0.9499999999999996225, 0.02666666666666668573, 0.7199999999999997513 ) ) ;
#283 = CIRCLE ( 'NONE', #1055, 0.07999999999999998779 ) ;
#284 = VECTOR ( 'NONE', #758, 1000.000000000000000 ) ;
#285 = CIRCLE ( 'NONE', #924, 0.07999999999999998779 ) ;
#286 = DIRECTION ( 'NONE',  ( -1.000000000000000000, 0.0000000000000000000, -2.710505431213761479E-15 ) ) ;
#287 = ORIENTED_EDGE ( 'NONE', *, *, #962, .T. ) ;
#288 = AXIS2_PLACEMENT_3D ( 'NONE', #1112, #123, #709 ) ;
#289 = DIRECTION ( 'NONE',  ( -8.673617379884035472E-17, 0.0000000000000000000, -1.000000000000000000 ) ) ;
#290 = ORIENTED_EDGE ( 'NONE', *, *, #556, .T. ) ;
#291 = ORIENTED_EDGE ( 'NONE', *, *, #601, .F. ) ;
#292 = CARTESIAN_POINT ( 'NONE',  ( 500000.0000000000582, 0.07999999999999998779, -0.7200000000433681713 ) ) ;
#293 = ORIENTED_EDGE ( 'NONE', *, *, #881, .T. ) ;
#294 = DIRECTION ( 'NONE',  ( -1.355252715606881036E-16, 0.0000000000000000000, 1.000000000000000000 ) ) ;
#295 = PRODUCT_DEFINITION_FORMATION_WITH_SPECIFIED_SOURCE ( 'ANY', '', #605, .NOT_KNOWN. ) ;
#296 = CARTESIAN_POINT ( 'NONE',  ( -1.519999999999999796, 0.08000000000000000167, -0.7199999999999999734 ) ) ;
#297 = EDGE_CURVE ( 'NONE', #1146, #800, #655, .T. ) ;
#298 = CARTESIAN_POINT ( 'NONE',  ( 0.9499999999999998446, 1.820000000000000062, -0.7999999999999999334 ) ) ;
#299 = CARTESIAN_POINT ( 'NONE',  ( -1.520000000000000018, 1.820000000000000062, -0.7199999999999999734 ) ) ;
#300 = ADVANCED_FACE ( 'NONE', ( #703 ), #825, .T. ) ;
#301 = CARTESIAN_POINT ( 'NONE',  ( -1.599999999999999867, 0.07999999999999998779, -0.7999999999999999334 ) ) ;
#302 = AXIS2_PLACEMENT_3D ( 'NONE', #1144, #1160, #847 ) ;
#303 = FACE_OUTER_BOUND ( 'NONE', #741, .T. ) ;
#304 = FACE_OUTER_BOUND ( 'NONE', #176, .T. ) ;
#305 = DIRECTION ( 'NONE',  ( -1.355252715606881036E-16, 0.0000000000000000000, 1.000000000000000000 ) ) ;
#306 = LINE ( 'NONE', #131, #1032 ) ;
#307 = PRODUCT_CONTEXT ( 'NONE', #102, 'mechanical' ) ;
#308 = EDGE_LOOP ( 'NONE', ( #434, #327, #1149 ) ) ;
#309 = DIRECTION ( 'NONE',  ( -1.000000000000000000, 0.0000000000000000000, 0.0000000000000000000 ) ) ;
#310 = VERTEX_POINT ( 'NONE', #125 ) ;
#311 = EDGE_CURVE ( 'NONE', #1132, #552, #748, .T. ) ;
#312 = ORIENTED_EDGE ( 'NONE', *, *, #666, .T. ) ;
#313 = ORIENTED_EDGE ( 'NONE', *, *, #1064, .F. ) ;
#314 = SURFACE_STYLE_USAGE ( .BOTH. , #1201 ) ;
#315 = APPLICATION_CONTEXT ( 'automotive_design' ) ;
#316 = ADVANCED_FACE ( 'NONE', ( #561 ), #412, .F. ) ;
#317 = EDGE_CURVE ( 'NONE', #106, #895, #887, .T. ) ;
#318 = DIRECTION ( 'NONE',  ( 0.0000000000000000000, -1.000000000000000000, -0.0000000000000000000 ) ) ;
#319 = CIRCLE ( 'NONE', #785, 0.05333333333333339921 ) ;
#320 = FACE_OUTER_BOUND ( 'NONE', #149, .T. ) ;
#321 = ADVANCED_FACE ( 'NONE', ( #1131 ), #210, .T. ) ;
#322 = EDGE_CURVE ( 'NONE', #1038, #1146, #958, .T. ) ;
#323 = CYLINDRICAL_SURFACE ( 'NONE', #145, 0.07999999999999998779 ) ;
#324 = CARTESIAN_POINT ( 'NONE',  ( 0.9499999999999998446, 1.820000000000000062, -0.7999999999999999334 ) ) ;
#325 = LINE ( 'NONE', #807, #243 ) ;
#326 = VERTEX_POINT ( 'NONE', #905 ) ;
#327 = ORIENTED_EDGE ( 'NONE', *, *, #249, .T. ) ;
#328 = ORIENTED_EDGE ( 'NONE', *, *, #524, .T. ) ;
#329 = ORIENTED_EDGE ( 'NONE', *, *, #732, .F. ) ;
#330 = CARTESIAN_POINT ( 'NONE',  ( 1.519999999999999574, 0.07999999999999998779, 0.7199999999999997513 ) ) ;
#331 = AXIS2_PLACEMENT_3D ( 'NONE', #802, #806, #930 ) ;
#332 = CARTESIAN_POINT ( 'NONE',  ( -0.9499999999999996225, 0.02666666666666666838, 0.7199999999999997513 ) ) ;
#333 = DIRECTION ( 'NONE',  ( -1.000000000000000000, 0.0000000000000000000, 0.0000000000000000000 ) ) ;
#334 = DIRECTION ( 'NONE',  ( -1.000000000000000000, 0.0000000000000000000, -1.355252715606881036E-16 ) ) ;
#335 = AXIS2_PLACEMENT_3D ( 'NONE', #1060, #171, #564 ) ;
#336 = FACE_OUTER_BOUND ( 'NONE', #1101, .T. ) ;
#337 = LINE ( 'NONE', #543, #284 ) ;
#338 = DIRECTION ( 'NONE',  ( 0.0000000000000000000, -0.0000000000000000000, -1.000000000000000000 ) ) ;
#339 = FACE_OUTER_BOUND ( 'NONE', #1023, .T. ) ;
#340 = ORIENTED_EDGE ( 'NONE', *, *, #68, .F. ) ;
#341 = DIRECTION ( 'NONE',  ( -1.000000000000000000, -0.0000000000000000000, 8.673617379884036705E-17 ) ) ;
#342 = ORIENTED_EDGE ( 'NONE', *, *, #1185, .F. ) ;
#343 = CARTESIAN_POINT ( 'NONE',  ( 1.519999999999999796, 1.820000000000000062, -0.7199999999999999734 ) ) ;
#344 = ORIENTED_EDGE ( 'NONE', *, *, #387, .F. ) ;
#345 = ORIENTED_EDGE ( 'NONE', *, *, #1004, .T. ) ;
#346 = ORIENTED_EDGE ( 'NONE', *, *, #1008, .F. ) ;
#347 = EDGE_CURVE ( 'NONE', #436, #1132, #1065, .T. ) ;
#348 = CARTESIAN_POINT ( 'NONE',  ( -1.519999999999999796, 1.820000000000000062, -0.7999999999999999334 ) ) ;
#349 = DIRECTION ( 'NONE',  ( 0.0000000000000000000, 1.000000000000000000, -0.0000000000000000000 ) ) ;
#350 = DIRECTION ( 'NONE',  ( 0.0000000000000000000, -1.000000000000000000, 0.0000000000000000000 ) ) ;
#351 = VECTOR ( 'NONE', #589, 1000.000000000000000 ) ;
#352 = VECTOR ( 'NONE', #696, 1000.000000000000000 ) ;
#353 = DIRECTION ( 'NONE',  ( -1.000000000000000000, 0.0000000000000000000, 1.355252715606881036E-16 ) ) ;
#354 = VERTEX_POINT ( 'NONE', #508 ) ;
#355 = CARTESIAN_POINT ( 'NONE',  ( 1.599999999999999867, 1.820000000000000062, -0.7199999999999999734 ) ) ;
#356 = ORIENTED_EDGE ( 'NONE', *, *, #540, .T. ) ;
#357 = EDGE_LOOP ( 'NONE', ( #340, #843, #963, #388 ) ) ;
#358 = ORIENTED_EDGE ( 'NONE', *, *, #823, .T. ) ;
#359 =( GEOMETRIC_REPRESENTATION_CONTEXT ( 3 ) GLOBAL_UNCERTAINTY_ASSIGNED_CONTEXT ( ( #38 ) ) GLOBAL_UNIT_ASSIGNED_CONTEXT ( ( #854, #671, #163 ) ) REPRESENTATION_CONTEXT ( 'NONE', 'WORKASPACE' ) );
#360 = CARTESIAN_POINT ( 'NONE',  ( -0.9499999999999998446, 0.08000000000000043188, -0.7999999999999999334 ) ) ;
#361 = CARTESIAN_POINT ( 'NONE',  ( -0.9499999999999998446, 1.899999999999999911, -0.7999999999999999334 ) ) ;
#362 = CARTESIAN_POINT ( 'NONE',  ( 1.519999999999999796, 1.820000000000000062, 2.059984127722459164E-16 ) ) ;
#363 = VECTOR ( 'NONE', #408, 1000.000000000000000 ) ;
#364 = DIRECTION ( 'NONE',  ( -0.0000000000000000000, -0.0000000000000000000, 1.000000000000000000 ) ) ;
#365 = EDGE_CURVE ( 'NONE', #690, #1145, #721, .T. ) ;
#366 = VECTOR ( 'NONE', #169, 1000.000000000000000 ) ;
#367 = DIRECTION ( 'NONE',  ( 0.0000000000000000000, 1.000000000000000000, 0.0000000000000000000 ) ) ;
#368 = VECTOR ( 'NONE', #531, 1000.000000000000000 ) ;
#369 = DIRECTION ( 'NONE',  ( 1.355252715606880789E-16, -0.0000000000000000000, -1.000000000000000000 ) ) ;
#370 = CARTESIAN_POINT ( 'NONE',  ( -1.519999999999999796, 1.899999999999999911, 0.7199999999999997513 ) ) ;
#371 = ADVANCED_FACE ( 'NONE', ( #432 ), #611, .F. ) ;
#372 = ORIENTED_EDGE ( 'NONE', *, *, #530, .F. ) ;
#373 = ORIENTED_EDGE ( 'NONE', *, *, #297, .F. ) ;
#374 = DIRECTION ( 'NONE',  ( -2.710505431213761479E-15, -1.000000000000000000, 0.0000000000000000000 ) ) ;
#375 = SURFACE_SIDE_STYLE ('',( #85 ) ) ;
#376 = DIRECTION ( 'NONE',  ( -0.0000000000000000000, 1.000000000000000000, -0.0000000000000000000 ) ) ;
#377 = AXIS2_PLACEMENT_3D ( 'NONE', #109, #973, #778 ) ;
#378 = CARTESIAN_POINT ( 'NONE',  ( 1.519999999999999796, 1.820000000000000062, -0.7999999999999999334 ) ) ;
#379 = DIRECTION ( 'NONE',  ( 0.0000000000000000000, 0.0000000000000000000, 1.000000000000000000 ) ) ;
#380 = CARTESIAN_POINT ( 'NONE',  ( 0.9499999999889041646, 1.820000000000000062, 0.7733333333333327619 ) ) ;
#381 = CARTESIAN_POINT ( 'NONE',  ( -0.9499999999999996225, 0.08000000000000043188, 0.7999999999999997113 ) ) ;
#382 = SPHERICAL_SURFACE ( 'NONE', #1086, 0.08000000000000000167 ) ;
#383 = CARTESIAN_POINT ( 'NONE',  ( -0.9499999999999996225, 1.820000000000000062, 0.7199999999999997513 ) ) ;
#384 = FACE_OUTER_BOUND ( 'NONE', #934, .T. ) ;
#385 = CIRCLE ( 'NONE', #1165, 0.05333333333333329512 ) ;
#386 = CARTESIAN_POINT ( 'NONE',  ( -0.9499999999999996225, 0.07999999999999998779, 0.7199999999999997513 ) ) ;
#387 = EDGE_CURVE ( 'NONE', #354, #453, #853, .T. ) ;
#388 = ORIENTED_EDGE ( 'NONE', *, *, #49, .F. ) ;
#389 =( NAMED_UNIT ( * ) SI_UNIT ( $, .STERADIAN. ) SOLID_ANGLE_UNIT ( ) );
#390 = ORIENTED_EDGE ( 'NONE', *, *, #435, .T. ) ;
#391 = CARTESIAN_POINT ( 'NONE',  ( 1.599999999999999645, 0.07999999999999998779, 0.7999999999999997113 ) ) ;
#392 = EDGE_CURVE ( 'NONE', #310, #495, #1230, .T. ) ;
#393 = ORIENTED_EDGE ( 'NONE', *, *, #845, .T. ) ;
#394 = VERTEX_POINT ( 'NONE', #606 ) ;
#395 = DIRECTION ( 'NONE',  ( 0.0000000000000000000, -1.000000000000000000, 0.0000000000000000000 ) ) ;
#396 =( GEOMETRIC_REPRESENTATION_CONTEXT ( 3 ) GLOBAL_UNCERTAINTY_ASSIGNED_CONTEXT ( ( #858 ) ) GLOBAL_UNIT_ASSIGNED_CONTEXT ( ( #969, #988, #389 ) ) REPRESENTATION_CONTEXT ( 'NONE', 'WORKASPACE' ) );
#397 = CARTESIAN_POINT ( 'NONE',  ( -1.599999999999999867, 1.899999999999999911, -0.7999999999999999334 ) ) ;
#398 = DIRECTION ( 'NONE',  ( -1.000000000000000000, -0.0000000000000000000, 8.673617379884036705E-17 ) ) ;
#399 = DIRECTION ( 'NONE',  ( -1.000000000000000000, -0.0000000000000000000, 2.710505431213761479E-15 ) ) ;
#400 = LINE ( 'NONE', #227, #763 ) ;
#401 = FACE_OUTER_BOUND ( 'NONE', #565, .T. ) ;
#402 = SPHERICAL_SURFACE ( 'NONE', #941, 0.08000000000000000167 ) ;
#403 = CIRCLE ( 'NONE', #816, 0.07999999999999998779 ) ;
#404 = EDGE_CURVE ( 'NONE', #1002, #528, #578, .T. ) ;
#405 = ADVANCED_FACE ( 'NONE', ( #55 ), #242, .F. ) ;
#406 = ORIENTED_EDGE ( 'NONE', *, *, #515, .F. ) ;
#407 = ORIENTED_EDGE ( 'NONE', *, *, #1243, .F. ) ;
#408 = DIRECTION ( 'NONE',  ( 1.355252715606881036E-16, -0.0000000000000000000, -1.000000000000000000 ) ) ;
#409 = ADVANCED_BREP_SHAPE_REPRESENTATION ( 'GCG31CR71E395JA01L', ( #15, #839, #538, #521 ), #52 ) ;
#410 = EDGE_CURVE ( 'NONE', #857, #844, #1018, .T. ) ;
#411 = CARTESIAN_POINT ( 'NONE',  ( 500000.0000000000582, 0.07999999999999998779, 0.7199999999566315534 ) ) ;
#412 = PLANE ( 'NONE',  #288 ) ;
#413 =( LENGTH_UNIT ( ) NAMED_UNIT ( * ) SI_UNIT ( .MILLI., .METRE. ) );
#414 = CIRCLE ( 'NONE', #457, 0.07999999999999998779 ) ;
#415 = VECTOR ( 'NONE', #34, 1000.000000000000000 ) ;
#416 = CARTESIAN_POINT ( 'NONE',  ( 1.519999999999999796, 1.899999999999999911, -0.7199999999999999734 ) ) ;
#417 = DIRECTION ( 'NONE',  ( 0.0000000000000000000, -0.0000000000000000000, -1.000000000000000000 ) ) ;
#418 = ORIENTED_EDGE ( 'NONE', *, *, #198, .F. ) ;
#419 = CARTESIAN_POINT ( 'NONE',  ( 1.519999999999999574, 0.08000000000000000167, 0.7199999999999997513 ) ) ;
#420 = AXIS2_PLACEMENT_3D ( 'NONE', #1194, #108, #795 ) ;
#421 = ORIENTED_EDGE ( 'NONE', *, *, #1203, .F. ) ;
#422 = ORIENTED_EDGE ( 'NONE', *, *, #915, .T. ) ;
#423 = CARTESIAN_POINT ( 'NONE',  ( 0.9499999999999996225, 1.899999999999999911, 0.7199999999999997513 ) ) ;
#424 = DIRECTION ( 'NONE',  ( -1.000000000000000000, -0.0000000000000000000, 8.673617379884036705E-17 ) ) ;
#425 = CARTESIAN_POINT ( 'NONE',  ( 0.0000000000000000000, 0.0000000000000000000, -0.7199999999999999734 ) ) ;
#426 = EDGE_CURVE ( 'NONE', #245, #726, #306, .T. ) ;
#427 = CARTESIAN_POINT ( 'NONE',  ( -0.9499999999999998446, 0.0000000000000000000, -0.7999999999999999334 ) ) ;
#428 = CARTESIAN_POINT ( 'NONE',  ( -1.519999999999999574, 1.820000000000000062, 0.7199999999999997513 ) ) ;
#429 = FACE_OUTER_BOUND ( 'NONE', #1176, .T. ) ;
#430 = LINE ( 'NONE', #872, #254 ) ;
#431 = DIRECTION ( 'NONE',  ( -0.0000000000000000000, -0.0000000000000000000, -1.000000000000000000 ) ) ;
#432 = FACE_OUTER_BOUND ( 'NONE', #711, .T. ) ;
#433 = AXIS2_PLACEMENT_3D ( 'NONE', #397, #1082, #584 ) ;
#434 = ORIENTED_EDGE ( 'NONE', *, *, #1142, .F. ) ;
#435 = EDGE_CURVE ( 'NONE', #844, #257, #794, .T. ) ;
#436 = VERTEX_POINT ( 'NONE', #744 ) ;
#437 = ORIENTED_EDGE ( 'NONE', *, *, #185, .T. ) ;
#438 = DIRECTION ( 'NONE',  ( 0.0000000000000000000, -1.000000000000000000, 0.0000000000000000000 ) ) ;
#439 = CARTESIAN_POINT ( 'NONE',  ( -0.9499999999999996225, 1.820000000000000062, 0.7199999999999997513 ) ) ;
#440 = DIRECTION ( 'NONE',  ( 0.0000000000000000000, 0.0000000000000000000, 1.000000000000000000 ) ) ;
#441 = AXIS2_PLACEMENT_3D ( 'NONE', #330, #1000, #621 ) ;
#442 = CYLINDRICAL_SURFACE ( 'NONE', #57, 0.05333333333333329512 ) ;
#443 = CARTESIAN_POINT ( 'NONE',  ( -0.9499999999999996225, 1.820000000000000062, 0.7733333333333329840 ) ) ;
#444 = VECTOR ( 'NONE', #294, 1000.000000000000000 ) ;
#445 = FACE_OUTER_BOUND ( 'NONE', #1136, .T. ) ;
#446 = ORIENTED_EDGE ( 'NONE', *, *, #426, .T. ) ;
#447 = DIRECTION ( 'NONE',  ( 0.0000000000000000000, -1.000000000000000000, 0.0000000000000000000 ) ) ;
#448 = ORIENTED_EDGE ( 'NONE', *, *, #974, .F. ) ;
#449 = FILL_AREA_STYLE_COLOUR ( '', #827 ) ;
#450 = ORIENTED_EDGE ( 'NONE', *, *, #586, .F. ) ;
#451 = ORIENTED_EDGE ( 'NONE', *, *, #1224, .T. ) ;
#452 = EDGE_CURVE ( 'NONE', #1276, #46, #1047, .T. ) ;
#453 = VERTEX_POINT ( 'NONE', #348 ) ;
#454 = EDGE_CURVE ( 'NONE', #690, #797, #1001, .T. ) ;
#455 = CARTESIAN_POINT ( 'NONE',  ( 1.519999999999999574, 1.820000000000000062, 0.7199999999999997513 ) ) ;
#456 = VECTOR ( 'NONE', #918, 1000.000000000000000 ) ;
#457 = AXIS2_PLACEMENT_3D ( 'NONE', #419, #27, #713 ) ;
#458 = VECTOR ( 'NONE', #735, 1000.000000000000000 ) ;
#459 = LINE ( 'NONE', #443, #1085 ) ;
#460 = CIRCLE ( 'NONE', #152, 0.07999999999999998779 ) ;
#461 = DIRECTION ( 'NONE',  ( -0.0000000000000000000, 1.000000000000000000, 0.0000000000000000000 ) ) ;
#462 = ORIENTED_EDGE ( 'NONE', *, *, #774, .F. ) ;
#463 = ORIENTED_EDGE ( 'NONE', *, *, #138, .T. ) ;
#464 = CARTESIAN_POINT ( 'NONE',  ( -0.9499999999999996225, 1.820000000000000062, 0.7999999999999997113 ) ) ;
#465 = EDGE_LOOP ( 'NONE', ( #1071, #10, #551, #47 ) ) ;
#466 = ORIENTED_EDGE ( 'NONE', *, *, #31, .F. ) ;
#467 = EDGE_CURVE ( 'NONE', #257, #248, #459, .T. ) ;
#468 = DIRECTION ( 'NONE',  ( 1.000000000000000000, 0.0000000000000000000, 1.355252715606881036E-16 ) ) ;
#469 = DIRECTION ( 'NONE',  ( -1.000000000000000000, -0.0000000000000000000, 8.673617379884036705E-17 ) ) ;
#470 = DIRECTION ( 'NONE',  ( 1.000000000000000000, 0.0000000000000000000, 0.0000000000000000000 ) ) ;
#471 = DIRECTION ( 'NONE',  ( -1.000000000000000000, 0.0000000000000000000, -0.0000000000000000000 ) ) ;
#472 = VECTOR ( 'NONE', #1012, 1000.000000000000000 ) ;
#473 = DIRECTION ( 'NONE',  ( 1.000000000000000000, 0.0000000000000000000, 0.0000000000000000000 ) ) ;
#474 = EDGE_CURVE ( 'NONE', #704, #541, #1188, .T. ) ;
#475 = SPHERICAL_SURFACE ( 'NONE', #1102, 0.08000000000000000167 ) ;
#476 = VECTOR ( 'NONE', #1075, 1000.000000000000000 ) ;
#477 = CARTESIAN_POINT ( 'NONE',  ( 0.9499999999889041646, 0.02666666666666666838, 0.7199999998888689801 ) ) ;
#478 = ORIENTED_EDGE ( 'NONE', *, *, #426, .F. ) ;
#479 = ADVANCED_FACE ( 'NONE', ( #919 ), #670, .T. ) ;
#480 = CARTESIAN_POINT ( 'NONE',  ( 0.9499999999999998446, 1.899999999999999911, -0.7999999999999999334 ) ) ;
#481 = ORIENTED_EDGE ( 'NONE', *, *, #518, .T. ) ;
#482 = ADVANCED_FACE ( 'NONE', ( #779 ), #766, .T. ) ;
#483 = ORIENTED_EDGE ( 'NONE', *, *, #1004, .F. ) ;
#484 = ORIENTED_EDGE ( 'NONE', *, *, #160, .F. ) ;
#485 = DIRECTION ( 'NONE',  ( 0.0000000000000000000, 0.0000000000000000000, -1.000000000000000000 ) ) ;
#486 = CARTESIAN_POINT ( 'NONE',  ( 0.0000000000000000000, 0.0000000000000000000, 0.0000000000000000000 ) ) ;
#487 = CARTESIAN_POINT ( 'NONE',  ( 1.519999999999999574, 1.899999999999999911, 0.7999999999999997113 ) ) ;
#488 = AXIS2_PLACEMENT_3D ( 'NONE', #74, #184, #374 ) ;
#489 = CARTESIAN_POINT ( 'NONE',  ( 0.0000000000000000000, 1.899999999999999911, 0.0000000000000000000 ) ) ;
#490 = CARTESIAN_POINT ( 'NONE',  ( 0.9499999999999998446, 1.899999999999999911, -0.7999999999999999334 ) ) ;
#491 = CARTESIAN_POINT ( 'NONE',  ( -0.9499999999999998446, 1.899999999999999911, -0.7199999999999999734 ) ) ;
#492 = EDGE_CURVE ( 'NONE', #1248, #617, #1217, .T. ) ;
#493 = LINE ( 'NONE', #427, #1156 ) ;
#494 = DIRECTION ( 'NONE',  ( -1.000000000000000000, 0.0000000000000000000, 0.0000000000000000000 ) ) ;
#495 = VERTEX_POINT ( 'NONE', #1229 ) ;
#496 = ORIENTED_EDGE ( 'NONE', *, *, #1185, .T. ) ;
#497 = DIRECTION ( 'NONE',  ( -1.000000000000000000, 0.0000000000000000000, 0.0000000000000000000 ) ) ;
#498 = ORIENTED_EDGE ( 'NONE', *, *, #1243, .T. ) ;
#499 = DIRECTION ( 'NONE',  ( -1.000000000000000000, 0.0000000000000000000, 8.673617379884035472E-17 ) ) ;
#500 = ORIENTED_EDGE ( 'NONE', *, *, #3, .F. ) ;
#501 = ORIENTED_EDGE ( 'NONE', *, *, #35, .T. ) ;
#502 = EDGE_CURVE ( 'NONE', #354, #838, #158, .T. ) ;
#503 = CARTESIAN_POINT ( 'NONE',  ( 0.9499999999999998446, 0.0000000000000000000, -0.7199999999999999734 ) ) ;
#504 = AXIS2_PLACEMENT_3D ( 'NONE', #489, #1181, #581 ) ;
#505 = LINE ( 'NONE', #1106, #265 ) ;
#506 = LINE ( 'NONE', #490, #351 ) ;
#507 = CIRCLE ( 'NONE', #20, 0.07999999999999998779 ) ;
#508 = CARTESIAN_POINT ( 'NONE',  ( -1.599999999999999867, 1.820000000000000062, -0.7199999999999999734 ) ) ;
#509 = AXIS2_PLACEMENT_3D ( 'NONE', #514, #1013, #1215 ) ;
#510 = ORIENTED_EDGE ( 'NONE', *, *, #322, .F. ) ;
#511 = FILL_AREA_STYLE ('',( #2 ) ) ;
#512 = ORIENTED_EDGE ( 'NONE', *, *, #891, .T. ) ;
#513 = ORIENTED_EDGE ( 'NONE', *, *, #1053, .T. ) ;
#514 = CARTESIAN_POINT ( 'NONE',  ( -1.519999999999999796, 0.07999999999999998779, -0.7199999999999999734 ) ) ;
#515 = EDGE_CURVE ( 'NONE', #106, #726, #337, .T. ) ;
#516 = DIRECTION ( 'NONE',  ( 0.0000000000000000000, 0.0000000000000000000, -1.000000000000000000 ) ) ;
#517 = DIRECTION ( 'NONE',  ( -1.000000000000000000, 0.0000000000000000000, 0.0000000000000000000 ) ) ;
#518 = EDGE_CURVE ( 'NONE', #550, #11, #940, .T. ) ;
#519 = VECTOR ( 'NONE', #395, 1000.000000000000000 ) ;
#520 = CARTESIAN_POINT ( 'NONE',  ( -0.9499999999999998446, 1.819999999999999618, -0.7733333333333332060 ) ) ;
#521 = AXIS2_PLACEMENT_3D ( 'NONE', #1193, #604, #705 ) ;
#522 = CIRCLE ( 'NONE', #101, 0.07999999999999998779 ) ;
#523 = CIRCLE ( 'NONE', #241, 0.07999999999999998779 ) ;
#524 = EDGE_CURVE ( 'NONE', #798, #710, #931, .T. ) ;
#525 = VERTEX_POINT ( 'NONE', #1250 ) ;
#526 = DIRECTION ( 'NONE',  ( 1.000000000000000000, 0.0000000000000000000, 0.0000000000000000000 ) ) ;
#527 = ORIENTED_EDGE ( 'NONE', *, *, #574, .T. ) ;
#528 = VERTEX_POINT ( 'NONE', #246 ) ;
#529 = DIRECTION ( 'NONE',  ( 0.0000000000000000000, 0.0000000000000000000, 1.000000000000000000 ) ) ;
#530 = EDGE_CURVE ( 'NONE', #726, #749, #191, .T. ) ;
#531 = DIRECTION ( 'NONE',  ( -1.000000000000000000, -0.0000000000000000000, 8.673617379884036705E-17 ) ) ;
#532 = CARTESIAN_POINT ( 'NONE',  ( -1.599999999999999867, 1.899999999999999911, -0.7199999999999999734 ) ) ;
#533 = FACE_OUTER_BOUND ( 'NONE', #1091, .T. ) ;
#534 = LINE ( 'NONE', #262, #266 ) ;
#535 = VECTOR ( 'NONE', #341, 1000.000000000000000 ) ;
#536 = EDGE_LOOP ( 'NONE', ( #831, #213, #944, #498 ) ) ;
#537 = DIRECTION ( 'NONE',  ( 1.355252715606881036E-16, 0.0000000000000000000, -1.000000000000000000 ) ) ;
#538 = MANIFOLD_SOLID_BREP ( 'Boss-Extrude2', #13 ) ;
#539 = ORIENTED_EDGE ( 'NONE', *, *, #185, .F. ) ;
#540 = EDGE_CURVE ( 'NONE', #704, #354, #1096, .T. ) ;
#541 = VERTEX_POINT ( 'NONE', #370 ) ;
#542 = ORIENTED_EDGE ( 'NONE', *, *, #1203, .T. ) ;
#543 = CARTESIAN_POINT ( 'NONE',  ( -0.9499999999999996225, 1.899999999999999911, 0.7999999999999997113 ) ) ;
#544 = AXIS2_PLACEMENT_3D ( 'NONE', #296, #679, #572 ) ;
#545 = CARTESIAN_POINT ( 'NONE',  ( 1.599999999999999867, 1.899999999999999911, -0.7199999999999999734 ) ) ;
#546 = LINE ( 'NONE', #532, #1228 ) ;
#547 = FACE_OUTER_BOUND ( 'NONE', #889, .T. ) ;
#548 = FACE_OUTER_BOUND ( 'NONE', #912, .T. ) ;
#549 = DIRECTION ( 'NONE',  ( 0.0000000000000000000, 0.0000000000000000000, 1.000000000000000000 ) ) ;
#550 = VERTEX_POINT ( 'NONE', #656 ) ;
#551 = ORIENTED_EDGE ( 'NONE', *, *, #232, .T. ) ;
#552 = VERTEX_POINT ( 'NONE', #938 ) ;
#553 = AXIS2_PLACEMENT_3D ( 'NONE', #892, #206, #1187 ) ;
#554 = EDGE_LOOP ( 'NONE', ( #755, #1262, #25, #583, #813, #59, #1205, #270 ) ) ;
#555 = DIRECTION ( 'NONE',  ( 0.0000000000000000000, 1.000000000000000000, 0.0000000000000000000 ) ) ;
#556 = EDGE_CURVE ( 'NONE', #550, #326, #1186, .T. ) ;
#557 = CYLINDRICAL_SURFACE ( 'NONE', #162, 0.07999999999999998779 ) ;
#558 = AXIS2_PLACEMENT_3D ( 'NONE', #664, #867, #277 ) ;
#559 =( NAMED_UNIT ( * ) PLANE_ANGLE_UNIT ( ) SI_UNIT ( $, .RADIAN. ) );
#560 = VECTOR ( 'NONE', #746, 1000.000000000000000 ) ;
#561 = FACE_OUTER_BOUND ( 'NONE', #727, .T. ) ;
#562 = ADVANCED_FACE ( 'NONE', ( #917 ), #904, .T. ) ;
#563 = FACE_OUTER_BOUND ( 'NONE', #873, .T. ) ;
#564 = DIRECTION ( 'NONE',  ( 0.0000000000000000000, 0.0000000000000000000, 1.000000000000000000 ) ) ;
#565 = EDGE_LOOP ( 'NONE', ( #1116, #165, #784, #743 ) ) ;
#566 = EDGE_LOOP ( 'NONE', ( #1103, #501, #451, #496 ) ) ;
#567 = AXIS2_PLACEMENT_3D ( 'NONE', #1122, #817, #517 ) ;
#568 = CARTESIAN_POINT ( 'NONE',  ( -1.519999999999999796, 1.899999999999999911, 0.7999999999999997113 ) ) ;
#569 = DIRECTION ( 'NONE',  ( 1.000000000000000000, 0.0000000000000000000, 0.0000000000000000000 ) ) ;
#570 = DIRECTION ( 'NONE',  ( 1.000000000000000000, 0.0000000000000000000, 1.355252715606881036E-16 ) ) ;
#571 = FILL_AREA_STYLE ('',( #187 ) ) ;
#572 = DIRECTION ( 'NONE',  ( 1.000000000000000000, 0.0000000000000000000, 0.0000000000000000000 ) ) ;
#573 = LINE ( 'NONE', #920, #699 ) ;
#574 = EDGE_CURVE ( 'NONE', #71, #1276, #385, .T. ) ;
#575 = FACE_OUTER_BOUND ( 'NONE', #1209, .T. ) ;
#576 = CIRCLE ( 'NONE', #124, 0.07999999999999998779 ) ;
#577 = DIRECTION ( 'NONE',  ( 0.0000000000000000000, 0.0000000000000000000, 1.000000000000000000 ) ) ;
#578 = CIRCLE ( 'NONE', #658, 0.07999999999999998779 ) ;
#579 = DIRECTION ( 'NONE',  ( 1.000000000000000000, 0.0000000000000000000, 1.355252715606881036E-16 ) ) ;
#580 = ORIENTED_EDGE ( 'NONE', *, *, #694, .F. ) ;
#581 = DIRECTION ( 'NONE',  ( 0.0000000000000000000, -0.0000000000000000000, 1.000000000000000000 ) ) ;
#582 = ORIENTED_EDGE ( 'NONE', *, *, #845, .F. ) ;
#583 = ORIENTED_EDGE ( 'NONE', *, *, #26, .T. ) ;
#584 = DIRECTION ( 'NONE',  ( 1.000000000000000000, 0.0000000000000000000, -0.0000000000000000000 ) ) ;
#585 = ORIENTED_EDGE ( 'NONE', *, *, #317, .F. ) ;
#586 = EDGE_CURVE ( 'NONE', #550, #147, #576, .T. ) ;
#587 = CARTESIAN_POINT ( 'NONE',  ( 0.9499999999889041646, 1.819999999999999618, -0.7733333333333334281 ) ) ;
#588 = AXIS2_PLACEMENT_3D ( 'NONE', #1182, #88, #982 ) ;
#589 = DIRECTION ( 'NONE',  ( 0.0000000000000000000, -1.000000000000000000, -0.0000000000000000000 ) ) ;
#590 = CARTESIAN_POINT ( 'NONE',  ( 1.599999999999999867, 0.07999999999999998779, -0.7999999999999999334 ) ) ;
#591 = CYLINDRICAL_SURFACE ( 'NONE', #1148, 0.07999999999999998779 ) ;
#592 = CARTESIAN_POINT ( 'NONE',  ( 1.599999999999999645, 0.07999999999999998779, 0.7199999999999997513 ) ) ;
#593 = LINE ( 'NONE', #796, #132 ) ;
#594 = CARTESIAN_POINT ( 'NONE',  ( -1.519999999999999796, 1.899999999999999911, -0.7999999999999999334 ) ) ;
#595 = ORIENTED_EDGE ( 'NONE', *, *, #1164, .T. ) ;
#596 = CARTESIAN_POINT ( 'NONE',  ( 500000.0000000000582, 0.07999999999999998779, -0.7733333333767014039 ) ) ;
#597 = ORIENTED_EDGE ( 'NONE', *, *, #865, .F. ) ;
#598 = ORIENTED_EDGE ( 'NONE', *, *, #118, .F. ) ;
#599 = ORIENTED_EDGE ( 'NONE', *, *, #1100, .T. ) ;
#600 = CARTESIAN_POINT ( 'NONE',  ( 0.0000000000000000000, 1.820000000000000062, -0.7199999999999999734 ) ) ;
#601 = EDGE_CURVE ( 'NONE', #11, #1145, #654, .T. ) ;
#602 = DIRECTION ( 'NONE',  ( 0.0000000000000000000, 0.0000000000000000000, 1.000000000000000000 ) ) ;
#603 = CARTESIAN_POINT ( 'NONE',  ( -0.9499999999999996225, 0.08000000000000086209, 0.7733333333333329840 ) ) ;
#604 = DIRECTION ( 'NONE',  ( 0.0000000000000000000, 0.0000000000000000000, 1.000000000000000000 ) ) ;
#605 = PRODUCT ( 'GCG31CR71E395JA01L', 'GCG31CR71E395JA01L', '', ( #307 ) ) ;
#606 = CARTESIAN_POINT ( 'NONE',  ( 0.9499999999999998446, 1.899999999999999911, -0.7199999999999999734 ) ) ;
#607 = LINE ( 'NONE', #850, #1227 ) ;
#608 = SURFACE_STYLE_FILL_AREA ( #571 ) ;
#609 = CARTESIAN_POINT ( 'NONE',  ( 0.9499999999999998446, 1.899999999999999911, -0.7999999999999999334 ) ) ;
#610 = FACE_OUTER_BOUND ( 'NONE', #73, .T. ) ;
#611 = PLANE ( 'NONE',  #43 ) ;
#612 = ORIENTED_EDGE ( 'NONE', *, *, #540, .F. ) ;
#613 = AXIS2_PLACEMENT_3D ( 'NONE', #113, #715, #516 ) ;
#614 = ORIENTED_EDGE ( 'NONE', *, *, #928, .F. ) ;
#615 = ADVANCED_FACE ( 'NONE', ( #128 ), #762, .F. ) ;
#616 = ORIENTED_EDGE ( 'NONE', *, *, #518, .F. ) ;
#617 = VERTEX_POINT ( 'NONE', #360 ) ;
#618 = CARTESIAN_POINT ( 'NONE',  ( 0.9499999999889041646, 1.873333333333333295, -0.7200000001111306336 ) ) ;
#619 = MECHANICAL_DESIGN_GEOMETRIC_PRESENTATION_REPRESENTATION (  '', ( #1153 ), #359 ) ;
#620 = DIRECTION ( 'NONE',  ( 0.0000000000000000000, -1.000000000000000000, 0.0000000000000000000 ) ) ;
#621 = DIRECTION ( 'NONE',  ( -1.000000000000000000, 0.0000000000000000000, 0.0000000000000000000 ) ) ;
#622 = LINE ( 'NONE', #787, #156 ) ;
#623 = CARTESIAN_POINT ( 'NONE',  ( 0.9499999999999996225, 1.899999999999999911, 0.7999999999999997113 ) ) ;
#624 = VECTOR ( 'NONE', #939, 1000.000000000000000 ) ;
#625 = VECTOR ( 'NONE', #1107, 1000.000000000000000 ) ;
#626 = EDGE_CURVE ( 'NONE', #394, #686, #115, .T. ) ;
#627 = ORIENTED_EDGE ( 'NONE', *, *, #232, .F. ) ;
#628 = CARTESIAN_POINT ( 'NONE',  ( 1.519999999999999574, 0.08000000000000000167, 0.7199999999999997513 ) ) ;
#629 = AXIS2_PLACEMENT_3D ( 'NONE', #1171, #289, #499 ) ;
#630 = ORIENTED_EDGE ( 'NONE', *, *, #502, .F. ) ;
#631 = ORIENTED_EDGE ( 'NONE', *, *, #1076, .T. ) ;
#632 = DIRECTION ( 'NONE',  ( 1.000000000000000000, 0.0000000000000000000, 0.0000000000000000000 ) ) ;
#633 = PRODUCT_DEFINITION ( 'UNKNOWN', '', #295, #51 ) ;
#634 = PLANE ( 'NONE',  #256 ) ;
#635 = ADVANCED_FACE ( 'NONE', ( #445 ), #323, .T. ) ;
#636 = AXIS2_PLACEMENT_3D ( 'NONE', #643, #948, #1041 ) ;
#637 = CYLINDRICAL_SURFACE ( 'NONE', #1213, 0.07999999999999998779 ) ;
#638 = FACE_OUTER_BOUND ( 'NONE', #1019, .T. ) ;
#639 = VECTOR ( 'NONE', #471, 1000.000000000000000 ) ;
#640 = ORIENTED_EDGE ( 'NONE', *, *, #626, .F. ) ;
#641 = EDGE_LOOP ( 'NONE', ( #450, #481, #842, #393 ) ) ;
#642 = EDGE_CURVE ( 'NONE', #525, #844, #430, .T. ) ;
#643 = CARTESIAN_POINT ( 'NONE',  ( -1.519999999999999796, 1.820000000000000062, -0.7199999999999999734 ) ) ;
#644 = ORIENTED_EDGE ( 'NONE', *, *, #454, .T. ) ;
#645 = ADVANCED_FACE ( 'NONE', ( #401 ), #1155, .T. ) ;
#646 = ORIENTED_EDGE ( 'NONE', *, *, #249, .F. ) ;
#647 = ADVANCED_FACE ( 'NONE', ( #1129 ), #1265, .F. ) ;
#648 = ADVANCED_FACE ( 'NONE', ( #547 ), #1083, .T. ) ;
#649 = DIRECTION ( 'NONE',  ( 1.000000000000000000, 0.0000000000000000000, 0.0000000000000000000 ) ) ;
#650 = EDGE_CURVE ( 'NONE', #326, #147, #53, .T. ) ;
#651 = STYLED_ITEM ( 'NONE', ( #776 ), #839 ) ;
#652 = CARTESIAN_POINT ( 'NONE',  ( -1.599999999999999867, 1.820000000000000062, -0.7999999999999999334 ) ) ;
#653 = FACE_OUTER_BOUND ( 'NONE', #660, .T. ) ;
#654 = LINE ( 'NONE', #60, #624 ) ;
#655 = CIRCLE ( 'NONE', #1039, 0.05333333333333329512 ) ;
#656 = CARTESIAN_POINT ( 'NONE',  ( 1.599999999999999645, 1.820000000000000062, 0.7199999999999997513 ) ) ;
#657 = CIRCLE ( 'NONE', #335, 0.07999999999999998779 ) ;
#658 = AXIS2_PLACEMENT_3D ( 'NONE', #234, #431, #632 ) ;
#659 = ORIENTED_EDGE ( 'NONE', *, *, #984, .F. ) ;
#660 = EDGE_LOOP ( 'NONE', ( #195, #580, #598, #812 ) ) ;
#661 = CARTESIAN_POINT ( 'NONE',  ( 0.9499999999889041646, 0.07999999999999998779, 0.7199999999999995293 ) ) ;
#662 = CARTESIAN_POINT ( 'NONE',  ( 1.519999999999999796, 1.820000000000000062, -0.7199999999999999734 ) ) ;
#663 = CARTESIAN_POINT ( 'NONE',  ( -1.599999999999999645, 1.820000000000000062, 0.7199999999999997513 ) ) ;
#664 = CARTESIAN_POINT ( 'NONE',  ( -1.519999999999999796, 1.820000000000000062, 2.059984127722459164E-16 ) ) ;
#665 = PLANE ( 'NONE',  #702 ) ;
#666 = EDGE_CURVE ( 'NONE', #749, #1002, #1202, .T. ) ;
#667 = LINE ( 'NONE', #1121, #142 ) ;
#668 = DIRECTION ( 'NONE',  ( 1.355252715606881036E-16, -0.0000000000000000000, 1.000000000000000000 ) ) ;
#669 = DIRECTION ( 'NONE',  ( 1.505836350674312234E-16, 0.0000000000000000000, 1.000000000000000000 ) ) ;
#670 = CYLINDRICAL_SURFACE ( 'NONE', #110, 0.05333333333333329512 ) ;
#671 =( NAMED_UNIT ( * ) PLANE_ANGLE_UNIT ( ) SI_UNIT ( $, .RADIAN. ) );
#672 = SURFACE_STYLE_USAGE ( .BOTH. , #199 ) ;
#673 = VERTEX_POINT ( 'NONE', #965 ) ;
#674 = CARTESIAN_POINT ( 'NONE',  ( -0.9499999999999998446, 1.820000000000000062, -0.7199999999999999734 ) ) ;
#675 = CARTESIAN_POINT ( 'NONE',  ( 500000.0000000000582, 0.07999999999999998779, -0.7733333333767014039 ) ) ;
#676 = ORIENTED_EDGE ( 'NONE', *, *, #269, .F. ) ;
#677 = PRESENTATION_LAYER_ASSIGNMENT (  '', '', ( #651 ) ) ;
#678 = EDGE_LOOP ( 'NONE', ( #150, #599, #1007, #799 ) ) ;
#679 = DIRECTION ( 'NONE',  ( 0.0000000000000000000, 1.000000000000000000, 0.0000000000000000000 ) ) ;
#680 = CARTESIAN_POINT ( 'NONE',  ( 1.519999999999999796, 0.08000000000000000167, -0.7199999999999999734 ) ) ;
#681 = PLANE ( 'NONE',  #846 ) ;
#682 = AXIS2_PLACEMENT_3D ( 'NONE', #832, #146, #1135 ) ;
#683 = LINE ( 'NONE', #750, #1062 ) ;
#684 = CIRCLE ( 'NONE', #377, 0.07999999999999998779 ) ;
#685 = DIRECTION ( 'NONE',  ( -0.0000000000000000000, 1.000000000000000000, -0.0000000000000000000 ) ) ;
#686 = VERTEX_POINT ( 'NONE', #1079 ) ;
#687 = ORIENTED_EDGE ( 'NONE', *, *, #1124, .F. ) ;
#688 = CARTESIAN_POINT ( 'NONE',  ( -1.519999999999999796, 1.820000000000000062, -0.7199999999999999734 ) ) ;
#689 = AXIS2_PLACEMENT_3D ( 'NONE', #600, #804, #14 ) ;
#690 = VERTEX_POINT ( 'NONE', #175 ) ;
#691 = ORIENTED_EDGE ( 'NONE', *, *, #666, .F. ) ;
#692 = EDGE_CURVE ( 'NONE', #197, #106, #522, .T. ) ;
#693 = DIRECTION ( 'NONE',  ( 0.0000000000000000000, 0.0000000000000000000, 1.000000000000000000 ) ) ;
#694 = EDGE_CURVE ( 'NONE', #453, #1248, #1143, .T. ) ;
#695 = DIRECTION ( 'NONE',  ( 0.0000000000000000000, -1.000000000000000000, 0.0000000000000000000 ) ) ;
#696 = DIRECTION ( 'NONE',  ( -0.0000000000000000000, 1.000000000000000000, -0.0000000000000000000 ) ) ;
#697 = ADVANCED_FACE ( 'NONE', ( #871 ), #809, .T. ) ;
#698 =( NAMED_UNIT ( * ) PLANE_ANGLE_UNIT ( ) SI_UNIT ( $, .RADIAN. ) );
#699 = VECTOR ( 'NONE', #1010, 1000.000000000000000 ) ;
#700 = VECTOR ( 'NONE', #1152, 1000.000000000000000 ) ;
#701 = CARTESIAN_POINT ( 'NONE',  ( -0.9499999999999996225, 1.820000000000000062, 0.7733333333333330950 ) ) ;
#702 = AXIS2_PLACEMENT_3D ( 'NONE', #480, #66, #78 ) ;
#703 = FACE_OUTER_BOUND ( 'NONE', #678, .T. ) ;
#704 = VERTEX_POINT ( 'NONE', #663 ) ;
#705 = DIRECTION ( 'NONE',  ( 1.000000000000000000, 0.0000000000000000000, 0.0000000000000000000 ) ) ;
#706 = ORIENTED_EDGE ( 'NONE', *, *, #962, .F. ) ;
#707 = ADVANCED_FACE ( 'NONE', ( #610 ), #1046, .T. ) ;
#708 = DIRECTION ( 'NONE',  ( 0.0000000000000000000, 0.0000000000000000000, -1.000000000000000000 ) ) ;
#709 = DIRECTION ( 'NONE',  ( -1.000000000000000000, 0.0000000000000000000, 0.0000000000000000000 ) ) ;
#710 = VERTEX_POINT ( 'NONE', #70 ) ;
#711 = EDGE_LOOP ( 'NONE', ( #463, #446, #406, #23 ) ) ;
#712 = EDGE_CURVE ( 'NONE', #673, #394, #1113, .T. ) ;
#713 = DIRECTION ( 'NONE',  ( 0.0000000000000000000, 0.0000000000000000000, 1.000000000000000000 ) ) ;
#714 = DIRECTION ( 'NONE',  ( 0.0000000000000000000, 0.0000000000000000000, -1.000000000000000000 ) ) ;
#715 = DIRECTION ( 'NONE',  ( 0.0000000000000000000, -1.000000000000000000, 0.0000000000000000000 ) ) ;
#716 = PRESENTATION_STYLE_ASSIGNMENT (( #314 ) ) ;
#717 = FACE_OUTER_BOUND ( 'NONE', #566, .T. ) ;
#718 = EDGE_CURVE ( 'NONE', #725, #798, #173, .T. ) ;
#719 = CARTESIAN_POINT ( 'NONE',  ( 1.599999999999999867, 0.07999999999999998779, -0.7199999999999999734 ) ) ;
#720 = DIRECTION ( 'NONE',  ( -1.000000000000000000, -0.0000000000000000000, 8.673617379884036705E-17 ) ) ;
#721 = CIRCLE ( 'NONE', #995, 0.07999999999999998779 ) ;
#722 = MECHANICAL_DESIGN_GEOMETRIC_PRESENTATION_REPRESENTATION (  '', ( #189 ), #79 ) ;
#723 = ORIENTED_EDGE ( 'NONE', *, *, #129, .F. ) ;
#724 = CARTESIAN_POINT ( 'NONE',  ( 1.599999999999999867, 0.07999999999999998779, -0.7199999999999999734 ) ) ;
#725 = VERTEX_POINT ( 'NONE', #961 ) ;
#726 = VERTEX_POINT ( 'NONE', #381 ) ;
#727 = EDGE_LOOP ( 'NONE', ( #1137, #313, #723, #811 ) ) ;
#728 = DIRECTION ( 'NONE',  ( -0.0000000000000000000, 1.000000000000000000, -0.0000000000000000000 ) ) ;
#729 = CARTESIAN_POINT ( 'NONE',  ( 500000.0000000000582, 0.02666666666666668573, 0.7199999999566315534 ) ) ;
#730 = ORIENTED_EDGE ( 'NONE', *, *, #954, .T. ) ;
#731 = ORIENTED_EDGE ( 'NONE', *, *, #492, .T. ) ;
#732 = EDGE_CURVE ( 'NONE', #247, #550, #777, .T. ) ;
#733 = DIRECTION ( 'NONE',  ( 0.0000000000000000000, 0.0000000000000000000, 1.000000000000000000 ) ) ;
#734 = LINE ( 'NONE', #298, #1168 ) ;
#735 = DIRECTION ( 'NONE',  ( -0.0000000000000000000, -1.000000000000000000, -0.0000000000000000000 ) ) ;
#736 = LINE ( 'NONE', #594, #352 ) ;
#737 = PLANE ( 'NONE',  #1247 ) ;
#738 = CIRCLE ( 'NONE', #219, 0.07999999999999998779 ) ;
#739 = EDGE_CURVE ( 'NONE', #197, #116, #222, .T. ) ;
#740 = EDGE_LOOP ( 'NONE', ( #418, #990, #390, #448 ) ) ;
#741 = EDGE_LOOP ( 'NONE', ( #876, #1244, #483 ) ) ;
#742 = ORIENTED_EDGE ( 'NONE', *, *, #642, .F. ) ;
#743 = ORIENTED_EDGE ( 'NONE', *, *, #1053, .F. ) ;
#744 = CARTESIAN_POINT ( 'NONE',  ( -1.519999999999999796, 0.07999999999999998779, -0.7999999999999999334 ) ) ;
#745 = AXIS2_PLACEMENT_3D ( 'NONE', #1127, #1030, #141 ) ;
#746 = DIRECTION ( 'NONE',  ( -1.355252715606881036E-16, -0.0000000000000000000, -1.000000000000000000 ) ) ;
#747 = CYLINDRICAL_SURFACE ( 'NONE', #937, 0.07999999999999998779 ) ;
#748 = CIRCLE ( 'NONE', #1197, 0.07999999999999998779 ) ;
#749 = VERTEX_POINT ( 'NONE', #862 ) ;
#750 = CARTESIAN_POINT ( 'NONE',  ( -0.9499999999999998446, 0.07999999999999998779, -0.7733333333333332060 ) ) ;
#751 = AXIS2_PLACEMENT_3D ( 'NONE', #299, #286, #886 ) ;
#752 = DIRECTION ( 'NONE',  ( 0.0000000000000000000, 0.0000000000000000000, -1.000000000000000000 ) ) ;
#753 = ADVANCED_FACE ( 'NONE', ( #143 ), #172, .T. ) ;
#754 = ORIENTED_EDGE ( 'NONE', *, *, #198, .T. ) ;
#755 = ORIENTED_EDGE ( 'NONE', *, *, #269, .T. ) ;
#756 = ORIENTED_EDGE ( 'NONE', *, *, #837, .T. ) ;
#757 = CARTESIAN_POINT ( 'NONE',  ( 0.9499999999999998446, 1.899999999999999911, -0.7999999999999999334 ) ) ;
#758 = DIRECTION ( 'NONE',  ( -0.0000000000000000000, -1.000000000000000000, -0.0000000000000000000 ) ) ;
#759 = CARTESIAN_POINT ( 'NONE',  ( 0.0000000000000000000, 1.899999999999999911, 0.0000000000000000000 ) ) ;
#760 = EDGE_CURVE ( 'NONE', #797, #1145, #764, .T. ) ;
#761 = AXIS2_PLACEMENT_3D ( 'NONE', #856, #276, #1159 ) ;
#762 = PLANE ( 'NONE',  #140 ) ;
#763 = VECTOR ( 'NONE', #728, 1000.000000000000000 ) ;
#764 = CIRCLE ( 'NONE', #208, 0.07999999999999998779 ) ;
#765 = DIRECTION ( 'NONE',  ( 1.355252715606880789E-16, -0.0000000000000000000, -1.000000000000000000 ) ) ;
#766 = SPHERICAL_SURFACE ( 'NONE', #1232, 0.08000000000000000167 ) ;
#767 = PRESENTATION_STYLE_ASSIGNMENT (( #869 ) ) ;
#768 = ORIENTED_EDGE ( 'NONE', *, *, #365, .F. ) ;
#769 = ORIENTED_EDGE ( 'NONE', *, *, #782, .T. ) ;
#770 = DIRECTION ( 'NONE',  ( -8.673617379884036705E-17, 0.0000000000000000000, -1.000000000000000000 ) ) ;
#771 = PLANE ( 'NONE',  #168 ) ;
#772 = CARTESIAN_POINT ( 'NONE',  ( -1.519999999999999574, 1.899999999999999911, 0.7199999999999997513 ) ) ;
#773 = DIRECTION ( 'NONE',  ( 1.000000000000000000, 0.0000000000000000000, -8.673617379884036705E-17 ) ) ;
#774 = EDGE_CURVE ( 'NONE', #495, #860, #534, .T. ) ;
#775 = PLANE ( 'NONE',  #629 ) ;
#776 = PRESENTATION_STYLE_ASSIGNMENT (( #672 ) ) ;
#777 = LINE ( 'NONE', #167, #19 ) ;
#778 = DIRECTION ( 'NONE',  ( 0.0000000000000000000, 0.0000000000000000000, 1.000000000000000000 ) ) ;
#779 = FACE_OUTER_BOUND ( 'NONE', #308, .T. ) ;
#780 = DIRECTION ( 'NONE',  ( 1.000000000000000000, 0.0000000000000000000, 0.0000000000000000000 ) ) ;
#781 = ORIENTED_EDGE ( 'NONE', *, *, #718, .T. ) ;
#782 = EDGE_CURVE ( 'NONE', #800, #1191, #683, .T. ) ;
#783 = DIRECTION ( 'NONE',  ( 0.0000000000000000000, 0.0000000000000000000, -1.000000000000000000 ) ) ;
#784 = ORIENTED_EDGE ( 'NONE', *, *, #311, .F. ) ;
#785 = AXIS2_PLACEMENT_3D ( 'NONE', #674, #1274, #94 ) ;
#786 = VERTEX_POINT ( 'NONE', #1245 ) ;
#787 = CARTESIAN_POINT ( 'NONE',  ( -1.519999999999999574, 0.0000000000000000000, 2.059984127722458918E-16 ) ) ;
#788 = DIRECTION ( 'NONE',  ( 0.0000000000000000000, 0.0000000000000000000, 1.000000000000000000 ) ) ;
#789 = ADVANCED_FACE ( 'NONE', ( #4 ), #475, .T. ) ;
#790 = DIRECTION ( 'NONE',  ( 1.000000000000000000, 0.0000000000000000000, 0.0000000000000000000 ) ) ;
#791 = AXIS2_PLACEMENT_3D ( 'NONE', #439, #824, #926 ) ;
#792 = CYLINDRICAL_SURFACE ( 'NONE', #894, 0.07999999999999998779 ) ;
#793 = FACE_OUTER_BOUND ( 'NONE', #357, .T. ) ;
#794 = CIRCLE ( 'NONE', #791, 0.05333333333333339921 ) ;
#795 = DIRECTION ( 'NONE',  ( 2.710505431213761479E-15, -1.000000000000000000, 0.0000000000000000000 ) ) ;
#796 = CARTESIAN_POINT ( 'NONE',  ( -1.519999999999999574, 1.899999999999999911, 0.7999999999999997113 ) ) ;
#797 = VERTEX_POINT ( 'NONE', #1057 ) ;
#798 = VERTEX_POINT ( 'NONE', #587 ) ;
#799 = ORIENTED_EDGE ( 'NONE', *, *, #251, .F. ) ;
#800 = VERTEX_POINT ( 'NONE', #1093 ) ;
#801 = EDGE_CURVE ( 'NONE', #1038, #725, #18, .T. ) ;
#802 = CARTESIAN_POINT ( 'NONE',  ( -1.599999999999999867, 0.07999999999999998779, -0.7199999999999999734 ) ) ;
#803 = CARTESIAN_POINT ( 'NONE',  ( -0.9499999999999998446, 0.07999999999999998779, -0.7199999999999999734 ) ) ;
#804 = DIRECTION ( 'NONE',  ( -1.000000000000000000, 0.0000000000000000000, 0.0000000000000000000 ) ) ;
#805 = FACE_OUTER_BOUND ( 'NONE', #465, .T. ) ;
#806 = DIRECTION ( 'NONE',  ( -1.000000000000000000, 0.0000000000000000000, 0.0000000000000000000 ) ) ;
#807 = CARTESIAN_POINT ( 'NONE',  ( 500000.0000000000582, 1.873333333333333295, -0.7200000000433681713 ) ) ;
#808 = AXIS2_PLACEMENT_3D ( 'NONE', #1054, #271, #955 ) ;
#809 = CYLINDRICAL_SURFACE ( 'NONE', #875, 0.07999999999999998779 ) ;
#810 = LINE ( 'NONE', #1195, #103 ) ;
#811 = ORIENTED_EDGE ( 'NONE', *, *, #954, .F. ) ;
#812 = ORIENTED_EDGE ( 'NONE', *, *, #35, .F. ) ;
#813 = ORIENTED_EDGE ( 'NONE', *, *, #739, .F. ) ;
#814 = ADVANCED_FACE ( 'NONE', ( #429 ), #747, .T. ) ;
#815 = ORIENTED_EDGE ( 'NONE', *, *, #322, .T. ) ;
#816 = AXIS2_PLACEMENT_3D ( 'NONE', #949, #570, #1251 ) ;
#817 = DIRECTION ( 'NONE',  ( 0.0000000000000000000, -1.000000000000000000, 0.0000000000000000000 ) ) ;
#818 = ADVANCED_FACE ( 'NONE', ( #304 ), #240, .T. ) ;
#819 = CARTESIAN_POINT ( 'NONE',  ( -1.519999999999999796, 1.820000000000000062, 0.7199999999999997513 ) ) ;
#820 = PRESENTATION_LAYER_ASSIGNMENT (  '', '', ( #913 ) ) ;
#821 = CARTESIAN_POINT ( 'NONE',  ( 500000.0000000000582, 1.820000000000000062, 0.7733333332899648971 ) ) ;
#822 = VECTOR ( 'NONE', #218, 1000.000000000000000 ) ;
#823 = EDGE_CURVE ( 'NONE', #923, #247, #39, .T. ) ;
#824 = DIRECTION ( 'NONE',  ( 1.000000000000000000, 0.0000000000000000000, -8.673617379884036705E-17 ) ) ;
#825 = CYLINDRICAL_SURFACE ( 'NONE', #1108, 0.05333333333333329512 ) ;
#826 = AXIS2_PLACEMENT_3D ( 'NONE', #411, #398, #602 ) ;
#827 = COLOUR_RGB ( '',0.7921568627450980005, 0.8196078431372548767, 0.9333333333333333481 ) ;
#828 = ADVANCED_FACE ( 'NONE', ( #793 ), #775, .F. ) ;
#829 = DIRECTION ( 'NONE',  ( 0.0000000000000000000, 0.0000000000000000000, 1.000000000000000000 ) ) ;
#830 = ORIENTED_EDGE ( 'NONE', *, *, #48, .F. ) ;
#831 = ORIENTED_EDGE ( 'NONE', *, *, #392, .T. ) ;
#832 = CARTESIAN_POINT ( 'NONE',  ( 500000.0000000000582, 0.02666666666666666838, 0.7199999999566315534 ) ) ;
#833 = CYLINDRICAL_SURFACE ( 'NONE', #826, 0.05333333333333329512 ) ;
#834 = DIRECTION ( 'NONE',  ( 0.0000000000000000000, 0.0000000000000000000, 1.000000000000000000 ) ) ;
#835 = LINE ( 'NONE', #821, #456 ) ;
#836 = VECTOR ( 'NONE', #765, 1000.000000000000000 ) ;
#837 = EDGE_CURVE ( 'NONE', #617, #436, #1015, .T. ) ;
#838 = VERTEX_POINT ( 'NONE', #1269 ) ;
#839 = MANIFOLD_SOLID_BREP ( 'Mirror2', #144 ) ;
#840 =( NAMED_UNIT ( * ) SI_UNIT ( $, .STERADIAN. ) SOLID_ANGLE_UNIT ( ) );
#841 = ORIENTED_EDGE ( 'NONE', *, *, #712, .T. ) ;
#842 = ORIENTED_EDGE ( 'NONE', *, *, #3, .T. ) ;
#843 = ORIENTED_EDGE ( 'NONE', *, *, #974, .T. ) ;
#844 = VERTEX_POINT ( 'NONE', #1090 ) ;
#845 = EDGE_CURVE ( 'NONE', #686, #147, #929, .T. ) ;
#846 = AXIS2_PLACEMENT_3D ( 'NONE', #1259, #485, #183 ) ;
#847 = DIRECTION ( 'NONE',  ( 0.0000000000000000000, 0.0000000000000000000, 1.000000000000000000 ) ) ;
#848 = DIRECTION ( 'NONE',  ( 1.000000000000000000, 0.0000000000000000000, 0.0000000000000000000 ) ) ;
#849 = CYLINDRICAL_SURFACE ( 'NONE', #613, 0.07999999999999998779 ) ;
#850 = CARTESIAN_POINT ( 'NONE',  ( 0.9499999999999998446, 0.0000000000000000000, -0.7999999999999999334 ) ) ;
#851 = CARTESIAN_POINT ( 'NONE',  ( 1.599999999999999867, 1.820000000000000062, -0.7999999999999999334 ) ) ;
#852 = PRESENTATION_STYLE_ASSIGNMENT (( #1049 ) ) ;
#853 = CIRCLE ( 'NONE', #1020, 0.07999999999999998779 ) ;
#854 =( LENGTH_UNIT ( ) NAMED_UNIT ( * ) SI_UNIT ( .MILLI., .METRE. ) );
#855 = LINE ( 'NONE', #268, #42 ) ;
#856 = CARTESIAN_POINT ( 'NONE',  ( -1.599999999999999645, 0.07999999999999998779, 0.7199999999999997513 ) ) ;
#857 = VERTEX_POINT ( 'NONE', #93 ) ;
#858 = UNCERTAINTY_MEASURE_WITH_UNIT (LENGTH_MEASURE( 1.000000000000000082E-05 ), #969, 'distance_accuracy_value', 'NONE');
#859 = EDGE_LOOP ( 'NONE', ( #646, #631, #200, #201 ) ) ;
#860 = VERTEX_POINT ( 'NONE', #1267 ) ;
#861 = EDGE_LOOP ( 'NONE', ( #1119, #908, #287, #510 ) ) ;
#862 = CARTESIAN_POINT ( 'NONE',  ( -0.9499999999999996225, 0.0000000000000000000, 0.7199999999999997513 ) ) ;
#863 = CARTESIAN_POINT ( 'NONE',  ( 1.519999999999999796, 0.07999999999999998779, -0.7999999999999999334 ) ) ;
#864 = DIRECTION ( 'NONE',  ( 0.0000000000000000000, 1.000000000000000000, 0.0000000000000000000 ) ) ;
#865 = EDGE_CURVE ( 'NONE', #326, #923, #998, .T. ) ;
#866 = CARTESIAN_POINT ( 'NONE',  ( -0.9499999999999998446, 0.0000000000000000000, -0.7199999999999999734 ) ) ;
#867 = DIRECTION ( 'NONE',  ( -1.355252715606881036E-16, 0.0000000000000000000, -1.000000000000000000 ) ) ;
#868 = FACE_OUTER_BOUND ( 'NONE', #186, .T. ) ;
#869 = SURFACE_STYLE_USAGE ( .BOTH. , #375 ) ;
#870 = CARTESIAN_POINT ( 'NONE',  ( 0.9499999999889041646, 0.07999999999999998779, -0.7200000000000001954 ) ) ;
#871 = FACE_OUTER_BOUND ( 'NONE', #859, .T. ) ;
#872 = CARTESIAN_POINT ( 'NONE',  ( -0.9499999999999998446, 1.873333333333333295, -0.7199999999999999734 ) ) ;
#873 = EDGE_LOOP ( 'NONE', ( #1072, #936, #582, #640 ) ) ;
#874 = ORIENTED_EDGE ( 'NONE', *, *, #1124, .T. ) ;
#875 = AXIS2_PLACEMENT_3D ( 'NONE', #863, #1252, #76 ) ;
#876 = ORIENTED_EDGE ( 'NONE', *, *, #347, .T. ) ;
#877 = ORIENTED_EDGE ( 'NONE', *, *, #1117, .T. ) ;
#878 = DIRECTION ( 'NONE',  ( -0.0000000000000000000, 1.000000000000000000, -0.0000000000000000000 ) ) ;
#879 = ADVANCED_FACE ( 'NONE', ( #717 ), #975, .T. ) ;
#880 = DIRECTION ( 'NONE',  ( 0.0000000000000000000, 0.0000000000000000000, 1.000000000000000000 ) ) ;
#881 = EDGE_CURVE ( 'NONE', #436, #453, #736, .T. ) ;
#882 = CARTESIAN_POINT ( 'NONE',  ( 1.519999999999999796, 1.899999999999999911, 0.7999999999999997113 ) ) ;
#883 = DIRECTION ( 'NONE',  ( -1.000000000000000000, -0.0000000000000000000, 8.673617379884036705E-17 ) ) ;
#884 = CYLINDRICAL_SURFACE ( 'NONE', #331, 0.07999999999999998779 ) ;
#885 = VECTOR ( 'NONE', #252, 1000.000000000000000 ) ;
#886 = DIRECTION ( 'NONE',  ( -2.710505431213761479E-15, 0.0000000000000000000, 1.000000000000000000 ) ) ;
#887 = LINE ( 'NONE', #1006, #983 ) ;
#888 = PRODUCT_RELATED_PRODUCT_CATEGORY ( 'part', '', ( #605 ) ) ;
#889 = EDGE_LOOP ( 'NONE', ( #274, #946, #630, #612 ) ) ;
#890 = ORIENTED_EDGE ( 'NONE', *, *, #404, .F. ) ;
#891 = EDGE_CURVE ( 'NONE', #11, #1206, #978, .T. ) ;
#892 = CARTESIAN_POINT ( 'NONE',  ( 0.0000000000000000000, 0.0000000000000000000, 0.0000000000000000000 ) ) ;
#893 = ORIENTED_EDGE ( 'NONE', *, *, #297, .T. ) ;
#894 = AXIS2_PLACEMENT_3D ( 'NONE', #724, #236, #1042 ) ;
#895 = VERTEX_POINT ( 'NONE', #1114 ) ;
#896 = DIRECTION ( 'NONE',  ( 0.0000000000000000000, 0.0000000000000000000, -1.000000000000000000 ) ) ;
#897 = DIRECTION ( 'NONE',  ( 1.000000000000000000, 0.0000000000000000000, 1.355252715606881036E-16 ) ) ;
#898 = PLANE ( 'NONE',  #1268 ) ;
#899 = CARTESIAN_POINT ( 'NONE',  ( 1.519999999999999574, 0.0000000000000000000, 2.059984127722458918E-16 ) ) ;
#900 = CARTESIAN_POINT ( 'NONE',  ( -1.599999999999999645, 1.899999999999999911, 0.7999999999999997113 ) ) ;
#901 = PRESENTATION_LAYER_ASSIGNMENT (  '', '', ( #1153 ) ) ;
#902 = FACE_OUTER_BOUND ( 'NONE', #12, .T. ) ;
#903 = LINE ( 'NONE', #332, #220 ) ;
#904 = CYLINDRICAL_SURFACE ( 'NONE', #1029, 0.07999999999999998779 ) ;
#905 = CARTESIAN_POINT ( 'NONE',  ( 1.519999999999999574, 1.820000000000000062, 0.7999999999999997113 ) ) ;
#906 = EDGE_LOOP ( 'NONE', ( #1234, #1192, #373, #706, #830, #1231, #993, #742 ) ) ;
#907 = EDGE_LOOP ( 'NONE', ( #1220, #258, #8 ) ) ;
#908 = ORIENTED_EDGE ( 'NONE', *, *, #452, .T. ) ;
#909 = ORIENTED_EDGE ( 'NONE', *, *, #692, .F. ) ;
#910 = AXIS2_PLACEMENT_3D ( 'NONE', #1241, #468, #752 ) ;
#911 = DIRECTION ( 'NONE',  ( 1.000000000000000000, 0.0000000000000000000, -8.673617379884036705E-17 ) ) ;
#912 = EDGE_LOOP ( 'NONE', ( #328, #422, #754, #1052, #527, #1211, #968, #781 ) ) ;
#913 = STYLED_ITEM ( 'NONE', ( #716 ), #409 ) ;
#914 = DIRECTION ( 'NONE',  ( 0.0000000000000000000, 1.000000000000000000, 0.0000000000000000000 ) ) ;
#915 = EDGE_CURVE ( 'NONE', #710, #857, #1141, .T. ) ;
#916 = PRESENTATION_LAYER_ASSIGNMENT (  '', '', ( #189 ) ) ;
#917 = FACE_OUTER_BOUND ( 'NONE', #641, .T. ) ;
#918 = DIRECTION ( 'NONE',  ( -1.000000000000000000, -0.0000000000000000000, 8.673617379884036705E-17 ) ) ;
#919 = FACE_OUTER_BOUND ( 'NONE', #740, .T. ) ;
#920 = CARTESIAN_POINT ( 'NONE',  ( -0.9499999999999996225, 1.899999999999999911, 0.7199999999999997513 ) ) ;
#921 = CARTESIAN_POINT ( 'NONE',  ( -1.519999999999999574, 0.0000000000000000000, 0.7199999999999997513 ) ) ;
#922 = ORIENTED_EDGE ( 'NONE', *, *, #112, .T. ) ;
#923 = VERTEX_POINT ( 'NONE', #1221 ) ;
#924 = AXIS2_PLACEMENT_3D ( 'NONE', #985, #399, #196 ) ;
#925 = CARTESIAN_POINT ( 'NONE',  ( 1.599999999999999867, 0.07999999999999998779, -0.7999999999999999334 ) ) ;
#926 = DIRECTION ( 'NONE',  ( 0.0000000000000000000, 0.0000000000000000000, -1.000000000000000000 ) ) ;
#927 = FACE_OUTER_BOUND ( 'NONE', #1069, .T. ) ;
#928 = EDGE_CURVE ( 'NONE', #1258, #617, #283, .T. ) ;
#929 = LINE ( 'NONE', #882, #444 ) ;
#930 = DIRECTION ( 'NONE',  ( 0.0000000000000000000, 0.0000000000000000000, 1.000000000000000000 ) ) ;
#931 = CIRCLE ( 'NONE', #910, 0.05333333333333339921 ) ;
#932 = ORIENTED_EDGE ( 'NONE', *, *, #694, .T. ) ;
#933 = CARTESIAN_POINT ( 'NONE',  ( -0.9499999999999998446, 1.899999999999999911, -0.7999999999999999334 ) ) ;
#934 = EDGE_LOOP ( 'NONE', ( #1037, #1087, #56 ) ) ;
#935 = ORIENTED_EDGE ( 'NONE', *, *, #1150, .F. ) ;
#936 = ORIENTED_EDGE ( 'NONE', *, *, #1164, .F. ) ;
#937 = AXIS2_PLACEMENT_3D ( 'NONE', #772, #90, #86 ) ;
#938 = CARTESIAN_POINT ( 'NONE',  ( -1.599999999999999867, 0.07999999999999998779, -0.7199999999999999734 ) ) ;
#939 = DIRECTION ( 'NONE',  ( 0.0000000000000000000, -1.000000000000000000, 0.0000000000000000000 ) ) ;
#940 = LINE ( 'NONE', #851, #885 ) ;
#941 = AXIS2_PLACEMENT_3D ( 'NONE', #680, #994, #497 ) ;
#942 = LINE ( 'NONE', #5, #159 ) ;
#943 = DIRECTION ( 'NONE',  ( -0.0000000000000000000, -1.000000000000000000, -0.0000000000000000000 ) ) ;
#944 = ORIENTED_EDGE ( 'NONE', *, *, #1142, .T. ) ;
#945 = DIRECTION ( 'NONE',  ( 1.000000000000000000, -0.0000000000000000000, -0.0000000000000000000 ) ) ;
#946 = ORIENTED_EDGE ( 'NONE', *, *, #1224, .F. ) ;
#947 = EDGE_LOOP ( 'NONE', ( #922, #970, #1242, #595 ) ) ;
#948 = DIRECTION ( 'NONE',  ( 0.0000000000000000000, 0.0000000000000000000, -1.000000000000000000 ) ) ;
#949 = CARTESIAN_POINT ( 'NONE',  ( 0.9499999999999998446, 1.820000000000000062, -0.7199999999999999734 ) ) ;
#950 = EDGE_CURVE ( 'NONE', #354, #552, #546, .T. ) ;
#951 = AXIS2_PLACEMENT_3D ( 'NONE', #1005, #790, #880 ) ;
#952 = CARTESIAN_POINT ( 'NONE',  ( 0.0000000000000000000, 0.0000000000000000000, 0.7199999999999997513 ) ) ;
#953 = FILL_AREA_STYLE ('',( #449 ) ) ;
#954 = EDGE_CURVE ( 'NONE', #786, #690, #1170, .T. ) ;
#955 = DIRECTION ( 'NONE',  ( 0.0000000000000000000, 0.0000000000000000000, -1.000000000000000000 ) ) ;
#956 = LINE ( 'NONE', #477, #1081 ) ;
#957 = DIRECTION ( 'NONE',  ( 0.0000000000000000000, 0.0000000000000000000, 1.000000000000000000 ) ) ;
#958 = LINE ( 'NONE', #228, #625 ) ;
#959 = DIRECTION ( 'NONE',  ( -1.000000000000000000, 0.0000000000000000000, 0.0000000000000000000 ) ) ;
#960 = EDGE_LOOP ( 'NONE', ( #58, #1175, #67 ) ) ;
#961 = CARTESIAN_POINT ( 'NONE',  ( 0.9499999999889041646, 0.07999999999999998779, -0.7733333333333334281 ) ) ;
#962 = EDGE_CURVE ( 'NONE', #46, #1146, #903, .T. ) ;
#963 = ORIENTED_EDGE ( 'NONE', *, *, #467, .T. ) ;
#964 = CARTESIAN_POINT ( 'NONE',  ( 0.9499999999889041646, 0.02666666666666668573, 0.7199999999999995293 ) ) ;
#965 = CARTESIAN_POINT ( 'NONE',  ( 0.9499999999999996225, 1.899999999999999911, 0.7199999999999997513 ) ) ;
#966 = CARTESIAN_POINT ( 'NONE',  ( 0.9499999999889041646, 1.820000000000000062, 0.7733333333333328730 ) ) ;
#967 = EDGE_LOOP ( 'NONE', ( #513, #877, #676, #312 ) ) ;
#968 = ORIENTED_EDGE ( 'NONE', *, *, #801, .T. ) ;
#969 =( LENGTH_UNIT ( ) NAMED_UNIT ( * ) SI_UNIT ( .MILLI., .METRE. ) );
#970 = ORIENTED_EDGE ( 'NONE', *, *, #1150, .T. ) ;
#971 = PLANE ( 'NONE',  #433 ) ;
#972 = ADVANCED_FACE ( 'NONE', ( #638 ), #634, .F. ) ;
#973 = DIRECTION ( 'NONE',  ( -1.000000000000000000, 0.0000000000000000000, 0.0000000000000000000 ) ) ;
#974 = EDGE_CURVE ( 'NONE', #91, #257, #835, .T. ) ;
#975 = PLANE ( 'NONE',  #504 ) ;
#976 = SURFACE_STYLE_FILL_AREA ( #511 ) ;
#977 = CARTESIAN_POINT ( 'NONE',  ( 1.519999999999999796, 1.899999999999999911, 0.7199999999999997513 ) ) ;
#978 = CIRCLE ( 'NONE', #235, 0.07999999999999998779 ) ;
#979 = ADVANCED_FACE ( 'NONE', ( #320 ), #737, .F. ) ;
#980 =( GEOMETRIC_REPRESENTATION_CONTEXT ( 3 ) GLOBAL_UNCERTAINTY_ASSIGNED_CONTEXT ( ( #1077 ) ) GLOBAL_UNIT_ASSIGNED_CONTEXT ( ( #996, #698, #1109 ) ) REPRESENTATION_CONTEXT ( 'NONE', 'WORKASPACE' ) );
#981 = SURFACE_STYLE_FILL_AREA ( #151 ) ;
#982 = DIRECTION ( 'NONE',  ( -1.355252715606881036E-16, 0.0000000000000000000, -1.000000000000000000 ) ) ;
#983 = VECTOR ( 'NONE', #1105, 1000.000000000000000 ) ;
#984 = EDGE_CURVE ( 'NONE', #704, #895, #1255, .T. ) ;
#985 = CARTESIAN_POINT ( 'NONE',  ( 1.520000000000000018, 1.820000000000000062, -0.7199999999999999734 ) ) ;
#986 = ORIENTED_EDGE ( 'NONE', *, *, #347, .F. ) ;
#987 = PRODUCT_DEFINITION_SHAPE ( 'NONE', 'NONE',  #633 ) ;
#988 =( NAMED_UNIT ( * ) PLANE_ANGLE_UNIT ( ) SI_UNIT ( $, .RADIAN. ) );
#989 = MECHANICAL_DESIGN_GEOMETRIC_PRESENTATION_REPRESENTATION (  '', ( #651 ), #396 ) ;
#990 = ORIENTED_EDGE ( 'NONE', *, *, #410, .T. ) ;
#991 = ADVANCED_FACE ( 'NONE', ( #384 ), #1238, .T. ) ;
#992 = ORIENTED_EDGE ( 'NONE', *, *, #204, .F. ) ;
#993 = ORIENTED_EDGE ( 'NONE', *, *, #435, .F. ) ;
#994 = DIRECTION ( 'NONE',  ( 0.0000000000000000000, -1.000000000000000000, 0.0000000000000000000 ) ) ;
#995 = AXIS2_PLACEMENT_3D ( 'NONE', #114, #318, #21 ) ;
#996 =( LENGTH_UNIT ( ) NAMED_UNIT ( * ) SI_UNIT ( .MILLI., .METRE. ) );
#997 = FACE_OUTER_BOUND ( 'NONE', #1177, .T. ) ;
#998 = LINE ( 'NONE', #487, #519 ) ;
#999 = CARTESIAN_POINT ( 'NONE',  ( 0.9499999999889041646, 0.02666666666666666838, -0.7200000000000001954 ) ) ;
#1000 = DIRECTION ( 'NONE',  ( 0.0000000000000000000, 0.0000000000000000000, 1.000000000000000000 ) ) ;
#1001 = CIRCLE ( 'NONE', #1092, 0.07999999999999998779 ) ;
#1002 = VERTEX_POINT ( 'NONE', #921 ) ;
#1003 = ORIENTED_EDGE ( 'NONE', *, *, #1008, .T. ) ;
#1004 = EDGE_CURVE ( 'NONE', #436, #552, #190, .T. ) ;
#1005 = CARTESIAN_POINT ( 'NONE',  ( 0.0000000000000000000, 1.820000000000000062, 0.7199999999999997513 ) ) ;
#1006 = CARTESIAN_POINT ( 'NONE',  ( -1.599999999999999645, 1.820000000000000062, 0.7999999999999997113 ) ) ;
#1007 = ORIENTED_EDGE ( 'NONE', *, *, #1253, .T. ) ;
#1008 = EDGE_CURVE ( 'NONE', #797, #1067, #82, .T. ) ;
#1009 = APPLICATION_PROTOCOL_DEFINITION ( 'draft international standard', 'automotive_design', 1998, #315 ) ;
#1010 = DIRECTION ( 'NONE',  ( 1.000000000000000000, -0.0000000000000000000, 0.0000000000000000000 ) ) ;
#1011 = ADVANCED_FACE ( 'NONE', ( #575 ), #792, .T. ) ;
#1012 = DIRECTION ( 'NONE',  ( -1.000000000000000000, 0.0000000000000000000, 0.0000000000000000000 ) ) ;
#1013 = DIRECTION ( 'NONE',  ( -1.000000000000000000, -0.0000000000000000000, -0.0000000000000000000 ) ) ;
#1014 = AXIS2_PLACEMENT_3D ( 'NONE', #428, #30, #126 ) ;
#1015 = LINE ( 'NONE', #301, #1214 ) ;
#1016 = VECTOR ( 'NONE', #461, 1000.000000000000000 ) ;
#1017 = CARTESIAN_POINT ( 'NONE',  ( 1.519999999999999796, 1.820000000000000062, -0.7199999999999999734 ) ) ;
#1018 = LINE ( 'NONE', #237, #368 ) ;
#1019 = EDGE_LOOP ( 'NONE', ( #1050, #121, #1089, #1051 ) ) ;
#1020 = AXIS2_PLACEMENT_3D ( 'NONE', #1126, #1026, #733 ) ;
#1021 = CARTESIAN_POINT ( 'NONE',  ( -0.9499999999999998446, 0.02666666666666666838, -0.7199999999999999734 ) ) ;
#1022 = ORIENTED_EDGE ( 'NONE', *, *, #96, .T. ) ;
#1023 = EDGE_LOOP ( 'NONE', ( #1178, #462, #542, #346 ) ) ;
#1024 = CARTESIAN_POINT ( 'NONE',  ( -1.519999999999999574, 1.820000000000000062, 0.7199999999999997513 ) ) ;
#1025 = DIRECTION ( 'NONE',  ( 1.000000000000000000, -0.0000000000000000000, -0.0000000000000000000 ) ) ;
#1026 = DIRECTION ( 'NONE',  ( -0.0000000000000000000, -1.000000000000000000, -0.0000000000000000000 ) ) ;
#1027 = EDGE_CURVE ( 'NONE', #275, #786, #506, .T. ) ;
#1028 = LINE ( 'NONE', #1125, #822 ) ;
#1029 = AXIS2_PLACEMENT_3D ( 'NONE', #362, #1056, #1058 ) ;
#1030 = DIRECTION ( 'NONE',  ( 0.0000000000000000000, 1.000000000000000000, 0.0000000000000000000 ) ) ;
#1031 = UNCERTAINTY_MEASURE_WITH_UNIT (LENGTH_MEASURE( 1.000000000000000082E-05 ), #413, 'distance_accuracy_value', 'NONE');
#1032 = VECTOR ( 'NONE', #32, 1000.000000000000000 ) ;
#1033 = EDGE_LOOP ( 'NONE', ( #117, #815, #893, #992 ) ) ;
#1034 = CARTESIAN_POINT ( 'NONE',  ( 1.519999999999999796, 0.07999999999999998779, -0.7199999999999999734 ) ) ;
#1035 = EDGE_LOOP ( 'NONE', ( #597, #935, #1222, #407 ) ) ;
#1036 = ORIENTED_EDGE ( 'NONE', *, *, #732, .T. ) ;
#1037 = ORIENTED_EDGE ( 'NONE', *, *, #984, .T. ) ;
#1038 = VERTEX_POINT ( 'NONE', #999 ) ;
#1039 = AXIS2_PLACEMENT_3D ( 'NONE', #803, #911, #216 ) ;
#1040 = DIRECTION ( 'NONE',  ( 1.000000000000000000, 0.0000000000000000000, 0.0000000000000000000 ) ) ;
#1041 = DIRECTION ( 'NONE',  ( -1.000000000000000000, 0.0000000000000000000, 0.0000000000000000000 ) ) ;
#1042 = DIRECTION ( 'NONE',  ( 0.0000000000000000000, 0.0000000000000000000, 1.000000000000000000 ) ) ;
#1043 = CYLINDRICAL_SURFACE ( 'NONE', #689, 0.07999999999999998779 ) ;
#1044 = AXIS2_PLACEMENT_3D ( 'NONE', #386, #75, #264 ) ;
#1045 =( LENGTH_UNIT ( ) NAMED_UNIT ( * ) SI_UNIT ( .MILLI., .METRE. ) );
#1046 = CYLINDRICAL_SURFACE ( 'NONE', #761, 0.07999999999999998779 ) ;
#1047 = LINE ( 'NONE', #729, #535 ) ;
#1048 = ORIENTED_EDGE ( 'NONE', *, *, #1139, .F. ) ;
#1049 = SURFACE_STYLE_USAGE ( .BOTH. , #1151 ) ;
#1050 = ORIENTED_EDGE ( 'NONE', *, *, #915, .F. ) ;
#1051 = ORIENTED_EDGE ( 'NONE', *, *, #410, .F. ) ;
#1052 = ORIENTED_EDGE ( 'NONE', *, *, #68, .T. ) ;
#1053 = EDGE_CURVE ( 'NONE', #1002, #1132, #622, .T. ) ;
#1054 = CARTESIAN_POINT ( 'NONE',  ( 1.519999999999999574, 1.899999999999999911, 0.7199999999999997513 ) ) ;
#1055 = AXIS2_PLACEMENT_3D ( 'NONE', #1133, #1123, #529 ) ;
#1056 = DIRECTION ( 'NONE',  ( 1.355252715606881036E-16, 0.0000000000000000000, -1.000000000000000000 ) ) ;
#1057 = CARTESIAN_POINT ( 'NONE',  ( 1.519999999999999796, 0.0000000000000000000, -0.7199999999999999734 ) ) ;
#1058 = DIRECTION ( 'NONE',  ( 1.000000000000000000, 0.0000000000000000000, 1.355252715606879063E-16 ) ) ;
#1059 = SPHERICAL_SURFACE ( 'NONE', #544, 0.08000000000000000167 ) ;
#1060 = CARTESIAN_POINT ( 'NONE',  ( -0.9499999999999998446, 1.820000000000000062, -0.7199999999999999734 ) ) ;
#1061 = ADVANCED_FACE ( 'NONE', ( #902 ), #833, .T. ) ;
#1062 = VECTOR ( 'NONE', #367, 1000.000000000000000 ) ;
#1063 = ADVANCED_FACE ( 'NONE', ( #36 ), #207, .T. ) ;
#1064 = EDGE_CURVE ( 'NONE', #1206, #275, #734, .T. ) ;
#1065 = CIRCLE ( 'NONE', #509, 0.07999999999999998779 ) ;
#1066 = CARTESIAN_POINT ( 'NONE',  ( -0.9499999999999998446, 1.820000000000000062, -0.7999999999999999334 ) ) ;
#1067 = VERTEX_POINT ( 'NONE', #503 ) ;
#1068 = PLANE ( 'NONE',  #1172 ) ;
#1069 = EDGE_LOOP ( 'NONE', ( #731, #756, #293, #932 ) ) ;
#1070 = CARTESIAN_POINT ( 'NONE',  ( 1.519999999999999796, 0.08000000000000000167, -0.7199999999999999734 ) ) ;
#1071 = ORIENTED_EDGE ( 'NONE', *, *, #31, .T. ) ;
#1072 = ORIENTED_EDGE ( 'NONE', *, *, #712, .F. ) ;
#1073 = CARTESIAN_POINT ( 'NONE',  ( -1.519999999999999796, 0.07999999999999998779, -0.7999999999999999334 ) ) ;
#1074 = ADVANCED_FACE ( 'NONE', ( #1184 ), #557, .T. ) ;
#1075 = DIRECTION ( 'NONE',  ( 0.0000000000000000000, -1.000000000000000000, 0.0000000000000000000 ) ) ;
#1076 = EDGE_CURVE ( 'NONE', #860, #797, #99, .T. ) ;
#1077 = UNCERTAINTY_MEASURE_WITH_UNIT (LENGTH_MEASURE( 1.000000000000000082E-05 ), #996, 'distance_accuracy_value', 'NONE');
#1078 = DIRECTION ( 'NONE',  ( -1.000000000000000000, 0.0000000000000000000, 0.0000000000000000000 ) ) ;
#1079 = CARTESIAN_POINT ( 'NONE',  ( 1.520000000000000018, 1.899999999999999911, -0.7199999999999999734 ) ) ;
#1080 = EDGE_CURVE ( 'NONE', #895, #541, #127, .T. ) ;
#1081 = VECTOR ( 'NONE', #1166, 1000.000000000000000 ) ;
#1082 = DIRECTION ( 'NONE',  ( 0.0000000000000000000, 0.0000000000000000000, 1.000000000000000000 ) ) ;
#1083 = CYLINDRICAL_SURFACE ( 'NONE', #558, 0.07999999999999998779 ) ;
#1084 = DIRECTION ( 'NONE',  ( 0.0000000000000000000, 0.0000000000000000000, -1.000000000000000000 ) ) ;
#1085 = VECTOR ( 'NONE', #350, 1000.000000000000000 ) ;
#1086 = AXIS2_PLACEMENT_3D ( 'NONE', #1017, #620, #233 ) ;
#1087 = ORIENTED_EDGE ( 'NONE', *, *, #1080, .T. ) ;
#1088 = DIRECTION ( 'NONE',  ( 0.0000000000000000000, -1.000000000000000000, 0.0000000000000000000 ) ) ;
#1089 = ORIENTED_EDGE ( 'NONE', *, *, #642, .T. ) ;
#1090 = CARTESIAN_POINT ( 'NONE',  ( -0.9499999999999996225, 1.873333333333333295, 0.7199999999999997513 ) ) ;
#1091 = EDGE_LOOP ( 'NONE', ( #500, #512, #627 ) ) ;
#1092 = AXIS2_PLACEMENT_3D ( 'NONE', #1034, #333, #1225 ) ;
#1093 = CARTESIAN_POINT ( 'NONE',  ( -0.9499999999999998446, 0.07999999999999998779, -0.7733333333333332060 ) ) ;
#1094 = DIRECTION ( 'NONE',  ( -1.000000000000000000, -0.0000000000000000000, 8.673617379884036705E-17 ) ) ;
#1095 = ADVANCED_FACE ( 'NONE', ( #1128 ), #637, .T. ) ;
#1096 = LINE ( 'NONE', #652, #560 ) ;
#1097 =( NAMED_UNIT ( * ) PLANE_ANGLE_UNIT ( ) SI_UNIT ( $, .RADIAN. ) );
#1098 = FACE_OUTER_BOUND ( 'NONE', #907, .T. ) ;
#1099 = UNCERTAINTY_MEASURE_WITH_UNIT (LENGTH_MEASURE( 1.000000000000000082E-05 ), #1045, 'distance_accuracy_value', 'NONE');
#1100 = EDGE_CURVE ( 'NONE', #798, #1191, #1028, .T. ) ;
#1101 = EDGE_LOOP ( 'NONE', ( #421, #1104, #1048, #1246, #841, #466, #225, #484 ) ) ;
#1102 = AXIS2_PLACEMENT_3D ( 'NONE', #1249, #63, #470 ) ;
#1103 = ORIENTED_EDGE ( 'NONE', *, *, #739, .T. ) ;
#1104 = ORIENTED_EDGE ( 'NONE', *, *, #392, .F. ) ;
#1105 = DIRECTION ( 'NONE',  ( -1.000000000000000000, -0.0000000000000000000, -0.0000000000000000000 ) ) ;
#1106 = CARTESIAN_POINT ( 'NONE',  ( 1.599999999999999645, 1.820000000000000062, 0.7999999999999997113 ) ) ;
#1107 = DIRECTION ( 'NONE',  ( -1.000000000000000000, -0.0000000000000000000, 8.673617379884036705E-17 ) ) ;
#1108 = AXIS2_PLACEMENT_3D ( 'NONE', #28, #720, #16 ) ;
#1109 =( NAMED_UNIT ( * ) SI_UNIT ( $, .STERADIAN. ) SOLID_ANGLE_UNIT ( ) );
#1110 = VECTOR ( 'NONE', #130, 1000.000000000000000 ) ;
#1111 = ADVANCED_FACE ( 'NONE', ( #653 ), #591, .T. ) ;
#1112 = CARTESIAN_POINT ( 'NONE',  ( 1.599999999999999867, 1.899999999999999911, -0.7999999999999999334 ) ) ;
#1113 = LINE ( 'NONE', #757, #836 ) ;
#1114 = CARTESIAN_POINT ( 'NONE',  ( -1.519999999999999574, 1.820000000000000062, 0.7999999999999997113 ) ) ;
#1115 = ADVANCED_FACE ( 'NONE', ( #868 ), #849, .T. ) ;
#1116 = ORIENTED_EDGE ( 'NONE', *, *, #404, .T. ) ;
#1117 = EDGE_CURVE ( 'NONE', #1132, #1258, #667, .T. ) ;
#1118 = CARTESIAN_POINT ( 'NONE',  ( -1.519999999999999796, 0.08000000000000000167, -0.7199999999999999734 ) ) ;
#1119 = ORIENTED_EDGE ( 'NONE', *, *, #1263, .F. ) ;
#1120 = ORIENTED_EDGE ( 'NONE', *, *, #950, .F. ) ;
#1121 = CARTESIAN_POINT ( 'NONE',  ( 0.0000000000000000000, 0.0000000000000000000, -0.7199999999999999734 ) ) ;
#1122 = CARTESIAN_POINT ( 'NONE',  ( 1.519999999999999574, 1.820000000000000062, 0.7199999999999997513 ) ) ;
#1123 = DIRECTION ( 'NONE',  ( 1.000000000000000000, -0.0000000000000000000, -1.355252715606881036E-16 ) ) ;
#1124 = EDGE_CURVE ( 'NONE', #528, #704, #400, .T. ) ;
#1125 = CARTESIAN_POINT ( 'NONE',  ( 500000.0000000000582, 1.819999999999999618, -0.7733333333767014039 ) ) ;
#1126 = CARTESIAN_POINT ( 'NONE',  ( -1.519999999999999796, 1.820000000000000062, -0.7199999999999999734 ) ) ;
#1127 = CARTESIAN_POINT ( 'NONE',  ( -1.519999999999999796, 0.07999999999999998779, -0.7199999999999999734 ) ) ;
#1128 = FACE_OUTER_BOUND ( 'NONE', #536, .T. ) ;
#1129 = FACE_OUTER_BOUND ( 'NONE', #906, .T. ) ;
#1130 = CARTESIAN_POINT ( 'NONE',  ( 500000.0000000000582, 1.820000000000000062, 0.7199999999566315534 ) ) ;
#1131 = FACE_OUTER_BOUND ( 'NONE', #960, .T. ) ;
#1132 = VERTEX_POINT ( 'NONE', #221 ) ;
#1133 = CARTESIAN_POINT ( 'NONE',  ( -0.9499999999999998446, 0.07999999999999998779, -0.7199999999999999734 ) ) ;
#1134 = AXIS2_PLACEMENT_3D ( 'NONE', #1233, #135, #834 ) ;
#1135 = DIRECTION ( 'NONE',  ( 0.0000000000000000000, -0.0000000000000000000, 1.000000000000000000 ) ) ;
#1136 = EDGE_LOOP ( 'NONE', ( #909, #342, #1273, #585 ) ) ;
#1137 = ORIENTED_EDGE ( 'NONE', *, *, #1027, .F. ) ;
#1138 = DIRECTION ( 'NONE',  ( -1.000000000000000000, -0.0000000000000000000, 8.673617379884036705E-17 ) ) ;
#1139 = EDGE_CURVE ( 'NONE', #87, #310, #1254, .T. ) ;
#1140 = VECTOR ( 'NONE', #1078, 1000.000000000000000 ) ;
#1141 = LINE ( 'NONE', #618, #415 ) ;
#1142 = EDGE_CURVE ( 'NONE', #860, #923, #414, .T. ) ;
#1143 = LINE ( 'NONE', #1066, #366 ) ;
#1144 = CARTESIAN_POINT ( 'NONE',  ( -0.9499999999999996225, 0.07999999999999998779, 0.7199999999999997513 ) ) ;
#1145 = VERTEX_POINT ( 'NONE', #719 ) ;
#1146 = VERTEX_POINT ( 'NONE', #1021 ) ;
#1147 = ADVANCED_FACE ( 'NONE', ( #533 ), #382, .T. ) ;
#1148 = AXIS2_PLACEMENT_3D ( 'NONE', #215, #526, #708 ) ;
#1149 = ORIENTED_EDGE ( 'NONE', *, *, #823, .F. ) ;
#1150 = EDGE_CURVE ( 'NONE', #87, #326, #505, .T. ) ;
#1151 = SURFACE_SIDE_STYLE ('',( #981 ) ) ;
#1152 = DIRECTION ( 'NONE',  ( -1.355252715606880789E-16, -0.0000000000000000000, -1.000000000000000000 ) ) ;
#1153 = STYLED_ITEM ( 'NONE', ( #767 ), #15 ) ;
#1154 = LINE ( 'NONE', #568, #50 ) ;
#1155 = CYLINDRICAL_SURFACE ( 'NONE', #1226, 0.07999999999999998779 ) ;
#1156 = VECTOR ( 'NONE', #1198, 1000.000000000000000 ) ;
#1157 = PLANE ( 'NONE',  #1180 ) ;
#1158 = VECTOR ( 'NONE', #959, 1000.000000000000000 ) ;
#1159 = DIRECTION ( 'NONE',  ( 0.0000000000000000000, 0.0000000000000000000, -1.000000000000000000 ) ) ;
#1160 = DIRECTION ( 'NONE',  ( 1.000000000000000000, -0.0000000000000000000, -1.355252715606881036E-16 ) ) ;
#1161 = CARTESIAN_POINT ( 'NONE',  ( -1.599999999999999867, 1.899999999999999911, -0.7199999999999999734 ) ) ;
#1162 = ORIENTED_EDGE ( 'NONE', *, *, #118, .T. ) ;
#1163 = ORIENTED_EDGE ( 'NONE', *, *, #452, .F. ) ;
#1164 = EDGE_CURVE ( 'NONE', #147, #673, #62, .T. ) ;
#1165 = AXIS2_PLACEMENT_3D ( 'NONE', #661, #65, #250 ) ;
#1166 = DIRECTION ( 'NONE',  ( 1.355252715606881036E-16, 0.0000000000000000000, -1.000000000000000000 ) ) ;
#1167 = DIRECTION ( 'NONE',  ( 1.355252715606881036E-16, -0.0000000000000000000, 1.000000000000000000 ) ) ;
#1168 = VECTOR ( 'NONE', #97, 1000.000000000000000 ) ;
#1169 = CARTESIAN_POINT ( 'NONE',  ( 0.9499999999889041646, 0.08000000000000086209, 0.7733333333333327619 ) ) ;
#1170 = LINE ( 'NONE', #925, #253 ) ;
#1171 = CARTESIAN_POINT ( 'NONE',  ( 500000.0000000000582, 1.820000000000000062, 0.7733333332899647861 ) ) ;
#1172 = AXIS2_PLACEMENT_3D ( 'NONE', #486, #864, #273 ) ;
#1173 = DIRECTION ( 'NONE',  ( -1.000000000000000000, 0.0000000000000000000, 0.0000000000000000000 ) ) ;
#1174 = ORIENTED_EDGE ( 'NONE', *, *, #718, .F. ) ;
#1175 = ORIENTED_EDGE ( 'NONE', *, *, #586, .T. ) ;
#1176 = EDGE_LOOP ( 'NONE', ( #539, #229, #659, #687 ) ) ;
#1177 = EDGE_LOOP ( 'NONE', ( #356, #260, #1022, #874 ) ) ;
#1178 = ORIENTED_EDGE ( 'NONE', *, *, #1076, .F. ) ;
#1179 = DIRECTION ( 'NONE',  ( 1.355252715606881036E-16, -0.0000000000000000000, 1.000000000000000000 ) ) ;
#1180 = AXIS2_PLACEMENT_3D ( 'NONE', #759, #555, #1257 ) ;
#1181 = DIRECTION ( 'NONE',  ( 0.0000000000000000000, 1.000000000000000000, 0.0000000000000000000 ) ) ;
#1182 = CARTESIAN_POINT ( 'NONE',  ( -1.599999999999999867, 1.899999999999999911, -0.7999999999999999334 ) ) ;
#1183 = DIRECTION ( 'NONE',  ( -1.000000000000000000, 0.0000000000000000000, 0.0000000000000000000 ) ) ;
#1184 = FACE_OUTER_BOUND ( 'NONE', #1275, .T. ) ;
#1185 = EDGE_CURVE ( 'NONE', #541, #197, #573, .T. ) ;
#1186 = CIRCLE ( 'NONE', #1189, 0.07999999999999998779 ) ;
#1187 = DIRECTION ( 'NONE',  ( 0.0000000000000000000, 0.0000000000000000000, 1.000000000000000000 ) ) ;
#1188 = CIRCLE ( 'NONE', #263, 0.07999999999999998779 ) ;
#1189 = AXIS2_PLACEMENT_3D ( 'NONE', #455, #943, #261 ) ;
#1190 = CARTESIAN_POINT ( 'NONE',  ( 0.9499999999889041646, 1.820000000000000062, 0.7199999999999995293 ) ) ;
#1191 = VERTEX_POINT ( 'NONE', #520 ) ;
#1192 = ORIENTED_EDGE ( 'NONE', *, *, #782, .F. ) ;
#1193 = CARTESIAN_POINT ( 'NONE',  ( 0.0000000000000000000, 0.0000000000000000000, 0.0000000000000000000 ) ) ;
#1194 = CARTESIAN_POINT ( 'NONE',  ( -1.519999999999999574, 1.820000000000000062, 0.7199999999999997513 ) ) ;
#1195 = CARTESIAN_POINT ( 'NONE',  ( 1.519999999999999796, 1.899999999999999911, -0.7999999999999999334 ) ) ;
#1196 = ADVANCED_FACE ( 'NONE', ( #111 ), #884, .T. ) ;
#1197 = AXIS2_PLACEMENT_3D ( 'NONE', #1118, #417, #309 ) ;
#1198 = DIRECTION ( 'NONE',  ( -1.355252715606880789E-16, -0.0000000000000000000, -1.000000000000000000 ) ) ;
#1199 = COLOUR_RGB ( '',0.7921568627450980005, 0.8196078431372548767, 0.9333333333333333481 ) ;
#1200 = VECTOR ( 'NONE', #24, 1000.000000000000000 ) ;
#1201 = SURFACE_SIDE_STYLE ('',( #976 ) ) ;
#1202 = LINE ( 'NONE', #952, #639 ) ;
#1203 = EDGE_CURVE ( 'NONE', #495, #1067, #607, .T. ) ;
#1204 = DIRECTION ( 'NONE',  ( 1.000000000000000000, -0.0000000000000000000, -0.0000000000000000000 ) ) ;
#1205 = ORIENTED_EDGE ( 'NONE', *, *, #515, .T. ) ;
#1206 = VERTEX_POINT ( 'NONE', #378 ) ;
#1207 = APPLICATION_PROTOCOL_DEFINITION ( 'draft international standard', 'automotive_design', 1998, #102 ) ;
#1208 = ORIENTED_EDGE ( 'NONE', *, *, #226, .T. ) ;
#1209 = EDGE_LOOP ( 'NONE', ( #45, #730, #644, #1003 ) ) ;
#1210 = ADVANCED_FACE ( 'NONE', ( #80 ), #442, .T. ) ;
#1211 = ORIENTED_EDGE ( 'NONE', *, *, #1263, .T. ) ;
#1212 = ADVANCED_FACE ( 'NONE', ( #303 ), #1059, .T. ) ;
#1213 = AXIS2_PLACEMENT_3D ( 'NONE', #205, #1183, #896 ) ;
#1214 = VECTOR ( 'NONE', #494, 1000.000000000000000 ) ;
#1215 = DIRECTION ( 'NONE',  ( 0.0000000000000000000, 0.0000000000000000000, 1.000000000000000000 ) ) ;
#1216 = ADVANCED_FACE ( 'NONE', ( #997 ), #174, .F. ) ;
#1217 = LINE ( 'NONE', #139, #458 ) ;
#1218 = DIRECTION ( 'NONE',  ( 0.0000000000000000000, 0.0000000000000000000, 1.000000000000000000 ) ) ;
#1219 = LINE ( 'NONE', #590, #1240 ) ;
#1220 = ORIENTED_EDGE ( 'NONE', *, *, #454, .F. ) ;
#1221 = CARTESIAN_POINT ( 'NONE',  ( 1.519999999999999574, 0.07999999999999998779, 0.7999999999999997113 ) ) ;
#1222 = ORIENTED_EDGE ( 'NONE', *, *, #1139, .T. ) ;
#1223 = ORIENTED_EDGE ( 'NONE', *, *, #129, .T. ) ;
#1224 = EDGE_CURVE ( 'NONE', #838, #541, #1154, .T. ) ;
#1225 = DIRECTION ( 'NONE',  ( 0.0000000000000000000, 0.0000000000000000000, 1.000000000000000000 ) ) ;
#1226 = AXIS2_PLACEMENT_3D ( 'NONE', #1073, #1167, #569 ) ;
#1227 = VECTOR ( 'NONE', #369, 1000.000000000000000 ) ;
#1228 = VECTOR ( 'NONE', #438, 1000.000000000000000 ) ;
#1229 = CARTESIAN_POINT ( 'NONE',  ( 0.9499999999999996225, 0.0000000000000000000, 0.7199999999999997513 ) ) ;
#1230 = CIRCLE ( 'NONE', #1134, 0.07999999999999998779 ) ;
#1231 = ORIENTED_EDGE ( 'NONE', *, *, #467, .F. ) ;
#1232 = AXIS2_PLACEMENT_3D ( 'NONE', #628, #447, #44 ) ;
#1233 = CARTESIAN_POINT ( 'NONE',  ( 0.9499999999999996225, 0.07999999999999998779, 0.7199999999999997513 ) ) ;
#1234 = ORIENTED_EDGE ( 'NONE', *, *, #1253, .F. ) ;
#1235 = ORIENTED_EDGE ( 'NONE', *, *, #226, .F. ) ;
#1236 = FILL_AREA_STYLE_COLOUR ( '', #1239 ) ;
#1237 = ADVANCED_FACE ( 'NONE', ( #239 ), #681, .F. ) ;
#1238 = SPHERICAL_SURFACE ( 'NONE', #1014, 0.08000000000000000167 ) ;
#1239 = COLOUR_RGB ( '',0.4862745098039215619, 0.2352941176470588203, 0.01568627450980392135 ) ;
#1240 = VECTOR ( 'NONE', #305, 1000.000000000000000 ) ;
#1241 = CARTESIAN_POINT ( 'NONE',  ( 0.9499999999889041646, 1.820000000000000062, -0.7200000000000001954 ) ) ;
#1242 = ORIENTED_EDGE ( 'NONE', *, *, #650, .T. ) ;
#1243 = EDGE_CURVE ( 'NONE', #923, #310, #170, .T. ) ;
#1244 = ORIENTED_EDGE ( 'NONE', *, *, #311, .T. ) ;
#1245 = CARTESIAN_POINT ( 'NONE',  ( 0.9499999999999998446, 0.08000000000000043188, -0.7999999999999999334 ) ) ;
#1246 = ORIENTED_EDGE ( 'NONE', *, *, #112, .F. ) ;
#1247 = AXIS2_PLACEMENT_3D ( 'NONE', #238, #334, #537 ) ;
#1248 = VERTEX_POINT ( 'NONE', #81 ) ;
#1249 = CARTESIAN_POINT ( 'NONE',  ( -1.519999999999999574, 0.08000000000000000167, 0.7199999999999997513 ) ) ;
#1250 = CARTESIAN_POINT ( 'NONE',  ( -0.9499999999999998446, 1.873333333333333295, -0.7199999999999999734 ) ) ;
#1251 = DIRECTION ( 'NONE',  ( 0.0000000000000000000, 0.0000000000000000000, 1.000000000000000000 ) ) ;
#1252 = DIRECTION ( 'NONE',  ( -1.355252715606881036E-16, 0.0000000000000000000, 1.000000000000000000 ) ) ;
#1253 = EDGE_CURVE ( 'NONE', #1191, #525, #319, .T. ) ;
#1254 = LINE ( 'NONE', #623, #1110 ) ;
#1255 = CIRCLE ( 'NONE', #33, 0.07999999999999998779 ) ;
#1256 = CIRCLE ( 'NONE', #751, 0.07999999999999998779 ) ;
#1257 = DIRECTION ( 'NONE',  ( 0.0000000000000000000, 0.0000000000000000000, 1.000000000000000000 ) ) ;
#1258 = VERTEX_POINT ( 'NONE', #866 ) ;
#1259 = CARTESIAN_POINT ( 'NONE',  ( 1.599999999999999645, 1.899999999999999911, 0.7999999999999997113 ) ) ;
#1260 = CARTESIAN_POINT ( 'NONE',  ( 0.0000000000000000000, 1.820000000000000062, 0.7199999999999997513 ) ) ;
#1261 = ADVANCED_FACE ( 'NONE', ( #927 ), #971, .F. ) ;
#1262 = ORIENTED_EDGE ( 'NONE', *, *, #928, .T. ) ;
#1263 = EDGE_CURVE ( 'NONE', #1276, #1038, #956, .T. ) ;
#1264 = DIRECTION ( 'NONE',  ( 0.0000000000000000000, 0.0000000000000000000, -1.000000000000000000 ) ) ;
#1265 = PLANE ( 'NONE',  #72 ) ;
#1266 = PLANE ( 'NONE',  #553 ) ;
#1267 = CARTESIAN_POINT ( 'NONE',  ( 1.519999999999999574, 0.0000000000000000000, 0.7199999999999997513 ) ) ;
#1268 = AXIS2_PLACEMENT_3D ( 'NONE', #609, #17, #203 ) ;
#1269 = CARTESIAN_POINT ( 'NONE',  ( -1.520000000000000018, 1.899999999999999911, -0.7199999999999999734 ) ) ;
#1270 = CARTESIAN_POINT ( 'NONE',  ( -1.519999999999999574, 0.07999999999999998779, 0.7999999999999997113 ) ) ;
#1271 = ORIENTED_EDGE ( 'NONE', *, *, #49, .T. ) ;
#1272 = ADVANCED_FACE ( 'NONE', ( #336 ), #898, .F. ) ;
#1273 = ORIENTED_EDGE ( 'NONE', *, *, #1080, .F. ) ;
#1274 = DIRECTION ( 'NONE',  ( 1.000000000000000000, 0.0000000000000000000, -8.673617379884036705E-17 ) ) ;
#1275 = EDGE_LOOP ( 'NONE', ( #178, #211, #768, #1223 ) ) ;
#1276 = VERTEX_POINT ( 'NONE', #964 ) ;
#1277 = DIRECTION ( 'NONE',  ( 0.0000000000000000000, 0.0000000000000000000, -1.000000000000000000 ) ) ;
#1278 = ADVANCED_FACE ( 'NONE', ( #805 ), #1043, .T. ) ;
#1279 = AXIS2_PLACEMENT_3D ( 'NONE', #1190, #92, #783 ) ;
#1280 = DIRECTION ( 'NONE',  ( 1.000000000000000000, 0.0000000000000000000, 1.355252715606881036E-16 ) ) ;
ENDSEC;
END-ISO-10303-21;
