ISO-10303-21;
HEADER;
FILE_DESCRIPTION( ( 'Unknown' ), '1' );
FILE_NAME( 'I:/User_Groups_Only/17_EMC_Product_&_Development/Article_Master/U_Automotive/FeCBA/Master_Data/01_CAD_drawing/1_Drawing/FeCBA_0805_78285x/Released_Data/0805_78285x.stp', 'Unknown', ( 'Unknown' ), ( 'Unknown' ), 'PSStep 17.0.49', 'Unknown', '  ' );
FILE_SCHEMA( ( 'AUTOMOTIVE_DESIGN { 1 0 10303 214 1 1 1 1 }' ) );
ENDSEC;
DATA;
#1 = PRODUCT_DEFINITION_CONTEXT( '', #19, 'design' );
#2 = APPLICATION_PROTOCOL_DEFINITION( 'international standard', 'automotive_design', 2001, #19 );
#3 = PRODUCT_CATEGORY_RELATIONSHIP( 'NONE', 'NONE', #20, #21 );
#4 = SHAPE_DEFINITION_REPRESENTATION( #22, #23 );
#5 = PRODUCT_CATEGORY_RELATIONSHIP( 'NONE', 'NONE', #20, #24 );
#6 = CONTEXT_DEPENDENT_SHAPE_REPRESENTATION( #25, #26 );
#7 = SHAPE_DEFINITION_REPRESENTATION( #27, #28 );
#8 = SHAPE_REPRESENTATION_RELATIONSHIP( 'NONE', 'NONE', #28, #29 );
#9 = CONTEXT_DEPENDENT_SHAPE_REPRESENTATION( #30, #31 );
#10 = PRODUCT_CATEGORY_RELATIONSHIP( 'NONE', 'NONE', #20, #32 );
#11 = CONTEXT_DEPENDENT_SHAPE_REPRESENTATION( #33, #34 );
#12 = SHAPE_DEFINITION_REPRESENTATION( #35, #36 );
#13 = SHAPE_REPRESENTATION_RELATIONSHIP( 'NONE', 'NONE', #36, #37 );
#14 = MECHANICAL_DESIGN_GEOMETRIC_PRESENTATION_REPRESENTATION( ' ', ( #38, #39, #40, #41, #42, #43, #44, #45, #46, #47, #48, #49, #50, #51, #52, #53, #54, #55, #56, #57, #58, #59, #60, #61, #62, #63, #64, #65 ), #15 );
#15 =  ( GEOMETRIC_REPRESENTATION_CONTEXT( 3 )GLOBAL_UNCERTAINTY_ASSIGNED_CONTEXT( ( #68 ) )GLOBAL_UNIT_ASSIGNED_CONTEXT( ( #70, #71, #72 ) )REPRESENTATION_CONTEXT( 'NONE', 'WORKSPACE' ) );
#19 = APPLICATION_CONTEXT( 'core data for automotive mechanical design processes' );
#20 = PRODUCT_CATEGORY( 'part', 'NONE' );
#21 = PRODUCT_RELATED_PRODUCT_CATEGORY( 'detail', ' ', ( #74 ) );
#22 = PRODUCT_DEFINITION_SHAPE( 'NONE', 'NONE', #75 );
#23 = SHAPE_REPRESENTATION( 'Assem1', ( #76, #77, #78, #79 ), #80 );
#24 = PRODUCT_RELATED_PRODUCT_CATEGORY( 'detail', ' ', ( #81 ) );
#25 = ( REPRESENTATION_RELATIONSHIP( '', '', #28, #23 )REPRESENTATION_RELATIONSHIP_WITH_TRANSFORMATION( #84 )SHAPE_REPRESENTATION_RELATIONSHIP(  ) );
#26 = PRODUCT_DEFINITION_SHAPE( 'NAUO-PROD-DEF', 'NAUO-PROD-DEF', #86 );
#27 = PRODUCT_DEFINITION_SHAPE( 'NONE', 'NONE', #87 );
#28 = SHAPE_REPRESENTATION( 'L\X2\00F6\X0\tende', ( #76 ), #80 );
#29 = ADVANCED_BREP_SHAPE_REPRESENTATION( 'L\X2\00F6\X0\tende', ( #88 ), #15 );
#30 = ( REPRESENTATION_RELATIONSHIP( '', '', #28, #23 )REPRESENTATION_RELATIONSHIP_WITH_TRANSFORMATION( #91 )SHAPE_REPRESENTATION_RELATIONSHIP(  ) );
#31 = PRODUCT_DEFINITION_SHAPE( 'NAUO-PROD-DEF', 'NAUO-PROD-DEF', #93 );
#32 = PRODUCT_RELATED_PRODUCT_CATEGORY( 'detail', ' ', ( #94 ) );
#33 = ( REPRESENTATION_RELATIONSHIP( '', '', #36, #23 )REPRESENTATION_RELATIONSHIP_WITH_TRANSFORMATION( #97 )SHAPE_REPRESENTATION_RELATIONSHIP(  ) );
#34 = PRODUCT_DEFINITION_SHAPE( 'NAUO-PROD-DEF', 'NAUO-PROD-DEF', #99 );
#35 = PRODUCT_DEFINITION_SHAPE( 'NONE', 'NONE', #100 );
#36 = SHAPE_REPRESENTATION( '0805_78285x', ( #76 ), #80 );
#37 = ADVANCED_BREP_SHAPE_REPRESENTATION( '0805_78285x', ( #101 ), #15 );
#38 = STYLED_ITEM( '', ( #102 ), #103 );
#39 = STYLED_ITEM( '', ( #104 ), #105 );
#40 = STYLED_ITEM( '', ( #106 ), #107 );
#41 = STYLED_ITEM( '', ( #108 ), #109 );
#42 = STYLED_ITEM( '', ( #110 ), #111 );
#43 = STYLED_ITEM( '', ( #112 ), #113 );
#44 = STYLED_ITEM( '', ( #114 ), #115 );
#45 = STYLED_ITEM( '', ( #116 ), #117 );
#46 = STYLED_ITEM( '', ( #118 ), #119 );
#47 = STYLED_ITEM( '', ( #120 ), #121 );
#48 = STYLED_ITEM( '', ( #122 ), #123 );
#49 = STYLED_ITEM( '', ( #124 ), #125 );
#50 = STYLED_ITEM( '', ( #126 ), #127 );
#51 = STYLED_ITEM( '', ( #128 ), #129 );
#52 = STYLED_ITEM( '', ( #130 ), #131 );
#53 = STYLED_ITEM( '', ( #132 ), #133 );
#54 = STYLED_ITEM( '', ( #134 ), #135 );
#55 = STYLED_ITEM( '', ( #136 ), #137 );
#56 = STYLED_ITEM( '', ( #138 ), #139 );
#57 = STYLED_ITEM( '', ( #140 ), #141 );
#58 = STYLED_ITEM( '', ( #142 ), #143 );
#59 = STYLED_ITEM( '', ( #144 ), #145 );
#60 = STYLED_ITEM( '', ( #146 ), #147 );
#61 = STYLED_ITEM( '', ( #148 ), #149 );
#62 = STYLED_ITEM( '', ( #150 ), #151 );
#63 = STYLED_ITEM( '', ( #152 ), #153 );
#64 = STYLED_ITEM( '', ( #154 ), #155 );
#65 = STYLED_ITEM( '', ( #156 ), #157 );
#68 = UNCERTAINTY_MEASURE_WITH_UNIT( LENGTH_MEASURE( 0.00100000000000000 ), #70, '', '' );
#70 =  ( CONVERSION_BASED_UNIT( 'MILLIMETRE', #160 )LENGTH_UNIT(  )NAMED_UNIT( #163 ) );
#71 =  ( NAMED_UNIT( #165 )PLANE_ANGLE_UNIT(  )SI_UNIT( $, .RADIAN. ) );
#72 =  ( NAMED_UNIT( #165 )SI_UNIT( $, .STERADIAN. )SOLID_ANGLE_UNIT(  ) );
#74 = PRODUCT( 'Assem1', 'Assem1', 'PART-Assem1-DESC', ( #171 ) );
#75 = PRODUCT_DEFINITION( 'NONE', 'NONE', #172, #1 );
#76 = AXIS2_PLACEMENT_3D( '', #173, #174, #175 );
#77 = AXIS2_PLACEMENT_3D( '', #176, #177, #178 );
#78 = AXIS2_PLACEMENT_3D( '', #179, #180, #181 );
#79 = AXIS2_PLACEMENT_3D( '', #182, #183, #184 );
#80 =  ( GEOMETRIC_REPRESENTATION_CONTEXT( 3 )GLOBAL_UNCERTAINTY_ASSIGNED_CONTEXT( ( #187 ) )GLOBAL_UNIT_ASSIGNED_CONTEXT( ( #189, #190, #191 ) )REPRESENTATION_CONTEXT( 'NONE', 'WORKSPACE' ) );
#81 = PRODUCT( 'L\X2\00F6\X0\tende', 'L\X2\00F6\X0\tende', 'PART-L\X2\00F6\X0\tende-DESC', ( #171 ) );
#84 = ITEM_DEFINED_TRANSFORMATION( '', '', #76, #77 );
#86 = NEXT_ASSEMBLY_USAGE_OCCURRENCE( 'NAUO1', 'L\X2\00F6\X0\tende', 'L\X2\00F6\X0\tende', #75, #87, $ );
#87 = PRODUCT_DEFINITION( 'L\X2\00F6\X0\tende', 'L\X2\00F6\X0\tende', #193, #1 );
#88 = MANIFOLD_SOLID_BREP( 'L\X2\00F6\X0\tende', #194 );
#91 = ITEM_DEFINED_TRANSFORMATION( '', '', #76, #78 );
#93 = NEXT_ASSEMBLY_USAGE_OCCURRENCE( 'NAUO2', 'L\X2\00F6\X0\tende', 'L\X2\00F6\X0\tende', #75, #87, $ );
#94 = PRODUCT( '0805_78285x', '0805_78285x', 'PART-0805_78285x-DESC', ( #171 ) );
#97 = ITEM_DEFINED_TRANSFORMATION( '', '', #76, #79 );
#99 = NEXT_ASSEMBLY_USAGE_OCCURRENCE( 'NAUO3', '0805_78285x', '0805_78285x', #75, #100, $ );
#100 = PRODUCT_DEFINITION( '0805_78285x', '0805_78285x', #195, #1 );
#101 = MANIFOLD_SOLID_BREP( '0805_78285x', #196 );
#102 = PRESENTATION_STYLE_ASSIGNMENT( ( #197 ) );
#103 = ADVANCED_FACE( '', ( #198 ), #199, .T. );
#104 = PRESENTATION_STYLE_ASSIGNMENT( ( #200 ) );
#105 = ADVANCED_FACE( '', ( #201 ), #202, .F. );
#106 = PRESENTATION_STYLE_ASSIGNMENT( ( #203 ) );
#107 = ADVANCED_FACE( '', ( #204 ), #205, .T. );
#108 = PRESENTATION_STYLE_ASSIGNMENT( ( #206 ) );
#109 = ADVANCED_FACE( '', ( #207 ), #208, .T. );
#110 = PRESENTATION_STYLE_ASSIGNMENT( ( #209 ) );
#111 = ADVANCED_FACE( '', ( #210 ), #211, .T. );
#112 = PRESENTATION_STYLE_ASSIGNMENT( ( #212 ) );
#113 = ADVANCED_FACE( '', ( #213 ), #214, .T. );
#114 = PRESENTATION_STYLE_ASSIGNMENT( ( #215 ) );
#115 = ADVANCED_FACE( '', ( #216 ), #217, .F. );
#116 = PRESENTATION_STYLE_ASSIGNMENT( ( #218 ) );
#117 = ADVANCED_FACE( '', ( #219 ), #220, .T. );
#118 = PRESENTATION_STYLE_ASSIGNMENT( ( #221 ) );
#119 = ADVANCED_FACE( '', ( #222 ), #223, .F. );
#120 = PRESENTATION_STYLE_ASSIGNMENT( ( #224 ) );
#121 = ADVANCED_FACE( '', ( #225 ), #226, .T. );
#122 = PRESENTATION_STYLE_ASSIGNMENT( ( #227 ) );
#123 = ADVANCED_FACE( '', ( #228 ), #229, .T. );
#124 = PRESENTATION_STYLE_ASSIGNMENT( ( #230 ) );
#125 = ADVANCED_FACE( '', ( #231 ), #232, .F. );
#126 = PRESENTATION_STYLE_ASSIGNMENT( ( #233 ) );
#127 = ADVANCED_FACE( '', ( #234 ), #235, .F. );
#128 = PRESENTATION_STYLE_ASSIGNMENT( ( #236 ) );
#129 = ADVANCED_FACE( '', ( #237 ), #238, .T. );
#130 = PRESENTATION_STYLE_ASSIGNMENT( ( #239 ) );
#131 = ADVANCED_FACE( '', ( #240 ), #241, .T. );
#132 = PRESENTATION_STYLE_ASSIGNMENT( ( #242 ) );
#133 = ADVANCED_FACE( '', ( #243 ), #244, .T. );
#134 = PRESENTATION_STYLE_ASSIGNMENT( ( #245 ) );
#135 = ADVANCED_FACE( '', ( #246 ), #247, .T. );
#136 = PRESENTATION_STYLE_ASSIGNMENT( ( #248 ) );
#137 = ADVANCED_FACE( '', ( #249 ), #250, .F. );
#138 = PRESENTATION_STYLE_ASSIGNMENT( ( #251 ) );
#139 = ADVANCED_FACE( '', ( #252 ), #253, .F. );
#140 = PRESENTATION_STYLE_ASSIGNMENT( ( #254 ) );
#141 = ADVANCED_FACE( '', ( #255 ), #256, .F. );
#142 = PRESENTATION_STYLE_ASSIGNMENT( ( #257 ) );
#143 = ADVANCED_FACE( '', ( #258 ), #259, .T. );
#144 = PRESENTATION_STYLE_ASSIGNMENT( ( #260 ) );
#145 = ADVANCED_FACE( '', ( #261 ), #262, .T. );
#146 = PRESENTATION_STYLE_ASSIGNMENT( ( #263 ) );
#147 = ADVANCED_FACE( '', ( #264 ), #265, .T. );
#148 = PRESENTATION_STYLE_ASSIGNMENT( ( #266 ) );
#149 = ADVANCED_FACE( '', ( #267 ), #268, .T. );
#150 = PRESENTATION_STYLE_ASSIGNMENT( ( #269 ) );
#151 = ADVANCED_FACE( '', ( #270 ), #271, .F. );
#152 = PRESENTATION_STYLE_ASSIGNMENT( ( #272 ) );
#153 = ADVANCED_FACE( '', ( #273 ), #274, .F. );
#154 = PRESENTATION_STYLE_ASSIGNMENT( ( #275 ) );
#155 = ADVANCED_FACE( '', ( #276 ), #277, .T. );
#156 = PRESENTATION_STYLE_ASSIGNMENT( ( #278 ) );
#157 = ADVANCED_FACE( '', ( #279 ), #280, .T. );
#160 = LENGTH_MEASURE_WITH_UNIT( LENGTH_MEASURE( 1.00000000000000 ), #281 );
#163 = DIMENSIONAL_EXPONENTS( 1.00000000000000, 0.000000000000000, 0.000000000000000, 0.000000000000000, 0.000000000000000, 0.000000000000000, 0.000000000000000 );
#165 = DIMENSIONAL_EXPONENTS( 0.000000000000000, 0.000000000000000, 0.000000000000000, 0.000000000000000, 0.000000000000000, 0.000000000000000, 0.000000000000000 );
#171 = PRODUCT_CONTEXT( '', #19, 'mechanical' );
#172 = PRODUCT_DEFINITION_FORMATION_WITH_SPECIFIED_SOURCE( ' ', 'NONE', #74, .NOT_KNOWN. );
#173 = CARTESIAN_POINT( '', ( 0.000000000000000, 0.000000000000000, 0.000000000000000 ) );
#174 = DIRECTION( '', ( 0.000000000000000, 0.000000000000000, 1.00000000000000 ) );
#175 = DIRECTION( '', ( 1.00000000000000, 0.000000000000000, 0.000000000000000 ) );
#176 = CARTESIAN_POINT( '', ( 3.46944695195362E-015, -0.500000000000000, 1.30104260698260E-015 ) );
#177 = DIRECTION( '', ( 0.000000000000000, 0.000000000000000, 1.00000000000000 ) );
#178 = DIRECTION( '', ( 1.00000000000000, 0.000000000000000, 0.000000000000000 ) );
#179 = CARTESIAN_POINT( '', ( 3.25260651745651E-015, 0.500000000000000, 1.13841228110978E-015 ) );
#180 = DIRECTION( '', ( -1.38777878078144E-017, -2.75421575223292E-017, 1.00000000000000 ) );
#181 = DIRECTION( '', ( -1.00000000000000, -1.10643709314574E-016, -1.38777878078144E-017 ) );
#182 = CARTESIAN_POINT( '', ( 0.000000000000000, 0.000000000000000, 0.000000000000000 ) );
#183 = DIRECTION( '', ( 0.000000000000000, 0.000000000000000, 1.00000000000000 ) );
#184 = DIRECTION( '', ( 1.00000000000000, 0.000000000000000, 0.000000000000000 ) );
#187 = UNCERTAINTY_MEASURE_WITH_UNIT( LENGTH_MEASURE( 0.00100000000000000 ), #189, '', '' );
#189 =  ( CONVERSION_BASED_UNIT( 'MILLIMETRE', #284 )LENGTH_UNIT(  )NAMED_UNIT( #287 ) );
#190 =  ( NAMED_UNIT( #289 )PLANE_ANGLE_UNIT(  )SI_UNIT( $, .RADIAN. ) );
#191 =  ( NAMED_UNIT( #289 )SI_UNIT( $, .STERADIAN. )SOLID_ANGLE_UNIT(  ) );
#193 = PRODUCT_DEFINITION_FORMATION_WITH_SPECIFIED_SOURCE( ' ', 'NONE', #81, .NOT_KNOWN. );
#194 = CLOSED_SHELL( '', ( #123, #129, #111, #119, #139, #141, #153, #155, #137, #113, #143, #133, #157, #121, #107, #109, #135, #147 ) );
#195 = PRODUCT_DEFINITION_FORMATION_WITH_SPECIFIED_SOURCE( ' ', 'NONE', #94, .NOT_KNOWN. );
#196 = CLOSED_SHELL( '', ( #149, #131, #115, #125, #151, #127, #103, #105, #145, #117 ) );
#197 = SURFACE_STYLE_USAGE( .BOTH., #295 );
#198 = FACE_OUTER_BOUND( '', #296, .T. );
#199 = PLANE( '', #297 );
#200 = SURFACE_STYLE_USAGE( .BOTH., #298 );
#201 = FACE_OUTER_BOUND( '', #299, .T. );
#202 = PLANE( '', #300 );
#203 = SURFACE_STYLE_USAGE( .BOTH., #301 );
#204 = FACE_OUTER_BOUND( '', #302, .T. );
#205 = CYLINDRICAL_SURFACE( '', #303, 0.0200000000000000 );
#206 = SURFACE_STYLE_USAGE( .BOTH., #304 );
#207 = FACE_OUTER_BOUND( '', #305, .T. );
#208 = CYLINDRICAL_SURFACE( '', #306, 0.0200000000000000 );
#209 = SURFACE_STYLE_USAGE( .BOTH., #307 );
#210 = FACE_OUTER_BOUND( '', #308, .T. );
#211 = SPHERICAL_SURFACE( '', #309, 0.0200000000000000 );
#212 = SURFACE_STYLE_USAGE( .BOTH., #310 );
#213 = FACE_OUTER_BOUND( '', #311, .T. );
#214 = CYLINDRICAL_SURFACE( '', #312, 0.0200000000000000 );
#215 = SURFACE_STYLE_USAGE( .BOTH., #313 );
#216 = FACE_OUTER_BOUND( '', #314, .T. );
#217 = PLANE( '', #315 );
#218 = SURFACE_STYLE_USAGE( .BOTH., #316 );
#219 = FACE_OUTER_BOUND( '', #317, .T. );
#220 = CYLINDRICAL_SURFACE( '', #318, 0.0200000000000000 );
#221 = SURFACE_STYLE_USAGE( .BOTH., #319 );
#222 = FACE_OUTER_BOUND( '', #320, .T. );
#223 = PLANE( '', #321 );
#224 = SURFACE_STYLE_USAGE( .BOTH., #322 );
#225 = FACE_OUTER_BOUND( '', #323, .T. );
#226 = CYLINDRICAL_SURFACE( '', #324, 0.0200000000000000 );
#227 = SURFACE_STYLE_USAGE( .BOTH., #325 );
#228 = FACE_OUTER_BOUND( '', #326, .T. );
#229 = SPHERICAL_SURFACE( '', #327, 0.0200000000000000 );
#230 = SURFACE_STYLE_USAGE( .BOTH., #328 );
#231 = FACE_OUTER_BOUND( '', #329, .T. );
#232 = PLANE( '', #330 );
#233 = SURFACE_STYLE_USAGE( .BOTH., #331 );
#234 = FACE_OUTER_BOUND( '', #332, .T. );
#235 = PLANE( '', #333 );
#236 = SURFACE_STYLE_USAGE( .BOTH., #334 );
#237 = FACE_OUTER_BOUND( '', #335, .T. );
#238 = CYLINDRICAL_SURFACE( '', #336, 0.0200000000000000 );
#239 = SURFACE_STYLE_USAGE( .BOTH., #337 );
#240 = FACE_OUTER_BOUND( '', #338, .T. );
#241 = CYLINDRICAL_SURFACE( '', #339, 0.0200000000000000 );
#242 = SURFACE_STYLE_USAGE( .BOTH., #340 );
#243 = FACE_OUTER_BOUND( '', #341, .T. );
#244 = CYLINDRICAL_SURFACE( '', #342, 0.0200000000000000 );
#245 = SURFACE_STYLE_USAGE( .BOTH., #343 );
#246 = FACE_OUTER_BOUND( '', #344, .T. );
#247 = SPHERICAL_SURFACE( '', #345, 0.0200000000000000 );
#248 = SURFACE_STYLE_USAGE( .BOTH., #346 );
#249 = FACE_OUTER_BOUND( '', #347, .T. );
#250 = PLANE( '', #348 );
#251 = SURFACE_STYLE_USAGE( .BOTH., #349 );
#252 = FACE_OUTER_BOUND( '', #350, .T. );
#253 = PLANE( '', #351 );
#254 = SURFACE_STYLE_USAGE( .BOTH., #352 );
#255 = FACE_OUTER_BOUND( '', #353, .T. );
#256 = PLANE( '', #354 );
#257 = SURFACE_STYLE_USAGE( .BOTH., #355 );
#258 = FACE_OUTER_BOUND( '', #356, .T. );
#259 = SPHERICAL_SURFACE( '', #357, 0.0200000000000000 );
#260 = SURFACE_STYLE_USAGE( .BOTH., #358 );
#261 = FACE_OUTER_BOUND( '', #359, .T. );
#262 = CYLINDRICAL_SURFACE( '', #360, 0.0200000000000000 );
#263 = SURFACE_STYLE_USAGE( .BOTH., #361 );
#264 = FACE_OUTER_BOUND( '', #362, .T. );
#265 = CYLINDRICAL_SURFACE( '', #363, 0.0200000000000000 );
#266 = SURFACE_STYLE_USAGE( .BOTH., #364 );
#267 = FACE_OUTER_BOUND( '', #365, .T. );
#268 = CYLINDRICAL_SURFACE( '', #366, 0.0200000000000000 );
#269 = SURFACE_STYLE_USAGE( .BOTH., #367 );
#270 = FACE_OUTER_BOUND( '', #368, .T. );
#271 = PLANE( '', #369 );
#272 = SURFACE_STYLE_USAGE( .BOTH., #370 );
#273 = FACE_OUTER_BOUND( '', #371, .T. );
#274 = PLANE( '', #372 );
#275 = SURFACE_STYLE_USAGE( .BOTH., #373 );
#276 = FACE_OUTER_BOUND( '', #374, .T. );
#277 = PLANE( '', #375 );
#278 = SURFACE_STYLE_USAGE( .BOTH., #376 );
#279 = FACE_OUTER_BOUND( '', #377, .T. );
#280 = CYLINDRICAL_SURFACE( '', #378, 0.0200000000000000 );
#281 =  ( LENGTH_UNIT(  )NAMED_UNIT( #163 )SI_UNIT( .MILLI., .METRE. ) );
#284 = LENGTH_MEASURE_WITH_UNIT( LENGTH_MEASURE( 1.00000000000000 ), #380 );
#287 = DIMENSIONAL_EXPONENTS( 1.00000000000000, 0.000000000000000, 0.000000000000000, 0.000000000000000, 0.000000000000000, 0.000000000000000, 0.000000000000000 );
#289 = DIMENSIONAL_EXPONENTS( 0.000000000000000, 0.000000000000000, 0.000000000000000, 0.000000000000000, 0.000000000000000, 0.000000000000000, 0.000000000000000 );
#295 = SURFACE_SIDE_STYLE( '', ( #381 ) );
#296 = EDGE_LOOP( '', ( #382, #383, #384, #385 ) );
#297 = AXIS2_PLACEMENT_3D( '', #386, #387, #388 );
#298 = SURFACE_SIDE_STYLE( '', ( #389 ) );
#299 = EDGE_LOOP( '', ( #390, #391, #392, #393 ) );
#300 = AXIS2_PLACEMENT_3D( '', #394, #395, #396 );
#301 = SURFACE_SIDE_STYLE( '', ( #397 ) );
#302 = EDGE_LOOP( '', ( #398, #399, #400, #401 ) );
#303 = AXIS2_PLACEMENT_3D( '', #402, #403, #404 );
#304 = SURFACE_SIDE_STYLE( '', ( #405 ) );
#305 = EDGE_LOOP( '', ( #406, #407, #408, #409 ) );
#306 = AXIS2_PLACEMENT_3D( '', #410, #411, #412 );
#307 = SURFACE_SIDE_STYLE( '', ( #413 ) );
#308 = EDGE_LOOP( '', ( #414, #415, #416 ) );
#309 = AXIS2_PLACEMENT_3D( '', #417, #418, #419 );
#310 = SURFACE_SIDE_STYLE( '', ( #420 ) );
#311 = EDGE_LOOP( '', ( #421, #422, #423, #424 ) );
#312 = AXIS2_PLACEMENT_3D( '', #425, #426, #427 );
#313 = SURFACE_SIDE_STYLE( '', ( #428 ) );
#314 = EDGE_LOOP( '', ( #429, #430, #431, #432 ) );
#315 = AXIS2_PLACEMENT_3D( '', #433, #434, #435 );
#316 = SURFACE_SIDE_STYLE( '', ( #436 ) );
#317 = EDGE_LOOP( '', ( #437, #438, #439, #440 ) );
#318 = AXIS2_PLACEMENT_3D( '', #441, #442, #443 );
#319 = SURFACE_SIDE_STYLE( '', ( #444 ) );
#320 = EDGE_LOOP( '', ( #445, #446, #447, #448 ) );
#321 = AXIS2_PLACEMENT_3D( '', #449, #450, #451 );
#322 = SURFACE_SIDE_STYLE( '', ( #452 ) );
#323 = EDGE_LOOP( '', ( #453, #454, #455, #456 ) );
#324 = AXIS2_PLACEMENT_3D( '', #457, #458, #459 );
#325 = SURFACE_SIDE_STYLE( '', ( #460 ) );
#326 = EDGE_LOOP( '', ( #461, #462, #463 ) );
#327 = AXIS2_PLACEMENT_3D( '', #464, #465, #466 );
#328 = SURFACE_SIDE_STYLE( '', ( #467 ) );
#329 = EDGE_LOOP( '', ( #468, #469, #470, #471, #472, #473, #474, #475 ) );
#330 = AXIS2_PLACEMENT_3D( '', #476, #477, #478 );
#331 = SURFACE_SIDE_STYLE( '', ( #479 ) );
#332 = EDGE_LOOP( '', ( #480, #481, #482, #483, #484, #485, #486, #487 ) );
#333 = AXIS2_PLACEMENT_3D( '', #488, #489, #490 );
#334 = SURFACE_SIDE_STYLE( '', ( #491 ) );
#335 = EDGE_LOOP( '', ( #492, #493, #494, #495 ) );
#336 = AXIS2_PLACEMENT_3D( '', #496, #497, #498 );
#337 = SURFACE_SIDE_STYLE( '', ( #499 ) );
#338 = EDGE_LOOP( '', ( #500, #501, #502, #503 ) );
#339 = AXIS2_PLACEMENT_3D( '', #504, #505, #506 );
#340 = SURFACE_SIDE_STYLE( '', ( #507 ) );
#341 = EDGE_LOOP( '', ( #508, #509, #510, #511 ) );
#342 = AXIS2_PLACEMENT_3D( '', #512, #513, #514 );
#343 = SURFACE_SIDE_STYLE( '', ( #515 ) );
#344 = EDGE_LOOP( '', ( #516, #517, #518 ) );
#345 = AXIS2_PLACEMENT_3D( '', #519, #520, #521 );
#346 = SURFACE_SIDE_STYLE( '', ( #522 ) );
#347 = EDGE_LOOP( '', ( #523, #524, #525, #526, #527, #528, #529, #530 ) );
#348 = AXIS2_PLACEMENT_3D( '', #531, #532, #533 );
#349 = SURFACE_SIDE_STYLE( '', ( #534 ) );
#350 = EDGE_LOOP( '', ( #535, #536, #537, #538 ) );
#351 = AXIS2_PLACEMENT_3D( '', #539, #540, #541 );
#352 = SURFACE_SIDE_STYLE( '', ( #542 ) );
#353 = EDGE_LOOP( '', ( #543, #544, #545, #546 ) );
#354 = AXIS2_PLACEMENT_3D( '', #547, #548, #549 );
#355 = SURFACE_SIDE_STYLE( '', ( #550 ) );
#356 = EDGE_LOOP( '', ( #551, #552, #553 ) );
#357 = AXIS2_PLACEMENT_3D( '', #554, #555, #556 );
#358 = SURFACE_SIDE_STYLE( '', ( #557 ) );
#359 = EDGE_LOOP( '', ( #558, #559, #560, #561 ) );
#360 = AXIS2_PLACEMENT_3D( '', #562, #563, #564 );
#361 = SURFACE_SIDE_STYLE( '', ( #565 ) );
#362 = EDGE_LOOP( '', ( #566, #567, #568, #569 ) );
#363 = AXIS2_PLACEMENT_3D( '', #570, #571, #572 );
#364 = SURFACE_SIDE_STYLE( '', ( #573 ) );
#365 = EDGE_LOOP( '', ( #574, #575, #576, #577 ) );
#366 = AXIS2_PLACEMENT_3D( '', #578, #579, #580 );
#367 = SURFACE_SIDE_STYLE( '', ( #581 ) );
#368 = EDGE_LOOP( '', ( #582, #583, #584, #585 ) );
#369 = AXIS2_PLACEMENT_3D( '', #586, #587, #588 );
#370 = SURFACE_SIDE_STYLE( '', ( #589 ) );
#371 = EDGE_LOOP( '', ( #590, #591, #592, #593 ) );
#372 = AXIS2_PLACEMENT_3D( '', #594, #595, #596 );
#373 = SURFACE_SIDE_STYLE( '', ( #597 ) );
#374 = EDGE_LOOP( '', ( #598, #599, #600, #601 ) );
#375 = AXIS2_PLACEMENT_3D( '', #602, #603, #604 );
#376 = SURFACE_SIDE_STYLE( '', ( #605 ) );
#377 = EDGE_LOOP( '', ( #606, #607, #608, #609 ) );
#378 = AXIS2_PLACEMENT_3D( '', #610, #611, #612 );
#380 =  ( LENGTH_UNIT(  )NAMED_UNIT( #287 )SI_UNIT( .MILLI., .METRE. ) );
#381 = SURFACE_STYLE_FILL_AREA( #614 );
#382 = ORIENTED_EDGE( '', *, *, #615, .T. );
#383 = ORIENTED_EDGE( '', *, *, #616, .T. );
#384 = ORIENTED_EDGE( '', *, *, #617, .T. );
#385 = ORIENTED_EDGE( '', *, *, #618, .T. );
#386 = CARTESIAN_POINT( '', ( -0.600000000000000, -0.500000000000000, 0.450000000000000 ) );
#387 = DIRECTION( '', ( 0.000000000000000, 0.000000000000000, 1.00000000000000 ) );
#388 = DIRECTION( '', ( 1.00000000000000, 0.000000000000000, 0.000000000000000 ) );
#389 = SURFACE_STYLE_FILL_AREA( #619 );
#390 = ORIENTED_EDGE( '', *, *, #620, .F. );
#391 = ORIENTED_EDGE( '', *, *, #621, .T. );
#392 = ORIENTED_EDGE( '', *, *, #622, .F. );
#393 = ORIENTED_EDGE( '', *, *, #623, .T. );
#394 = CARTESIAN_POINT( '', ( -0.600000000000000, -0.500000000000000, -0.450000000000000 ) );
#395 = DIRECTION( '', ( 0.000000000000000, 0.000000000000000, 1.00000000000000 ) );
#396 = DIRECTION( '', ( 1.00000000000000, 0.000000000000000, 0.000000000000000 ) );
#397 = SURFACE_STYLE_FILL_AREA( #624 );
#398 = ORIENTED_EDGE( '', *, *, #625, .F. );
#399 = ORIENTED_EDGE( '', *, *, #626, .F. );
#400 = ORIENTED_EDGE( '', *, *, #627, .F. );
#401 = ORIENTED_EDGE( '', *, *, #628, .F. );
#402 = CARTESIAN_POINT( '', ( 0.580000000000000, -0.500000000000000, 0.430000000000000 ) );
#403 = DIRECTION( '', ( -0.000000000000000, -1.00000000000000, -0.000000000000000 ) );
#404 = DIRECTION( '', ( 0.000000000000000, 0.000000000000000, 1.00000000000000 ) );
#405 = SURFACE_STYLE_FILL_AREA( #629 );
#406 = ORIENTED_EDGE( '', *, *, #630, .T. );
#407 = ORIENTED_EDGE( '', *, *, #631, .F. );
#408 = ORIENTED_EDGE( '', *, *, #632, .F. );
#409 = ORIENTED_EDGE( '', *, *, #633, .F. );
#410 = CARTESIAN_POINT( '', ( 0.580000000000000, -0.480000000000000, -0.450000000000000 ) );
#411 = DIRECTION( '', ( -0.000000000000000, -0.000000000000000, 1.00000000000000 ) );
#412 = DIRECTION( '', ( -1.00000000000000, 0.000000000000000, 0.000000000000000 ) );
#413 = SURFACE_STYLE_FILL_AREA( #634 );
#414 = ORIENTED_EDGE( '', *, *, #635, .T. );
#415 = ORIENTED_EDGE( '', *, *, #636, .T. );
#416 = ORIENTED_EDGE( '', *, *, #637, .F. );
#417 = CARTESIAN_POINT( '', ( -0.580000000000000, -0.480000000000000, -0.430000000000000 ) );
#418 = DIRECTION( '', ( 0.000000000000000, 0.000000000000000, 1.00000000000000 ) );
#419 = DIRECTION( '', ( 1.00000000000000, 0.000000000000000, 0.000000000000000 ) );
#420 = SURFACE_STYLE_FILL_AREA( #638 );
#421 = ORIENTED_EDGE( '', *, *, #639, .F. );
#422 = ORIENTED_EDGE( '', *, *, #640, .F. );
#423 = ORIENTED_EDGE( '', *, *, #641, .F. );
#424 = ORIENTED_EDGE( '', *, *, #642, .F. );
#425 = CARTESIAN_POINT( '', ( -0.580000000000000, -0.500000000000000, 0.430000000000000 ) );
#426 = DIRECTION( '', ( -0.000000000000000, -1.00000000000000, -0.000000000000000 ) );
#427 = DIRECTION( '', ( 0.000000000000000, 0.000000000000000, 1.00000000000000 ) );
#428 = SURFACE_STYLE_FILL_AREA( #643 );
#429 = ORIENTED_EDGE( '', *, *, #644, .F. );
#430 = ORIENTED_EDGE( '', *, *, #645, .T. );
#431 = ORIENTED_EDGE( '', *, *, #646, .T. );
#432 = ORIENTED_EDGE( '', *, *, #647, .T. );
#433 = CARTESIAN_POINT( '', ( -0.600000000000000, 0.500000000000000, 0.450000000000000 ) );
#434 = DIRECTION( '', ( 1.00000000000000, 0.000000000000000, 0.000000000000000 ) );
#435 = DIRECTION( '', ( 0.000000000000000, 0.000000000000000, -1.00000000000000 ) );
#436 = SURFACE_STYLE_FILL_AREA( #648 );
#437 = ORIENTED_EDGE( '', *, *, #649, .F. );
#438 = ORIENTED_EDGE( '', *, *, #621, .F. );
#439 = ORIENTED_EDGE( '', *, *, #650, .F. );
#440 = ORIENTED_EDGE( '', *, *, #647, .F. );
#441 = CARTESIAN_POINT( '', ( -0.580000000000000, 0.500000000000000, -0.430000000000000 ) );
#442 = DIRECTION( '', ( -0.000000000000000, 1.00000000000000, -0.000000000000000 ) );
#443 = DIRECTION( '', ( 0.000000000000000, 0.000000000000000, -1.00000000000000 ) );
#444 = SURFACE_STYLE_FILL_AREA( #651 );
#445 = ORIENTED_EDGE( '', *, *, #652, .T. );
#446 = ORIENTED_EDGE( '', *, *, #653, .T. );
#447 = ORIENTED_EDGE( '', *, *, #654, .T. );
#448 = ORIENTED_EDGE( '', *, *, #642, .T. );
#449 = CARTESIAN_POINT( '', ( -0.600000000000000, -0.500000000000000, 0.450000000000000 ) );
#450 = DIRECTION( '', ( 1.00000000000000, 0.000000000000000, 0.000000000000000 ) );
#451 = DIRECTION( '', ( 0.000000000000000, 0.000000000000000, -1.00000000000000 ) );
#452 = SURFACE_STYLE_FILL_AREA( #655 );
#453 = ORIENTED_EDGE( '', *, *, #656, .T. );
#454 = ORIENTED_EDGE( '', *, *, #657, .F. );
#455 = ORIENTED_EDGE( '', *, *, #658, .F. );
#456 = ORIENTED_EDGE( '', *, *, #659, .F. );
#457 = CARTESIAN_POINT( '', ( -0.600000000000000, -0.480000000000000, 0.430000000000000 ) );
#458 = DIRECTION( '', ( -1.00000000000000, -0.000000000000000, -0.000000000000000 ) );
#459 = DIRECTION( '', ( 0.000000000000000, 0.000000000000000, -1.00000000000000 ) );
#460 = SURFACE_STYLE_FILL_AREA( #660 );
#461 = ORIENTED_EDGE( '', *, *, #627, .T. );
#462 = ORIENTED_EDGE( '', *, *, #658, .T. );
#463 = ORIENTED_EDGE( '', *, *, #630, .F. );
#464 = CARTESIAN_POINT( '', ( 0.580000000000000, -0.480000000000000, 0.430000000000000 ) );
#465 = DIRECTION( '', ( 0.000000000000000, 0.000000000000000, 1.00000000000000 ) );
#466 = DIRECTION( '', ( 1.00000000000000, 0.000000000000000, 0.000000000000000 ) );
#467 = SURFACE_STYLE_FILL_AREA( #661 );
#468 = ORIENTED_EDGE( '', *, *, #662, .F. );
#469 = ORIENTED_EDGE( '', *, *, #663, .T. );
#470 = ORIENTED_EDGE( '', *, *, #615, .F. );
#471 = ORIENTED_EDGE( '', *, *, #664, .T. );
#472 = ORIENTED_EDGE( '', *, *, #644, .T. );
#473 = ORIENTED_EDGE( '', *, *, #650, .T. );
#474 = ORIENTED_EDGE( '', *, *, #620, .T. );
#475 = ORIENTED_EDGE( '', *, *, #665, .T. );
#476 = CARTESIAN_POINT( '', ( -0.600000000000000, -0.500000000000000, 0.450000000000000 ) );
#477 = DIRECTION( '', ( 0.000000000000000, 1.00000000000000, 0.000000000000000 ) );
#478 = DIRECTION( '', ( 0.000000000000000, 0.000000000000000, 1.00000000000000 ) );
#479 = SURFACE_STYLE_FILL_AREA( #666 );
#480 = ORIENTED_EDGE( '', *, *, #617, .F. );
#481 = ORIENTED_EDGE( '', *, *, #667, .T. );
#482 = ORIENTED_EDGE( '', *, *, #668, .T. );
#483 = ORIENTED_EDGE( '', *, *, #669, .T. );
#484 = ORIENTED_EDGE( '', *, *, #622, .T. );
#485 = ORIENTED_EDGE( '', *, *, #649, .T. );
#486 = ORIENTED_EDGE( '', *, *, #646, .F. );
#487 = ORIENTED_EDGE( '', *, *, #670, .T. );
#488 = CARTESIAN_POINT( '', ( 0.600000000000000, 0.500000000000000, 0.450000000000000 ) );
#489 = DIRECTION( '', ( 0.000000000000000, -1.00000000000000, 0.000000000000000 ) );
#490 = DIRECTION( '', ( 0.000000000000000, 0.000000000000000, -1.00000000000000 ) );
#491 = SURFACE_STYLE_FILL_AREA( #671 );
#492 = ORIENTED_EDGE( '', *, *, #637, .T. );
#493 = ORIENTED_EDGE( '', *, *, #672, .F. );
#494 = ORIENTED_EDGE( '', *, *, #673, .F. );
#495 = ORIENTED_EDGE( '', *, *, #674, .F. );
#496 = CARTESIAN_POINT( '', ( -0.600000000000000, -0.480000000000000, -0.430000000000000 ) );
#497 = DIRECTION( '', ( 1.00000000000000, -0.000000000000000, -0.000000000000000 ) );
#498 = DIRECTION( '', ( 0.000000000000000, 0.000000000000000, 1.00000000000000 ) );
#499 = SURFACE_STYLE_FILL_AREA( #675 );
#500 = ORIENTED_EDGE( '', *, *, #670, .F. );
#501 = ORIENTED_EDGE( '', *, *, #645, .F. );
#502 = ORIENTED_EDGE( '', *, *, #664, .F. );
#503 = ORIENTED_EDGE( '', *, *, #618, .F. );
#504 = CARTESIAN_POINT( '', ( -0.580000000000000, -0.500000000000000, 0.430000000000000 ) );
#505 = DIRECTION( '', ( -0.000000000000000, -1.00000000000000, -0.000000000000000 ) );
#506 = DIRECTION( '', ( 0.000000000000000, 0.000000000000000, 1.00000000000000 ) );
#507 = SURFACE_STYLE_FILL_AREA( #676 );
#508 = ORIENTED_EDGE( '', *, *, #677, .F. );
#509 = ORIENTED_EDGE( '', *, *, #678, .F. );
#510 = ORIENTED_EDGE( '', *, *, #636, .F. );
#511 = ORIENTED_EDGE( '', *, *, #653, .F. );
#512 = CARTESIAN_POINT( '', ( -0.580000000000000, -0.500000000000000, -0.430000000000000 ) );
#513 = DIRECTION( '', ( -0.000000000000000, -1.00000000000000, -0.000000000000000 ) );
#514 = DIRECTION( '', ( 0.000000000000000, 0.000000000000000, 1.00000000000000 ) );
#515 = SURFACE_STYLE_FILL_AREA( #679 );
#516 = ORIENTED_EDGE( '', *, *, #632, .T. );
#517 = ORIENTED_EDGE( '', *, *, #673, .T. );
#518 = ORIENTED_EDGE( '', *, *, #680, .F. );
#519 = CARTESIAN_POINT( '', ( 0.580000000000000, -0.480000000000000, -0.430000000000000 ) );
#520 = DIRECTION( '', ( 0.000000000000000, 0.000000000000000, 1.00000000000000 ) );
#521 = DIRECTION( '', ( 1.00000000000000, 0.000000000000000, 0.000000000000000 ) );
#522 = SURFACE_STYLE_FILL_AREA( #681 );
#523 = ORIENTED_EDGE( '', *, *, #682, .F. );
#524 = ORIENTED_EDGE( '', *, *, #683, .T. );
#525 = ORIENTED_EDGE( '', *, *, #684, .F. );
#526 = ORIENTED_EDGE( '', *, *, #677, .T. );
#527 = ORIENTED_EDGE( '', *, *, #652, .F. );
#528 = ORIENTED_EDGE( '', *, *, #641, .T. );
#529 = ORIENTED_EDGE( '', *, *, #685, .F. );
#530 = ORIENTED_EDGE( '', *, *, #625, .T. );
#531 = CARTESIAN_POINT( '', ( -0.600000000000000, 0.000000000000000, -0.450000000000000 ) );
#532 = DIRECTION( '', ( 0.000000000000000, -1.00000000000000, 0.000000000000000 ) );
#533 = DIRECTION( '', ( 0.000000000000000, 0.000000000000000, -1.00000000000000 ) );
#534 = SURFACE_STYLE_FILL_AREA( #686 );
#535 = ORIENTED_EDGE( '', *, *, #684, .T. );
#536 = ORIENTED_EDGE( '', *, *, #687, .T. );
#537 = ORIENTED_EDGE( '', *, *, #672, .T. );
#538 = ORIENTED_EDGE( '', *, *, #678, .T. );
#539 = CARTESIAN_POINT( '', ( -0.600000000000000, -0.500000000000000, -0.450000000000000 ) );
#540 = DIRECTION( '', ( 0.000000000000000, 0.000000000000000, 1.00000000000000 ) );
#541 = DIRECTION( '', ( 1.00000000000000, 0.000000000000000, 0.000000000000000 ) );
#542 = SURFACE_STYLE_FILL_AREA( #688 );
#543 = ORIENTED_EDGE( '', *, *, #633, .T. );
#544 = ORIENTED_EDGE( '', *, *, #689, .T. );
#545 = ORIENTED_EDGE( '', *, *, #682, .T. );
#546 = ORIENTED_EDGE( '', *, *, #628, .T. );
#547 = CARTESIAN_POINT( '', ( 0.600000000000000, -0.500000000000000, -0.450000000000000 ) );
#548 = DIRECTION( '', ( -1.00000000000000, 0.000000000000000, 0.000000000000000 ) );
#549 = DIRECTION( '', ( 0.000000000000000, 0.000000000000000, 1.00000000000000 ) );
#550 = SURFACE_STYLE_FILL_AREA( #690 );
#551 = ORIENTED_EDGE( '', *, *, #656, .F. );
#552 = ORIENTED_EDGE( '', *, *, #639, .T. );
#553 = ORIENTED_EDGE( '', *, *, #691, .F. );
#554 = CARTESIAN_POINT( '', ( -0.580000000000000, -0.480000000000000, 0.430000000000000 ) );
#555 = DIRECTION( '', ( 0.000000000000000, 0.000000000000000, 1.00000000000000 ) );
#556 = DIRECTION( '', ( 1.00000000000000, 0.000000000000000, 0.000000000000000 ) );
#557 = SURFACE_STYLE_FILL_AREA( #692 );
#558 = ORIENTED_EDGE( '', *, *, #665, .F. );
#559 = ORIENTED_EDGE( '', *, *, #623, .F. );
#560 = ORIENTED_EDGE( '', *, *, #669, .F. );
#561 = ORIENTED_EDGE( '', *, *, #693, .F. );
#562 = CARTESIAN_POINT( '', ( 0.580000000000000, -0.500000000000000, -0.430000000000000 ) );
#563 = DIRECTION( '', ( -0.000000000000000, -1.00000000000000, -0.000000000000000 ) );
#564 = DIRECTION( '', ( 0.000000000000000, 0.000000000000000, 1.00000000000000 ) );
#565 = SURFACE_STYLE_FILL_AREA( #694 );
#566 = ORIENTED_EDGE( '', *, *, #680, .T. );
#567 = ORIENTED_EDGE( '', *, *, #687, .F. );
#568 = ORIENTED_EDGE( '', *, *, #683, .F. );
#569 = ORIENTED_EDGE( '', *, *, #689, .F. );
#570 = CARTESIAN_POINT( '', ( 0.580000000000000, -0.500000000000000, -0.430000000000000 ) );
#571 = DIRECTION( '', ( -0.000000000000000, -1.00000000000000, -0.000000000000000 ) );
#572 = DIRECTION( '', ( 0.000000000000000, 0.000000000000000, 1.00000000000000 ) );
#573 = SURFACE_STYLE_FILL_AREA( #695 );
#574 = ORIENTED_EDGE( '', *, *, #663, .F. );
#575 = ORIENTED_EDGE( '', *, *, #696, .F. );
#576 = ORIENTED_EDGE( '', *, *, #667, .F. );
#577 = ORIENTED_EDGE( '', *, *, #616, .F. );
#578 = CARTESIAN_POINT( '', ( 0.580000000000000, -0.500000000000000, 0.430000000000000 ) );
#579 = DIRECTION( '', ( -0.000000000000000, 1.00000000000000, -0.000000000000000 ) );
#580 = DIRECTION( '', ( 0.000000000000000, 0.000000000000000, -1.00000000000000 ) );
#581 = SURFACE_STYLE_FILL_AREA( #697 );
#582 = ORIENTED_EDGE( '', *, *, #668, .F. );
#583 = ORIENTED_EDGE( '', *, *, #696, .T. );
#584 = ORIENTED_EDGE( '', *, *, #662, .T. );
#585 = ORIENTED_EDGE( '', *, *, #693, .T. );
#586 = CARTESIAN_POINT( '', ( 0.600000000000000, -0.500000000000000, 0.450000000000000 ) );
#587 = DIRECTION( '', ( -1.00000000000000, 0.000000000000000, 0.000000000000000 ) );
#588 = DIRECTION( '', ( 0.000000000000000, 0.000000000000000, 1.00000000000000 ) );
#589 = SURFACE_STYLE_FILL_AREA( #698 );
#590 = ORIENTED_EDGE( '', *, *, #659, .T. );
#591 = ORIENTED_EDGE( '', *, *, #626, .T. );
#592 = ORIENTED_EDGE( '', *, *, #685, .T. );
#593 = ORIENTED_EDGE( '', *, *, #640, .T. );
#594 = CARTESIAN_POINT( '', ( 0.600000000000000, -0.500000000000000, 0.450000000000000 ) );
#595 = DIRECTION( '', ( 0.000000000000000, 0.000000000000000, -1.00000000000000 ) );
#596 = DIRECTION( '', ( -1.00000000000000, 0.000000000000000, 0.000000000000000 ) );
#597 = SURFACE_STYLE_FILL_AREA( #699 );
#598 = ORIENTED_EDGE( '', *, *, #700, .T. );
#599 = ORIENTED_EDGE( '', *, *, #674, .T. );
#600 = ORIENTED_EDGE( '', *, *, #631, .T. );
#601 = ORIENTED_EDGE( '', *, *, #657, .T. );
#602 = CARTESIAN_POINT( '', ( -0.600000000000000, -0.500000000000000, -0.450000000000000 ) );
#603 = DIRECTION( '', ( 0.000000000000000, -1.00000000000000, 0.000000000000000 ) );
#604 = DIRECTION( '', ( 0.000000000000000, 0.000000000000000, -1.00000000000000 ) );
#605 = SURFACE_STYLE_FILL_AREA( #701 );
#606 = ORIENTED_EDGE( '', *, *, #691, .T. );
#607 = ORIENTED_EDGE( '', *, *, #654, .F. );
#608 = ORIENTED_EDGE( '', *, *, #635, .F. );
#609 = ORIENTED_EDGE( '', *, *, #700, .F. );
#610 = CARTESIAN_POINT( '', ( -0.580000000000000, -0.480000000000000, -0.450000000000000 ) );
#611 = DIRECTION( '', ( -0.000000000000000, -0.000000000000000, -1.00000000000000 ) );
#612 = DIRECTION( '', ( 1.00000000000000, 0.000000000000000, 0.000000000000000 ) );
#614 = FILL_AREA_STYLE( '', ( #702 ) );
#615 = EDGE_CURVE( '', #703, #704, #705, .T. );
#616 = EDGE_CURVE( '', #704, #706, #707, .T. );
#617 = EDGE_CURVE( '', #706, #708, #709, .T. );
#618 = EDGE_CURVE( '', #708, #703, #710, .T. );
#619 = FILL_AREA_STYLE( '', ( #711 ) );
#620 = EDGE_CURVE( '', #712, #713, #714, .T. );
#621 = EDGE_CURVE( '', #712, #715, #716, .F. );
#622 = EDGE_CURVE( '', #717, #715, #718, .T. );
#623 = EDGE_CURVE( '', #717, #713, #719, .F. );
#624 = FILL_AREA_STYLE( '', ( #720 ) );
#625 = EDGE_CURVE( '', #721, #722, #723, .F. );
#626 = EDGE_CURVE( '', #724, #721, #725, .T. );
#627 = EDGE_CURVE( '', #726, #724, #727, .T. );
#628 = EDGE_CURVE( '', #722, #726, #728, .F. );
#629 = FILL_AREA_STYLE( '', ( #729 ) );
#630 = EDGE_CURVE( '', #726, #730, #731, .F. );
#631 = EDGE_CURVE( '', #732, #730, #733, .T. );
#632 = EDGE_CURVE( '', #734, #732, #735, .T. );
#633 = EDGE_CURVE( '', #726, #734, #736, .F. );
#634 = FILL_AREA_STYLE( '', ( #737 ) );
#635 = EDGE_CURVE( '', #738, #739, #740, .T. );
#636 = EDGE_CURVE( '', #739, #741, #742, .T. );
#637 = EDGE_CURVE( '', #738, #741, #743, .F. );
#638 = FILL_AREA_STYLE( '', ( #744 ) );
#639 = EDGE_CURVE( '', #745, #746, #747, .T. );
#640 = EDGE_CURVE( '', #748, #745, #749, .F. );
#641 = EDGE_CURVE( '', #750, #748, #751, .F. );
#642 = EDGE_CURVE( '', #746, #750, #752, .T. );
#643 = FILL_AREA_STYLE( '', ( #753 ) );
#644 = EDGE_CURVE( '', #754, #755, #756, .T. );
#645 = EDGE_CURVE( '', #754, #757, #758, .F. );
#646 = EDGE_CURVE( '', #757, #759, #760, .T. );
#647 = EDGE_CURVE( '', #759, #755, #761, .T. );
#648 = FILL_AREA_STYLE( '', ( #762 ) );
#649 = EDGE_CURVE( '', #715, #759, #763, .F. );
#650 = EDGE_CURVE( '', #755, #712, #764, .F. );
#651 = FILL_AREA_STYLE( '', ( #765 ) );
#652 = EDGE_CURVE( '', #750, #766, #767, .T. );
#653 = EDGE_CURVE( '', #766, #739, #768, .F. );
#654 = EDGE_CURVE( '', #739, #746, #769, .F. );
#655 = FILL_AREA_STYLE( '', ( #770 ) );
#656 = EDGE_CURVE( '', #745, #771, #772, .F. );
#657 = EDGE_CURVE( '', #730, #771, #773, .T. );
#658 = EDGE_CURVE( '', #724, #730, #774, .T. );
#659 = EDGE_CURVE( '', #745, #724, #775, .F. );
#660 = FILL_AREA_STYLE( '', ( #776 ) );
#661 = FILL_AREA_STYLE( '', ( #777 ) );
#662 = EDGE_CURVE( '', #778, #779, #780, .T. );
#663 = EDGE_CURVE( '', #778, #704, #781, .F. );
#664 = EDGE_CURVE( '', #703, #754, #782, .F. );
#665 = EDGE_CURVE( '', #713, #779, #783, .F. );
#666 = FILL_AREA_STYLE( '', ( #784 ) );
#667 = EDGE_CURVE( '', #706, #785, #786, .F. );
#668 = EDGE_CURVE( '', #785, #787, #788, .T. );
#669 = EDGE_CURVE( '', #787, #717, #789, .F. );
#670 = EDGE_CURVE( '', #757, #708, #790, .F. );
#671 = FILL_AREA_STYLE( '', ( #791 ) );
#672 = EDGE_CURVE( '', #792, #741, #793, .F. );
#673 = EDGE_CURVE( '', #732, #792, #794, .T. );
#674 = EDGE_CURVE( '', #738, #732, #795, .T. );
#675 = FILL_AREA_STYLE( '', ( #796 ) );
#676 = FILL_AREA_STYLE( '', ( #797 ) );
#677 = EDGE_CURVE( '', #798, #766, #799, .F. );
#678 = EDGE_CURVE( '', #741, #798, #800, .T. );
#679 = FILL_AREA_STYLE( '', ( #801 ) );
#680 = EDGE_CURVE( '', #734, #792, #802, .F. );
#681 = FILL_AREA_STYLE( '', ( #803 ) );
#682 = EDGE_CURVE( '', #804, #722, #805, .T. );
#683 = EDGE_CURVE( '', #804, #806, #807, .F. );
#684 = EDGE_CURVE( '', #798, #806, #808, .T. );
#685 = EDGE_CURVE( '', #721, #748, #809, .T. );
#686 = FILL_AREA_STYLE( '', ( #810 ) );
#687 = EDGE_CURVE( '', #806, #792, #811, .F. );
#688 = FILL_AREA_STYLE( '', ( #812 ) );
#689 = EDGE_CURVE( '', #734, #804, #813, .T. );
#690 = FILL_AREA_STYLE( '', ( #814 ) );
#691 = EDGE_CURVE( '', #771, #746, #815, .F. );
#692 = FILL_AREA_STYLE( '', ( #816 ) );
#693 = EDGE_CURVE( '', #779, #787, #817, .T. );
#694 = FILL_AREA_STYLE( '', ( #818 ) );
#695 = FILL_AREA_STYLE( '', ( #819 ) );
#696 = EDGE_CURVE( '', #785, #778, #820, .F. );
#697 = FILL_AREA_STYLE( '', ( #821 ) );
#698 = FILL_AREA_STYLE( '', ( #822 ) );
#699 = FILL_AREA_STYLE( '', ( #823 ) );
#700 = EDGE_CURVE( '', #771, #738, #824, .T. );
#701 = FILL_AREA_STYLE( '', ( #825 ) );
#702 = FILL_AREA_STYLE_COLOUR( '', #826 );
#703 = VERTEX_POINT( '', #827 );
#704 = VERTEX_POINT( '', #828 );
#705 = LINE( '', #829, #830 );
#706 = VERTEX_POINT( '', #831 );
#707 = LINE( '', #832, #833 );
#708 = VERTEX_POINT( '', #834 );
#709 = LINE( '', #835, #836 );
#710 = LINE( '', #837, #838 );
#711 = FILL_AREA_STYLE_COLOUR( '', #839 );
#712 = VERTEX_POINT( '', #840 );
#713 = VERTEX_POINT( '', #841 );
#714 = LINE( '', #842, #843 );
#715 = VERTEX_POINT( '', #844 );
#716 = LINE( '', #845, #846 );
#717 = VERTEX_POINT( '', #847 );
#718 = LINE( '', #848, #849 );
#719 = LINE( '', #850, #851 );
#720 = FILL_AREA_STYLE_COLOUR( '', #852 );
#721 = VERTEX_POINT( '', #853 );
#722 = VERTEX_POINT( '', #854 );
#723 = CIRCLE( '', #855, 0.0200000000000000 );
#724 = VERTEX_POINT( '', #856 );
#725 = LINE( '', #857, #858 );
#726 = VERTEX_POINT( '', #859 );
#727 = CIRCLE( '', #860, 0.0200000000000000 );
#728 = LINE( '', #861, #862 );
#729 = FILL_AREA_STYLE_COLOUR( '', #863 );
#730 = VERTEX_POINT( '', #864 );
#731 = CIRCLE( '', #865, 0.0200000000000000 );
#732 = VERTEX_POINT( '', #866 );
#733 = LINE( '', #867, #868 );
#734 = VERTEX_POINT( '', #869 );
#735 = CIRCLE( '', #870, 0.0200000000000000 );
#736 = LINE( '', #871, #872 );
#737 = FILL_AREA_STYLE_COLOUR( '', #873 );
#738 = VERTEX_POINT( '', #874 );
#739 = VERTEX_POINT( '', #875 );
#740 = CIRCLE( '', #876, 0.0200000000000000 );
#741 = VERTEX_POINT( '', #877 );
#742 = CIRCLE( '', #878, 0.0200000000000000 );
#743 = CIRCLE( '', #879, 0.0200000000000000 );
#744 = FILL_AREA_STYLE_COLOUR( '', #880 );
#745 = VERTEX_POINT( '', #881 );
#746 = VERTEX_POINT( '', #882 );
#747 = CIRCLE( '', #883, 0.0200000000000000 );
#748 = VERTEX_POINT( '', #884 );
#749 = LINE( '', #885, #886 );
#750 = VERTEX_POINT( '', #887 );
#751 = CIRCLE( '', #888, 0.0200000000000000 );
#752 = LINE( '', #889, #890 );
#753 = FILL_AREA_STYLE_COLOUR( '', #891 );
#754 = VERTEX_POINT( '', #892 );
#755 = VERTEX_POINT( '', #893 );
#756 = LINE( '', #894, #895 );
#757 = VERTEX_POINT( '', #896 );
#758 = LINE( '', #897, #898 );
#759 = VERTEX_POINT( '', #899 );
#760 = LINE( '', #900, #901 );
#761 = LINE( '', #902, #903 );
#762 = FILL_AREA_STYLE_COLOUR( '', #904 );
#763 = CIRCLE( '', #905, 0.0200000000000000 );
#764 = CIRCLE( '', #906, 0.0200000000000000 );
#765 = FILL_AREA_STYLE_COLOUR( '', #907 );
#766 = VERTEX_POINT( '', #908 );
#767 = LINE( '', #909, #910 );
#768 = LINE( '', #911, #912 );
#769 = LINE( '', #913, #914 );
#770 = FILL_AREA_STYLE_COLOUR( '', #915 );
#771 = VERTEX_POINT( '', #916 );
#772 = CIRCLE( '', #917, 0.0200000000000000 );
#773 = LINE( '', #918, #919 );
#774 = CIRCLE( '', #920, 0.0200000000000000 );
#775 = LINE( '', #921, #922 );
#776 = FILL_AREA_STYLE_COLOUR( '', #923 );
#777 = FILL_AREA_STYLE_COLOUR( '', #924 );
#778 = VERTEX_POINT( '', #925 );
#779 = VERTEX_POINT( '', #926 );
#780 = LINE( '', #927, #928 );
#781 = CIRCLE( '', #929, 0.0200000000000000 );
#782 = CIRCLE( '', #930, 0.0200000000000000 );
#783 = CIRCLE( '', #931, 0.0200000000000000 );
#784 = FILL_AREA_STYLE_COLOUR( '', #932 );
#785 = VERTEX_POINT( '', #933 );
#786 = CIRCLE( '', #934, 0.0200000000000000 );
#787 = VERTEX_POINT( '', #935 );
#788 = LINE( '', #936, #937 );
#789 = CIRCLE( '', #938, 0.0200000000000000 );
#790 = CIRCLE( '', #939, 0.0200000000000000 );
#791 = FILL_AREA_STYLE_COLOUR( '', #940 );
#792 = VERTEX_POINT( '', #941 );
#793 = LINE( '', #942, #943 );
#794 = CIRCLE( '', #944, 0.0200000000000000 );
#795 = LINE( '', #945, #946 );
#796 = FILL_AREA_STYLE_COLOUR( '', #947 );
#797 = FILL_AREA_STYLE_COLOUR( '', #948 );
#798 = VERTEX_POINT( '', #949 );
#799 = CIRCLE( '', #950, 0.0200000000000000 );
#800 = LINE( '', #951, #952 );
#801 = FILL_AREA_STYLE_COLOUR( '', #953 );
#802 = CIRCLE( '', #954, 0.0200000000000000 );
#803 = FILL_AREA_STYLE_COLOUR( '', #955 );
#804 = VERTEX_POINT( '', #956 );
#805 = LINE( '', #957, #958 );
#806 = VERTEX_POINT( '', #959 );
#807 = CIRCLE( '', #960, 0.0200000000000000 );
#808 = LINE( '', #961, #962 );
#809 = LINE( '', #963, #964 );
#810 = FILL_AREA_STYLE_COLOUR( '', #965 );
#811 = LINE( '', #966, #967 );
#812 = FILL_AREA_STYLE_COLOUR( '', #968 );
#813 = LINE( '', #969, #970 );
#814 = FILL_AREA_STYLE_COLOUR( '', #971 );
#815 = CIRCLE( '', #972, 0.0200000000000000 );
#816 = FILL_AREA_STYLE_COLOUR( '', #973 );
#817 = LINE( '', #974, #975 );
#818 = FILL_AREA_STYLE_COLOUR( '', #976 );
#819 = FILL_AREA_STYLE_COLOUR( '', #977 );
#820 = LINE( '', #978, #979 );
#821 = FILL_AREA_STYLE_COLOUR( '', #980 );
#822 = FILL_AREA_STYLE_COLOUR( '', #981 );
#823 = FILL_AREA_STYLE_COLOUR( '', #982 );
#824 = LINE( '', #983, #984 );
#825 = FILL_AREA_STYLE_COLOUR( '', #985 );
#826 = COLOUR_RGB( '', 0.200000002980232, 0.200000002980232, 0.200000002980232 );
#827 = CARTESIAN_POINT( '', ( -0.580000000000000, -0.500000000000000, 0.450000000000000 ) );
#828 = CARTESIAN_POINT( '', ( 0.580000000000000, -0.500000000000000, 0.450000000000000 ) );
#829 = CARTESIAN_POINT( '', ( -0.600000000000000, -0.500000000000000, 0.450000000000000 ) );
#830 = VECTOR( '', #986, 1000.00000000000 );
#831 = CARTESIAN_POINT( '', ( 0.580000000000000, 0.500000000000000, 0.450000000000000 ) );
#832 = CARTESIAN_POINT( '', ( 0.580000000000000, 0.500000000000000, 0.450000000000000 ) );
#833 = VECTOR( '', #987, 1000.00000000000 );
#834 = CARTESIAN_POINT( '', ( -0.580000000000000, 0.500000000000000, 0.450000000000000 ) );
#835 = CARTESIAN_POINT( '', ( 0.600000000000000, 0.500000000000000, 0.450000000000000 ) );
#836 = VECTOR( '', #988, 1000.00000000000 );
#837 = CARTESIAN_POINT( '', ( -0.580000000000000, -0.500000000000000, 0.450000000000000 ) );
#838 = VECTOR( '', #989, 1000.00000000000 );
#839 = COLOUR_RGB( '', 0.200000002980232, 0.200000002980232, 0.200000002980232 );
#840 = CARTESIAN_POINT( '', ( -0.580000000000000, -0.500000000000000, -0.450000000000000 ) );
#841 = CARTESIAN_POINT( '', ( 0.580000000000000, -0.500000000000000, -0.450000000000000 ) );
#842 = CARTESIAN_POINT( '', ( -0.600000000000000, -0.500000000000000, -0.450000000000000 ) );
#843 = VECTOR( '', #990, 1000.00000000000 );
#844 = CARTESIAN_POINT( '', ( -0.580000000000000, 0.500000000000000, -0.450000000000000 ) );
#845 = CARTESIAN_POINT( '', ( -0.580000000000000, -0.500000000000000, -0.450000000000000 ) );
#846 = VECTOR( '', #991, 1000.00000000000 );
#847 = CARTESIAN_POINT( '', ( 0.580000000000000, 0.500000000000000, -0.450000000000000 ) );
#848 = CARTESIAN_POINT( '', ( 0.600000000000000, 0.500000000000000, -0.450000000000000 ) );
#849 = VECTOR( '', #992, 1000.00000000000 );
#850 = CARTESIAN_POINT( '', ( 0.580000000000000, -0.500000000000000, -0.450000000000000 ) );
#851 = VECTOR( '', #993, 1000.00000000000 );
#852 = COLOUR_RGB( '', 0.980000019073486, 0.980000019073486, 0.980000019073486 );
#853 = CARTESIAN_POINT( '', ( 0.580000000000000, 0.000000000000000, 0.450000000000000 ) );
#854 = CARTESIAN_POINT( '', ( 0.600000000000000, 0.000000000000000, 0.430000000000000 ) );
#855 = AXIS2_PLACEMENT_3D( '', #994, #995, #996 );
#856 = CARTESIAN_POINT( '', ( 0.580000000000000, -0.480000000000000, 0.450000000000000 ) );
#857 = CARTESIAN_POINT( '', ( 0.580000000000000, -0.500000000000000, 0.450000000000000 ) );
#858 = VECTOR( '', #997, 1000.00000000000 );
#859 = CARTESIAN_POINT( '', ( 0.600000000000000, -0.480000000000000, 0.430000000000000 ) );
#860 = AXIS2_PLACEMENT_3D( '', #998, #999, #1000 );
#861 = CARTESIAN_POINT( '', ( 0.600000000000000, -0.500000000000000, 0.430000000000000 ) );
#862 = VECTOR( '', #1001, 1000.00000000000 );
#863 = COLOUR_RGB( '', 0.980000019073486, 0.980000019073486, 0.980000019073486 );
#864 = CARTESIAN_POINT( '', ( 0.580000000000000, -0.500000000000000, 0.430000000000000 ) );
#865 = AXIS2_PLACEMENT_3D( '', #1002, #1003, #1004 );
#866 = CARTESIAN_POINT( '', ( 0.580000000000000, -0.500000000000000, -0.430000000000000 ) );
#867 = CARTESIAN_POINT( '', ( 0.580000000000000, -0.500000000000000, 0.450000000000000 ) );
#868 = VECTOR( '', #1005, 1000.00000000000 );
#869 = CARTESIAN_POINT( '', ( 0.600000000000000, -0.480000000000000, -0.430000000000000 ) );
#870 = AXIS2_PLACEMENT_3D( '', #1006, #1007, #1008 );
#871 = CARTESIAN_POINT( '', ( 0.600000000000000, -0.480000000000000, -0.450000000000000 ) );
#872 = VECTOR( '', #1009, 1000.00000000000 );
#873 = COLOUR_RGB( '', 0.980000019073486, 0.980000019073486, 0.980000019073486 );
#874 = CARTESIAN_POINT( '', ( -0.580000000000000, -0.500000000000000, -0.430000000000000 ) );
#875 = CARTESIAN_POINT( '', ( -0.600000000000000, -0.480000000000000, -0.430000000000000 ) );
#876 = AXIS2_PLACEMENT_3D( '', #1010, #1011, #1012 );
#877 = CARTESIAN_POINT( '', ( -0.580000000000000, -0.480000000000000, -0.450000000000000 ) );
#878 = AXIS2_PLACEMENT_3D( '', #1013, #1014, #1015 );
#879 = AXIS2_PLACEMENT_3D( '', #1016, #1017, #1018 );
#880 = COLOUR_RGB( '', 0.980000019073486, 0.980000019073486, 0.980000019073486 );
#881 = CARTESIAN_POINT( '', ( -0.580000000000000, -0.480000000000000, 0.450000000000000 ) );
#882 = CARTESIAN_POINT( '', ( -0.600000000000000, -0.480000000000000, 0.430000000000000 ) );
#883 = AXIS2_PLACEMENT_3D( '', #1019, #1020, #1021 );
#884 = CARTESIAN_POINT( '', ( -0.580000000000000, 0.000000000000000, 0.450000000000000 ) );
#885 = CARTESIAN_POINT( '', ( -0.580000000000000, -0.500000000000000, 0.450000000000000 ) );
#886 = VECTOR( '', #1022, 1000.00000000000 );
#887 = CARTESIAN_POINT( '', ( -0.600000000000000, 0.000000000000000, 0.430000000000000 ) );
#888 = AXIS2_PLACEMENT_3D( '', #1023, #1024, #1025 );
#889 = CARTESIAN_POINT( '', ( -0.600000000000000, -0.500000000000000, 0.430000000000000 ) );
#890 = VECTOR( '', #1026, 1000.00000000000 );
#891 = COLOUR_RGB( '', 0.200000002980232, 0.200000002980232, 0.200000002980232 );
#892 = CARTESIAN_POINT( '', ( -0.600000000000000, -0.500000000000000, 0.430000000000000 ) );
#893 = CARTESIAN_POINT( '', ( -0.600000000000000, -0.500000000000000, -0.430000000000000 ) );
#894 = CARTESIAN_POINT( '', ( -0.600000000000000, -0.500000000000000, 0.450000000000000 ) );
#895 = VECTOR( '', #1027, 1000.00000000000 );
#896 = CARTESIAN_POINT( '', ( -0.600000000000000, 0.500000000000000, 0.430000000000000 ) );
#897 = CARTESIAN_POINT( '', ( -0.600000000000000, 0.500000000000000, 0.430000000000000 ) );
#898 = VECTOR( '', #1028, 1000.00000000000 );
#899 = CARTESIAN_POINT( '', ( -0.600000000000000, 0.500000000000000, -0.430000000000000 ) );
#900 = CARTESIAN_POINT( '', ( -0.600000000000000, 0.500000000000000, 0.450000000000000 ) );
#901 = VECTOR( '', #1029, 1000.00000000000 );
#902 = CARTESIAN_POINT( '', ( -0.600000000000000, 0.500000000000000, -0.430000000000000 ) );
#903 = VECTOR( '', #1030, 1000.00000000000 );
#904 = COLOUR_RGB( '', 0.200000002980232, 0.200000002980232, 0.200000002980232 );
#905 = AXIS2_PLACEMENT_3D( '', #1031, #1032, #1033 );
#906 = AXIS2_PLACEMENT_3D( '', #1034, #1035, #1036 );
#907 = COLOUR_RGB( '', 0.980000019073486, 0.980000019073486, 0.980000019073486 );
#908 = CARTESIAN_POINT( '', ( -0.600000000000000, 0.000000000000000, -0.430000000000000 ) );
#909 = CARTESIAN_POINT( '', ( -0.600000000000000, 0.000000000000000, 0.450000000000000 ) );
#910 = VECTOR( '', #1037, 1000.00000000000 );
#911 = CARTESIAN_POINT( '', ( -0.600000000000000, -0.500000000000000, -0.430000000000000 ) );
#912 = VECTOR( '', #1038, 1000.00000000000 );
#913 = CARTESIAN_POINT( '', ( -0.600000000000000, -0.480000000000000, 0.450000000000000 ) );
#914 = VECTOR( '', #1039, 1000.00000000000 );
#915 = COLOUR_RGB( '', 0.980000019073486, 0.980000019073486, 0.980000019073486 );
#916 = CARTESIAN_POINT( '', ( -0.580000000000000, -0.500000000000000, 0.430000000000000 ) );
#917 = AXIS2_PLACEMENT_3D( '', #1040, #1041, #1042 );
#918 = CARTESIAN_POINT( '', ( -0.600000000000000, -0.500000000000000, 0.430000000000000 ) );
#919 = VECTOR( '', #1043, 1000.00000000000 );
#920 = AXIS2_PLACEMENT_3D( '', #1044, #1045, #1046 );
#921 = CARTESIAN_POINT( '', ( 0.600000000000000, -0.480000000000000, 0.450000000000000 ) );
#922 = VECTOR( '', #1047, 1000.00000000000 );
#923 = COLOUR_RGB( '', 0.980000019073486, 0.980000019073486, 0.980000019073486 );
#924 = COLOUR_RGB( '', 0.200000002980232, 0.200000002980232, 0.200000002980232 );
#925 = CARTESIAN_POINT( '', ( 0.600000000000000, -0.500000000000000, 0.430000000000000 ) );
#926 = CARTESIAN_POINT( '', ( 0.600000000000000, -0.500000000000000, -0.430000000000000 ) );
#927 = CARTESIAN_POINT( '', ( 0.600000000000000, -0.500000000000000, 0.450000000000000 ) );
#928 = VECTOR( '', #1048, 1000.00000000000 );
#929 = AXIS2_PLACEMENT_3D( '', #1049, #1050, #1051 );
#930 = AXIS2_PLACEMENT_3D( '', #1052, #1053, #1054 );
#931 = AXIS2_PLACEMENT_3D( '', #1055, #1056, #1057 );
#932 = COLOUR_RGB( '', 0.200000002980232, 0.200000002980232, 0.200000002980232 );
#933 = CARTESIAN_POINT( '', ( 0.600000000000000, 0.500000000000000, 0.430000000000000 ) );
#934 = AXIS2_PLACEMENT_3D( '', #1058, #1059, #1060 );
#935 = CARTESIAN_POINT( '', ( 0.600000000000000, 0.500000000000000, -0.430000000000000 ) );
#936 = CARTESIAN_POINT( '', ( 0.600000000000000, 0.500000000000000, 0.450000000000000 ) );
#937 = VECTOR( '', #1061, 1000.00000000000 );
#938 = AXIS2_PLACEMENT_3D( '', #1062, #1063, #1064 );
#939 = AXIS2_PLACEMENT_3D( '', #1065, #1066, #1067 );
#940 = COLOUR_RGB( '', 0.980000019073486, 0.980000019073486, 0.980000019073486 );
#941 = CARTESIAN_POINT( '', ( 0.580000000000000, -0.480000000000000, -0.450000000000000 ) );
#942 = CARTESIAN_POINT( '', ( -0.600000000000000, -0.480000000000000, -0.450000000000000 ) );
#943 = VECTOR( '', #1068, 1000.00000000000 );
#944 = AXIS2_PLACEMENT_3D( '', #1069, #1070, #1071 );
#945 = CARTESIAN_POINT( '', ( 0.600000000000000, -0.500000000000000, -0.430000000000000 ) );
#946 = VECTOR( '', #1072, 1000.00000000000 );
#947 = COLOUR_RGB( '', 0.200000002980232, 0.200000002980232, 0.200000002980232 );
#948 = COLOUR_RGB( '', 0.980000019073486, 0.980000019073486, 0.980000019073486 );
#949 = CARTESIAN_POINT( '', ( -0.580000000000000, 0.000000000000000, -0.450000000000000 ) );
#950 = AXIS2_PLACEMENT_3D( '', #1073, #1074, #1075 );
#951 = CARTESIAN_POINT( '', ( -0.580000000000000, -0.500000000000000, -0.450000000000000 ) );
#952 = VECTOR( '', #1076, 1000.00000000000 );
#953 = COLOUR_RGB( '', 0.980000019073486, 0.980000019073486, 0.980000019073486 );
#954 = AXIS2_PLACEMENT_3D( '', #1077, #1078, #1079 );
#955 = COLOUR_RGB( '', 0.980000019073486, 0.980000019073486, 0.980000019073486 );
#956 = CARTESIAN_POINT( '', ( 0.600000000000000, 0.000000000000000, -0.430000000000000 ) );
#957 = CARTESIAN_POINT( '', ( 0.600000000000000, 0.000000000000000, -0.450000000000000 ) );
#958 = VECTOR( '', #1080, 1000.00000000000 );
#959 = CARTESIAN_POINT( '', ( 0.580000000000000, 0.000000000000000, -0.450000000000000 ) );
#960 = AXIS2_PLACEMENT_3D( '', #1081, #1082, #1083 );
#961 = CARTESIAN_POINT( '', ( -0.600000000000000, 0.000000000000000, -0.450000000000000 ) );
#962 = VECTOR( '', #1084, 1000.00000000000 );
#963 = CARTESIAN_POINT( '', ( 0.600000000000000, 0.000000000000000, 0.450000000000000 ) );
#964 = VECTOR( '', #1085, 1000.00000000000 );
#965 = COLOUR_RGB( '', 0.980000019073486, 0.980000019073486, 0.980000019073486 );
#966 = CARTESIAN_POINT( '', ( 0.580000000000000, -0.500000000000000, -0.450000000000000 ) );
#967 = VECTOR( '', #1086, 1000.00000000000 );
#968 = COLOUR_RGB( '', 0.980000019073486, 0.980000019073486, 0.980000019073486 );
#969 = CARTESIAN_POINT( '', ( 0.600000000000000, -0.500000000000000, -0.430000000000000 ) );
#970 = VECTOR( '', #1087, 1000.00000000000 );
#971 = COLOUR_RGB( '', 0.980000019073486, 0.980000019073486, 0.980000019073486 );
#972 = AXIS2_PLACEMENT_3D( '', #1088, #1089, #1090 );
#973 = COLOUR_RGB( '', 0.200000002980232, 0.200000002980232, 0.200000002980232 );
#974 = CARTESIAN_POINT( '', ( 0.600000000000000, -0.500000000000000, -0.430000000000000 ) );
#975 = VECTOR( '', #1091, 1000.00000000000 );
#976 = COLOUR_RGB( '', 0.980000019073486, 0.980000019073486, 0.980000019073486 );
#977 = COLOUR_RGB( '', 0.200000002980232, 0.200000002980232, 0.200000002980232 );
#978 = CARTESIAN_POINT( '', ( 0.600000000000000, -0.500000000000000, 0.430000000000000 ) );
#979 = VECTOR( '', #1092, 1000.00000000000 );
#980 = COLOUR_RGB( '', 0.200000002980232, 0.200000002980232, 0.200000002980232 );
#981 = COLOUR_RGB( '', 0.980000019073486, 0.980000019073486, 0.980000019073486 );
#982 = COLOUR_RGB( '', 0.980000019073486, 0.980000019073486, 0.980000019073486 );
#983 = CARTESIAN_POINT( '', ( -0.580000000000000, -0.500000000000000, -0.450000000000000 ) );
#984 = VECTOR( '', #1093, 1000.00000000000 );
#985 = COLOUR_RGB( '', 0.980000019073486, 0.980000019073486, 0.980000019073486 );
#986 = DIRECTION( '', ( 1.00000000000000, 0.000000000000000, 0.000000000000000 ) );
#987 = DIRECTION( '', ( 0.000000000000000, 1.00000000000000, 0.000000000000000 ) );
#988 = DIRECTION( '', ( -1.00000000000000, 0.000000000000000, 0.000000000000000 ) );
#989 = DIRECTION( '', ( 0.000000000000000, -1.00000000000000, 0.000000000000000 ) );
#990 = DIRECTION( '', ( 1.00000000000000, 0.000000000000000, 0.000000000000000 ) );
#991 = DIRECTION( '', ( 0.000000000000000, -1.00000000000000, 0.000000000000000 ) );
#992 = DIRECTION( '', ( -1.00000000000000, 0.000000000000000, 0.000000000000000 ) );
#993 = DIRECTION( '', ( 0.000000000000000, 1.00000000000000, 0.000000000000000 ) );
#994 = CARTESIAN_POINT( '', ( 0.580000000000000, 0.000000000000000, 0.430000000000000 ) );
#995 = DIRECTION( '', ( 0.000000000000000, -1.00000000000000, 0.000000000000000 ) );
#996 = DIRECTION( '', ( 0.000000000000000, 0.000000000000000, -1.00000000000000 ) );
#997 = DIRECTION( '', ( 0.000000000000000, 1.00000000000000, 0.000000000000000 ) );
#998 = CARTESIAN_POINT( '', ( 0.580000000000000, -0.480000000000000, 0.430000000000000 ) );
#999 = DIRECTION( '', ( 0.000000000000000, -1.00000000000000, 0.000000000000000 ) );
#1000 = DIRECTION( '', ( 0.000000000000000, 0.000000000000000, -1.00000000000000 ) );
#1001 = DIRECTION( '', ( 0.000000000000000, 1.00000000000000, 0.000000000000000 ) );
#1002 = CARTESIAN_POINT( '', ( 0.580000000000000, -0.480000000000000, 0.430000000000000 ) );
#1003 = DIRECTION( '', ( 0.000000000000000, 0.000000000000000, 1.00000000000000 ) );
#1004 = DIRECTION( '', ( 1.00000000000000, 0.000000000000000, 0.000000000000000 ) );
#1005 = DIRECTION( '', ( 0.000000000000000, 0.000000000000000, 1.00000000000000 ) );
#1006 = CARTESIAN_POINT( '', ( 0.580000000000000, -0.480000000000000, -0.430000000000000 ) );
#1007 = DIRECTION( '', ( 0.000000000000000, 0.000000000000000, -1.00000000000000 ) );
#1008 = DIRECTION( '', ( -1.00000000000000, 0.000000000000000, 0.000000000000000 ) );
#1009 = DIRECTION( '', ( 0.000000000000000, 0.000000000000000, 1.00000000000000 ) );
#1010 = CARTESIAN_POINT( '', ( -0.580000000000000, -0.480000000000000, -0.430000000000000 ) );
#1011 = DIRECTION( '', ( 0.000000000000000, 0.000000000000000, -1.00000000000000 ) );
#1012 = DIRECTION( '', ( -1.00000000000000, 0.000000000000000, 0.000000000000000 ) );
#1013 = CARTESIAN_POINT( '', ( -0.580000000000000, -0.480000000000000, -0.430000000000000 ) );
#1014 = DIRECTION( '', ( 0.000000000000000, -1.00000000000000, 0.000000000000000 ) );
#1015 = DIRECTION( '', ( 0.000000000000000, 0.000000000000000, -1.00000000000000 ) );
#1016 = CARTESIAN_POINT( '', ( -0.580000000000000, -0.480000000000000, -0.430000000000000 ) );
#1017 = DIRECTION( '', ( -1.00000000000000, 0.000000000000000, 0.000000000000000 ) );
#1018 = DIRECTION( '', ( 0.000000000000000, 0.000000000000000, 1.00000000000000 ) );
#1019 = CARTESIAN_POINT( '', ( -0.580000000000000, -0.480000000000000, 0.430000000000000 ) );
#1020 = DIRECTION( '', ( 0.000000000000000, -1.00000000000000, 0.000000000000000 ) );
#1021 = DIRECTION( '', ( 0.000000000000000, 0.000000000000000, -1.00000000000000 ) );
#1022 = DIRECTION( '', ( 0.000000000000000, 1.00000000000000, 0.000000000000000 ) );
#1023 = CARTESIAN_POINT( '', ( -0.580000000000000, 0.000000000000000, 0.430000000000000 ) );
#1024 = DIRECTION( '', ( 0.000000000000000, -1.00000000000000, 0.000000000000000 ) );
#1025 = DIRECTION( '', ( 0.000000000000000, 0.000000000000000, -1.00000000000000 ) );
#1026 = DIRECTION( '', ( 0.000000000000000, 1.00000000000000, 0.000000000000000 ) );
#1027 = DIRECTION( '', ( 0.000000000000000, 0.000000000000000, -1.00000000000000 ) );
#1028 = DIRECTION( '', ( 0.000000000000000, -1.00000000000000, 0.000000000000000 ) );
#1029 = DIRECTION( '', ( 0.000000000000000, 0.000000000000000, -1.00000000000000 ) );
#1030 = DIRECTION( '', ( 0.000000000000000, -1.00000000000000, 0.000000000000000 ) );
#1031 = CARTESIAN_POINT( '', ( -0.580000000000000, 0.500000000000000, -0.430000000000000 ) );
#1032 = DIRECTION( '', ( 0.000000000000000, -1.00000000000000, 0.000000000000000 ) );
#1033 = DIRECTION( '', ( 0.000000000000000, 0.000000000000000, -1.00000000000000 ) );
#1034 = CARTESIAN_POINT( '', ( -0.580000000000000, -0.500000000000000, -0.430000000000000 ) );
#1035 = DIRECTION( '', ( 0.000000000000000, 1.00000000000000, 0.000000000000000 ) );
#1036 = DIRECTION( '', ( 0.000000000000000, 0.000000000000000, 1.00000000000000 ) );
#1037 = DIRECTION( '', ( 0.000000000000000, 0.000000000000000, -1.00000000000000 ) );
#1038 = DIRECTION( '', ( 0.000000000000000, 1.00000000000000, 0.000000000000000 ) );
#1039 = DIRECTION( '', ( 0.000000000000000, 0.000000000000000, -1.00000000000000 ) );
#1040 = CARTESIAN_POINT( '', ( -0.580000000000000, -0.480000000000000, 0.430000000000000 ) );
#1041 = DIRECTION( '', ( -1.00000000000000, 0.000000000000000, 0.000000000000000 ) );
#1042 = DIRECTION( '', ( 0.000000000000000, 0.000000000000000, 1.00000000000000 ) );
#1043 = DIRECTION( '', ( -1.00000000000000, 0.000000000000000, 0.000000000000000 ) );
#1044 = CARTESIAN_POINT( '', ( 0.580000000000000, -0.480000000000000, 0.430000000000000 ) );
#1045 = DIRECTION( '', ( 1.00000000000000, 0.000000000000000, 0.000000000000000 ) );
#1046 = DIRECTION( '', ( 0.000000000000000, 0.000000000000000, -1.00000000000000 ) );
#1047 = DIRECTION( '', ( -1.00000000000000, 0.000000000000000, 0.000000000000000 ) );
#1048 = DIRECTION( '', ( 0.000000000000000, 0.000000000000000, -1.00000000000000 ) );
#1049 = CARTESIAN_POINT( '', ( 0.580000000000000, -0.500000000000000, 0.430000000000000 ) );
#1050 = DIRECTION( '', ( 0.000000000000000, 1.00000000000000, 0.000000000000000 ) );
#1051 = DIRECTION( '', ( 0.000000000000000, 0.000000000000000, 1.00000000000000 ) );
#1052 = CARTESIAN_POINT( '', ( -0.580000000000000, -0.500000000000000, 0.430000000000000 ) );
#1053 = DIRECTION( '', ( 0.000000000000000, 1.00000000000000, 0.000000000000000 ) );
#1054 = DIRECTION( '', ( 0.000000000000000, 0.000000000000000, 1.00000000000000 ) );
#1055 = CARTESIAN_POINT( '', ( 0.580000000000000, -0.500000000000000, -0.430000000000000 ) );
#1056 = DIRECTION( '', ( 0.000000000000000, 1.00000000000000, 0.000000000000000 ) );
#1057 = DIRECTION( '', ( 0.000000000000000, 0.000000000000000, 1.00000000000000 ) );
#1058 = CARTESIAN_POINT( '', ( 0.580000000000000, 0.500000000000000, 0.430000000000000 ) );
#1059 = DIRECTION( '', ( 0.000000000000000, -1.00000000000000, 0.000000000000000 ) );
#1060 = DIRECTION( '', ( 0.000000000000000, 0.000000000000000, -1.00000000000000 ) );
#1061 = DIRECTION( '', ( 0.000000000000000, 0.000000000000000, -1.00000000000000 ) );
#1062 = CARTESIAN_POINT( '', ( 0.580000000000000, 0.500000000000000, -0.430000000000000 ) );
#1063 = DIRECTION( '', ( 0.000000000000000, -1.00000000000000, 0.000000000000000 ) );
#1064 = DIRECTION( '', ( 0.000000000000000, 0.000000000000000, -1.00000000000000 ) );
#1065 = CARTESIAN_POINT( '', ( -0.580000000000000, 0.500000000000000, 0.430000000000000 ) );
#1066 = DIRECTION( '', ( 0.000000000000000, -1.00000000000000, 0.000000000000000 ) );
#1067 = DIRECTION( '', ( 0.000000000000000, 0.000000000000000, -1.00000000000000 ) );
#1068 = DIRECTION( '', ( 1.00000000000000, 0.000000000000000, 0.000000000000000 ) );
#1069 = CARTESIAN_POINT( '', ( 0.580000000000000, -0.480000000000000, -0.430000000000000 ) );
#1070 = DIRECTION( '', ( 1.00000000000000, 0.000000000000000, 0.000000000000000 ) );
#1071 = DIRECTION( '', ( 0.000000000000000, 0.000000000000000, -1.00000000000000 ) );
#1072 = DIRECTION( '', ( 1.00000000000000, 0.000000000000000, 0.000000000000000 ) );
#1073 = CARTESIAN_POINT( '', ( -0.580000000000000, 0.000000000000000, -0.430000000000000 ) );
#1074 = DIRECTION( '', ( 0.000000000000000, -1.00000000000000, 0.000000000000000 ) );
#1075 = DIRECTION( '', ( 0.000000000000000, 0.000000000000000, -1.00000000000000 ) );
#1076 = DIRECTION( '', ( 0.000000000000000, 1.00000000000000, 0.000000000000000 ) );
#1077 = CARTESIAN_POINT( '', ( 0.580000000000000, -0.480000000000000, -0.430000000000000 ) );
#1078 = DIRECTION( '', ( 0.000000000000000, -1.00000000000000, 0.000000000000000 ) );
#1079 = DIRECTION( '', ( 0.000000000000000, 0.000000000000000, -1.00000000000000 ) );
#1080 = DIRECTION( '', ( 0.000000000000000, 0.000000000000000, 1.00000000000000 ) );
#1081 = CARTESIAN_POINT( '', ( 0.580000000000000, 0.000000000000000, -0.430000000000000 ) );
#1082 = DIRECTION( '', ( 0.000000000000000, -1.00000000000000, 0.000000000000000 ) );
#1083 = DIRECTION( '', ( 0.000000000000000, 0.000000000000000, -1.00000000000000 ) );
#1084 = DIRECTION( '', ( 1.00000000000000, 0.000000000000000, 0.000000000000000 ) );
#1085 = DIRECTION( '', ( -1.00000000000000, 0.000000000000000, 0.000000000000000 ) );
#1086 = DIRECTION( '', ( 0.000000000000000, 1.00000000000000, 0.000000000000000 ) );
#1087 = DIRECTION( '', ( 0.000000000000000, 1.00000000000000, 0.000000000000000 ) );
#1088 = CARTESIAN_POINT( '', ( -0.580000000000000, -0.480000000000000, 0.430000000000000 ) );
#1089 = DIRECTION( '', ( 0.000000000000000, 0.000000000000000, 1.00000000000000 ) );
#1090 = DIRECTION( '', ( 1.00000000000000, 0.000000000000000, 0.000000000000000 ) );
#1091 = DIRECTION( '', ( 0.000000000000000, 1.00000000000000, 0.000000000000000 ) );
#1092 = DIRECTION( '', ( 0.000000000000000, 1.00000000000000, 0.000000000000000 ) );
#1093 = DIRECTION( '', ( 0.000000000000000, 0.000000000000000, -1.00000000000000 ) );
ENDSEC;
END-ISO-10303-21;
