ISO-10303-21;
HEADER;
/* Generated by software containing ST-Developer
 * from STEP Tools, Inc. (www.steptools.com) 
 */

FILE_DESCRIPTION(
/* description */ (''),
/* implementation_level */ '2;1');

FILE_NAME(
/* name */ 'RMEF0805.stp',
/* time_stamp */ '2023-05-25T12:31:41-04:00',
/* author */ ('dmullane'),
/* organization */ (''),
/* preprocessor_version */ 'ST-DEVELOPER v19.2',
/* originating_system */ 'Autodesk Inventor 2024',
/* authorisation */ '');

FILE_SCHEMA (('AUTOMOTIVE_DESIGN { 1 0 10303 214 3 1 1 }'));
ENDSEC;

DATA;
#10=MECHANICAL_DESIGN_GEOMETRIC_PRESENTATION_REPRESENTATION('',(#13,#14,
#15,#16,#17,#18,#19,#20,#21,#22,#23,#24,#25,#26,#27,#28,#29,#30,#31,#32,
#33,#34,#35,#36,#37,#38,#39,#40,#41,#42),#935);
#11=SHAPE_REPRESENTATION_RELATIONSHIP('SRR','None',#942,#12);
#12=ADVANCED_BREP_SHAPE_REPRESENTATION('',(#43,#44,#45,#46),#934);
#13=STYLED_ITEM('',(#951),#43);
#14=STYLED_ITEM('',(#952),#557);
#15=STYLED_ITEM('',(#952),#558);
#16=STYLED_ITEM('',(#952),#559);
#17=STYLED_ITEM('',(#952),#560);
#18=STYLED_ITEM('',(#952),#561);
#19=STYLED_ITEM('',(#952),#562);
#20=STYLED_ITEM('',(#952),#563);
#21=STYLED_ITEM('',(#952),#564);
#22=STYLED_ITEM('',(#952),#565);
#23=STYLED_ITEM('',(#952),#566);
#24=STYLED_ITEM('',(#952),#567);
#25=STYLED_ITEM('',(#952),#568);
#26=STYLED_ITEM('',(#952),#569);
#27=STYLED_ITEM('',(#952),#570);
#28=STYLED_ITEM('',(#952),#571);
#29=STYLED_ITEM('',(#952),#572);
#30=STYLED_ITEM('',(#952),#573);
#31=STYLED_ITEM('',(#952),#574);
#32=STYLED_ITEM('',(#952),#575);
#33=STYLED_ITEM('',(#952),#576);
#34=STYLED_ITEM('',(#951),#44);
#35=STYLED_ITEM('',(#951),#45);
#36=STYLED_ITEM('',(#953),#577);
#37=STYLED_ITEM('',(#953),#578);
#38=STYLED_ITEM('',(#953),#579);
#39=STYLED_ITEM('',(#953),#580);
#40=STYLED_ITEM('',(#953),#581);
#41=STYLED_ITEM('',(#953),#582);
#42=STYLED_ITEM('',(#951),#46);
#43=MANIFOLD_SOLID_BREP('Solid1',#583);
#44=MANIFOLD_SOLID_BREP('Solid2',#584);
#45=MANIFOLD_SOLID_BREP('Solid2',#585);
#46=MANIFOLD_SOLID_BREP('Solid3',#586);
#47=FACE_OUTER_BOUND('',#79,.T.);
#48=FACE_OUTER_BOUND('',#80,.T.);
#49=FACE_OUTER_BOUND('',#81,.T.);
#50=FACE_OUTER_BOUND('',#82,.T.);
#51=FACE_OUTER_BOUND('',#83,.T.);
#52=FACE_OUTER_BOUND('',#84,.T.);
#53=FACE_OUTER_BOUND('',#85,.T.);
#54=FACE_OUTER_BOUND('',#86,.T.);
#55=FACE_OUTER_BOUND('',#87,.T.);
#56=FACE_OUTER_BOUND('',#88,.T.);
#57=FACE_OUTER_BOUND('',#89,.T.);
#58=FACE_OUTER_BOUND('',#90,.T.);
#59=FACE_OUTER_BOUND('',#91,.T.);
#60=FACE_OUTER_BOUND('',#92,.T.);
#61=FACE_OUTER_BOUND('',#93,.T.);
#62=FACE_OUTER_BOUND('',#94,.T.);
#63=FACE_OUTER_BOUND('',#95,.T.);
#64=FACE_OUTER_BOUND('',#96,.T.);
#65=FACE_OUTER_BOUND('',#97,.T.);
#66=FACE_OUTER_BOUND('',#98,.T.);
#67=FACE_OUTER_BOUND('',#99,.T.);
#68=FACE_OUTER_BOUND('',#100,.T.);
#69=FACE_OUTER_BOUND('',#101,.T.);
#70=FACE_OUTER_BOUND('',#102,.T.);
#71=FACE_OUTER_BOUND('',#103,.T.);
#72=FACE_OUTER_BOUND('',#104,.T.);
#73=FACE_OUTER_BOUND('',#105,.T.);
#74=FACE_OUTER_BOUND('',#106,.T.);
#75=FACE_OUTER_BOUND('',#107,.T.);
#76=FACE_OUTER_BOUND('',#108,.T.);
#77=FACE_OUTER_BOUND('',#109,.T.);
#78=FACE_OUTER_BOUND('',#110,.T.);
#79=EDGE_LOOP('',(#375,#376,#377,#378));
#80=EDGE_LOOP('',(#379,#380,#381,#382));
#81=EDGE_LOOP('',(#383,#384,#385,#386));
#82=EDGE_LOOP('',(#387,#388,#389,#390));
#83=EDGE_LOOP('',(#391,#392,#393,#394));
#84=EDGE_LOOP('',(#395,#396,#397,#398));
#85=EDGE_LOOP('',(#399,#400,#401,#402,#403,#404,#405,#406));
#86=EDGE_LOOP('',(#407,#408,#409,#410));
#87=EDGE_LOOP('',(#411,#412,#413,#414));
#88=EDGE_LOOP('',(#415,#416,#417,#418));
#89=EDGE_LOOP('',(#419,#420,#421,#422));
#90=EDGE_LOOP('',(#423,#424,#425,#426));
#91=EDGE_LOOP('',(#427,#428,#429,#430));
#92=EDGE_LOOP('',(#431,#432,#433,#434));
#93=EDGE_LOOP('',(#435,#436,#437,#438));
#94=EDGE_LOOP('',(#439,#440,#441,#442,#443,#444,#445,#446));
#95=EDGE_LOOP('',(#447,#448,#449,#450,#451,#452,#453,#454));
#96=EDGE_LOOP('',(#455,#456,#457,#458));
#97=EDGE_LOOP('',(#459,#460,#461,#462));
#98=EDGE_LOOP('',(#463,#464,#465,#466));
#99=EDGE_LOOP('',(#467,#468,#469,#470));
#100=EDGE_LOOP('',(#471,#472,#473,#474));
#101=EDGE_LOOP('',(#475,#476,#477,#478));
#102=EDGE_LOOP('',(#479,#480,#481,#482));
#103=EDGE_LOOP('',(#483,#484,#485,#486));
#104=EDGE_LOOP('',(#487,#488,#489,#490,#491,#492,#493,#494));
#105=EDGE_LOOP('',(#495,#496,#497,#498));
#106=EDGE_LOOP('',(#499,#500,#501,#502));
#107=EDGE_LOOP('',(#503,#504,#505,#506));
#108=EDGE_LOOP('',(#507,#508,#509,#510));
#109=EDGE_LOOP('',(#511,#512,#513,#514));
#110=EDGE_LOOP('',(#515,#516,#517,#518));
#111=LINE('',#783,#183);
#112=LINE('',#785,#184);
#113=LINE('',#787,#185);
#114=LINE('',#788,#186);
#115=LINE('',#791,#187);
#116=LINE('',#793,#188);
#117=LINE('',#794,#189);
#118=LINE('',#797,#190);
#119=LINE('',#799,#191);
#120=LINE('',#800,#192);
#121=LINE('',#802,#193);
#122=LINE('',#803,#194);
#123=LINE('',#809,#195);
#124=LINE('',#811,#196);
#125=LINE('',#813,#197);
#126=LINE('',#815,#198);
#127=LINE('',#817,#199);
#128=LINE('',#819,#200);
#129=LINE('',#821,#201);
#130=LINE('',#822,#202);
#131=LINE('',#825,#203);
#132=LINE('',#827,#204);
#133=LINE('',#828,#205);
#134=LINE('',#831,#206);
#135=LINE('',#832,#207);
#136=LINE('',#835,#208);
#137=LINE('',#836,#209);
#138=LINE('',#839,#210);
#139=LINE('',#840,#211);
#140=LINE('',#843,#212);
#141=LINE('',#844,#213);
#142=LINE('',#847,#214);
#143=LINE('',#848,#215);
#144=LINE('',#851,#216);
#145=LINE('',#852,#217);
#146=LINE('',#854,#218);
#147=LINE('',#859,#219);
#148=LINE('',#861,#220);
#149=LINE('',#863,#221);
#150=LINE('',#865,#222);
#151=LINE('',#867,#223);
#152=LINE('',#869,#224);
#153=LINE('',#871,#225);
#154=LINE('',#872,#226);
#155=LINE('',#875,#227);
#156=LINE('',#877,#228);
#157=LINE('',#878,#229);
#158=LINE('',#881,#230);
#159=LINE('',#882,#231);
#160=LINE('',#885,#232);
#161=LINE('',#886,#233);
#162=LINE('',#889,#234);
#163=LINE('',#890,#235);
#164=LINE('',#893,#236);
#165=LINE('',#894,#237);
#166=LINE('',#897,#238);
#167=LINE('',#898,#239);
#168=LINE('',#901,#240);
#169=LINE('',#902,#241);
#170=LINE('',#904,#242);
#171=LINE('',#909,#243);
#172=LINE('',#911,#244);
#173=LINE('',#913,#245);
#174=LINE('',#914,#246);
#175=LINE('',#917,#247);
#176=LINE('',#919,#248);
#177=LINE('',#920,#249);
#178=LINE('',#923,#250);
#179=LINE('',#925,#251);
#180=LINE('',#926,#252);
#181=LINE('',#928,#253);
#182=LINE('',#929,#254);
#183=VECTOR('',#645,10.);
#184=VECTOR('',#646,10.);
#185=VECTOR('',#647,10.);
#186=VECTOR('',#648,10.);
#187=VECTOR('',#651,10.);
#188=VECTOR('',#652,10.);
#189=VECTOR('',#653,10.);
#190=VECTOR('',#656,10.);
#191=VECTOR('',#657,10.);
#192=VECTOR('',#658,10.);
#193=VECTOR('',#661,10.);
#194=VECTOR('',#662,10.);
#195=VECTOR('',#669,10.);
#196=VECTOR('',#670,10.);
#197=VECTOR('',#671,10.);
#198=VECTOR('',#672,10.);
#199=VECTOR('',#673,10.);
#200=VECTOR('',#674,10.);
#201=VECTOR('',#675,10.);
#202=VECTOR('',#676,10.);
#203=VECTOR('',#679,10.);
#204=VECTOR('',#680,10.);
#205=VECTOR('',#681,10.);
#206=VECTOR('',#684,10.);
#207=VECTOR('',#685,10.);
#208=VECTOR('',#688,10.);
#209=VECTOR('',#689,10.);
#210=VECTOR('',#692,10.);
#211=VECTOR('',#693,10.);
#212=VECTOR('',#696,10.);
#213=VECTOR('',#697,10.);
#214=VECTOR('',#700,10.);
#215=VECTOR('',#701,10.);
#216=VECTOR('',#704,10.);
#217=VECTOR('',#705,10.);
#218=VECTOR('',#708,10.);
#219=VECTOR('',#713,10.);
#220=VECTOR('',#714,10.);
#221=VECTOR('',#715,10.);
#222=VECTOR('',#716,10.);
#223=VECTOR('',#717,10.);
#224=VECTOR('',#718,10.);
#225=VECTOR('',#719,10.);
#226=VECTOR('',#720,10.);
#227=VECTOR('',#723,10.);
#228=VECTOR('',#724,10.);
#229=VECTOR('',#725,10.);
#230=VECTOR('',#728,10.);
#231=VECTOR('',#729,10.);
#232=VECTOR('',#732,10.);
#233=VECTOR('',#733,10.);
#234=VECTOR('',#736,10.);
#235=VECTOR('',#737,10.);
#236=VECTOR('',#740,10.);
#237=VECTOR('',#741,10.);
#238=VECTOR('',#744,10.);
#239=VECTOR('',#745,10.);
#240=VECTOR('',#748,10.);
#241=VECTOR('',#749,10.);
#242=VECTOR('',#752,10.);
#243=VECTOR('',#757,10.);
#244=VECTOR('',#758,10.);
#245=VECTOR('',#759,10.);
#246=VECTOR('',#760,10.);
#247=VECTOR('',#763,10.);
#248=VECTOR('',#764,10.);
#249=VECTOR('',#765,10.);
#250=VECTOR('',#768,10.);
#251=VECTOR('',#769,10.);
#252=VECTOR('',#770,10.);
#253=VECTOR('',#773,10.);
#254=VECTOR('',#774,10.);
#255=VERTEX_POINT('',#781);
#256=VERTEX_POINT('',#782);
#257=VERTEX_POINT('',#784);
#258=VERTEX_POINT('',#786);
#259=VERTEX_POINT('',#790);
#260=VERTEX_POINT('',#792);
#261=VERTEX_POINT('',#796);
#262=VERTEX_POINT('',#798);
#263=VERTEX_POINT('',#807);
#264=VERTEX_POINT('',#808);
#265=VERTEX_POINT('',#810);
#266=VERTEX_POINT('',#812);
#267=VERTEX_POINT('',#814);
#268=VERTEX_POINT('',#816);
#269=VERTEX_POINT('',#818);
#270=VERTEX_POINT('',#820);
#271=VERTEX_POINT('',#824);
#272=VERTEX_POINT('',#826);
#273=VERTEX_POINT('',#830);
#274=VERTEX_POINT('',#834);
#275=VERTEX_POINT('',#838);
#276=VERTEX_POINT('',#842);
#277=VERTEX_POINT('',#846);
#278=VERTEX_POINT('',#850);
#279=VERTEX_POINT('',#857);
#280=VERTEX_POINT('',#858);
#281=VERTEX_POINT('',#860);
#282=VERTEX_POINT('',#862);
#283=VERTEX_POINT('',#864);
#284=VERTEX_POINT('',#866);
#285=VERTEX_POINT('',#868);
#286=VERTEX_POINT('',#870);
#287=VERTEX_POINT('',#874);
#288=VERTEX_POINT('',#876);
#289=VERTEX_POINT('',#880);
#290=VERTEX_POINT('',#884);
#291=VERTEX_POINT('',#888);
#292=VERTEX_POINT('',#892);
#293=VERTEX_POINT('',#896);
#294=VERTEX_POINT('',#900);
#295=VERTEX_POINT('',#907);
#296=VERTEX_POINT('',#908);
#297=VERTEX_POINT('',#910);
#298=VERTEX_POINT('',#912);
#299=VERTEX_POINT('',#916);
#300=VERTEX_POINT('',#918);
#301=VERTEX_POINT('',#922);
#302=VERTEX_POINT('',#924);
#303=EDGE_CURVE('',#255,#256,#111,.T.);
#304=EDGE_CURVE('',#256,#257,#112,.T.);
#305=EDGE_CURVE('',#258,#257,#113,.T.);
#306=EDGE_CURVE('',#255,#258,#114,.T.);
#307=EDGE_CURVE('',#259,#255,#115,.T.);
#308=EDGE_CURVE('',#260,#258,#116,.T.);
#309=EDGE_CURVE('',#259,#260,#117,.T.);
#310=EDGE_CURVE('',#261,#259,#118,.T.);
#311=EDGE_CURVE('',#262,#260,#119,.T.);
#312=EDGE_CURVE('',#261,#262,#120,.T.);
#313=EDGE_CURVE('',#256,#261,#121,.T.);
#314=EDGE_CURVE('',#257,#262,#122,.T.);
#315=EDGE_CURVE('',#263,#264,#123,.T.);
#316=EDGE_CURVE('',#264,#265,#124,.T.);
#317=EDGE_CURVE('',#265,#266,#125,.T.);
#318=EDGE_CURVE('',#266,#267,#126,.T.);
#319=EDGE_CURVE('',#267,#268,#127,.T.);
#320=EDGE_CURVE('',#268,#269,#128,.T.);
#321=EDGE_CURVE('',#269,#270,#129,.T.);
#322=EDGE_CURVE('',#270,#263,#130,.T.);
#323=EDGE_CURVE('',#271,#264,#131,.T.);
#324=EDGE_CURVE('',#272,#271,#132,.T.);
#325=EDGE_CURVE('',#265,#272,#133,.T.);
#326=EDGE_CURVE('',#273,#272,#134,.T.);
#327=EDGE_CURVE('',#266,#273,#135,.T.);
#328=EDGE_CURVE('',#274,#273,#136,.T.);
#329=EDGE_CURVE('',#267,#274,#137,.T.);
#330=EDGE_CURVE('',#275,#274,#138,.T.);
#331=EDGE_CURVE('',#268,#275,#139,.T.);
#332=EDGE_CURVE('',#276,#275,#140,.T.);
#333=EDGE_CURVE('',#269,#276,#141,.T.);
#334=EDGE_CURVE('',#277,#276,#142,.T.);
#335=EDGE_CURVE('',#270,#277,#143,.T.);
#336=EDGE_CURVE('',#278,#277,#144,.T.);
#337=EDGE_CURVE('',#263,#278,#145,.T.);
#338=EDGE_CURVE('',#271,#278,#146,.T.);
#339=EDGE_CURVE('',#279,#280,#147,.T.);
#340=EDGE_CURVE('',#280,#281,#148,.T.);
#341=EDGE_CURVE('',#281,#282,#149,.T.);
#342=EDGE_CURVE('',#282,#283,#150,.T.);
#343=EDGE_CURVE('',#283,#284,#151,.T.);
#344=EDGE_CURVE('',#284,#285,#152,.T.);
#345=EDGE_CURVE('',#285,#286,#153,.T.);
#346=EDGE_CURVE('',#286,#279,#154,.T.);
#347=EDGE_CURVE('',#287,#280,#155,.T.);
#348=EDGE_CURVE('',#288,#287,#156,.T.);
#349=EDGE_CURVE('',#281,#288,#157,.T.);
#350=EDGE_CURVE('',#289,#288,#158,.T.);
#351=EDGE_CURVE('',#282,#289,#159,.T.);
#352=EDGE_CURVE('',#290,#289,#160,.T.);
#353=EDGE_CURVE('',#283,#290,#161,.T.);
#354=EDGE_CURVE('',#291,#290,#162,.T.);
#355=EDGE_CURVE('',#284,#291,#163,.T.);
#356=EDGE_CURVE('',#292,#291,#164,.T.);
#357=EDGE_CURVE('',#285,#292,#165,.T.);
#358=EDGE_CURVE('',#293,#292,#166,.T.);
#359=EDGE_CURVE('',#286,#293,#167,.T.);
#360=EDGE_CURVE('',#294,#293,#168,.T.);
#361=EDGE_CURVE('',#279,#294,#169,.T.);
#362=EDGE_CURVE('',#287,#294,#170,.T.);
#363=EDGE_CURVE('',#295,#296,#171,.T.);
#364=EDGE_CURVE('',#295,#297,#172,.T.);
#365=EDGE_CURVE('',#298,#297,#173,.T.);
#366=EDGE_CURVE('',#296,#298,#174,.T.);
#367=EDGE_CURVE('',#296,#299,#175,.T.);
#368=EDGE_CURVE('',#300,#298,#176,.T.);
#369=EDGE_CURVE('',#299,#300,#177,.T.);
#370=EDGE_CURVE('',#299,#301,#178,.T.);
#371=EDGE_CURVE('',#302,#300,#179,.T.);
#372=EDGE_CURVE('',#301,#302,#180,.T.);
#373=EDGE_CURVE('',#301,#295,#181,.T.);
#374=EDGE_CURVE('',#297,#302,#182,.T.);
#375=ORIENTED_EDGE('',*,*,#303,.T.);
#376=ORIENTED_EDGE('',*,*,#304,.T.);
#377=ORIENTED_EDGE('',*,*,#305,.F.);
#378=ORIENTED_EDGE('',*,*,#306,.F.);
#379=ORIENTED_EDGE('',*,*,#307,.T.);
#380=ORIENTED_EDGE('',*,*,#306,.T.);
#381=ORIENTED_EDGE('',*,*,#308,.F.);
#382=ORIENTED_EDGE('',*,*,#309,.F.);
#383=ORIENTED_EDGE('',*,*,#310,.T.);
#384=ORIENTED_EDGE('',*,*,#309,.T.);
#385=ORIENTED_EDGE('',*,*,#311,.F.);
#386=ORIENTED_EDGE('',*,*,#312,.F.);
#387=ORIENTED_EDGE('',*,*,#313,.T.);
#388=ORIENTED_EDGE('',*,*,#312,.T.);
#389=ORIENTED_EDGE('',*,*,#314,.F.);
#390=ORIENTED_EDGE('',*,*,#304,.F.);
#391=ORIENTED_EDGE('',*,*,#314,.T.);
#392=ORIENTED_EDGE('',*,*,#311,.T.);
#393=ORIENTED_EDGE('',*,*,#308,.T.);
#394=ORIENTED_EDGE('',*,*,#305,.T.);
#395=ORIENTED_EDGE('',*,*,#313,.F.);
#396=ORIENTED_EDGE('',*,*,#303,.F.);
#397=ORIENTED_EDGE('',*,*,#307,.F.);
#398=ORIENTED_EDGE('',*,*,#310,.F.);
#399=ORIENTED_EDGE('',*,*,#315,.T.);
#400=ORIENTED_EDGE('',*,*,#316,.T.);
#401=ORIENTED_EDGE('',*,*,#317,.T.);
#402=ORIENTED_EDGE('',*,*,#318,.T.);
#403=ORIENTED_EDGE('',*,*,#319,.T.);
#404=ORIENTED_EDGE('',*,*,#320,.T.);
#405=ORIENTED_EDGE('',*,*,#321,.T.);
#406=ORIENTED_EDGE('',*,*,#322,.T.);
#407=ORIENTED_EDGE('',*,*,#323,.F.);
#408=ORIENTED_EDGE('',*,*,#324,.F.);
#409=ORIENTED_EDGE('',*,*,#325,.F.);
#410=ORIENTED_EDGE('',*,*,#316,.F.);
#411=ORIENTED_EDGE('',*,*,#325,.T.);
#412=ORIENTED_EDGE('',*,*,#326,.F.);
#413=ORIENTED_EDGE('',*,*,#327,.F.);
#414=ORIENTED_EDGE('',*,*,#317,.F.);
#415=ORIENTED_EDGE('',*,*,#327,.T.);
#416=ORIENTED_EDGE('',*,*,#328,.F.);
#417=ORIENTED_EDGE('',*,*,#329,.F.);
#418=ORIENTED_EDGE('',*,*,#318,.F.);
#419=ORIENTED_EDGE('',*,*,#329,.T.);
#420=ORIENTED_EDGE('',*,*,#330,.F.);
#421=ORIENTED_EDGE('',*,*,#331,.F.);
#422=ORIENTED_EDGE('',*,*,#319,.F.);
#423=ORIENTED_EDGE('',*,*,#331,.T.);
#424=ORIENTED_EDGE('',*,*,#332,.F.);
#425=ORIENTED_EDGE('',*,*,#333,.F.);
#426=ORIENTED_EDGE('',*,*,#320,.F.);
#427=ORIENTED_EDGE('',*,*,#333,.T.);
#428=ORIENTED_EDGE('',*,*,#334,.F.);
#429=ORIENTED_EDGE('',*,*,#335,.F.);
#430=ORIENTED_EDGE('',*,*,#321,.F.);
#431=ORIENTED_EDGE('',*,*,#335,.T.);
#432=ORIENTED_EDGE('',*,*,#336,.F.);
#433=ORIENTED_EDGE('',*,*,#337,.F.);
#434=ORIENTED_EDGE('',*,*,#322,.F.);
#435=ORIENTED_EDGE('',*,*,#337,.T.);
#436=ORIENTED_EDGE('',*,*,#338,.F.);
#437=ORIENTED_EDGE('',*,*,#323,.T.);
#438=ORIENTED_EDGE('',*,*,#315,.F.);
#439=ORIENTED_EDGE('',*,*,#338,.T.);
#440=ORIENTED_EDGE('',*,*,#336,.T.);
#441=ORIENTED_EDGE('',*,*,#334,.T.);
#442=ORIENTED_EDGE('',*,*,#332,.T.);
#443=ORIENTED_EDGE('',*,*,#330,.T.);
#444=ORIENTED_EDGE('',*,*,#328,.T.);
#445=ORIENTED_EDGE('',*,*,#326,.T.);
#446=ORIENTED_EDGE('',*,*,#324,.T.);
#447=ORIENTED_EDGE('',*,*,#339,.T.);
#448=ORIENTED_EDGE('',*,*,#340,.T.);
#449=ORIENTED_EDGE('',*,*,#341,.T.);
#450=ORIENTED_EDGE('',*,*,#342,.T.);
#451=ORIENTED_EDGE('',*,*,#343,.T.);
#452=ORIENTED_EDGE('',*,*,#344,.T.);
#453=ORIENTED_EDGE('',*,*,#345,.T.);
#454=ORIENTED_EDGE('',*,*,#346,.T.);
#455=ORIENTED_EDGE('',*,*,#347,.F.);
#456=ORIENTED_EDGE('',*,*,#348,.F.);
#457=ORIENTED_EDGE('',*,*,#349,.F.);
#458=ORIENTED_EDGE('',*,*,#340,.F.);
#459=ORIENTED_EDGE('',*,*,#349,.T.);
#460=ORIENTED_EDGE('',*,*,#350,.F.);
#461=ORIENTED_EDGE('',*,*,#351,.F.);
#462=ORIENTED_EDGE('',*,*,#341,.F.);
#463=ORIENTED_EDGE('',*,*,#351,.T.);
#464=ORIENTED_EDGE('',*,*,#352,.F.);
#465=ORIENTED_EDGE('',*,*,#353,.F.);
#466=ORIENTED_EDGE('',*,*,#342,.F.);
#467=ORIENTED_EDGE('',*,*,#353,.T.);
#468=ORIENTED_EDGE('',*,*,#354,.F.);
#469=ORIENTED_EDGE('',*,*,#355,.F.);
#470=ORIENTED_EDGE('',*,*,#343,.F.);
#471=ORIENTED_EDGE('',*,*,#355,.T.);
#472=ORIENTED_EDGE('',*,*,#356,.F.);
#473=ORIENTED_EDGE('',*,*,#357,.F.);
#474=ORIENTED_EDGE('',*,*,#344,.F.);
#475=ORIENTED_EDGE('',*,*,#357,.T.);
#476=ORIENTED_EDGE('',*,*,#358,.F.);
#477=ORIENTED_EDGE('',*,*,#359,.F.);
#478=ORIENTED_EDGE('',*,*,#345,.F.);
#479=ORIENTED_EDGE('',*,*,#359,.T.);
#480=ORIENTED_EDGE('',*,*,#360,.F.);
#481=ORIENTED_EDGE('',*,*,#361,.F.);
#482=ORIENTED_EDGE('',*,*,#346,.F.);
#483=ORIENTED_EDGE('',*,*,#361,.T.);
#484=ORIENTED_EDGE('',*,*,#362,.F.);
#485=ORIENTED_EDGE('',*,*,#347,.T.);
#486=ORIENTED_EDGE('',*,*,#339,.F.);
#487=ORIENTED_EDGE('',*,*,#362,.T.);
#488=ORIENTED_EDGE('',*,*,#360,.T.);
#489=ORIENTED_EDGE('',*,*,#358,.T.);
#490=ORIENTED_EDGE('',*,*,#356,.T.);
#491=ORIENTED_EDGE('',*,*,#354,.T.);
#492=ORIENTED_EDGE('',*,*,#352,.T.);
#493=ORIENTED_EDGE('',*,*,#350,.T.);
#494=ORIENTED_EDGE('',*,*,#348,.T.);
#495=ORIENTED_EDGE('',*,*,#363,.F.);
#496=ORIENTED_EDGE('',*,*,#364,.T.);
#497=ORIENTED_EDGE('',*,*,#365,.F.);
#498=ORIENTED_EDGE('',*,*,#366,.F.);
#499=ORIENTED_EDGE('',*,*,#367,.F.);
#500=ORIENTED_EDGE('',*,*,#366,.T.);
#501=ORIENTED_EDGE('',*,*,#368,.F.);
#502=ORIENTED_EDGE('',*,*,#369,.F.);
#503=ORIENTED_EDGE('',*,*,#370,.F.);
#504=ORIENTED_EDGE('',*,*,#369,.T.);
#505=ORIENTED_EDGE('',*,*,#371,.F.);
#506=ORIENTED_EDGE('',*,*,#372,.F.);
#507=ORIENTED_EDGE('',*,*,#373,.F.);
#508=ORIENTED_EDGE('',*,*,#372,.T.);
#509=ORIENTED_EDGE('',*,*,#374,.F.);
#510=ORIENTED_EDGE('',*,*,#364,.F.);
#511=ORIENTED_EDGE('',*,*,#373,.T.);
#512=ORIENTED_EDGE('',*,*,#363,.T.);
#513=ORIENTED_EDGE('',*,*,#367,.T.);
#514=ORIENTED_EDGE('',*,*,#370,.T.);
#515=ORIENTED_EDGE('',*,*,#374,.T.);
#516=ORIENTED_EDGE('',*,*,#371,.T.);
#517=ORIENTED_EDGE('',*,*,#368,.T.);
#518=ORIENTED_EDGE('',*,*,#365,.T.);
#519=PLANE('',#609);
#520=PLANE('',#610);
#521=PLANE('',#611);
#522=PLANE('',#612);
#523=PLANE('',#613);
#524=PLANE('',#614);
#525=PLANE('',#615);
#526=PLANE('',#616);
#527=PLANE('',#617);
#528=PLANE('',#618);
#529=PLANE('',#619);
#530=PLANE('',#620);
#531=PLANE('',#621);
#532=PLANE('',#622);
#533=PLANE('',#623);
#534=PLANE('',#624);
#535=PLANE('',#625);
#536=PLANE('',#626);
#537=PLANE('',#627);
#538=PLANE('',#628);
#539=PLANE('',#629);
#540=PLANE('',#630);
#541=PLANE('',#631);
#542=PLANE('',#632);
#543=PLANE('',#633);
#544=PLANE('',#634);
#545=PLANE('',#635);
#546=PLANE('',#636);
#547=PLANE('',#637);
#548=PLANE('',#638);
#549=PLANE('',#639);
#550=PLANE('',#640);
#551=ADVANCED_FACE('',(#47),#519,.T.);
#552=ADVANCED_FACE('',(#48),#520,.T.);
#553=ADVANCED_FACE('',(#49),#521,.T.);
#554=ADVANCED_FACE('',(#50),#522,.T.);
#555=ADVANCED_FACE('',(#51),#523,.T.);
#556=ADVANCED_FACE('',(#52),#524,.F.);
#557=ADVANCED_FACE('',(#53),#525,.T.);
#558=ADVANCED_FACE('',(#54),#526,.T.);
#559=ADVANCED_FACE('',(#55),#527,.T.);
#560=ADVANCED_FACE('',(#56),#528,.T.);
#561=ADVANCED_FACE('',(#57),#529,.T.);
#562=ADVANCED_FACE('',(#58),#530,.T.);
#563=ADVANCED_FACE('',(#59),#531,.T.);
#564=ADVANCED_FACE('',(#60),#532,.T.);
#565=ADVANCED_FACE('',(#61),#533,.T.);
#566=ADVANCED_FACE('',(#62),#534,.T.);
#567=ADVANCED_FACE('',(#63),#535,.T.);
#568=ADVANCED_FACE('',(#64),#536,.T.);
#569=ADVANCED_FACE('',(#65),#537,.T.);
#570=ADVANCED_FACE('',(#66),#538,.T.);
#571=ADVANCED_FACE('',(#67),#539,.T.);
#572=ADVANCED_FACE('',(#68),#540,.T.);
#573=ADVANCED_FACE('',(#69),#541,.T.);
#574=ADVANCED_FACE('',(#70),#542,.T.);
#575=ADVANCED_FACE('',(#71),#543,.T.);
#576=ADVANCED_FACE('',(#72),#544,.T.);
#577=ADVANCED_FACE('',(#73),#545,.T.);
#578=ADVANCED_FACE('',(#74),#546,.T.);
#579=ADVANCED_FACE('',(#75),#547,.T.);
#580=ADVANCED_FACE('',(#76),#548,.T.);
#581=ADVANCED_FACE('',(#77),#549,.T.);
#582=ADVANCED_FACE('',(#78),#550,.T.);
#583=CLOSED_SHELL('',(#551,#552,#553,#554,#555,#556));
#584=CLOSED_SHELL('',(#557,#558,#559,#560,#561,#562,#563,#564,#565,#566));
#585=CLOSED_SHELL('',(#567,#568,#569,#570,#571,#572,#573,#574,#575,#576));
#586=CLOSED_SHELL('',(#577,#578,#579,#580,#581,#582));
#587=DERIVED_UNIT_ELEMENT(#590,1.);
#588=DERIVED_UNIT_ELEMENT(#937,-3.);
#589=DIMENSIONAL_EXPONENTS(0.,1.,0.,0.,0.,0.,0.);
#590=(
CONVERSION_BASED_UNIT('gram',#592)
MASS_UNIT()
NAMED_UNIT(#589)
);
#591=(
MASS_UNIT()
NAMED_UNIT(*)
SI_UNIT(.KILO.,.GRAM.)
);
#592=MASS_MEASURE_WITH_UNIT(MASS_MEASURE(0.001),#591);
#593=DERIVED_UNIT((#587,#588));
#594=MEASURE_REPRESENTATION_ITEM('density measure',
POSITIVE_RATIO_MEASURE(1.),#593);
#595=PROPERTY_DEFINITION_REPRESENTATION(#600,#597);
#596=PROPERTY_DEFINITION_REPRESENTATION(#601,#598);
#597=REPRESENTATION('material name',(#599),#934);
#598=REPRESENTATION('density',(#594),#934);
#599=DESCRIPTIVE_REPRESENTATION_ITEM('Generic','Generic');
#600=PROPERTY_DEFINITION('material property','material name',#944);
#601=PROPERTY_DEFINITION('material property','density of part',#944);
#602=DATE_TIME_ROLE('creation_date');
#603=APPLIED_DATE_AND_TIME_ASSIGNMENT(#604,#602,(#944));
#604=DATE_AND_TIME(#605,#606);
#605=CALENDAR_DATE(2023,25,5);
#606=LOCAL_TIME(0,0,0.,#607);
#607=COORDINATED_UNIVERSAL_TIME_OFFSET(0,0,.BEHIND.);
#608=AXIS2_PLACEMENT_3D('',#779,#641,#642);
#609=AXIS2_PLACEMENT_3D('',#780,#643,#644);
#610=AXIS2_PLACEMENT_3D('',#789,#649,#650);
#611=AXIS2_PLACEMENT_3D('',#795,#654,#655);
#612=AXIS2_PLACEMENT_3D('',#801,#659,#660);
#613=AXIS2_PLACEMENT_3D('',#804,#663,#664);
#614=AXIS2_PLACEMENT_3D('',#805,#665,#666);
#615=AXIS2_PLACEMENT_3D('',#806,#667,#668);
#616=AXIS2_PLACEMENT_3D('',#823,#677,#678);
#617=AXIS2_PLACEMENT_3D('',#829,#682,#683);
#618=AXIS2_PLACEMENT_3D('',#833,#686,#687);
#619=AXIS2_PLACEMENT_3D('',#837,#690,#691);
#620=AXIS2_PLACEMENT_3D('',#841,#694,#695);
#621=AXIS2_PLACEMENT_3D('',#845,#698,#699);
#622=AXIS2_PLACEMENT_3D('',#849,#702,#703);
#623=AXIS2_PLACEMENT_3D('',#853,#706,#707);
#624=AXIS2_PLACEMENT_3D('',#855,#709,#710);
#625=AXIS2_PLACEMENT_3D('',#856,#711,#712);
#626=AXIS2_PLACEMENT_3D('',#873,#721,#722);
#627=AXIS2_PLACEMENT_3D('',#879,#726,#727);
#628=AXIS2_PLACEMENT_3D('',#883,#730,#731);
#629=AXIS2_PLACEMENT_3D('',#887,#734,#735);
#630=AXIS2_PLACEMENT_3D('',#891,#738,#739);
#631=AXIS2_PLACEMENT_3D('',#895,#742,#743);
#632=AXIS2_PLACEMENT_3D('',#899,#746,#747);
#633=AXIS2_PLACEMENT_3D('',#903,#750,#751);
#634=AXIS2_PLACEMENT_3D('',#905,#753,#754);
#635=AXIS2_PLACEMENT_3D('',#906,#755,#756);
#636=AXIS2_PLACEMENT_3D('',#915,#761,#762);
#637=AXIS2_PLACEMENT_3D('',#921,#766,#767);
#638=AXIS2_PLACEMENT_3D('',#927,#771,#772);
#639=AXIS2_PLACEMENT_3D('',#930,#775,#776);
#640=AXIS2_PLACEMENT_3D('',#931,#777,#778);
#641=DIRECTION('axis',(0.,0.,1.));
#642=DIRECTION('refdir',(1.,0.,0.));
#643=DIRECTION('center_axis',(-1.,0.,0.));
#644=DIRECTION('ref_axis',(0.,0.,1.));
#645=DIRECTION('',(0.,0.,1.));
#646=DIRECTION('',(0.,1.,0.));
#647=DIRECTION('',(0.,0.,1.));
#648=DIRECTION('',(0.,1.,0.));
#649=DIRECTION('center_axis',(0.,0.,-1.));
#650=DIRECTION('ref_axis',(-1.,0.,0.));
#651=DIRECTION('',(-1.,0.,0.));
#652=DIRECTION('',(-1.,0.,0.));
#653=DIRECTION('',(0.,1.,0.));
#654=DIRECTION('center_axis',(1.,0.,0.));
#655=DIRECTION('ref_axis',(0.,0.,-1.));
#656=DIRECTION('',(0.,0.,-1.));
#657=DIRECTION('',(0.,0.,-1.));
#658=DIRECTION('',(0.,1.,0.));
#659=DIRECTION('center_axis',(0.,0.,1.));
#660=DIRECTION('ref_axis',(1.,0.,0.));
#661=DIRECTION('',(1.,0.,0.));
#662=DIRECTION('',(1.,0.,0.));
#663=DIRECTION('center_axis',(0.,1.,0.));
#664=DIRECTION('ref_axis',(0.,0.,1.));
#665=DIRECTION('center_axis',(0.,1.,0.));
#666=DIRECTION('ref_axis',(0.,0.,1.));
#667=DIRECTION('center_axis',(0.,0.,-1.));
#668=DIRECTION('ref_axis',(-1.,0.,0.));
#669=DIRECTION('',(-1.,0.,0.));
#670=DIRECTION('',(0.,1.,0.));
#671=DIRECTION('',(1.,0.,0.));
#672=DIRECTION('',(0.,1.,0.));
#673=DIRECTION('',(-1.,0.,0.));
#674=DIRECTION('',(0.,1.,0.));
#675=DIRECTION('',(1.,0.,0.));
#676=DIRECTION('',(0.,-1.,0.));
#677=DIRECTION('center_axis',(-1.,0.,0.));
#678=DIRECTION('ref_axis',(0.,-1.,0.));
#679=DIRECTION('',(0.,0.,-1.));
#680=DIRECTION('',(0.,-1.,0.));
#681=DIRECTION('',(0.,0.,1.));
#682=DIRECTION('center_axis',(0.,1.,0.));
#683=DIRECTION('ref_axis',(-1.,0.,0.));
#684=DIRECTION('',(-1.,0.,0.));
#685=DIRECTION('',(0.,0.,1.));
#686=DIRECTION('center_axis',(-1.,0.,0.));
#687=DIRECTION('ref_axis',(0.,-1.,0.));
#688=DIRECTION('',(0.,-1.,0.));
#689=DIRECTION('',(0.,0.,1.));
#690=DIRECTION('center_axis',(0.,-1.,0.));
#691=DIRECTION('ref_axis',(1.,0.,0.));
#692=DIRECTION('',(1.,0.,0.));
#693=DIRECTION('',(0.,0.,1.));
#694=DIRECTION('center_axis',(-1.,0.,0.));
#695=DIRECTION('ref_axis',(0.,-1.,0.));
#696=DIRECTION('',(0.,-1.,0.));
#697=DIRECTION('',(0.,0.,1.));
#698=DIRECTION('center_axis',(0.,1.,0.));
#699=DIRECTION('ref_axis',(-1.,0.,0.));
#700=DIRECTION('',(-1.,0.,0.));
#701=DIRECTION('',(0.,0.,1.));
#702=DIRECTION('center_axis',(1.,0.,0.));
#703=DIRECTION('ref_axis',(0.,1.,0.));
#704=DIRECTION('',(0.,1.,0.));
#705=DIRECTION('',(0.,0.,1.));
#706=DIRECTION('center_axis',(0.,-1.,0.));
#707=DIRECTION('ref_axis',(1.,0.,0.));
#708=DIRECTION('',(1.,0.,0.));
#709=DIRECTION('center_axis',(0.,0.,1.));
#710=DIRECTION('ref_axis',(1.,0.,0.));
#711=DIRECTION('center_axis',(0.,0.,-1.));
#712=DIRECTION('ref_axis',(-1.,0.,0.));
#713=DIRECTION('',(1.,0.,0.));
#714=DIRECTION('',(0.,-1.,0.));
#715=DIRECTION('',(-1.,0.,0.));
#716=DIRECTION('',(0.,-1.,0.));
#717=DIRECTION('',(1.,0.,0.));
#718=DIRECTION('',(0.,-1.,0.));
#719=DIRECTION('',(-1.,0.,0.));
#720=DIRECTION('',(0.,1.,0.));
#721=DIRECTION('center_axis',(1.,0.,0.));
#722=DIRECTION('ref_axis',(0.,1.,0.));
#723=DIRECTION('',(0.,0.,-1.));
#724=DIRECTION('',(0.,1.,0.));
#725=DIRECTION('',(0.,0.,1.));
#726=DIRECTION('center_axis',(0.,-1.,0.));
#727=DIRECTION('ref_axis',(1.,0.,0.));
#728=DIRECTION('',(1.,0.,0.));
#729=DIRECTION('',(0.,0.,1.));
#730=DIRECTION('center_axis',(1.,0.,0.));
#731=DIRECTION('ref_axis',(0.,1.,0.));
#732=DIRECTION('',(0.,1.,0.));
#733=DIRECTION('',(0.,0.,1.));
#734=DIRECTION('center_axis',(0.,1.,0.));
#735=DIRECTION('ref_axis',(-1.,0.,0.));
#736=DIRECTION('',(-1.,0.,0.));
#737=DIRECTION('',(0.,0.,1.));
#738=DIRECTION('center_axis',(1.,0.,0.));
#739=DIRECTION('ref_axis',(0.,1.,0.));
#740=DIRECTION('',(0.,1.,0.));
#741=DIRECTION('',(0.,0.,1.));
#742=DIRECTION('center_axis',(0.,-1.,0.));
#743=DIRECTION('ref_axis',(1.,0.,0.));
#744=DIRECTION('',(1.,0.,0.));
#745=DIRECTION('',(0.,0.,1.));
#746=DIRECTION('center_axis',(-1.,0.,0.));
#747=DIRECTION('ref_axis',(0.,-1.,0.));
#748=DIRECTION('',(0.,-1.,0.));
#749=DIRECTION('',(0.,0.,1.));
#750=DIRECTION('center_axis',(0.,1.,0.));
#751=DIRECTION('ref_axis',(-1.,0.,0.));
#752=DIRECTION('',(-1.,0.,0.));
#753=DIRECTION('center_axis',(0.,0.,1.));
#754=DIRECTION('ref_axis',(1.,0.,0.));
#755=DIRECTION('center_axis',(0.,-1.,0.));
#756=DIRECTION('ref_axis',(-1.,0.,0.));
#757=DIRECTION('',(1.,0.,0.));
#758=DIRECTION('',(0.,0.,-1.));
#759=DIRECTION('',(-1.,0.,0.));
#760=DIRECTION('',(0.,0.,-1.));
#761=DIRECTION('center_axis',(1.,0.,0.));
#762=DIRECTION('ref_axis',(0.,-1.,0.));
#763=DIRECTION('',(0.,1.,0.));
#764=DIRECTION('',(0.,-1.,0.));
#765=DIRECTION('',(0.,0.,-1.));
#766=DIRECTION('center_axis',(0.,1.,0.));
#767=DIRECTION('ref_axis',(1.,0.,0.));
#768=DIRECTION('',(-1.,0.,0.));
#769=DIRECTION('',(1.,0.,0.));
#770=DIRECTION('',(0.,0.,-1.));
#771=DIRECTION('center_axis',(-1.,0.,0.));
#772=DIRECTION('ref_axis',(0.,1.,0.));
#773=DIRECTION('',(0.,-1.,0.));
#774=DIRECTION('',(0.,1.,0.));
#775=DIRECTION('center_axis',(0.,0.,1.));
#776=DIRECTION('ref_axis',(1.,0.,0.));
#777=DIRECTION('center_axis',(0.,0.,-1.));
#778=DIRECTION('ref_axis',(-1.,0.,0.));
#779=CARTESIAN_POINT('',(0.,0.,0.));
#780=CARTESIAN_POINT('Origin',(0.,0.,0.));
#781=CARTESIAN_POINT('',(0.,0.,0.));
#782=CARTESIAN_POINT('',(0.,0.,1.222));
#783=CARTESIAN_POINT('',(0.,0.,0.));
#784=CARTESIAN_POINT('',(0.,0.372,1.222));
#785=CARTESIAN_POINT('',(0.,0.,1.222));
#786=CARTESIAN_POINT('',(0.,0.372,0.));
#787=CARTESIAN_POINT('',(0.,0.372,0.));
#788=CARTESIAN_POINT('',(0.,0.,0.));
#789=CARTESIAN_POINT('Origin',(1.972,0.,0.));
#790=CARTESIAN_POINT('',(1.972,0.,0.));
#791=CARTESIAN_POINT('',(1.972,0.,0.));
#792=CARTESIAN_POINT('',(1.972,0.372,0.));
#793=CARTESIAN_POINT('',(1.972,0.372,0.));
#794=CARTESIAN_POINT('',(1.972,0.,0.));
#795=CARTESIAN_POINT('Origin',(1.972,0.,1.222));
#796=CARTESIAN_POINT('',(1.972,0.,1.222));
#797=CARTESIAN_POINT('',(1.972,0.,1.222));
#798=CARTESIAN_POINT('',(1.972,0.372,1.222));
#799=CARTESIAN_POINT('',(1.972,0.372,1.222));
#800=CARTESIAN_POINT('',(1.972,0.,1.222));
#801=CARTESIAN_POINT('Origin',(0.,0.,1.222));
#802=CARTESIAN_POINT('',(0.,0.,1.222));
#803=CARTESIAN_POINT('',(0.,0.372,1.222));
#804=CARTESIAN_POINT('Origin',(0.986,0.372,0.611));
#805=CARTESIAN_POINT('Origin',(0.986,0.,0.611));
#806=CARTESIAN_POINT('Origin',(1.786,0.186,-0.014));
#807=CARTESIAN_POINT('',(1.986,-0.014,-0.014));
#808=CARTESIAN_POINT('',(1.586,-0.014,-0.014));
#809=CARTESIAN_POINT('',(1.586,-0.014,-0.014));
#810=CARTESIAN_POINT('',(1.586,0.,-0.014));
#811=CARTESIAN_POINT('',(1.586,0.,-0.014));
#812=CARTESIAN_POINT('',(1.972,0.,-0.014));
#813=CARTESIAN_POINT('',(1.986,0.,-0.014));
#814=CARTESIAN_POINT('',(1.972,0.372,-0.014));
#815=CARTESIAN_POINT('',(1.972,0.372,-0.014));
#816=CARTESIAN_POINT('',(1.686,0.372,-0.014));
#817=CARTESIAN_POINT('',(1.686,0.372,-0.014));
#818=CARTESIAN_POINT('',(1.686,0.386,-0.014));
#819=CARTESIAN_POINT('',(1.686,0.386,-0.014));
#820=CARTESIAN_POINT('',(1.986,0.386,-0.014));
#821=CARTESIAN_POINT('',(1.986,0.386,-0.014));
#822=CARTESIAN_POINT('',(1.986,-0.014,-0.014));
#823=CARTESIAN_POINT('Origin',(1.586,0.,1.222));
#824=CARTESIAN_POINT('',(1.586,-0.014,1.236));
#825=CARTESIAN_POINT('',(1.586,-0.014,1.222));
#826=CARTESIAN_POINT('',(1.586,0.,1.236));
#827=CARTESIAN_POINT('',(1.586,0.,1.236));
#828=CARTESIAN_POINT('',(1.586,0.,1.222));
#829=CARTESIAN_POINT('Origin',(1.972,0.,1.222));
#830=CARTESIAN_POINT('',(1.972,0.,1.236));
#831=CARTESIAN_POINT('',(1.986,0.,1.236));
#832=CARTESIAN_POINT('',(1.972,0.,1.222));
#833=CARTESIAN_POINT('Origin',(1.972,0.372,1.222));
#834=CARTESIAN_POINT('',(1.972,0.372,1.236));
#835=CARTESIAN_POINT('',(1.972,0.372,1.236));
#836=CARTESIAN_POINT('',(1.972,0.372,1.222));
#837=CARTESIAN_POINT('Origin',(1.686,0.372,1.222));
#838=CARTESIAN_POINT('',(1.686,0.372,1.236));
#839=CARTESIAN_POINT('',(1.686,0.372,1.236));
#840=CARTESIAN_POINT('',(1.686,0.372,1.222));
#841=CARTESIAN_POINT('Origin',(1.686,0.386,1.222));
#842=CARTESIAN_POINT('',(1.686,0.386,1.236));
#843=CARTESIAN_POINT('',(1.686,0.386,1.236));
#844=CARTESIAN_POINT('',(1.686,0.386,1.222));
#845=CARTESIAN_POINT('Origin',(1.986,0.386,1.222));
#846=CARTESIAN_POINT('',(1.986,0.386,1.236));
#847=CARTESIAN_POINT('',(1.986,0.386,1.236));
#848=CARTESIAN_POINT('',(1.986,0.386,1.222));
#849=CARTESIAN_POINT('Origin',(1.986,-0.014,1.222));
#850=CARTESIAN_POINT('',(1.986,-0.014,1.236));
#851=CARTESIAN_POINT('',(1.986,-0.014,1.236));
#852=CARTESIAN_POINT('',(1.986,-0.014,1.222));
#853=CARTESIAN_POINT('Origin',(1.586,-0.014,1.222));
#854=CARTESIAN_POINT('',(1.586,-0.014,1.236));
#855=CARTESIAN_POINT('Origin',(1.786,0.186,1.236));
#856=CARTESIAN_POINT('Origin',(0.186,0.186,-0.014));
#857=CARTESIAN_POINT('',(-0.014,0.386,-0.014));
#858=CARTESIAN_POINT('',(0.286,0.386,-0.014));
#859=CARTESIAN_POINT('',(0.286,0.386,-0.014));
#860=CARTESIAN_POINT('',(0.286,0.372,-0.014));
#861=CARTESIAN_POINT('',(0.286,0.372,-0.014));
#862=CARTESIAN_POINT('',(0.,0.372,-0.014));
#863=CARTESIAN_POINT('',(-0.014,0.372,-0.014));
#864=CARTESIAN_POINT('',(0.,0.,-0.014));
#865=CARTESIAN_POINT('',(0.,0.,-0.014));
#866=CARTESIAN_POINT('',(0.386,0.,-0.014));
#867=CARTESIAN_POINT('',(0.386,0.,-0.014));
#868=CARTESIAN_POINT('',(0.386,-0.014,-0.014));
#869=CARTESIAN_POINT('',(0.386,-0.014,-0.014));
#870=CARTESIAN_POINT('',(-0.014,-0.014,-0.014));
#871=CARTESIAN_POINT('',(-0.014,-0.014,-0.014));
#872=CARTESIAN_POINT('',(-0.014,0.386,-0.014));
#873=CARTESIAN_POINT('Origin',(0.286,0.372,1.222));
#874=CARTESIAN_POINT('',(0.286,0.386,1.236));
#875=CARTESIAN_POINT('',(0.286,0.386,1.222));
#876=CARTESIAN_POINT('',(0.286,0.372,1.236));
#877=CARTESIAN_POINT('',(0.286,0.372,1.236));
#878=CARTESIAN_POINT('',(0.286,0.372,1.222));
#879=CARTESIAN_POINT('Origin',(0.,0.372,1.222));
#880=CARTESIAN_POINT('',(0.,0.372,1.236));
#881=CARTESIAN_POINT('',(-0.014,0.372,1.236));
#882=CARTESIAN_POINT('',(0.,0.372,1.222));
#883=CARTESIAN_POINT('Origin',(0.,0.,1.222));
#884=CARTESIAN_POINT('',(0.,0.,1.236));
#885=CARTESIAN_POINT('',(0.,0.,1.236));
#886=CARTESIAN_POINT('',(0.,0.,1.222));
#887=CARTESIAN_POINT('Origin',(0.386,0.,1.222));
#888=CARTESIAN_POINT('',(0.386,0.,1.236));
#889=CARTESIAN_POINT('',(0.386,0.,1.236));
#890=CARTESIAN_POINT('',(0.386,0.,1.222));
#891=CARTESIAN_POINT('Origin',(0.386,-0.014,1.222));
#892=CARTESIAN_POINT('',(0.386,-0.014,1.236));
#893=CARTESIAN_POINT('',(0.386,-0.014,1.236));
#894=CARTESIAN_POINT('',(0.386,-0.014,1.222));
#895=CARTESIAN_POINT('Origin',(-0.014,-0.014,1.222));
#896=CARTESIAN_POINT('',(-0.014,-0.014,1.236));
#897=CARTESIAN_POINT('',(-0.014,-0.014,1.236));
#898=CARTESIAN_POINT('',(-0.014,-0.014,1.222));
#899=CARTESIAN_POINT('Origin',(-0.014,0.386,1.222));
#900=CARTESIAN_POINT('',(-0.014,0.386,1.236));
#901=CARTESIAN_POINT('',(-0.014,0.386,1.236));
#902=CARTESIAN_POINT('',(-0.014,0.386,1.222));
#903=CARTESIAN_POINT('Origin',(0.286,0.386,1.222));
#904=CARTESIAN_POINT('',(0.286,0.386,1.236));
#905=CARTESIAN_POINT('Origin',(0.186,0.186,1.236));
#906=CARTESIAN_POINT('Origin',(1.686,0.372,1.222));
#907=CARTESIAN_POINT('',(0.286,0.372,1.222));
#908=CARTESIAN_POINT('',(1.686,0.372,1.222));
#909=CARTESIAN_POINT('',(0.286,0.372,1.222));
#910=CARTESIAN_POINT('',(0.286,0.372,0.));
#911=CARTESIAN_POINT('',(0.286,0.372,1.222));
#912=CARTESIAN_POINT('',(1.686,0.372,0.));
#913=CARTESIAN_POINT('',(0.286,0.372,0.));
#914=CARTESIAN_POINT('',(1.686,0.372,1.222));
#915=CARTESIAN_POINT('Origin',(1.686,0.386,1.222));
#916=CARTESIAN_POINT('',(1.686,0.386,1.222));
#917=CARTESIAN_POINT('',(1.686,0.372,1.222));
#918=CARTESIAN_POINT('',(1.686,0.386,0.));
#919=CARTESIAN_POINT('',(1.686,0.372,0.));
#920=CARTESIAN_POINT('',(1.686,0.386,1.222));
#921=CARTESIAN_POINT('Origin',(0.286,0.386,1.222));
#922=CARTESIAN_POINT('',(0.286,0.386,1.222));
#923=CARTESIAN_POINT('',(1.686,0.386,1.222));
#924=CARTESIAN_POINT('',(0.286,0.386,0.));
#925=CARTESIAN_POINT('',(1.686,0.386,0.));
#926=CARTESIAN_POINT('',(0.286,0.386,1.222));
#927=CARTESIAN_POINT('Origin',(0.286,0.372,1.222));
#928=CARTESIAN_POINT('',(0.286,0.386,1.222));
#929=CARTESIAN_POINT('',(0.286,0.386,0.));
#930=CARTESIAN_POINT('Origin',(0.986,0.379,1.222));
#931=CARTESIAN_POINT('Origin',(0.986,0.379,0.));
#932=UNCERTAINTY_MEASURE_WITH_UNIT(LENGTH_MEASURE(0.01),#936,
'DISTANCE_ACCURACY_VALUE',
'Maximum model space distance between geometric entities at asserted c
onnectivities');
#933=UNCERTAINTY_MEASURE_WITH_UNIT(LENGTH_MEASURE(0.01),#936,
'DISTANCE_ACCURACY_VALUE',
'Maximum model space distance between geometric entities at asserted c
onnectivities');
#934=(
GEOMETRIC_REPRESENTATION_CONTEXT(3)
GLOBAL_UNCERTAINTY_ASSIGNED_CONTEXT((#932))
GLOBAL_UNIT_ASSIGNED_CONTEXT((#936,#938,#939))
REPRESENTATION_CONTEXT('','3D')
);
#935=(
GEOMETRIC_REPRESENTATION_CONTEXT(3)
GLOBAL_UNCERTAINTY_ASSIGNED_CONTEXT((#933))
GLOBAL_UNIT_ASSIGNED_CONTEXT((#936,#938,#939))
REPRESENTATION_CONTEXT('','3D')
);
#936=(
LENGTH_UNIT()
NAMED_UNIT(*)
SI_UNIT(.MILLI.,.METRE.)
);
#937=(
LENGTH_UNIT()
NAMED_UNIT(*)
SI_UNIT(.CENTI.,.METRE.)
);
#938=(
NAMED_UNIT(*)
PLANE_ANGLE_UNIT()
SI_UNIT($,.RADIAN.)
);
#939=(
NAMED_UNIT(*)
SI_UNIT($,.STERADIAN.)
SOLID_ANGLE_UNIT()
);
#940=SHAPE_DEFINITION_REPRESENTATION(#941,#942);
#941=PRODUCT_DEFINITION_SHAPE('',$,#944);
#942=SHAPE_REPRESENTATION('',(#608),#934);
#943=PRODUCT_DEFINITION_CONTEXT('part definition',#948,'design');
#944=PRODUCT_DEFINITION('RMEF0805','RMEF0805',#945,#943);
#945=PRODUCT_DEFINITION_FORMATION('',$,#950);
#946=PRODUCT_RELATED_PRODUCT_CATEGORY('RMEF0805','RMEF0805',(#950));
#947=APPLICATION_PROTOCOL_DEFINITION('international standard',
'automotive_design',2009,#948);
#948=APPLICATION_CONTEXT(
'Core Data for Automotive Mechanical Design Process');
#949=PRODUCT_CONTEXT('part definition',#948,'mechanical');
#950=PRODUCT('RMEF0805','RMEF0805',$,(#949));
#951=PRESENTATION_STYLE_ASSIGNMENT((#954));
#952=PRESENTATION_STYLE_ASSIGNMENT((#955));
#953=PRESENTATION_STYLE_ASSIGNMENT((#956));
#954=SURFACE_STYLE_USAGE(.BOTH.,#963);
#955=SURFACE_STYLE_USAGE(.BOTH.,#964);
#956=SURFACE_STYLE_USAGE(.BOTH.,#965);
#957=SURFACE_STYLE_RENDERING_WITH_PROPERTIES($,#975,(#960));
#958=SURFACE_STYLE_RENDERING_WITH_PROPERTIES($,#976,(#961));
#959=SURFACE_STYLE_RENDERING_WITH_PROPERTIES($,#977,(#962));
#960=SURFACE_STYLE_TRANSPARENT(0.);
#961=SURFACE_STYLE_TRANSPARENT(0.);
#962=SURFACE_STYLE_TRANSPARENT(0.);
#963=SURFACE_SIDE_STYLE('',(#966,#957));
#964=SURFACE_SIDE_STYLE('',(#967,#958));
#965=SURFACE_SIDE_STYLE('',(#968,#959));
#966=SURFACE_STYLE_FILL_AREA(#969);
#967=SURFACE_STYLE_FILL_AREA(#970);
#968=SURFACE_STYLE_FILL_AREA(#971);
#969=FILL_AREA_STYLE('',(#972));
#970=FILL_AREA_STYLE('',(#973));
#971=FILL_AREA_STYLE('',(#974));
#972=FILL_AREA_STYLE_COLOUR('',#975);
#973=FILL_AREA_STYLE_COLOUR('',#976);
#974=FILL_AREA_STYLE_COLOUR('',#977);
#975=COLOUR_RGB('',0.749019607843137,0.749019607843137,0.749019607843137);
#976=COLOUR_RGB('',0.6,0.6,0.6);
#977=COLOUR_RGB('',0.270588235294118,0.270588235294118,0.270588235294118);
ENDSEC;
END-ISO-10303-21;
