ISO-10303-21;
HEADER;
FILE_DESCRIPTION (( 'STEP AP214' ),
    '1' );
FILE_NAME ('1N5820.STEP',
    '2024-01-04T00:12:43',
    ( '' ),
    ( '' ),
    'SwSTEP 2.0',
    'SolidWorks 2021',
    '' );
FILE_SCHEMA (( 'AUTOMOTIVE_DESIGN' ));
ENDSEC;

DATA;
#1 = FACE_OUTER_BOUND ( 'NONE', #651, .T. ) ;
#2 = CARTESIAN_POINT ( 'NONE',  ( -2.700000000000000178, 6.349999999999999645, -3.174999999999999822 ) ) ;
#3 = ORIENTED_EDGE ( 'NONE', *, *, #390, .F. ) ;
#4 = EDGE_CURVE ( 'NONE', #585, #457, #606, .T. ) ;
#5 = SURFACE_STYLE_USAGE ( .BOTH. , #537 ) ;
#6 = ADVANCED_FACE ( 'NONE', ( #292 ), #106, .T. ) ;
#7 = DIRECTION ( 'NONE',  ( -1.000000000000000000, -0.000000000000000000, -0.000000000000000000 ) ) ;
#8 = CARTESIAN_POINT ( 'NONE',  ( -7.929999999999997939, -16.82499999999999929, 0.000000000000000000 ) ) ;
#9 = EDGE_LOOP ( 'NONE', ( #700, #105, #205, #278 ) ) ;
#10 = SURFACE_STYLE_FILL_AREA ( #176 ) ;
#11 = DIRECTION ( 'NONE',  ( 1.000000000000000000, 1.365923996832131609E-16, 0.000000000000000000 ) ) ;
#12 = ORIENTED_EDGE ( 'NONE', *, *, #594, .F. ) ;
#13 = DIRECTION ( 'NONE',  ( 6.744418177900858861E-15, -1.000000000000000000, 0.000000000000000000 ) ) ;
#14 = AXIS2_PLACEMENT_3D ( 'NONE', #164, #508, #628 ) ;
#15 = EDGE_CURVE ( 'NONE', #113, #151, #256, .T. ) ;
#16 = DIRECTION ( 'NONE',  ( 1.000000000000000000, 0.000000000000000000, 0.000000000000000000 ) ) ;
#17 = COLOUR_RGB ( '',1.000000000000000000, 1.000000000000000000, 1.000000000000000000 ) ;
#18 = DIRECTION ( 'NONE',  ( 0.000000000000000000, -1.000000000000000000, 0.000000000000000000 ) ) ;
#19 = DIRECTION ( 'NONE',  ( 1.000000000000000000, 0.000000000000000000, -0.000000000000000000 ) ) ;
#20 = DIRECTION ( 'NONE',  ( -1.000000000000000000, -0.000000000000000000, -0.000000000000000000 ) ) ;
#21 =( NAMED_UNIT ( * ) PLANE_ANGLE_UNIT ( ) SI_UNIT ( $, .RADIAN. ) );
#22 = CARTESIAN_POINT ( 'NONE',  ( -6.929999999999992610, 3.174999999999999378, 0.000000000000000000 ) ) ;
#23 = MANIFOLD_SOLID_BREP ( 'Cut-Extrude1[1]', #639 ) ;
#24 = AXIS2_PLACEMENT_3D ( 'NONE', #722, #430, #304 ) ;
#25 = CARTESIAN_POINT ( 'NONE',  ( 4.700000000000000178, 3.810000000000000053, -7.776507174585692903E-17 ) ) ;
#26 = DIRECTION ( 'NONE',  ( 0.000000000000000000, 0.000000000000000000, 1.000000000000000000 ) ) ;
#27 = MANIFOLD_SOLID_BREP ( 'Sweep1', #76 ) ;
#28 = ADVANCED_FACE ( 'NONE', ( #717 ), #180, .F. ) ;
#29 =( LENGTH_UNIT ( ) NAMED_UNIT ( * ) SI_UNIT ( .MILLI., .METRE. ) );
#30 = DIRECTION ( 'NONE',  ( 0.000000000000000000, -1.000000000000000000, 0.000000000000000000 ) ) ;
#31 = PLANE ( 'NONE',  #637 ) ;
#32 = DIRECTION ( 'NONE',  ( 9.130123557772672032E-17, -1.000000000000000000, 0.000000000000000000 ) ) ;
#33 = MANIFOLD_SOLID_BREP ( 'Mirror1', #200 ) ;
#34 = CIRCLE ( 'NONE', #14, 0.6350000000000000089 ) ;
#35 = ORIENTED_EDGE ( 'NONE', *, *, #190, .F. ) ;
#36 = DIRECTION ( 'NONE',  ( 0.000000000000000000, 0.000000000000000000, 1.000000000000000000 ) ) ;
#37 = ORIENTED_EDGE ( 'NONE', *, *, #652, .F. ) ;
#38 = DIRECTION ( 'NONE',  ( -1.000000000000000000, -0.000000000000000000, -0.000000000000000000 ) ) ;
#39 = FACE_OUTER_BOUND ( 'NONE', #102, .T. ) ;
#40 = UNCERTAINTY_MEASURE_WITH_UNIT (LENGTH_MEASURE( 1.000000000000000082E-05 ), #423, 'distance_accuracy_value', 'NONE');
#41 = ORIENTED_EDGE ( 'NONE', *, *, #190, .T. ) ;
#42 = CARTESIAN_POINT ( 'NONE',  ( -6.929999999999999716, 2.174999999999999822, 0.000000000000000000 ) ) ;
#43 = CARTESIAN_POINT ( 'NONE',  ( 6.929999999999992610, 3.809999999999999609, -7.776507174585691670E-17 ) ) ;
#44 = ORIENTED_EDGE ( 'NONE', *, *, #217, .F. ) ;
#45 = STYLED_ITEM ( 'NONE', ( #426 ), #23 ) ;
#46 = CIRCLE ( 'NONE', #515, 3.174999999999999822 ) ;
#47 = CARTESIAN_POINT ( 'NONE',  ( -7.929999999999997939, -16.82499999999999929, 0.000000000000000000 ) ) ;
#48 = DIRECTION ( 'NONE',  ( -1.000000000000000000, -0.000000000000000000, -0.000000000000000000 ) ) ;
#49 = EDGE_CURVE ( 'NONE', #527, #447, #191, .T. ) ;
#50 = PRODUCT ( '1N5820', '1N5820', '', ( #360 ) ) ;
#51 = ORIENTED_EDGE ( 'NONE', *, *, #89, .F. ) ;
#52 = EDGE_LOOP ( 'NONE', ( #469, #521, #655, #65 ) ) ;
#53 = CARTESIAN_POINT ( 'NONE',  ( -4.700000000000000178, 3.175000000000000266, -3.174999999999999822 ) ) ;
#54 = CARTESIAN_POINT ( 'NONE',  ( -3.799999999999999822, 3.174999999999999822, 0.000000000000000000 ) ) ;
#55 = VERTEX_POINT ( 'NONE', #490 ) ;
#56 = CARTESIAN_POINT ( 'NONE',  ( -4.700000000000000178, 3.174999999999999822, 3.174999999999999822 ) ) ;
#57 = CARTESIAN_POINT ( 'NONE',  ( -3.799999999999999822, 3.174999999999999822, 0.000000000000000000 ) ) ;
#58 = ADVANCED_FACE ( 'NONE', ( #641 ), #459, .T. ) ;
#59 = DIRECTION ( 'NONE',  ( -1.031744904286424511E-16, -1.000000000000000000, 0.000000000000000000 ) ) ;
#60 = TOROIDAL_SURFACE ( 'NONE', #441, 0.9999999999999665823, 0.6350000000000000089 ) ;
#61 = AXIS2_PLACEMENT_3D ( 'NONE', #8, #59, #471 ) ;
#62 =( NAMED_UNIT ( * ) SI_UNIT ( $, .STERADIAN. ) SOLID_ANGLE_UNIT ( ) );
#63 = AXIS2_PLACEMENT_3D ( 'NONE', #324, #329, #558 ) ;
#64 = CARTESIAN_POINT ( 'NONE',  ( -3.799999999999999822, 3.174999999999999822, 0.000000000000000000 ) ) ;
#65 = ORIENTED_EDGE ( 'NONE', *, *, #434, .F. ) ;
#66 = ORIENTED_EDGE ( 'NONE', *, *, #497, .F. ) ;
#67 = PRESENTATION_STYLE_ASSIGNMENT (( #5 ) ) ;
#68 = DIRECTION ( 'NONE',  ( 0.000000000000000000, 0.000000000000000000, 1.000000000000000000 ) ) ;
#69 = VERTEX_POINT ( 'NONE', #701 ) ;
#70 = EDGE_CURVE ( 'NONE', #234, #679, #751, .T. ) ;
#71 = AXIS2_PLACEMENT_3D ( 'NONE', #682, #370, #560 ) ;
#72 = ORIENTED_EDGE ( 'NONE', *, *, #15, .T. ) ;
#73 = COLOUR_RGB ( '',0.2509803921568627416, 0.2509803921568627416, 0.2509803921568627416 ) ;
#74 = CIRCLE ( 'NONE', #162, 0.3649999999999669065 ) ;
#75 = SURFACE_SIDE_STYLE ('',( #604 ) ) ;
#76 = CLOSED_SHELL ( 'NONE', ( #412, #710, #131, #489, #549, #350, #58, #331 ) ) ;
#77 = DIRECTION ( 'NONE',  ( -9.130123557772672032E-17, -1.000000000000000000, 0.000000000000000000 ) ) ;
#78 = ADVANCED_FACE ( 'NONE', ( #215 ), #586, .T. ) ;
#79 = CYLINDRICAL_SURFACE ( 'NONE', #663, 3.174999999999999822 ) ;
#80 = DIRECTION ( 'NONE',  ( 0.000000000000000000, 0.000000000000000000, 1.000000000000000000 ) ) ;
#81 = EDGE_CURVE ( 'NONE', #55, #234, #615, .T. ) ;
#82 = VECTOR ( 'NONE', #158, 1000.000000000000000 ) ;
#83 = CARTESIAN_POINT ( 'NONE',  ( -3.799999999999999822, 3.175000000000000266, -3.174999999999999822 ) ) ;
#84 = VECTOR ( 'NONE', #249, 1000.000000000000000 ) ;
#85 = SURFACE_STYLE_USAGE ( .BOTH. , #88 ) ;
#86 = FACE_OUTER_BOUND ( 'NONE', #402, .T. ) ;
#87 = AXIS2_PLACEMENT_3D ( 'NONE', #42, #519, #512 ) ;
#88 = SURFACE_SIDE_STYLE ('',( #609 ) ) ;
#89 = EDGE_CURVE ( 'NONE', #151, #113, #34, .T. ) ;
#90 = FACE_OUTER_BOUND ( 'NONE', #458, .T. ) ;
#91 = EDGE_LOOP ( 'NONE', ( #72, #267 ) ) ;
#92 = AXIS2_PLACEMENT_3D ( 'NONE', #111, #470, #68 ) ;
#93 = CIRCLE ( 'NONE', #678, 0.6350000000000000089 ) ;
#94 = DIRECTION ( 'NONE',  ( 0.000000000000000000, 0.000000000000000000, 1.000000000000000000 ) ) ;
#95 = MECHANICAL_DESIGN_GEOMETRIC_PRESENTATION_REPRESENTATION (  '', ( #45 ), #325 ) ;
#96 = ORIENTED_EDGE ( 'NONE', *, *, #70, .T. ) ;
#97 = DIRECTION ( 'NONE',  ( -9.130123557772672032E-17, -1.000000000000000000, 0.000000000000000000 ) ) ;
#98 = ADVANCED_BREP_SHAPE_REPRESENTATION ( '1N5820', ( #23, #261, #283, #27, #33, #491 ), #115 ) ;
#99 = ORIENTED_EDGE ( 'NONE', *, *, #568, .F. ) ;
#100 = CARTESIAN_POINT ( 'NONE',  ( -4.700000000000000178, 3.175000000000000266, -3.174999999999999822 ) ) ;
#101 = CARTESIAN_POINT ( 'NONE',  ( -6.929999999999992610, 3.174999999999999378, 0.000000000000000000 ) ) ;
#102 = EDGE_LOOP ( 'NONE', ( #66, #405, #539, #51 ) ) ;
#103 = FACE_OUTER_BOUND ( 'NONE', #683, .T. ) ;
#104 = CARTESIAN_POINT ( 'NONE',  ( 7.929999999999999716, 2.174999999999991829, 0.000000000000000000 ) ) ;
#105 = ORIENTED_EDGE ( 'NONE', *, *, #381, .T. ) ;
#106 = TOROIDAL_SURFACE ( 'NONE', #136, 0.9999999999999665823, 0.6350000000000000089 ) ;
#107 = DIRECTION ( 'NONE',  ( 0.000000000000000000, 0.000000000000000000, 1.000000000000000000 ) ) ;
#108 = FACE_OUTER_BOUND ( 'NONE', #155, .T. ) ;
#109 = ORIENTED_EDGE ( 'NONE', *, *, #275, .F. ) ;
#110 = CARTESIAN_POINT ( 'NONE',  ( -8.564999999999997726, -16.82499999999999929, 7.776507174585691670E-17 ) ) ;
#111 = CARTESIAN_POINT ( 'NONE',  ( -4.700000000000000178, 3.174999999999999822, 0.000000000000000000 ) ) ;
#112 = ORIENTED_EDGE ( 'NONE', *, *, #403, .T. ) ;
#113 = VERTEX_POINT ( 'NONE', #454 ) ;
#114 = CYLINDRICAL_SURFACE ( 'NONE', #63, 3.174999999999999822 ) ;
#115 =( GEOMETRIC_REPRESENTATION_CONTEXT ( 3 ) GLOBAL_UNCERTAINTY_ASSIGNED_CONTEXT ( ( #40 ) ) GLOBAL_UNIT_ASSIGNED_CONTEXT ( ( #423, #251, #547 ) ) REPRESENTATION_CONTEXT ( 'NONE', 'WORKASPACE' ) );
#116 = CARTESIAN_POINT ( 'NONE',  ( -3.799999999999999822, 3.174999999999999822, 0.000000000000000000 ) ) ;
#117 = AXIS2_PLACEMENT_3D ( 'NONE', #494, #613, #252 ) ;
#118 = FILL_AREA_STYLE_COLOUR ( '', #367 ) ;
#119 = CYLINDRICAL_SURFACE ( 'NONE', #181, 0.6350000000000001199 ) ;
#120 = DIRECTION ( 'NONE',  ( 0.000000000000000000, 0.000000000000000000, 1.000000000000000000 ) ) ;
#121 = EDGE_CURVE ( 'NONE', #229, #438, #227, .T. ) ;
#122 = DIRECTION ( 'NONE',  ( 0.000000000000000000, 0.000000000000000000, 1.000000000000000000 ) ) ;
#123 = ORIENTED_EDGE ( 'NONE', *, *, #536, .F. ) ;
#124 =( LENGTH_UNIT ( ) NAMED_UNIT ( * ) SI_UNIT ( .MILLI., .METRE. ) );
#125 = AXIS2_PLACEMENT_3D ( 'NONE', #2, #228, #338 ) ;
#126 = APPLICATION_PROTOCOL_DEFINITION ( 'draft international standard', 'automotive_design', 1998, #478 ) ;
#127 = CIRCLE ( 'NONE', #287, 0.6350000000000000089 ) ;
#128 = DIRECTION ( 'NONE',  ( 0.000000000000000000, 0.000000000000000000, 1.000000000000000000 ) ) ;
#129 = DIRECTION ( 'NONE',  ( 1.000000000000000000, 0.000000000000000000, 0.000000000000000000 ) ) ;
#130 = PRODUCT_DEFINITION_FORMATION_WITH_SPECIFIED_SOURCE ( 'ANY', '', #50, .NOT_KNOWN. ) ;
#131 = ADVANCED_FACE ( 'NONE', ( #395 ), #681, .T. ) ;
#132 = SURFACE_SIDE_STYLE ('',( #656 ) ) ;
#133 = DIRECTION ( 'NONE',  ( 1.000000000000000000, 0.000000000000000000, 0.000000000000000000 ) ) ;
#134 = DIRECTION ( 'NONE',  ( -9.130123557772672032E-17, -1.000000000000000000, 0.000000000000000000 ) ) ;
#135 = PLANE ( 'NONE',  #550 ) ;
#136 = AXIS2_PLACEMENT_3D ( 'NONE', #335, #120, #588 ) ;
#137 =( LENGTH_UNIT ( ) NAMED_UNIT ( * ) SI_UNIT ( .MILLI., .METRE. ) );
#138 = DIRECTION ( 'NONE',  ( -1.000000000000000000, -1.944757260063691714E-16, 0.000000000000000000 ) ) ;
#139 = LINE ( 'NONE', #632, #420 ) ;
#140 = VERTEX_POINT ( 'NONE', #442 ) ;
#141 = CARTESIAN_POINT ( 'NONE',  ( -8.564999999999999503, 2.174999999999991829, 7.776507174585692903E-17 ) ) ;
#142 = ORIENTED_EDGE ( 'NONE', *, *, #598, .F. ) ;
#143 = AXIS2_PLACEMENT_3D ( 'NONE', #414, #300, #670 ) ;
#144 = AXIS2_PLACEMENT_3D ( 'NONE', #104, #629, #437 ) ;
#145 = DIRECTION ( 'NONE',  ( 6.744418177900858861E-15, 1.000000000000000000, -0.000000000000000000 ) ) ;
#146 = MECHANICAL_DESIGN_GEOMETRIC_PRESENTATION_REPRESENTATION (  '', ( #488 ), #391 ) ;
#147 = ORIENTED_EDGE ( 'NONE', *, *, #434, .T. ) ;
#148 = AXIS2_PLACEMENT_3D ( 'NONE', #695, #582, #107 ) ;
#149 = DIRECTION ( 'NONE',  ( -1.000000000000000000, -1.365923996832131609E-16, 0.000000000000000000 ) ) ;
#150 = DIRECTION ( 'NONE',  ( 0.000000000000000000, 0.000000000000000000, -1.000000000000000000 ) ) ;
#151 = VERTEX_POINT ( 'NONE', #110 ) ;
#152 = EDGE_CURVE ( 'NONE', #140, #527, #289, .T. ) ;
#153 = DIRECTION ( 'NONE',  ( -1.000000000000000000, -1.944757260063691714E-16, 0.000000000000000000 ) ) ;
#154 = CARTESIAN_POINT ( 'NONE',  ( -2.699999999999999734, 3.174999999999999822, 3.174999999999999822 ) ) ;
#155 = EDGE_LOOP ( 'NONE', ( #453, #618, #312, #288 ) ) ;
#156 = AXIS2_PLACEMENT_3D ( 'NONE', #540, #296, #280 ) ;
#157 = CARTESIAN_POINT ( 'NONE',  ( -4.700000000000000178, 3.174999999999999822, 0.000000000000000000 ) ) ;
#158 = DIRECTION ( 'NONE',  ( -1.000000000000000000, -0.000000000000000000, -0.000000000000000000 ) ) ;
#159 = EDGE_LOOP ( 'NONE', ( #461, #397 ) ) ;
#160 = EDGE_CURVE ( 'NONE', #527, #140, #187, .T. ) ;
#161 = EDGE_LOOP ( 'NONE', ( #174, #96, #3, #295 ) ) ;
#162 = AXIS2_PLACEMENT_3D ( 'NONE', #355, #365, #129 ) ;
#163 = CLOSED_SHELL ( 'NONE', ( #78, #195, #706, #254 ) ) ;
#164 = CARTESIAN_POINT ( 'NONE',  ( -7.929999999999997939, -16.82499999999999929, 0.000000000000000000 ) ) ;
#165 = CARTESIAN_POINT ( 'NONE',  ( -2.699999999999999734, 6.349999999999999645, 3.888253587292846081E-16 ) ) ;
#166 = EDGE_LOOP ( 'NONE', ( #464, #170 ) ) ;
#167 = ORIENTED_EDGE ( 'NONE', *, *, #425, .F. ) ;
#168 = DIRECTION ( 'NONE',  ( -1.365923996832131609E-16, 1.000000000000000000, 0.000000000000000000 ) ) ;
#169 = VERTEX_POINT ( 'NONE', #264 ) ;
#170 = ORIENTED_EDGE ( 'NONE', *, *, #381, .F. ) ;
#171 = CARTESIAN_POINT ( 'NONE',  ( 8.564999999999997726, -16.82499999999999929, -7.776507174585691670E-17 ) ) ;
#172 = AXIS2_PLACEMENT_3D ( 'NONE', #54, #401, #168 ) ;
#173 = DIRECTION ( 'NONE',  ( 1.365923996832131609E-16, -1.000000000000000000, 0.000000000000000000 ) ) ;
#174 = ORIENTED_EDGE ( 'NONE', *, *, #81, .T. ) ;
#175 = VECTOR ( 'NONE', #153, 1000.000000000000000 ) ;
#176 = FILL_AREA_STYLE ('',( #239 ) ) ;
#177 = CARTESIAN_POINT ( 'NONE',  ( -6.929999999999999716, 2.174999999999999822, 0.000000000000000000 ) ) ;
#178 = ORIENTED_EDGE ( 'NONE', *, *, #152, .T. ) ;
#179 = CARTESIAN_POINT ( 'NONE',  ( -4.700000000000000178, 3.810000000000000053, 7.776507174585691670E-17 ) ) ;
#180 = PLANE ( 'NONE',  #513 ) ;
#181 = AXIS2_PLACEMENT_3D ( 'NONE', #345, #538, #474 ) ;
#182 = CARTESIAN_POINT ( 'NONE',  ( 4.700000000000000178, 3.174999999999999822, 0.000000000000000000 ) ) ;
#183 = CARTESIAN_POINT ( 'NONE',  ( -7.294999999999999041, 2.174999999999991829, 0.000000000000000000 ) ) ;
#184 = AXIS2_PLACEMENT_3D ( 'NONE', #725, #605, #666 ) ;
#185 = ADVANCED_FACE ( 'NONE', ( #103 ), #465, .F. ) ;
#186 = STYLED_ITEM ( 'NONE', ( #240 ), #33 ) ;
#187 = CIRCLE ( 'NONE', #148, 0.6350000000000000089 ) ;
#188 = DIRECTION ( 'NONE',  ( -1.365923996832131609E-16, 1.000000000000000000, 0.000000000000000000 ) ) ;
#189 = PRESENTATION_LAYER_ASSIGNMENT (  '', '', ( #422 ) ) ;
#190 = EDGE_CURVE ( 'NONE', #745, #585, #333, .T. ) ;
#191 = LINE ( 'NONE', #25, #84 ) ;
#192 = CARTESIAN_POINT ( 'NONE',  ( -6.929999999999999716, 2.174999999999999822, 0.000000000000000000 ) ) ;
#193 = CARTESIAN_POINT ( 'NONE',  ( 7.294999999999997264, -16.82499999999999929, 0.000000000000000000 ) ) ;
#194 = CYLINDRICAL_SURFACE ( 'NONE', #500, 0.6350000000000001199 ) ;
#195 = ADVANCED_FACE ( 'NONE', ( #1 ), #114, .T. ) ;
#196 =( NAMED_UNIT ( * ) PLANE_ANGLE_UNIT ( ) SI_UNIT ( $, .RADIAN. ) );
#197 = CARTESIAN_POINT ( 'NONE',  ( -2.699999999999999734, 3.175000000000000266, -3.174999999999999822 ) ) ;
#198 = DIRECTION ( 'NONE',  ( -1.000000000000000000, -1.944757260063691714E-16, 0.000000000000000000 ) ) ;
#199 = MECHANICAL_DESIGN_GEOMETRIC_PRESENTATION_REPRESENTATION (  '', ( #697 ), #579 ) ;
#200 = CLOSED_SHELL ( 'NONE', ( #634, #428, #542, #28, #731, #250, #6, #466 ) ) ;
#201 = EDGE_CURVE ( 'NONE', #209, #375, #689, .T. ) ;
#202 = FACE_OUTER_BOUND ( 'NONE', #272, .T. ) ;
#203 = ORIENTED_EDGE ( 'NONE', *, *, #160, .T. ) ;
#204 = CARTESIAN_POINT ( 'NONE',  ( -7.294999999999999041, 2.174999999999996270, 0.000000000000000000 ) ) ;
#205 = ORIENTED_EDGE ( 'NONE', *, *, #323, .T. ) ;
#206 = DIRECTION ( 'NONE',  ( -1.000000000000000000, -0.000000000000000000, -0.000000000000000000 ) ) ;
#207 = CARTESIAN_POINT ( 'NONE',  ( 7.929999999999999716, 2.174999999999991829, 0.000000000000000000 ) ) ;
#208 = EDGE_CURVE ( 'NONE', #679, #506, #543, .T. ) ;
#209 = VERTEX_POINT ( 'NONE', #741 ) ;
#210 = CIRCLE ( 'NONE', #237, 0.6350000000000000089 ) ;
#211 = DIRECTION ( 'NONE',  ( 0.000000000000000000, 0.000000000000000000, 1.000000000000000000 ) ) ;
#212 = CARTESIAN_POINT ( 'NONE',  ( -2.699999999999998845, 0.000000000000000000, 0.000000000000000000 ) ) ;
#213 = ORIENTED_EDGE ( 'NONE', *, *, #208, .T. ) ;
#214 = ORIENTED_EDGE ( 'NONE', *, *, #390, .T. ) ;
#215 = FACE_OUTER_BOUND ( 'NONE', #52, .T. ) ;
#216 = CYLINDRICAL_SURFACE ( 'NONE', #559, 0.6350000000000001199 ) ;
#217 = EDGE_CURVE ( 'NONE', #229, #209, #46, .T. ) ;
#218 = VERTEX_POINT ( 'NONE', #279 ) ;
#219 = AXIS2_PLACEMENT_3D ( 'NONE', #638, #698, #531 ) ;
#220 = ORIENTED_EDGE ( 'NONE', *, *, #299, .T. ) ;
#221 = CARTESIAN_POINT ( 'NONE',  ( 4.700000000000000178, 3.174999999999999822, 0.000000000000000000 ) ) ;
#222 = CARTESIAN_POINT ( 'NONE',  ( 6.929999999999999716, 2.174999999999999822, 0.000000000000000000 ) ) ;
#223 = CIRCLE ( 'NONE', #144, 0.6350000000000000089 ) ;
#224 = COLOUR_RGB ( '',0.7921568627450980005, 0.8196078431372548767, 0.9333333333333333481 ) ;
#225 = EDGE_LOOP ( 'NONE', ( #589, #517, #383, #167 ) ) ;
#226 = VECTOR ( 'NONE', #138, 1000.000000000000000 ) ;
#227 = LINE ( 'NONE', #56, #564 ) ;
#228 = DIRECTION ( 'NONE',  ( 1.000000000000000000, 1.365923996832131609E-16, 0.000000000000000000 ) ) ;
#229 = VERTEX_POINT ( 'NONE', #384 ) ;
#230 = CARTESIAN_POINT ( 'NONE',  ( -4.700000000000000178, 3.174999999999999822, 0.000000000000000000 ) ) ;
#231 = VERTEX_POINT ( 'NONE', #171 ) ;
#232 = FACE_OUTER_BOUND ( 'NONE', #644, .T. ) ;
#233 = DIRECTION ( 'NONE',  ( -1.000000000000000000, -1.365923996832131609E-16, -0.000000000000000000 ) ) ;
#234 = VERTEX_POINT ( 'NONE', #179 ) ;
#235 = AXIS2_PLACEMENT_3D ( 'NONE', #47, #570, #211 ) ;
#236 = DIRECTION ( 'NONE',  ( 0.000000000000000000, 0.000000000000000000, 1.000000000000000000 ) ) ;
#237 = AXIS2_PLACEMENT_3D ( 'NONE', #352, #653, #347 ) ;
#238 = DIRECTION ( 'NONE',  ( -1.000000000000000000, -1.365923996832131609E-16, -0.000000000000000000 ) ) ;
#239 = FILL_AREA_STYLE_COLOUR ( '', #17 ) ;
#240 = PRESENTATION_STYLE_ASSIGNMENT (( #546 ) ) ;
#241 = AXIS2_PLACEMENT_3D ( 'NONE', #222, #122, #16 ) ;
#242 =( LENGTH_UNIT ( ) NAMED_UNIT ( * ) SI_UNIT ( .MILLI., .METRE. ) );
#243 = DIRECTION ( 'NONE',  ( 0.000000000000000000, 0.000000000000000000, 1.000000000000000000 ) ) ;
#244 = AXIS2_PLACEMENT_3D ( 'NONE', #514, #565, #321 ) ;
#245 = CARTESIAN_POINT ( 'NONE',  ( -3.799999999999999822, 3.174999999999999822, 0.000000000000000000 ) ) ;
#246 = AXIS2_PLACEMENT_3D ( 'NONE', #285, #746, #738 ) ;
#247 = FILL_AREA_STYLE ('',( #419 ) ) ;
#248 = AXIS2_PLACEMENT_3D ( 'NONE', #597, #13, #236 ) ;
#249 = DIRECTION ( 'NONE',  ( 1.000000000000000000, -1.944757260063691714E-16, 0.000000000000000000 ) ) ;
#250 = ADVANCED_FACE ( 'NONE', ( #232 ), #714, .T. ) ;
#251 =( NAMED_UNIT ( * ) PLANE_ANGLE_UNIT ( ) SI_UNIT ( $, .RADIAN. ) );
#252 = DIRECTION ( 'NONE',  ( 0.000000000000000000, 0.000000000000000000, 1.000000000000000000 ) ) ;
#253 = AXIS2_PLACEMENT_3D ( 'NONE', #64, #11, #410 ) ;
#254 = ADVANCED_FACE ( 'NONE', ( #406 ), #290, .T. ) ;
#255 = DIRECTION ( 'NONE',  ( -1.000000000000000000, 0.000000000000000000, 0.000000000000000000 ) ) ;
#256 = CIRCLE ( 'NONE', #61, 0.6350000000000000089 ) ;
#257 = FACE_OUTER_BOUND ( 'NONE', #398, .T. ) ;
#258 = AXIS2_PLACEMENT_3D ( 'NONE', #393, #754, #643 ) ;
#259 = ORIENTED_EDGE ( 'NONE', *, *, #525, .F. ) ;
#260 = CARTESIAN_POINT ( 'NONE',  ( -4.700000000000000178, 3.174999999999999822, 0.000000000000000000 ) ) ;
#261 = MANIFOLD_SOLID_BREP ( 'Cut-Extrude1[2]', #298 ) ;
#262 = CARTESIAN_POINT ( 'NONE',  ( -4.700000000000000178, 3.174999999999999822, 3.174999999999999822 ) ) ;
#263 = EDGE_LOOP ( 'NONE', ( #35, #633, #440, #340 ) ) ;
#264 = CARTESIAN_POINT ( 'NONE',  ( -3.799999999999999822, 3.174999999999999822, 3.174999999999999822 ) ) ;
#265 = EDGE_CURVE ( 'NONE', #506, #518, #210, .T. ) ;
#266 = LINE ( 'NONE', #141, #364 ) ;
#267 = ORIENTED_EDGE ( 'NONE', *, *, #89, .T. ) ;
#268 = CIRCLE ( 'NONE', #658, 0.6350000000000000089 ) ;
#269 = DIRECTION ( 'NONE',  ( -1.000000000000000000, -0.000000000000000000, -0.000000000000000000 ) ) ;
#270 = CARTESIAN_POINT ( 'NONE',  ( -6.929999999999992610, 2.539999999999999147, 0.000000000000000000 ) ) ;
#271 = PRODUCT_DEFINITION_CONTEXT ( 'detailed design', #625, 'design' ) ;
#272 = EDGE_LOOP ( 'NONE', ( #99, #142 ) ) ;
#273 = AXIS2_PLACEMENT_3D ( 'NONE', #602, #711, #705 ) ;
#274 = CARTESIAN_POINT ( 'NONE',  ( -4.700000000000000178, 3.174999999999999822, 0.000000000000000000 ) ) ;
#275 = EDGE_CURVE ( 'NONE', #511, #580, #671, .T. ) ;
#276 = FACE_OUTER_BOUND ( 'NONE', #648, .T. ) ;
#277 = ORIENTED_EDGE ( 'NONE', *, *, #361, .T. ) ;
#278 = ORIENTED_EDGE ( 'NONE', *, *, #516, .F. ) ;
#279 = CARTESIAN_POINT ( 'NONE',  ( 7.294999999999999041, 2.174999999999996270, 0.000000000000000000 ) ) ;
#280 = DIRECTION ( 'NONE',  ( -1.000000000000000000, 0.000000000000000000, 0.000000000000000000 ) ) ;
#281 = ORIENTED_EDGE ( 'NONE', *, *, #121, .T. ) ;
#282 = CIRCLE ( 'NONE', #143, 0.6350000000000000089 ) ;
#283 = MANIFOLD_SOLID_BREP ( 'Boss-Extrude1', #163 ) ;
#284 = ORIENTED_EDGE ( 'NONE', *, *, #418, .F. ) ;
#285 = CARTESIAN_POINT ( 'NONE',  ( 6.280256121069154318, 3.175000000000001155, 0.000000000000000000 ) ) ;
#286 = DIRECTION ( 'NONE',  ( 1.000000000000000000, 1.365923996832131609E-16, 0.000000000000000000 ) ) ;
#287 = AXIS2_PLACEMENT_3D ( 'NONE', #22, #427, #243 ) ;
#288 = ORIENTED_EDGE ( 'NONE', *, *, #361, .F. ) ;
#289 = CIRCLE ( 'NONE', #577, 0.6350000000000000089 ) ;
#290 = PLANE ( 'NONE',  #273 ) ;
#291 = DIRECTION ( 'NONE',  ( -1.365923996832131609E-16, 1.000000000000000000, 0.000000000000000000 ) ) ;
#292 = FACE_OUTER_BOUND ( 'NONE', #756, .T. ) ;
#293 = EDGE_CURVE ( 'NONE', #518, #506, #533, .T. ) ;
#294 = PLANE ( 'NONE',  #125 ) ;
#295 = ORIENTED_EDGE ( 'NONE', *, *, #323, .F. ) ;
#296 = DIRECTION ( 'NONE',  ( 0.000000000000000000, 0.000000000000000000, 1.000000000000000000 ) ) ;
#297 = EDGE_LOOP ( 'NONE', ( #214, #213, #704, #732 ) ) ;
#298 = CLOSED_SHELL ( 'NONE', ( #614, #443, #306, #185 ) ) ;
#299 = EDGE_CURVE ( 'NONE', #748, #447, #680, .T. ) ;
#300 = DIRECTION ( 'NONE',  ( -1.031744904286424511E-16, 1.000000000000000000, -0.000000000000000000 ) ) ;
#301 = FILL_AREA_STYLE ('',( #486 ) ) ;
#302 = STYLED_ITEM ( 'NONE', ( #557 ), #98 ) ;
#303 =( NAMED_UNIT ( * ) SI_UNIT ( $, .STERADIAN. ) SOLID_ANGLE_UNIT ( ) );
#304 = DIRECTION ( 'NONE',  ( 0.000000000000000000, 0.000000000000000000, 1.000000000000000000 ) ) ;
#305 = COLOUR_RGB ( '',0.7921568627450980005, 0.8196078431372548767, 0.9333333333333333481 ) ;
#306 = ADVANCED_FACE ( 'NONE', ( #357 ), #79, .T. ) ;
#307 = FACE_OUTER_BOUND ( 'NONE', #9, .T. ) ;
#308 = SURFACE_STYLE_USAGE ( .BOTH. , #132 ) ;
#309 = CARTESIAN_POINT ( 'NONE',  ( 8.564999999999999503, 2.174999999999991829, -7.776507174585692903E-17 ) ) ;
#310 = CIRCLE ( 'NONE', #172, 3.174999999999999822 ) ;
#311 = CARTESIAN_POINT ( 'NONE',  ( -7.929999999999999716, 2.174999999999991829, 0.000000000000000000 ) ) ;
#312 = ORIENTED_EDGE ( 'NONE', *, *, #299, .F. ) ;
#313 = AXIS2_PLACEMENT_3D ( 'NONE', #520, #735, #150 ) ;
#314 = DIRECTION ( 'NONE',  ( -1.000000000000000000, 0.000000000000000000, 0.000000000000000000 ) ) ;
#315 = ORIENTED_EDGE ( 'NONE', *, *, #121, .F. ) ;
#316 = EDGE_CURVE ( 'NONE', #745, #169, #729, .T. ) ;
#317 = FACE_OUTER_BOUND ( 'NONE', #332, .T. ) ;
#318 = UNCERTAINTY_MEASURE_WITH_UNIT (LENGTH_MEASURE( 1.000000000000000082E-05 ), #358, 'distance_accuracy_value', 'NONE');
#319 = ORIENTED_EDGE ( 'NONE', *, *, #627, .T. ) ;
#320 = CARTESIAN_POINT ( 'NONE',  ( -3.800000000000000266, 6.349999999999999645, -3.174999999999999822 ) ) ;
#321 = DIRECTION ( 'NONE',  ( 1.000000000000000000, 0.000000000000000000, 0.000000000000000000 ) ) ;
#322 = ORIENTED_EDGE ( 'NONE', *, *, #536, .T. ) ;
#323 = EDGE_CURVE ( 'NONE', #55, #451, #431, .T. ) ;
#324 = CARTESIAN_POINT ( 'NONE',  ( 6.280256121069154318, 3.175000000000001155, 0.000000000000000000 ) ) ;
#325 =( GEOMETRIC_REPRESENTATION_CONTEXT ( 3 ) GLOBAL_UNCERTAINTY_ASSIGNED_CONTEXT ( ( #450 ) ) GLOBAL_UNIT_ASSIGNED_CONTEXT ( ( #137, #368, #668 ) ) REPRESENTATION_CONTEXT ( 'NONE', 'WORKASPACE' ) );
#326 = DIRECTION ( 'NONE',  ( 9.130123557772672032E-17, -1.000000000000000000, 0.000000000000000000 ) ) ;
#327 = EDGE_LOOP ( 'NONE', ( #44, #123 ) ) ;
#328 = VECTOR ( 'NONE', #269, 1000.000000000000000 ) ;
#329 = DIRECTION ( 'NONE',  ( -1.000000000000000000, -1.365923996832131609E-16, -0.000000000000000000 ) ) ;
#330 = DIRECTION ( 'NONE',  ( 0.000000000000000000, 0.000000000000000000, 1.000000000000000000 ) ) ;
#331 = ADVANCED_FACE ( 'NONE', ( #669 ), #31, .F. ) ;
#332 = EDGE_LOOP ( 'NONE', ( #693, #259, #532, #626 ) ) ;
#333 = LINE ( 'NONE', #100, #328 ) ;
#334 = CARTESIAN_POINT ( 'NONE',  ( -4.700000000000000178, 3.174999999999999822, 3.174999999999999822 ) ) ;
#335 = CARTESIAN_POINT ( 'NONE',  ( 6.929999999999999716, 2.174999999999999822, 0.000000000000000000 ) ) ;
#336 = AXIS2_PLACEMENT_3D ( 'NONE', #101, #510, #36 ) ;
#337 =( NAMED_UNIT ( * ) PLANE_ANGLE_UNIT ( ) SI_UNIT ( $, .RADIAN. ) );
#338 = DIRECTION ( 'NONE',  ( -1.365923996832131609E-16, 1.000000000000000000, 0.000000000000000000 ) ) ;
#339 = EDGE_CURVE ( 'NONE', #218, #346, #436, .T. ) ;
#340 = ORIENTED_EDGE ( 'NONE', *, *, #4, .F. ) ;
#341 =( GEOMETRIC_REPRESENTATION_CONTEXT ( 3 ) GLOBAL_UNCERTAINTY_ASSIGNED_CONTEXT ( ( #318 ) ) GLOBAL_UNIT_ASSIGNED_CONTEXT ( ( #358, #548, #665 ) ) REPRESENTATION_CONTEXT ( 'NONE', 'WORKASPACE' ) );
#342 = ORIENTED_EDGE ( 'NONE', *, *, #659, .F. ) ;
#343 = AXIS2_PLACEMENT_3D ( 'NONE', #417, #660, #128 ) ;
#344 = CARTESIAN_POINT ( 'NONE',  ( -2.699999999999999289, 3.174999999999999822, 0.000000000000000000 ) ) ;
#345 = CARTESIAN_POINT ( 'NONE',  ( -7.929999999999999716, 2.174999999999991829, 0.000000000000000000 ) ) ;
#346 = VERTEX_POINT ( 'NONE', #193 ) ;
#347 = DIRECTION ( 'NONE',  ( 0.000000000000000000, 0.000000000000000000, 1.000000000000000000 ) ) ;
#348 = LINE ( 'NONE', #584, #526 ) ;
#349 = ORIENTED_EDGE ( 'NONE', *, *, #507, .F. ) ;
#350 = ADVANCED_FACE ( 'NONE', ( #307 ), #194, .T. ) ;
#351 = AXIS2_PLACEMENT_3D ( 'NONE', #57, #286, #291 ) ;
#352 = CARTESIAN_POINT ( 'NONE',  ( -7.929999999999999716, 2.174999999999991829, 0.000000000000000000 ) ) ;
#353 = CARTESIAN_POINT ( 'NONE',  ( -3.799999999999999378, 0.000000000000000000, 0.000000000000000000 ) ) ;
#354 = FILL_AREA_STYLE ('',( #424 ) ) ;
#355 = CARTESIAN_POINT ( 'NONE',  ( 6.929999999999999716, 2.174999999999999822, -7.776507174585692903E-17 ) ) ;
#356 = AXIS2_PLACEMENT_3D ( 'NONE', #157, #399, #529 ) ;
#357 = FACE_OUTER_BOUND ( 'NONE', #263, .T. ) ;
#358 =( LENGTH_UNIT ( ) NAMED_UNIT ( * ) SI_UNIT ( .MILLI., .METRE. ) );
#359 = CYLINDRICAL_SURFACE ( 'NONE', #528, 3.174999999999999822 ) ;
#360 = PRODUCT_CONTEXT ( 'NONE', #478, 'mechanical' ) ;
#361 = EDGE_CURVE ( 'NONE', #218, #748, #74, .T. ) ;
#362 = SURFACE_STYLE_USAGE ( .BOTH. , #657 ) ;
#363 = DIRECTION ( 'NONE',  ( 0.000000000000000000, 0.000000000000000000, 1.000000000000000000 ) ) ;
#364 = VECTOR ( 'NONE', #620, 1000.000000000000000 ) ;
#365 = DIRECTION ( 'NONE',  ( 0.000000000000000000, 0.000000000000000000, 1.000000000000000000 ) ) ;
#366 = APPLICATION_PROTOCOL_DEFINITION ( 'draft international standard', 'automotive_design', 1998, #625 ) ;
#367 = COLOUR_RGB ( '',0.2509803921568627416, 0.2509803921568627416, 0.2509803921568627416 ) ;
#368 =( NAMED_UNIT ( * ) PLANE_ANGLE_UNIT ( ) SI_UNIT ( $, .RADIAN. ) );
#369 = PRESENTATION_LAYER_ASSIGNMENT (  '', '', ( #302 ) ) ;
#370 = DIRECTION ( 'NONE',  ( 1.000000000000000000, -1.944757260063691714E-16, 0.000000000000000000 ) ) ;
#371 = ORIENTED_EDGE ( 'NONE', *, *, #208, .F. ) ;
#372 = DIRECTION ( 'NONE',  ( -1.000000000000000000, -1.365923996832131609E-16, -0.000000000000000000 ) ) ;
#373 = ADVANCED_FACE ( 'NONE', ( #86 ), #359, .T. ) ;
#374 = CARTESIAN_POINT ( 'NONE',  ( -4.700000000000000178, 3.174999999999999822, 0.000000000000000000 ) ) ;
#375 = VERTEX_POINT ( 'NONE', #197 ) ;
#376 = CIRCLE ( 'NONE', #117, 0.6350000000000000089 ) ;
#377 = PLANE ( 'NONE',  #313 ) ;
#378 = ORIENTED_EDGE ( 'NONE', *, *, #201, .F. ) ;
#379 = DIRECTION ( 'NONE',  ( 1.365923996832131609E-16, -1.000000000000000000, 0.000000000000000000 ) ) ;
#380 = CARTESIAN_POINT ( 'NONE',  ( 6.929999999999992610, 3.174999999999999378, 0.000000000000000000 ) ) ;
#381 = EDGE_CURVE ( 'NONE', #234, #55, #561, .T. ) ;
#382 = UNCERTAINTY_MEASURE_WITH_UNIT (LENGTH_MEASURE( 1.000000000000000082E-05 ), #242, 'distance_accuracy_value', 'NONE');
#383 = ORIENTED_EDGE ( 'NONE', *, *, #15, .F. ) ;
#384 = CARTESIAN_POINT ( 'NONE',  ( 4.700000000000000178, 3.174999999999999822, 3.174999999999999822 ) ) ;
#385 = DIRECTION ( 'NONE',  ( -1.000000000000000000, 0.000000000000000000, 0.000000000000000000 ) ) ;
#386 = AXIS2_PLACEMENT_3D ( 'NONE', #116, #238, #173 ) ;
#387 = ORIENTED_EDGE ( 'NONE', *, *, #4, .T. ) ;
#388 = ORIENTED_EDGE ( 'NONE', *, *, #571, .T. ) ;
#389 = CARTESIAN_POINT ( 'NONE',  ( -4.700000000000000178, 3.810000000000000053, 7.776507174585692903E-17 ) ) ;
#390 = EDGE_CURVE ( 'NONE', #451, #679, #127, .T. ) ;
#391 =( GEOMETRIC_REPRESENTATION_CONTEXT ( 3 ) GLOBAL_UNCERTAINTY_ASSIGNED_CONTEXT ( ( #502 ) ) GLOBAL_UNIT_ASSIGNED_CONTEXT ( ( #29, #196, #721 ) ) REPRESENTATION_CONTEXT ( 'NONE', 'WORKASPACE' ) );
#392 = CYLINDRICAL_SURFACE ( 'NONE', #92, 3.174999999999999822 ) ;
#393 = CARTESIAN_POINT ( 'NONE',  ( -4.700000000000000178, 3.174999999999999822, 0.000000000000000000 ) ) ;
#394 = VECTOR ( 'NONE', #134, 1000.000000000000000 ) ;
#395 = FACE_OUTER_BOUND ( 'NONE', #161, .T. ) ;
#396 = DIRECTION ( 'NONE',  ( 0.000000000000000000, 0.000000000000000000, 1.000000000000000000 ) ) ;
#397 = ORIENTED_EDGE ( 'NONE', *, *, #742, .T. ) ;
#398 = EDGE_LOOP ( 'NONE', ( #674, #387 ) ) ;
#399 = DIRECTION ( 'NONE',  ( -1.000000000000000000, 0.000000000000000000, 0.000000000000000000 ) ) ;
#400 = ADVANCED_FACE ( 'NONE', ( #433 ), #552, .F. ) ;
#401 = DIRECTION ( 'NONE',  ( 1.000000000000000000, 1.365923996832131609E-16, 0.000000000000000000 ) ) ;
#402 = EDGE_LOOP ( 'NONE', ( #378, #322, #281, #408 ) ) ;
#403 = EDGE_CURVE ( 'NONE', #592, #231, #421, .T. ) ;
#404 = CIRCLE ( 'NONE', #619, 3.174999999999999822 ) ;
#405 = ORIENTED_EDGE ( 'NONE', *, *, #265, .T. ) ;
#406 = FACE_OUTER_BOUND ( 'NONE', #159, .T. ) ;
#407 = FACE_OUTER_BOUND ( 'NONE', #581, .T. ) ;
#408 = ORIENTED_EDGE ( 'NONE', *, *, #568, .T. ) ;
#409 = SURFACE_SIDE_STYLE ('',( #10 ) ) ;
#410 = DIRECTION ( 'NONE',  ( -1.365923996832131609E-16, 1.000000000000000000, 0.000000000000000000 ) ) ;
#411 = EDGE_LOOP ( 'NONE', ( #371, #640, #503, #522 ) ) ;
#412 = ADVANCED_FACE ( 'NONE', ( #482 ), #60, .T. ) ;
#413 = DIRECTION ( 'NONE',  ( -1.365923996832131609E-16, 1.000000000000000000, 0.000000000000000000 ) ) ;
#414 = CARTESIAN_POINT ( 'NONE',  ( 7.929999999999997939, -16.82499999999999929, 0.000000000000000000 ) ) ;
#415 = DIRECTION ( 'NONE',  ( 0.000000000000000000, 0.000000000000000000, 1.000000000000000000 ) ) ;
#416 = TOROIDAL_SURFACE ( 'NONE', #156, 0.9999999999999665823, 0.6350000000000000089 ) ;
#417 = CARTESIAN_POINT ( 'NONE',  ( 6.929999999999992610, 3.174999999999999378, 0.000000000000000000 ) ) ;
#418 = EDGE_CURVE ( 'NONE', #346, #231, #376, .T. ) ;
#419 = FILL_AREA_STYLE_COLOUR ( '', #305 ) ;
#420 = VECTOR ( 'NONE', #673, 1000.000000000000000 ) ;
#421 = LINE ( 'NONE', #309, #661 ) ;
#422 = STYLED_ITEM ( 'NONE', ( #473 ), #283 ) ;
#423 =( LENGTH_UNIT ( ) NAMED_UNIT ( * ) SI_UNIT ( .MILLI., .METRE. ) );
#424 = FILL_AREA_STYLE_COLOUR ( '', #530 ) ;
#425 = EDGE_CURVE ( 'NONE', #518, #113, #556, .T. ) ;
#426 = PRESENTATION_STYLE_ASSIGNMENT (( #362 ) ) ;
#427 = DIRECTION ( 'NONE',  ( -1.000000000000000000, 0.000000000000000000, 0.000000000000000000 ) ) ;
#428 = ADVANCED_FACE ( 'NONE', ( #90 ), #572, .T. ) ;
#429 = FILL_AREA_STYLE ('',( #481 ) ) ;
#430 = DIRECTION ( 'NONE',  ( -1.000000000000000000, 0.000000000000000000, 0.000000000000000000 ) ) ;
#431 = LINE ( 'NONE', #495, #226 ) ;
#432 = AXIS2_PLACEMENT_3D ( 'NONE', #344, #664, #413 ) ;
#433 = FACE_OUTER_BOUND ( 'NONE', #327, .T. ) ;
#434 = EDGE_CURVE ( 'NONE', #511, #744, #139, .T. ) ;
#435 = ORIENTED_EDGE ( 'NONE', *, *, #571, .F. ) ;
#436 = LINE ( 'NONE', #724, #394 ) ;
#437 = DIRECTION ( 'NONE',  ( 0.000000000000000000, 0.000000000000000000, 1.000000000000000000 ) ) ;
#438 = VERTEX_POINT ( 'NONE', #154 ) ;
#439 = CARTESIAN_POINT ( 'NONE',  ( 4.700000000000000178, 3.810000000000000053, -7.776507174585691670E-17 ) ) ;
#440 = ORIENTED_EDGE ( 'NONE', *, *, #696, .T. ) ;
#441 = AXIS2_PLACEMENT_3D ( 'NONE', #192, #26, #133 ) ;
#442 = CARTESIAN_POINT ( 'NONE',  ( 4.700000000000000178, 2.539999999999999591, 0.000000000000000000 ) ) ;
#443 = ADVANCED_FACE ( 'NONE', ( #257 ), #377, .F. ) ;
#444 = AXIS2_PLACEMENT_3D ( 'NONE', #274, #631, #645 ) ;
#445 = DIRECTION ( 'NONE',  ( 0.000000000000000000, 0.000000000000000000, 1.000000000000000000 ) ) ;
#446 =( GEOMETRIC_REPRESENTATION_CONTEXT ( 3 ) GLOBAL_UNCERTAINTY_ASSIGNED_CONTEXT ( ( #573 ) ) GLOBAL_UNIT_ASSIGNED_CONTEXT ( ( #124, #337, #62 ) ) REPRESENTATION_CONTEXT ( 'NONE', 'WORKASPACE' ) );
#447 = VERTEX_POINT ( 'NONE', #43 ) ;
#448 = CARTESIAN_POINT ( 'NONE',  ( 4.700000000000000178, 3.174999999999999822, 0.000000000000000000 ) ) ;
#449 = CARTESIAN_POINT ( 'NONE',  ( -8.564999999999999503, 2.174999999999987832, 7.776507174585691670E-17 ) ) ;
#450 = UNCERTAINTY_MEASURE_WITH_UNIT (LENGTH_MEASURE( 1.000000000000000082E-05 ), #137, 'distance_accuracy_value', 'NONE');
#451 = VERTEX_POINT ( 'NONE', #270 ) ;
#452 = EDGE_CURVE ( 'NONE', #451, #518, #487, .T. ) ;
#453 = ORIENTED_EDGE ( 'NONE', *, *, #525, .T. ) ;
#454 = CARTESIAN_POINT ( 'NONE',  ( -7.294999999999997264, -16.82499999999999929, 0.000000000000000000 ) ) ;
#455 = CARTESIAN_POINT ( 'NONE',  ( 7.929999999999999716, 2.174999999999991829, 0.000000000000000000 ) ) ;
#456 = CIRCLE ( 'NONE', #483, 3.174999999999999822 ) ;
#457 = VERTEX_POINT ( 'NONE', #262 ) ;
#458 = EDGE_LOOP ( 'NONE', ( #566, #112, #750, #574 ) ) ;
#459 = PLANE ( 'NONE',  #235 ) ;
#460 = FACE_OUTER_BOUND ( 'NONE', #562, .T. ) ;
#461 = ORIENTED_EDGE ( 'NONE', *, *, #275, .T. ) ;
#462 = VECTOR ( 'NONE', #38, 1000.000000000000000 ) ;
#463 = EDGE_CURVE ( 'NONE', #592, #218, #223, .T. ) ;
#464 = ORIENTED_EDGE ( 'NONE', *, *, #81, .F. ) ;
#465 = PLANE ( 'NONE',  #723 ) ;
#466 = ADVANCED_FACE ( 'NONE', ( #317 ), #567, .T. ) ;
#467 = DIRECTION ( 'NONE',  ( 1.000000000000000000, 0.000000000000000000, 0.000000000000000000 ) ) ;
#468 = ORIENTED_EDGE ( 'NONE', *, *, #160, .F. ) ;
#469 = ORIENTED_EDGE ( 'NONE', *, *, #742, .F. ) ;
#470 = DIRECTION ( 'NONE',  ( -1.000000000000000000, -0.000000000000000000, -0.000000000000000000 ) ) ;
#471 = DIRECTION ( 'NONE',  ( 0.000000000000000000, 0.000000000000000000, 1.000000000000000000 ) ) ;
#472 = CIRCLE ( 'NONE', #386, 3.174999999999999822 ) ;
#473 = PRESENTATION_STYLE_ASSIGNMENT (( #480 ) ) ;
#474 = DIRECTION ( 'NONE',  ( 1.000000000000000000, 0.000000000000000000, 0.000000000000000000 ) ) ;
#475 = EDGE_LOOP ( 'NONE', ( #284, #672 ) ) ;
#476 = PRESENTATION_LAYER_ASSIGNMENT (  '', '', ( #697 ) ) ;
#477 = CARTESIAN_POINT ( 'NONE',  ( 0.000000000000000000, 0.000000000000000000, 0.000000000000000000 ) ) ;
#478 = APPLICATION_CONTEXT ( 'automotive_design' ) ;
#479 = EDGE_CURVE ( 'NONE', #447, #748, #93, .T. ) ;
#480 = SURFACE_STYLE_USAGE ( .BOTH. , #409 ) ;
#481 = FILL_AREA_STYLE_COLOUR ( '', #73 ) ;
#482 = FACE_OUTER_BOUND ( 'NONE', #297, .T. ) ;
#483 = AXIS2_PLACEMENT_3D ( 'NONE', #685, #48, #445 ) ;
#484 =( LENGTH_UNIT ( ) NAMED_UNIT ( * ) SI_UNIT ( .MILLI., .METRE. ) );
#485 = DIRECTION ( 'NONE',  ( 1.031744904286424511E-16, -1.000000000000000000, 0.000000000000000000 ) ) ;
#486 = FILL_AREA_STYLE_COLOUR ( '', #224 ) ;
#487 = CIRCLE ( 'NONE', #244, 0.3649999999999669065 ) ;
#488 = STYLED_ITEM ( 'NONE', ( #555 ), #27 ) ;
#489 = ADVANCED_FACE ( 'NONE', ( #39 ), #216, .T. ) ;
#490 = CARTESIAN_POINT ( 'NONE',  ( -4.700000000000000178, 2.539999999999999591, 0.000000000000000000 ) ) ;
#491 = AXIS2_PLACEMENT_3D ( 'NONE', #477, #715, #662 ) ;
#492 = DIRECTION ( 'NONE',  ( 1.365923996832131609E-16, -1.000000000000000000, 0.000000000000000000 ) ) ;
#493 = CARTESIAN_POINT ( 'NONE',  ( 6.929999999999992610, 2.539999999999999147, 0.000000000000000000 ) ) ;
#494 = CARTESIAN_POINT ( 'NONE',  ( 7.929999999999997939, -16.82499999999999929, 0.000000000000000000 ) ) ;
#495 = CARTESIAN_POINT ( 'NONE',  ( -4.700000000000000178, 2.539999999999999591, 0.000000000000000000 ) ) ;
#496 = AXIS2_PLACEMENT_3D ( 'NONE', #599, #596, #642 ) ;
#497 = EDGE_CURVE ( 'NONE', #506, #151, #266, .T. ) ;
#498 = PRESENTATION_LAYER_ASSIGNMENT (  '', '', ( #45 ) ) ;
#499 = CARTESIAN_POINT ( 'NONE',  ( -4.700000000000000178, 3.174999999999999822, 0.000000000000000000 ) ) ;
#500 = AXIS2_PLACEMENT_3D ( 'NONE', #727, #198, #30 ) ;
#501 = FACE_OUTER_BOUND ( 'NONE', #411, .T. ) ;
#502 = UNCERTAINTY_MEASURE_WITH_UNIT (LENGTH_MEASURE( 1.000000000000000082E-05 ), #29, 'distance_accuracy_value', 'NONE');
#503 = ORIENTED_EDGE ( 'NONE', *, *, #452, .T. ) ;
#504 = DIRECTION ( 'NONE',  ( -1.000000000000000000, -0.000000000000000000, -0.000000000000000000 ) ) ;
#505 = DIRECTION ( 'NONE',  ( 0.000000000000000000, 0.000000000000000000, 1.000000000000000000 ) ) ;
#506 = VERTEX_POINT ( 'NONE', #449 ) ;
#507 = EDGE_CURVE ( 'NONE', #457, #585, #509, .T. ) ;
#508 = DIRECTION ( 'NONE',  ( -1.031744904286424511E-16, -1.000000000000000000, 0.000000000000000000 ) ) ;
#509 = CIRCLE ( 'NONE', #676, 3.174999999999999822 ) ;
#510 = DIRECTION ( 'NONE',  ( -1.000000000000000000, 0.000000000000000000, 0.000000000000000000 ) ) ;
#511 = VERTEX_POINT ( 'NONE', #212 ) ;
#512 = DIRECTION ( 'NONE',  ( 1.000000000000000000, 0.000000000000000000, 0.000000000000000000 ) ) ;
#513 = AXIS2_PLACEMENT_3D ( 'NONE', #182, #19, #415 ) ;
#514 = CARTESIAN_POINT ( 'NONE',  ( -6.929999999999999716, 2.174999999999999822, -7.776507174585692903E-17 ) ) ;
#515 = AXIS2_PLACEMENT_3D ( 'NONE', #448, #684, #575 ) ;
#516 = EDGE_CURVE ( 'NONE', #679, #451, #611, .T. ) ;
#517 = ORIENTED_EDGE ( 'NONE', *, *, #497, .T. ) ;
#518 = VERTEX_POINT ( 'NONE', #204 ) ;
#519 = DIRECTION ( 'NONE',  ( 0.000000000000000000, 0.000000000000000000, 1.000000000000000000 ) ) ;
#520 = CARTESIAN_POINT ( 'NONE',  ( -4.700000000000000178, 6.349999999999999645, 0.000000000000000000 ) ) ;
#521 = ORIENTED_EDGE ( 'NONE', *, *, #686, .T. ) ;
#522 = ORIENTED_EDGE ( 'NONE', *, *, #265, .F. ) ;
#523 = DIRECTION ( 'NONE',  ( -1.000000000000000000, -0.000000000000000000, -0.000000000000000000 ) ) ;
#524 = LINE ( 'NONE', #692, #690 ) ;
#525 = EDGE_CURVE ( 'NONE', #218, #592, #268, .T. ) ;
#526 = VECTOR ( 'NONE', #702, 1000.000000000000000 ) ;
#527 = VERTEX_POINT ( 'NONE', #439 ) ;
#528 = AXIS2_PLACEMENT_3D ( 'NONE', #610, #20, #363 ) ;
#529 = DIRECTION ( 'NONE',  ( 0.000000000000000000, 0.000000000000000000, 1.000000000000000000 ) ) ;
#530 = COLOUR_RGB ( '',0.7921568627450980005, 0.8196078431372548767, 0.9333333333333333481 ) ;
#531 = DIRECTION ( 'NONE',  ( -1.365923996832131609E-16, 1.000000000000000000, 0.000000000000000000 ) ) ;
#532 = ORIENTED_EDGE ( 'NONE', *, *, #339, .T. ) ;
#533 = CIRCLE ( 'NONE', #248, 0.6350000000000000089 ) ;
#534 = FILL_AREA_STYLE ('',( #118 ) ) ;
#535 = CARTESIAN_POINT ( 'NONE',  ( 8.564999999999999503, 2.174999999999987832, -7.776507174585691670E-17 ) ) ;
#536 = EDGE_CURVE ( 'NONE', #209, #229, #456, .T. ) ;
#537 = SURFACE_SIDE_STYLE ('',( #649 ) ) ;
#538 = DIRECTION ( 'NONE',  ( 9.130123557772672032E-17, -1.000000000000000000, 0.000000000000000000 ) ) ;
#539 = ORIENTED_EDGE ( 'NONE', *, *, #425, .T. ) ;
#540 = CARTESIAN_POINT ( 'NONE',  ( 6.929999999999999716, 2.174999999999999822, 0.000000000000000000 ) ) ;
#541 = ORIENTED_EDGE ( 'NONE', *, *, #652, .T. ) ;
#542 = ADVANCED_FACE ( 'NONE', ( #276 ), #677, .T. ) ;
#543 = CIRCLE ( 'NONE', #87, 1.634999999999967146 ) ;
#544 = DIRECTION ( 'NONE',  ( 1.000000000000000000, -1.944757260063691714E-16, 0.000000000000000000 ) ) ;
#545 = CARTESIAN_POINT ( 'NONE',  ( -2.699999999999999289, 3.174999999999999822, 0.000000000000000000 ) ) ;
#546 = SURFACE_STYLE_USAGE ( .BOTH. , #75 ) ;
#547 =( NAMED_UNIT ( * ) SI_UNIT ( $, .STERADIAN. ) SOLID_ANGLE_UNIT ( ) );
#548 =( NAMED_UNIT ( * ) PLANE_ANGLE_UNIT ( ) SI_UNIT ( $, .RADIAN. ) );
#549 = ADVANCED_FACE ( 'NONE', ( #501 ), #718, .T. ) ;
#550 = AXIS2_PLACEMENT_3D ( 'NONE', #551, #485, #80 ) ;
#551 = CARTESIAN_POINT ( 'NONE',  ( 7.929999999999997939, -16.82499999999999929, 0.000000000000000000 ) ) ;
#552 = PLANE ( 'NONE',  #184 ) ;
#553 = AXIS2_PLACEMENT_3D ( 'NONE', #245, #372, #492 ) ;
#554 =( NAMED_UNIT ( * ) SI_UNIT ( $, .STERADIAN. ) SOLID_ANGLE_UNIT ( ) );
#555 = PRESENTATION_STYLE_ASSIGNMENT (( #85 ) ) ;
#556 = LINE ( 'NONE', #183, #755 ) ;
#557 = PRESENTATION_STYLE_ASSIGNMENT (( #308 ) ) ;
#558 = DIRECTION ( 'NONE',  ( 0.000000000000000000, -1.000000000000000000, 0.000000000000000000 ) ) ;
#559 = AXIS2_PLACEMENT_3D ( 'NONE', #311, #326, #578 ) ;
#560 = DIRECTION ( 'NONE',  ( 0.000000000000000000, -1.000000000000000000, 0.000000000000000000 ) ) ;
#561 = CIRCLE ( 'NONE', #24, 0.6350000000000000089 ) ;
#562 = EDGE_LOOP ( 'NONE', ( #37, #12 ) ) ;
#563 = ADVANCED_FACE ( 'NONE', ( #202 ), #294, .F. ) ;
#564 = VECTOR ( 'NONE', #206, 1000.000000000000000 ) ;
#565 = DIRECTION ( 'NONE',  ( 0.000000000000000000, 0.000000000000000000, 1.000000000000000000 ) ) ;
#566 = ORIENTED_EDGE ( 'NONE', *, *, #463, .F. ) ;
#567 = CYLINDRICAL_SURFACE ( 'NONE', #590, 0.6350000000000001199 ) ;
#568 = EDGE_CURVE ( 'NONE', #438, #375, #601, .T. ) ;
#569 = ORIENTED_EDGE ( 'NONE', *, *, #696, .F. ) ;
#570 = DIRECTION ( 'NONE',  ( -1.031744904286424511E-16, -1.000000000000000000, 0.000000000000000000 ) ) ;
#571 = EDGE_CURVE ( 'NONE', #140, #748, #348, .T. ) ;
#572 = CYLINDRICAL_SURFACE ( 'NONE', #719, 0.6350000000000001199 ) ;
#573 = UNCERTAINTY_MEASURE_WITH_UNIT (LENGTH_MEASURE( 1.000000000000000082E-05 ), #124, 'distance_accuracy_value', 'NONE');
#574 = ORIENTED_EDGE ( 'NONE', *, *, #339, .F. ) ;
#575 = DIRECTION ( 'NONE',  ( 0.000000000000000000, 0.000000000000000000, 1.000000000000000000 ) ) ;
#576 = MECHANICAL_DESIGN_GEOMETRIC_PRESENTATION_REPRESENTATION (  '', ( #186 ), #341 ) ;
#577 = AXIS2_PLACEMENT_3D ( 'NONE', #221, #523, #636 ) ;
#578 = DIRECTION ( 'NONE',  ( 1.000000000000000000, 0.000000000000000000, 0.000000000000000000 ) ) ;
#579 =( GEOMETRIC_REPRESENTATION_CONTEXT ( 3 ) GLOBAL_UNCERTAINTY_ASSIGNED_CONTEXT ( ( #624 ) ) GLOBAL_UNIT_ASSIGNED_CONTEXT ( ( #484, #21, #303 ) ) REPRESENTATION_CONTEXT ( 'NONE', 'WORKASPACE' ) );
#580 = VERTEX_POINT ( 'NONE', #165 ) ;
#581 = EDGE_LOOP ( 'NONE', ( #621, #687, #736, #315 ) ) ;
#582 = DIRECTION ( 'NONE',  ( -1.000000000000000000, -0.000000000000000000, -0.000000000000000000 ) ) ;
#583 = MECHANICAL_DESIGN_GEOMETRIC_PRESENTATION_REPRESENTATION (  '', ( #302 ), #733 ) ;
#584 = CARTESIAN_POINT ( 'NONE',  ( 4.700000000000000178, 2.539999999999999591, 0.000000000000000000 ) ) ;
#585 = VERTEX_POINT ( 'NONE', #591 ) ;
#586 = CYLINDRICAL_SURFACE ( 'NONE', #246, 3.174999999999999822 ) ;
#587 = PLANE ( 'NONE',  #351 ) ;
#588 = DIRECTION ( 'NONE',  ( -1.000000000000000000, 0.000000000000000000, 0.000000000000000000 ) ) ;
#589 = ORIENTED_EDGE ( 'NONE', *, *, #293, .T. ) ;
#590 = AXIS2_PLACEMENT_3D ( 'NONE', #455, #617, #314 ) ;
#591 = CARTESIAN_POINT ( 'NONE',  ( -4.700000000000000178, 3.175000000000000266, -3.174999999999999822 ) ) ;
#592 = VERTEX_POINT ( 'NONE', #535 ) ;
#593 = MECHANICAL_DESIGN_GEOMETRIC_PRESENTATION_REPRESENTATION (  '', ( #422 ), #446 ) ;
#594 = EDGE_CURVE ( 'NONE', #69, #744, #310, .T. ) ;
#595 = ORIENTED_EDGE ( 'NONE', *, *, #49, .F. ) ;
#596 = DIRECTION ( 'NONE',  ( 1.000000000000000000, 1.365923996832131609E-16, 0.000000000000000000 ) ) ;
#597 = CARTESIAN_POINT ( 'NONE',  ( -7.929999999999999716, 2.174999999999991829, 0.000000000000000000 ) ) ;
#598 = EDGE_CURVE ( 'NONE', #375, #438, #752, .T. ) ;
#599 = CARTESIAN_POINT ( 'NONE',  ( -2.699999999999999734, 3.174999999999999822, 0.000000000000000000 ) ) ;
#600 = ORIENTED_EDGE ( 'NONE', *, *, #49, .T. ) ;
#601 = CIRCLE ( 'NONE', #219, 3.174999999999999822 ) ;
#602 = CARTESIAN_POINT ( 'NONE',  ( -2.700000000000000178, 6.349999999999999645, -3.174999999999999822 ) ) ;
#603 = SHAPE_DEFINITION_REPRESENTATION ( #691, #98 ) ;
#604 = SURFACE_STYLE_FILL_AREA ( #354 ) ;
#605 = DIRECTION ( 'NONE',  ( -1.000000000000000000, 0.000000000000000000, -0.000000000000000000 ) ) ;
#606 = CIRCLE ( 'NONE', #258, 3.174999999999999822 ) ;
#607 = PRODUCT_RELATED_PRODUCT_CATEGORY ( 'part', '', ( #50 ) ) ;
#608 =( NAMED_UNIT ( * ) PLANE_ANGLE_UNIT ( ) SI_UNIT ( $, .RADIAN. ) );
#609 = SURFACE_STYLE_FILL_AREA ( #301 ) ;
#610 = CARTESIAN_POINT ( 'NONE',  ( -4.700000000000000178, 3.174999999999999822, 0.000000000000000000 ) ) ;
#611 = CIRCLE ( 'NONE', #336, 0.6350000000000000089 ) ;
#612 = SURFACE_STYLE_FILL_AREA ( #429 ) ;
#613 = DIRECTION ( 'NONE',  ( -1.031744904286424511E-16, 1.000000000000000000, -0.000000000000000000 ) ) ;
#614 = ADVANCED_FACE ( 'NONE', ( #646 ), #654, .T. ) ;
#615 = CIRCLE ( 'NONE', #356, 0.6350000000000000089 ) ;
#616 = AXIS2_PLACEMENT_3D ( 'NONE', #716, #544, #18 ) ;
#617 = DIRECTION ( 'NONE',  ( -9.130123557772672032E-17, -1.000000000000000000, 0.000000000000000000 ) ) ;
#618 = ORIENTED_EDGE ( 'NONE', *, *, #659, .T. ) ;
#619 = AXIS2_PLACEMENT_3D ( 'NONE', #545, #720, #188 ) ;
#620 = DIRECTION ( 'NONE',  ( 9.130123557772672032E-17, -1.000000000000000000, 0.000000000000000000 ) ) ;
#621 = ORIENTED_EDGE ( 'NONE', *, *, #217, .T. ) ;
#622 = PRESENTATION_LAYER_ASSIGNMENT (  '', '', ( #186 ) ) ;
#623 = CARTESIAN_POINT ( 'NONE',  ( 7.929999999999999716, 2.174999999999991829, 0.000000000000000000 ) ) ;
#624 = UNCERTAINTY_MEASURE_WITH_UNIT (LENGTH_MEASURE( 1.000000000000000082E-05 ), #484, 'distance_accuracy_value', 'NONE');
#625 = APPLICATION_CONTEXT ( 'automotive_design' ) ;
#626 = ORIENTED_EDGE ( 'NONE', *, *, #418, .T. ) ;
#627 = EDGE_CURVE ( 'NONE', #169, #745, #472, .T. ) ;
#628 = DIRECTION ( 'NONE',  ( 0.000000000000000000, 0.000000000000000000, 1.000000000000000000 ) ) ;
#629 = DIRECTION ( 'NONE',  ( 6.744418177900858861E-15, 1.000000000000000000, -0.000000000000000000 ) ) ;
#630 = ORIENTED_EDGE ( 'NONE', *, *, #686, .F. ) ;
#631 = DIRECTION ( 'NONE',  ( -1.000000000000000000, -1.944757260063691714E-16, 0.000000000000000000 ) ) ;
#632 = CARTESIAN_POINT ( 'NONE',  ( 6.280256121069154318, 1.301042606982605321E-15, 0.000000000000000000 ) ) ;
#633 = ORIENTED_EDGE ( 'NONE', *, *, #316, .T. ) ;
#634 = ADVANCED_FACE ( 'NONE', ( #108 ), #416, .T. ) ;
#635 = ORIENTED_EDGE ( 'NONE', *, *, #627, .F. ) ;
#636 = DIRECTION ( 'NONE',  ( 0.000000000000000000, 0.000000000000000000, 1.000000000000000000 ) ) ;
#637 = AXIS2_PLACEMENT_3D ( 'NONE', #499, #255, #730 ) ;
#638 = CARTESIAN_POINT ( 'NONE',  ( -2.699999999999999734, 3.174999999999999822, 0.000000000000000000 ) ) ;
#639 = CLOSED_SHELL ( 'NONE', ( #675, #400, #373, #563 ) ) ;
#640 = ORIENTED_EDGE ( 'NONE', *, *, #516, .T. ) ;
#641 = FACE_OUTER_BOUND ( 'NONE', #91, .T. ) ;
#642 = DIRECTION ( 'NONE',  ( -1.365923996832131609E-16, 1.000000000000000000, 0.000000000000000000 ) ) ;
#643 = DIRECTION ( 'NONE',  ( 0.000000000000000000, 0.000000000000000000, 1.000000000000000000 ) ) ;
#644 = EDGE_LOOP ( 'NONE', ( #595, #694, #388, #220 ) ) ;
#645 = DIRECTION ( 'NONE',  ( 0.000000000000000000, -1.000000000000000000, 0.000000000000000000 ) ) ;
#646 = FACE_OUTER_BOUND ( 'NONE', #740, .T. ) ;
#647 = AXIS2_PLACEMENT_3D ( 'NONE', #230, #7, #396 ) ;
#648 = EDGE_LOOP ( 'NONE', ( #468, #600, #713, #435 ) ) ;
#649 = SURFACE_STYLE_FILL_AREA ( #534 ) ;
#650 = FACE_OUTER_BOUND ( 'NONE', #225, .T. ) ;
#651 = EDGE_LOOP ( 'NONE', ( #630, #109, #147, #541 ) ) ;
#652 = EDGE_CURVE ( 'NONE', #744, #69, #726, .T. ) ;
#653 = DIRECTION ( 'NONE',  ( 6.744418177900858861E-15, -1.000000000000000000, 0.000000000000000000 ) ) ;
#654 = CYLINDRICAL_SURFACE ( 'NONE', #647, 3.174999999999999822 ) ;
#655 = ORIENTED_EDGE ( 'NONE', *, *, #594, .T. ) ;
#656 = SURFACE_STYLE_FILL_AREA ( #247 ) ;
#657 = SURFACE_SIDE_STYLE ('',( #612 ) ) ;
#658 = AXIS2_PLACEMENT_3D ( 'NONE', #207, #145, #505 ) ;
#659 = EDGE_CURVE ( 'NONE', #592, #447, #737, .T. ) ;
#660 = DIRECTION ( 'NONE',  ( -1.000000000000000000, -0.000000000000000000, -0.000000000000000000 ) ) ;
#661 = VECTOR ( 'NONE', #77, 1000.000000000000000 ) ;
#662 = DIRECTION ( 'NONE',  ( 1.000000000000000000, 0.000000000000000000, 0.000000000000000000 ) ) ;
#663 = AXIS2_PLACEMENT_3D ( 'NONE', #260, #504, #734 ) ;
#664 = DIRECTION ( 'NONE',  ( 1.000000000000000000, 1.365923996832131609E-16, 0.000000000000000000 ) ) ;
#665 =( NAMED_UNIT ( * ) SI_UNIT ( $, .STERADIAN. ) SOLID_ANGLE_UNIT ( ) );
#666 = DIRECTION ( 'NONE',  ( -0.000000000000000000, 0.000000000000000000, 1.000000000000000000 ) ) ;
#667 = PRODUCT_DEFINITION ( 'UNKNOWN', '', #130, #271 ) ;
#668 =( NAMED_UNIT ( * ) SI_UNIT ( $, .STERADIAN. ) SOLID_ANGLE_UNIT ( ) );
#669 = FACE_OUTER_BOUND ( 'NONE', #166, .T. ) ;
#670 = DIRECTION ( 'NONE',  ( 0.000000000000000000, 0.000000000000000000, 1.000000000000000000 ) ) ;
#671 = CIRCLE ( 'NONE', #432, 3.174999999999999822 ) ;
#672 = ORIENTED_EDGE ( 'NONE', *, *, #749, .F. ) ;
#673 = DIRECTION ( 'NONE',  ( -1.000000000000000000, -1.365923996832131609E-16, -0.000000000000000000 ) ) ;
#674 = ORIENTED_EDGE ( 'NONE', *, *, #507, .T. ) ;
#675 = ADVANCED_FACE ( 'NONE', ( #407 ), #392, .T. ) ;
#676 = AXIS2_PLACEMENT_3D ( 'NONE', #374, #747, #94 ) ;
#677 = CYLINDRICAL_SURFACE ( 'NONE', #71, 0.6350000000000001199 ) ;
#678 = AXIS2_PLACEMENT_3D ( 'NONE', #380, #739, #743 ) ;
#679 = VERTEX_POINT ( 'NONE', #707 ) ;
#680 = CIRCLE ( 'NONE', #343, 0.6350000000000000089 ) ;
#681 = CYLINDRICAL_SURFACE ( 'NONE', #444, 0.6350000000000001199 ) ;
#682 = CARTESIAN_POINT ( 'NONE',  ( 4.700000000000000178, 3.174999999999999822, 0.000000000000000000 ) ) ;
#683 = EDGE_LOOP ( 'NONE', ( #635, #699 ) ) ;
#684 = DIRECTION ( 'NONE',  ( -1.000000000000000000, -0.000000000000000000, -0.000000000000000000 ) ) ;
#685 = CARTESIAN_POINT ( 'NONE',  ( 4.700000000000000178, 3.174999999999999822, 0.000000000000000000 ) ) ;
#686 = EDGE_CURVE ( 'NONE', #580, #69, #524, .T. ) ;
#687 = ORIENTED_EDGE ( 'NONE', *, *, #201, .T. ) ;
#688 = ORIENTED_EDGE ( 'NONE', *, *, #463, .T. ) ;
#689 = LINE ( 'NONE', #53, #462 ) ;
#690 = VECTOR ( 'NONE', #233, 1000.000000000000000 ) ;
#691 = PRODUCT_DEFINITION_SHAPE ( 'NONE', 'NONE',  #667 ) ;
#692 = CARTESIAN_POINT ( 'NONE',  ( 6.280256121069154318, 6.350000000000001421, 3.888253587292846081E-16 ) ) ;
#693 = ORIENTED_EDGE ( 'NONE', *, *, #403, .F. ) ;
#694 = ORIENTED_EDGE ( 'NONE', *, *, #152, .F. ) ;
#695 = CARTESIAN_POINT ( 'NONE',  ( 4.700000000000000178, 3.174999999999999822, 0.000000000000000000 ) ) ;
#696 = EDGE_CURVE ( 'NONE', #169, #457, #753, .T. ) ;
#697 = STYLED_ITEM ( 'NONE', ( #67 ), #261 ) ;
#698 = DIRECTION ( 'NONE',  ( 1.000000000000000000, 1.365923996832131609E-16, 0.000000000000000000 ) ) ;
#699 = ORIENTED_EDGE ( 'NONE', *, *, #316, .F. ) ;
#700 = ORIENTED_EDGE ( 'NONE', *, *, #70, .F. ) ;
#701 = CARTESIAN_POINT ( 'NONE',  ( -3.800000000000000266, 6.349999999999999645, 3.888253587292846081E-16 ) ) ;
#702 = DIRECTION ( 'NONE',  ( 1.000000000000000000, -1.944757260063691714E-16, 0.000000000000000000 ) ) ;
#703 = EDGE_LOOP ( 'NONE', ( #178, #203 ) ) ;
#704 = ORIENTED_EDGE ( 'NONE', *, *, #293, .F. ) ;
#705 = DIRECTION ( 'NONE',  ( -1.365923996832131609E-16, 1.000000000000000000, 0.000000000000000000 ) ) ;
#706 = ADVANCED_FACE ( 'NONE', ( #460 ), #587, .F. ) ;
#707 = CARTESIAN_POINT ( 'NONE',  ( -6.929999999999992610, 3.809999999999999609, 7.776507174585691670E-17 ) ) ;
#708 = AXIS2_PLACEMENT_3D ( 'NONE', #177, #330, #467 ) ;
#709 = ORIENTED_EDGE ( 'NONE', *, *, #479, .F. ) ;
#710 = ADVANCED_FACE ( 'NONE', ( #650 ), #119, .T. ) ;
#711 = DIRECTION ( 'NONE',  ( 1.000000000000000000, 1.365923996832131609E-16, 0.000000000000000000 ) ) ;
#712 = FACE_OUTER_BOUND ( 'NONE', #475, .T. ) ;
#713 = ORIENTED_EDGE ( 'NONE', *, *, #479, .T. ) ;
#714 = CYLINDRICAL_SURFACE ( 'NONE', #616, 0.6350000000000001199 ) ;
#715 = DIRECTION ( 'NONE',  ( 0.000000000000000000, 0.000000000000000000, 1.000000000000000000 ) ) ;
#716 = CARTESIAN_POINT ( 'NONE',  ( 4.700000000000000178, 3.174999999999999822, 0.000000000000000000 ) ) ;
#717 = FACE_OUTER_BOUND ( 'NONE', #703, .T. ) ;
#718 = TOROIDAL_SURFACE ( 'NONE', #708, 0.9999999999999665823, 0.6350000000000000089 ) ;
#719 = AXIS2_PLACEMENT_3D ( 'NONE', #623, #97, #385 ) ;
#720 = DIRECTION ( 'NONE',  ( 1.000000000000000000, 1.365923996832131609E-16, 0.000000000000000000 ) ) ;
#721 =( NAMED_UNIT ( * ) SI_UNIT ( $, .STERADIAN. ) SOLID_ANGLE_UNIT ( ) );
#722 = CARTESIAN_POINT ( 'NONE',  ( -4.700000000000000178, 3.174999999999999822, 0.000000000000000000 ) ) ;
#723 = AXIS2_PLACEMENT_3D ( 'NONE', #320, #149, #379 ) ;
#724 = CARTESIAN_POINT ( 'NONE',  ( 7.294999999999999041, 2.174999999999991829, 0.000000000000000000 ) ) ;
#725 = CARTESIAN_POINT ( 'NONE',  ( 4.700000000000000178, 6.349999999999999645, 0.000000000000000000 ) ) ;
#726 = CIRCLE ( 'NONE', #253, 3.174999999999999822 ) ;
#727 = CARTESIAN_POINT ( 'NONE',  ( -4.700000000000000178, 3.174999999999999822, 0.000000000000000000 ) ) ;
#728 = PRESENTATION_LAYER_ASSIGNMENT (  '', '', ( #488 ) ) ;
#729 = CIRCLE ( 'NONE', #553, 3.174999999999999822 ) ;
#730 = DIRECTION ( 'NONE',  ( 0.000000000000000000, 0.000000000000000000, 1.000000000000000000 ) ) ;
#731 = ADVANCED_FACE ( 'NONE', ( #712 ), #135, .T. ) ;
#732 = ORIENTED_EDGE ( 'NONE', *, *, #452, .F. ) ;
#733 =( GEOMETRIC_REPRESENTATION_CONTEXT ( 3 ) GLOBAL_UNCERTAINTY_ASSIGNED_CONTEXT ( ( #382 ) ) GLOBAL_UNIT_ASSIGNED_CONTEXT ( ( #242, #608, #554 ) ) REPRESENTATION_CONTEXT ( 'NONE', 'WORKASPACE' ) );
#734 = DIRECTION ( 'NONE',  ( 0.000000000000000000, 0.000000000000000000, 1.000000000000000000 ) ) ;
#735 = DIRECTION ( 'NONE',  ( 1.000000000000000000, 0.000000000000000000, 0.000000000000000000 ) ) ;
#736 = ORIENTED_EDGE ( 'NONE', *, *, #598, .T. ) ;
#737 = CIRCLE ( 'NONE', #241, 1.634999999999967146 ) ;
#738 = DIRECTION ( 'NONE',  ( 0.000000000000000000, -1.000000000000000000, 0.000000000000000000 ) ) ;
#739 = DIRECTION ( 'NONE',  ( -1.000000000000000000, -0.000000000000000000, -0.000000000000000000 ) ) ;
#740 = EDGE_LOOP ( 'NONE', ( #319, #41, #349, #569 ) ) ;
#741 = CARTESIAN_POINT ( 'NONE',  ( 4.700000000000000178, 3.175000000000000266, -3.174999999999999822 ) ) ;
#742 = EDGE_CURVE ( 'NONE', #580, #511, #404, .T. ) ;
#743 = DIRECTION ( 'NONE',  ( 0.000000000000000000, 0.000000000000000000, 1.000000000000000000 ) ) ;
#744 = VERTEX_POINT ( 'NONE', #353 ) ;
#745 = VERTEX_POINT ( 'NONE', #83 ) ;
#746 = DIRECTION ( 'NONE',  ( -1.000000000000000000, -1.365923996832131609E-16, -0.000000000000000000 ) ) ;
#747 = DIRECTION ( 'NONE',  ( -1.000000000000000000, -0.000000000000000000, -0.000000000000000000 ) ) ;
#748 = VERTEX_POINT ( 'NONE', #493 ) ;
#749 = EDGE_CURVE ( 'NONE', #231, #346, #282, .T. ) ;
#750 = ORIENTED_EDGE ( 'NONE', *, *, #749, .T. ) ;
#751 = LINE ( 'NONE', #389, #175 ) ;
#752 = CIRCLE ( 'NONE', #496, 3.174999999999999822 ) ;
#753 = LINE ( 'NONE', #334, #82 ) ;
#754 = DIRECTION ( 'NONE',  ( -1.000000000000000000, -0.000000000000000000, -0.000000000000000000 ) ) ;
#755 = VECTOR ( 'NONE', #32, 1000.000000000000000 ) ;
#756 = EDGE_LOOP ( 'NONE', ( #342, #688, #277, #709 ) ) ;
ENDSEC;
END-ISO-10303-21;
