ISO-10303-21;
HEADER;
FILE_DESCRIPTION (( 'STEP AP214' ),
    '1' );
FILE_NAME ('1N4148TR.STEP',
    '2023-11-27T06:32:03',
    ( 'LENOVO' ),
    ( '' ),
    'SwSTEP 2.0',
    'SolidWorks 2021',
    '' );
FILE_SCHEMA (( 'AUTOMOTIVE_DESIGN' ));
ENDSEC;

DATA;
#1 = DIRECTION ( 'NONE',  ( -1.494482151746832325E-16, -1.000000000000000000, 0.000000000000000000 ) ) ;
#2 = AXIS2_PLACEMENT_3D ( 'NONE', #487, #213, #10 ) ;
#3 = ORIENTED_EDGE ( 'NONE', *, *, #199, .T. ) ;
#4 = DIRECTION ( 'NONE',  ( -1.000000000000000000, -0.000000000000000000, -0.000000000000000000 ) ) ;
#5 = ORIENTED_EDGE ( 'NONE', *, *, #879, .F. ) ;
#6 = CIRCLE ( 'NONE', #606, 0.3000000000000000444 ) ;
#7 = PLANE ( 'NONE',  #125 ) ;
#8 = VECTOR ( 'NONE', #154, 1000.000000000000000 ) ;
#9 = CARTESIAN_POINT ( 'NONE',  ( 4.299999999999999822, -0.3499999999999997558, 0.000000000000000000 ) ) ;
#10 = DIRECTION ( 'NONE',  ( 0.000000000000000000, 0.000000000000000000, 1.000000000000000000 ) ) ;
#11 = DIRECTION ( 'NONE',  ( 0.000000000000000000, 0.000000000000000000, -1.000000000000000000 ) ) ;
#12 = CARTESIAN_POINT ( 'NONE',  ( 1.899999999999999689, 0.8499999999999999778, 0.000000000000000000 ) ) ;
#13 = FACE_OUTER_BOUND ( 'NONE', #922, .T. ) ;
#14 = EDGE_CURVE ( 'NONE', #590, #600, #359, .T. ) ;
#15 = FACE_OUTER_BOUND ( 'NONE', #616, .T. ) ;
#16 = DIRECTION ( 'NONE',  ( 0.000000000000000000, 0.000000000000000000, -1.000000000000000000 ) ) ;
#17 = CIRCLE ( 'NONE', #549, 0.8499999999999998668 ) ;
#18 = CIRCLE ( 'NONE', #221, 0.3000000000000000444 ) ;
#19 = CARTESIAN_POINT ( 'NONE',  ( -0.8499999999999996447, 0.8499999999999999778, 0.8499999999999998668 ) ) ;
#20 = CARTESIAN_POINT ( 'NONE',  ( -1.899999999999999689, 0.8499999999999999778, 0.000000000000000000 ) ) ;
#21 = FACE_OUTER_BOUND ( 'NONE', #596, .T. ) ;
#22 = CYLINDRICAL_SURFACE ( 'NONE', #182, 0.8499999999999999778 ) ;
#23 = CARTESIAN_POINT ( 'NONE',  ( 4.300000000000003375, -23.56504440784612342, 0.000000000000000000 ) ) ;
#24 = VECTOR ( 'NONE', #178, 1000.000000000000000 ) ;
#25 = EDGE_CURVE ( 'NONE', #600, #255, #33, .T. ) ;
#26 = CIRCLE ( 'NONE', #529, 0.3000000000000000444 ) ;
#27 =( NAMED_UNIT ( * ) PLANE_ANGLE_UNIT ( ) SI_UNIT ( $, .RADIAN. ) );
#28 = CIRCLE ( 'NONE', #106, 0.8499999999999998668 ) ;
#29 = EDGE_CURVE ( 'NONE', #998, #247, #18, .T. ) ;
#30 = CARTESIAN_POINT ( 'NONE',  ( -1.899999999999999689, 0.8499999999999999778, 0.000000000000000000 ) ) ;
#31 = CIRCLE ( 'NONE', #215, 0.3000000000000000444 ) ;
#32 = CARTESIAN_POINT ( 'NONE',  ( 1.899999999999999689, 0.8499999999999999778, 0.000000000000000000 ) ) ;
#33 = CIRCLE ( 'NONE', #177, 0.3000000000000000444 ) ;
#34 = AXIS2_PLACEMENT_3D ( 'NONE', #985, #61, #454 ) ;
#35 = APPLICATION_PROTOCOL_DEFINITION ( 'draft international standard', 'automotive_design', 1998, #85 ) ;
#36 = CARTESIAN_POINT ( 'NONE',  ( -3.700000000000000178, -0.3500000000000000333, -3.673940397442082918E-17 ) ) ;
#37 = ADVANCED_FACE ( 'NONE', ( #21 ), #39, .T. ) ;
#38 = CYLINDRICAL_SURFACE ( 'NONE', #776, 0.3000000000000000444 ) ;
#39 = CYLINDRICAL_SURFACE ( 'NONE', #56, 0.8499999999999999778 ) ;
#40 = LINE ( 'NONE', #784, #702 ) ;
#41 = CARTESIAN_POINT ( 'NONE',  ( -1.899999999999999689, 0.8499999999999999778, 0.000000000000000000 ) ) ;
#42 = CIRCLE ( 'NONE', #274, 0.3000000000000000444 ) ;
#43 = PLANE ( 'NONE',  #793 ) ;
#44 = SURFACE_STYLE_USAGE ( .BOTH. , #732 ) ;
#45 = DIRECTION ( 'NONE',  ( 1.000000000000000000, 1.807003620809174385E-16, 0.000000000000000000 ) ) ;
#46 = CIRCLE ( 'NONE', #1003, 0.8499999999999999778 ) ;
#47 = EDGE_CURVE ( 'NONE', #611, #635, #719, .T. ) ;
#48 = CIRCLE ( 'NONE', #886, 0.1499999999999999667 ) ;
#49 = MECHANICAL_DESIGN_GEOMETRIC_PRESENTATION_REPRESENTATION (  '', ( #210 ), #149 ) ;
#50 = VECTOR ( 'NONE', #894, 1000.000000000000000 ) ;
#51 = CYLINDRICAL_SURFACE ( 'NONE', #322, 0.8499999999999998668 ) ;
#52 = CARTESIAN_POINT ( 'NONE',  ( -1.899999999999999689, 0.8499999999999999778, 0.000000000000000000 ) ) ;
#53 = FACE_OUTER_BOUND ( 'NONE', #954, .T. ) ;
#54 = VECTOR ( 'NONE', #4, 1000.000000000000000 ) ;
#55 = FACE_OUTER_BOUND ( 'NONE', #1018, .T. ) ;
#56 = AXIS2_PLACEMENT_3D ( 'NONE', #30, #401, #913 ) ;
#57 = CARTESIAN_POINT ( 'NONE',  ( -1.749999999999999778, 0.8499999999999999778, 0.000000000000000000 ) ) ;
#58 = ADVANCED_FACE ( 'NONE', ( #15 ), #7, .T. ) ;
#59 = PRESENTATION_STYLE_ASSIGNMENT (( #488 ) ) ;
#60 = PRODUCT_DEFINITION_CONTEXT ( 'detailed design', #85, 'design' ) ;
#61 = DIRECTION ( 'NONE',  ( -0.000000000000000000, -0.000000000000000000, -1.000000000000000000 ) ) ;
#62 = CIRCLE ( 'NONE', #788, 0.7499999999999997780 ) ;
#63 = DIRECTION ( 'NONE',  ( 0.000000000000000000, 0.000000000000000000, 1.000000000000000000 ) ) ;
#64 = FACE_OUTER_BOUND ( 'NONE', #248, .T. ) ;
#65 = CIRCLE ( 'NONE', #190, 0.6999999999999999556 ) ;
#66 = CARTESIAN_POINT ( 'NONE',  ( -0.8499999999999996447, 0.8499999999999999778, 0.000000000000000000 ) ) ;
#67 = AXIS2_PLACEMENT_3D ( 'NONE', #914, #477, #126 ) ;
#68 = CARTESIAN_POINT ( 'NONE',  ( -1.899999999999999689, 0.8499999999999999778, 0.000000000000000000 ) ) ;
#69 = ADVANCED_FACE ( 'NONE', ( #688 ), #708, .T. ) ;
#70 = EDGE_CURVE ( 'NONE', #933, #575, #704, .T. ) ;
#71 = CARTESIAN_POINT ( 'NONE',  ( 1.749999999999999778, 0.8499999999999999778, -0.8499999999999999778 ) ) ;
#72 = LINE ( 'NONE', #801, #730 ) ;
#73 = AXIS2_PLACEMENT_3D ( 'NONE', #366, #293, #395 ) ;
#74 = VECTOR ( 'NONE', #204, 1000.000000000000000 ) ;
#75 = CIRCLE ( 'NONE', #698, 0.7500000000000000000 ) ;
#76 = VECTOR ( 'NONE', #747, 1000.000000000000000 ) ;
#77 = AXIS2_PLACEMENT_3D ( 'NONE', #209, #314, #928 ) ;
#78 = CARTESIAN_POINT ( 'NONE',  ( -2.800000000000000266, -0.3499999999999999223, 3.673940397442059498E-17 ) ) ;
#79 = DIRECTION ( 'NONE',  ( -1.494482151746832325E-16, -1.000000000000000000, -0.000000000000000000 ) ) ;
#80 = EDGE_CURVE ( 'NONE', #635, #611, #711, .T. ) ;
#81 = LINE ( 'NONE', #725, #74 ) ;
#82 = CARTESIAN_POINT ( 'NONE',  ( -1.899999999999999689, 0.8500000000000000888, -0.7499999999999998890 ) ) ;
#83 = FACE_OUTER_BOUND ( 'NONE', #628, .T. ) ;
#84 = PLANE ( 'NONE',  #652 ) ;
#85 = APPLICATION_CONTEXT ( 'automotive_design' ) ;
#86 = CIRCLE ( 'NONE', #513, 1.499999999999999556 ) ;
#87 = DIRECTION ( 'NONE',  ( 0.000000000000000000, 0.000000000000000000, 1.000000000000000000 ) ) ;
#88 = CIRCLE ( 'NONE', #508, 0.1499999999999999667 ) ;
#89 = DIRECTION ( 'NONE',  ( 0.000000000000000000, -1.000000000000000000, 0.000000000000000000 ) ) ;
#90 = CIRCLE ( 'NONE', #153, 0.6999999999999999556 ) ;
#91 = FACE_OUTER_BOUND ( 'NONE', #994, .T. ) ;
#92 = DIRECTION ( 'NONE',  ( -1.000000000000000000, 0.000000000000000000, -0.000000000000000000 ) ) ;
#93 = FACE_OUTER_BOUND ( 'NONE', #973, .T. ) ;
#94 = EDGE_CURVE ( 'NONE', #933, #326, #28, .T. ) ;
#95 = CARTESIAN_POINT ( 'NONE',  ( 4.000000000000003553, -23.56504440784612342, 0.000000000000000000 ) ) ;
#96 = STYLED_ITEM ( 'NONE', ( #795 ), #853 ) ;
#97 =( NAMED_UNIT ( * ) SI_UNIT ( $, .STERADIAN. ) SOLID_ANGLE_UNIT ( ) );
#98 = FILL_AREA_STYLE ('',( #918 ) ) ;
#99 = CYLINDRICAL_SURFACE ( 'NONE', #543, 0.3000000000000000444 ) ;
#100 = DIRECTION ( 'NONE',  ( 1.000000000000000000, -0.000000000000000000, -0.000000000000000000 ) ) ;
#101 = CYLINDRICAL_SURFACE ( 'NONE', #139, 0.3000000000000000444 ) ;
#102 = TOROIDAL_SURFACE ( 'NONE', #304, 0.6999999999999999556, 0.1499999999999999944 ) ;
#103 = DIRECTION ( 'NONE',  ( 1.000000000000000000, -0.000000000000000000, -0.000000000000000000 ) ) ;
#104 = CARTESIAN_POINT ( 'NONE',  ( -1.549999999999999822, 0.8499999999999999778, 0.000000000000000000 ) ) ;
#105 = CYLINDRICAL_SURFACE ( 'NONE', #67, 0.2999999999999999334 ) ;
#106 = AXIS2_PLACEMENT_3D ( 'NONE', #380, #197, #532 ) ;
#107 = LINE ( 'NONE', #9, #438 ) ;
#108 = AXIS2_PLACEMENT_3D ( 'NONE', #999, #978, #684 ) ;
#109 = FACE_OUTER_BOUND ( 'NONE', #1028, .T. ) ;
#110 = CIRCLE ( 'NONE', #838, 0.7499999999999997780 ) ;
#111 = CARTESIAN_POINT ( 'NONE',  ( -1.899999999999999689, 0.8499999999999999778, 0.7499999999999998890 ) ) ;
#112 = CARTESIAN_POINT ( 'NONE',  ( -2.800000000000000266, 0.5499999999999999334, 3.673940397442054568E-17 ) ) ;
#113 = AXIS2_PLACEMENT_3D ( 'NONE', #192, #677, #468 ) ;
#114 = SURFACE_STYLE_FILL_AREA ( #198 ) ;
#115 = FACE_OUTER_BOUND ( 'NONE', #958, .T. ) ;
#116 = EDGE_CURVE ( 'NONE', #964, #1020, #700, .T. ) ;
#117 = ADVANCED_FACE ( 'NONE', ( #691 ), #22, .T. ) ;
#118 = CARTESIAN_POINT ( 'NONE',  ( 2.800000000000000266, 0.5499999999999999334, 3.673940397442054568E-17 ) ) ;
#119 = AXIS2_PLACEMENT_3D ( 'NONE', #837, #528, #195 ) ;
#120 = FACE_OUTER_BOUND ( 'NONE', #663, .T. ) ;
#121 = CARTESIAN_POINT ( 'NONE',  ( -3.700000000000000178, -0.3499999999999998668, -3.673940397442059498E-17 ) ) ;
#122 = VECTOR ( 'NONE', #917, 1000.000000000000000 ) ;
#123 = CARTESIAN_POINT ( 'NONE',  ( -0.8499999999999996447, 1.285879139104721225E-16, 0.000000000000000000 ) ) ;
#124 = CIRCLE ( 'NONE', #329, 0.6999999999999999556 ) ;
#125 = AXIS2_PLACEMENT_3D ( 'NONE', #846, #92, #206 ) ;
#126 = DIRECTION ( 'NONE',  ( -1.000000000000000000, 1.807003620809174385E-16, 0.000000000000000000 ) ) ;
#127 = DIRECTION ( 'NONE',  ( -1.000000000000000000, 0.000000000000000000, -0.000000000000000000 ) ) ;
#128 = SURFACE_STYLE_FILL_AREA ( #325 ) ;
#129 = EDGE_CURVE ( 'NONE', #590, #604, #685, .T. ) ;
#130 = CYLINDRICAL_SURFACE ( 'NONE', #397, 0.7499999999999998890 ) ;
#131 = CIRCLE ( 'NONE', #73, 0.3000000000000000444 ) ;
#132 = CARTESIAN_POINT ( 'NONE',  ( 1.749999999999999778, 0.8499999999999999778, 0.000000000000000000 ) ) ;
#133 = FACE_OUTER_BOUND ( 'NONE', #328, .T. ) ;
#134 = DIRECTION ( 'NONE',  ( 1.000000000000000000, 0.000000000000000000, 0.000000000000000000 ) ) ;
#135 = AXIS2_PLACEMENT_3D ( 'NONE', #553, #100, #490 ) ;
#136 = DIRECTION ( 'NONE',  ( 1.000000000000000000, 0.000000000000000000, 0.000000000000000000 ) ) ;
#137 = EDGE_CURVE ( 'NONE', #1025, #956, #46, .T. ) ;
#138 = DIRECTION ( 'NONE',  ( 0.000000000000000000, 0.000000000000000000, 1.000000000000000000 ) ) ;
#139 = AXIS2_PLACEMENT_3D ( 'NONE', #718, #802, #871 ) ;
#140 = DIRECTION ( 'NONE',  ( -1.000000000000000000, -0.000000000000000000, -0.000000000000000000 ) ) ;
#141 = COLOUR_RGB ( '',0.7921568627450980005, 0.8196078431372548767, 0.9333333333333333481 ) ;
#142 = DIRECTION ( 'NONE',  ( 0.000000000000000000, 0.000000000000000000, 1.000000000000000000 ) ) ;
#143 = PRESENTATION_STYLE_ASSIGNMENT (( #623 ) ) ;
#144 = UNCERTAINTY_MEASURE_WITH_UNIT (LENGTH_MEASURE( 1.000000000000000082E-05 ), #533, 'distance_accuracy_value', 'NONE');
#145 = DIRECTION ( 'NONE',  ( -0.000000000000000000, 0.000000000000000000, 1.000000000000000000 ) ) ;
#146 = FACE_OUTER_BOUND ( 'NONE', #658, .T. ) ;
#147 = PRESENTATION_LAYER_ASSIGNMENT (  '', '', ( #378 ) ) ;
#148 = CARTESIAN_POINT ( 'NONE',  ( 1.749999999999999778, 0.8500000000000000888, 0.6999999999999999556 ) ) ;
#149 =( GEOMETRIC_REPRESENTATION_CONTEXT ( 3 ) GLOBAL_UNCERTAINTY_ASSIGNED_CONTEXT ( ( #712 ) ) GLOBAL_UNIT_ASSIGNED_CONTEXT ( ( #515, #771, #465 ) ) REPRESENTATION_CONTEXT ( 'NONE', 'WORKASPACE' ) );
#150 = CARTESIAN_POINT ( 'NONE',  ( 2.800000000000000266, 0.8499999999999999778, 0.000000000000000000 ) ) ;
#151 = DIRECTION ( 'NONE',  ( 0.000000000000000000, 0.000000000000000000, -1.000000000000000000 ) ) ;
#152 = DIRECTION ( 'NONE',  ( -0.000000000000000000, -0.000000000000000000, -1.000000000000000000 ) ) ;
#153 = AXIS2_PLACEMENT_3D ( 'NONE', #385, #505, #554 ) ;
#154 = DIRECTION ( 'NONE',  ( -1.000000000000000000, -0.000000000000000000, -0.000000000000000000 ) ) ;
#155 = FILL_AREA_STYLE_COLOUR ( '', #757 ) ;
#156 = DIRECTION ( 'NONE',  ( 1.494482151746832325E-16, -1.000000000000000000, 0.000000000000000000 ) ) ;
#157 = EDGE_CURVE ( 'NONE', #635, #266, #707, .T. ) ;
#158 = CARTESIAN_POINT ( 'NONE',  ( -1.899999999999999689, 0.8499999999999999778, 0.000000000000000000 ) ) ;
#159 = CARTESIAN_POINT ( 'NONE',  ( 4.000000000000000000, -0.3499999999999998113, 0.000000000000000000 ) ) ;
#160 = DIRECTION ( 'NONE',  ( -1.000000000000000000, -0.000000000000000000, -0.000000000000000000 ) ) ;
#161 = DIRECTION ( 'NONE',  ( -1.000000000000000000, -0.000000000000000000, -0.000000000000000000 ) ) ;
#162 = DIRECTION ( 'NONE',  ( 1.000000000000000000, 0.000000000000000000, 0.000000000000000000 ) ) ;
#163 = EDGE_CURVE ( 'NONE', #326, #933, #17, .T. ) ;
#164 = DIRECTION ( 'NONE',  ( -0.000000000000000000, -0.000000000000000000, -1.000000000000000000 ) ) ;
#165 = PRODUCT_RELATED_PRODUCT_CATEGORY ( 'part', '', ( #934 ) ) ;
#166 = DIRECTION ( 'NONE',  ( -1.000000000000000000, -0.000000000000000000, -0.000000000000000000 ) ) ;
#167 = DIRECTION ( 'NONE',  ( -1.000000000000000000, 0.000000000000000000, -0.000000000000000000 ) ) ;
#168 = CARTESIAN_POINT ( 'NONE',  ( -0.8499999999999996447, 0.8499999999999999778, 0.8499999999999998668 ) ) ;
#169 = AXIS2_PLACEMENT_3D ( 'NONE', #824, #785, #820 ) ;
#170 = EDGE_CURVE ( 'NONE', #275, #284, #31, .T. ) ;
#171 = ADVANCED_FACE ( 'NONE', ( #692 ), #371, .T. ) ;
#172 = CARTESIAN_POINT ( 'NONE',  ( -4.300000000000003375, -23.56504440784612342, 0.000000000000000000 ) ) ;
#173 = AXIS2_PLACEMENT_3D ( 'NONE', #534, #940, #403 ) ;
#174 = CARTESIAN_POINT ( 'NONE',  ( -1.899999999999999689, 0.8499999999999999778, 0.000000000000000000 ) ) ;
#175 = DIRECTION ( 'NONE',  ( 0.000000000000000000, 0.000000000000000000, -1.000000000000000000 ) ) ;
#176 = DIRECTION ( 'NONE',  ( -1.000000000000000000, -0.000000000000000000, -0.000000000000000000 ) ) ;
#177 = AXIS2_PLACEMENT_3D ( 'NONE', #229, #364, #840 ) ;
#178 = DIRECTION ( 'NONE',  ( -1.494482151746832325E-16, -1.000000000000000000, 0.000000000000000000 ) ) ;
#179 = CARTESIAN_POINT ( 'NONE',  ( 4.299999999999999822, -0.3500000000000000333, 0.000000000000000000 ) ) ;
#180 = CARTESIAN_POINT ( 'NONE',  ( -1.549999999999999822, 0.8499999999999999778, 0.8499999999999999778 ) ) ;
#181 = ADVANCED_FACE ( 'NONE', ( #363 ), #353, .T. ) ;
#182 = AXIS2_PLACEMENT_3D ( 'NONE', #481, #373, #904 ) ;
#183 = DIRECTION ( 'NONE',  ( 0.000000000000000000, -0.000000000000000000, -1.000000000000000000 ) ) ;
#184 = EDGE_CURVE ( 'NONE', #236, #1025, #365, .T. ) ;
#185 = DIRECTION ( 'NONE',  ( 0.000000000000000000, 0.000000000000000000, 1.000000000000000000 ) ) ;
#186 = DIRECTION ( 'NONE',  ( 0.000000000000000000, 1.000000000000000000, -1.224646799147353207E-16 ) ) ;
#187 = ADVANCED_FACE ( 'NONE', ( #357, #453 ), #885, .F. ) ;
#188 = CARTESIAN_POINT ( 'NONE',  ( -1.899999999999999689, 0.8499999999999999778, 0.000000000000000000 ) ) ;
#189 = DIRECTION ( 'NONE',  ( -1.000000000000000000, -0.000000000000000000, -0.000000000000000000 ) ) ;
#190 = AXIS2_PLACEMENT_3D ( 'NONE', #587, #176, #706 ) ;
#191 = UNCERTAINTY_MEASURE_WITH_UNIT (LENGTH_MEASURE( 1.000000000000000082E-05 ), #564, 'distance_accuracy_value', 'NONE');
#192 = CARTESIAN_POINT ( 'NONE',  ( 4.000000000000003553, -23.56504440784612342, 0.000000000000000000 ) ) ;
#193 = EDGE_CURVE ( 'NONE', #611, #318, #457, .T. ) ;
#194 =( GEOMETRIC_REPRESENTATION_CONTEXT ( 3 ) GLOBAL_UNCERTAINTY_ASSIGNED_CONTEXT ( ( #144 ) ) GLOBAL_UNIT_ASSIGNED_CONTEXT ( ( #533, #868, #924 ) ) REPRESENTATION_CONTEXT ( 'NONE', 'WORKASPACE' ) );
#195 = DIRECTION ( 'NONE',  ( 0.000000000000000000, 0.000000000000000000, -1.000000000000000000 ) ) ;
#196 = DIRECTION ( 'NONE',  ( 0.000000000000000000, 0.000000000000000000, 1.000000000000000000 ) ) ;
#197 = DIRECTION ( 'NONE',  ( -1.000000000000000000, -0.000000000000000000, -0.000000000000000000 ) ) ;
#198 = FILL_AREA_STYLE ('',( #155 ) ) ;
#199 = EDGE_CURVE ( 'NONE', #298, #1015, #422, .T. ) ;
#200 = CARTESIAN_POINT ( 'NONE',  ( -0.8499999999999996447, 0.8499999999999999778, 0.000000000000000000 ) ) ;
#201 = DIRECTION ( 'NONE',  ( -1.000000000000000000, -0.000000000000000000, -0.000000000000000000 ) ) ;
#202 = CARTESIAN_POINT ( 'NONE',  ( -2.800000000000000266, -0.3499999999999999223, 0.000000000000000000 ) ) ;
#203 = DIRECTION ( 'NONE',  ( 0.000000000000000000, -1.000000000000000000, 0.000000000000000000 ) ) ;
#204 = DIRECTION ( 'NONE',  ( -1.000000000000000000, 0.000000000000000000, 0.000000000000000000 ) ) ;
#205 = AXIS2_PLACEMENT_3D ( 'NONE', #859, #156, #45 ) ;
#206 = DIRECTION ( 'NONE',  ( -0.000000000000000000, 0.000000000000000000, 1.000000000000000000 ) ) ;
#207 = EDGE_CURVE ( 'NONE', #935, #956, #40, .T. ) ;
#208 = CARTESIAN_POINT ( 'NONE',  ( 3.700000000000000178, -0.3499999999999998668, 3.673940397442059498E-17 ) ) ;
#209 = CARTESIAN_POINT ( 'NONE',  ( -2.800000000000000266, 0.8499999999999999778, 0.000000000000000000 ) ) ;
#210 = STYLED_ITEM ( 'NONE', ( #803 ), #874 ) ;
#211 = ADVANCED_BREP_SHAPE_REPRESENTATION ( '1N4148TR', ( #449, #853, #950, #874, #531 ), #194 ) ;
#212 = DIRECTION ( 'NONE',  ( -1.000000000000000000, -0.000000000000000000, -0.000000000000000000 ) ) ;
#213 = DIRECTION ( 'NONE',  ( -1.000000000000000000, -0.000000000000000000, -0.000000000000000000 ) ) ;
#214 = DIRECTION ( 'NONE',  ( 0.000000000000000000, 0.000000000000000000, -1.000000000000000000 ) ) ;
#215 = AXIS2_PLACEMENT_3D ( 'NONE', #527, #292, #854 ) ;
#216 = CARTESIAN_POINT ( 'NONE',  ( -4.299999999999999822, -0.3500000000000000333, 0.000000000000000000 ) ) ;
#217 = EDGE_CURVE ( 'NONE', #657, #1029, #26, .T. ) ;
#218 = DIRECTION ( 'NONE',  ( 1.000000000000000000, -0.000000000000000000, -0.000000000000000000 ) ) ;
#219 = DIRECTION ( 'NONE',  ( 0.000000000000000000, 0.000000000000000000, -1.000000000000000000 ) ) ;
#220 = ADVANCED_FACE ( 'NONE', ( #13 ), #38, .T. ) ;
#221 = AXIS2_PLACEMENT_3D ( 'NONE', #942, #351, #439 ) ;
#222 = EDGE_CURVE ( 'NONE', #234, #321, #368, .T. ) ;
#223 = CARTESIAN_POINT ( 'NONE',  ( 1.899999999999999689, 0.8499999999999999778, 0.000000000000000000 ) ) ;
#224 = AXIS2_PLACEMENT_3D ( 'NONE', #701, #516, #568 ) ;
#225 = CARTESIAN_POINT ( 'NONE',  ( 1.749999999999999778, 0.8499999999999999778, -0.6999999999999999556 ) ) ;
#226 = EDGE_LOOP ( 'NONE', ( #338, #281 ) ) ;
#227 = ORIENTED_EDGE ( 'NONE', *, *, #480, .T. ) ;
#228 = ORIENTED_EDGE ( 'NONE', *, *, #827, .T. ) ;
#229 = CARTESIAN_POINT ( 'NONE',  ( -4.000000000000003553, -23.56504440784612342, 0.000000000000000000 ) ) ;
#230 = ORIENTED_EDGE ( 'NONE', *, *, #588, .F. ) ;
#231 = ORIENTED_EDGE ( 'NONE', *, *, #450, .T. ) ;
#232 = PLANE ( 'NONE',  #486 ) ;
#233 = ORIENTED_EDGE ( 'NONE', *, *, #852, .F. ) ;
#234 = VERTEX_POINT ( 'NONE', #823 ) ;
#235 = ORIENTED_EDGE ( 'NONE', *, *, #646, .T. ) ;
#236 = VERTEX_POINT ( 'NONE', #500 ) ;
#237 = ORIENTED_EDGE ( 'NONE', *, *, #520, .T. ) ;
#238 = ORIENTED_EDGE ( 'NONE', *, *, #610, .F. ) ;
#239 = ORIENTED_EDGE ( 'NONE', *, *, #207, .T. ) ;
#240 =( GEOMETRIC_REPRESENTATION_CONTEXT ( 3 ) GLOBAL_UNCERTAINTY_ASSIGNED_CONTEXT ( ( #642 ) ) GLOBAL_UNIT_ASSIGNED_CONTEXT ( ( #814, #27, #97 ) ) REPRESENTATION_CONTEXT ( 'NONE', 'WORKASPACE' ) );
#241 = ORIENTED_EDGE ( 'NONE', *, *, #446, .F. ) ;
#242 = DIRECTION ( 'NONE',  ( -1.000000000000000000, -0.000000000000000000, -0.000000000000000000 ) ) ;
#243 = ORIENTED_EDGE ( 'NONE', *, *, #520, .F. ) ;
#244 = ORIENTED_EDGE ( 'NONE', *, *, #170, .F. ) ;
#245 = CARTESIAN_POINT ( 'NONE',  ( -1.549999999999999822, 0.8499999999999999778, 0.000000000000000000 ) ) ;
#246 = VERTEX_POINT ( 'NONE', #494 ) ;
#247 = VERTEX_POINT ( 'NONE', #23 ) ;
#248 = EDGE_LOOP ( 'NONE', ( #291, #237, #634, #265 ) ) ;
#249 = ORIENTED_EDGE ( 'NONE', *, *, #872, .F. ) ;
#250 = AXIS2_PLACEMENT_3D ( 'NONE', #556, #783, #463 ) ;
#251 = DIRECTION ( 'NONE',  ( 0.000000000000000000, 0.000000000000000000, -1.000000000000000000 ) ) ;
#252 = EDGE_LOOP ( 'NONE', ( #586, #923, #1010, #319 ) ) ;
#253 = ORIENTED_EDGE ( 'NONE', *, *, #557, .F. ) ;
#254 = EDGE_CURVE ( 'NONE', #956, #951, #48, .T. ) ;
#255 = VERTEX_POINT ( 'NONE', #172 ) ;
#256 = UNCERTAINTY_MEASURE_WITH_UNIT (LENGTH_MEASURE( 1.000000000000000082E-05 ), #858, 'distance_accuracy_value', 'NONE');
#257 = DIRECTION ( 'NONE',  ( 1.494482151746832325E-16, -1.000000000000000000, 0.000000000000000000 ) ) ;
#258 = SURFACE_SIDE_STYLE ('',( #114 ) ) ;
#259 = VERTEX_POINT ( 'NONE', #813 ) ;
#260 = EDGE_LOOP ( 'NONE', ( #996, #299 ) ) ;
#261 = ORIENTED_EDGE ( 'NONE', *, *, #930, .T. ) ;
#262 = ADVANCED_FACE ( 'NONE', ( #377 ), #232, .F. ) ;
#263 = ORIENTED_EDGE ( 'NONE', *, *, #510, .T. ) ;
#264 = CARTESIAN_POINT ( 'NONE',  ( 1.899999999999999689, 0.8499999999999999778, -0.3000000000000000444 ) ) ;
#265 = ORIENTED_EDGE ( 'NONE', *, *, #70, .F. ) ;
#266 = VERTEX_POINT ( 'NONE', #867 ) ;
#267 = EDGE_LOOP ( 'NONE', ( #280, #617, #608, #674 ) ) ;
#268 = CARTESIAN_POINT ( 'NONE',  ( -0.8499999999999996447, 0.8499999999999999778, 0.000000000000000000 ) ) ;
#269 = CARTESIAN_POINT ( 'NONE',  ( -4.000000000000003553, -23.56504440784612342, 0.000000000000000000 ) ) ;
#270 = VERTEX_POINT ( 'NONE', #537 ) ;
#271 = VERTEX_POINT ( 'NONE', #179 ) ;
#272 = CARTESIAN_POINT ( 'NONE',  ( 1.749999999999999778, 0.8500000000000000888, 0.8499999999999999778 ) ) ;
#273 = ORIENTED_EDGE ( 'NONE', *, *, #887, .F. ) ;
#274 = AXIS2_PLACEMENT_3D ( 'NONE', #414, #936, #175 ) ;
#275 = VERTEX_POINT ( 'NONE', #882 ) ;
#276 = CARTESIAN_POINT ( 'NONE',  ( -1.549999999999999822, 0.8500000000000000888, -0.8500000000000000888 ) ) ;
#277 = ORIENTED_EDGE ( 'NONE', *, *, #137, .T. ) ;
#278 = EDGE_CURVE ( 'NONE', #310, #964, #372, .T. ) ;
#279 = EDGE_LOOP ( 'NONE', ( #953, #960, #980, #290 ) ) ;
#280 = ORIENTED_EDGE ( 'NONE', *, *, #367, .F. ) ;
#281 = ORIENTED_EDGE ( 'NONE', *, *, #864, .F. ) ;
#282 = DIRECTION ( 'NONE',  ( 1.000000000000000000, 0.000000000000000000, 0.000000000000000000 ) ) ;
#283 = ORIENTED_EDGE ( 'NONE', *, *, #1031, .F. ) ;
#284 = VERTEX_POINT ( 'NONE', #946 ) ;
#285 = ORIENTED_EDGE ( 'NONE', *, *, #199, .F. ) ;
#286 = ORIENTED_EDGE ( 'NONE', *, *, #301, .T. ) ;
#287 =( NAMED_UNIT ( * ) PLANE_ANGLE_UNIT ( ) SI_UNIT ( $, .RADIAN. ) );
#288 = ORIENTED_EDGE ( 'NONE', *, *, #297, .F. ) ;
#289 = ORIENTED_EDGE ( 'NONE', *, *, #715, .F. ) ;
#290 = ORIENTED_EDGE ( 'NONE', *, *, #393, .F. ) ;
#291 = ORIENTED_EDGE ( 'NONE', *, *, #94, .T. ) ;
#292 = DIRECTION ( 'NONE',  ( 1.000000000000000000, 0.000000000000000000, 0.000000000000000000 ) ) ;
#293 = DIRECTION ( 'NONE',  ( -0.000000000000000000, 1.000000000000000000, -0.000000000000000000 ) ) ;
#294 = ORIENTED_EDGE ( 'NONE', *, *, #393, .T. ) ;
#295 = DIRECTION ( 'NONE',  ( 1.000000000000000000, 0.000000000000000000, 0.000000000000000000 ) ) ;
#296 = ORIENTED_EDGE ( 'NONE', *, *, #952, .T. ) ;
#297 = EDGE_CURVE ( 'NONE', #964, #310, #346, .T. ) ;
#298 = VERTEX_POINT ( 'NONE', #118 ) ;
#299 = ORIENTED_EDGE ( 'NONE', *, *, #852, .T. ) ;
#300 = CARTESIAN_POINT ( 'NONE',  ( -1.749999999999999778, 0.8499999999999999778, 0.000000000000000000 ) ) ;
#301 = EDGE_CURVE ( 'NONE', #255, #600, #42, .T. ) ;
#302 = ORIENTED_EDGE ( 'NONE', *, *, #80, .T. ) ;
#303 = ORIENTED_EDGE ( 'NONE', *, *, #987, .F. ) ;
#304 = AXIS2_PLACEMENT_3D ( 'NONE', #132, #522, #251 ) ;
#305 = ORIENTED_EDGE ( 'NONE', *, *, #845, .T. ) ;
#306 = ORIENTED_EDGE ( 'NONE', *, *, #480, .F. ) ;
#307 = CARTESIAN_POINT ( 'NONE',  ( -1.899999999999999689, 0.8499999999999999778, 0.8499999999999998668 ) ) ;
#308 = ORIENTED_EDGE ( 'NONE', *, *, #683, .F. ) ;
#309 = ADVANCED_FACE ( 'NONE', ( #696, #374 ), #341, .T. ) ;
#310 = VERTEX_POINT ( 'NONE', #431 ) ;
#311 = EDGE_LOOP ( 'NONE', ( #576, #324, #336, #306 ) ) ;
#312 = CARTESIAN_POINT ( 'NONE',  ( -1.899999999999999689, 0.8499999999999999778, 0.6999999999999999556 ) ) ;
#313 = EDGE_LOOP ( 'NONE', ( #991, #990, #239, #1021 ) ) ;
#314 = DIRECTION ( 'NONE',  ( 1.000000000000000000, -0.000000000000000000, -0.000000000000000000 ) ) ;
#315 = CARTESIAN_POINT ( 'NONE',  ( 3.700000000000003730, -23.56504440784612342, 3.673940397442061347E-17 ) ) ;
#316 = ORIENTED_EDGE ( 'NONE', *, *, #504, .F. ) ;
#317 = ORIENTED_EDGE ( 'NONE', *, *, #163, .T. ) ;
#318 = VERTEX_POINT ( 'NONE', #423 ) ;
#319 = ORIENTED_EDGE ( 'NONE', *, *, #686, .T. ) ;
#320 = DIRECTION ( 'NONE',  ( 0.000000000000000000, -1.000000000000000000, 0.000000000000000000 ) ) ;
#321 = VERTEX_POINT ( 'NONE', #661 ) ;
#322 = AXIS2_PLACEMENT_3D ( 'NONE', #158, #535, #911 ) ;
#323 = ORIENTED_EDGE ( 'NONE', *, *, #419, .F. ) ;
#324 = ORIENTED_EDGE ( 'NONE', *, *, #791, .F. ) ;
#325 = FILL_AREA_STYLE ('',( #729 ) ) ;
#326 = VERTEX_POINT ( 'NONE', #651 ) ;
#327 = DIRECTION ( 'NONE',  ( 0.000000000000000000, 0.000000000000000000, -1.000000000000000000 ) ) ;
#328 = EDGE_LOOP ( 'NONE', ( #675, #1009, #644, #671, #591 ) ) ;
#329 = AXIS2_PLACEMENT_3D ( 'NONE', #509, #680, #895 ) ;
#330 = VERTEX_POINT ( 'NONE', #216 ) ;
#331 = EDGE_LOOP ( 'NONE', ( #334, #981, #228, #285, #1012 ) ) ;
#332 = ORIENTED_EDGE ( 'NONE', *, *, #551, .T. ) ;
#333 = ORIENTED_EDGE ( 'NONE', *, *, #450, .F. ) ;
#334 = ORIENTED_EDGE ( 'NONE', *, *, #912, .F. ) ;
#335 = ORIENTED_EDGE ( 'NONE', *, *, #25, .F. ) ;
#336 = ORIENTED_EDGE ( 'NONE', *, *, #254, .T. ) ;
#337 = ORIENTED_EDGE ( 'NONE', *, *, #222, .T. ) ;
#338 = ORIENTED_EDGE ( 'NONE', *, *, #845, .F. ) ;
#339 = AXIS2_PLACEMENT_3D ( 'NONE', #174, #640, #496 ) ;
#340 = EDGE_LOOP ( 'NONE', ( #649, #943, #636, #303, #927 ) ) ;
#341 = PLANE ( 'NONE',  #774 ) ;
#342 = EDGE_CURVE ( 'NONE', #673, #961, #724, .T. ) ;
#343 = DIRECTION ( 'NONE',  ( -1.000000000000000000, 1.807003620809174385E-16, 0.000000000000000000 ) ) ;
#344 = ORIENTED_EDGE ( 'NONE', *, *, #301, .F. ) ;
#345 = VECTOR ( 'NONE', #464, 1000.000000000000000 ) ;
#346 = CIRCLE ( 'NONE', #817, 0.3000000000000000444 ) ;
#347 = ADVANCED_FACE ( 'NONE', ( #681, #352 ), #750, .F. ) ;
#348 = CARTESIAN_POINT ( 'NONE',  ( -1.549999999999999822, 0.000000000000000000, 0.000000000000000000 ) ) ;
#349 = DIRECTION ( 'NONE',  ( -1.000000000000000000, -0.000000000000000000, -0.000000000000000000 ) ) ;
#350 = VECTOR ( 'NONE', #212, 1000.000000000000000 ) ;
#351 = DIRECTION ( 'NONE',  ( 1.494482151746832325E-16, -1.000000000000000000, 0.000000000000000000 ) ) ;
#352 = FACE_OUTER_BOUND ( 'NONE', #602, .T. ) ;
#353 = TOROIDAL_SURFACE ( 'NONE', #518, 1.199999999999999067, 0.3000000000000000444 ) ;
#354 = EDGE_CURVE ( 'NONE', #590, #330, #6, .T. ) ;
#355 = DIRECTION ( 'NONE',  ( -0.000000000000000000, 0.000000000000000000, 1.000000000000000000 ) ) ;
#356 = DIRECTION ( 'NONE',  ( 0.000000000000000000, 0.000000000000000000, 1.000000000000000000 ) ) ;
#357 = FACE_OUTER_BOUND ( 'NONE', #226, .T. ) ;
#358 = ADVANCED_FACE ( 'NONE', ( #55 ), #735, .F. ) ;
#359 = LINE ( 'NONE', #121, #24 ) ;
#360 = DIRECTION ( 'NONE',  ( 0.000000000000000000, 0.000000000000000000, -1.000000000000000000 ) ) ;
#361 = DIRECTION ( 'NONE',  ( 1.000000000000000000, 0.000000000000000000, 0.000000000000000000 ) ) ;
#362 = EDGE_LOOP ( 'NONE', ( #679, #241 ) ) ;
#363 = FACE_OUTER_BOUND ( 'NONE', #340, .T. ) ;
#364 = DIRECTION ( 'NONE',  ( 1.494482151746832325E-16, 1.000000000000000000, -0.000000000000000000 ) ) ;
#365 = LINE ( 'NONE', #900, #695 ) ;
#366 = CARTESIAN_POINT ( 'NONE',  ( -4.000000000000000000, -0.3500000000000000333, 0.000000000000000000 ) ) ;
#367 = EDGE_CURVE ( 'NONE', #722, #673, #743, .T. ) ;
#368 = LINE ( 'NONE', #111, #350 ) ;
#369 = AXIS2_PLACEMENT_3D ( 'NONE', #926, #103, #810 ) ;
#370 = DIRECTION ( 'NONE',  ( -1.000000000000000000, -0.000000000000000000, -0.000000000000000000 ) ) ;
#371 = CYLINDRICAL_SURFACE ( 'NONE', #536, 0.8499999999999999778 ) ;
#372 = CIRCLE ( 'NONE', #135, 0.3000000000000000444 ) ;
#373 = DIRECTION ( 'NONE',  ( -1.000000000000000000, -0.000000000000000000, -0.000000000000000000 ) ) ;
#374 = FACE_BOUND ( 'NONE', #362, .T. ) ;
#375 = DIRECTION ( 'NONE',  ( 0.000000000000000000, 0.000000000000000000, 1.000000000000000000 ) ) ;
#376 = CARTESIAN_POINT ( 'NONE',  ( 2.800000000000000266, -0.3499999999999999223, 0.000000000000000000 ) ) ;
#377 = FACE_OUTER_BOUND ( 'NONE', #1007, .T. ) ;
#378 = STYLED_ITEM ( 'NONE', ( #59 ), #449 ) ;
#379 = ADVANCED_FACE ( 'NONE', ( #386 ), #745, .F. ) ;
#380 = CARTESIAN_POINT ( 'NONE',  ( -0.8499999999999996447, 0.8499999999999999778, 0.000000000000000000 ) ) ;
#381 = CYLINDRICAL_SURFACE ( 'NONE', #1026, 0.8499999999999999778 ) ;
#382 = DIRECTION ( 'NONE',  ( 0.000000000000000000, -0.000000000000000000, -1.000000000000000000 ) ) ;
#383 = AXIS2_PLACEMENT_3D ( 'NONE', #245, #574, #779 ) ;
#384 = CARTESIAN_POINT ( 'NONE',  ( -2.800000000000000266, 0.8499999999999999778, 0.3000000000000000444 ) ) ;
#385 = CARTESIAN_POINT ( 'NONE',  ( -1.899999999999999689, 0.8499999999999999778, 0.000000000000000000 ) ) ;
#386 = FACE_OUTER_BOUND ( 'NONE', #252, .T. ) ;
#387 = CIRCLE ( 'NONE', #850, 0.8499999999999999778 ) ;
#388 = CARTESIAN_POINT ( 'NONE',  ( -1.549999999999999822, 0.8499999999999999778, 0.000000000000000000 ) ) ;
#389 = DIRECTION ( 'NONE',  ( 1.494482151746832325E-16, -1.000000000000000000, 0.000000000000000000 ) ) ;
#390 = SURFACE_STYLE_FILL_AREA ( #98 ) ;
#391 =( NAMED_UNIT ( * ) SI_UNIT ( $, .STERADIAN. ) SOLID_ANGLE_UNIT ( ) );
#392 = CIRCLE ( 'NONE', #664, 0.3000000000000000444 ) ;
#393 = EDGE_CURVE ( 'NONE', #330, #255, #72, .T. ) ;
#394 = CIRCLE ( 'NONE', #737, 0.3000000000000000444 ) ;
#395 = DIRECTION ( 'NONE',  ( 0.000000000000000000, 0.000000000000000000, -1.000000000000000000 ) ) ;
#396 = DIRECTION ( 'NONE',  ( 0.000000000000000000, 0.000000000000000000, 1.000000000000000000 ) ) ;
#397 = AXIS2_PLACEMENT_3D ( 'NONE', #68, #189, #375 ) ;
#398 = TOROIDAL_SURFACE ( 'NONE', #415, 0.6999999999999999556, 0.1499999999999999944 ) ;
#399 = DIRECTION ( 'NONE',  ( -1.000000000000000000, -0.000000000000000000, -0.000000000000000000 ) ) ;
#400 = FACE_OUTER_BOUND ( 'NONE', #279, .T. ) ;
#401 = DIRECTION ( 'NONE',  ( -1.000000000000000000, -0.000000000000000000, -0.000000000000000000 ) ) ;
#402 = EDGE_CURVE ( 'NONE', #1020, #920, #733, .T. ) ;
#403 = DIRECTION ( 'NONE',  ( 0.000000000000000000, 0.000000000000000000, -1.000000000000000000 ) ) ;
#404 = SURFACE_SIDE_STYLE ('',( #390 ) ) ;
#405 = CARTESIAN_POINT ( 'NONE',  ( 2.800000000000000266, 0.8499999999999999778, -0.3000000000000000444 ) ) ;
#406 = EDGE_CURVE ( 'NONE', #271, #270, #392, .T. ) ;
#407 = CIRCLE ( 'NONE', #169, 0.6999999999999999556 ) ;
#408 = AXIS2_PLACEMENT_3D ( 'NONE', #12, #807, #482 ) ;
#409 = DIRECTION ( 'NONE',  ( -1.000000000000000000, -0.000000000000000000, -0.000000000000000000 ) ) ;
#410 = LINE ( 'NONE', #630, #76 ) ;
#411 = CARTESIAN_POINT ( 'NONE',  ( -2.800000000000000266, 1.149999999999999467, 0.000000000000000000 ) ) ;
#412 = CARTESIAN_POINT ( 'NONE',  ( 4.000000000000000000, -0.3500000000000000333, 0.000000000000000000 ) ) ;
#413 = CIRCLE ( 'NONE', #458, 0.1499999999999999667 ) ;
#414 = CARTESIAN_POINT ( 'NONE',  ( -4.000000000000003553, -23.56504440784612342, 0.000000000000000000 ) ) ;
#415 = AXIS2_PLACEMENT_3D ( 'NONE', #300, #809, #474 ) ;
#416 = CARTESIAN_POINT ( 'NONE',  ( -4.000000000000000000, -0.3499999999999998113, 0.000000000000000000 ) ) ;
#417 = CIRCLE ( 'NONE', #910, 0.7500000000000000000 ) ;
#418 = CIRCLE ( 'NONE', #811, 0.8499999999999999778 ) ;
#419 = EDGE_CURVE ( 'NONE', #962, #722, #387, .T. ) ;
#420 = CIRCLE ( 'NONE', #643, 0.3000000000000000444 ) ;
#421 = AXIS2_PLACEMENT_3D ( 'NONE', #723, #164, #781 ) ;
#422 = CIRCLE ( 'NONE', #896, 0.3000000000000000444 ) ;
#423 = CARTESIAN_POINT ( 'NONE',  ( -1.549999999999999822, 0.8499999999999999778, 0.7500000000000000000 ) ) ;
#424 = CYLINDRICAL_SURFACE ( 'NONE', #339, 0.3000000000000000444 ) ;
#425 = CARTESIAN_POINT ( 'NONE',  ( 2.800000000000000266, -0.3499999999999999223, 0.000000000000000000 ) ) ;
#426 = ADVANCED_FACE ( 'NONE', ( #64 ), #51, .T. ) ;
#427 = FACE_OUTER_BOUND ( 'NONE', #331, .T. ) ;
#428 = TOROIDAL_SURFACE ( 'NONE', #877, 0.6999999999999999556, 0.1499999999999999944 ) ;
#429 = AXIS2_PLACEMENT_3D ( 'NONE', #376, #152, #753 ) ;
#430 = VECTOR ( 'NONE', #849, 1000.000000000000000 ) ;
#431 = CARTESIAN_POINT ( 'NONE',  ( -1.899999999999999689, 0.8499999999999999778, 0.3000000000000000444 ) ) ;
#432 = CIRCLE ( 'NONE', #897, 0.3000000000000000444 ) ;
#433 = AXIS2_PLACEMENT_3D ( 'NONE', #970, #127, #145 ) ;
#434 = DIRECTION ( 'NONE',  ( 0.000000000000000000, 0.000000000000000000, -1.000000000000000000 ) ) ;
#435 = FACE_OUTER_BOUND ( 'NONE', #944, .T. ) ;
#436 = TOROIDAL_SURFACE ( 'NONE', #429, 1.199999999999999067, 0.3000000000000000444 ) ;
#437 = FACE_BOUND ( 'NONE', #569, .T. ) ;
#438 = VECTOR ( 'NONE', #389, 1000.000000000000000 ) ;
#439 = DIRECTION ( 'NONE',  ( 0.000000000000000000, 0.000000000000000000, -1.000000000000000000 ) ) ;
#440 = LINE ( 'NONE', #82, #758 ) ;
#441 = FACE_OUTER_BOUND ( 'NONE', #656, .T. ) ;
#442 = CARTESIAN_POINT ( 'NONE',  ( 1.749999999999999778, 0.8499999999999999778, 0.000000000000000000 ) ) ;
#443 = CIRCLE ( 'NONE', #710, 0.3000000000000000444 ) ;
#444 = FILL_AREA_STYLE_COLOUR ( '', #491 ) ;
#445 = LINE ( 'NONE', #530, #780 ) ;
#446 = EDGE_CURVE ( 'NONE', #266, #318, #75, .T. ) ;
#447 = CIRCLE ( 'NONE', #369, 0.3000000000000000444 ) ;
#448 = FACE_OUTER_BOUND ( 'NONE', #1001, .T. ) ;
#449 = MANIFOLD_SOLID_BREP ( 'Cut-Revolve1', #997 ) ;
#450 = EDGE_CURVE ( 'NONE', #310, #986, #81, .T. ) ;
#451 = DIRECTION ( 'NONE',  ( 0.000000000000000000, 0.000000000000000000, 1.000000000000000000 ) ) ;
#452 = ADVANCED_FACE ( 'NONE', ( #53 ), #398, .T. ) ;
#453 = FACE_BOUND ( 'NONE', #659, .T. ) ;
#454 = DIRECTION ( 'NONE',  ( -1.000000000000000000, 0.000000000000000000, 0.000000000000000000 ) ) ;
#455 = LINE ( 'NONE', #264, #765 ) ;
#456 = DIRECTION ( 'NONE',  ( -1.000000000000000000, 0.000000000000000000, 0.000000000000000000 ) ) ;
#457 = LINE ( 'NONE', #573, #430 ) ;
#458 = AXIS2_PLACEMENT_3D ( 'NONE', #492, #547, #959 ) ;
#459 = DIRECTION ( 'NONE',  ( -1.000000000000000000, -0.000000000000000000, -0.000000000000000000 ) ) ;
#460 = ADVANCED_FACE ( 'NONE', ( #744 ), #381, .T. ) ;
#461 = EDGE_CURVE ( 'NONE', #932, #234, #62, .T. ) ;
#462 = AXIS2_PLACEMENT_3D ( 'NONE', #908, #559, #585 ) ;
#463 = DIRECTION ( 'NONE',  ( 0.000000000000000000, 0.000000000000000000, -1.000000000000000000 ) ) ;
#464 = DIRECTION ( 'NONE',  ( -1.000000000000000000, 0.000000000000000000, 0.000000000000000000 ) ) ;
#465 =( NAMED_UNIT ( * ) SI_UNIT ( $, .STERADIAN. ) SOLID_ANGLE_UNIT ( ) );
#466 = TOROIDAL_SURFACE ( 'NONE', #881, 1.199999999999999067, 0.3000000000000000444 ) ;
#467 = CARTESIAN_POINT ( 'NONE',  ( 1.899999999999999689, 0.8500000000000000888, 0.6999999999999999556 ) ) ;
#468 = DIRECTION ( 'NONE',  ( 0.000000000000000000, 0.000000000000000000, -1.000000000000000000 ) ) ;
#469 = EDGE_CURVE ( 'NONE', #938, #982, #407, .T. ) ;
#470 = CIRCLE ( 'NONE', #462, 0.8499999999999999778 ) ;
#471 = DIRECTION ( 'NONE',  ( -1.000000000000000000, -0.000000000000000000, -0.000000000000000000 ) ) ;
#472 = PLANE ( 'NONE',  #751 ) ;
#473 = CARTESIAN_POINT ( 'NONE',  ( -3.700000000000003730, -23.56504440784612342, -3.673940397442061347E-17 ) ) ;
#474 = DIRECTION ( 'NONE',  ( 0.000000000000000000, 0.000000000000000000, 1.000000000000000000 ) ) ;
#475 = CIRCLE ( 'NONE', #173, 0.3000000000000000444 ) ;
#476 = DIRECTION ( 'NONE',  ( -1.000000000000000000, 0.000000000000000000, 0.000000000000000000 ) ) ;
#477 = DIRECTION ( 'NONE',  ( -1.494482151746832325E-16, -1.000000000000000000, 0.000000000000000000 ) ) ;
#478 = AXIS2_PLACEMENT_3D ( 'NONE', #839, #892, #196 ) ;
#479 = CARTESIAN_POINT ( 'NONE',  ( -1.899999999999999689, 0.8500000000000000888, -0.8499999999999999778 ) ) ;
#480 = EDGE_CURVE ( 'NONE', #246, #951, #65, .T. ) ;
#481 = CARTESIAN_POINT ( 'NONE',  ( -1.899999999999999689, 0.8499999999999999778, 0.000000000000000000 ) ) ;
#482 = DIRECTION ( 'NONE',  ( 0.000000000000000000, 0.000000000000000000, -1.000000000000000000 ) ) ;
#483 = DIRECTION ( 'NONE',  ( 1.000000000000000000, 0.000000000000000000, 0.000000000000000000 ) ) ;
#484 = CIRCLE ( 'NONE', #34, 0.8999999999999989120 ) ;
#485 = DIRECTION ( 'NONE',  ( 1.000000000000000000, 0.000000000000000000, 0.000000000000000000 ) ) ;
#486 = AXIS2_PLACEMENT_3D ( 'NONE', #957, #485, #731 ) ;
#487 = CARTESIAN_POINT ( 'NONE',  ( -0.8499999999999996447, 0.8499999999999999778, 0.000000000000000000 ) ) ;
#488 = SURFACE_STYLE_USAGE ( .BOTH. , #404 ) ;
#489 = EDGE_CURVE ( 'NONE', #247, #998, #394, .T. ) ;
#490 = DIRECTION ( 'NONE',  ( 0.000000000000000000, 0.000000000000000000, -1.000000000000000000 ) ) ;
#491 = COLOUR_RGB ( '',0.7921568627450980005, 0.8196078431372548767, 0.9333333333333333481 ) ;
#492 = CARTESIAN_POINT ( 'NONE',  ( -1.749999999999999778, 0.8500000000000000888, -0.6999999999999999556 ) ) ;
#493 = PRESENTATION_STYLE_ASSIGNMENT (( #44 ) ) ;
#494 = CARTESIAN_POINT ( 'NONE',  ( -1.899999999999999689, 0.8500000000000000888, -0.6999999999999999556 ) ) ;
#495 = AXIS2_PLACEMENT_3D ( 'NONE', #798, #880, #396 ) ;
#496 = DIRECTION ( 'NONE',  ( 0.000000000000000000, 0.000000000000000000, -1.000000000000000000 ) ) ;
#497 = EDGE_CURVE ( 'NONE', #575, #613, #736, .T. ) ;
#498 = ADVANCED_FACE ( 'NONE', ( #400 ), #749, .T. ) ;
#499 =( GEOMETRIC_REPRESENTATION_CONTEXT ( 3 ) GLOBAL_UNCERTAINTY_ASSIGNED_CONTEXT ( ( #256 ) ) GLOBAL_UNIT_ASSIGNED_CONTEXT ( ( #858, #548, #819 ) ) REPRESENTATION_CONTEXT ( 'NONE', 'WORKASPACE' ) );
#500 = CARTESIAN_POINT ( 'NONE',  ( -1.549999999999999822, 0.8500000000000000888, -0.8499999999999999778 ) ) ;
#501 = DIRECTION ( 'NONE',  ( 0.000000000000000000, 0.000000000000000000, 1.000000000000000000 ) ) ;
#502 = CARTESIAN_POINT ( 'NONE',  ( 1.899999999999999689, 0.8499999999999999778, 0.000000000000000000 ) ) ;
#503 = CARTESIAN_POINT ( 'NONE',  ( -0.8499999999999996447, 0.8499999999999999778, 0.000000000000000000 ) ) ;
#504 = EDGE_CURVE ( 'NONE', #962, #961, #410, .T. ) ;
#505 = DIRECTION ( 'NONE',  ( -1.000000000000000000, -0.000000000000000000, -0.000000000000000000 ) ) ;
#506 = SURFACE_STYLE_FILL_AREA ( #797 ) ;
#507 = CARTESIAN_POINT ( 'NONE',  ( -0.8499999999999996447, 0.8500000000000000888, -0.7499999999999997780 ) ) ;
#508 = AXIS2_PLACEMENT_3D ( 'NONE', #225, #203, #714 ) ;
#509 = CARTESIAN_POINT ( 'NONE',  ( 1.899999999999999689, 0.8499999999999999778, 0.000000000000000000 ) ) ;
#510 = EDGE_CURVE ( 'NONE', #1025, #246, #413, .T. ) ;
#511 = ADVANCED_FACE ( 'NONE', ( #752 ), #754, .T. ) ;
#512 = DIRECTION ( 'NONE',  ( 0.000000000000000000, 0.000000000000000000, -1.000000000000000000 ) ) ;
#513 = AXIS2_PLACEMENT_3D ( 'NONE', #579, #183, #456 ) ;
#514 = CARTESIAN_POINT ( 'NONE',  ( -2.800000000000000266, -0.3499999999999999223, 0.000000000000000000 ) ) ;
#515 =( LENGTH_UNIT ( ) NAMED_UNIT ( * ) SI_UNIT ( .MILLI., .METRE. ) );
#516 = DIRECTION ( 'NONE',  ( 1.000000000000000000, 0.000000000000000000, 0.000000000000000000 ) ) ;
#517 = ADVANCED_FACE ( 'NONE', ( #83 ), #787, .T. ) ;
#518 = AXIS2_PLACEMENT_3D ( 'NONE', #514, #1006, #584 ) ;
#519 = DIRECTION ( 'NONE',  ( 0.000000000000000000, 0.000000000000000000, 1.000000000000000000 ) ) ;
#520 = EDGE_CURVE ( 'NONE', #326, #613, #445, .T. ) ;
#521 = DIRECTION ( 'NONE',  ( 1.000000000000000000, 0.000000000000000000, 0.000000000000000000 ) ) ;
#522 = DIRECTION ( 'NONE',  ( 1.000000000000000000, 0.000000000000000000, 0.000000000000000000 ) ) ;
#523 = CARTESIAN_POINT ( 'NONE',  ( 1.899999999999999689, 0.000000000000000000, 0.000000000000000000 ) ) ;
#524 = DIRECTION ( 'NONE',  ( -1.000000000000000000, -0.000000000000000000, -0.000000000000000000 ) ) ;
#525 = DIRECTION ( 'NONE',  ( -1.494482151746832325E-16, -1.000000000000000000, 0.000000000000000000 ) ) ;
#526 = MECHANICAL_DESIGN_GEOMETRIC_PRESENTATION_REPRESENTATION (  '', ( #378 ), #836 ) ;
#527 = CARTESIAN_POINT ( 'NONE',  ( 2.800000000000000266, 0.8499999999999999778, 0.000000000000000000 ) ) ;
#528 = DIRECTION ( 'NONE',  ( -1.000000000000000000, 0.000000000000000000, 0.000000000000000000 ) ) ;
#529 = AXIS2_PLACEMENT_3D ( 'NONE', #223, #638, #16 ) ;
#530 = CARTESIAN_POINT ( 'NONE',  ( -1.899999999999999689, 0.8500000000000000888, -0.8499999999999998668 ) ) ;
#531 = AXIS2_PLACEMENT_3D ( 'NONE', #883, #501, #829 ) ;
#532 = DIRECTION ( 'NONE',  ( 0.000000000000000000, 0.000000000000000000, 1.000000000000000000 ) ) ;
#533 =( LENGTH_UNIT ( ) NAMED_UNIT ( * ) SI_UNIT ( .MILLI., .METRE. ) );
#534 = CARTESIAN_POINT ( 'NONE',  ( -2.800000000000000266, 0.8499999999999999778, 0.000000000000000000 ) ) ;
#535 = DIRECTION ( 'NONE',  ( -1.000000000000000000, -0.000000000000000000, -0.000000000000000000 ) ) ;
#536 = AXIS2_PLACEMENT_3D ( 'NONE', #188, #459, #519 ) ;
#537 = CARTESIAN_POINT ( 'NONE',  ( 3.700000000000000178, -0.3500000000000000333, 3.673940397442082918E-17 ) ) ;
#538 = PRESENTATION_LAYER_ASSIGNMENT (  '', '', ( #210 ) ) ;
#539 = SURFACE_SIDE_STYLE ('',( #128 ) ) ;
#540 = DIRECTION ( 'NONE',  ( 0.000000000000000000, 0.000000000000000000, -1.000000000000000000 ) ) ;
#541 = CARTESIAN_POINT ( 'NONE',  ( -0.8499999999999996447, 1.285879139104721225E-16, 0.000000000000000000 ) ) ;
#542 = DIRECTION ( 'NONE',  ( 0.000000000000000000, 0.000000000000000000, 1.000000000000000000 ) ) ;
#543 = AXIS2_PLACEMENT_3D ( 'NONE', #502, #295, #434 ) ;
#544 = EDGE_CURVE ( 'NONE', #722, #982, #88, .T. ) ;
#545 = ADVANCED_FACE ( 'NONE', ( #427 ), #99, .T. ) ;
#546 = AXIS2_PLACEMENT_3D ( 'NONE', #768, #844, #142 ) ;
#547 = DIRECTION ( 'NONE',  ( -0.000000000000000000, 1.000000000000000000, 1.224646799147353207E-16 ) ) ;
#548 =( NAMED_UNIT ( * ) PLANE_ANGLE_UNIT ( ) SI_UNIT ( $, .RADIAN. ) );
#549 = AXIS2_PLACEMENT_3D ( 'NONE', #993, #201, #138 ) ;
#550 = DIRECTION ( 'NONE',  ( -1.000000000000000000, -0.000000000000000000, -0.000000000000000000 ) ) ;
#551 = EDGE_CURVE ( 'NONE', #321, #259, #417, .T. ) ;
#552 = MECHANICAL_DESIGN_GEOMETRIC_PRESENTATION_REPRESENTATION (  '', ( #830 ), #499 ) ;
#553 = CARTESIAN_POINT ( 'NONE',  ( -1.899999999999999689, 0.8499999999999999778, 0.000000000000000000 ) ) ;
#554 = DIRECTION ( 'NONE',  ( 0.000000000000000000, 0.000000000000000000, 1.000000000000000000 ) ) ;
#555 = CARTESIAN_POINT ( 'NONE',  ( -4.000000000000000000, -0.3500000000000000333, 0.000000000000000000 ) ) ;
#556 = CARTESIAN_POINT ( 'NONE',  ( 2.800000000000000266, 0.8499999999999999778, 0.000000000000000000 ) ) ;
#557 = EDGE_CURVE ( 'NONE', #275, #271, #769, .T. ) ;
#558 = STYLED_ITEM ( 'NONE', ( #143 ), #950 ) ;
#559 = DIRECTION ( 'NONE',  ( -1.000000000000000000, -0.000000000000000000, -0.000000000000000000 ) ) ;
#560 = DIRECTION ( 'NONE',  ( 0.000000000000000000, 0.000000000000000000, -1.000000000000000000 ) ) ;
#561 = ORIENTED_EDGE ( 'NONE', *, *, #818, .T. ) ;
#562 = ADVANCED_FACE ( 'NONE', ( #448 ), #105, .T. ) ;
#563 = DIRECTION ( 'NONE',  ( 0.000000000000000000, 0.000000000000000000, 1.000000000000000000 ) ) ;
#564 =( LENGTH_UNIT ( ) NAMED_UNIT ( * ) SI_UNIT ( .MILLI., .METRE. ) );
#565 = ORIENTED_EDGE ( 'NONE', *, *, #762, .T. ) ;
#566 = EDGE_CURVE ( 'NONE', #270, #271, #420, .T. ) ;
#567 = ORIENTED_EDGE ( 'NONE', *, *, #29, .F. ) ;
#568 = DIRECTION ( 'NONE',  ( 0.000000000000000000, 0.000000000000000000, -1.000000000000000000 ) ) ;
#569 = EDGE_LOOP ( 'NONE', ( #921, #302 ) ) ;
#570 = ORIENTED_EDGE ( 'NONE', *, *, #163, .F. ) ;
#571 = CLOSED_SHELL ( 'NONE', ( #426, #358, #309, #379, #955, #825 ) ) ;
#572 = ORIENTED_EDGE ( 'NONE', *, *, #461, .T. ) ;
#573 = CARTESIAN_POINT ( 'NONE',  ( -1.899999999999999689, 0.8499999999999999778, 0.7499999999999998890 ) ) ;
#574 = DIRECTION ( 'NONE',  ( -1.000000000000000000, -0.000000000000000000, -0.000000000000000000 ) ) ;
#575 = VERTEX_POINT ( 'NONE', #180 ) ;
#576 = ORIENTED_EDGE ( 'NONE', *, *, #510, .F. ) ;
#577 = CARTESIAN_POINT ( 'NONE',  ( 1.899999999999999689, 0.8499999999999999778, 0.3000000000000000444 ) ) ;
#578 = ORIENTED_EDGE ( 'NONE', *, *, #879, .T. ) ;
#579 = CARTESIAN_POINT ( 'NONE',  ( -2.800000000000000266, -0.3499999999999999223, 0.000000000000000000 ) ) ;
#580 = EDGE_LOOP ( 'NONE', ( #607, #992 ) ) ;
#581 = ORIENTED_EDGE ( 'NONE', *, *, #254, .F. ) ;
#582 = ORIENTED_EDGE ( 'NONE', *, *, #94, .F. ) ;
#583 = AXIS2_PLACEMENT_3D ( 'NONE', #268, #689, #778 ) ;
#584 = DIRECTION ( 'NONE',  ( 1.000000000000000000, 0.000000000000000000, 0.000000000000000000 ) ) ;
#585 = DIRECTION ( 'NONE',  ( 0.000000000000000000, 0.000000000000000000, 1.000000000000000000 ) ) ;
#586 = ORIENTED_EDGE ( 'NONE', *, *, #157, .F. ) ;
#587 = CARTESIAN_POINT ( 'NONE',  ( -1.899999999999999689, 0.8499999999999999778, 0.000000000000000000 ) ) ;
#588 = EDGE_CURVE ( 'NONE', #271, #247, #107, .T. ) ;
#589 = ORIENTED_EDGE ( 'NONE', *, *, #738, .F. ) ;
#590 = VERTEX_POINT ( 'NONE', #36 ) ;
#591 = ORIENTED_EDGE ( 'NONE', *, *, #129, .F. ) ;
#592 = CARTESIAN_POINT ( 'NONE',  ( -1.899999999999999689, 0.8499999999999999778, 0.000000000000000000 ) ) ;
#593 = ORIENTED_EDGE ( 'NONE', *, *, #170, .T. ) ;
#594 = AXIS2_PLACEMENT_3D ( 'NONE', #442, #242, #560 ) ;
#595 = EDGE_LOOP ( 'NONE', ( #253, #593, #989, #578, #676 ) ) ;
#596 = EDGE_LOOP ( 'NONE', ( #305, #963, #277, #977 ) ) ;
#597 = DIRECTION ( 'NONE',  ( 1.000000000000000000, 1.807003620809174385E-16, 0.000000000000000000 ) ) ;
#598 = ORIENTED_EDGE ( 'NONE', *, *, #912, .T. ) ;
#599 = DIRECTION ( 'NONE',  ( 0.000000000000000000, -1.000000000000000000, 0.000000000000000000 ) ) ;
#600 = VERTEX_POINT ( 'NONE', #473 ) ;
#601 = ORIENTED_EDGE ( 'NONE', *, *, #29, .T. ) ;
#602 = EDGE_LOOP ( 'NONE', ( #261, #1019 ) ) ;
#603 = DIRECTION ( 'NONE',  ( -0.000000000000000000, 1.000000000000000000, -0.000000000000000000 ) ) ;
#604 = VERTEX_POINT ( 'NONE', #112 ) ;
#605 = ADVANCED_FACE ( 'NONE', ( #799 ), #424, .T. ) ;
#606 = AXIS2_PLACEMENT_3D ( 'NONE', #555, #603, #327 ) ;
#607 = ORIENTED_EDGE ( 'NONE', *, *, #297, .T. ) ;
#608 = ORIENTED_EDGE ( 'NONE', *, *, #504, .T. ) ;
#609 = DIRECTION ( 'NONE',  ( -1.000000000000000000, -0.000000000000000000, -0.000000000000000000 ) ) ;
#610 = EDGE_CURVE ( 'NONE', #962, #938, #766, .T. ) ;
#611 = VERTEX_POINT ( 'NONE', #760 ) ;
#612 = ORIENTED_EDGE ( 'NONE', *, *, #137, .F. ) ;
#613 = VERTEX_POINT ( 'NONE', #276 ) ;
#614 = DIRECTION ( 'NONE',  ( 0.000000000000000000, 0.000000000000000000, -1.000000000000000000 ) ) ;
#615 = CARTESIAN_POINT ( 'NONE',  ( 1.749999999999999778, 0.8499999999999999778, 0.000000000000000000 ) ) ;
#616 = EDGE_LOOP ( 'NONE', ( #641, #227 ) ) ;
#617 = ORIENTED_EDGE ( 'NONE', *, *, #738, .T. ) ;
#618 = EDGE_LOOP ( 'NONE', ( #243, #317, #941, #233 ) ) ;
#619 = DIRECTION ( 'NONE',  ( 0.000000000000000000, 0.000000000000000000, -1.000000000000000000 ) ) ;
#620 = ORIENTED_EDGE ( 'NONE', *, *, #116, .T. ) ;
#621 = ORIENTED_EDGE ( 'NONE', *, *, #406, .T. ) ;
#622 = ORIENTED_EDGE ( 'NONE', *, *, #222, .F. ) ;
#623 = SURFACE_STYLE_USAGE ( .BOTH. , #539 ) ;
#624 = ORIENTED_EDGE ( 'NONE', *, *, #367, .T. ) ;
#625 = ORIENTED_EDGE ( 'NONE', *, *, #193, .F. ) ;
#626 = AXIS2_PLACEMENT_3D ( 'NONE', #66, #609, #563 ) ;
#627 = ORIENTED_EDGE ( 'NONE', *, *, #566, .F. ) ;
#628 = EDGE_LOOP ( 'NONE', ( #678, #633, #972, #567 ) ) ;
#629 = ORIENTED_EDGE ( 'NONE', *, *, #489, .T. ) ;
#630 = CARTESIAN_POINT ( 'NONE',  ( -1.899999999999999689, 0.8499999999999999778, 0.8499999999999999778 ) ) ;
#631 = EDGE_LOOP ( 'NONE', ( #561, #647, #974, #622 ) ) ;
#632 = ORIENTED_EDGE ( 'NONE', *, *, #446, .T. ) ;
#633 = ORIENTED_EDGE ( 'NONE', *, *, #566, .T. ) ;
#634 = ORIENTED_EDGE ( 'NONE', *, *, #497, .F. ) ;
#635 = VERTEX_POINT ( 'NONE', #507 ) ;
#636 = ORIENTED_EDGE ( 'NONE', *, *, #129, .T. ) ;
#637 = EDGE_LOOP ( 'NONE', ( #621, #976, #653, #230 ) ) ;
#638 = DIRECTION ( 'NONE',  ( 1.000000000000000000, 0.000000000000000000, 0.000000000000000000 ) ) ;
#639 = ORIENTED_EDGE ( 'NONE', *, *, #610, .T. ) ;
#640 = DIRECTION ( 'NONE',  ( -1.000000000000000000, 0.000000000000000000, 0.000000000000000000 ) ) ;
#641 = ORIENTED_EDGE ( 'NONE', *, *, #683, .T. ) ;
#642 = UNCERTAINTY_MEASURE_WITH_UNIT (LENGTH_MEASURE( 1.000000000000000082E-05 ), #814, 'distance_accuracy_value', 'NONE');
#643 = AXIS2_PLACEMENT_3D ( 'NONE', #949, #599, #654 ) ;
#644 = ORIENTED_EDGE ( 'NONE', *, *, #402, .F. ) ;
#645 = ADVANCED_FACE ( 'NONE', ( #761 ), #428, .T. ) ;
#646 = EDGE_CURVE ( 'NONE', #1015, #275, #775, .T. ) ;
#647 = ORIENTED_EDGE ( 'NONE', *, *, #715, .T. ) ;
#648 = EDGE_LOOP ( 'NONE', ( #235, #947, #627, #5, #3 ) ) ;
#649 = ORIENTED_EDGE ( 'NONE', *, *, #728, .F. ) ;
#650 = ORIENTED_EDGE ( 'NONE', *, *, #461, .F. ) ;
#651 = CARTESIAN_POINT ( 'NONE',  ( -0.8499999999999996447, 0.8500000000000000888, -0.8499999999999998668 ) ) ;
#652 = AXIS2_PLACEMENT_3D ( 'NONE', #269, #79, #151 ) ;
#653 = ORIENTED_EDGE ( 'NONE', *, *, #489, .F. ) ;
#654 = DIRECTION ( 'NONE',  ( 0.000000000000000000, 0.000000000000000000, -1.000000000000000000 ) ) ;
#655 = ORIENTED_EDGE ( 'NONE', *, *, #278, .F. ) ;
#656 = EDGE_LOOP ( 'NONE', ( #629, #601 ) ) ;
#657 = VERTEX_POINT ( 'NONE', #902 ) ;
#658 = EDGE_LOOP ( 'NONE', ( #1005, #984 ) ) ;
#659 = EDGE_LOOP ( 'NONE', ( #332, #565 ) ) ;
#660 = EDGE_LOOP ( 'NONE', ( #333, #288, #620, #1022, #296 ) ) ;
#661 = CARTESIAN_POINT ( 'NONE',  ( -1.549999999999999822, 0.8499999999999999778, 0.7500000000000000000 ) ) ;
#662 = PRODUCT_DEFINITION_SHAPE ( 'NONE', 'NONE',  #1011 ) ;
#663 = EDGE_LOOP ( 'NONE', ( #289, #572, #337, #1016 ) ) ;
#664 = AXIS2_PLACEMENT_3D ( 'NONE', #412, #89, #11 ) ;
#665 = DIRECTION ( 'NONE',  ( 0.000000000000000000, 0.000000000000000000, -1.000000000000000000 ) ) ;
#666 = ADVANCED_FACE ( 'NONE', ( #441 ), #848, .T. ) ;
#667 = ORIENTED_EDGE ( 'NONE', *, *, #217, .F. ) ;
#668 = ORIENTED_EDGE ( 'NONE', *, *, #818, .F. ) ;
#669 = EDGE_CURVE ( 'NONE', #284, #298, #443, .T. ) ;
#670 = ORIENTED_EDGE ( 'NONE', *, *, #987, .T. ) ;
#671 = ORIENTED_EDGE ( 'NONE', *, *, #748, .F. ) ;
#672 = SURFACE_SIDE_STYLE ('',( #816 ) ) ;
#673 = VERTEX_POINT ( 'NONE', #1013 ) ;
#674 = ORIENTED_EDGE ( 'NONE', *, *, #342, .F. ) ;
#675 = ORIENTED_EDGE ( 'NONE', *, *, #354, .T. ) ;
#676 = ORIENTED_EDGE ( 'NONE', *, *, #406, .F. ) ;
#677 = DIRECTION ( 'NONE',  ( 1.494482151746832325E-16, -1.000000000000000000, 0.000000000000000000 ) ) ;
#678 = ORIENTED_EDGE ( 'NONE', *, *, #948, .F. ) ;
#679 = ORIENTED_EDGE ( 'NONE', *, *, #686, .F. ) ;
#680 = DIRECTION ( 'NONE',  ( 1.000000000000000000, 0.000000000000000000, 0.000000000000000000 ) ) ;
#681 = FACE_BOUND ( 'NONE', #716, .T. ) ;
#682 = ADVANCED_FACE ( 'NONE', ( #763 ), #436, .T. ) ;
#683 = EDGE_CURVE ( 'NONE', #951, #246, #90, .T. ) ;
#684 = DIRECTION ( 'NONE',  ( 0.000000000000000000, 0.000000000000000000, 1.000000000000000000 ) ) ;
#685 = CIRCLE ( 'NONE', #903, 0.8999999999999989120 ) ;
#686 = EDGE_CURVE ( 'NONE', #318, #266, #756, .T. ) ;
#687 = PRESENTATION_LAYER_ASSIGNMENT (  '', '', ( #96 ) ) ;
#688 = FACE_OUTER_BOUND ( 'NONE', #637, .T. ) ;
#689 = DIRECTION ( 'NONE',  ( -1.000000000000000000, -0.000000000000000000, -0.000000000000000000 ) ) ;
#690 = SURFACE_STYLE_USAGE ( .BOTH. , #258 ) ;
#691 = FACE_OUTER_BOUND ( 'NONE', #1000, .T. ) ;
#692 = FACE_OUTER_BOUND ( 'NONE', #313, .T. ) ;
#693 = ADVANCED_FACE ( 'NONE', ( #91 ), #102, .T. ) ;
#694 = DIRECTION ( 'NONE',  ( -1.000000000000000000, -0.000000000000000000, -0.000000000000000000 ) ) ;
#695 = VECTOR ( 'NONE', #471, 1000.000000000000000 ) ;
#696 = FACE_OUTER_BOUND ( 'NONE', #260, .T. ) ;
#697 = CARTESIAN_POINT ( 'NONE',  ( -1.749999999999999778, 0.8499999999999999778, 0.000000000000000000 ) ) ;
#698 = AXIS2_PLACEMENT_3D ( 'NONE', #104, #166, #862 ) ;
#699 = CARTESIAN_POINT ( 'NONE',  ( -0.8499999999999996447, 0.8500000000000000888, -0.7499999999999997780 ) ) ;
#700 = LINE ( 'NONE', #721, #345 ) ;
#701 = CARTESIAN_POINT ( 'NONE',  ( 1.749999999999999778, 0.8499999999999999778, 0.000000000000000000 ) ) ;
#702 = VECTOR ( 'NONE', #409, 1000.000000000000000 ) ;
#703 = MECHANICAL_DESIGN_GEOMETRIC_PRESENTATION_REPRESENTATION (  '', ( #558 ), #240 ) ;
#704 = LINE ( 'NONE', #307, #8 ) ;
#705 = DIRECTION ( 'NONE',  ( 0.000000000000000000, 0.000000000000000000, -1.000000000000000000 ) ) ;
#706 = DIRECTION ( 'NONE',  ( 0.000000000000000000, 0.000000000000000000, 1.000000000000000000 ) ) ;
#707 = LINE ( 'NONE', #796, #50 ) ;
#708 = CYLINDRICAL_SURFACE ( 'NONE', #893, 0.2999999999999999334 ) ;
#709 =( LENGTH_UNIT ( ) NAMED_UNIT ( * ) SI_UNIT ( .MILLI., .METRE. ) );
#710 = AXIS2_PLACEMENT_3D ( 'NONE', #835, #136, #512 ) ;
#711 = CIRCLE ( 'NONE', #626, 0.7499999999999997780 ) ;
#712 = UNCERTAINTY_MEASURE_WITH_UNIT (LENGTH_MEASURE( 1.000000000000000082E-05 ), #515, 'distance_accuracy_value', 'NONE');
#713 = PRODUCT_CONTEXT ( 'NONE', #740, 'mechanical' ) ;
#714 = DIRECTION ( 'NONE',  ( 0.000000000000000000, 0.000000000000000000, -1.000000000000000000 ) ) ;
#715 = EDGE_CURVE ( 'NONE', #932, #259, #440, .T. ) ;
#716 = EDGE_LOOP ( 'NONE', ( #668, #650 ) ) ;
#717 = CARTESIAN_POINT ( 'NONE',  ( -1.899999999999999689, 0.8499999999999999778, 0.000000000000000000 ) ) ;
#718 = CARTESIAN_POINT ( 'NONE',  ( -1.899999999999999689, 0.8499999999999999778, 0.000000000000000000 ) ) ;
#719 = CIRCLE ( 'NONE', #583, 0.7499999999999997780 ) ;
#720 =( GEOMETRIC_REPRESENTATION_CONTEXT ( 3 ) GLOBAL_UNCERTAINTY_ASSIGNED_CONTEXT ( ( #191 ) ) GLOBAL_UNIT_ASSIGNED_CONTEXT ( ( #564, #901, #855 ) ) REPRESENTATION_CONTEXT ( 'NONE', 'WORKASPACE' ) );
#721 = CARTESIAN_POINT ( 'NONE',  ( -1.899999999999999689, 0.8499999999999999778, -0.3000000000000000444 ) ) ;
#722 = VERTEX_POINT ( 'NONE', #71 ) ;
#723 = CARTESIAN_POINT ( 'NONE',  ( 2.800000000000000266, -0.3499999999999999223, 0.000000000000000000 ) ) ;
#724 = CIRCLE ( 'NONE', #925, 0.8499999999999998668 ) ;
#725 = CARTESIAN_POINT ( 'NONE',  ( -1.899999999999999689, 0.8499999999999999778, 0.3000000000000000444 ) ) ;
#726 = AXIS2_PLACEMENT_3D ( 'NONE', #717, #161, #790 ) ;
#727 = DIRECTION ( 'NONE',  ( 0.000000000000000000, 0.000000000000000000, -1.000000000000000000 ) ) ;
#728 = EDGE_CURVE ( 'NONE', #330, #920, #86, .T. ) ;
#729 = FILL_AREA_STYLE_COLOUR ( '', #141 ) ;
#730 = VECTOR ( 'NONE', #525, 1000.000000000000000 ) ;
#731 = DIRECTION ( 'NONE',  ( 0.000000000000000000, 0.000000000000000000, -1.000000000000000000 ) ) ;
#732 = SURFACE_SIDE_STYLE ('',( #506 ) ) ;
#733 = CIRCLE ( 'NONE', #77, 0.3000000000000000444 ) ;
#734 = DIRECTION ( 'NONE',  ( 0.000000000000000000, 0.000000000000000000, 1.000000000000000000 ) ) ;
#735 = CYLINDRICAL_SURFACE ( 'NONE', #805, 0.7499999999999998890 ) ;
#736 = CIRCLE ( 'NONE', #495, 0.8499999999999999778 ) ;
#737 = AXIS2_PLACEMENT_3D ( 'NONE', #95, #831, #219 ) ;
#738 = EDGE_CURVE ( 'NONE', #722, #962, #767, .T. ) ;
#739 = DIRECTION ( 'NONE',  ( 1.000000000000000000, 0.000000000000000000, 0.000000000000000000 ) ) ;
#740 = APPLICATION_CONTEXT ( 'automotive_design' ) ;
#741 = COLOUR_RGB ( '',0.5882352941176470784, 0.2745098039215686514, 0.1568627450980392135 ) ;
#742 = DIRECTION ( 'NONE',  ( -1.000000000000000000, -0.000000000000000000, -0.000000000000000000 ) ) ;
#743 = LINE ( 'NONE', #479, #54 ) ;
#744 = FACE_OUTER_BOUND ( 'NONE', #267, .T. ) ;
#745 = CYLINDRICAL_SURFACE ( 'NONE', #726, 0.7499999999999998890 ) ;
#746 = DIRECTION ( 'NONE',  ( -1.000000000000000000, -0.000000000000000000, -0.000000000000000000 ) ) ;
#747 = DIRECTION ( 'NONE',  ( -1.000000000000000000, -0.000000000000000000, -0.000000000000000000 ) ) ;
#748 = EDGE_CURVE ( 'NONE', #604, #1020, #432, .T. ) ;
#749 = CYLINDRICAL_SURFACE ( 'NONE', #860, 0.2999999999999999334 ) ;
#750 = PLANE ( 'NONE',  #966 ) ;
#751 = AXIS2_PLACEMENT_3D ( 'NONE', #523, #842, #891 ) ;
#752 = FACE_OUTER_BOUND ( 'NONE', #631, .T. ) ;
#753 = DIRECTION ( 'NONE',  ( -1.000000000000000000, 0.000000000000000000, 0.000000000000000000 ) ) ;
#754 = CYLINDRICAL_SURFACE ( 'NONE', #983, 0.7499999999999998890 ) ;
#755 = SURFACE_STYLE_USAGE ( .BOTH. , #672 ) ;
#756 = CIRCLE ( 'NONE', #478, 0.7500000000000000000 ) ;
#757 = COLOUR_RGB ( '',0.2509803921568627416, 0.2509803921568627416, 0.2509803921568627416 ) ;
#758 = VECTOR ( 'NONE', #370, 1000.000000000000000 ) ;
#759 = AXIS2_PLACEMENT_3D ( 'NONE', #148, #186, #63 ) ;
#760 = CARTESIAN_POINT ( 'NONE',  ( -0.8499999999999996447, 0.8499999999999999778, 0.7499999999999997780 ) ) ;
#761 = FACE_OUTER_BOUND ( 'NONE', #311, .T. ) ;
#762 = EDGE_CURVE ( 'NONE', #259, #321, #773, .T. ) ;
#763 = FACE_OUTER_BOUND ( 'NONE', #648, .T. ) ;
#764 = DIRECTION ( 'NONE',  ( 1.000000000000000000, 0.000000000000000000, 0.000000000000000000 ) ) ;
#765 = VECTOR ( 'NONE', #764, 1000.000000000000000 ) ;
#766 = CIRCLE ( 'NONE', #759, 0.1499999999999999667 ) ;
#767 = CIRCLE ( 'NONE', #594, 0.8499999999999999778 ) ;
#768 = CARTESIAN_POINT ( 'NONE',  ( -1.899999999999999689, 0.8499999999999999778, 0.000000000000000000 ) ) ;
#769 = CIRCLE ( 'NONE', #843, 1.499999999999999112 ) ;
#770 = DIRECTION ( 'NONE',  ( 0.000000000000000000, -0.000000000000000000, -1.000000000000000000 ) ) ;
#771 =( NAMED_UNIT ( * ) PLANE_ANGLE_UNIT ( ) SI_UNIT ( $, .RADIAN. ) );
#772 = CIRCLE ( 'NONE', #383, 0.8499999999999999778 ) ;
#773 = CIRCLE ( 'NONE', #108, 0.7500000000000000000 ) ;
#774 = AXIS2_PLACEMENT_3D ( 'NONE', #348, #167, #355 ) ;
#775 = CIRCLE ( 'NONE', #250, 0.3000000000000000444 ) ;
#776 = AXIS2_PLACEMENT_3D ( 'NONE', #32, #739, #619 ) ;
#777 = CIRCLE ( 'NONE', #821, 0.8499999999999999778 ) ;
#778 = DIRECTION ( 'NONE',  ( 0.000000000000000000, 0.000000000000000000, 1.000000000000000000 ) ) ;
#779 = DIRECTION ( 'NONE',  ( 0.000000000000000000, 0.000000000000000000, 1.000000000000000000 ) ) ;
#780 = VECTOR ( 'NONE', #349, 1000.000000000000000 ) ;
#781 = DIRECTION ( 'NONE',  ( -1.000000000000000000, 0.000000000000000000, 0.000000000000000000 ) ) ;
#782 = TOROIDAL_SURFACE ( 'NONE', #224, 0.6999999999999999556, 0.1499999999999999944 ) ;
#783 = DIRECTION ( 'NONE',  ( 1.000000000000000000, 0.000000000000000000, 0.000000000000000000 ) ) ;
#784 = CARTESIAN_POINT ( 'NONE',  ( -1.899999999999999689, 0.8499999999999999778, 0.8499999999999999778 ) ) ;
#785 = DIRECTION ( 'NONE',  ( 1.000000000000000000, 0.000000000000000000, 0.000000000000000000 ) ) ;
#786 = CIRCLE ( 'NONE', #408, 0.3000000000000000444 ) ;
#787 = CYLINDRICAL_SURFACE ( 'NONE', #205, 0.2999999999999999334 ) ;
#788 = AXIS2_PLACEMENT_3D ( 'NONE', #909, #742, #968 ) ;
#789 = FACE_OUTER_BOUND ( 'NONE', #618, .T. ) ;
#790 = DIRECTION ( 'NONE',  ( 0.000000000000000000, 0.000000000000000000, 1.000000000000000000 ) ) ;
#791 = EDGE_CURVE ( 'NONE', #956, #1025, #777, .T. ) ;
#792 = CYLINDRICAL_SURFACE ( 'NONE', #546, 0.8499999999999998668 ) ;
#793 = AXIS2_PLACEMENT_3D ( 'NONE', #541, #483, #614 ) ;
#794 = FACE_OUTER_BOUND ( 'NONE', #580, .T. ) ;
#795 = PRESENTATION_STYLE_ASSIGNMENT (( #690 ) ) ;
#796 = CARTESIAN_POINT ( 'NONE',  ( -1.899999999999999689, 0.8500000000000000888, -0.7499999999999998890 ) ) ;
#797 = FILL_AREA_STYLE ('',( #444 ) ) ;
#798 = CARTESIAN_POINT ( 'NONE',  ( -1.549999999999999822, 0.8499999999999999778, 0.000000000000000000 ) ) ;
#799 = FACE_OUTER_BOUND ( 'NONE', #660, .T. ) ;
#800 = ADVANCED_FACE ( 'NONE', ( #109 ), #782, .T. ) ;
#801 = CARTESIAN_POINT ( 'NONE',  ( -4.299999999999999822, -0.3499999999999997558, 0.000000000000000000 ) ) ;
#802 = DIRECTION ( 'NONE',  ( -1.000000000000000000, 0.000000000000000000, 0.000000000000000000 ) ) ;
#803 = PRESENTATION_STYLE_ASSIGNMENT (( #755 ) ) ;
#804 = DIRECTION ( 'NONE',  ( 0.000000000000000000, 0.000000000000000000, 1.000000000000000000 ) ) ;
#805 = AXIS2_PLACEMENT_3D ( 'NONE', #20, #857, #870 ) ;
#806 = LINE ( 'NONE', #577, #812 ) ;
#807 = DIRECTION ( 'NONE',  ( 1.000000000000000000, 0.000000000000000000, 0.000000000000000000 ) ) ;
#808 = CARTESIAN_POINT ( 'NONE',  ( -1.899999999999999689, 0.8499999999999999778, -0.3000000000000000444 ) ) ;
#809 = DIRECTION ( 'NONE',  ( -1.000000000000000000, -0.000000000000000000, -0.000000000000000000 ) ) ;
#810 = DIRECTION ( 'NONE',  ( 0.000000000000000000, 0.000000000000000000, -1.000000000000000000 ) ) ;
#811 = AXIS2_PLACEMENT_3D ( 'NONE', #388, #140, #185 ) ;
#812 = VECTOR ( 'NONE', #521, 1000.000000000000000 ) ;
#813 = CARTESIAN_POINT ( 'NONE',  ( -1.549999999999999822, 0.8500000000000000888, -0.7500000000000001110 ) ) ;
#814 =( LENGTH_UNIT ( ) NAMED_UNIT ( * ) SI_UNIT ( .MILLI., .METRE. ) );
#815 = FACE_OUTER_BOUND ( 'NONE', #595, .T. ) ;
#816 = SURFACE_STYLE_FILL_AREA ( #1008 ) ;
#817 = AXIS2_PLACEMENT_3D ( 'NONE', #41, #218, #727 ) ;
#818 = EDGE_CURVE ( 'NONE', #234, #932, #110, .T. ) ;
#819 =( NAMED_UNIT ( * ) SI_UNIT ( $, .STERADIAN. ) SOLID_ANGLE_UNIT ( ) );
#820 = DIRECTION ( 'NONE',  ( 0.000000000000000000, 0.000000000000000000, -1.000000000000000000 ) ) ;
#821 = AXIS2_PLACEMENT_3D ( 'NONE', #1023, #361, #451 ) ;
#822 = TOROIDAL_SURFACE ( 'NONE', #421, 1.199999999999999067, 0.3000000000000000444 ) ;
#823 = CARTESIAN_POINT ( 'NONE',  ( -0.8499999999999996447, 0.8499999999999999778, 0.7499999999999997780 ) ) ;
#824 = CARTESIAN_POINT ( 'NONE',  ( 1.899999999999999689, 0.8499999999999999778, 0.000000000000000000 ) ) ;
#825 = ADVANCED_FACE ( 'NONE', ( #789 ), #792, .T. ) ;
#826 = LINE ( 'NONE', #208, #122 ) ;
#827 = EDGE_CURVE ( 'NONE', #1029, #1015, #455, .T. ) ;
#828 = DIRECTION ( 'NONE',  ( 0.000000000000000000, 0.000000000000000000, 1.000000000000000000 ) ) ;
#829 = DIRECTION ( 'NONE',  ( 1.000000000000000000, 0.000000000000000000, 0.000000000000000000 ) ) ;
#830 = STYLED_ITEM ( 'NONE', ( #493 ), #211 ) ;
#831 = DIRECTION ( 'NONE',  ( 1.494482151746832325E-16, -1.000000000000000000, 0.000000000000000000 ) ) ;
#832 = COLOUR_RGB ( '',0.7921568627450980005, 0.8196078431372548767, 0.9333333333333333481 ) ;
#833 = CIRCLE ( 'NONE', #2, 0.8499999999999998668 ) ;
#834 = ADVANCED_FACE ( 'NONE', ( #794 ), #1030, .F. ) ;
#835 = CARTESIAN_POINT ( 'NONE',  ( 2.800000000000000266, 0.8499999999999999778, 0.000000000000000000 ) ) ;
#836 =( GEOMETRIC_REPRESENTATION_CONTEXT ( 3 ) GLOBAL_UNCERTAINTY_ASSIGNED_CONTEXT ( ( #915 ) ) GLOBAL_UNIT_ASSIGNED_CONTEXT ( ( #709, #287, #391 ) ) REPRESENTATION_CONTEXT ( 'NONE', 'WORKASPACE' ) );
#837 = CARTESIAN_POINT ( 'NONE',  ( -1.899999999999999689, 0.8499999999999999778, 0.000000000000000000 ) ) ;
#838 = AXIS2_PLACEMENT_3D ( 'NONE', #200, #851, #906 ) ;
#839 = CARTESIAN_POINT ( 'NONE',  ( -1.549999999999999822, 0.8499999999999999778, 0.000000000000000000 ) ) ;
#840 = DIRECTION ( 'NONE',  ( 0.000000000000000000, 0.000000000000000000, -1.000000000000000000 ) ) ;
#841 = SHAPE_DEFINITION_REPRESENTATION ( #662, #211 ) ;
#842 = DIRECTION ( 'NONE',  ( 1.000000000000000000, 0.000000000000000000, 0.000000000000000000 ) ) ;
#843 = AXIS2_PLACEMENT_3D ( 'NONE', #425, #884, #856 ) ;
#844 = DIRECTION ( 'NONE',  ( -1.000000000000000000, -0.000000000000000000, -0.000000000000000000 ) ) ;
#845 = EDGE_CURVE ( 'NONE', #935, #236, #418, .T. ) ;
#846 = CARTESIAN_POINT ( 'NONE',  ( -1.899999999999999689, 0.000000000000000000, 0.000000000000000000 ) ) ;
#847 = ADVANCED_FACE ( 'NONE', ( #435 ), #84, .T. ) ;
#848 = PLANE ( 'NONE',  #113 ) ;
#849 = DIRECTION ( 'NONE',  ( -1.000000000000000000, -0.000000000000000000, -0.000000000000000000 ) ) ;
#850 = AXIS2_PLACEMENT_3D ( 'NONE', #615, #399, #214 ) ;
#851 = DIRECTION ( 'NONE',  ( -1.000000000000000000, -0.000000000000000000, -0.000000000000000000 ) ) ;
#852 = EDGE_CURVE ( 'NONE', #613, #575, #772, .T. ) ;
#853 = MANIFOLD_SOLID_BREP ( 'Revolve2', #571 ) ;
#854 = DIRECTION ( 'NONE',  ( 0.000000000000000000, 0.000000000000000000, -1.000000000000000000 ) ) ;
#855 =( NAMED_UNIT ( * ) SI_UNIT ( $, .STERADIAN. ) SOLID_ANGLE_UNIT ( ) );
#856 = DIRECTION ( 'NONE',  ( -1.000000000000000000, 0.000000000000000000, 0.000000000000000000 ) ) ;
#857 = DIRECTION ( 'NONE',  ( -1.000000000000000000, -0.000000000000000000, -0.000000000000000000 ) ) ;
#858 =( LENGTH_UNIT ( ) NAMED_UNIT ( * ) SI_UNIT ( .MILLI., .METRE. ) );
#859 = CARTESIAN_POINT ( 'NONE',  ( 4.000000000000000000, -0.3499999999999998113, 0.000000000000000000 ) ) ;
#860 = AXIS2_PLACEMENT_3D ( 'NONE', #416, #1, #343 ) ;
#861 = CARTESIAN_POINT ( 'NONE',  ( -1.549999999999999822, 0.8499999999999999778, 0.8499999999999999778 ) ) ;
#862 = DIRECTION ( 'NONE',  ( 0.000000000000000000, 0.000000000000000000, 1.000000000000000000 ) ) ;
#863 = CARTESIAN_POINT ( 'NONE',  ( -1.749999999999999778, 0.8500000000000000888, -0.8499999999999999778 ) ) ;
#864 = EDGE_CURVE ( 'NONE', #236, #935, #470, .T. ) ;
#865 = MECHANICAL_DESIGN_GEOMETRIC_PRESENTATION_REPRESENTATION (  '', ( #96 ), #720 ) ;
#866 = ADVANCED_FACE ( 'NONE', ( #133 ), #466, .T. ) ;
#867 = CARTESIAN_POINT ( 'NONE',  ( -1.549999999999999822, 0.8500000000000000888, -0.7500000000000001110 ) ) ;
#868 =( NAMED_UNIT ( * ) PLANE_ANGLE_UNIT ( ) SI_UNIT ( $, .RADIAN. ) );
#869 = CARTESIAN_POINT ( 'NONE',  ( 1.899999999999999689, 0.8499999999999999778, -0.6999999999999999556 ) ) ;
#870 = DIRECTION ( 'NONE',  ( 0.000000000000000000, 0.000000000000000000, 1.000000000000000000 ) ) ;
#871 = DIRECTION ( 'NONE',  ( 0.000000000000000000, 0.000000000000000000, -1.000000000000000000 ) ) ;
#872 = EDGE_CURVE ( 'NONE', #330, #590, #131, .T. ) ;
#873 = CARTESIAN_POINT ( 'NONE',  ( -1.749999999999999778, 0.8499999999999999778, 0.8499999999999999778 ) ) ;
#874 = MANIFOLD_SOLID_BREP ( 'Mirror1', #969 ) ;
#875 = CARTESIAN_POINT ( 'NONE',  ( -1.549999999999999822, 0.8499999999999999778, 0.000000000000000000 ) ) ;
#876 = ADVANCED_FACE ( 'NONE', ( #146 ), #472, .T. ) ;
#877 = AXIS2_PLACEMENT_3D ( 'NONE', #57, #694, #356 ) ;
#878 = CARTESIAN_POINT ( 'NONE',  ( -1.749999999999999778, 0.8499999999999999778, 0.6999999999999999556 ) ) ;
#879 = EDGE_CURVE ( 'NONE', #298, #270, #484, .T. ) ;
#880 = DIRECTION ( 'NONE',  ( -1.000000000000000000, -0.000000000000000000, -0.000000000000000000 ) ) ;
#881 = AXIS2_PLACEMENT_3D ( 'NONE', #202, #382, #134 ) ;
#882 = CARTESIAN_POINT ( 'NONE',  ( 2.800000000000000266, 1.149999999999999467, 0.000000000000000000 ) ) ;
#883 = CARTESIAN_POINT ( 'NONE',  ( 0.000000000000000000, 0.000000000000000000, 0.000000000000000000 ) ) ;
#884 = DIRECTION ( 'NONE',  ( -0.000000000000000000, -0.000000000000000000, -1.000000000000000000 ) ) ;
#885 = PLANE ( 'NONE',  #433 ) ;
#886 = AXIS2_PLACEMENT_3D ( 'NONE', #878, #320, #540 ) ;
#887 = EDGE_CURVE ( 'NONE', #982, #938, #124, .T. ) ;
#888 = DIRECTION ( 'NONE',  ( 1.000000000000000000, -0.000000000000000000, -0.000000000000000000 ) ) ;
#889 = PRODUCT_DEFINITION_FORMATION_WITH_SPECIFIED_SOURCE ( 'ANY', '', #934, .NOT_KNOWN. ) ;
#890 = ADVANCED_FACE ( 'NONE', ( #120 ), #130, .T. ) ;
#891 = DIRECTION ( 'NONE',  ( 0.000000000000000000, 0.000000000000000000, -1.000000000000000000 ) ) ;
#892 = DIRECTION ( 'NONE',  ( -1.000000000000000000, -0.000000000000000000, -0.000000000000000000 ) ) ;
#893 = AXIS2_PLACEMENT_3D ( 'NONE', #159, #257, #597 ) ;
#894 = DIRECTION ( 'NONE',  ( -1.000000000000000000, -0.000000000000000000, -0.000000000000000000 ) ) ;
#895 = DIRECTION ( 'NONE',  ( 0.000000000000000000, 0.000000000000000000, -1.000000000000000000 ) ) ;
#896 = AXIS2_PLACEMENT_3D ( 'NONE', #150, #282, #705 ) ;
#897 = AXIS2_PLACEMENT_3D ( 'NONE', #899, #888, #665 ) ;
#898 = ADVANCED_FACE ( 'NONE', ( #815 ), #822, .T. ) ;
#899 = CARTESIAN_POINT ( 'NONE',  ( -2.800000000000000266, 0.8499999999999999778, 0.000000000000000000 ) ) ;
#900 = CARTESIAN_POINT ( 'NONE',  ( -1.899999999999999689, 0.8500000000000000888, -0.8499999999999999778 ) ) ;
#901 =( NAMED_UNIT ( * ) PLANE_ANGLE_UNIT ( ) SI_UNIT ( $, .RADIAN. ) );
#902 = CARTESIAN_POINT ( 'NONE',  ( 1.899999999999999689, 0.8499999999999999778, 0.3000000000000000444 ) ) ;
#903 = AXIS2_PLACEMENT_3D ( 'NONE', #78, #770, #476 ) ;
#904 = DIRECTION ( 'NONE',  ( 0.000000000000000000, 0.000000000000000000, 1.000000000000000000 ) ) ;
#905 = PRESENTATION_LAYER_ASSIGNMENT (  '', '', ( #558 ) ) ;
#906 = DIRECTION ( 'NONE',  ( 0.000000000000000000, 0.000000000000000000, 1.000000000000000000 ) ) ;
#907 = DIRECTION ( 'NONE',  ( 1.000000000000000000, 0.000000000000000000, 0.000000000000000000 ) ) ;
#908 = CARTESIAN_POINT ( 'NONE',  ( -1.549999999999999822, 0.8499999999999999778, 0.000000000000000000 ) ) ;
#909 = CARTESIAN_POINT ( 'NONE',  ( -0.8499999999999996447, 0.8499999999999999778, 0.000000000000000000 ) ) ;
#910 = AXIS2_PLACEMENT_3D ( 'NONE', #875, #550, #734 ) ;
#911 = DIRECTION ( 'NONE',  ( 0.000000000000000000, 0.000000000000000000, 1.000000000000000000 ) ) ;
#912 = EDGE_CURVE ( 'NONE', #657, #284, #806, .T. ) ;
#913 = DIRECTION ( 'NONE',  ( 0.000000000000000000, 0.000000000000000000, 1.000000000000000000 ) ) ;
#914 = CARTESIAN_POINT ( 'NONE',  ( -4.000000000000000000, -0.3499999999999998113, 0.000000000000000000 ) ) ;
#915 = UNCERTAINTY_MEASURE_WITH_UNIT (LENGTH_MEASURE( 1.000000000000000082E-05 ), #709, 'distance_accuracy_value', 'NONE');
#916 = ORIENTED_EDGE ( 'NONE', *, *, #157, .T. ) ;
#917 = DIRECTION ( 'NONE',  ( 1.494482151746832325E-16, -1.000000000000000000, 0.000000000000000000 ) ) ;
#918 = FILL_AREA_STYLE_COLOUR ( '', #741 ) ;
#919 = CARTESIAN_POINT ( 'NONE',  ( 1.899999999999999689, 0.8499999999999999778, -0.3000000000000000444 ) ) ;
#920 = VERTEX_POINT ( 'NONE', #411 ) ;
#921 = ORIENTED_EDGE ( 'NONE', *, *, #47, .T. ) ;
#922 = EDGE_LOOP ( 'NONE', ( #1024, #598, #244, #931, #1027 ) ) ;
#923 = ORIENTED_EDGE ( 'NONE', *, *, #47, .F. ) ;
#924 =( NAMED_UNIT ( * ) SI_UNIT ( $, .STERADIAN. ) SOLID_ANGLE_UNIT ( ) );
#925 = AXIS2_PLACEMENT_3D ( 'NONE', #503, #746, #828 ) ;
#926 = CARTESIAN_POINT ( 'NONE',  ( -2.800000000000000266, 0.8499999999999999778, 0.000000000000000000 ) ) ;
#927 = ORIENTED_EDGE ( 'NONE', *, *, #952, .F. ) ;
#928 = DIRECTION ( 'NONE',  ( 0.000000000000000000, 0.000000000000000000, -1.000000000000000000 ) ) ;
#929 = CARTESIAN_POINT ( 'NONE',  ( -2.800000000000000266, 0.8499999999999999778, -0.3000000000000000444 ) ) ;
#930 = EDGE_CURVE ( 'NONE', #961, #673, #833, .T. ) ;
#931 = ORIENTED_EDGE ( 'NONE', *, *, #646, .F. ) ;
#932 = VERTEX_POINT ( 'NONE', #699 ) ;
#933 = VERTEX_POINT ( 'NONE', #19 ) ;
#934 = PRODUCT ( '1N4148TR', '1N4148TR', '', ( #713 ) ) ;
#935 = VERTEX_POINT ( 'NONE', #861 ) ;
#936 = DIRECTION ( 'NONE',  ( 1.494482151746832325E-16, 1.000000000000000000, -0.000000000000000000 ) ) ;
#937 = ORIENTED_EDGE ( 'NONE', *, *, #930, .F. ) ;
#938 = VERTEX_POINT ( 'NONE', #467 ) ;
#939 = ORIENTED_EDGE ( 'NONE', *, *, #544, .F. ) ;
#940 = DIRECTION ( 'NONE',  ( 1.000000000000000000, -0.000000000000000000, -0.000000000000000000 ) ) ;
#941 = ORIENTED_EDGE ( 'NONE', *, *, #70, .T. ) ;
#942 = CARTESIAN_POINT ( 'NONE',  ( 4.000000000000003553, -23.56504440784612342, 0.000000000000000000 ) ) ;
#943 = ORIENTED_EDGE ( 'NONE', *, *, #872, .T. ) ;
#944 = EDGE_LOOP ( 'NONE', ( #344, #335 ) ) ;
#945 = ORIENTED_EDGE ( 'NONE', *, *, #419, .T. ) ;
#946 = CARTESIAN_POINT ( 'NONE',  ( 2.800000000000000266, 0.8499999999999999778, 0.3000000000000000444 ) ) ;
#947 = ORIENTED_EDGE ( 'NONE', *, *, #557, .T. ) ;
#948 = EDGE_CURVE ( 'NONE', #270, #998, #826, .T. ) ;
#949 = CARTESIAN_POINT ( 'NONE',  ( 4.000000000000000000, -0.3500000000000000333, 0.000000000000000000 ) ) ;
#950 = MANIFOLD_SOLID_BREP ( 'Sweep1', #979 ) ;
#951 = VERTEX_POINT ( 'NONE', #312 ) ;
#952 = EDGE_CURVE ( 'NONE', #920, #986, #475, .T. ) ;
#953 = ORIENTED_EDGE ( 'NONE', *, *, #354, .F. ) ;
#954 = EDGE_LOOP ( 'NONE', ( #612, #263, #308, #581 ) ) ;
#955 = ADVANCED_FACE ( 'NONE', ( #437, #93 ), #43, .T. ) ;
#956 = VERTEX_POINT ( 'NONE', #873 ) ;
#957 = CARTESIAN_POINT ( 'NONE',  ( 1.899999999999999689, 0.8499999999999999778, 0.000000000000000000 ) ) ;
#958 = EDGE_LOOP ( 'NONE', ( #655, #231, #670, #1002, #988 ) ) ;
#959 = DIRECTION ( 'NONE',  ( 0.000000000000000000, 0.000000000000000000, 1.000000000000000000 ) ) ;
#960 = ORIENTED_EDGE ( 'NONE', *, *, #14, .T. ) ;
#961 = VERTEX_POINT ( 'NONE', #168 ) ;
#962 = VERTEX_POINT ( 'NONE', #272 ) ;
#963 = ORIENTED_EDGE ( 'NONE', *, *, #184, .T. ) ;
#964 = VERTEX_POINT ( 'NONE', #808 ) ;
#965 = ORIENTED_EDGE ( 'NONE', *, *, #14, .F. ) ;
#966 = AXIS2_PLACEMENT_3D ( 'NONE', #123, #162, #360 ) ;
#967 = APPLICATION_PROTOCOL_DEFINITION ( 'draft international standard', 'automotive_design', 1998, #740 ) ;
#968 = DIRECTION ( 'NONE',  ( 0.000000000000000000, 0.000000000000000000, 1.000000000000000000 ) ) ;
#969 = CLOSED_SHELL ( 'NONE', ( #866, #498, #1004, #834, #847, #605, #181, #562 ) ) ;
#970 = CARTESIAN_POINT ( 'NONE',  ( -1.549999999999999822, 0.000000000000000000, 0.000000000000000000 ) ) ;
#971 = ORIENTED_EDGE ( 'NONE', *, *, #469, .F. ) ;
#972 = ORIENTED_EDGE ( 'NONE', *, *, #588, .T. ) ;
#973 = EDGE_LOOP ( 'NONE', ( #582, #570 ) ) ;
#974 = ORIENTED_EDGE ( 'NONE', *, *, #551, .F. ) ;
#975 = ORIENTED_EDGE ( 'NONE', *, *, #80, .F. ) ;
#976 = ORIENTED_EDGE ( 'NONE', *, *, #948, .T. ) ;
#977 = ORIENTED_EDGE ( 'NONE', *, *, #207, .F. ) ;
#978 = DIRECTION ( 'NONE',  ( -1.000000000000000000, -0.000000000000000000, -0.000000000000000000 ) ) ;
#979 = CLOSED_SHELL ( 'NONE', ( #682, #69, #220, #517, #898, #545, #666, #262 ) ) ;
#980 = ORIENTED_EDGE ( 'NONE', *, *, #25, .T. ) ;
#981 = ORIENTED_EDGE ( 'NONE', *, *, #217, .T. ) ;
#982 = VERTEX_POINT ( 'NONE', #869 ) ;
#983 = AXIS2_PLACEMENT_3D ( 'NONE', #52, #524, #87 ) ;
#984 = ORIENTED_EDGE ( 'NONE', *, *, #469, .T. ) ;
#985 = CARTESIAN_POINT ( 'NONE',  ( 2.800000000000000266, -0.3499999999999999223, 3.673940397442059498E-17 ) ) ;
#986 = VERTEX_POINT ( 'NONE', #384 ) ;
#987 = EDGE_CURVE ( 'NONE', #986, #604, #447, .T. ) ;
#988 = ORIENTED_EDGE ( 'NONE', *, *, #116, .F. ) ;
#989 = ORIENTED_EDGE ( 'NONE', *, *, #669, .T. ) ;
#990 = ORIENTED_EDGE ( 'NONE', *, *, #864, .T. ) ;
#991 = ORIENTED_EDGE ( 'NONE', *, *, #184, .F. ) ;
#992 = ORIENTED_EDGE ( 'NONE', *, *, #278, .T. ) ;
#993 = CARTESIAN_POINT ( 'NONE',  ( -0.8499999999999996447, 0.8499999999999999778, 0.000000000000000000 ) ) ;
#994 = EDGE_LOOP ( 'NONE', ( #323, #639, #273, #939 ) ) ;
#995 = FILL_AREA_STYLE_COLOUR ( '', #832 ) ;
#996 = ORIENTED_EDGE ( 'NONE', *, *, #497, .T. ) ;
#997 = CLOSED_SHELL ( 'NONE', ( #117, #693, #511, #452, #37, #171, #58, #645, #187, #890, #347, #876, #800, #460 ) ) ;
#998 = VERTEX_POINT ( 'NONE', #315 ) ;
#999 = CARTESIAN_POINT ( 'NONE',  ( -1.549999999999999822, 0.8499999999999999778, 0.000000000000000000 ) ) ;
#1000 = EDGE_LOOP ( 'NONE', ( #945, #624, #937, #316 ) ) ;
#1001 = EDGE_LOOP ( 'NONE', ( #965, #249, #294, #286 ) ) ;
#1002 = ORIENTED_EDGE ( 'NONE', *, *, #748, .T. ) ;
#1003 = AXIS2_PLACEMENT_3D ( 'NONE', #697, #907, #804 ) ;
#1004 = ADVANCED_FACE ( 'NONE', ( #115 ), #101, .T. ) ;
#1005 = ORIENTED_EDGE ( 'NONE', *, *, #887, .T. ) ;
#1006 = DIRECTION ( 'NONE',  ( 0.000000000000000000, -0.000000000000000000, -1.000000000000000000 ) ) ;
#1007 = EDGE_LOOP ( 'NONE', ( #283, #667 ) ) ;
#1008 = FILL_AREA_STYLE ('',( #995 ) ) ;
#1009 = ORIENTED_EDGE ( 'NONE', *, *, #728, .T. ) ;
#1010 = ORIENTED_EDGE ( 'NONE', *, *, #193, .T. ) ;
#1011 = PRODUCT_DEFINITION ( 'UNKNOWN', '', #889, #60 ) ;
#1012 = ORIENTED_EDGE ( 'NONE', *, *, #669, .F. ) ;
#1013 = CARTESIAN_POINT ( 'NONE',  ( -0.8499999999999996447, 0.8500000000000000888, -0.8499999999999998668 ) ) ;
#1014 = PRESENTATION_LAYER_ASSIGNMENT (  '', '', ( #830 ) ) ;
#1015 = VERTEX_POINT ( 'NONE', #405 ) ;
#1016 = ORIENTED_EDGE ( 'NONE', *, *, #762, .F. ) ;
#1017 = ORIENTED_EDGE ( 'NONE', *, *, #544, .T. ) ;
#1018 = EDGE_LOOP ( 'NONE', ( #975, #916, #632, #625 ) ) ;
#1019 = ORIENTED_EDGE ( 'NONE', *, *, #342, .T. ) ;
#1020 = VERTEX_POINT ( 'NONE', #929 ) ;
#1021 = ORIENTED_EDGE ( 'NONE', *, *, #791, .T. ) ;
#1022 = ORIENTED_EDGE ( 'NONE', *, *, #402, .T. ) ;
#1023 = CARTESIAN_POINT ( 'NONE',  ( -1.749999999999999778, 0.8499999999999999778, 0.000000000000000000 ) ) ;
#1024 = ORIENTED_EDGE ( 'NONE', *, *, #1031, .T. ) ;
#1025 = VERTEX_POINT ( 'NONE', #863 ) ;
#1026 = AXIS2_PLACEMENT_3D ( 'NONE', #592, #160, #542 ) ;
#1027 = ORIENTED_EDGE ( 'NONE', *, *, #827, .F. ) ;
#1028 = EDGE_LOOP ( 'NONE', ( #238, #589, #1017, #971 ) ) ;
#1029 = VERTEX_POINT ( 'NONE', #919 ) ;
#1030 = PLANE ( 'NONE',  #119 ) ;
#1031 = EDGE_CURVE ( 'NONE', #1029, #657, #786, .T. ) ;
ENDSEC;
END-ISO-10303-21;
