ISO-10303-21;
HEADER;
FILE_DESCRIPTION(
  ('This file contains a STEP AP42 implementation'
    ,'as created by ZW3D STEP Interface translator.')
  ,'2;1'
  );
FILE_NAME(
  'CSBL0630 Symbol.stp'
  ,'23 726. 85923',
  (''),
  ('ZWCAD Software Co.'),
  'Version 1.0',
  'ZW3D to STEP translator',
  ''
  );
FILE_SCHEMA(('AUTOMOTIVE_DESIGN { 1 0 10303 214 1 1 1 1 }'));
ENDSEC;

DATA;

/**File Base Unit**/
#1 = (LENGTH_UNIT()NAMED_UNIT(*)SI_UNIT(.MILLI.,.METRE.));
#2 = (NAMED_UNIT(*)PLANE_ANGLE_UNIT()SI_UNIT($,.RADIAN.));
#3 = (NAMED_UNIT(*)SI_UNIT($,.STERADIAN.)SOLID_ANGLE_UNIT());
#4 = UNCERTAINTY_MEASURE_WITH_UNIT(LENGTH_MEASURE(0.01),#1,'DISTANCE_ACCURACY_VALUE','Maximum Tolerance applied to model');
#5 = (GEOMETRIC_REPRESENTATION_CONTEXT(3)GLOBAL_UNCERTAINTY_ASSIGNED_CONTEXT((#4))GLOBAL_UNIT_ASSIGNED_CONTEXT((#1,#2,#3))REPRESENTATION_CONTEXT('STEP 203','TOP_LEVEL_ASSEMBLY_PART'));

/**product_definition_shape**/
#6=APPLICATION_CONTEXT('mechanical parts and assemblies' );
#7=DESIGN_CONTEXT('NONE',#6,'design');
#8=MECHANICAL_CONTEXT('NONE',#6,'mechanical');
#9=PRODUCT('0','Part','',(#8));
#10=PRODUCT_DEFINITION_FORMATION_WITH_SPECIFIED_SOURCE('ANY','',#9,.NOT_KNOWN.);
#11=PRODUCT_DEFINITION('UNKNOWN','',#10,#7);
#12=PRODUCT_DEFINITION_SHAPE('NONE','NONE',#11);
#13=PRODUCT_RELATED_PRODUCT_CATEGORY('detail','',(#9));
/**geometry information**/
#14=CARTESIAN_POINT('',(0.,0.,0.));
#15=DIRECTION('',(0.,0.,1.));
#16=DIRECTION('',(1.,0.,0.));
#17=AXIS2_PLACEMENT_3D('',#14,#15,#16);
#18=APPLICATION_CONTEXT('part');
#19=MECHANICAL_CONTEXT('none',#18,'component');
#20=PRODUCT('原理图','原理图','',(#19));
#21=PRODUCT_RELATED_PRODUCT_CATEGORY('detail','',(#20));
#22=PRODUCT_DEFINITION_FORMATION_WITH_SPECIFIED_SOURCE('ANY','UNSPECIFIED',#20,.NOT_KNOWN.);
#23=APPLICATION_CONTEXT('part');
#24=APPLICATION_PROTOCOL_DEFINITION('international standard','config_control_design',1994,#23);
#25=DESIGN_CONTEXT('detailed',#23,'design');
#26=PRODUCT_DEFINITION('','UNSPECIFIED',#22,#25);
#27=PRODUCT_DEFINITION_SHAPE('NONE','NONE',#26);
#28=SHAPE_REPRESENTATION('原理图',(#17),#5);
#29=SHAPE_DEFINITION_REPRESENTATION(#27,#28);
#30=CARTESIAN_POINT('',(530.63513183594,910.23492431641));
#31=DIRECTION('',(-1.,0.));
#32=VECTOR('',#31,0.074951171875);
#33=LINE('',#30,#32);
#34=TRIMMED_CURVE('',#33,(PARAMETER_VALUE(0.)),(PARAMETER_VALUE(1.0)),.T.,.PARAMETER.);
#35=COLOUR_RGB('',0.,0.,0.000000);
#36=DRAUGHTING_PRE_DEFINED_CURVE_FONT('continuous');
#37=CURVE_STYLE('None', #36, 'POSITIVE_LENGTH_MEASURE( 0 )', #35);
#38=PRESENTATION_STYLE_ASSIGNMENT((#37));
#39=STYLED_ITEM('None', (#38), #34);
#40=CARTESIAN_POINT('',(530.56018066406,910.23492431641));
#41=DIRECTION('',(0.,1.));
#42=VECTOR('',#41,0.46759033203125);
#43=LINE('',#40,#42);
#44=TRIMMED_CURVE('',#43,(PARAMETER_VALUE(0.)),(PARAMETER_VALUE(1.0)),.T.,.PARAMETER.);
#45=STYLED_ITEM('None', (#38), #44);
#46=CARTESIAN_POINT('',(530.56018066406,910.70251464844));
#47=DIRECTION('',(-0.77805500177678,-0.62819615902211));
#48=VECTOR('',#47,0.040321147272183);
#49=LINE('',#46,#48);
#50=TRIMMED_CURVE('',#49,(PARAMETER_VALUE(0.)),(PARAMETER_VALUE(1.0)),.T.,.PARAMETER.);
#51=STYLED_ITEM('None', (#38), #50);
#52=CARTESIAN_POINT('',(530.52880859375,910.67718505859));
#53=DIRECTION('',(-0.84323453714644,-0.53754582629151));
#54=VECTOR('',#53,0.047120800878498);
#55=LINE('',#52,#54);
#56=TRIMMED_CURVE('',#55,(PARAMETER_VALUE(0.)),(PARAMETER_VALUE(1.0)),.T.,.PARAMETER.);
#57=STYLED_ITEM('None', (#38), #56);
#58=CARTESIAN_POINT('',(530.48907470703,910.65185546875));
#59=DIRECTION('',(-0.88356754712803,-0.46830373654516));
#60=VECTOR('',#59,0.047180333698596);
#61=LINE('',#58,#60);
#62=TRIMMED_CURVE('',#61,(PARAMETER_VALUE(0.)),(PARAMETER_VALUE(1.0)),.T.,.PARAMETER.);
#63=STYLED_ITEM('None', (#38), #62);
#64=CARTESIAN_POINT('',(530.44738769531,910.62976074219));
#65=DIRECTION('',(-0.9210089229836,-0.38954147890126));
#66=VECTOR('',#65,0.040424630406282);
#67=LINE('',#64,#66);
#68=TRIMMED_CURVE('',#67,(PARAMETER_VALUE(0.)),(PARAMETER_VALUE(1.0)),.T.,.PARAMETER.);
#69=STYLED_ITEM('None', (#38), #68);
#70=CARTESIAN_POINT('',(530.41015625,910.61401367188));
#71=DIRECTION('',(0.,1.));
#72=VECTOR('',#71,0.0709228515625);
#73=LINE('',#70,#72);
#74=TRIMMED_CURVE('',#73,(PARAMETER_VALUE(0.)),(PARAMETER_VALUE(1.0)),.T.,.PARAMETER.);
#75=STYLED_ITEM('None', (#38), #74);
#76=CARTESIAN_POINT('',(530.41015625,910.68493652344));
#77=DIRECTION('',(0.87917483075243,0.47649933575131));
#78=VECTOR('',#77,0.06366110166433);
#79=LINE('',#76,#78);
#80=TRIMMED_CURVE('',#79,(PARAMETER_VALUE(0.)),(PARAMETER_VALUE(1.0)),.T.,.PARAMETER.);
#81=STYLED_ITEM('None', (#38), #80);
#82=CARTESIAN_POINT('',(530.46612548828,910.71527099609));
#83=DIRECTION('',(0.80742685445297,0.58996768954595));
#84=VECTOR('',#83,0.062590325174704);
#85=LINE('',#82,#84);
#86=TRIMMED_CURVE('',#85,(PARAMETER_VALUE(0.)),(PARAMETER_VALUE(1.0)),.T.,.PARAMETER.);
#87=STYLED_ITEM('None', (#38), #86);
#88=CARTESIAN_POINT('',(530.51666259766,910.75219726563));
#89=DIRECTION('',(0.7143268498703,0.69981222592519));
#90=VECTOR('',#89,0.058871121341561);
#91=LINE('',#88,#90);
#92=TRIMMED_CURVE('',#91,(PARAMETER_VALUE(0.)),(PARAMETER_VALUE(1.0)),.T.,.PARAMETER.);
#93=STYLED_ITEM('None', (#38), #92);
#94=CARTESIAN_POINT('',(530.55871582031,910.79339599609));
#95=DIRECTION('',(0.56030936770421,0.82828341312796));
#96=VECTOR('',#95,0.050108339237729);
#97=LINE('',#94,#96);
#98=TRIMMED_CURVE('',#97,(PARAMETER_VALUE(0.)),(PARAMETER_VALUE(1.0)),.T.,.PARAMETER.);
#99=STYLED_ITEM('None', (#38), #98);
#100=CARTESIAN_POINT('',(530.58679199219,910.83489990234));
#101=DIRECTION('',(1.,0.));
#102=VECTOR('',#101,0.04833984375);
#103=LINE('',#100,#102);
#104=TRIMMED_CURVE('',#103,(PARAMETER_VALUE(0.)),(PARAMETER_VALUE(1.0)),.T.,.PARAMETER.);
#105=STYLED_ITEM('None', (#38), #104);
#106=CARTESIAN_POINT('',(530.63513183594,910.83489990234));
#107=DIRECTION('',(0.,-1.));
#108=VECTOR('',#107,0.5999755859375);
#109=LINE('',#106,#108);
#110=TRIMMED_CURVE('',#109,(PARAMETER_VALUE(0.)),(PARAMETER_VALUE(1.0)),.T.,.PARAMETER.);
#111=STYLED_ITEM('None', (#38), #110);
#112=CARTESIAN_POINT('',(530.80389404297,903.15783691406));
#113=DIRECTION('',(0.,-1.));
#114=VECTOR('',#113,0.07501220703125);
#115=LINE('',#112,#114);
#116=TRIMMED_CURVE('',#115,(PARAMETER_VALUE(0.)),(PARAMETER_VALUE(1.0)),.T.,.PARAMETER.);
#117=STYLED_ITEM('None', (#38), #116);
#118=CARTESIAN_POINT('',(530.80389404297,903.08282470703));
#119=DIRECTION('',(-1.,0.));
#120=VECTOR('',#119,0.39373779296875);
#121=LINE('',#118,#120);
#122=TRIMMED_CURVE('',#121,(PARAMETER_VALUE(0.)),(PARAMETER_VALUE(1.0)),.T.,.PARAMETER.);
#123=STYLED_ITEM('None', (#38), #122);
#124=CARTESIAN_POINT('',(530.41015625,903.08282470703));
#125=DIRECTION('',(0.018261794329304,0.99983323952941));
#126=VECTOR('',#125,0.013368928627579);
#127=LINE('',#124,#126);
#128=TRIMMED_CURVE('',#127,(PARAMETER_VALUE(0.)),(PARAMETER_VALUE(1.0)),.T.,.PARAMETER.);
#129=STYLED_ITEM('None', (#38), #128);
#130=CARTESIAN_POINT('',(530.41040039063,903.09619140625));
#131=DIRECTION('',(0.10686121851068,0.99427394614282));
#132=VECTOR('',#131,0.013136745147724);
#133=LINE('',#130,#132);
#134=TRIMMED_CURVE('',#133,(PARAMETER_VALUE(0.)),(PARAMETER_VALUE(1.0)),.T.,.PARAMETER.);
#135=STYLED_ITEM('None', (#38), #134);
#136=CARTESIAN_POINT('',(530.41180419922,903.10925292969));
#137=DIRECTION('',(0.20152068486022,0.97948425897177));
#138=VECTOR('',#137,0.013023535130254);
#139=LINE('',#136,#138);
#140=TRIMMED_CURVE('',#139,(PARAMETER_VALUE(0.)),(PARAMETER_VALUE(1.0)),.T.,.PARAMETER.);
#141=STYLED_ITEM('None', (#38), #140);
#142=CARTESIAN_POINT('',(530.41442871094,903.12200927734));
#143=DIRECTION('',(0.28948899159777,0.95718134318618));
#144=VECTOR('',#143,0.013071929494155);
#145=LINE('',#142,#144);
#146=TRIMMED_CURVE('',#145,(PARAMETER_VALUE(0.)),(PARAMETER_VALUE(1.0)),.T.,.PARAMETER.);
#147=STYLED_ITEM('None', (#38), #146);
#148=CARTESIAN_POINT('',(530.41821289063,903.13452148438));
#149=DIRECTION('',(0.41929770892065,0.90784879318855));
#150=VECTOR('',#149,0.048473212705049);
#151=LINE('',#148,#150);
#152=TRIMMED_CURVE('',#151,(PARAMETER_VALUE(0.)),(PARAMETER_VALUE(1.0)),.T.,.PARAMETER.);
#153=STYLED_ITEM('None', (#38), #152);
#154=CARTESIAN_POINT('',(530.43853759766,903.17852783203));
#155=DIRECTION('',(0.58706883146451,0.80953702023001));
#156=VECTOR('',#155,0.049383816113056);
#157=LINE('',#154,#156);
#158=TRIMMED_CURVE('',#157,(PARAMETER_VALUE(0.)),(PARAMETER_VALUE(1.0)),.T.,.PARAMETER.);
#159=STYLED_ITEM('None', (#38), #158);
#160=CARTESIAN_POINT('',(530.46752929688,903.21850585938));
#161=DIRECTION('',(0.70057000025519,0.71358368447046));
#162=VECTOR('',#161,0.056280901156398);
#163=LINE('',#160,#162);
#164=TRIMMED_CURVE('',#163,(PARAMETER_VALUE(0.)),(PARAMETER_VALUE(1.0)),.T.,.PARAMETER.);
#165=STYLED_ITEM('None', (#38), #164);
#166=CARTESIAN_POINT('',(530.50695800781,903.25866699219));
#167=DIRECTION('',(0.76708512957002,0.64154532497131));
#168=VECTOR('',#167,0.066120711885239);
#169=LINE('',#166,#168);
#170=TRIMMED_CURVE('',#169,(PARAMETER_VALUE(0.)),(PARAMETER_VALUE(1.0)),.T.,.PARAMETER.);
#171=STYLED_ITEM('None', (#38), #170);
#172=CARTESIAN_POINT('',(530.55767822266,903.30108642578));
#173=DIRECTION('',(0.74834693922814,0.66330751431585));
#174=VECTOR('',#173,0.093304609252519);
#175=LINE('',#172,#174);
#176=TRIMMED_CURVE('',#175,(PARAMETER_VALUE(0.)),(PARAMETER_VALUE(1.0)),.T.,.PARAMETER.);
#177=STYLED_ITEM('None', (#38), #176);
#178=CARTESIAN_POINT('',(530.62750244141,903.36297607422));
#179=DIRECTION('',(0.6940116174959,0.71996380102108));
#180=VECTOR('',#179,0.072906768785537);
#181=LINE('',#178,#180);
#182=TRIMMED_CURVE('',#181,(PARAMETER_VALUE(0.)),(PARAMETER_VALUE(1.0)),.T.,.PARAMETER.);
#183=STYLED_ITEM('None', (#38), #182);
#184=CARTESIAN_POINT('',(530.67810058594,903.41546630859));
#185=DIRECTION('',(0.63740257361383,0.77053095924204));
#186=VECTOR('',#185,0.015129456777723);
#187=LINE('',#184,#186);
#188=TRIMMED_CURVE('',#187,(PARAMETER_VALUE(0.)),(PARAMETER_VALUE(1.0)),.T.,.PARAMETER.);
#189=STYLED_ITEM('None', (#38), #188);
#190=CARTESIAN_POINT('',(530.68774414063,903.42712402344));
#191=DIRECTION('',(0.60419481335814,0.79683663790712));
#192=VECTOR('',#191,0.013940622091218);
#193=LINE('',#190,#192);
#194=TRIMMED_CURVE('',#193,(PARAMETER_VALUE(0.)),(PARAMETER_VALUE(1.0)),.T.,.PARAMETER.);
#195=STYLED_ITEM('None', (#38), #194);
#196=CARTESIAN_POINT('',(530.69616699219,903.43823242188));
#197=DIRECTION('',(0.53866170166808,0.8425221487629));
#198=VECTOR('',#197,0.013257139423753);
#199=LINE('',#196,#198);
#200=TRIMMED_CURVE('',#199,(PARAMETER_VALUE(0.)),(PARAMETER_VALUE(1.0)),.T.,.PARAMETER.);
#201=STYLED_ITEM('None', (#38), #200);
#202=CARTESIAN_POINT('',(530.70330810547,903.44940185547));
#203=DIRECTION('',(0.44910355840068,0.89347971092345));
#204=VECTOR('',#203,0.012910919397741);
#205=LINE('',#202,#204);
#206=TRIMMED_CURVE('',#205,(PARAMETER_VALUE(0.)),(PARAMETER_VALUE(1.0)),.T.,.PARAMETER.);
#207=STYLED_ITEM('None', (#38), #206);
#208=CARTESIAN_POINT('',(530.70910644531,903.4609375));
#209=DIRECTION('',(0.35738200221396,0.93395829911915));
#210=VECTOR('',#209,0.012808805956628);
#211=LINE('',#208,#210);
#212=TRIMMED_CURVE('',#211,(PARAMETER_VALUE(0.)),(PARAMETER_VALUE(1.0)),.T.,.PARAMETER.);
#213=STYLED_ITEM('None', (#38), #212);
#214=CARTESIAN_POINT('',(530.71368408203,903.47290039063));
#215=DIRECTION('',(0.25378613331478,0.96726035716199));
#216=VECTOR('',#215,0.012746414624781);
#217=LINE('',#214,#216);
#218=TRIMMED_CURVE('',#217,(PARAMETER_VALUE(0.)),(PARAMETER_VALUE(1.0)),.T.,.PARAMETER.);
#219=STYLED_ITEM('None', (#38), #218);
#220=CARTESIAN_POINT('',(530.71691894531,903.48522949219));
#221=DIRECTION('',(0.15205718425394,0.98837169765062));
#222=VECTOR('',#221,0.012844674255826);
#223=LINE('',#220,#222);
#224=TRIMMED_CURVE('',#223,(PARAMETER_VALUE(0.)),(PARAMETER_VALUE(1.0)),.T.,.PARAMETER.);
#225=STYLED_ITEM('None', (#38), #224);
#226=CARTESIAN_POINT('',(530.71887207031,903.49792480469));
#227=DIRECTION('',(0.051334097646699,0.99868153603579));
#228=VECTOR('',#227,0.013078767320909);
#229=LINE('',#226,#228);
#230=TRIMMED_CURVE('',#229,(PARAMETER_VALUE(0.)),(PARAMETER_VALUE(1.0)),.T.,.PARAMETER.);
#231=STYLED_ITEM('None', (#38), #230);
#232=CARTESIAN_POINT('',(530.71954345703,903.51098632813));
#233=DIRECTION('',(-0.047284329965243,0.99888147051577));
#234=VECTOR('',#233,0.0103264918919);
#235=LINE('',#232,#234);
#236=TRIMMED_CURVE('',#235,(PARAMETER_VALUE(0.)),(PARAMETER_VALUE(1.0)),.T.,.PARAMETER.);
#237=STYLED_ITEM('None', (#38), #236);
#238=CARTESIAN_POINT('',(530.71905517578,903.52130126953));
#239=DIRECTION('',(-0.15344066203705,0.98815786351859));
#240=VECTOR('',#239,0.0099444233750867);
#241=LINE('',#238,#240);
#242=TRIMMED_CURVE('',#241,(PARAMETER_VALUE(0.)),(PARAMETER_VALUE(1.0)),.T.,.PARAMETER.);
#243=STYLED_ITEM('None', (#38), #242);
#244=CARTESIAN_POINT('',(530.71752929688,903.53112792969));
#245=DIRECTION('',(-0.25139836439499,0.96788370292072));
#246=VECTOR('',#245,0.0097113052261713);
#247=LINE('',#244,#246);
#248=TRIMMED_CURVE('',#247,(PARAMETER_VALUE(0.)),(PARAMETER_VALUE(1.0)),.T.,.PARAMETER.);
#249=STYLED_ITEM('None', (#38), #248);
#250=CARTESIAN_POINT('',(530.71508789063,903.54052734375));
#251=DIRECTION('',(-0.36152785449087,0.93236130895014));
#252=VECTOR('',#251,0.0096230590894562);
#253=LINE('',#250,#252);
#254=TRIMMED_CURVE('',#253,(PARAMETER_VALUE(0.)),(PARAMETER_VALUE(1.0)),.T.,.PARAMETER.);
#255=STYLED_ITEM('None', (#38), #254);
#256=CARTESIAN_POINT('',(530.71160888672,903.54949951172));
#257=DIRECTION('',(-0.45994419611302,0.88794782305153));
#258=VECTOR('',#257,0.0095544878860046);
#259=LINE('',#256,#258);
#260=TRIMMED_CURVE('',#259,(PARAMETER_VALUE(0.)),(PARAMETER_VALUE(1.0)),.T.,.PARAMETER.);
#261=STYLED_ITEM('None', (#38), #260);
#262=CARTESIAN_POINT('',(530.70721435547,903.55798339844));
#263=DIRECTION('',(-0.56196455613099,0.82716131295685));
#264=VECTOR('',#263,0.0096663194270633);
#265=LINE('',#262,#264);
#266=TRIMMED_CURVE('',#265,(PARAMETER_VALUE(0.)),(PARAMETER_VALUE(1.0)),.T.,.PARAMETER.);
#267=STYLED_ITEM('None', (#38), #266);
#268=CARTESIAN_POINT('',(530.70178222656,903.56597900391));
#269=DIRECTION('',(-0.64621808877844,0.7631527905574));
#270=VECTOR('',#269,0.0099172268890902);
#271=LINE('',#268,#270);
#272=TRIMMED_CURVE('',#271,(PARAMETER_VALUE(0.)),(PARAMETER_VALUE(1.0)),.T.,.PARAMETER.);
#273=STYLED_ITEM('None', (#38), #272);
#274=CARTESIAN_POINT('',(530.69537353516,903.57354736328));
#275=DIRECTION('',(-0.72174188590919,0.69216230042111));
#276=VECTOR('',#275,0.010317108107311);
#277=LINE('',#274,#276);
#278=TRIMMED_CURVE('',#277,(PARAMETER_VALUE(0.)),(PARAMETER_VALUE(1.0)),.T.,.PARAMETER.);
#279=STYLED_ITEM('None', (#38), #278);
#280=CARTESIAN_POINT('',(530.68792724609,903.58068847656));
#281=DIRECTION('',(-0.78319647517928,0.62177430090569));
#282=VECTOR('',#281,0.010208939547283);
#283=LINE('',#280,#282);
#284=TRIMMED_CURVE('',#283,(PARAMETER_VALUE(0.)),(PARAMETER_VALUE(1.0)),.T.,.PARAMETER.);
#285=STYLED_ITEM('None', (#38), #284);
#286=CARTESIAN_POINT('',(530.67993164063,903.58703613281));
#287=DIRECTION('',(-0.84117847537655,0.5407575913135));
#288=VECTOR('',#287,0.010158274522152);
#289=LINE('',#286,#288);
#290=TRIMMED_CURVE('',#289,(PARAMETER_VALUE(0.)),(PARAMETER_VALUE(1.0)),.T.,.PARAMETER.);
#291=STYLED_ITEM('None', (#38), #290);
#292=CARTESIAN_POINT('',(530.67138671875,903.59252929688));
#293=DIRECTION('',(-0.88838537898003,0.45909848443935));
#294=VECTOR('',#293,0.010236816697379);
#295=LINE('',#292,#294);
#296=TRIMMED_CURVE('',#295,(PARAMETER_VALUE(0.)),(PARAMETER_VALUE(1.0)),.T.,.PARAMETER.);
#297=STYLED_ITEM('None', (#38), #296);
#298=CARTESIAN_POINT('',(530.66229248047,903.59722900391));
#299=DIRECTION('',(-0.93010196814505,0.36730141417193));
#300=VECTOR('',#299,0.010302654826503);
#301=LINE('',#298,#300);
#302=TRIMMED_CURVE('',#301,(PARAMETER_VALUE(0.)),(PARAMETER_VALUE(1.0)),.T.,.PARAMETER.);
#303=STYLED_ITEM('None', (#38), #302);
#304=CARTESIAN_POINT('',(530.65270996094,903.60101318359));
#305=DIRECTION('',(-0.9878527965819,0.15539257474322));
#306=VECTOR('',#305,0.043991403780368);
#307=LINE('',#304,#306);
#308=TRIMMED_CURVE('',#307,(PARAMETER_VALUE(0.)),(PARAMETER_VALUE(1.0)),.T.,.PARAMETER.);
#309=STYLED_ITEM('None', (#38), #308);
#310=CARTESIAN_POINT('',(530.60925292969,903.60784912109));
#311=DIRECTION('',(-0.98947472647339,-0.14470579003761));
#312=VECTOR('',#311,0.046818460698699);
#313=LINE('',#310,#312);
#314=TRIMMED_CURVE('',#313,(PARAMETER_VALUE(0.)),(PARAMETER_VALUE(1.0)),.T.,.PARAMETER.);
#315=STYLED_ITEM('None', (#38), #314);
#316=CARTESIAN_POINT('',(530.56292724609,903.60107421875));
#317=DIRECTION('',(-0.9360958215064,-0.35174509656604));
#318=VECTOR('',#317,0.010758301180154);
#319=LINE('',#316,#318);
#320=TRIMMED_CURVE('',#319,(PARAMETER_VALUE(0.)),(PARAMETER_VALUE(1.0)),.T.,.PARAMETER.);
#321=STYLED_ITEM('None', (#38), #320);
#322=CARTESIAN_POINT('',(530.55285644531,903.59729003906));
#323=DIRECTION('',(-0.89674426568643,-0.44254911813097));
#324=VECTOR('',#323,0.010481710808939);
#325=LINE('',#322,#324);
#326=TRIMMED_CURVE('',#325,(PARAMETER_VALUE(0.)),(PARAMETER_VALUE(1.0)),.T.,.PARAMETER.);
#327=STYLED_ITEM('None', (#38), #326);
#328=CARTESIAN_POINT('',(530.54345703125,903.59265136719));
#329=DIRECTION('',(-0.84799830400509,-0.52999894000318));
#330=VECTOR('',#329,0.010364481224183);
#331=LINE('',#328,#330);
#332=TRIMMED_CURVE('',#331,(PARAMETER_VALUE(0.)),(PARAMETER_VALUE(1.0)),.T.,.PARAMETER.);
#333=STYLED_ITEM('None', (#38), #332);
#334=CARTESIAN_POINT('',(530.53466796875,903.58715820313));
#335=DIRECTION('',(-0.78775490914227,-0.6159888011338));
#336=VECTOR('',#335,0.010304824110952);
#337=LINE('',#334,#336);
#338=TRIMMED_CURVE('',#337,(PARAMETER_VALUE(0.)),(PARAMETER_VALUE(1.0)),.T.,.PARAMETER.);
#339=STYLED_ITEM('None', (#38), #338);
#340=CARTESIAN_POINT('',(530.52655029297,903.58081054688));
#341=DIRECTION('',(-0.72174188590919,-0.69216230042111));
#342=VECTOR('',#341,0.010317108107311);
#343=LINE('',#340,#342);
#344=TRIMMED_CURVE('',#343,(PARAMETER_VALUE(0.)),(PARAMETER_VALUE(1.0)),.T.,.PARAMETER.);
#345=STYLED_ITEM('None', (#38), #344);
#346=CARTESIAN_POINT('',(530.51910400391,903.57366943359));
#347=DIRECTION('',(-0.63719504835311,-0.77070258229376));
#348=VECTOR('',#347,0.010057660402123);
#349=LINE('',#346,#348);
#350=TRIMMED_CURVE('',#349,(PARAMETER_VALUE(0.)),(PARAMETER_VALUE(1.0)),.T.,.PARAMETER.);
#351=STYLED_ITEM('None', (#38), #350);
#352=CARTESIAN_POINT('',(530.5126953125,903.56591796875));
#353=DIRECTION('',(-0.53648539256213,-0.84390960627751));
#354=VECTOR('',#353,0.010125399463921);
#355=LINE('',#352,#354);
#356=TRIMMED_CURVE('',#355,(PARAMETER_VALUE(0.)),(PARAMETER_VALUE(1.0)),.T.,.PARAMETER.);
#357=STYLED_ITEM('None', (#38), #356);
#358=CARTESIAN_POINT('',(530.50726318359,903.55737304688));
#359=DIRECTION('',(-0.44242423648901,-0.89680588477502));
#360=VECTOR('',#359,0.010208757093289);
#361=LINE('',#358,#360);
#362=TRIMMED_CURVE('',#361,(PARAMETER_VALUE(0.)),(PARAMETER_VALUE(1.0)),.T.,.PARAMETER.);
#363=STYLED_ITEM('None', (#38), #362);
#364=CARTESIAN_POINT('',(530.50274658203,903.54821777344));
#365=DIRECTION('',(-0.33373875470726,-0.94266560540122));
#366=VECTOR('',#365,0.010424332976557);
#367=LINE('',#364,#366);
#368=TRIMMED_CURVE('',#367,(PARAMETER_VALUE(0.)),(PARAMETER_VALUE(1.0)),.T.,.PARAMETER.);
#369=STYLED_ITEM('None', (#38), #368);
#370=CARTESIAN_POINT('',(530.49926757813,903.53839111328));
#371=DIRECTION('',(-0.23592155120567,-0.97177210377573));
#372=VECTOR('',#371,0.010865800726553);
#373=LINE('',#370,#372);
#374=TRIMMED_CURVE('',#373,(PARAMETER_VALUE(0.)),(PARAMETER_VALUE(1.0)),.T.,.PARAMETER.);
#375=STYLED_ITEM('None', (#38), #374);
#376=CARTESIAN_POINT('',(530.49670410156,903.52783203125));
#377=DIRECTION('',(-0.13991442172685,-0.99016359991309));
#378=VECTOR('',#377,0.011342033529596);
#379=LINE('',#376,#378);
#380=TRIMMED_CURVE('',#379,(PARAMETER_VALUE(0.)),(PARAMETER_VALUE(1.0)),.T.,.PARAMETER.);
#381=STYLED_ITEM('None', (#38), #380);
#382=CARTESIAN_POINT('',(530.4951171875,903.5166015625));
#383=DIRECTION('',(-0.051214751973158,-0.99868766347659));
#384=VECTOR('',#383,0.011917495233012);
#385=LINE('',#382,#384);
#386=TRIMMED_CURVE('',#385,(PARAMETER_VALUE(0.)),(PARAMETER_VALUE(1.0)),.T.,.PARAMETER.);
#387=STYLED_ITEM('None', (#38), #386);
#388=CARTESIAN_POINT('',(530.49450683594,903.50469970703));
#389=DIRECTION('',(-0.99222807369994,0.12443251087117));
#390=VECTOR('',#389,0.075538249583599);
#391=LINE('',#388,#390);
#392=TRIMMED_CURVE('',#391,(PARAMETER_VALUE(0.)),(PARAMETER_VALUE(1.0)),.T.,.PARAMETER.);
#393=STYLED_ITEM('None', (#38), #392);
#394=CARTESIAN_POINT('',(530.41955566406,903.51409912109));
#395=DIRECTION('',(0.12701174077643,0.99190121368256));
#396=VECTOR('',#395,0.020182988964874);
#397=LINE('',#394,#396);
#398=TRIMMED_CURVE('',#397,(PARAMETER_VALUE(0.)),(PARAMETER_VALUE(1.0)),.T.,.PARAMETER.);
#399=STYLED_ITEM('None', (#38), #398);
#400=CARTESIAN_POINT('',(530.42211914063,903.53411865234));
#401=DIRECTION('',(0.20344645681908,0.97908607344184));
#402=VECTOR('',#401,0.019200383536164);
#403=LINE('',#400,#402);
#404=TRIMMED_CURVE('',#403,(PARAMETER_VALUE(0.)),(PARAMETER_VALUE(1.0)),.T.,.PARAMETER.);
#405=STYLED_ITEM('None', (#38), #404);
#406=CARTESIAN_POINT('',(530.42602539063,903.55291748047));
#407=DIRECTION('',(0.28397457776851,0.95883180964192));
#408=VECTOR('',#407,0.018269199736179);
#409=LINE('',#406,#408);
#410=TRIMMED_CURVE('',#409,(PARAMETER_VALUE(0.)),(PARAMETER_VALUE(1.0)),.T.,.PARAMETER.);
#411=STYLED_ITEM('None', (#38), #410);
#412=CARTESIAN_POINT('',(530.43121337891,903.57043457031));
#413=DIRECTION('',(0.37079312423462,0.92871548873718));
#414=VECTOR('',#413,0.017612952592448);
#415=LINE('',#412,#414);
#416=TRIMMED_CURVE('',#415,(PARAMETER_VALUE(0.)),(PARAMETER_VALUE(1.0)),.T.,.PARAMETER.);
#417=STYLED_ITEM('None', (#38), #416);
#418=CARTESIAN_POINT('',(530.43774414063,903.58679199219));
#419=DIRECTION('',(0.46293389525022,0.88639280718452));
#420=VECTOR('',#419,0.017007903800162);
#421=LINE('',#418,#420);
#422=TRIMMED_CURVE('',#421,(PARAMETER_VALUE(0.)),(PARAMETER_VALUE(1.0)),.T.,.PARAMETER.);
#423=STYLED_ITEM('None', (#38), #422);
#424=CARTESIAN_POINT('',(530.44561767578,903.60186767578));
#425=DIRECTION('',(0.55385346986697,0.83261415668743));
#426=VECTOR('',#425,0.016640337372922);
#427=LINE('',#424,#426);
#428=TRIMMED_CURVE('',#427,(PARAMETER_VALUE(0.)),(PARAMETER_VALUE(1.0)),.T.,.PARAMETER.);
#429=STYLED_ITEM('None', (#38), #428);
#430=CARTESIAN_POINT('',(530.45483398438,903.61572265625));
#431=DIRECTION('',(0.63908733400894,0.7691341752317));
#432=VECTOR('',#431,0.016426623274078);
#433=LINE('',#430,#432);
#434=TRIMMED_CURVE('',#433,(PARAMETER_VALUE(0.)),(PARAMETER_VALUE(1.0)),.T.,.PARAMETER.);
#435=STYLED_ITEM('None', (#38), #434);
#436=CARTESIAN_POINT('',(530.46533203125,903.62835693359));
#437=DIRECTION('',(0.72183329440142,0.69206697298281));
#438=VECTOR('',#437,0.016403815679241);
#439=LINE('',#436,#438);
#440=TRIMMED_CURVE('',#439,(PARAMETER_VALUE(0.)),(PARAMETER_VALUE(1.0)),.T.,.PARAMETER.);
#441=STYLED_ITEM('None', (#38), #440);
#442=CARTESIAN_POINT('',(530.47717285156,903.63970947266));
#443=DIRECTION('',(0.78875365465649,0.6147094209999));
#444=VECTOR('',#443,0.016482317646961);
#445=LINE('',#442,#444);
#446=TRIMMED_CURVE('',#445,(PARAMETER_VALUE(0.)),(PARAMETER_VALUE(1.0)),.T.,.PARAMETER.);
#447=STYLED_ITEM('None', (#38), #446);
#448=CARTESIAN_POINT('',(530.49017333984,903.64984130859));
#449=DIRECTION('',(0.85026514668786,0.5263546146163));
#450=VECTOR('',#449,0.016582028733827);
#451=LINE('',#448,#450);
#452=TRIMMED_CURVE('',#451,(PARAMETER_VALUE(0.)),(PARAMETER_VALUE(1.0)),.T.,.PARAMETER.);
#453=STYLED_ITEM('None', (#38), #452);
#454=CARTESIAN_POINT('',(530.50427246094,903.65856933594));
#455=DIRECTION('',(0.89730298215051,0.44141517670307));
#456=VECTOR('',#455,0.016869127876654);
#457=LINE('',#454,#456);
#458=TRIMMED_CURVE('',#457,(PARAMETER_VALUE(0.)),(PARAMETER_VALUE(1.0)),.T.,.PARAMETER.);
#459=STYLED_ITEM('None', (#38), #458);
#460=CARTESIAN_POINT('',(530.51940917969,903.666015625));
#461=DIRECTION('',(0.93676427324398,0.34996099264586));
#462=VECTOR('',#461,0.017266154216406);
#463=LINE('',#460,#462);
#464=TRIMMED_CURVE('',#463,(PARAMETER_VALUE(0.)),(PARAMETER_VALUE(1.0)),.T.,.PARAMETER.);
#465=STYLED_ITEM('None', (#38), #464);
#466=CARTESIAN_POINT('',(530.53558349609,903.67205810547));
#467=DIRECTION('',(0.96468483470218,0.26340685202861));
#468=VECTOR('',#467,0.017842007506849);
#469=LINE('',#466,#468);
#470=TRIMMED_CURVE('',#469,(PARAMETER_VALUE(0.)),(PARAMETER_VALUE(1.0)),.T.,.PARAMETER.);
#471=STYLED_ITEM('None', (#38), #470);
#472=CARTESIAN_POINT('',(530.55279541016,903.6767578125));
#473=DIRECTION('',(0.98360655737705,0.18032786885246));
#474=VECTOR('',#473,0.01861572265625);
#475=LINE('',#472,#474);
#476=TRIMMED_CURVE('',#475,(PARAMETER_VALUE(0.)),(PARAMETER_VALUE(1.0)),.T.,.PARAMETER.);
#477=STYLED_ITEM('None', (#38), #476);
#478=CARTESIAN_POINT('',(530.57110595703,903.68011474609));
#479=DIRECTION('',(0.99462514276708,0.10354141864768));
#480=VECTOR('',#479,0.019452700016634);
#481=LINE('',#478,#480);
#482=TRIMMED_CURVE('',#481,(PARAMETER_VALUE(0.)),(PARAMETER_VALUE(1.0)),.T.,.PARAMETER.);
#483=STYLED_ITEM('None', (#38), #482);
#484=CARTESIAN_POINT('',(530.59045410156,903.68212890625));
#485=DIRECTION('',(0.99945811226531,0.032916285134486));
#486=VECTOR('',#485,0.020396794960516);
#487=LINE('',#484,#486);
#488=TRIMMED_CURVE('',#487,(PARAMETER_VALUE(0.)),(PARAMETER_VALUE(1.0)),.T.,.PARAMETER.);
#489=STYLED_ITEM('None', (#38), #488);
#490=CARTESIAN_POINT('',(530.61083984375,903.68280029297));
#491=DIRECTION('',(0.99933548064171,-0.036449926345594));
#492=VECTOR('',#491,0.020093919204545);
#493=LINE('',#490,#492);
#494=TRIMMED_CURVE('',#493,(PARAMETER_VALUE(0.)),(PARAMETER_VALUE(1.0)),.T.,.PARAMETER.);
#495=STYLED_ITEM('None', (#38), #494);
#496=CARTESIAN_POINT('',(530.63092041016,903.68206787109));
#497=DIRECTION('',(0.9937666514705,-0.11148023333804));
#498=VECTOR('',#497,0.019162414759865);
#499=LINE('',#496,#498);
#500=TRIMMED_CURVE('',#499,(PARAMETER_VALUE(0.)),(PARAMETER_VALUE(1.0)),.T.,.PARAMETER.);
#501=STYLED_ITEM('None', (#38), #500);
#502=CARTESIAN_POINT('',(530.64996337891,903.67993164063));
#503=DIRECTION('',(0.98006797712327,-0.19866242779526));
#504=VECTOR('',#503,0.018433829766614);
#505=LINE('',#502,#504);
#506=TRIMMED_CURVE('',#505,(PARAMETER_VALUE(0.)),(PARAMETER_VALUE(1.0)),.T.,.PARAMETER.);
#507=STYLED_ITEM('None', (#38), #506);
#508=CARTESIAN_POINT('',(530.66802978516,903.67626953125));
#509=DIRECTION('',(0.95876356180612,-0.28420491296396));
#510=VECTOR('',#509,0.017824878239851);
#511=LINE('',#508,#510);
#512=TRIMMED_CURVE('',#511,(PARAMETER_VALUE(0.)),(PARAMETER_VALUE(1.0)),.T.,.PARAMETER.);
#513=STYLED_ITEM('None', (#38), #512);
#514=CARTESIAN_POINT('',(530.68511962891,903.67120361328));
#515=DIRECTION('',(0.92504188972298,-0.37986511060868));
#516=VECTOR('',#515,0.017352993709893);
#517=LINE('',#514,#516);
#518=TRIMMED_CURVE('',#517,(PARAMETER_VALUE(0.)),(PARAMETER_VALUE(1.0)),.T.,.PARAMETER.);
#519=STYLED_ITEM('None', (#38), #518);
#520=CARTESIAN_POINT('',(530.701171875,903.66461181641));
#521=DIRECTION('',(0.88422116748651,-0.46706843927715));
#522=VECTOR('',#521,0.017118702092405);
#523=LINE('',#520,#522);
#524=TRIMMED_CURVE('',#523,(PARAMETER_VALUE(0.)),(PARAMETER_VALUE(1.0)),.T.,.PARAMETER.);
#525=STYLED_ITEM('None', (#38), #524);
#526=CARTESIAN_POINT('',(530.71630859375,903.65661621094));
#527=DIRECTION('',(0.83038745670355,-0.55718638869719));
#528=VECTOR('',#527,0.016978966842443);
#529=LINE('',#526,#528);
#530=TRIMMED_CURVE('',#529,(PARAMETER_VALUE(0.)),(PARAMETER_VALUE(1.0)),.T.,.PARAMETER.);
#531=STYLED_ITEM('None', (#38), #530);
#532=CARTESIAN_POINT('',(530.73040771484,903.64715576172));
#533=DIRECTION('',(0.76851418968356,-0.6398327439691));
#534=VECTOR('',#533,0.017075232663112);
#535=LINE('',#532,#534);
#536=TRIMMED_CURVE('',#535,(PARAMETER_VALUE(0.)),(PARAMETER_VALUE(1.0)),.T.,.PARAMETER.);
#537=STYLED_ITEM('None', (#38), #536);
#538=CARTESIAN_POINT('',(530.74353027344,903.63623046875));
#539=DIRECTION('',(0.69810013612954,-0.71600013962004));
#540=VECTOR('',#539,0.017048923002275);
#541=LINE('',#538,#540);
#542=TRIMMED_CURVE('',#541,(PARAMETER_VALUE(0.)),(PARAMETER_VALUE(1.0)),.T.,.PARAMETER.);
#543=STYLED_ITEM('None', (#38), #542);
#544=CARTESIAN_POINT('',(530.75543212891,903.6240234375));
#545=DIRECTION('',(0.62379965925913,-0.78158427895409));
#546=VECTOR('',#545,0.01663350790352);
#547=LINE('',#544,#546);
#548=TRIMMED_CURVE('',#547,(PARAMETER_VALUE(0.)),(PARAMETER_VALUE(1.0)),.T.,.PARAMETER.);
#549=STYLED_ITEM('None', (#38), #548);
#550=CARTESIAN_POINT('',(530.76580810547,903.61102294922));
#551=DIRECTION('',(0.53567143575355,-0.84442649941705));
#552=VECTOR('',#551,0.016407562385021);
#553=LINE('',#550,#552);
#554=TRIMMED_CURVE('',#553,(PARAMETER_VALUE(0.)),(PARAMETER_VALUE(1.0)),.T.,.PARAMETER.);
#555=STYLED_ITEM('None', (#38), #554);
#556=CARTESIAN_POINT('',(530.77459716797,903.59716796875));
#557=DIRECTION('',(0.43974476692452,-0.89812278668482));
#558=VECTOR('',#557,0.0163780196587);
#559=LINE('',#556,#558);
#560=TRIMMED_CURVE('',#559,(PARAMETER_VALUE(0.)),(PARAMETER_VALUE(1.0)),.T.,.PARAMETER.);
#561=STYLED_ITEM('None', (#38), #560);
#562=CARTESIAN_POINT('',(530.78179931641,903.58245849609));
#563=DIRECTION('',(0.33727538850793,-0.94140602946169));
#564=VECTOR('',#563,0.016467846181487);
#565=LINE('',#562,#564);
#566=TRIMMED_CURVE('',#565,(PARAMETER_VALUE(0.)),(PARAMETER_VALUE(1.0)),.T.,.PARAMETER.);
#567=STYLED_ITEM('None', (#38), #566);
#568=CARTESIAN_POINT('',(530.78735351563,903.56695556641));
#569=DIRECTION('',(0.23653729111201,-0.97162241118317));
#570=VECTOR('',#569,0.016772345441173);
#571=LINE('',#568,#570);
#572=TRIMMED_CURVE('',#571,(PARAMETER_VALUE(0.)),(PARAMETER_VALUE(1.0)),.T.,.PARAMETER.);
#573=STYLED_ITEM('None', (#38), #572);
#574=CARTESIAN_POINT('',(530.79132080078,903.55065917969));
#575=DIRECTION('',(0.14092809036646,-0.99001983482437));
#576=VECTOR('',#575,0.01732377302248);
#577=LINE('',#574,#576);
#578=TRIMMED_CURVE('',#577,(PARAMETER_VALUE(0.)),(PARAMETER_VALUE(1.0)),.T.,.PARAMETER.);
#579=STYLED_ITEM('None', (#38), #578);
#580=CARTESIAN_POINT('',(530.79376220703,903.53350830078));
#581=DIRECTION('',(0.044174523064348,-0.9990238293014));
#582=VECTOR('',#581,0.01796186978848);
#583=LINE('',#580,#582);
#584=TRIMMED_CURVE('',#583,(PARAMETER_VALUE(0.)),(PARAMETER_VALUE(1.0)),.T.,.PARAMETER.);
#585=STYLED_ITEM('None', (#38), #584);
#586=CARTESIAN_POINT('',(530.79455566406,903.51556396484));
#587=DIRECTION('',(-0.041630544712181,-0.99913307309235));
#588=VECTOR('',#587,0.019059491936406);
#589=LINE('',#586,#588);
#590=TRIMMED_CURVE('',#589,(PARAMETER_VALUE(0.)),(PARAMETER_VALUE(1.0)),.T.,.PARAMETER.);
#591=STYLED_ITEM('None', (#38), #590);
#592=CARTESIAN_POINT('',(530.79376220703,903.49652099609));
#593=DIRECTION('',(-0.12948485630224,-0.99158139957766));
#594=VECTOR('',#593,0.017912024647008);
#595=LINE('',#592,#594);
#596=TRIMMED_CURVE('',#595,(PARAMETER_VALUE(0.)),(PARAMETER_VALUE(1.0)),.T.,.PARAMETER.);
#597=STYLED_ITEM('None', (#38), #596);
#598=CARTESIAN_POINT('',(530.79144287109,903.47875976563));
#599=DIRECTION('',(-0.22883687096227,-0.97346478441092));
#600=VECTOR('',#599,0.016803301092087);
#601=LINE('',#598,#600);
#602=TRIMMED_CURVE('',#601,(PARAMETER_VALUE(0.)),(PARAMETER_VALUE(1.0)),.T.,.PARAMETER.);
#603=STYLED_ITEM('None', (#38), #602);
#604=CARTESIAN_POINT('',(530.78759765625,903.46240234375));
#605=DIRECTION('',(-0.33440984517076,-0.94242774548125));
#606=VECTOR('',#605,0.016061410354881);
#607=LINE('',#604,#606);
#608=TRIMMED_CURVE('',#607,(PARAMETER_VALUE(0.)),(PARAMETER_VALUE(1.0)),.T.,.PARAMETER.);
#609=STYLED_ITEM('None', (#38), #608);
#610=CARTESIAN_POINT('',(530.7822265625,903.447265625));
#611=DIRECTION('',(-0.47144217987344,-0.88189697302813));
#612=VECTOR('',#611,0.063049345948913);
#613=LINE('',#610,#612);
#614=TRIMMED_CURVE('',#613,(PARAMETER_VALUE(0.)),(PARAMETER_VALUE(1.0)),.T.,.PARAMETER.);
#615=STYLED_ITEM('None', (#38), #614);
#616=CARTESIAN_POINT('',(530.75250244141,903.39166259766));
#617=DIRECTION('',(-0.64951689537986,-0.76034715927404));
#618=VECTOR('',#617,0.071041382376996);
#619=LINE('',#616,#618);
#620=TRIMMED_CURVE('',#619,(PARAMETER_VALUE(0.)),(PARAMETER_VALUE(1.0)),.T.,.PARAMETER.);
#621=STYLED_ITEM('None', (#38), #620);
#622=CARTESIAN_POINT('',(530.70635986328,903.33764648438));
#623=DIRECTION('',(-0.74182861667775,-0.67058951936187));
#624=VECTOR('',#623,0.10366854977827);
#625=LINE('',#622,#624);
#626=TRIMMED_CURVE('',#625,(PARAMETER_VALUE(0.)),(PARAMETER_VALUE(1.0)),.T.,.PARAMETER.);
#627=STYLED_ITEM('None', (#38), #626);
#628=CARTESIAN_POINT('',(530.62945556641,903.26812744141));
#629=DIRECTION('',(-0.77381826018425,-0.63340768877985));
#630=VECTOR('',#629,0.058683231692139);
#631=LINE('',#628,#630);
#632=TRIMMED_CURVE('',#631,(PARAMETER_VALUE(0.)),(PARAMETER_VALUE(1.0)),.T.,.PARAMETER.);
#633=STYLED_ITEM('None', (#38), #632);
#634=CARTESIAN_POINT('',(530.58404541016,903.23095703125));
#635=DIRECTION('',(-0.76142200428317,-0.64825653208695));
#636=VECTOR('',#635,0.043686891065837);
#637=LINE('',#634,#636);
#638=TRIMMED_CURVE('',#637,(PARAMETER_VALUE(0.)),(PARAMETER_VALUE(1.0)),.T.,.PARAMETER.);
#639=STYLED_ITEM('None', (#38), #638);
#640=CARTESIAN_POINT('',(530.55078125,903.20263671875));
#641=DIRECTION('',(-0.72972421635948,-0.68374159450669));
#642=VECTOR('',#641,0.030529111590118);
#643=LINE('',#640,#642);
#644=TRIMMED_CURVE('',#643,(PARAMETER_VALUE(0.)),(PARAMETER_VALUE(1.0)),.T.,.PARAMETER.);
#645=STYLED_ITEM('None', (#38), #644);
#646=CARTESIAN_POINT('',(530.52850341797,903.18176269531));
#647=DIRECTION('',(-0.62518054159207,-0.78048016657353));
#648=VECTOR('',#647,0.030655207236129);
#649=LINE('',#646,#648);
#650=TRIMMED_CURVE('',#649,(PARAMETER_VALUE(0.)),(PARAMETER_VALUE(1.0)),.T.,.PARAMETER.);
#651=STYLED_ITEM('None', (#38), #650);
#652=CARTESIAN_POINT('',(530.50933837891,903.15783691406));
#653=DIRECTION('',(1.,0.));
#654=VECTOR('',#653,0.2945556640625);
#655=LINE('',#652,#654);
#656=TRIMMED_CURVE('',#655,(PARAMETER_VALUE(0.)),(PARAMETER_VALUE(1.0)),.T.,.PARAMETER.);
#657=STYLED_ITEM('None', (#38), #656);
#658=CARTESIAN_POINT('',(527.94825748918,904.62820753765,0.));
#659=DIRECTION('',(0.,1.,0.));
#660=VECTOR('',#659,4.508955223827);
#661=LINE('',#658,#660);
#662=TRIMMED_CURVE('L180',#661,(PARAMETER_VALUE(0.)),(PARAMETER_VALUE(1.0)),.T.,.PARAMETER.);
#663=STYLED_ITEM('None', (#38), #662);
#664=CARTESIAN_POINT('',(528.34377987724,904.62820753765,0.));
#665=DIRECTION('',(-1.,-2.8743464631842E-13,0.));
#666=DIRECTION('',(-0.,0.,1.));
#667=AXIS2_PLACEMENT_3D('',#664,#666,#665);
#668=CIRCLE('',#667,0.39552238805509);
#669=TRIMMED_CURVE('Arc188',#668,(PARAMETER_VALUE(0.)),(PARAMETER_VALUE(1.5707963267946)),.T.,.PARAMETER.);
#670=STYLED_ITEM('None', (#38), #669);
#671=CARTESIAN_POINT('',(528.34377987724,909.53268514954,0.));
#672=DIRECTION('',(1.,0.,0.));
#673=VECTOR('',#672,1.7798507462473);
#674=LINE('',#671,#673);
#675=TRIMMED_CURVE('L194',#674,(PARAMETER_VALUE(0.)),(PARAMETER_VALUE(1.0)),.T.,.PARAMETER.);
#676=STYLED_ITEM('None', (#38), #675);
#677=CARTESIAN_POINT('',(531.07288435482,909.53268514954,0.));
#678=DIRECTION('',(1.,0.,0.));
#679=VECTOR('',#678,1.7798507462476);
#680=LINE('',#677,#679);
#681=TRIMMED_CURVE('L201',#680,(PARAMETER_VALUE(0.)),(PARAMETER_VALUE(1.0)),.T.,.PARAMETER.);
#682=STYLED_ITEM('None', (#38), #681);
#683=CARTESIAN_POINT('',(528.34377987724,909.13716276148,0.));
#684=DIRECTION('',(0.,1.,0.));
#685=DIRECTION('',(0.,0.,1.));
#686=AXIS2_PLACEMENT_3D('',#683,#685,#684);
#687=CIRCLE('',#686,0.39552238805509);
#688=TRIMMED_CURVE('Arc208',#687,(PARAMETER_VALUE(0.)),(PARAMETER_VALUE(1.5707963267949)),.T.,.PARAMETER.);
#689=STYLED_ITEM('None', (#38), #688);
#690=CARTESIAN_POINT('',(530.12363062349,909.69089410476,0.));
#691=DIRECTION('',(1.,0.,0.));
#692=VECTOR('',#691,0.94925373133196);
#693=LINE('',#690,#692);
#694=TRIMMED_CURVE('L214',#693,(PARAMETER_VALUE(0.)),(PARAMETER_VALUE(1.0)),.T.,.PARAMETER.);
#695=STYLED_ITEM('None', (#38), #694);
#696=CARTESIAN_POINT('',(533.24825748912,909.13716276148,0.));
#697=DIRECTION('',(0.,-1.,0.));
#698=VECTOR('',#697,4.508955223827);
#699=LINE('',#696,#698);
#700=TRIMMED_CURVE('L221',#699,(PARAMETER_VALUE(0.)),(PARAMETER_VALUE(1.0)),.T.,.PARAMETER.);
#701=STYLED_ITEM('None', (#38), #700);
#702=CARTESIAN_POINT('',(532.85273510107,904.62820753765,0.));
#703=DIRECTION('',(0.,-1.,0.));
#704=DIRECTION('',(0.,-0.,1.));
#705=AXIS2_PLACEMENT_3D('',#702,#704,#703);
#706=CIRCLE('',#705,0.39552238805509);
#707=TRIMMED_CURVE('Arc228',#706,(PARAMETER_VALUE(0.)),(PARAMETER_VALUE(1.5707963267949)),.T.,.PARAMETER.);
#708=STYLED_ITEM('None', (#38), #707);
#709=CARTESIAN_POINT('',(532.85273510107,909.13716276148,0.));
#710=DIRECTION('',(1.,-2.8743464631842E-13,0.));
#711=DIRECTION('',(0.,0.,1.));
#712=AXIS2_PLACEMENT_3D('',#709,#711,#710);
#713=CIRCLE('',#712,0.39552238805509);
#714=TRIMMED_CURVE('Arc234',#713,(PARAMETER_VALUE(0.)),(PARAMETER_VALUE(1.5707963267952)),.T.,.PARAMETER.);
#715=STYLED_ITEM('None', (#38), #714);
#716=CARTESIAN_POINT('',(532.85273510107,904.2326851496,0.));
#717=DIRECTION('',(-1.,0.,0.));
#718=VECTOR('',#717,1.7798507462475);
#719=LINE('',#716,#718);
#720=TRIMMED_CURVE('L241',#719,(PARAMETER_VALUE(0.)),(PARAMETER_VALUE(1.0)),.T.,.PARAMETER.);
#721=STYLED_ITEM('None', (#38), #720);
#722=CARTESIAN_POINT('',(530.12363062349,904.2326851496,0.));
#723=DIRECTION('',(-1.,0.,0.));
#724=VECTOR('',#723,1.7798507462473);
#725=LINE('',#722,#724);
#726=TRIMMED_CURVE('L248',#725,(PARAMETER_VALUE(0.)),(PARAMETER_VALUE(1.0)),.T.,.PARAMETER.);
#727=STYLED_ITEM('None', (#38), #726);
#728=CARTESIAN_POINT('',(531.07288435482,904.07447619438,0.));
#729=DIRECTION('',(-1.,0.,0.));
#730=VECTOR('',#729,0.94925373133219);
#731=LINE('',#728,#730);
#732=TRIMMED_CURVE('L254',#731,(PARAMETER_VALUE(0.)),(PARAMETER_VALUE(1.0)),.T.,.PARAMETER.);
#733=STYLED_ITEM('None', (#38), #732);
#734=CARTESIAN_POINT('',(531.07288435482,904.07447619438,0.));
#735=DIRECTION('',(0.,1.,0.));
#736=VECTOR('',#735,0.15820895522211);
#737=LINE('',#734,#736);
#738=TRIMMED_CURVE('L261',#737,(PARAMETER_VALUE(0.)),(PARAMETER_VALUE(1.0)),.T.,.PARAMETER.);
#739=STYLED_ITEM('None', (#38), #738);
#740=CARTESIAN_POINT('',(531.07288435482,909.53268514954,0.));
#741=DIRECTION('',(0.,1.,0.));
#742=VECTOR('',#741,0.15820895522199);
#743=LINE('',#740,#742);
#744=TRIMMED_CURVE('L268',#743,(PARAMETER_VALUE(0.)),(PARAMETER_VALUE(1.0)),.T.,.PARAMETER.);
#745=STYLED_ITEM('None', (#38), #744);
#746=CARTESIAN_POINT('',(530.12363062349,904.07447619438,0.));
#747=DIRECTION('',(0.,1.,0.));
#748=VECTOR('',#747,0.15820895522211);
#749=LINE('',#746,#748);
#750=TRIMMED_CURVE('L274',#749,(PARAMETER_VALUE(0.)),(PARAMETER_VALUE(1.0)),.T.,.PARAMETER.);
#751=STYLED_ITEM('None', (#38), #750);
#752=CARTESIAN_POINT('',(530.12363062349,909.53268514954,0.));
#753=DIRECTION('',(0.,1.,0.));
#754=VECTOR('',#753,0.15820895522199);
#755=LINE('',#752,#754);
#756=TRIMMED_CURVE('L281',#755,(PARAMETER_VALUE(0.)),(PARAMETER_VALUE(1.0)),.T.,.PARAMETER.);
#757=STYLED_ITEM('None', (#38), #756);
#758=CARTESIAN_POINT('',(530.59820626644,908.96893422421,0.));
#759=DIRECTION('',(0.,-1.,0.));
#760=VECTOR('',#759,0.28499756211875);
#761=LINE('',#758,#760);
#762=TRIMMED_CURVE('L288',#761,(PARAMETER_VALUE(0.)),(PARAMETER_VALUE(1.0)),.T.,.PARAMETER.);
#763=STYLED_ITEM('None', (#38), #762);
#764=CARTESIAN_POINT('',(530.59820626644,908.11650409979,0.));
#765=DIRECTION('',(-1.,-3.8202774277352E-13,-0.));
#766=DIRECTION('',(-0.,0.,1.));
#767=AXIS2_PLACEMENT_3D('',#764,#766,#765);
#768=ELLIPSE('',#767,0.54879832607857,0.38833405673585);
#769=TRIMMED_CURVE('Cv301',#768,(PARAMETER_VALUE(1.2897245834932)),(PARAMETER_VALUE(4.4197784703399)),.T.,.PARAMETER.);
#770=STYLED_ITEM('None', (#38), #769);
#771=CARTESIAN_POINT('',(530.59820626644,907.63876405423,0.));
#772=DIRECTION('',(-1.,4.2428005553319E-12,-0.));
#773=DIRECTION('',(-0.,0.,1.));
#774=AXIS2_PLACEMENT_3D('',#771,#773,#772);
#775=ELLIPSE('',#774,0.54879832608143,0.38833405673694);
#776=TRIMMED_CURVE('Cv321',#775,(PARAMETER_VALUE(1.2897245835032)),(PARAMETER_VALUE(4.9934607236842)),.T.,.PARAMETER.);
#777=STYLED_ITEM('None', (#38), #776);
#778=CARTESIAN_POINT('',(530.59820626644,907.11166991415,0.));
#779=DIRECTION('',(-1.,4.2299219682462E-12,-0.));
#780=DIRECTION('',(-0.,0.,1.));
#781=AXIS2_PLACEMENT_3D('',#778,#780,#779);
#782=ELLIPSE('',#781,0.54879832608102,0.388334056737);
#783=TRIMMED_CURVE('Cv341',#782,(PARAMETER_VALUE(1.2897245835023)),(PARAMETER_VALUE(4.993460723685)),.T.,.PARAMETER.);
#784=STYLED_ITEM('None', (#38), #783);
#785=CARTESIAN_POINT('',(530.59820626644,906.61023951251,0.));
#786=DIRECTION('',(-1.,3.4251768088467E-12,-0.));
#787=DIRECTION('',(-0.,0.,1.));
#788=AXIS2_PLACEMENT_3D('',#785,#787,#786);
#789=ELLIPSE('',#788,0.54879832608135,0.38833405673694);
#790=TRIMMED_CURVE('Cv361',#789,(PARAMETER_VALUE(1.2897245835024)),(PARAMETER_VALUE(4.9934607236835)),.T.,.PARAMETER.);
#791=STYLED_ITEM('None', (#38), #790);
#792=CARTESIAN_POINT('',(530.59820626644,906.15955156505,0.));
#793=DIRECTION('',(-1.,4.2432724001173E-12,-0.));
#794=DIRECTION('',(-0.,0.,1.));
#795=AXIS2_PLACEMENT_3D('',#792,#794,#793);
#796=ELLIPSE('',#795,0.54879832607958,0.38833405673646);
#797=TRIMMED_CURVE('Cv381',#796,(PARAMETER_VALUE(1.2897245834994)),(PARAMETER_VALUE(4.9934607236879)),.T.,.PARAMETER.);
#798=STYLED_ITEM('None', (#38), #797);
#799=CARTESIAN_POINT('',(530.59820626644,904.79643607492,0.));
#800=DIRECTION('',(0.,1.,0.));
#801=VECTOR('',#800,0.26975883049124);
#802=LINE('',#799,#801);
#803=TRIMMED_CURVE('L394',#802,(PARAMETER_VALUE(0.)),(PARAMETER_VALUE(1.0)),.T.,.PARAMETER.);
#804=STYLED_ITEM('None', (#38), #803);
#805=CARTESIAN_POINT('',(530.75650865454,905.26179988787,0.));
#806=CARTESIAN_POINT('',(531.27895689755,905.37317150941,0.));
#807=CARTESIAN_POINT('',(531.12458199904,905.74349642731,0.));
#808=CARTESIAN_POINT('',(530.97020710052,906.11382134522,0.));
#809=CARTESIAN_POINT('',(530.44597757145,906.00672279282,0.));
#810=(BOUNDED_CURVE()B_SPLINE_CURVE(2,(#805,#806,#807,#808,#809),.UNSPECIFIED.,.F.,.U.)B_SPLINE_CURVE_WITH_KNOTS((3,2,3),(0.,0.5,1.),.UNSPECIFIED.)CURVE()GEOMETRIC_REPRESENTATION_ITEM()RATIONAL_B_SPLINE_CURVE((1.,0.70914362133661,1.,0.70914362133661,1.))REPRESENTATION_ITEM('Cv408'));
#811=STYLED_ITEM('None', (#38), #810);
#812=CARTESIAN_POINT('',(530.44597757145,907.87763407701,0.));
#813=DIRECTION('',(-8.4698514924333E-13,1.,0.));
#814=DIRECTION('',(0.,0.,1.));
#815=AXIS2_PLACEMENT_3D('',#812,#814,#813);
#816=CIRCLE('',#815,0.13422530232464);
#817=TRIMMED_CURVE('Arc421',#816,(PARAMETER_VALUE(0.)),(PARAMETER_VALUE(3.1415926535881)),.T.,.PARAMETER.);
#818=STYLED_ITEM('None', (#38), #817);
#819=CARTESIAN_POINT('',(530.44597757145,907.37521698419,0.));
#820=DIRECTION('',(1.0377786268672E-12,1.,0.));
#821=DIRECTION('',(0.,0.,1.));
#822=AXIS2_PLACEMENT_3D('',#819,#821,#820);
#823=CIRCLE('',#822,0.10954825506955);
#824=TRIMMED_CURVE('Arc428',#823,(PARAMETER_VALUE(0.)),(PARAMETER_VALUE(3.1415926535919)),.T.,.PARAMETER.);
#825=STYLED_ITEM('None', (#38), #824);
#826=CARTESIAN_POINT('',(530.44597757145,906.86095471333,0.));
#827=DIRECTION('',(0.,1.,0.));
#828=DIRECTION('',(0.,0.,1.));
#829=AXIS2_PLACEMENT_3D('',#826,#828,#827);
#830=CIRCLE('',#829,0.12238012428947);
#831=TRIMMED_CURVE('Arc434',#830,(PARAMETER_VALUE(0.)),(PARAMETER_VALUE(3.1415926535898)),.T.,.PARAMETER.);
#832=STYLED_ITEM('None', (#38), #831);
#833=CARTESIAN_POINT('',(530.44597757145,906.38489553878,0.));
#834=DIRECTION('',(7.6944702475563E-13,1.,0.));
#835=DIRECTION('',(0.,0.,1.));
#836=AXIS2_PLACEMENT_3D('',#833,#835,#834);
#837=CIRCLE('',#836,0.14775135137827);
#838=TRIMMED_CURVE('Arc441',#837,(PARAMETER_VALUE(0.)),(PARAMETER_VALUE(3.1415926535913)),.T.,.PARAMETER.);
#839=STYLED_ITEM('None', (#38), #838);
#840=CARTESIAN_POINT('',(530.44597757145,905.89658951638,0.));
#841=DIRECTION('',(-1.0322660089451E-12,1.,0.));
#842=DIRECTION('',(0.,0.,1.));
#843=AXIS2_PLACEMENT_3D('',#840,#842,#841);
#844=CIRCLE('',#843,0.11013327643899);
#845=TRIMMED_CURVE('Arc448',#844,(PARAMETER_VALUE(0.)),(PARAMETER_VALUE(3.1415926535877)),.T.,.PARAMETER.);
#846=STYLED_ITEM('None', (#38), #845);
#847=CARTESIAN_POINT('',(530.59825748915,910.51777296219,0.));
#848=DIRECTION('',(1.,8.7516168482529E-14,-0.));
#849=DIRECTION('',(0.,0.,1.));
#850=AXIS2_PLACEMENT_3D('',#847,#849,#848);
#851=CIRCLE('',#850,0.49999999999991);
#852=TRIMMED_CURVE('C469',#851,(PARAMETER_VALUE(0.)),(PARAMETER_VALUE(6.2831853071796)),.T.,.PARAMETER.);
#853=STYLED_ITEM('None', (#38), #852);
#854=CARTESIAN_POINT('',(530.61001696398,909.21865508322,0.));
#855=DIRECTION('',(1.,-0.,-0.));
#856=DIRECTION('',(0.,-0.,1.));
#857=AXIS2_PLACEMENT_3D('',#854,#856,#855);
#858=CIRCLE('',#857,0.2499999999999);
#859=TRIMMED_CURVE('C485',#858,(PARAMETER_VALUE(0.)),(PARAMETER_VALUE(6.2831853071796)),.T.,.PARAMETER.);
#860=STYLED_ITEM('None', (#38), #859);
#861=CARTESIAN_POINT('',(530.59825748915,903.27999157296,0.));
#862=DIRECTION('',(1.,8.7516168482514E-14,-0.));
#863=DIRECTION('',(0.,0.,1.));
#864=AXIS2_PLACEMENT_3D('',#861,#863,#862);
#865=CIRCLE('',#864,0.50000000000008);
#866=TRIMMED_CURVE('C504',#865,(PARAMETER_VALUE(0.)),(PARAMETER_VALUE(6.2831853071796)),.T.,.PARAMETER.);
#867=STYLED_ITEM('None', (#38), #866);
#868=CARTESIAN_POINT('',(530.61001696398,904.54671521591,0.));
#869=DIRECTION('',(1.,-0.,-0.));
#870=DIRECTION('',(0.,-0.,1.));
#871=AXIS2_PLACEMENT_3D('',#868,#870,#869);
#872=CIRCLE('',#871,0.2499999999999);
#873=TRIMMED_CURVE('C509',#872,(PARAMETER_VALUE(0.)),(PARAMETER_VALUE(6.2831853071796)),.T.,.PARAMETER.);
#874=STYLED_ITEM('None', (#38), #873);
#875=CARTESIAN_POINT('',(530.79820626644,908.68393666209,0.));
#876=DIRECTION('',(-1.,5.6843418860827E-13,0.));
#877=DIRECTION('',(-0.,0.,1.));
#878=AXIS2_PLACEMENT_3D('',#875,#877,#876);
#879=CIRCLE('',#878,0.20000000000001);
#880=TRIMMED_CURVE('Arc515',#879,(PARAMETER_VALUE(0.)),(PARAMETER_VALUE(1.3607675344989)),.T.,.PARAMETER.);
#881=STYLED_ITEM('None', (#38), #880);
#882=CARTESIAN_POINT('',(530.79820626644,905.06619490541,0.));
#883=DIRECTION('',(-0.20848805951587,0.97802491227949,0.));
#884=DIRECTION('',(0.,0.,1.));
#885=AXIS2_PLACEMENT_3D('',#882,#884,#883);
#886=CIRCLE('',#885,0.20000000000031);
#887=TRIMMED_CURVE('Arc520',#886,(PARAMETER_VALUE(0.)),(PARAMETER_VALUE(1.3607675344977)),.T.,.PARAMETER.);
#888=STYLED_ITEM('None', (#38), #887);
#889=GEOMETRIC_CURVE_SET('None',(#34,#44,#50,#56,#62,#68,#74,#80,#86,#92,#98,#104,#110,#116,#122,#128,#134,#140,#146,#152,#158,#164,#170,#176,#182,#188,#194,#200,#206,#212,#218,#224,#230,#236,#242,#248,#254,#260,#266,#272,#278,#284,#290,#296,#302,#308,#314,#320,#326,#332,#338,#344,#350,#356,#362,#368,#374,#380,#386,#392,#398,#404,#410,#416,#422,#428,#434,#440,#446,#452,#458,#464,#470,#476,#482,#488,#494,#500,#506,#512,#518,#524,#530,#536,#542,#548,#554,#560,#566,#572,#578,#584,#590,#596,#602,#608,#614,#620,#626,#632,#638,#644,#650,#656,#662,#669,#675,#681,#688,#694,#700,#707,#714,#720,#726,#732,#738,#744,#750,#756,#762,#769,#776,#783,#790,#797,#803,#810,#817,#824,#831,#838,#845,#852,#859,#866,#873,#880,#887));
#890=GEOMETRICALLY_BOUNDED_WIREFRAME_SHAPE_REPRESENTATION('None',(#889),#5);
#891=SHAPE_REPRESENTATION_RELATIONSHIP('None','None',#28,#890);
#892=PRESENTATION_LAYER_ASSIGNMENT('0','',(#34,#44,#50,#56,#62,#68,#74,#80,#86,#92,#98,#104,#110,#116,#122,#128,#134,#140,#146,#152,#158,#164,#170,#176,#182,#188,#194,#200,#206,#212,#218,#224,#230,#236,#242,#248,#254,#260,#266,#272,#278,#284,#290,#296,#302,#308,#314,#320,#326,#332,#338,#344,#350,#356,#362,#368,#374,#380,#386,#392,#398,#404,#410,#416,#422,#428,#434,#440,#446,#452,#458,#464,#470,#476,#482,#488,#494,#500,#506,#512,#518,#524,#530,#536,#542,#548,#554,#560,#566,#572,#578,#584,#590,#596,#602,#608,#614,#620,#626,#632,#638,#644,#650,#656,#662,#669,#675,#681,#688,#694,#700,#707,#714,#720,#726,#732,#738,#744,#750,#756,#762,#769,#776,#783,#790,#797,#803,#810,#817,#824,#831,#838,#845,#852,#859,#866,#873,#880,#887));
#893=MECHANICAL_DESIGN_GEOMETRIC_PRESENTATION_REPRESENTATION('',(#39,#45,#51,#57,#63,#69,#75,#81,#87,#93,#99,#105,#111,#117,#123,#129,#135,#141,#147,#153,#159,#165,#171,#177,#183,#189,#195,#201,#207,#213,#219,#225,#231,#237,#243,#249,#255,#261,#267,#273,#279,#285,#291,#297,#303,#309,#315,#321,#327,#333,#339,#345,#351,#357,#363,#369,#375,#381,#387,#393,#399,#405,#411,#417,#423,#429,#435,#441,#447,#453,#459,#465,#471,#477,#483,#489,#495,#501,#507,#513,#519,#525,#531,#537,#543,#549,#555,#561,#567,#573,#579,#585,#591,#597,#603,#609,#615,#621,#627,#633,#639,#645,#651,#657,#663,#670,#676,#682,#689,#695,#701,#708,#715,#721,#727,#733,#739,#745,#751,#757,#763,#770,#777,#784,#791,#798,#804,#811,#818,#825,#832,#839,#846,#853,#860,#867,#874,#881,#888),#5);
ENDSEC;
END-ISO-10303-21;
