ISO-10303-21;
HEADER;
FILE_DESCRIPTION (( 'STEP AP214' ),
    '1' );
FILE_NAME ('C0603X821F5GAC7867.STEP',
    '2019-12-24T22:28:16',
    ( '' ),
    ( '' ),
    'SwSTEP 2.0',
    'SolidWorks 2018',
    '' );
FILE_SCHEMA (( 'AUTOMOTIVE_DESIGN' ));
ENDSEC;

DATA;
#1 = CARTESIAN_POINT ( 'NONE',  ( -0.7599999999999998979, 0.9499999999999999556, 0.3599999999999999312 ) ) ;
#2 = LINE ( 'NONE', #886, #248 ) ;
#3 = ORIENTED_EDGE ( 'NONE', *, *, #670, .F. ) ;
#4 = EDGE_CURVE ( 'NONE', #533, #408, #383, .T. ) ;
#5 = CARTESIAN_POINT ( 'NONE',  ( 0.3499999999999999223, 0.9100000000000000311, 0.3999999999999999112 ) ) ;
#6 = DIRECTION ( 'NONE',  ( 0.0000000000000000000, 1.000000000000000000, 0.0000000000000000000 ) ) ;
#7 = SURFACE_SIDE_STYLE ('',( #1039 ) ) ;
#8 = SURFACE_STYLE_FILL_AREA ( #1217 ) ;
#9 = ADVANCED_FACE ( 'NONE', ( #750 ), #1040, .T. ) ;
#10 = VERTEX_POINT ( 'NONE', #1177 ) ;
#11 = EDGE_CURVE ( 'NONE', #257, #937, #643, .T. ) ;
#12 = LINE ( 'NONE', #145, #1220 ) ;
#13 = DIRECTION ( 'NONE',  ( 0.0000000000000000000, 0.0000000000000000000, -1.000000000000000000 ) ) ;
#14 = AXIS2_PLACEMENT_3D ( 'NONE', #942, #51, #1138 ) ;
#15 = DIRECTION ( 'NONE',  ( 1.000000000000000000, 0.0000000000000000000, 0.0000000000000000000 ) ) ;
#16 = CARTESIAN_POINT ( 'NONE',  ( 0.0000000000000000000, 0.9100000000000000311, 0.3599999999999999312 ) ) ;
#17 = CARTESIAN_POINT ( 'NONE',  ( -0.3499999999999999223, 0.9499999999999999556, 0.3999999999999999112 ) ) ;
#18 = EDGE_CURVE ( 'NONE', #655, #415, #862, .T. ) ;
#19 = DIRECTION ( 'NONE',  ( 0.0000000000000000000, -1.000000000000000000, 0.0000000000000000000 ) ) ;
#20 = ORIENTED_EDGE ( 'NONE', *, *, #379, .F. ) ;
#21 = AXIS2_PLACEMENT_3D ( 'NONE', #1201, #31, #509 ) ;
#22 = ORIENTED_EDGE ( 'NONE', *, *, #319, .F. ) ;
#23 = CARTESIAN_POINT ( 'NONE',  ( -0.7999999999999999334, 0.9499999999999999556, 0.3999999999999999112 ) ) ;
#24 = FILL_AREA_STYLE_COLOUR ( '', #641 ) ;
#25 = CARTESIAN_POINT ( 'NONE',  ( 0.3500000000000000333, 0.0000000000000000000, -0.3999999999999999112 ) ) ;
#26 = FACE_OUTER_BOUND ( 'NONE', #1187, .T. ) ;
#27 = VERTEX_POINT ( 'NONE', #107 ) ;
#28 = FACE_OUTER_BOUND ( 'NONE', #1176, .T. ) ;
#29 = ORIENTED_EDGE ( 'NONE', *, *, #1262, .F. ) ;
#30 = VERTEX_POINT ( 'NONE', #1278 ) ;
#31 = DIRECTION ( 'NONE',  ( 1.355252715606881036E-16, -0.0000000000000000000, 1.000000000000000000 ) ) ;
#32 = EDGE_CURVE ( 'NONE', #1044, #165, #2, .T. ) ;
#33 = LINE ( 'NONE', #581, #970 ) ;
#34 = DIRECTION ( 'NONE',  ( 0.0000000000000000000, -1.000000000000000000, 0.0000000000000000000 ) ) ;
#35 = EDGE_LOOP ( 'NONE', ( #183, #681, #1194, #357 ) ) ;
#36 = UNCERTAINTY_MEASURE_WITH_UNIT (LENGTH_MEASURE( 1.000000000000000082E-05 ), #122, 'distance_accuracy_value', 'NONE');
#37 = DIRECTION ( 'NONE',  ( 0.0000000000000000000, 0.0000000000000000000, 1.000000000000000000 ) ) ;
#38 = EDGE_CURVE ( 'NONE', #573, #710, #1005, .T. ) ;
#39 = DIRECTION ( 'NONE',  ( 1.505836350674312234E-16, 0.0000000000000000000, 1.000000000000000000 ) ) ;
#40 = CARTESIAN_POINT ( 'NONE',  ( 0.7599999999999998979, 0.0000000000000000000, 0.3599999999999999312 ) ) ;
#41 = VERTEX_POINT ( 'NONE', #798 ) ;
#42 = AXIS2_PLACEMENT_3D ( 'NONE', #513, #175, #297 ) ;
#43 = CIRCLE ( 'NONE', #321, 0.03999999999999999389 ) ;
#44 = VECTOR ( 'NONE', #877, 1000.000000000000000 ) ;
#45 = ORIENTED_EDGE ( 'NONE', *, *, #570, .T. ) ;
#46 = ADVANCED_FACE ( 'NONE', ( #472 ), #994, .T. ) ;
#47 = LINE ( 'NONE', #1159, #773 ) ;
#48 = CARTESIAN_POINT ( 'NONE',  ( 0.3499999999999999223, 0.04000000000000021594, 0.3999999999999999112 ) ) ;
#49 = DIRECTION ( 'NONE',  ( -0.0000000000000000000, 1.000000000000000000, 0.0000000000000000000 ) ) ;
#50 = EDGE_CURVE ( 'NONE', #10, #455, #215, .T. ) ;
#51 = DIRECTION ( 'NONE',  ( 1.000000000000000000, -0.0000000000000000000, -1.355252715606881036E-16 ) ) ;
#52 = ORIENTED_EDGE ( 'NONE', *, *, #1215, .F. ) ;
#53 = DIRECTION ( 'NONE',  ( 0.0000000000000000000, 1.000000000000000000, 0.0000000000000000000 ) ) ;
#54 = DIRECTION ( 'NONE',  ( 1.000000000000000000, 0.0000000000000000000, 1.355252715606879063E-16 ) ) ;
#55 = EDGE_CURVE ( 'NONE', #401, #408, #133, .T. ) ;
#56 = ORIENTED_EDGE ( 'NONE', *, *, #610, .T. ) ;
#57 = AXIS2_PLACEMENT_3D ( 'NONE', #868, #1246, #858 ) ;
#58 = EDGE_LOOP ( 'NONE', ( #361, #411, #1219 ) ) ;
#59 = VECTOR ( 'NONE', #657, 1000.000000000000000 ) ;
#60 = ORIENTED_EDGE ( 'NONE', *, *, #866, .F. ) ;
#61 = DIRECTION ( 'NONE',  ( 1.000000000000000000, -0.0000000000000000000, -1.355252715606881036E-16 ) ) ;
#62 = VECTOR ( 'NONE', #871, 1000.000000000000000 ) ;
#63 = AXIS2_PLACEMENT_3D ( 'NONE', #500, #709, #300 ) ;
#64 = DIRECTION ( 'NONE',  ( 1.000000000000000000, 0.0000000000000000000, 0.0000000000000000000 ) ) ;
#65 =( NAMED_UNIT ( * ) SI_UNIT ( $, .STERADIAN. ) SOLID_ANGLE_UNIT ( ) );
#66 = ORIENTED_EDGE ( 'NONE', *, *, #1196, .T. ) ;
#67 = DIRECTION ( 'NONE',  ( 1.000000000000000000, 0.0000000000000000000, 0.0000000000000000000 ) ) ;
#68 = AXIS2_PLACEMENT_3D ( 'NONE', #1011, #1007, #37 ) ;
#69 = DIRECTION ( 'NONE',  ( 0.0000000000000000000, 1.000000000000000000, 0.0000000000000000000 ) ) ;
#70 = LINE ( 'NONE', #557, #1205 ) ;
#71 = ORIENTED_EDGE ( 'NONE', *, *, #1091, .T. ) ;
#72 = DIRECTION ( 'NONE',  ( -1.000000000000000000, 0.0000000000000000000, 0.0000000000000000000 ) ) ;
#73 = DIRECTION ( 'NONE',  ( 0.0000000000000000000, 0.0000000000000000000, 1.000000000000000000 ) ) ;
#74 = EDGE_CURVE ( 'NONE', #937, #1111, #718, .T. ) ;
#75 = ORIENTED_EDGE ( 'NONE', *, *, #762, .F. ) ;
#76 = AXIS2_PLACEMENT_3D ( 'NONE', #890, #1268, #1090 ) ;
#77 = CARTESIAN_POINT ( 'NONE',  ( 0.7999999999999999334, 0.03999999999999999389, 0.3999999999999999112 ) ) ;
#78 = DIRECTION ( 'NONE',  ( -1.000000000000000000, -0.0000000000000000000, -0.0000000000000000000 ) ) ;
#79 = DIRECTION ( 'NONE',  ( 0.0000000000000000000, 1.000000000000000000, 0.0000000000000000000 ) ) ;
#80 = ORIENTED_EDGE ( 'NONE', *, *, #272, .T. ) ;
#81 = EDGE_CURVE ( 'NONE', #710, #10, #737, .T. ) ;
#82 = CARTESIAN_POINT ( 'NONE',  ( -0.7599999999999998979, 0.0000000000000000000, 0.3599999999999999312 ) ) ;
#83 = ORIENTED_EDGE ( 'NONE', *, *, #176, .F. ) ;
#84 = ADVANCED_FACE ( 'NONE', ( #972 ), #922, .T. ) ;
#85 = CARTESIAN_POINT ( 'NONE',  ( 0.7599999999999998979, 0.9499999999999999556, 0.3599999999999999312 ) ) ;
#86 = VECTOR ( 'NONE', #1076, 1000.000000000000000 ) ;
#87 = ORIENTED_EDGE ( 'NONE', *, *, #32, .T. ) ;
#88 = ORIENTED_EDGE ( 'NONE', *, *, #812, .F. ) ;
#89 = LINE ( 'NONE', #110, #656 ) ;
#90 = CARTESIAN_POINT ( 'NONE',  ( 0.3499999999999999223, 0.9499999999999999556, 0.3599999999999999312 ) ) ;
#91 = LINE ( 'NONE', #458, #412 ) ;
#92 = CARTESIAN_POINT ( 'NONE',  ( -0.7600000000000000089, 0.04000000000000000083, -0.3599999999999999312 ) ) ;
#93 = VECTOR ( 'NONE', #407, 1000.000000000000000 ) ;
#94 = ADVANCED_FACE ( 'NONE', ( #1027 ), #413, .F. ) ;
#95 = ADVANCED_FACE ( 'NONE', ( #1243 ), #1183, .T. ) ;
#96 = EDGE_CURVE ( 'NONE', #165, #207, #892, .T. ) ;
#97 = CARTESIAN_POINT ( 'NONE',  ( -0.3499999999999999223, 0.04000000000000043104, 0.3866666666666665475 ) ) ;
#98 = ORIENTED_EDGE ( 'NONE', *, *, #1004, .F. ) ;
#99 = ADVANCED_FACE ( 'NONE', ( #400 ), #1125, .T. ) ;
#100 = CARTESIAN_POINT ( 'NONE',  ( 0.0000000000000000000, 0.0000000000000000000, 0.0000000000000000000 ) ) ;
#101 = LINE ( 'NONE', #811, #914 ) ;
#102 = EDGE_LOOP ( 'NONE', ( #752, #317, #813 ) ) ;
#103 = AXIS2_PLACEMENT_3D ( 'NONE', #947, #273, #72 ) ;
#104 = CARTESIAN_POINT ( 'NONE',  ( 0.7599999999999998979, 0.03999999999999999389, 0.3599999999999999312 ) ) ;
#105 = VECTOR ( 'NONE', #1216, 1000.000000000000000 ) ;
#106 = ADVANCED_FACE ( 'NONE', ( #629 ), #1154, .T. ) ;
#107 = CARTESIAN_POINT ( 'NONE',  ( 0.7600000000000000089, 0.9100000000000000311, -0.3999999999999999112 ) ) ;
#108 = CIRCLE ( 'NONE', #216, 0.03999999999999999389 ) ;
#109 = EDGE_CURVE ( 'NONE', #546, #501, #628, .T. ) ;
#110 = CARTESIAN_POINT ( 'NONE',  ( -0.7999999999999999334, 0.03999999999999999389, 0.3999999999999999112 ) ) ;
#111 = APPLICATION_CONTEXT ( 'automotive_design' ) ;
#112 = CARTESIAN_POINT ( 'NONE',  ( -0.7600000000000000089, 0.9100000000000000311, -0.3599999999999999312 ) ) ;
#113 = FILL_AREA_STYLE_COLOUR ( '', #1031 ) ;
#114 = VERTEX_POINT ( 'NONE', #1003 ) ;
#115 = FACE_OUTER_BOUND ( 'NONE', #102, .T. ) ;
#116 = DIRECTION ( 'NONE',  ( 1.355252715606881036E-16, -0.0000000000000000000, -1.000000000000000000 ) ) ;
#117 = ORIENTED_EDGE ( 'NONE', *, *, #379, .T. ) ;
#118 = EDGE_CURVE ( 'NONE', #1223, #27, #108, .T. ) ;
#119 = EDGE_LOOP ( 'NONE', ( #238, #149, #464 ) ) ;
#120 = ORIENTED_EDGE ( 'NONE', *, *, #81, .T. ) ;
#121 = CARTESIAN_POINT ( 'NONE',  ( 0.7600000000000000089, 0.04000000000000000083, -0.3599999999999999312 ) ) ;
#122 =( LENGTH_UNIT ( ) NAMED_UNIT ( * ) SI_UNIT ( .MILLI., .METRE. ) );
#123 = VECTOR ( 'NONE', #675, 1000.000000000000000 ) ;
#124 = CARTESIAN_POINT ( 'NONE',  ( 0.7600000000000000089, 0.9100000000000000311, -0.3599999999999999312 ) ) ;
#125 = AXIS2_PLACEMENT_3D ( 'NONE', #23, #1214, #140 ) ;
#126 = ORIENTED_EDGE ( 'NONE', *, *, #1168, .F. ) ;
#127 = DIRECTION ( 'NONE',  ( 0.0000000000000000000, 0.0000000000000000000, 1.000000000000000000 ) ) ;
#128 = ORIENTED_EDGE ( 'NONE', *, *, #389, .F. ) ;
#129 = EDGE_LOOP ( 'NONE', ( #117, #1134, #984, #1080 ) ) ;
#130 = CARTESIAN_POINT ( 'NONE',  ( 500000.0000000000582, 0.03999999999999999389, -0.3866666667100346899 ) ) ;
#131 =( GEOMETRIC_REPRESENTATION_CONTEXT ( 3 ) GLOBAL_UNCERTAINTY_ASSIGNED_CONTEXT ( ( #1178 ) ) GLOBAL_UNIT_ASSIGNED_CONTEXT ( ( #1142, #430, #631 ) ) REPRESENTATION_CONTEXT ( 'NONE', 'WORKASPACE' ) );
#132 = SURFACE_STYLE_USAGE ( .BOTH. , #1149 ) ;
#133 = LINE ( 'NONE', #905, #765 ) ;
#134 = EDGE_CURVE ( 'NONE', #1223, #207, #775, .T. ) ;
#135 = DIRECTION ( 'NONE',  ( 1.000000000000000000, 0.0000000000000000000, -8.673617379884036705E-17 ) ) ;
#136 = DIRECTION ( 'NONE',  ( -1.000000000000000000, 0.0000000000000000000, 0.0000000000000000000 ) ) ;
#137 = AXIS2_PLACEMENT_3D ( 'NONE', #736, #69, #1063 ) ;
#138 = VERTEX_POINT ( 'NONE', #920 ) ;
#139 = VERTEX_POINT ( 'NONE', #547 ) ;
#140 = DIRECTION ( 'NONE',  ( -1.000000000000000000, 0.0000000000000000000, -0.0000000000000000000 ) ) ;
#141 = CIRCLE ( 'NONE', #644, 0.03999999999999999389 ) ;
#142 = EDGE_LOOP ( 'NONE', ( #126, #1267, #758 ) ) ;
#143 = VERTEX_POINT ( 'NONE', #339 ) ;
#144 = CIRCLE ( 'NONE', #635, 0.02666666666666664756 ) ;
#145 = CARTESIAN_POINT ( 'NONE',  ( -0.8000000000000000444, 0.9499999999999999556, -0.3599999999999999312 ) ) ;
#146 = EDGE_CURVE ( 'NONE', #600, #207, #194, .T. ) ;
#147 = CARTESIAN_POINT ( 'NONE',  ( 0.7599999999999998979, 0.03999999999999999389, 0.3999999999999999112 ) ) ;
#148 = LINE ( 'NONE', #1265, #123 ) ;
#149 = ORIENTED_EDGE ( 'NONE', *, *, #598, .T. ) ;
#150 = EDGE_LOOP ( 'NONE', ( #255, #647, #686, #784 ) ) ;
#151 = DIRECTION ( 'NONE',  ( 0.0000000000000000000, 0.0000000000000000000, -1.000000000000000000 ) ) ;
#152 = EDGE_CURVE ( 'NONE', #790, #1274, #396, .T. ) ;
#153 = ORIENTED_EDGE ( 'NONE', *, *, #615, .F. ) ;
#154 = DIRECTION ( 'NONE',  ( 0.0000000000000000000, 0.0000000000000000000, -1.000000000000000000 ) ) ;
#155 = LINE ( 'NONE', #740, #1065 ) ;
#156 = EDGE_LOOP ( 'NONE', ( #855, #75, #193, #410 ) ) ;
#157 = ORIENTED_EDGE ( 'NONE', *, *, #527, .T. ) ;
#158 = CIRCLE ( 'NONE', #924, 0.02666666666666664756 ) ;
#159 = CARTESIAN_POINT ( 'NONE',  ( -0.7999999999999999334, 0.03999999999999999389, 0.3599999999999999312 ) ) ;
#160 = CARTESIAN_POINT ( 'NONE',  ( 0.0000000000000000000, 0.9499999999999999556, 0.0000000000000000000 ) ) ;
#161 = AXIS2_PLACEMENT_3D ( 'NONE', #130, #230, #1121 ) ;
#162 = ORIENTED_EDGE ( 'NONE', *, *, #787, .F. ) ;
#163 = CARTESIAN_POINT ( 'NONE',  ( 0.7600000000000000089, 0.0000000000000000000, -0.3599999999999999312 ) ) ;
#164 = CARTESIAN_POINT ( 'NONE',  ( -0.3499999999999999223, 0.04000000000000021594, 0.3999999999999999112 ) ) ;
#165 = VERTEX_POINT ( 'NONE', #163 ) ;
#166 = DIRECTION ( 'NONE',  ( -0.0000000000000000000, -1.000000000000000000, -0.0000000000000000000 ) ) ;
#167 = EDGE_CURVE ( 'NONE', #114, #655, #1084, .T. ) ;
#168 = CIRCLE ( 'NONE', #507, 0.02666666666666664756 ) ;
#169 = CARTESIAN_POINT ( 'NONE',  ( -0.3500000000000000333, 0.03999999999999999389, -0.3599999999999999312 ) ) ;
#170 = DIRECTION ( 'NONE',  ( -0.0000000000000000000, -0.0000000000000000000, 1.000000000000000000 ) ) ;
#171 = ORIENTED_EDGE ( 'NONE', *, *, #1233, .F. ) ;
#172 = FACE_OUTER_BOUND ( 'NONE', #529, .T. ) ;
#173 = EDGE_LOOP ( 'NONE', ( #1137, #793, #694, #331, #128, #554, #242, #1057 ) ) ;
#174 = ORIENTED_EDGE ( 'NONE', *, *, #223, .F. ) ;
#175 = DIRECTION ( 'NONE',  ( -0.0000000000000000000, -0.0000000000000000000, -1.000000000000000000 ) ) ;
#176 = EDGE_CURVE ( 'NONE', #27, #143, #889, .T. ) ;
#177 = DIRECTION ( 'NONE',  ( 1.000000000000000000, 0.0000000000000000000, 1.355252715606881036E-16 ) ) ;
#178 = AXIS2_PLACEMENT_3D ( 'NONE', #1190, #1105, #614 ) ;
#179 = ORIENTED_EDGE ( 'NONE', *, *, #881, .F. ) ;
#180 = CARTESIAN_POINT ( 'NONE',  ( 0.3500000000258296495, 0.9100000000000000311, -0.3600000000000000422 ) ) ;
#181 = ADVANCED_FACE ( 'NONE', ( #658 ), #624, .T. ) ;
#182 = DIRECTION ( 'NONE',  ( -1.000000000000000000, 0.0000000000000000000, 0.0000000000000000000 ) ) ;
#183 = ORIENTED_EDGE ( 'NONE', *, *, #32, .F. ) ;
#184 = LINE ( 'NONE', #856, #1061 ) ;
#185 = PRODUCT ( 'C0603X821F5GAC7867', 'C0603X821F5GAC7867', '', ( #197 ) ) ;
#186 = CARTESIAN_POINT ( 'NONE',  ( 500000.0000000000582, 0.03999999999999999389, -0.3866666667100346899 ) ) ;
#187 = PRESENTATION_STYLE_ASSIGNMENT (( #720 ) ) ;
#188 = AXIS2_PLACEMENT_3D ( 'NONE', #420, #623, #516 ) ;
#189 = FACE_OUTER_BOUND ( 'NONE', #349, .T. ) ;
#190 = CARTESIAN_POINT ( 'NONE',  ( 0.3500000000258296495, 0.9100000000000000311, 0.3866666666666664365 ) ) ;
#191 = CIRCLE ( 'NONE', #364, 0.03999999999999999389 ) ;
#192 = ORIENTED_EDGE ( 'NONE', *, *, #948, .T. ) ;
#193 = ORIENTED_EDGE ( 'NONE', *, *, #746, .F. ) ;
#194 = CIRCLE ( 'NONE', #1273, 0.03999999999999999389 ) ;
#195 = DIRECTION ( 'NONE',  ( 0.0000000000000000000, 0.0000000000000000000, -1.000000000000000000 ) ) ;
#196 = CYLINDRICAL_SURFACE ( 'NONE', #1256, 0.03999999999999999389 ) ;
#197 = PRODUCT_CONTEXT ( 'NONE', #111, 'mechanical' ) ;
#198 = AXIS2_PLACEMENT_3D ( 'NONE', #665, #771, #73 ) ;
#199 = CARTESIAN_POINT ( 'NONE',  ( -0.7599999999999998979, 0.0000000000000000000, 1.029992063861229582E-16 ) ) ;
#200 = DIRECTION ( 'NONE',  ( 1.000000000000000000, -0.0000000000000000000, 0.0000000000000000000 ) ) ;
#201 = ORIENTED_EDGE ( 'NONE', *, *, #976, .F. ) ;
#202 = SURFACE_STYLE_USAGE ( .BOTH. , #7 ) ;
#203 = SPHERICAL_SURFACE ( 'NONE', #673, 0.04000000000000000083 ) ;
#204 = CARTESIAN_POINT ( 'NONE',  ( -0.3499999999999999223, 0.9499999999999999556, 0.3599999999999999312 ) ) ;
#205 = EDGE_CURVE ( 'NONE', #639, #27, #468, .T. ) ;
#206 = ADVANCED_FACE ( 'NONE', ( #1099 ), #747, .T. ) ;
#207 = VERTEX_POINT ( 'NONE', #931 ) ;
#208 = AXIS2_PLACEMENT_3D ( 'NONE', #302, #532, #352 ) ;
#209 = LINE ( 'NONE', #938, #448 ) ;
#210 = ORIENTED_EDGE ( 'NONE', *, *, #403, .T. ) ;
#211 = APPLICATION_CONTEXT ( 'automotive_design' ) ;
#212 = CIRCLE ( 'NONE', #42, 0.03999999999999999389 ) ;
#213 = EDGE_CURVE ( 'NONE', #415, #139, #577, .T. ) ;
#214 = DIRECTION ( 'NONE',  ( 1.000000000000000000, 0.0000000000000000000, -8.673617379884036705E-17 ) ) ;
#215 = CIRCLE ( 'NONE', #1086, 0.02666666666666664756 ) ;
#216 = AXIS2_PLACEMENT_3D ( 'NONE', #814, #218, #127 ) ;
#217 = EDGE_LOOP ( 'NONE', ( #320, #22, #919, #724, #174, #429, #1064, #1092 ) ) ;
#218 = DIRECTION ( 'NONE',  ( 0.0000000000000000000, 1.000000000000000000, 0.0000000000000000000 ) ) ;
#219 = ORIENTED_EDGE ( 'NONE', *, *, #294, .T. ) ;
#220 = VECTOR ( 'NONE', #304, 1000.000000000000000 ) ;
#221 = DIRECTION ( 'NONE',  ( 0.0000000000000000000, 1.000000000000000000, 0.0000000000000000000 ) ) ;
#222 = ORIENTED_EDGE ( 'NONE', *, *, #1032, .T. ) ;
#223 = EDGE_CURVE ( 'NONE', #841, #937, #144, .T. ) ;
#224 = EDGE_LOOP ( 'NONE', ( #60, #678, #538, #343 ) ) ;
#225 = ORIENTED_EDGE ( 'NONE', *, *, #167, .F. ) ;
#226 = FACE_OUTER_BOUND ( 'NONE', #605, .T. ) ;
#227 = DIRECTION ( 'NONE',  ( 0.0000000000000000000, 0.0000000000000000000, -1.000000000000000000 ) ) ;
#228 = DIRECTION ( 'NONE',  ( -1.000000000000000000, 0.0000000000000000000, 0.0000000000000000000 ) ) ;
#229 = DIRECTION ( 'NONE',  ( 1.000000000000000000, 0.0000000000000000000, -8.673617379884036705E-17 ) ) ;
#230 = DIRECTION ( 'NONE',  ( 8.673617379884036705E-17, -0.0000000000000000000, 1.000000000000000000 ) ) ;
#231 = AXIS2_PLACEMENT_3D ( 'NONE', #776, #275, #373 ) ;
#232 = CLOSED_SHELL ( 'NONE', ( #495, #395, #786, #488, #518, #94, #980, #558, #593, #181, #579, #1185, #612, #99, #479, #84, #1132, #992 ) ) ;
#233 = CARTESIAN_POINT ( 'NONE',  ( 0.0000000000000000000, 0.9100000000000000311, -0.3599999999999999312 ) ) ;
#234 = FACE_OUTER_BOUND ( 'NONE', #667, .T. ) ;
#235 = DIRECTION ( 'NONE',  ( 0.0000000000000000000, 0.0000000000000000000, 1.000000000000000000 ) ) ;
#236 = CYLINDRICAL_SURFACE ( 'NONE', #1218, 0.02666666666666664756 ) ;
#237 = CARTESIAN_POINT ( 'NONE',  ( -0.7599999999999998979, 0.03999999999999999389, 0.3599999999999999312 ) ) ;
#238 = ORIENTED_EDGE ( 'NONE', *, *, #1026, .T. ) ;
#239 = CYLINDRICAL_SURFACE ( 'NONE', #515, 0.03999999999999999389 ) ;
#240 = CARTESIAN_POINT ( 'NONE',  ( 0.7599999999999998979, 0.9100000000000000311, 0.3599999999999999312 ) ) ;
#241 = DIRECTION ( 'NONE',  ( -1.000000000000000000, 0.0000000000000000000, 0.0000000000000000000 ) ) ;
#242 = ORIENTED_EDGE ( 'NONE', *, *, #878, .T. ) ;
#243 = AXIS2_PLACEMENT_3D ( 'NONE', #898, #602, #912 ) ;
#244 = CYLINDRICAL_SURFACE ( 'NONE', #683, 0.03999999999999999389 ) ;
#245 = CARTESIAN_POINT ( 'NONE',  ( -0.3499999999999999223, 0.0000000000000000000, 0.3599999999999999312 ) ) ;
#246 = CYLINDRICAL_SURFACE ( 'NONE', #1028, 0.03999999999999999389 ) ;
#247 = DIRECTION ( 'NONE',  ( 0.0000000000000000000, 0.0000000000000000000, 1.000000000000000000 ) ) ;
#248 = VECTOR ( 'NONE', #116, 1000.000000000000000 ) ;
#249 = EDGE_CURVE ( 'NONE', #1111, #138, #434, .T. ) ;
#250 = ORIENTED_EDGE ( 'NONE', *, *, #505, .T. ) ;
#251 = AXIS2_PLACEMENT_3D ( 'NONE', #454, #548, #829 ) ;
#252 = EDGE_LOOP ( 'NONE', ( #66, #478, #1202, #873 ) ) ;
#253 = CARTESIAN_POINT ( 'NONE',  ( -0.7599999999999998979, 0.9499999999999999556, 0.3999999999999999112 ) ) ;
#254 = VECTOR ( 'NONE', #801, 1000.000000000000000 ) ;
#255 = ORIENTED_EDGE ( 'NONE', *, *, #561, .F. ) ;
#256 = VECTOR ( 'NONE', #1258, 1000.000000000000000 ) ;
#257 = VERTEX_POINT ( 'NONE', #833 ) ;
#258 = ORIENTED_EDGE ( 'NONE', *, *, #804, .F. ) ;
#259 = CIRCLE ( 'NONE', #68, 0.03999999999999999389 ) ;
#260 = CARTESIAN_POINT ( 'NONE',  ( -0.7999999999999999334, 0.03999999999999999389, 0.3599999999999999312 ) ) ;
#261 = MECHANICAL_DESIGN_GEOMETRIC_PRESENTATION_REPRESENTATION (  '', ( #940 ), #131 ) ;
#262 = FACE_OUTER_BOUND ( 'NONE', #1034, .T. ) ;
#263 = PLANE ( 'NONE',  #57 ) ;
#264 = DIRECTION ( 'NONE',  ( -1.355252715606881036E-16, -0.0000000000000000000, -1.000000000000000000 ) ) ;
#265 = CARTESIAN_POINT ( 'NONE',  ( -0.3499999999999999223, 0.03999999999999999389, 0.3599999999999999312 ) ) ;
#266 = DIRECTION ( 'NONE',  ( -1.355252715606881036E-16, 0.0000000000000000000, 1.000000000000000000 ) ) ;
#267 = VECTOR ( 'NONE', #1025, 1000.000000000000000 ) ;
#268 = CARTESIAN_POINT ( 'NONE',  ( 0.3500000000258296495, 0.9100000000000000311, 0.3599999999999998201 ) ) ;
#269 = ORIENTED_EDGE ( 'NONE', *, *, #465, .F. ) ;
#270 = CARTESIAN_POINT ( 'NONE',  ( 0.3500000000000000333, 0.9499999999999999556, -0.3999999999999999112 ) ) ;
#271 = CYLINDRICAL_SURFACE ( 'NONE', #933, 0.03999999999999999389 ) ;
#272 = EDGE_CURVE ( 'NONE', #346, #913, #679, .T. ) ;
#273 = DIRECTION ( 'NONE',  ( 0.0000000000000000000, 0.0000000000000000000, 1.000000000000000000 ) ) ;
#274 = AXIS2_PLACEMENT_3D ( 'NONE', #1055, #241, #235 ) ;
#275 = DIRECTION ( 'NONE',  ( 0.0000000000000000000, 1.000000000000000000, 0.0000000000000000000 ) ) ;
#276 = SHAPE_DEFINITION_REPRESENTATION ( #1129, #751 ) ;
#277 = CARTESIAN_POINT ( 'NONE',  ( 0.3499999999999999223, 0.9100000000000000311, 0.3599999999999999312 ) ) ;
#278 = CARTESIAN_POINT ( 'NONE',  ( 0.3500000000258296495, 0.03999999999999999389, 0.3599999999999998201 ) ) ;
#279 = ORIENTED_EDGE ( 'NONE', *, *, #134, .T. ) ;
#280 = DIRECTION ( 'NONE',  ( 0.0000000000000000000, 0.0000000000000000000, 1.000000000000000000 ) ) ;
#281 = ORIENTED_EDGE ( 'NONE', *, *, #397, .F. ) ;
#282 = ORIENTED_EDGE ( 'NONE', *, *, #11, .F. ) ;
#283 = CARTESIAN_POINT ( 'NONE',  ( 0.8000000000000000444, 0.03999999999999999389, -0.3999999999999999112 ) ) ;
#284 = AXIS2_PLACEMENT_3D ( 'NONE', #240, #428, #660 ) ;
#285 = DIRECTION ( 'NONE',  ( -1.000000000000000000, 0.0000000000000000000, 0.0000000000000000000 ) ) ;
#286 = ORIENTED_EDGE ( 'NONE', *, *, #1141, .T. ) ;
#287 = ADVANCED_FACE ( 'NONE', ( #351 ), #244, .T. ) ;
#288 = CIRCLE ( 'NONE', #14, 0.03999999999999999389 ) ;
#289 = ORIENTED_EDGE ( 'NONE', *, *, #74, .T. ) ;
#290 = VERTEX_POINT ( 'NONE', #48 ) ;
#291 = VECTOR ( 'NONE', #830, 1000.000000000000000 ) ;
#292 = DIRECTION ( 'NONE',  ( 0.0000000000000000000, 0.0000000000000000000, -1.000000000000000000 ) ) ;
#293 = DIRECTION ( 'NONE',  ( -1.000000000000000000, -0.0000000000000000000, 8.673617379884036705E-17 ) ) ;
#294 = EDGE_CURVE ( 'NONE', #30, #455, #378, .T. ) ;
#295 = DIRECTION ( 'NONE',  ( 0.0000000000000000000, 0.0000000000000000000, 1.000000000000000000 ) ) ;
#296 = AXIS2_PLACEMENT_3D ( 'NONE', #1260, #79, #809 ) ;
#297 = DIRECTION ( 'NONE',  ( 1.000000000000000000, 0.0000000000000000000, 0.0000000000000000000 ) ) ;
#298 = ORIENTED_EDGE ( 'NONE', *, *, #18, .T. ) ;
#299 = CARTESIAN_POINT ( 'NONE',  ( -0.3500000000000000333, 0.9366666666666666474, -0.3599999999999999312 ) ) ;
#300 = DIRECTION ( 'NONE',  ( 1.000000000000000000, 0.0000000000000000000, 0.0000000000000000000 ) ) ;
#301 = UNCERTAINTY_MEASURE_WITH_UNIT (LENGTH_MEASURE( 1.000000000000000082E-05 ), #894, 'distance_accuracy_value', 'NONE');
#302 = CARTESIAN_POINT ( 'NONE',  ( 0.0000000000000000000, 0.9499999999999999556, 0.0000000000000000000 ) ) ;
#303 = CIRCLE ( 'NONE', #918, 0.03999999999999999389 ) ;
#304 = DIRECTION ( 'NONE',  ( 1.000000000000000000, -0.0000000000000000000, -0.0000000000000000000 ) ) ;
#305 = AXIS2_PLACEMENT_3D ( 'NONE', #971, #990, #1088 ) ;
#306 = LINE ( 'NONE', #1180, #44 ) ;
#307 = ORIENTED_EDGE ( 'NONE', *, *, #1145, .F. ) ;
#308 = LINE ( 'NONE', #910, #291 ) ;
#309 = DIRECTION ( 'NONE',  ( 1.000000000000000000, 0.0000000000000000000, 1.355252715606881036E-16 ) ) ;
#310 = ADVANCED_FACE ( 'NONE', ( #452 ), #684, .F. ) ;
#311 = AXIS2_PLACEMENT_3D ( 'NONE', #121, #34, #732 ) ;
#312 = ORIENTED_EDGE ( 'NONE', *, *, #957, .T. ) ;
#313 = AXIS2_PLACEMENT_3D ( 'NONE', #1182, #1184, #897 ) ;
#314 =( LENGTH_UNIT ( ) NAMED_UNIT ( * ) SI_UNIT ( .MILLI., .METRE. ) );
#315 = CARTESIAN_POINT ( 'NONE',  ( -0.3500000000000000333, 0.9100000000000000311, -0.3599999999999999312 ) ) ;
#316 = ADVANCED_FACE ( 'NONE', ( #595 ), #491, .F. ) ;
#317 = ORIENTED_EDGE ( 'NONE', *, *, #1004, .T. ) ;
#318 = DIRECTION ( 'NONE',  ( 0.0000000000000000000, 0.0000000000000000000, 1.000000000000000000 ) ) ;
#319 = EDGE_CURVE ( 'NONE', #138, #573, #1083, .T. ) ;
#320 = ORIENTED_EDGE ( 'NONE', *, *, #38, .F. ) ;
#321 = AXIS2_PLACEMENT_3D ( 'NONE', #620, #921, #1030 ) ;
#322 = CYLINDRICAL_SURFACE ( 'NONE', #198, 0.03999999999999999389 ) ;
#323 = ORIENTED_EDGE ( 'NONE', *, *, #118, .F. ) ;
#324 = VERTEX_POINT ( 'NONE', #1 ) ;
#325 = DIRECTION ( 'NONE',  ( 1.000000000000000000, 0.0000000000000000000, 0.0000000000000000000 ) ) ;
#326 = CIRCLE ( 'NONE', #305, 0.03999999999999999389 ) ;
#327 = DIRECTION ( 'NONE',  ( 0.0000000000000000000, 0.0000000000000000000, 1.000000000000000000 ) ) ;
#328 =( NAMED_UNIT ( * ) PLANE_ANGLE_UNIT ( ) SI_UNIT ( $, .RADIAN. ) );
#329 = AXIS2_PLACEMENT_3D ( 'NONE', #767, #739, #1029 ) ;
#330 = CARTESIAN_POINT ( 'NONE',  ( 0.7600000000000000089, 0.9499999999999999556, -0.3999999999999999112 ) ) ;
#331 = ORIENTED_EDGE ( 'NONE', *, *, #561, .T. ) ;
#332 = CIRCLE ( 'NONE', #1006, 0.03999999999999999389 ) ;
#333 = CARTESIAN_POINT ( 'NONE',  ( 0.7599999999999998979, 0.04000000000000000083, 0.3599999999999999312 ) ) ;
#334 = ORIENTED_EDGE ( 'NONE', *, *, #345, .T. ) ;
#335 = DIRECTION ( 'NONE',  ( 0.0000000000000000000, 1.000000000000000000, 0.0000000000000000000 ) ) ;
#336 = CARTESIAN_POINT ( 'NONE',  ( -0.7600000000000000089, 0.9499999999999999556, -0.3599999999999999312 ) ) ;
#337 = DIRECTION ( 'NONE',  ( 0.0000000000000000000, -1.000000000000000000, 0.0000000000000000000 ) ) ;
#338 = EDGE_CURVE ( 'NONE', #417, #1052, #857, .T. ) ;
#339 = CARTESIAN_POINT ( 'NONE',  ( 0.3500000000000000333, 0.9100000000000000311, -0.3999999999999999112 ) ) ;
#340 = PLANE ( 'NONE',  #137 ) ;
#341 = AXIS2_PLACEMENT_3D ( 'NONE', #278, #1151, #545 ) ;
#342 = CARTESIAN_POINT ( 'NONE',  ( -0.3499999999999999223, 0.03999999999999999389, 0.3599999999999999312 ) ) ;
#343 = ORIENTED_EDGE ( 'NONE', *, *, #1100, .F. ) ;
#344 = VECTOR ( 'NONE', #714, 1000.000000000000000 ) ;
#345 = EDGE_CURVE ( 'NONE', #324, #1081, #876, .T. ) ;
#346 = VERTEX_POINT ( 'NONE', #696 ) ;
#347 = EDGE_LOOP ( 'NONE', ( #404, #952, #1237, #510 ) ) ;
#348 = EDGE_CURVE ( 'NONE', #1207, #790, #259, .T. ) ;
#349 = EDGE_LOOP ( 'NONE', ( #1069, #565, #569, #312 ) ) ;
#350 = SURFACE_SIDE_STYLE ('',( #964 ) ) ;
#351 = FACE_OUTER_BOUND ( 'NONE', #129, .T. ) ;
#352 = DIRECTION ( 'NONE',  ( 0.0000000000000000000, -0.0000000000000000000, 1.000000000000000000 ) ) ;
#353 = SURFACE_STYLE_USAGE ( .BOTH. , #350 ) ;
#354 = DIRECTION ( 'NONE',  ( 0.0000000000000000000, 0.0000000000000000000, 1.000000000000000000 ) ) ;
#355 = EDGE_CURVE ( 'NONE', #482, #1136, #89, .T. ) ;
#356 = FILL_AREA_STYLE ('',( #944 ) ) ;
#357 = ORIENTED_EDGE ( 'NONE', *, *, #957, .F. ) ;
#358 = LINE ( 'NONE', #1245, #979 ) ;
#359 = LINE ( 'NONE', #398, #669 ) ;
#360 = FACE_OUTER_BOUND ( 'NONE', #745, .T. ) ;
#361 = ORIENTED_EDGE ( 'NONE', *, *, #505, .F. ) ;
#362 = EDGE_LOOP ( 'NONE', ( #393, #210, #120, #826 ) ) ;
#363 = DIRECTION ( 'NONE',  ( 0.0000000000000000000, 0.0000000000000000000, -1.000000000000000000 ) ) ;
#364 = AXIS2_PLACEMENT_3D ( 'NONE', #446, #61, #354 ) ;
#365 = CARTESIAN_POINT ( 'NONE',  ( 0.3500000000258296495, 0.9099999999999998090, -0.3866666666666666585 ) ) ;
#366 = DIRECTION ( 'NONE',  ( 1.355252715606881036E-16, -0.0000000000000000000, 1.000000000000000000 ) ) ;
#367 = CYLINDRICAL_SURFACE ( 'NONE', #1118, 0.03999999999999999389 ) ;
#368 = CARTESIAN_POINT ( 'NONE',  ( 0.8000000000000000444, 0.9499999999999999556, -0.3999999999999999112 ) ) ;
#369 = CARTESIAN_POINT ( 'NONE',  ( -0.7600000000000000089, 0.03999999999999999389, -0.3599999999999999312 ) ) ;
#370 = ORIENTED_EDGE ( 'NONE', *, *, #1124, .F. ) ;
#371 = DIRECTION ( 'NONE',  ( 0.0000000000000000000, 1.000000000000000000, 0.0000000000000000000 ) ) ;
#372 = ORIENTED_EDGE ( 'NONE', *, *, #626, .T. ) ;
#373 = DIRECTION ( 'NONE',  ( 1.000000000000000000, 0.0000000000000000000, 0.0000000000000000000 ) ) ;
#374 = DIRECTION ( 'NONE',  ( 0.0000000000000000000, -1.000000000000000000, 0.0000000000000000000 ) ) ;
#375 = CYLINDRICAL_SURFACE ( 'NONE', #704, 0.03999999999999999389 ) ;
#376 = ORIENTED_EDGE ( 'NONE', *, *, #465, .T. ) ;
#377 = ORIENTED_EDGE ( 'NONE', *, *, #642, .T. ) ;
#378 = LINE ( 'NONE', #627, #105 ) ;
#379 = EDGE_CURVE ( 'NONE', #143, #502, #556, .T. ) ;
#380 = PLANE ( 'NONE',  #555 ) ;
#381 = AXIS2_PLACEMENT_3D ( 'NONE', #265, #460, #551 ) ;
#382 = CIRCLE ( 'NONE', #715, 0.03999999999999999389 ) ;
#383 = CIRCLE ( 'NONE', #1227, 0.03999999999999999389 ) ;
#384 = CARTESIAN_POINT ( 'NONE',  ( 0.7599999999999998979, 0.9499999999999999556, 0.3999999999999999112 ) ) ;
#385 = ORIENTED_EDGE ( 'NONE', *, *, #722, .F. ) ;
#386 = DIRECTION ( 'NONE',  ( 0.0000000000000000000, -0.0000000000000000000, -1.000000000000000000 ) ) ;
#387 = DIRECTION ( 'NONE',  ( 0.0000000000000000000, -1.000000000000000000, 0.0000000000000000000 ) ) ;
#388 = ORIENTED_EDGE ( 'NONE', *, *, #1215, .T. ) ;
#389 = EDGE_CURVE ( 'NONE', #1081, #401, #308, .T. ) ;
#390 = FACE_OUTER_BOUND ( 'NONE', #939, .T. ) ;
#391 = CARTESIAN_POINT ( 'NONE',  ( 500000.0000000000582, 0.9366666666666666474, 0.3599999999566317888 ) ) ;
#392 = CARTESIAN_POINT ( 'NONE',  ( -0.7999999999999999334, 0.9499999999999999556, 0.3599999999999999312 ) ) ;
#393 = ORIENTED_EDGE ( 'NONE', *, *, #272, .F. ) ;
#394 = ORIENTED_EDGE ( 'NONE', *, *, #18, .F. ) ;
#395 = ADVANCED_FACE ( 'NONE', ( #1020 ), #596, .F. ) ;
#396 = CIRCLE ( 'NONE', #284, 0.03999999999999999389 ) ;
#397 = EDGE_CURVE ( 'NONE', #1060, #139, #760, .T. ) ;
#398 = CARTESIAN_POINT ( 'NONE',  ( 0.7599999999999998979, 0.9499999999999999556, 0.3999999999999999112 ) ) ;
#399 = DIRECTION ( 'NONE',  ( -0.0000000000000000000, 1.000000000000000000, -0.0000000000000000000 ) ) ;
#400 = FACE_OUTER_BOUND ( 'NONE', #903, .T. ) ;
#401 = VERTEX_POINT ( 'NONE', #934 ) ;
#402 = DIRECTION ( 'NONE',  ( -0.0000000000000000000, 1.000000000000000000, -0.0000000000000000000 ) ) ;
#403 = EDGE_CURVE ( 'NONE', #346, #710, #1238, .T. ) ;
#404 = ORIENTED_EDGE ( 'NONE', *, *, #456, .F. ) ;
#405 = FACE_OUTER_BOUND ( 'NONE', #252, .T. ) ;
#406 = AXIS2_PLACEMENT_3D ( 'NONE', #1239, #1140, #64 ) ;
#407 = DIRECTION ( 'NONE',  ( 1.355252715606880789E-16, -0.0000000000000000000, -1.000000000000000000 ) ) ;
#408 = VERTEX_POINT ( 'NONE', #927 ) ;
#409 = CIRCLE ( 'NONE', #1263, 0.03999999999999999389 ) ;
#410 = ORIENTED_EDGE ( 'NONE', *, *, #134, .F. ) ;
#411 = ORIENTED_EDGE ( 'NONE', *, *, #118, .T. ) ;
#412 = VECTOR ( 'NONE', #264, 1000.000000000000000 ) ;
#413 = PLANE ( 'NONE',  #780 ) ;
#414 = CARTESIAN_POINT ( 'NONE',  ( -0.3499999999999999223, 0.01333333333333334286, 0.3599999999999999312 ) ) ;
#415 = VERTEX_POINT ( 'NONE', #645 ) ;
#416 = CARTESIAN_POINT ( 'NONE',  ( -0.3499999999999999223, 0.9100000000000000311, 0.3599999999999999312 ) ) ;
#417 = VERTEX_POINT ( 'NONE', #147 ) ;
#418 = DIRECTION ( 'NONE',  ( 1.000000000000000000, 0.0000000000000000000, -8.673617379884036705E-17 ) ) ;
#419 = EDGE_CURVE ( 'NONE', #501, #946, #795, .T. ) ;
#420 = CARTESIAN_POINT ( 'NONE',  ( 0.3500000000000000333, 0.9100000000000000311, -0.3599999999999999312 ) ) ;
#421 = FACE_OUTER_BOUND ( 'NONE', #35, .T. ) ;
#422 = EDGE_LOOP ( 'NONE', ( #56, #1257, #1130, #1272 ) ) ;
#423 = CARTESIAN_POINT ( 'NONE',  ( 0.7600000000000000089, 0.04000000000000000083, -0.3599999999999999312 ) ) ;
#424 = DIRECTION ( 'NONE',  ( 0.0000000000000000000, -1.000000000000000000, 0.0000000000000000000 ) ) ;
#425 = AXIS2_PLACEMENT_3D ( 'NONE', #485, #476, #1097 ) ;
#426 = ORIENTED_EDGE ( 'NONE', *, *, #348, .F. ) ;
#427 = EDGE_LOOP ( 'NONE', ( #3, #880, #677, #654 ) ) ;
#428 = DIRECTION ( 'NONE',  ( -1.000000000000000000, -0.0000000000000000000, -0.0000000000000000000 ) ) ;
#429 = ORIENTED_EDGE ( 'NONE', *, *, #1212, .F. ) ;
#430 =( NAMED_UNIT ( * ) PLANE_ANGLE_UNIT ( ) SI_UNIT ( $, .RADIAN. ) );
#431 = PRODUCT_RELATED_PRODUCT_CATEGORY ( 'part', '', ( #185 ) ) ;
#432 = ORIENTED_EDGE ( 'NONE', *, *, #787, .T. ) ;
#433 = ORIENTED_EDGE ( 'NONE', *, *, #594, .F. ) ;
#434 = CIRCLE ( 'NONE', #1041, 0.02666666666666664756 ) ;
#435 = DIRECTION ( 'NONE',  ( 1.000000000000000000, -0.0000000000000000000, 0.0000000000000000000 ) ) ;
#436 = LINE ( 'NONE', #270, #1259 ) ;
#437 = DIRECTION ( 'NONE',  ( -1.355252715606880789E-16, -0.0000000000000000000, -1.000000000000000000 ) ) ;
#438 = VECTOR ( 'NONE', #619, 1000.000000000000000 ) ;
#439 = EDGE_CURVE ( 'NONE', #506, #1172, #731, .T. ) ;
#440 = AXIS2_PLACEMENT_3D ( 'NONE', #821, #309, #13 ) ;
#441 = EDGE_LOOP ( 'NONE', ( #179, #377, #1120, #88 ) ) ;
#442 = CARTESIAN_POINT ( 'NONE',  ( 0.7599999999999998979, 0.9100000000000000311, 1.029992063861229582E-16 ) ) ;
#443 = MANIFOLD_SOLID_BREP ( 'Boss-Extrude2', #701 ) ;
#444 = VERTEX_POINT ( 'NONE', #1224 ) ;
#445 = LINE ( 'NONE', #186, #254 ) ;
#446 = CARTESIAN_POINT ( 'NONE',  ( -0.3500000000000000333, 0.9100000000000000311, -0.3599999999999999312 ) ) ;
#447 = ORIENTED_EDGE ( 'NONE', *, *, #712, .F. ) ;
#448 = VECTOR ( 'NONE', #437, 1000.000000000000000 ) ;
#449 = EDGE_LOOP ( 'NONE', ( #475, #1191, #385, #727 ) ) ;
#450 = EDGE_LOOP ( 'NONE', ( #967, #1158, #307 ) ) ;
#451 = DIRECTION ( 'NONE',  ( 0.0000000000000000000, -1.000000000000000000, 0.0000000000000000000 ) ) ;
#452 = FACE_OUTER_BOUND ( 'NONE', #362, .T. ) ;
#453 = CARTESIAN_POINT ( 'NONE',  ( 0.8000000000000000444, 0.9499999999999999556, -0.3599999999999999312 ) ) ;
#454 = CARTESIAN_POINT ( 'NONE',  ( -0.7599999999999998979, 0.04000000000000000083, 0.3599999999999999312 ) ) ;
#455 = VERTEX_POINT ( 'NONE', #1038 ) ;
#456 = EDGE_CURVE ( 'NONE', #913, #30, #158, .T. ) ;
#457 = CARTESIAN_POINT ( 'NONE',  ( 0.3500000000000000333, 0.9100000000000000311, -0.3999999999999999112 ) ) ;
#458 = CARTESIAN_POINT ( 'NONE',  ( -0.8000000000000000444, 0.9100000000000000311, -0.3999999999999999112 ) ) ;
#459 =( GEOMETRIC_REPRESENTATION_CONTEXT ( 3 ) GLOBAL_UNCERTAINTY_ASSIGNED_CONTEXT ( ( #974 ) ) GLOBAL_UNIT_ASSIGNED_CONTEXT ( ( #314, #904, #1102 ) ) REPRESENTATION_CONTEXT ( 'NONE', 'WORKASPACE' ) );
#460 = DIRECTION ( 'NONE',  ( 1.000000000000000000, -0.0000000000000000000, -1.355252715606881036E-16 ) ) ;
#461 = DIRECTION ( 'NONE',  ( 0.0000000000000000000, -0.0000000000000000000, -1.000000000000000000 ) ) ;
#462 = DIRECTION ( 'NONE',  ( -1.000000000000000000, 0.0000000000000000000, -1.355252715606881036E-16 ) ) ;
#463 = LINE ( 'NONE', #283, #961 ) ;
#464 = ORIENTED_EDGE ( 'NONE', *, *, #1141, .F. ) ;
#465 = EDGE_CURVE ( 'NONE', #743, #444, #1236, .T. ) ;
#466 = CIRCLE ( 'NONE', #341, 0.02666666666666664756 ) ;
#467 = ORIENTED_EDGE ( 'NONE', *, *, #1262, .T. ) ;
#468 = CIRCLE ( 'NONE', #329, 0.03999999999999999389 ) ;
#469 = AXIS2_PLACEMENT_3D ( 'NONE', #531, #170, #991 ) ;
#470 = DIRECTION ( 'NONE',  ( -1.000000000000000000, -0.0000000000000000000, -0.0000000000000000000 ) ) ;
#471 = DIRECTION ( 'NONE',  ( 1.000000000000000000, 0.0000000000000000000, -8.673617379884036705E-17 ) ) ;
#472 = FACE_OUTER_BOUND ( 'NONE', #640, .T. ) ;
#473 = DIRECTION ( 'NONE',  ( -1.000000000000000000, 0.0000000000000000000, 8.673617379884037937E-17 ) ) ;
#474 = AXIS2_PLACEMENT_3D ( 'NONE', #769, #53, #1128 ) ;
#475 = ORIENTED_EDGE ( 'NONE', *, *, #1133, .F. ) ;
#476 = DIRECTION ( 'NONE',  ( -1.000000000000000000, 0.0000000000000000000, 1.355252715606881036E-16 ) ) ;
#477 = LINE ( 'NONE', #879, #1270 ) ;
#478 = ORIENTED_EDGE ( 'NONE', *, *, #777, .T. ) ;
#479 = ADVANCED_FACE ( 'NONE', ( #1110 ), #322, .T. ) ;
#480 = CARTESIAN_POINT ( 'NONE',  ( 500000.0000000000582, 0.9100000000000000311, 0.3599999999566317888 ) ) ;
#481 = ORIENTED_EDGE ( 'NONE', *, *, #319, .T. ) ;
#482 = VERTEX_POINT ( 'NONE', #872 ) ;
#483 = COLOUR_RGB ( '',0.4862745098039215619, 0.2352941176470588203, 0.01568627450980392135 ) ;
#484 = EDGE_CURVE ( 'NONE', #1207, #1223, #1017, .T. ) ;
#485 = CARTESIAN_POINT ( 'NONE',  ( -0.3500000000000000333, 0.9499999999999999556, -0.3999999999999999112 ) ) ;
#486 = VECTOR ( 'NONE', #860, 1000.000000000000000 ) ;
#487 = CARTESIAN_POINT ( 'NONE',  ( 0.8000000000000000444, 0.9100000000000000311, -0.3599999999999999312 ) ) ;
#488 = ADVANCED_FACE ( 'NONE', ( #172 ), #861, .F. ) ;
#489 = ADVANCED_FACE ( 'NONE', ( #1192 ), #1249, .F. ) ;
#490 = DIRECTION ( 'NONE',  ( 0.0000000000000000000, -1.000000000000000000, -0.0000000000000000000 ) ) ;
#491 = PLANE ( 'NONE',  #63 ) ;
#492 = ORIENTED_EDGE ( 'NONE', *, *, #825, .F. ) ;
#493 = CARTESIAN_POINT ( 'NONE',  ( -0.7600000000000000089, 0.0000000000000000000, -0.3599999999999999312 ) ) ;
#494 = AXIS2_PLACEMENT_3D ( 'NONE', #863, #1066, #566 ) ;
#495 = ADVANCED_FACE ( 'NONE', ( #930 ), #1021, .F. ) ;
#496 = ORIENTED_EDGE ( 'NONE', *, *, #550, .F. ) ;
#497 = LINE ( 'NONE', #636, #1001 ) ;
#498 = PLANE ( 'NONE',  #313 ) ;
#499 = EDGE_CURVE ( 'NONE', #587, #706, #155, .T. ) ;
#500 = CARTESIAN_POINT ( 'NONE',  ( 0.7999999999999999334, 0.9499999999999999556, 0.3999999999999999112 ) ) ;
#501 = VERTEX_POINT ( 'NONE', #1115 ) ;
#502 = VERTEX_POINT ( 'NONE', #1199 ) ;
#503 = DIRECTION ( 'NONE',  ( 0.0000000000000000000, -0.0000000000000000000, 1.000000000000000000 ) ) ;
#504 = FILL_AREA_STYLE ('',( #113 ) ) ;
#505 = EDGE_CURVE ( 'NONE', #1223, #639, #817, .T. ) ;
#506 = VERTEX_POINT ( 'NONE', #831 ) ;
#507 = AXIS2_PLACEMENT_3D ( 'NONE', #180, #177, #195 ) ;
#508 = LINE ( 'NONE', #562, #785 ) ;
#509 = DIRECTION ( 'NONE',  ( 1.000000000000000000, 0.0000000000000000000, 0.0000000000000000000 ) ) ;
#510 = ORIENTED_EDGE ( 'NONE', *, *, #294, .F. ) ;
#511 = FACE_OUTER_BOUND ( 'NONE', #911, .T. ) ;
#512 = ORIENTED_EDGE ( 'NONE', *, *, #812, .T. ) ;
#513 = CARTESIAN_POINT ( 'NONE',  ( -0.7599999999999998979, 0.03999999999999999389, 0.3599999999999999312 ) ) ;
#514 = LINE ( 'NONE', #190, #62 ) ;
#515 = AXIS2_PLACEMENT_3D ( 'NONE', #442, #632, #54 ) ;
#516 = DIRECTION ( 'NONE',  ( 0.0000000000000000000, 0.0000000000000000000, 1.000000000000000000 ) ) ;
#517 = AXIS2_PLACEMENT_3D ( 'NONE', #864, #789, #461 ) ;
#518 = ADVANCED_FACE ( 'NONE', ( #521 ), #540, .T. ) ;
#519 =( GEOMETRIC_REPRESENTATION_CONTEXT ( 3 ) GLOBAL_UNCERTAINTY_ASSIGNED_CONTEXT ( ( #301 ) ) GLOBAL_UNIT_ASSIGNED_CONTEXT ( ( #894, #891, #700 ) ) REPRESENTATION_CONTEXT ( 'NONE', 'WORKASPACE' ) );
#520 = EDGE_LOOP ( 'NONE', ( #222, #1104, #1117, #637 ) ) ;
#521 = FACE_OUTER_BOUND ( 'NONE', #693, .T. ) ;
#522 = DIRECTION ( 'NONE',  ( -1.000000000000000000, -0.0000000000000000000, -0.0000000000000000000 ) ) ;
#523 = FILL_AREA_STYLE_COLOUR ( '', #803 ) ;
#524 = VECTOR ( 'NONE', #19, 1000.000000000000000 ) ;
#525 = CARTESIAN_POINT ( 'NONE',  ( -0.7599999999999998979, 0.9499999999999999556, 0.3599999999999999312 ) ) ;
#526 = CYLINDRICAL_SURFACE ( 'NONE', #997, 0.02666666666666669960 ) ;
#527 = EDGE_CURVE ( 'NONE', #533, #1000, #409, .T. ) ;
#528 = DIRECTION ( 'NONE',  ( 0.0000000000000000000, 0.0000000000000000000, -1.000000000000000000 ) ) ;
#529 = EDGE_LOOP ( 'NONE', ( #851, #1018, #713, #71 ) ) ;
#530 = AXIS2_PLACEMENT_3D ( 'NONE', #662, #666, #1166 ) ;
#531 = CARTESIAN_POINT ( 'NONE',  ( 0.7600000000000000089, 0.9100000000000000311, -0.3599999999999999312 ) ) ;
#532 = DIRECTION ( 'NONE',  ( 0.0000000000000000000, 1.000000000000000000, 0.0000000000000000000 ) ) ;
#533 = VERTEX_POINT ( 'NONE', #1225 ) ;
#534 = FACE_OUTER_BOUND ( 'NONE', #1253, .T. ) ;
#535 = DIRECTION ( 'NONE',  ( 0.0000000000000000000, 0.0000000000000000000, 1.000000000000000000 ) ) ;
#536 = AXIS2_PLACEMENT_3D ( 'NONE', #160, #335, #247 ) ;
#537 = VERTEX_POINT ( 'NONE', #1143 ) ;
#538 = ORIENTED_EDGE ( 'NONE', *, *, #804, .T. ) ;
#539 = DIRECTION ( 'NONE',  ( 1.000000000000000000, 0.0000000000000000000, 1.355252715606881036E-16 ) ) ;
#540 = PLANE ( 'NONE',  #208 ) ;
#541 = DIRECTION ( 'NONE',  ( -1.000000000000000000, -0.0000000000000000000, 8.673617379884036705E-17 ) ) ;
#542 = EDGE_CURVE ( 'NONE', #1081, #1060, #288, .T. ) ;
#543 = CARTESIAN_POINT ( 'NONE',  ( -0.8000000000000000444, 0.03999999999999999389, -0.3999999999999999112 ) ) ;
#544 = ORIENTED_EDGE ( 'NONE', *, *, #948, .F. ) ;
#545 = DIRECTION ( 'NONE',  ( 0.0000000000000000000, 0.0000000000000000000, -1.000000000000000000 ) ) ;
#546 = VERTEX_POINT ( 'NONE', #848 ) ;
#547 = CARTESIAN_POINT ( 'NONE',  ( -0.7599999999999998979, 0.9100000000000000311, 0.3999999999999999112 ) ) ;
#548 = DIRECTION ( 'NONE',  ( -1.000000000000000000, 0.0000000000000000000, 0.0000000000000000000 ) ) ;
#549 = CYLINDRICAL_SURFACE ( 'NONE', #799, 0.03999999999999999389 ) ;
#550 = EDGE_CURVE ( 'NONE', #587, #444, #209, .T. ) ;
#551 = DIRECTION ( 'NONE',  ( 0.0000000000000000000, 0.0000000000000000000, 1.000000000000000000 ) ) ;
#552 = VECTOR ( 'NONE', #995, 1000.000000000000000 ) ;
#553 = CARTESIAN_POINT ( 'NONE',  ( -0.3500000000000000333, 0.03999999999999999389, -0.3599999999999999312 ) ) ;
#554 = ORIENTED_EDGE ( 'NONE', *, *, #542, .T. ) ;
#555 = AXIS2_PLACEMENT_3D ( 'NONE', #687, #572, #473 ) ;
#556 = CIRCLE ( 'NONE', #188, 0.03999999999999999389 ) ;
#557 = CARTESIAN_POINT ( 'NONE',  ( -0.3500000000000000333, 0.9100000000000000311, -0.3999999999999999112 ) ) ;
#558 = ADVANCED_FACE ( 'NONE', ( #691 ), #271, .T. ) ;
#559 = PLANE ( 'NONE',  #103 ) ;
#560 = ORIENTED_EDGE ( 'NONE', *, *, #345, .F. ) ;
#561 = EDGE_CURVE ( 'NONE', #592, #401, #191, .T. ) ;
#562 = CARTESIAN_POINT ( 'NONE',  ( 0.3500000000258296495, 0.01333333333333333419, 0.3599999998888692154 ) ) ;
#563 = DIRECTION ( 'NONE',  ( 0.0000000000000000000, 0.0000000000000000000, 1.000000000000000000 ) ) ;
#564 = DIRECTION ( 'NONE',  ( -8.673617379884036705E-17, 0.0000000000000000000, -1.000000000000000000 ) ) ;
#565 = ORIENTED_EDGE ( 'NONE', *, *, #1233, .T. ) ;
#566 = DIRECTION ( 'NONE',  ( 0.0000000000000000000, 0.0000000000000000000, 1.000000000000000000 ) ) ;
#567 = PRESENTATION_STYLE_ASSIGNMENT (( #132 ) ) ;
#568 = CARTESIAN_POINT ( 'NONE',  ( 0.7999999999999999334, 0.9100000000000000311, 0.3599999999999999312 ) ) ;
#569 = ORIENTED_EDGE ( 'NONE', *, *, #1168, .T. ) ;
#570 = EDGE_CURVE ( 'NONE', #962, #573, #497, .T. ) ;
#571 = LINE ( 'NONE', #951, #59 ) ;
#572 = DIRECTION ( 'NONE',  ( -8.673617379884037937E-17, 0.0000000000000000000, -1.000000000000000000 ) ) ;
#573 = VERTEX_POINT ( 'NONE', #1047 ) ;
#574 = ORIENTED_EDGE ( 'NONE', *, *, #542, .F. ) ;
#575 = MECHANICAL_DESIGN_GEOMETRIC_PRESENTATION_REPRESENTATION (  '', ( #1073 ), #1197 ) ;
#576 = DIRECTION ( 'NONE',  ( 0.0000000000000000000, 0.0000000000000000000, 1.000000000000000000 ) ) ;
#577 = CIRCLE ( 'NONE', #742, 0.03999999999999999389 ) ;
#578 = ADVANCED_FACE ( 'NONE', ( #28 ), #239, .T. ) ;
#579 = ADVANCED_FACE ( 'NONE', ( #1050 ), #792, .T. ) ;
#580 = FACE_OUTER_BOUND ( 'NONE', #150, .T. ) ;
#581 = CARTESIAN_POINT ( 'NONE',  ( -0.3499999999999999223, 0.9100000000000000311, 0.3866666666666665475 ) ) ;
#582 = EDGE_CURVE ( 'NONE', #408, #1000, #141, .T. ) ;
#583 = CARTESIAN_POINT ( 'NONE',  ( 500000.0000000000582, 0.03999999999999999389, -0.3600000000433680736 ) ) ;
#584 = AXIS2_PLACEMENT_3D ( 'NONE', #169, #1157, #280 ) ;
#585 = DIRECTION ( 'NONE',  ( 1.000000000000000000, -0.0000000000000000000, 0.0000000000000000000 ) ) ;
#586 = CARTESIAN_POINT ( 'NONE',  ( -0.7600000000000000089, 0.03999999999999999389, -0.3999999999999999112 ) ) ;
#587 = VERTEX_POINT ( 'NONE', #245 ) ;
#588 = CARTESIAN_POINT ( 'NONE',  ( 0.7999999999999999334, 0.9100000000000000311, 0.3999999999999999112 ) ) ;
#589 = CARTESIAN_POINT ( 'NONE',  ( -0.3500000000000000333, 0.03999999999999999389, -0.3866666666666665475 ) ) ;
#590 = APPLICATION_PROTOCOL_DEFINITION ( 'draft international standard', 'automotive_design', 1998, #211 ) ;
#591 = LINE ( 'NONE', #384, #552 ) ;
#592 = VERTEX_POINT ( 'NONE', #935 ) ;
#593 = ADVANCED_FACE ( 'NONE', ( #638 ), #375, .T. ) ;
#594 = EDGE_CURVE ( 'NONE', #533, #114, #12, .T. ) ;
#595 = FACE_OUTER_BOUND ( 'NONE', #224, .T. ) ;
#596 = PLANE ( 'NONE',  #125 ) ;
#597 = DIRECTION ( 'NONE',  ( 0.0000000000000000000, 0.0000000000000000000, 1.000000000000000000 ) ) ;
#598 = EDGE_CURVE ( 'NONE', #482, #655, #874, .T. ) ;
#599 = AXIS2_PLACEMENT_3D ( 'NONE', #671, #371, #768 ) ;
#600 = VERTEX_POINT ( 'NONE', #749 ) ;
#601 = FILL_AREA_STYLE ('',( #24 ) ) ;
#602 = DIRECTION ( 'NONE',  ( 0.0000000000000000000, -1.000000000000000000, 0.0000000000000000000 ) ) ;
#603 = EDGE_LOOP ( 'NONE', ( #1042, #269, #370, #1147 ) ) ;
#604 = LINE ( 'NONE', #253, #985 ) ;
#605 = EDGE_LOOP ( 'NONE', ( #323, #279, #832, #945 ) ) ;
#606 = EDGE_LOOP ( 'NONE', ( #1203, #730, #810 ) ) ;
#607 = VECTOR ( 'NONE', #6, 1000.000000000000000 ) ;
#608 = DIRECTION ( 'NONE',  ( 1.000000000000000000, 0.0000000000000000000, 0.0000000000000000000 ) ) ;
#609 = SURFACE_SIDE_STYLE ('',( #1131 ) ) ;
#610 = EDGE_CURVE ( 'NONE', #139, #482, #604, .T. ) ;
#611 = LINE ( 'NONE', #1277, #734 ) ;
#612 = ADVANCED_FACE ( 'NONE', ( #511 ), #1135, .T. ) ;
#613 = DIRECTION ( 'NONE',  ( 0.0000000000000000000, 0.0000000000000000000, 1.000000000000000000 ) ) ;
#614 = DIRECTION ( 'NONE',  ( -1.355252715606881036E-16, 0.0000000000000000000, -1.000000000000000000 ) ) ;
#615 = EDGE_CURVE ( 'NONE', #41, #257, #466, .T. ) ;
#616 = ORIENTED_EDGE ( 'NONE', *, *, #690, .F. ) ;
#617 = ADVANCED_FACE ( 'NONE', ( #728 ), #263, .F. ) ;
#618 = LINE ( 'NONE', #17, #344 ) ;
#619 = DIRECTION ( 'NONE',  ( -1.505836350674312234E-16, 0.0000000000000000000, -1.000000000000000000 ) ) ;
#620 = CARTESIAN_POINT ( 'NONE',  ( 0.3499999999999999223, 0.03999999999999999389, 0.3599999999999999312 ) ) ;
#621 = EDGE_LOOP ( 'NONE', ( #634, #783, #966, #298 ) ) ;
#622 = ORIENTED_EDGE ( 'NONE', *, *, #499, .T. ) ;
#623 = DIRECTION ( 'NONE',  ( 1.000000000000000000, 0.0000000000000000000, 1.355252715606881036E-16 ) ) ;
#624 = SPHERICAL_SURFACE ( 'NONE', #474, 0.04000000000000000083 ) ;
#625 = ADVANCED_FACE ( 'NONE', ( #1206 ), #559, .F. ) ;
#626 = EDGE_CURVE ( 'NONE', #143, #946, #571, .T. ) ;
#627 = CARTESIAN_POINT ( 'NONE',  ( 500000.0000000000582, 0.9100000000000000311, 0.3866666666232984051 ) ) ;
#628 = LINE ( 'NONE', #25, #93 ) ;
#629 = FACE_OUTER_BOUND ( 'NONE', #142, .T. ) ;
#630 = CARTESIAN_POINT ( 'NONE',  ( 0.7599999999999998979, 0.03999999999999999389, 0.3599999999999999312 ) ) ;
#631 =( NAMED_UNIT ( * ) SI_UNIT ( $, .STERADIAN. ) SOLID_ANGLE_UNIT ( ) );
#632 = DIRECTION ( 'NONE',  ( 1.355252715606881036E-16, 0.0000000000000000000, -1.000000000000000000 ) ) ;
#633 = CARTESIAN_POINT ( 'NONE',  ( 0.7600000000000000089, 0.03999999999999999389, -0.3599999999999999312 ) ) ;
#634 = ORIENTED_EDGE ( 'NONE', *, *, #1049, .T. ) ;
#635 = AXIS2_PLACEMENT_3D ( 'NONE', #342, #135, #363 ) ;
#636 = CARTESIAN_POINT ( 'NONE',  ( 500000.0000000000582, 0.9099999999999998090, -0.3866666667100346899 ) ) ;
#637 = ORIENTED_EDGE ( 'NONE', *, *, #1100, .T. ) ;
#638 = FACE_OUTER_BOUND ( 'NONE', #427, .T. ) ;
#639 = VERTEX_POINT ( 'NONE', #958 ) ;
#640 = EDGE_LOOP ( 'NONE', ( #153, #432, #1019, #282 ) ) ;
#641 = COLOUR_RGB ( '',0.7921568627450980005, 0.8196078431372548767, 0.9333333333333333481 ) ;
#642 = EDGE_CURVE ( 'NONE', #537, #1111, #1079, .T. ) ;
#643 = LINE ( 'NONE', #1103, #1261 ) ;
#644 = AXIS2_PLACEMENT_3D ( 'NONE', #1232, #1043, #535 ) ;
#645 = CARTESIAN_POINT ( 'NONE',  ( -0.7999999999999999334, 0.9100000000000000311, 0.3599999999999999312 ) ) ;
#646 = DIRECTION ( 'NONE',  ( 0.0000000000000000000, 0.0000000000000000000, 1.000000000000000000 ) ) ;
#647 = ORIENTED_EDGE ( 'NONE', *, *, #1091, .F. ) ;
#648 = EDGE_CURVE ( 'NONE', #502, #639, #1036, .T. ) ;
#649 = DIRECTION ( 'NONE',  ( 0.0000000000000000000, 0.0000000000000000000, -1.000000000000000000 ) ) ;
#650 = VECTOR ( 'NONE', #882, 1000.000000000000000 ) ;
#651 =( NAMED_UNIT ( * ) PLANE_ANGLE_UNIT ( ) SI_UNIT ( $, .RADIAN. ) );
#652 = DIRECTION ( 'NONE',  ( 1.355252715606881036E-16, -0.0000000000000000000, -1.000000000000000000 ) ) ;
#653 = CYLINDRICAL_SURFACE ( 'NONE', #530, 0.03999999999999999389 ) ;
#654 = ORIENTED_EDGE ( 'NONE', *, *, #499, .F. ) ;
#655 = VERTEX_POINT ( 'NONE', #159 ) ;
#656 = VECTOR ( 'NONE', #200, 1000.000000000000000 ) ;
#657 = DIRECTION ( 'NONE',  ( 0.0000000000000000000, -1.000000000000000000, -0.0000000000000000000 ) ) ;
#658 = FACE_OUTER_BOUND ( 'NONE', #450, .T. ) ;
#659 = CIRCLE ( 'NONE', #584, 0.03999999999999999389 ) ;
#660 = DIRECTION ( 'NONE',  ( 0.0000000000000000000, 0.0000000000000000000, 1.000000000000000000 ) ) ;
#661 = PLANE ( 'NONE',  #161 ) ;
#662 = CARTESIAN_POINT ( 'NONE',  ( 0.7600000000000000089, 0.03999999999999999389, -0.3999999999999999112 ) ) ;
#663 = EDGE_CURVE ( 'NONE', #592, #506, #47, .T. ) ;
#664 = CARTESIAN_POINT ( 'NONE',  ( -0.3500000000000000333, 0.01333333333333333419, -0.3599999999999999312 ) ) ;
#665 = CARTESIAN_POINT ( 'NONE',  ( -0.8000000000000000444, 0.03999999999999999389, -0.3599999999999999312 ) ) ;
#666 = DIRECTION ( 'NONE',  ( -1.355252715606881036E-16, 0.0000000000000000000, 1.000000000000000000 ) ) ;
#667 = EDGE_LOOP ( 'NONE', ( #157, #201, #467, #433 ) ) ;
#668 = CARTESIAN_POINT ( 'NONE',  ( -0.3500000000000000333, 0.9100000000000000311, -0.3599999999999999312 ) ) ;
#669 = VECTOR ( 'NONE', #692, 1000.000000000000000 ) ;
#670 = EDGE_CURVE ( 'NONE', #1136, #587, #744, .T. ) ;
#671 = CARTESIAN_POINT ( 'NONE',  ( 0.0000000000000000000, 0.0000000000000000000, 0.0000000000000000000 ) ) ;
#672 = ORIENTED_EDGE ( 'NONE', *, *, #866, .T. ) ;
#673 = AXIS2_PLACEMENT_3D ( 'NONE', #333, #451, #136 ) ;
#674 = DIRECTION ( 'NONE',  ( 0.0000000000000000000, -1.000000000000000000, 0.0000000000000000000 ) ) ;
#675 = DIRECTION ( 'NONE',  ( 1.000000000000000000, -0.0000000000000000000, -0.0000000000000000000 ) ) ;
#676 = VECTOR ( 'NONE', #652, 1000.000000000000000 ) ;
#677 = ORIENTED_EDGE ( 'NONE', *, *, #1026, .F. ) ;
#678 = ORIENTED_EDGE ( 'NONE', *, *, #777, .F. ) ;
#679 = LINE ( 'NONE', #1062, #1082 ) ;
#680 = VECTOR ( 'NONE', #1078, 1000.000000000000000 ) ;
#681 = ORIENTED_EDGE ( 'NONE', *, *, #1173, .F. ) ;
#682 = CARTESIAN_POINT ( 'NONE',  ( 0.3500000000258296495, 0.03999999999999999389, -0.3866666666666666585 ) ) ;
#683 = AXIS2_PLACEMENT_3D ( 'NONE', #233, #923, #1122 ) ;
#684 = PLANE ( 'NONE',  #517 ) ;
#685 = ORIENTED_EDGE ( 'NONE', *, *, #1049, .F. ) ;
#686 = ORIENTED_EDGE ( 'NONE', *, *, #582, .F. ) ;
#687 = CARTESIAN_POINT ( 'NONE',  ( 500000.0000000000582, 0.9100000000000000311, 0.3866666666232984051 ) ) ;
#688 = DIRECTION ( 'NONE',  ( 1.000000000000000000, 0.0000000000000000000, 0.0000000000000000000 ) ) ;
#689 = CYLINDRICAL_SURFACE ( 'NONE', #770, 0.03999999999999999389 ) ;
#690 = EDGE_CURVE ( 'NONE', #408, #324, #1165, .T. ) ;
#691 = FACE_OUTER_BOUND ( 'NONE', #1144, .T. ) ;
#692 = DIRECTION ( 'NONE',  ( 0.0000000000000000000, -1.000000000000000000, 0.0000000000000000000 ) ) ;
#693 = EDGE_LOOP ( 'NONE', ( #907, #843, #846, #334 ) ) ;
#694 = ORIENTED_EDGE ( 'NONE', *, *, #663, .F. ) ;
#695 = VECTOR ( 'NONE', #1056, 1000.000000000000000 ) ;
#696 = CARTESIAN_POINT ( 'NONE',  ( 0.3500000000258296495, 0.9366666666666666474, -0.3600000000000000422 ) ) ;
#697 = DIRECTION ( 'NONE',  ( -1.000000000000000000, -0.0000000000000000000, 8.673617379884036705E-17 ) ) ;
#698 = ADVANCED_FACE ( 'NONE', ( #421 ), #1072, .F. ) ;
#699 = ADVANCED_FACE ( 'NONE', ( #26 ), #1252, .T. ) ;
#700 =( NAMED_UNIT ( * ) SI_UNIT ( $, .STERADIAN. ) SOLID_ANGLE_UNIT ( ) );
#701 = CLOSED_SHELL ( 'NONE', ( #1276, #489, #1051, #716, #981, #46, #800, #1266, #310, #699 ) ) ;
#702 = ORIENTED_EDGE ( 'NONE', *, *, #626, .F. ) ;
#703 = CARTESIAN_POINT ( 'NONE',  ( 0.8000000000000000444, 0.03999999999999999389, -0.3599999999999999312 ) ) ;
#704 = AXIS2_PLACEMENT_3D ( 'NONE', #260, #435, #151 ) ;
#705 = CARTESIAN_POINT ( 'NONE',  ( 0.7599999999999998979, 0.9499999999999999556, 0.3599999999999999312 ) ) ;
#706 = VERTEX_POINT ( 'NONE', #82 ) ;
#707 = ADVANCED_FACE ( 'NONE', ( #360 ), #653, .T. ) ;
#708 = DIRECTION ( 'NONE',  ( 0.0000000000000000000, -1.000000000000000000, 0.0000000000000000000 ) ) ;
#709 = DIRECTION ( 'NONE',  ( 0.0000000000000000000, 0.0000000000000000000, -1.000000000000000000 ) ) ;
#710 = VERTEX_POINT ( 'NONE', #299 ) ;
#711 = EDGE_LOOP ( 'NONE', ( #887, #1109, #289, #1077 ) ) ;
#712 = EDGE_CURVE ( 'NONE', #1207, #1274, #916, .T. ) ;
#713 = ORIENTED_EDGE ( 'NONE', *, *, #976, .T. ) ;
#714 = DIRECTION ( 'NONE',  ( -0.0000000000000000000, -1.000000000000000000, -0.0000000000000000000 ) ) ;
#715 = AXIS2_PLACEMENT_3D ( 'NONE', #277, #1074, #963 ) ;
#716 = ADVANCED_FACE ( 'NONE', ( #854 ), #236, .T. ) ;
#717 = SPHERICAL_SURFACE ( 'NONE', #231, 0.04000000000000000083 ) ;
#718 = LINE ( 'NONE', #1114, #438 ) ;
#719 = CARTESIAN_POINT ( 'NONE',  ( -0.8000000000000000444, 0.03999999999999999389, -0.3999999999999999112 ) ) ;
#720 = SURFACE_STYLE_USAGE ( .BOTH. , #609 ) ;
#721 = EDGE_LOOP ( 'NONE', ( #426, #723, #820 ) ) ;
#722 = EDGE_CURVE ( 'NONE', #639, #1274, #591, .T. ) ;
#723 = ORIENTED_EDGE ( 'NONE', *, *, #712, .T. ) ;
#724 = ORIENTED_EDGE ( 'NONE', *, *, #74, .F. ) ;
#725 = CARTESIAN_POINT ( 'NONE',  ( 500000.0000000000582, 0.03999999999999999389, 0.3599999999566317888 ) ) ;
#726 = VECTOR ( 'NONE', #1179, 1000.000000000000000 ) ;
#727 = ORIENTED_EDGE ( 'NONE', *, *, #648, .F. ) ;
#728 = FACE_OUTER_BOUND ( 'NONE', #794, .T. ) ;
#729 = ORIENTED_EDGE ( 'NONE', *, *, #96, .T. ) ;
#730 = ORIENTED_EDGE ( 'NONE', *, *, #582, .T. ) ;
#731 = LINE ( 'NONE', #543, #1209 ) ;
#732 = DIRECTION ( 'NONE',  ( -1.000000000000000000, 0.0000000000000000000, 0.0000000000000000000 ) ) ;
#733 = AXIS2_PLACEMENT_3D ( 'NONE', #368, #462, #1067 ) ;
#734 = VECTOR ( 'NONE', #688, 1000.000000000000000 ) ;
#735 = CARTESIAN_POINT ( 'NONE',  ( -0.7600000000000000089, 0.9100000000000000311, -0.3599999999999999312 ) ) ;
#736 = CARTESIAN_POINT ( 'NONE',  ( 500000.0000000000582, 0.01333333333333333419, 0.3599999999566317888 ) ) ;
#737 = LINE ( 'NONE', #1112, #1228 ) ;
#738 = ORIENTED_EDGE ( 'NONE', *, *, #839, .T. ) ;
#739 = DIRECTION ( 'NONE',  ( -1.000000000000000000, -0.0000000000000000000, -0.0000000000000000000 ) ) ;
#740 = CARTESIAN_POINT ( 'NONE',  ( 0.0000000000000000000, 0.0000000000000000000, 0.3599999999999999312 ) ) ;
#741 =( LENGTH_UNIT ( ) NAMED_UNIT ( * ) SI_UNIT ( .MILLI., .METRE. ) );
#742 = AXIS2_PLACEMENT_3D ( 'NONE', #1242, #1221, #1146 ) ;
#743 = VERTEX_POINT ( 'NONE', #493 ) ;
#744 = CIRCLE ( 'NONE', #381, 0.03999999999999999389 ) ;
#745 = EDGE_LOOP ( 'NONE', ( #98, #87, #729, #987 ) ) ;
#746 = EDGE_CURVE ( 'NONE', #207, #1052, #463, .T. ) ;
#747 = PLANE ( 'NONE',  #536 ) ;
#748 = DIRECTION ( 'NONE',  ( -1.000000000000000000, -0.0000000000000000000, 8.673617379884036705E-17 ) ) ;
#749 = CARTESIAN_POINT ( 'NONE',  ( 0.7600000000000000089, 0.03999999999999999389, -0.3999999999999999112 ) ) ;
#750 = FACE_OUTER_BOUND ( 'NONE', #977, .T. ) ;
#751 = ADVANCED_BREP_SHAPE_REPRESENTATION ( 'C0603X821F5GAC7867', ( #909, #1009, #443, #1170 ), #459 ) ;
#752 = ORIENTED_EDGE ( 'NONE', *, *, #1113, .F. ) ;
#753 = DIRECTION ( 'NONE',  ( 0.0000000000000000000, -1.000000000000000000, 0.0000000000000000000 ) ) ;
#754 = EDGE_LOOP ( 'NONE', ( #888, #388, #29 ) ) ;
#755 = LINE ( 'NONE', #199, #726 ) ;
#756 = CARTESIAN_POINT ( 'NONE',  ( -0.7600000000000000089, 0.9100000000000000311, -0.3599999999999999312 ) ) ;
#757 = EDGE_LOOP ( 'NONE', ( #895, #219, #772, #162 ) ) ;
#758 = ORIENTED_EDGE ( 'NONE', *, *, #96, .F. ) ;
#759 = ORIENTED_EDGE ( 'NONE', *, *, #38, .T. ) ;
#760 = LINE ( 'NONE', #1230, #695 ) ;
#761 = CARTESIAN_POINT ( 'NONE',  ( 0.3500000000000000333, 0.03999999999999999389, -0.3599999999999999312 ) ) ;
#762 = EDGE_CURVE ( 'NONE', #1052, #1207, #306, .T. ) ;
#763 = DIRECTION ( 'NONE',  ( 0.0000000000000000000, 0.0000000000000000000, 1.000000000000000000 ) ) ;
#764 = PRESENTATION_LAYER_ASSIGNMENT (  '', '', ( #885 ) ) ;
#765 = VECTOR ( 'NONE', #824, 1000.000000000000000 ) ;
#766 = CARTESIAN_POINT ( 'NONE',  ( 500000.0000000000582, 0.01333333333333333419, -0.3600000000433680736 ) ) ;
#767 = CARTESIAN_POINT ( 'NONE',  ( 0.7600000000000000089, 0.9100000000000000311, -0.3599999999999999312 ) ) ;
#768 = DIRECTION ( 'NONE',  ( 0.0000000000000000000, 0.0000000000000000000, 1.000000000000000000 ) ) ;
#769 = CARTESIAN_POINT ( 'NONE',  ( -0.7599999999999998979, 0.9100000000000000311, 0.3599999999999999312 ) ) ;
#770 = AXIS2_PLACEMENT_3D ( 'NONE', #16, #906, #613 ) ;
#771 = DIRECTION ( 'NONE',  ( -1.000000000000000000, 0.0000000000000000000, 0.0000000000000000000 ) ) ;
#772 = ORIENTED_EDGE ( 'NONE', *, *, #1212, .T. ) ;
#773 = VECTOR ( 'NONE', #166, 1000.000000000000000 ) ;
#774 = CARTESIAN_POINT ( 'NONE',  ( -0.7599999999999998979, 0.9100000000000000311, 1.029992063861229582E-16 ) ) ;
#775 = LINE ( 'NONE', #915, #524 ) ;
#776 = CARTESIAN_POINT ( 'NONE',  ( -0.7600000000000000089, 0.04000000000000000083, -0.3599999999999999312 ) ) ;
#777 = EDGE_CURVE ( 'NONE', #845, #790, #943, .T. ) ;
#778 = PRESENTATION_STYLE_ASSIGNMENT (( #202 ) ) ;
#779 = DIRECTION ( 'NONE',  ( 0.0000000000000000000, -1.000000000000000000, 0.0000000000000000000 ) ) ;
#780 = AXIS2_PLACEMENT_3D ( 'NONE', #1012, #827, #1195 ) ;
#781 = VERTEX_POINT ( 'NONE', #682 ) ;
#782 = DIRECTION ( 'NONE',  ( 1.355252715606881036E-16, 0.0000000000000000000, -1.000000000000000000 ) ) ;
#783 = ORIENTED_EDGE ( 'NONE', *, *, #594, .T. ) ;
#784 = ORIENTED_EDGE ( 'NONE', *, *, #55, .F. ) ;
#785 = VECTOR ( 'NONE', #782, 1000.000000000000000 ) ;
#786 = ADVANCED_FACE ( 'NONE', ( #1046 ), #973, .F. ) ;
#787 = EDGE_CURVE ( 'NONE', #41, #841, #477, .T. ) ;
#788 = FACE_OUTER_BOUND ( 'NONE', #757, .T. ) ;
#789 = DIRECTION ( 'NONE',  ( 0.0000000000000000000, -1.000000000000000000, 0.0000000000000000000 ) ) ;
#790 = VERTEX_POINT ( 'NONE', #1174 ) ;
#791 = STYLED_ITEM ( 'NONE', ( #187 ), #909 ) ;
#792 = SPHERICAL_SURFACE ( 'NONE', #406, 0.04000000000000000083 ) ;
#793 = ORIENTED_EDGE ( 'NONE', *, *, #1071, .T. ) ;
#794 = EDGE_LOOP ( 'NONE', ( #1075, #875, #258, #805, #1213, #20, #372, #955 ) ) ;
#795 = CIRCLE ( 'NONE', #819, 0.03999999999999999389 ) ;
#796 = ADVANCED_FACE ( 'NONE', ( #189 ), #983, .T. ) ;
#797 = CIRCLE ( 'NONE', #1244, 0.03999999999999999389 ) ;
#798 = CARTESIAN_POINT ( 'NONE',  ( 0.3500000000258296495, 0.04000000000000043104, 0.3866666666666664365 ) ) ;
#799 = AXIS2_PLACEMENT_3D ( 'NONE', #336, #424, #1240 ) ;
#800 = ADVANCED_FACE ( 'NONE', ( #788 ), #380, .F. ) ;
#801 = DIRECTION ( 'NONE',  ( -1.000000000000000000, -0.0000000000000000000, 8.673617379884036705E-17 ) ) ;
#802 = UNCERTAINTY_MEASURE_WITH_UNIT (LENGTH_MEASURE( 1.000000000000000082E-05 ), #741, 'distance_accuracy_value', 'NONE');
#803 = COLOUR_RGB ( '',0.7921568627450980005, 0.8196078431372548767, 0.9333333333333333481 ) ;
#804 = EDGE_CURVE ( 'NONE', #845, #290, #1234, .T. ) ;
#805 = ORIENTED_EDGE ( 'NONE', *, *, #1196, .F. ) ;
#806 = LINE ( 'NONE', #77, #486 ) ;
#807 = DIRECTION ( 'NONE',  ( -1.000000000000000000, 0.0000000000000000000, 0.0000000000000000000 ) ) ;
#808 = DIRECTION ( 'NONE',  ( 0.0000000000000000000, 0.0000000000000000000, -1.000000000000000000 ) ) ;
#809 = DIRECTION ( 'NONE',  ( 0.0000000000000000000, 0.0000000000000000000, -1.000000000000000000 ) ) ;
#810 = ORIENTED_EDGE ( 'NONE', *, *, #527, .F. ) ;
#811 = CARTESIAN_POINT ( 'NONE',  ( 0.3500000000258296495, 0.03999999999999999389, -0.3866666666666666585 ) ) ;
#812 = EDGE_CURVE ( 'NONE', #781, #138, #445, .T. ) ;
#813 = ORIENTED_EDGE ( 'NONE', *, *, #338, .F. ) ;
#814 = CARTESIAN_POINT ( 'NONE',  ( 0.7600000000000000089, 0.9100000000000000311, -0.3599999999999999312 ) ) ;
#815 = ORIENTED_EDGE ( 'NONE', *, *, #403, .F. ) ;
#816 = CARTESIAN_POINT ( 'NONE',  ( 0.3500000000258296495, 0.9366666666666666474, 0.3599999999999998201 ) ) ;
#817 = CIRCLE ( 'NONE', #469, 0.03999999999999999389 ) ;
#818 = ORIENTED_EDGE ( 'NONE', *, *, #839, .F. ) ;
#819 = AXIS2_PLACEMENT_3D ( 'NONE', #761, #539, #646 ) ;
#820 = ORIENTED_EDGE ( 'NONE', *, *, #152, .F. ) ;
#821 = CARTESIAN_POINT ( 'NONE',  ( 0.3500000000258296495, 0.03999999999999999389, -0.3600000000000000422 ) ) ;
#822 = VECTOR ( 'NONE', #585, 1000.000000000000000 ) ;
#823 = VECTOR ( 'NONE', #1247, 1000.000000000000000 ) ;
#824 = DIRECTION ( 'NONE',  ( -1.000000000000000000, 0.0000000000000000000, 0.0000000000000000000 ) ) ;
#825 = EDGE_CURVE ( 'NONE', #706, #743, #755, .T. ) ;
#826 = ORIENTED_EDGE ( 'NONE', *, *, #1155, .F. ) ;
#827 = DIRECTION ( 'NONE',  ( 0.0000000000000000000, 1.000000000000000000, 0.0000000000000000000 ) ) ;
#828 = FACE_OUTER_BOUND ( 'NONE', #711, .T. ) ;
#829 = DIRECTION ( 'NONE',  ( 0.0000000000000000000, 0.0000000000000000000, 1.000000000000000000 ) ) ;
#830 = DIRECTION ( 'NONE',  ( -1.355252715606880789E-16, -0.0000000000000000000, -1.000000000000000000 ) ) ;
#831 = CARTESIAN_POINT ( 'NONE',  ( -0.3500000000000000333, 0.04000000000000021594, -0.3999999999999999112 ) ) ;
#832 = ORIENTED_EDGE ( 'NONE', *, *, #146, .F. ) ;
#833 = CARTESIAN_POINT ( 'NONE',  ( 0.3500000000258296495, 0.01333333333333334286, 0.3599999999999998201 ) ) ;
#834 = CARTESIAN_POINT ( 'NONE',  ( -0.3499999999999999223, 0.9100000000000000311, 0.3999999999999999112 ) ) ;
#835 = PRESENTATION_LAYER_ASSIGNMENT (  '', '', ( #791 ) ) ;
#836 = DIRECTION ( 'NONE',  ( 0.0000000000000000000, 0.0000000000000000000, -1.000000000000000000 ) ) ;
#837 = DIRECTION ( 'NONE',  ( -0.0000000000000000000, 1.000000000000000000, -0.0000000000000000000 ) ) ;
#838 = VECTOR ( 'NONE', #402, 1000.000000000000000 ) ;
#839 = EDGE_CURVE ( 'NONE', #962, #346, #168, .T. ) ;
#840 = AXIS2_PLACEMENT_3D ( 'NONE', #423, #503, #608 ) ;
#841 = VERTEX_POINT ( 'NONE', #97 ) ;
#842 = DIRECTION ( 'NONE',  ( 0.0000000000000000000, -1.000000000000000000, 0.0000000000000000000 ) ) ;
#843 = ORIENTED_EDGE ( 'NONE', *, *, #55, .T. ) ;
#844 = FACE_OUTER_BOUND ( 'NONE', #156, .T. ) ;
#845 = VERTEX_POINT ( 'NONE', #5 ) ;
#846 = ORIENTED_EDGE ( 'NONE', *, *, #690, .T. ) ;
#847 = EDGE_CURVE ( 'NONE', #1274, #1229, #883, .T. ) ;
#848 = CARTESIAN_POINT ( 'NONE',  ( 0.3499999999999999223, 0.0000000000000000000, 0.3599999999999999312 ) ) ;
#849 = DIRECTION ( 'NONE',  ( -1.000000000000000000, 0.0000000000000000000, 0.0000000000000000000 ) ) ;
#850 = DIRECTION ( 'NONE',  ( -1.355252715606881036E-16, 0.0000000000000000000, -1.000000000000000000 ) ) ;
#851 = ORIENTED_EDGE ( 'NONE', *, *, #663, .T. ) ;
#852 = PRESENTATION_LAYER_ASSIGNMENT (  '', '', ( #1073 ) ) ;
#853 = CARTESIAN_POINT ( 'NONE',  ( -0.7599999999999998979, 0.9499999999999999556, 0.3999999999999999112 ) ) ;
#854 = FACE_OUTER_BOUND ( 'NONE', #441, .T. ) ;
#855 = ORIENTED_EDGE ( 'NONE', *, *, #484, .F. ) ;
#856 = CARTESIAN_POINT ( 'NONE',  ( -0.7600000000000000089, 0.9499999999999999556, -0.3999999999999999112 ) ) ;
#857 = CIRCLE ( 'NONE', #1186, 0.03999999999999999389 ) ;
#858 = DIRECTION ( 'NONE',  ( -1.355252715606881036E-16, 0.0000000000000000000, 1.000000000000000000 ) ) ;
#859 = AXIS2_PLACEMENT_3D ( 'NONE', #725, #1024, #327 ) ;
#860 = DIRECTION ( 'NONE',  ( -1.000000000000000000, 0.0000000000000000000, 0.0000000000000000000 ) ) ;
#861 = PLANE ( 'NONE',  #996 ) ;
#862 = LINE ( 'NONE', #392, #838 ) ;
#863 = CARTESIAN_POINT ( 'NONE',  ( 500000.0000000000582, 0.9100000000000000311, -0.3600000000433680736 ) ) ;
#864 = CARTESIAN_POINT ( 'NONE',  ( 500000.0000000000582, 0.9366666666666666474, -0.3600000000433680736 ) ) ;
#865 = CARTESIAN_POINT ( 'NONE',  ( 0.0000000000000000000, 0.9100000000000000311, -0.3599999999999999312 ) ) ;
#866 = EDGE_CURVE ( 'NONE', #790, #417, #359, .T. ) ;
#867 = ORIENTED_EDGE ( 'NONE', *, *, #348, .T. ) ;
#868 = CARTESIAN_POINT ( 'NONE',  ( 0.3500000000000000333, 0.9499999999999999556, -0.3999999999999999112 ) ) ;
#869 = AXIS2_PLACEMENT_3D ( 'NONE', #703, #1280, #295 ) ;
#870 = DIRECTION ( 'NONE',  ( 0.0000000000000000000, 0.0000000000000000000, 1.000000000000000000 ) ) ;
#871 = DIRECTION ( 'NONE',  ( 0.0000000000000000000, -1.000000000000000000, 0.0000000000000000000 ) ) ;
#872 = CARTESIAN_POINT ( 'NONE',  ( -0.7599999999999998979, 0.03999999999999999389, 0.3999999999999999112 ) ) ;
#873 = ORIENTED_EDGE ( 'NONE', *, *, #847, .T. ) ;
#874 = CIRCLE ( 'NONE', #1035, 0.03999999999999999389 ) ;
#875 = ORIENTED_EDGE ( 'NONE', *, *, #1032, .F. ) ;
#876 = LINE ( 'NONE', #204, #822 ) ;
#877 = DIRECTION ( 'NONE',  ( -0.0000000000000000000, 1.000000000000000000, -0.0000000000000000000 ) ) ;
#878 = EDGE_CURVE ( 'NONE', #1060, #1136, #618, .T. ) ;
#879 = CARTESIAN_POINT ( 'NONE',  ( 500000.0000000000582, 0.04000000000000043104, 0.3866666666232984051 ) ) ;
#880 = ORIENTED_EDGE ( 'NONE', *, *, #355, .F. ) ;
#881 = EDGE_CURVE ( 'NONE', #537, #781, #899, .T. ) ;
#882 = DIRECTION ( 'NONE',  ( -1.000000000000000000, 0.0000000000000000000, 0.0000000000000000000 ) ) ;
#883 = LINE ( 'NONE', #90, #650 ) ;
#884 = ADVANCED_FACE ( 'NONE', ( #1189 ), #1160, .T. ) ;
#885 = STYLED_ITEM ( 'NONE', ( #778 ), #751 ) ;
#886 = CARTESIAN_POINT ( 'NONE',  ( 0.7599999999999998979, 0.0000000000000000000, 1.029992063861229582E-16 ) ) ;
#887 = ORIENTED_EDGE ( 'NONE', *, *, #1107, .F. ) ;
#888 = ORIENTED_EDGE ( 'NONE', *, *, #1124, .T. ) ;
#889 = LINE ( 'NONE', #457, #949 ) ;
#890 = CARTESIAN_POINT ( 'NONE',  ( 0.7599999999999998979, 0.9100000000000000311, 0.3599999999999999312 ) ) ;
#891 =( NAMED_UNIT ( * ) PLANE_ANGLE_UNIT ( ) SI_UNIT ( $, .RADIAN. ) );
#892 = CIRCLE ( 'NONE', #840, 0.03999999999999999389 ) ;
#893 = AXIS2_PLACEMENT_3D ( 'NONE', #1171, #285, #576 ) ;
#894 =( LENGTH_UNIT ( ) NAMED_UNIT ( * ) SI_UNIT ( .MILLI., .METRE. ) );
#895 = ORIENTED_EDGE ( 'NONE', *, *, #1163, .F. ) ;
#896 = ADVANCED_FACE ( 'NONE', ( #405 ), #689, .T. ) ;
#897 = DIRECTION ( 'NONE',  ( -1.355252715606881036E-16, 0.0000000000000000000, 1.000000000000000000 ) ) ;
#898 = CARTESIAN_POINT ( 'NONE',  ( 0.7599999999999998979, 0.9100000000000000311, 0.3599999999999999312 ) ) ;
#899 = CIRCLE ( 'NONE', #440, 0.02666666666666664756 ) ;
#900 = AXIS2_PLACEMENT_3D ( 'NONE', #705, #387, #1089 ) ;
#901 = ORIENTED_EDGE ( 'NONE', *, *, #929, .F. ) ;
#902 = PRESENTATION_STYLE_ASSIGNMENT (( #353 ) ) ;
#903 = EDGE_LOOP ( 'NONE', ( #286, #225, #52, #492 ) ) ;
#904 =( NAMED_UNIT ( * ) PLANE_ANGLE_UNIT ( ) SI_UNIT ( $, .RADIAN. ) );
#905 = CARTESIAN_POINT ( 'NONE',  ( -0.8000000000000000444, 0.9499999999999999556, -0.3599999999999999312 ) ) ;
#906 = DIRECTION ( 'NONE',  ( 1.000000000000000000, 0.0000000000000000000, 0.0000000000000000000 ) ) ;
#907 = ORIENTED_EDGE ( 'NONE', *, *, #389, .T. ) ;
#908 = EDGE_CURVE ( 'NONE', #139, #324, #332, .T. ) ;
#909 = MANIFOLD_SOLID_BREP ( 'Fillet1', #232 ) ;
#910 = CARTESIAN_POINT ( 'NONE',  ( -0.3500000000000000333, 0.9499999999999999556, -0.3999999999999999112 ) ) ;
#911 = EDGE_LOOP ( 'NONE', ( #1148, #616, #988, #685 ) ) ;
#912 = DIRECTION ( 'NONE',  ( -1.000000000000000000, 0.0000000000000000000, 0.0000000000000000000 ) ) ;
#913 = VERTEX_POINT ( 'NONE', #816 ) ;
#914 = VECTOR ( 'NONE', #49, 1000.000000000000000 ) ;
#915 = CARTESIAN_POINT ( 'NONE',  ( 0.8000000000000000444, 0.9499999999999999556, -0.3599999999999999312 ) ) ;
#916 = CIRCLE ( 'NONE', #76, 0.03999999999999999389 ) ;
#917 = CLOSED_SHELL ( 'NONE', ( #1096, #316, #617, #625, #206, #698, #896, #9, #1275, #95, #956, #287, #578, #707, #796, #884, #106, #1101 ) ) ;
#918 = AXIS2_PLACEMENT_3D ( 'NONE', #630, #763, #1033 ) ;
#919 = ORIENTED_EDGE ( 'NONE', *, *, #249, .F. ) ;
#920 = CARTESIAN_POINT ( 'NONE',  ( -0.3500000000000000333, 0.03999999999999999389, -0.3866666666666665475 ) ) ;
#921 = DIRECTION ( 'NONE',  ( 1.000000000000000000, 0.0000000000000000000, 1.355252715606881036E-16 ) ) ;
#922 = SPHERICAL_SURFACE ( 'NONE', #968, 0.04000000000000000083 ) ;
#923 = DIRECTION ( 'NONE',  ( -1.000000000000000000, 0.0000000000000000000, 0.0000000000000000000 ) ) ;
#924 = AXIS2_PLACEMENT_3D ( 'NONE', #268, #954, #1153 ) ;
#925 = DIRECTION ( 'NONE',  ( -0.0000000000000000000, -1.000000000000000000, -0.0000000000000000000 ) ) ;
#926 = ORIENTED_EDGE ( 'NONE', *, *, #1163, .T. ) ;
#927 = CARTESIAN_POINT ( 'NONE',  ( -0.7600000000000000089, 0.9499999999999999556, -0.3599999999999999312 ) ) ;
#928 = EDGE_LOOP ( 'NONE', ( #1106, #376, #496, #622 ) ) ;
#929 = EDGE_CURVE ( 'NONE', #600, #27, #1094, .T. ) ;
#930 = FACE_OUTER_BOUND ( 'NONE', #621, .T. ) ;
#931 = CARTESIAN_POINT ( 'NONE',  ( 0.8000000000000000444, 0.03999999999999999389, -0.3599999999999999312 ) ) ;
#932 = ORIENTED_EDGE ( 'NONE', *, *, #484, .T. ) ;
#933 = AXIS2_PLACEMENT_3D ( 'NONE', #525, #337, #649 ) ;
#934 = CARTESIAN_POINT ( 'NONE',  ( -0.3500000000000000333, 0.9499999999999999556, -0.3599999999999999312 ) ) ;
#935 = CARTESIAN_POINT ( 'NONE',  ( -0.3500000000000000333, 0.9100000000000000311, -0.3999999999999999112 ) ) ;
#936 = CIRCLE ( 'NONE', #1058, 0.03999999999999999389 ) ;
#937 = VERTEX_POINT ( 'NONE', #414 ) ;
#938 = CARTESIAN_POINT ( 'NONE',  ( -0.3500000000000000333, 0.0000000000000000000, -0.3999999999999999112 ) ) ;
#939 = EDGE_LOOP ( 'NONE', ( #574, #560, #1222, #281 ) ) ;
#940 = STYLED_ITEM ( 'NONE', ( #902 ), #443 ) ;
#941 = ORIENTED_EDGE ( 'NONE', *, *, #610, .F. ) ;
#942 = CARTESIAN_POINT ( 'NONE',  ( -0.3499999999999999223, 0.9100000000000000311, 0.3599999999999999312 ) ) ;
#943 = LINE ( 'NONE', #588, #220 ) ;
#944 = FILL_AREA_STYLE_COLOUR ( '', #483 ) ;
#945 = ORIENTED_EDGE ( 'NONE', *, *, #929, .T. ) ;
#946 = VERTEX_POINT ( 'NONE', #1013 ) ;
#947 = CARTESIAN_POINT ( 'NONE',  ( 0.8000000000000000444, 0.9499999999999999556, -0.3999999999999999112 ) ) ;
#948 = EDGE_CURVE ( 'NONE', #781, #962, #101, .T. ) ;
#949 = VECTOR ( 'NONE', #522, 1000.000000000000000 ) ;
#950 = PRODUCT_DEFINITION_FORMATION_WITH_SPECIFIED_SOURCE ( 'ANY', '', #185, .NOT_KNOWN. ) ;
#951 = CARTESIAN_POINT ( 'NONE',  ( 0.3500000000000000333, 0.9499999999999999556, -0.3999999999999999112 ) ) ;
#952 = ORIENTED_EDGE ( 'NONE', *, *, #1155, .T. ) ;
#953 = CARTESIAN_POINT ( 'NONE',  ( 0.7999999999999999334, 0.03999999999999999389, 0.3599999999999999312 ) ) ;
#954 = DIRECTION ( 'NONE',  ( 1.000000000000000000, 0.0000000000000000000, 1.355252715606881036E-16 ) ) ;
#955 = ORIENTED_EDGE ( 'NONE', *, *, #419, .F. ) ;
#956 = ADVANCED_FACE ( 'NONE', ( #115 ), #203, .T. ) ;
#957 = EDGE_CURVE ( 'NONE', #165, #501, #358, .T. ) ;
#958 = CARTESIAN_POINT ( 'NONE',  ( 0.7600000000000000089, 0.9499999999999999556, -0.3599999999999999312 ) ) ;
#959 = AXIS2_PLACEMENT_3D ( 'NONE', #774, #850, #1250 ) ;
#960 = CARTESIAN_POINT ( 'NONE',  ( 0.7599999999999998979, 0.04000000000000000083, 0.3599999999999999312 ) ) ;
#961 = VECTOR ( 'NONE', #1085, 1000.000000000000000 ) ;
#962 = VERTEX_POINT ( 'NONE', #365 ) ;
#963 = DIRECTION ( 'NONE',  ( 0.0000000000000000000, 0.0000000000000000000, 1.000000000000000000 ) ) ;
#964 = SURFACE_STYLE_FILL_AREA ( #356 ) ;
#965 = CARTESIAN_POINT ( 'NONE',  ( -0.8000000000000000444, 0.9499999999999999556, -0.3999999999999999112 ) ) ;
#966 = ORIENTED_EDGE ( 'NONE', *, *, #167, .T. ) ;
#967 = ORIENTED_EDGE ( 'NONE', *, *, #213, .T. ) ;
#968 = AXIS2_PLACEMENT_3D ( 'NONE', #735, #221, #325 ) ;
#969 = DIRECTION ( 'NONE',  ( 0.0000000000000000000, 0.0000000000000000000, -1.000000000000000000 ) ) ;
#970 = VECTOR ( 'NONE', #374, 1000.000000000000000 ) ;
#971 = CARTESIAN_POINT ( 'NONE',  ( -0.7599999999999998979, 0.9100000000000000311, 0.3599999999999999312 ) ) ;
#972 = FACE_OUTER_BOUND ( 'NONE', #606, .T. ) ;
#973 = PLANE ( 'NONE',  #425 ) ;
#974 = UNCERTAINTY_MEASURE_WITH_UNIT (LENGTH_MEASURE( 1.000000000000000082E-05 ), #314, 'distance_accuracy_value', 'NONE');
#975 = CARTESIAN_POINT ( 'NONE',  ( 0.3499999999999999223, 0.9499999999999999556, 0.3599999999999999312 ) ) ;
#976 = EDGE_CURVE ( 'NONE', #1172, #1000, #184, .T. ) ;
#977 = EDGE_LOOP ( 'NONE', ( #1208, #1193, #867, #672 ) ) ;
#978 = DIRECTION ( 'NONE',  ( 0.0000000000000000000, 0.0000000000000000000, 1.000000000000000000 ) ) ;
#979 = VECTOR ( 'NONE', #1059, 1000.000000000000000 ) ;
#980 = ADVANCED_FACE ( 'NONE', ( #390 ), #1248, .T. ) ;
#981 = ADVANCED_FACE ( 'NONE', ( #828 ), #340, .F. ) ;
#982 = DIRECTION ( 'NONE',  ( 0.0000000000000000000, 0.0000000000000000000, -1.000000000000000000 ) ) ;
#983 = CYLINDRICAL_SURFACE ( 'NONE', #869, 0.03999999999999999389 ) ;
#984 = ORIENTED_EDGE ( 'NONE', *, *, #205, .T. ) ;
#985 = VECTOR ( 'NONE', #779, 1000.000000000000000 ) ;
#986 = CARTESIAN_POINT ( 'NONE',  ( 0.3499999999999999223, 0.9499999999999999556, 0.3999999999999999112 ) ) ;
#987 = ORIENTED_EDGE ( 'NONE', *, *, #746, .T. ) ;
#988 = ORIENTED_EDGE ( 'NONE', *, *, #4, .F. ) ;
#989 = VECTOR ( 'NONE', #748, 1000.000000000000000 ) ;
#990 = DIRECTION ( 'NONE',  ( -0.0000000000000000000, 0.0000000000000000000, -1.000000000000000000 ) ) ;
#991 = DIRECTION ( 'NONE',  ( 1.000000000000000000, 0.0000000000000000000, 0.0000000000000000000 ) ) ;
#992 = ADVANCED_FACE ( 'NONE', ( #234 ), #549, .T. ) ;
#993 =( GEOMETRIC_REPRESENTATION_CONTEXT ( 3 ) GLOBAL_UNCERTAINTY_ASSIGNED_CONTEXT ( ( #36 ) ) GLOBAL_UNIT_ASSIGNED_CONTEXT ( ( #122, #328, #1022 ) ) REPRESENTATION_CONTEXT ( 'NONE', 'WORKASPACE' ) );
#994 = CYLINDRICAL_SURFACE ( 'NONE', #859, 0.02666666666666664756 ) ;
#995 = DIRECTION ( 'NONE',  ( -1.355252715606881036E-16, 0.0000000000000000000, 1.000000000000000000 ) ) ;
#996 = AXIS2_PLACEMENT_3D ( 'NONE', #965, #1241, #1068 ) ;
#997 = AXIS2_PLACEMENT_3D ( 'NONE', #480, #1161, #563 ) ;
#998 = APPLICATION_PROTOCOL_DEFINITION ( 'draft international standard', 'automotive_design', 1998, #111 ) ;
#999 = DIRECTION ( 'NONE',  ( -1.000000000000000000, 0.0000000000000000000, 0.0000000000000000000 ) ) ;
#1000 = VERTEX_POINT ( 'NONE', #1152 ) ;
#1001 = VECTOR ( 'NONE', #541, 1000.000000000000000 ) ;
#1002 = CARTESIAN_POINT ( 'NONE',  ( 500000.0000000000582, 0.9366666666666666474, -0.3600000000433680736 ) ) ;
#1003 = CARTESIAN_POINT ( 'NONE',  ( -0.8000000000000000444, 0.03999999999999999389, -0.3599999999999999312 ) ) ;
#1004 = EDGE_CURVE ( 'NONE', #1044, #1052, #303, .T. ) ;
#1005 = CIRCLE ( 'NONE', #1204, 0.02666666666666664756 ) ;
#1006 = AXIS2_PLACEMENT_3D ( 'NONE', #1008, #228, #318 ) ;
#1007 = DIRECTION ( 'NONE',  ( -0.0000000000000000000, -1.000000000000000000, -0.0000000000000000000 ) ) ;
#1008 = CARTESIAN_POINT ( 'NONE',  ( -0.7599999999999998979, 0.9100000000000000311, 0.3599999999999999312 ) ) ;
#1009 = MANIFOLD_SOLID_BREP ( 'Mirror2', #917 ) ;
#1010 = ORIENTED_EDGE ( 'NONE', *, *, #722, .T. ) ;
#1011 = CARTESIAN_POINT ( 'NONE',  ( 0.7599999999999998979, 0.9100000000000000311, 0.3599999999999999312 ) ) ;
#1012 = CARTESIAN_POINT ( 'NONE',  ( 0.0000000000000000000, 0.0000000000000000000, 0.0000000000000000000 ) ) ;
#1013 = CARTESIAN_POINT ( 'NONE',  ( 0.3500000000000000333, 0.04000000000000021594, -0.3999999999999999112 ) ) ;
#1014 = PRESENTATION_LAYER_ASSIGNMENT (  '', '', ( #940 ) ) ;
#1015 = VECTOR ( 'NONE', #490, 1000.000000000000000 ) ;
#1016 = ORIENTED_EDGE ( 'NONE', *, *, #456, .T. ) ;
#1017 = LINE ( 'NONE', #1150, #676 ) ;
#1018 = ORIENTED_EDGE ( 'NONE', *, *, #439, .T. ) ;
#1019 = ORIENTED_EDGE ( 'NONE', *, *, #223, .T. ) ;
#1020 = FACE_OUTER_BOUND ( 'NONE', #422, .T. ) ;
#1021 = PLANE ( 'NONE',  #178 ) ;
#1022 =( NAMED_UNIT ( * ) SI_UNIT ( $, .STERADIAN. ) SOLID_ANGLE_UNIT ( ) );
#1023 = FACE_OUTER_BOUND ( 'NONE', #754, .T. ) ;
#1024 = DIRECTION ( 'NONE',  ( -1.000000000000000000, -0.0000000000000000000, 8.673617379884036705E-17 ) ) ;
#1025 = DIRECTION ( 'NONE',  ( -0.0000000000000000000, 1.000000000000000000, -0.0000000000000000000 ) ) ;
#1026 = EDGE_CURVE ( 'NONE', #706, #482, #1045, .T. ) ;
#1027 = FACE_OUTER_BOUND ( 'NONE', #928, .T. ) ;
#1028 = AXIS2_PLACEMENT_3D ( 'NONE', #1200, #1095, #1188 ) ;
#1029 = DIRECTION ( 'NONE',  ( 0.0000000000000000000, 0.0000000000000000000, 1.000000000000000000 ) ) ;
#1030 = DIRECTION ( 'NONE',  ( 0.0000000000000000000, 0.0000000000000000000, 1.000000000000000000 ) ) ;
#1031 = COLOUR_RGB ( '',0.7921568627450980005, 0.8196078431372548767, 0.9333333333333333481 ) ;
#1032 = EDGE_CURVE ( 'NONE', #290, #546, #43, .T. ) ;
#1033 = DIRECTION ( 'NONE',  ( -1.000000000000000000, 0.0000000000000000000, 0.0000000000000000000 ) ) ;
#1034 = EDGE_LOOP ( 'NONE', ( #738, #80, #1016, #926, #1231, #1116, #1164, #192 ) ) ;
#1035 = AXIS2_PLACEMENT_3D ( 'NONE', #237, #753, #154 ) ;
#1036 = LINE ( 'NONE', #453, #1255 ) ;
#1037 = DIRECTION ( 'NONE',  ( 0.0000000000000000000, -1.000000000000000000, -0.0000000000000000000 ) ) ;
#1038 = CARTESIAN_POINT ( 'NONE',  ( -0.3499999999999999223, 0.9100000000000000311, 0.3866666666666665475 ) ) ;
#1039 = SURFACE_STYLE_FILL_AREA ( #601 ) ;
#1040 = CYLINDRICAL_SURFACE ( 'NONE', #900, 0.03999999999999999389 ) ;
#1041 = AXIS2_PLACEMENT_3D ( 'NONE', #553, #229, #836 ) ;
#1042 = ORIENTED_EDGE ( 'NONE', *, *, #1071, .F. ) ;
#1043 = DIRECTION ( 'NONE',  ( -1.000000000000000000, 0.0000000000000000000, 0.0000000000000000000 ) ) ;
#1044 = VERTEX_POINT ( 'NONE', #40 ) ;
#1045 = CIRCLE ( 'NONE', #251, 0.03999999999999999389 ) ;
#1046 = FACE_OUTER_BOUND ( 'NONE', #173, .T. ) ;
#1047 = CARTESIAN_POINT ( 'NONE',  ( -0.3500000000000000333, 0.9099999999999998090, -0.3866666666666665475 ) ) ;
#1048 = ORIENTED_EDGE ( 'NONE', *, *, #598, .F. ) ;
#1049 = EDGE_CURVE ( 'NONE', #415, #533, #91, .T. ) ;
#1050 = FACE_OUTER_BOUND ( 'NONE', #119, .T. ) ;
#1051 = ADVANCED_FACE ( 'NONE', ( #534 ), #661, .F. ) ;
#1052 = VERTEX_POINT ( 'NONE', #953 ) ;
#1053 = DIRECTION ( 'NONE',  ( 1.355252715606880789E-16, -0.0000000000000000000, -1.000000000000000000 ) ) ;
#1054 = FACE_OUTER_BOUND ( 'NONE', #520, .T. ) ;
#1055 = CARTESIAN_POINT ( 'NONE',  ( 0.0000000000000000000, 0.9100000000000000311, 0.3599999999999999312 ) ) ;
#1056 = DIRECTION ( 'NONE',  ( -1.000000000000000000, -0.0000000000000000000, -0.0000000000000000000 ) ) ;
#1057 = ORIENTED_EDGE ( 'NONE', *, *, #670, .T. ) ;
#1058 = AXIS2_PLACEMENT_3D ( 'NONE', #960, #78, #1254 ) ;
#1059 = DIRECTION ( 'NONE',  ( -1.000000000000000000, -0.0000000000000000000, -0.0000000000000000000 ) ) ;
#1060 = VERTEX_POINT ( 'NONE', #834 ) ;
#1061 = VECTOR ( 'NONE', #837, 1000.000000000000000 ) ;
#1062 = CARTESIAN_POINT ( 'NONE',  ( 0.3500000000258296495, 0.9366666666666666474, -0.3600000001111306469 ) ) ;
#1063 = DIRECTION ( 'NONE',  ( 0.0000000000000000000, -0.0000000000000000000, 1.000000000000000000 ) ) ;
#1064 = ORIENTED_EDGE ( 'NONE', *, *, #50, .F. ) ;
#1065 = VECTOR ( 'NONE', #1119, 1000.000000000000000 ) ;
#1066 = DIRECTION ( 'NONE',  ( -1.000000000000000000, -0.0000000000000000000, 8.673617379884036705E-17 ) ) ;
#1067 = DIRECTION ( 'NONE',  ( 1.355252715606881036E-16, 0.0000000000000000000, -1.000000000000000000 ) ) ;
#1068 = DIRECTION ( 'NONE',  ( 1.000000000000000000, 0.0000000000000000000, -0.0000000000000000000 ) ) ;
#1069 = ORIENTED_EDGE ( 'NONE', *, *, #419, .T. ) ;
#1070 = PLANE ( 'NONE',  #733 ) ;
#1071 = EDGE_CURVE ( 'NONE', #444, #506, #659, .T. ) ;
#1072 = PLANE ( 'NONE',  #599 ) ;
#1073 = STYLED_ITEM ( 'NONE', ( #567 ), #1009 ) ;
#1074 = DIRECTION ( 'NONE',  ( 1.000000000000000000, 0.0000000000000000000, 1.355252715606881036E-16 ) ) ;
#1075 = ORIENTED_EDGE ( 'NONE', *, *, #109, .F. ) ;
#1076 = DIRECTION ( 'NONE',  ( 1.000000000000000000, -0.0000000000000000000, -0.0000000000000000000 ) ) ;
#1077 = ORIENTED_EDGE ( 'NONE', *, *, #642, .F. ) ;
#1078 = DIRECTION ( 'NONE',  ( -1.000000000000000000, -0.0000000000000000000, 8.673617379884036705E-17 ) ) ;
#1079 = LINE ( 'NONE', #766, #256 ) ;
#1080 = ORIENTED_EDGE ( 'NONE', *, *, #176, .T. ) ;
#1081 = VERTEX_POINT ( 'NONE', #1123 ) ;
#1082 = VECTOR ( 'NONE', #266, 1000.000000000000000 ) ;
#1083 = LINE ( 'NONE', #589, #607 ) ;
#1084 = LINE ( 'NONE', #719, #823 ) ;
#1085 = DIRECTION ( 'NONE',  ( -1.355252715606881036E-16, 0.0000000000000000000, 1.000000000000000000 ) ) ;
#1086 = AXIS2_PLACEMENT_3D ( 'NONE', #416, #418, #1210 ) ;
#1087 = FACE_OUTER_BOUND ( 'NONE', #347, .T. ) ;
#1088 = DIRECTION ( 'NONE',  ( 1.000000000000000000, 0.0000000000000000000, 0.0000000000000000000 ) ) ;
#1089 = DIRECTION ( 'NONE',  ( 0.0000000000000000000, 0.0000000000000000000, -1.000000000000000000 ) ) ;
#1090 = DIRECTION ( 'NONE',  ( -1.000000000000000000, 0.0000000000000000000, 0.0000000000000000000 ) ) ;
#1091 = EDGE_CURVE ( 'NONE', #1000, #592, #70, .T. ) ;
#1092 = ORIENTED_EDGE ( 'NONE', *, *, #81, .F. ) ;
#1093 = DIRECTION ( 'NONE',  ( -1.000000000000000000, -0.0000000000000000000, 8.673617379884036705E-17 ) ) ;
#1094 = LINE ( 'NONE', #330, #267 ) ;
#1095 = DIRECTION ( 'NONE',  ( -1.000000000000000000, 0.0000000000000000000, 0.0000000000000000000 ) ) ;
#1096 = ADVANCED_FACE ( 'NONE', ( #844 ), #1070, .F. ) ;
#1097 = DIRECTION ( 'NONE',  ( 1.355252715606881036E-16, 0.0000000000000000000, 1.000000000000000000 ) ) ;
#1098 = EDGE_LOOP ( 'NONE', ( #702, #83, #901, #171 ) ) ;
#1099 = FACE_OUTER_BOUND ( 'NONE', #449, .T. ) ;
#1100 = EDGE_CURVE ( 'NONE', #417, #290, #806, .T. ) ;
#1101 = ADVANCED_FACE ( 'NONE', ( #226 ), #367, .T. ) ;
#1102 =( NAMED_UNIT ( * ) SI_UNIT ( $, .STERADIAN. ) SOLID_ANGLE_UNIT ( ) );
#1103 = CARTESIAN_POINT ( 'NONE',  ( 500000.0000000000582, 0.01333333333333334286, 0.3599999999566317888 ) ) ;
#1104 = ORIENTED_EDGE ( 'NONE', *, *, #1173, .T. ) ;
#1105 = DIRECTION ( 'NONE',  ( 1.000000000000000000, 0.0000000000000000000, -1.355252715606881036E-16 ) ) ;
#1106 = ORIENTED_EDGE ( 'NONE', *, *, #825, .T. ) ;
#1107 = EDGE_CURVE ( 'NONE', #257, #537, #508, .T. ) ;
#1108 = VECTOR ( 'NONE', #366, 1000.000000000000000 ) ;
#1109 = ORIENTED_EDGE ( 'NONE', *, *, #11, .T. ) ;
#1110 = FACE_OUTER_BOUND ( 'NONE', #603, .T. ) ;
#1111 = VERTEX_POINT ( 'NONE', #664 ) ;
#1112 = CARTESIAN_POINT ( 'NONE',  ( -0.3500000000000000333, 0.9366666666666666474, -0.3599999999999999312 ) ) ;
#1113 = EDGE_CURVE ( 'NONE', #1044, #417, #936, .T. ) ;
#1114 = CARTESIAN_POINT ( 'NONE',  ( -0.3499999999999999223, 0.01333333333333333419, 0.3599999999999999312 ) ) ;
#1115 = CARTESIAN_POINT ( 'NONE',  ( 0.3500000000000000333, 0.0000000000000000000, -0.3599999999999999312 ) ) ;
#1116 = ORIENTED_EDGE ( 'NONE', *, *, #1107, .T. ) ;
#1117 = ORIENTED_EDGE ( 'NONE', *, *, #1113, .T. ) ;
#1118 = AXIS2_PLACEMENT_3D ( 'NONE', #1169, #674, #969 ) ;
#1119 = DIRECTION ( 'NONE',  ( -1.000000000000000000, 0.0000000000000000000, -0.0000000000000000000 ) ) ;
#1120 = ORIENTED_EDGE ( 'NONE', *, *, #249, .T. ) ;
#1121 = DIRECTION ( 'NONE',  ( 1.000000000000000000, 0.0000000000000000000, -8.673617379884036705E-17 ) ) ;
#1122 = DIRECTION ( 'NONE',  ( 0.0000000000000000000, 0.0000000000000000000, -1.000000000000000000 ) ) ;
#1123 = CARTESIAN_POINT ( 'NONE',  ( -0.3499999999999999223, 0.9499999999999999556, 0.3599999999999999312 ) ) ;
#1124 = EDGE_CURVE ( 'NONE', #1172, #743, #797, .T. ) ;
#1125 = CYLINDRICAL_SURFACE ( 'NONE', #21, 0.03999999999999999389 ) ;
#1126 = PRODUCT_DEFINITION ( 'UNKNOWN', '', #950, #1226 ) ;
#1127 = DIRECTION ( 'NONE',  ( 0.0000000000000000000, 0.0000000000000000000, 1.000000000000000000 ) ) ;
#1128 = DIRECTION ( 'NONE',  ( 1.000000000000000000, 0.0000000000000000000, 0.0000000000000000000 ) ) ;
#1129 = PRODUCT_DEFINITION_SHAPE ( 'NONE', 'NONE',  #1126 ) ;
#1130 = ORIENTED_EDGE ( 'NONE', *, *, #878, .F. ) ;
#1131 = SURFACE_STYLE_FILL_AREA ( #504 ) ;
#1132 = ADVANCED_FACE ( 'NONE', ( #1023 ), #717, .T. ) ;
#1133 = EDGE_CURVE ( 'NONE', #1229, #502, #436, .T. ) ;
#1134 = ORIENTED_EDGE ( 'NONE', *, *, #648, .T. ) ;
#1135 = CYLINDRICAL_SURFACE ( 'NONE', #959, 0.03999999999999999389 ) ;
#1136 = VERTEX_POINT ( 'NONE', #164 ) ;
#1137 = ORIENTED_EDGE ( 'NONE', *, *, #550, .T. ) ;
#1138 = DIRECTION ( 'NONE',  ( 0.0000000000000000000, 0.0000000000000000000, 1.000000000000000000 ) ) ;
#1139 = CIRCLE ( 'NONE', #296, 0.03999999999999999389 ) ;
#1140 = DIRECTION ( 'NONE',  ( 0.0000000000000000000, 1.000000000000000000, 0.0000000000000000000 ) ) ;
#1141 = EDGE_CURVE ( 'NONE', #706, #655, #212, .T. ) ;
#1142 =( LENGTH_UNIT ( ) NAMED_UNIT ( * ) SI_UNIT ( .MILLI., .METRE. ) );
#1143 = CARTESIAN_POINT ( 'NONE',  ( 0.3500000000258296495, 0.01333333333333333419, -0.3600000000000000422 ) ) ;
#1144 = EDGE_LOOP ( 'NONE', ( #1048, #941, #1271, #394 ) ) ;
#1145 = EDGE_CURVE ( 'NONE', #415, #324, #326, .T. ) ;
#1146 = DIRECTION ( 'NONE',  ( 0.0000000000000000000, 0.0000000000000000000, 1.000000000000000000 ) ) ;
#1147 = ORIENTED_EDGE ( 'NONE', *, *, #439, .F. ) ;
#1148 = ORIENTED_EDGE ( 'NONE', *, *, #1145, .T. ) ;
#1149 = SURFACE_SIDE_STYLE ('',( #8 ) ) ;
#1150 = CARTESIAN_POINT ( 'NONE',  ( 0.8000000000000000444, 0.9100000000000000311, -0.3999999999999999112 ) ) ;
#1151 = DIRECTION ( 'NONE',  ( 1.000000000000000000, 0.0000000000000000000, 1.355252715606881036E-16 ) ) ;
#1152 = CARTESIAN_POINT ( 'NONE',  ( -0.7600000000000000089, 0.9100000000000000311, -0.3999999999999999112 ) ) ;
#1153 = DIRECTION ( 'NONE',  ( 0.0000000000000000000, 0.0000000000000000000, -1.000000000000000000 ) ) ;
#1154 = SPHERICAL_SURFACE ( 'NONE', #311, 0.04000000000000000083 ) ;
#1155 = EDGE_CURVE ( 'NONE', #913, #10, #1211, .T. ) ;
#1156 = MECHANICAL_DESIGN_GEOMETRIC_PRESENTATION_REPRESENTATION (  '', ( #791 ), #993 ) ;
#1157 = DIRECTION ( 'NONE',  ( 1.000000000000000000, -0.0000000000000000000, -1.355252715606881036E-16 ) ) ;
#1158 = ORIENTED_EDGE ( 'NONE', *, *, #908, .T. ) ;
#1159 = CARTESIAN_POINT ( 'NONE',  ( -0.3500000000000000333, 0.9499999999999999556, -0.3999999999999999112 ) ) ;
#1160 = SPHERICAL_SURFACE ( 'NONE', #1181, 0.04000000000000000083 ) ;
#1161 = DIRECTION ( 'NONE',  ( -1.000000000000000000, -0.0000000000000000000, 8.673617379884036705E-17 ) ) ;
#1162 = CARTESIAN_POINT ( 'NONE',  ( 0.0000000000000000000, 0.0000000000000000000, -0.3599999999999999312 ) ) ;
#1163 = EDGE_CURVE ( 'NONE', #30, #41, #514, .T. ) ;
#1164 = ORIENTED_EDGE ( 'NONE', *, *, #881, .T. ) ;
#1165 = LINE ( 'NONE', #853, #1108 ) ;
#1166 = DIRECTION ( 'NONE',  ( -1.000000000000000000, 0.0000000000000000000, 0.0000000000000000000 ) ) ;
#1167 = ORIENTED_EDGE ( 'NONE', *, *, #570, .F. ) ;
#1168 = EDGE_CURVE ( 'NONE', #600, #165, #1198, .T. ) ;
#1169 = CARTESIAN_POINT ( 'NONE',  ( 0.7600000000000000089, 0.9499999999999999556, -0.3599999999999999312 ) ) ;
#1170 = AXIS2_PLACEMENT_3D ( 'NONE', #100, #597, #15 ) ;
#1171 = CARTESIAN_POINT ( 'NONE',  ( 0.7600000000000000089, 0.03999999999999999389, -0.3599999999999999312 ) ) ;
#1172 = VERTEX_POINT ( 'NONE', #586 ) ;
#1173 = EDGE_CURVE ( 'NONE', #546, #1044, #148, .T. ) ;
#1174 = CARTESIAN_POINT ( 'NONE',  ( 0.7599999999999998979, 0.9100000000000000311, 0.3999999999999999112 ) ) ;
#1175 = AXIS2_PLACEMENT_3D ( 'NONE', #92, #386, #182 ) ;
#1176 = EDGE_LOOP ( 'NONE', ( #447, #932, #250, #1010 ) ) ;
#1177 = CARTESIAN_POINT ( 'NONE',  ( -0.3499999999999999223, 0.9366666666666666474, 0.3599999999999999312 ) ) ;
#1178 = UNCERTAINTY_MEASURE_WITH_UNIT (LENGTH_MEASURE( 1.000000000000000082E-05 ), #1142, 'distance_accuracy_value', 'NONE');
#1179 = DIRECTION ( 'NONE',  ( -1.355252715606881036E-16, 0.0000000000000000000, -1.000000000000000000 ) ) ;
#1180 = CARTESIAN_POINT ( 'NONE',  ( 0.7999999999999999334, 0.9499999999999999556, 0.3599999999999999312 ) ) ;
#1181 = AXIS2_PLACEMENT_3D ( 'NONE', #124, #708, #807 ) ;
#1182 = CARTESIAN_POINT ( 'NONE',  ( 0.3500000000000000333, 0.9499999999999999556, -0.3999999999999999112 ) ) ;
#1183 = SPHERICAL_SURFACE ( 'NONE', #243, 0.04000000000000000083 ) ;
#1184 = DIRECTION ( 'NONE',  ( 1.000000000000000000, 0.0000000000000000000, 1.355252715606881036E-16 ) ) ;
#1185 = ADVANCED_FACE ( 'NONE', ( #580 ), #196, .T. ) ;
#1186 = AXIS2_PLACEMENT_3D ( 'NONE', #104, #399, #808 ) ;
#1187 = EDGE_LOOP ( 'NONE', ( #818, #45, #759, #815 ) ) ;
#1188 = DIRECTION ( 'NONE',  ( 0.0000000000000000000, 0.0000000000000000000, -1.000000000000000000 ) ) ;
#1189 = FACE_OUTER_BOUND ( 'NONE', #58, .T. ) ;
#1190 = CARTESIAN_POINT ( 'NONE',  ( -0.8000000000000000444, 0.9499999999999999556, -0.3999999999999999112 ) ) ;
#1191 = ORIENTED_EDGE ( 'NONE', *, *, #847, .F. ) ;
#1192 = FACE_OUTER_BOUND ( 'NONE', #217, .T. ) ;
#1193 = ORIENTED_EDGE ( 'NONE', *, *, #762, .T. ) ;
#1194 = ORIENTED_EDGE ( 'NONE', *, *, #109, .T. ) ;
#1195 = DIRECTION ( 'NONE',  ( 0.0000000000000000000, -0.0000000000000000000, 1.000000000000000000 ) ) ;
#1196 = EDGE_CURVE ( 'NONE', #1229, #845, #382, .T. ) ;
#1197 =( GEOMETRIC_REPRESENTATION_CONTEXT ( 3 ) GLOBAL_UNCERTAINTY_ASSIGNED_CONTEXT ( ( #802 ) ) GLOBAL_UNIT_ASSIGNED_CONTEXT ( ( #741, #651, #65 ) ) REPRESENTATION_CONTEXT ( 'NONE', 'WORKASPACE' ) );
#1198 = CIRCLE ( 'NONE', #893, 0.03999999999999999389 ) ;
#1199 = CARTESIAN_POINT ( 'NONE',  ( 0.3500000000000000333, 0.9499999999999999556, -0.3599999999999999312 ) ) ;
#1200 = CARTESIAN_POINT ( 'NONE',  ( 0.7999999999999999334, 0.03999999999999999389, 0.3599999999999999312 ) ) ;
#1201 = CARTESIAN_POINT ( 'NONE',  ( -0.7600000000000000089, 0.03999999999999999389, -0.3999999999999999112 ) ) ;
#1202 = ORIENTED_EDGE ( 'NONE', *, *, #152, .T. ) ;
#1203 = ORIENTED_EDGE ( 'NONE', *, *, #4, .T. ) ;
#1204 = AXIS2_PLACEMENT_3D ( 'NONE', #315, #214, #227 ) ;
#1205 = VECTOR ( 'NONE', #1264, 1000.000000000000000 ) ;
#1206 = FACE_OUTER_BOUND ( 'NONE', #1098, .T. ) ;
#1207 = VERTEX_POINT ( 'NONE', #568 ) ;
#1208 = ORIENTED_EDGE ( 'NONE', *, *, #338, .T. ) ;
#1209 = VECTOR ( 'NONE', #849, 1000.000000000000000 ) ;
#1210 = DIRECTION ( 'NONE',  ( 0.0000000000000000000, 0.0000000000000000000, -1.000000000000000000 ) ) ;
#1211 = LINE ( 'NONE', #391, #680 ) ;
#1212 = EDGE_CURVE ( 'NONE', #455, #841, #33, .T. ) ;
#1213 = ORIENTED_EDGE ( 'NONE', *, *, #1133, .T. ) ;
#1214 = DIRECTION ( 'NONE',  ( 0.0000000000000000000, 0.0000000000000000000, -1.000000000000000000 ) ) ;
#1215 = EDGE_CURVE ( 'NONE', #743, #114, #1279, .T. ) ;
#1216 = DIRECTION ( 'NONE',  ( -1.000000000000000000, -0.0000000000000000000, 8.673617379884036705E-17 ) ) ;
#1217 = FILL_AREA_STYLE ('',( #523 ) ) ;
#1218 = AXIS2_PLACEMENT_3D ( 'NONE', #583, #697, #978 ) ;
#1219 = ORIENTED_EDGE ( 'NONE', *, *, #205, .F. ) ;
#1220 = VECTOR ( 'NONE', #842, 1000.000000000000000 ) ;
#1221 = DIRECTION ( 'NONE',  ( 0.0000000000000000000, 1.000000000000000000, -0.0000000000000000000 ) ) ;
#1222 = ORIENTED_EDGE ( 'NONE', *, *, #908, .F. ) ;
#1223 = VERTEX_POINT ( 'NONE', #487 ) ;
#1224 = CARTESIAN_POINT ( 'NONE',  ( -0.3500000000000000333, 0.0000000000000000000, -0.3599999999999999312 ) ) ;
#1225 = CARTESIAN_POINT ( 'NONE',  ( -0.8000000000000000444, 0.9100000000000000311, -0.3599999999999999312 ) ) ;
#1226 = PRODUCT_DEFINITION_CONTEXT ( 'detailed design', #211, 'design' ) ;
#1227 = AXIS2_PLACEMENT_3D ( 'NONE', #112, #982, #999 ) ;
#1228 = VECTOR ( 'NONE', #39, 1000.000000000000000 ) ;
#1229 = VERTEX_POINT ( 'NONE', #975 ) ;
#1230 = CARTESIAN_POINT ( 'NONE',  ( -0.7999999999999999334, 0.9100000000000000311, 0.3999999999999999112 ) ) ;
#1231 = ORIENTED_EDGE ( 'NONE', *, *, #615, .T. ) ;
#1232 = CARTESIAN_POINT ( 'NONE',  ( -0.7600000000000000089, 0.9100000000000000311, -0.3599999999999999312 ) ) ;
#1233 = EDGE_CURVE ( 'NONE', #946, #600, #611, .T. ) ;
#1234 = LINE ( 'NONE', #986, #1015 ) ;
#1235 = MECHANICAL_DESIGN_GEOMETRIC_PRESENTATION_REPRESENTATION (  '', ( #885 ), #519 ) ;
#1236 = LINE ( 'NONE', #1162, #86 ) ;
#1237 = ORIENTED_EDGE ( 'NONE', *, *, #50, .T. ) ;
#1238 = LINE ( 'NONE', #1002, #989 ) ;
#1239 = CARTESIAN_POINT ( 'NONE',  ( -0.7599999999999998979, 0.04000000000000000083, 0.3599999999999999312 ) ) ;
#1240 = DIRECTION ( 'NONE',  ( 0.0000000000000000000, 0.0000000000000000000, -1.000000000000000000 ) ) ;
#1241 = DIRECTION ( 'NONE',  ( 0.0000000000000000000, 0.0000000000000000000, 1.000000000000000000 ) ) ;
#1242 = CARTESIAN_POINT ( 'NONE',  ( -0.7599999999999998979, 0.9100000000000000311, 0.3599999999999999312 ) ) ;
#1243 = FACE_OUTER_BOUND ( 'NONE', #721, .T. ) ;
#1244 = AXIS2_PLACEMENT_3D ( 'NONE', #369, #470, #870 ) ;
#1245 = CARTESIAN_POINT ( 'NONE',  ( 0.0000000000000000000, 0.0000000000000000000, -0.3599999999999999312 ) ) ;
#1246 = DIRECTION ( 'NONE',  ( 1.000000000000000000, 0.0000000000000000000, 1.355252715606881036E-16 ) ) ;
#1247 = DIRECTION ( 'NONE',  ( 1.355252715606881036E-16, -0.0000000000000000000, 1.000000000000000000 ) ) ;
#1248 = CYLINDRICAL_SURFACE ( 'NONE', #274, 0.03999999999999999389 ) ;
#1249 = PLANE ( 'NONE',  #1251 ) ;
#1250 = DIRECTION ( 'NONE',  ( -1.000000000000000000, 0.0000000000000000000, 1.355252715606879063E-16 ) ) ;
#1251 = AXIS2_PLACEMENT_3D ( 'NONE', #668, #471, #564 ) ;
#1252 = CYLINDRICAL_SURFACE ( 'NONE', #494, 0.02666666666666669960 ) ;
#1253 = EDGE_LOOP ( 'NONE', ( #544, #512, #481, #1167 ) ) ;
#1254 = DIRECTION ( 'NONE',  ( 0.0000000000000000000, 0.0000000000000000000, 1.000000000000000000 ) ) ;
#1255 = VECTOR ( 'NONE', #67, 1000.000000000000000 ) ;
#1256 = AXIS2_PLACEMENT_3D ( 'NONE', #865, #1269, #292 ) ;
#1257 = ORIENTED_EDGE ( 'NONE', *, *, #355, .T. ) ;
#1258 = DIRECTION ( 'NONE',  ( -1.000000000000000000, -0.0000000000000000000, 8.673617379884036705E-17 ) ) ;
#1259 = VECTOR ( 'NONE', #1053, 1000.000000000000000 ) ;
#1260 = CARTESIAN_POINT ( 'NONE',  ( -0.7600000000000000089, 0.03999999999999999389, -0.3599999999999999312 ) ) ;
#1261 = VECTOR ( 'NONE', #293, 1000.000000000000000 ) ;
#1262 = EDGE_CURVE ( 'NONE', #1172, #114, #1139, .T. ) ;
#1263 = AXIS2_PLACEMENT_3D ( 'NONE', #756, #925, #1127 ) ;
#1264 = DIRECTION ( 'NONE',  ( 1.000000000000000000, -0.0000000000000000000, -0.0000000000000000000 ) ) ;
#1265 = CARTESIAN_POINT ( 'NONE',  ( 0.0000000000000000000, 0.0000000000000000000, 0.3599999999999999312 ) ) ;
#1266 = ADVANCED_FACE ( 'NONE', ( #1087 ), #526, .T. ) ;
#1267 = ORIENTED_EDGE ( 'NONE', *, *, #146, .T. ) ;
#1268 = DIRECTION ( 'NONE',  ( 0.0000000000000000000, 0.0000000000000000000, 1.000000000000000000 ) ) ;
#1269 = DIRECTION ( 'NONE',  ( 1.000000000000000000, 0.0000000000000000000, 0.0000000000000000000 ) ) ;
#1270 = VECTOR ( 'NONE', #1093, 1000.000000000000000 ) ;
#1271 = ORIENTED_EDGE ( 'NONE', *, *, #213, .F. ) ;
#1272 = ORIENTED_EDGE ( 'NONE', *, *, #397, .T. ) ;
#1273 = AXIS2_PLACEMENT_3D ( 'NONE', #633, #1037, #528 ) ;
#1274 = VERTEX_POINT ( 'NONE', #85 ) ;
#1275 = ADVANCED_FACE ( 'NONE', ( #1054 ), #246, .T. ) ;
#1276 = ADVANCED_FACE ( 'NONE', ( #262 ), #498, .T. ) ;
#1277 = CARTESIAN_POINT ( 'NONE',  ( 0.8000000000000000444, 0.03999999999999999389, -0.3999999999999999112 ) ) ;
#1278 = CARTESIAN_POINT ( 'NONE',  ( 0.3500000000258296495, 0.9100000000000000311, 0.3866666666666664365 ) ) ;
#1279 = CIRCLE ( 'NONE', #1175, 0.03999999999999999389 ) ;
#1280 = DIRECTION ( 'NONE',  ( 1.000000000000000000, 0.0000000000000000000, 0.0000000000000000000 ) ) ;
ENDSEC;
END-ISO-10303-21;
