ISO-10303-21;
HEADER;
FILE_DESCRIPTION(('FreeCAD Model'),'2;1');
FILE_NAME('Open CASCADE Shape Model','2025-09-25T04:02:03',(''),(''),
  'Open CASCADE STEP processor 7.8','FreeCAD','Unknown');
FILE_SCHEMA(('AUTOMOTIVE_DESIGN { 1 0 10303 214 1 1 1 1 }'));
ENDSEC;
DATA;
#1 = APPLICATION_PROTOCOL_DEFINITION('international standard',
  'automotive_design',2000,#2);
#2 = APPLICATION_CONTEXT(
  'core data for automotive mechanical design processes');
#3 = SHAPE_DEFINITION_REPRESENTATION(#4,#10);
#4 = PRODUCT_DEFINITION_SHAPE('','',#5);
#5 = PRODUCT_DEFINITION('design','',#6,#9);
#6 = PRODUCT_DEFINITION_FORMATION('','',#7);
#7 = PRODUCT('SOIC_standard','SOIC_standard','',(#8));
#8 = PRODUCT_CONTEXT('',#2,'mechanical');
#9 = PRODUCT_DEFINITION_CONTEXT('part definition',#2,'design');
#10 = SHAPE_REPRESENTATION('',(#11,#15,#19,#23,#27,#31,#35,#39,#43,#47,
    #51,#55,#59,#63,#67,#71,#75,#79,#83,#87,#91,#95,#99,#103,#107,#111,
    #115,#119,#123),#127);
#11 = AXIS2_PLACEMENT_3D('',#12,#13,#14);
#12 = CARTESIAN_POINT('',(0.,0.,0.));
#13 = DIRECTION('',(0.,0.,1.));
#14 = DIRECTION('',(1.,0.,-0.));
#15 = AXIS2_PLACEMENT_3D('',#16,#17,#18);
#16 = CARTESIAN_POINT('',(0.,0.,0.));
#17 = DIRECTION('',(0.,0.,1.));
#18 = DIRECTION('',(1.,0.,0.));
#19 = AXIS2_PLACEMENT_3D('',#20,#21,#22);
#20 = CARTESIAN_POINT('',(0.,0.,0.));
#21 = DIRECTION('',(0.,0.,1.));
#22 = DIRECTION('',(1.,0.,0.));
#23 = AXIS2_PLACEMENT_3D('',#24,#25,#26);
#24 = CARTESIAN_POINT('',(0.,0.,0.));
#25 = DIRECTION('',(0.,0.,1.));
#26 = DIRECTION('',(1.,0.,0.));
#27 = AXIS2_PLACEMENT_3D('',#28,#29,#30);
#28 = CARTESIAN_POINT('',(0.,0.,0.));
#29 = DIRECTION('',(0.,0.,1.));
#30 = DIRECTION('',(1.,0.,0.));
#31 = AXIS2_PLACEMENT_3D('',#32,#33,#34);
#32 = CARTESIAN_POINT('',(0.,0.,0.));
#33 = DIRECTION('',(0.,0.,1.));
#34 = DIRECTION('',(1.,0.,0.));
#35 = AXIS2_PLACEMENT_3D('',#36,#37,#38);
#36 = CARTESIAN_POINT('',(0.,0.,0.));
#37 = DIRECTION('',(0.,0.,1.));
#38 = DIRECTION('',(1.,0.,0.));
#39 = AXIS2_PLACEMENT_3D('',#40,#41,#42);
#40 = CARTESIAN_POINT('',(0.,0.,0.));
#41 = DIRECTION('',(0.,0.,1.));
#42 = DIRECTION('',(1.,0.,0.));
#43 = AXIS2_PLACEMENT_3D('',#44,#45,#46);
#44 = CARTESIAN_POINT('',(0.,0.,0.));
#45 = DIRECTION('',(0.,0.,1.));
#46 = DIRECTION('',(1.,0.,0.));
#47 = AXIS2_PLACEMENT_3D('',#48,#49,#50);
#48 = CARTESIAN_POINT('',(0.,0.,0.));
#49 = DIRECTION('',(0.,-1.,-2.22044604925E-16));
#50 = DIRECTION('',(1.,0.,0.));
#51 = AXIS2_PLACEMENT_3D('',#52,#53,#54);
#52 = CARTESIAN_POINT('',(0.,0.,0.));
#53 = DIRECTION('',(0.,-1.,-2.22044604925E-16));
#54 = DIRECTION('',(1.,0.,0.));
#55 = AXIS2_PLACEMENT_3D('',#56,#57,#58);
#56 = CARTESIAN_POINT('',(0.,0.,0.));
#57 = DIRECTION('',(0.,-1.,-2.22044604925E-16));
#58 = DIRECTION('',(1.,0.,0.));
#59 = AXIS2_PLACEMENT_3D('',#60,#61,#62);
#60 = CARTESIAN_POINT('',(0.,0.,0.));
#61 = DIRECTION('',(0.,-1.,-2.22044604925E-16));
#62 = DIRECTION('',(1.,0.,0.));
#63 = AXIS2_PLACEMENT_3D('',#64,#65,#66);
#64 = CARTESIAN_POINT('',(0.,0.,0.));
#65 = DIRECTION('',(0.,0.,1.));
#66 = DIRECTION('',(1.,0.,0.));
#67 = AXIS2_PLACEMENT_3D('',#68,#69,#70);
#68 = CARTESIAN_POINT('',(0.,0.,0.));
#69 = DIRECTION('',(0.,0.,1.));
#70 = DIRECTION('',(1.,0.,0.));
#71 = AXIS2_PLACEMENT_3D('',#72,#73,#74);
#72 = CARTESIAN_POINT('',(0.,0.,0.));
#73 = DIRECTION('',(0.,0.,1.));
#74 = DIRECTION('',(1.,0.,0.));
#75 = AXIS2_PLACEMENT_3D('',#76,#77,#78);
#76 = CARTESIAN_POINT('',(0.,0.,0.));
#77 = DIRECTION('',(0.,0.,1.));
#78 = DIRECTION('',(1.,0.,0.));
#79 = AXIS2_PLACEMENT_3D('',#80,#81,#82);
#80 = CARTESIAN_POINT('',(0.,0.,0.));
#81 = DIRECTION('',(1.,1.232595164408E-32,1.110223024625E-16));
#82 = DIRECTION('',(0.,1.,-1.110223024625E-16));
#83 = AXIS2_PLACEMENT_3D('',#84,#85,#86);
#84 = CARTESIAN_POINT('',(0.,0.,0.));
#85 = DIRECTION('',(1.,1.232595164408E-32,1.110223024625E-16));
#86 = DIRECTION('',(0.,1.,-1.110223024625E-16));
#87 = AXIS2_PLACEMENT_3D('',#88,#89,#90);
#88 = CARTESIAN_POINT('',(0.,0.,0.));
#89 = DIRECTION('',(1.,1.232595164408E-32,1.110223024625E-16));
#90 = DIRECTION('',(0.,1.,-1.110223024625E-16));
#91 = AXIS2_PLACEMENT_3D('',#92,#93,#94);
#92 = CARTESIAN_POINT('',(0.,0.,0.));
#93 = DIRECTION('',(1.,1.232595164408E-32,1.110223024625E-16));
#94 = DIRECTION('',(0.,1.,-1.110223024625E-16));
#95 = AXIS2_PLACEMENT_3D('',#96,#97,#98);
#96 = CARTESIAN_POINT('',(0.,0.,0.));
#97 = DIRECTION('',(1.,1.232595164408E-32,1.110223024625E-16));
#98 = DIRECTION('',(0.,1.,-1.110223024625E-16));
#99 = AXIS2_PLACEMENT_3D('',#100,#101,#102);
#100 = CARTESIAN_POINT('',(0.,0.,0.));
#101 = DIRECTION('',(1.,1.232595164408E-32,1.110223024625E-16));
#102 = DIRECTION('',(0.,1.,-1.110223024625E-16));
#103 = AXIS2_PLACEMENT_3D('',#104,#105,#106);
#104 = CARTESIAN_POINT('',(0.,0.,0.));
#105 = DIRECTION('',(1.,1.232595164408E-32,1.110223024625E-16));
#106 = DIRECTION('',(0.,1.,-1.110223024625E-16));
#107 = AXIS2_PLACEMENT_3D('',#108,#109,#110);
#108 = CARTESIAN_POINT('',(0.,0.,0.));
#109 = DIRECTION('',(1.,1.232595164408E-32,1.110223024625E-16));
#110 = DIRECTION('',(0.,1.,-1.110223024625E-16));
#111 = AXIS2_PLACEMENT_3D('',#112,#113,#114);
#112 = CARTESIAN_POINT('',(0.,0.,0.));
#113 = DIRECTION('',(0.,-1.,1.110223024625E-16));
#114 = DIRECTION('',(0.,1.110223024625E-16,1.));
#115 = AXIS2_PLACEMENT_3D('',#116,#117,#118);
#116 = CARTESIAN_POINT('',(0.,0.,0.));
#117 = DIRECTION('',(0.,-1.,1.110223024625E-16));
#118 = DIRECTION('',(0.,1.110223024625E-16,1.));
#119 = AXIS2_PLACEMENT_3D('',#120,#121,#122);
#120 = CARTESIAN_POINT('',(0.,0.,0.));
#121 = DIRECTION('',(0.,-1.,1.110223024625E-16));
#122 = DIRECTION('',(0.,1.110223024625E-16,1.));
#123 = AXIS2_PLACEMENT_3D('',#124,#125,#126);
#124 = CARTESIAN_POINT('',(0.,0.,0.));
#125 = DIRECTION('',(0.,-1.,1.110223024625E-16));
#126 = DIRECTION('',(0.,1.110223024625E-16,1.));
#127 = ( GEOMETRIC_REPRESENTATION_CONTEXT(3) 
GLOBAL_UNCERTAINTY_ASSIGNED_CONTEXT((#131)) GLOBAL_UNIT_ASSIGNED_CONTEXT
((#128,#129,#130)) REPRESENTATION_CONTEXT('Context #1',
  '3D Context with UNIT and UNCERTAINTY') );
#128 = ( LENGTH_UNIT() NAMED_UNIT(*) SI_UNIT(.MILLI.,.METRE.) );
#129 = ( NAMED_UNIT(*) PLANE_ANGLE_UNIT() SI_UNIT($,.RADIAN.) );
#130 = ( NAMED_UNIT(*) SI_UNIT($,.STERADIAN.) SOLID_ANGLE_UNIT() );
#131 = UNCERTAINTY_MEASURE_WITH_UNIT(LENGTH_MEASURE(5.E-07),#128,
  'distance_accuracy_value','confusion accuracy');
#132 = PRODUCT_RELATED_PRODUCT_CATEGORY('part',$,(#7));
#133 = SHAPE_DEFINITION_REPRESENTATION(#134,#140);
#134 = PRODUCT_DEFINITION_SHAPE('','',#135);
#135 = PRODUCT_DEFINITION('design','',#136,#139);
#136 = PRODUCT_DEFINITION_FORMATION('','',#137);
#137 = PRODUCT('Array','Array','',(#138));
#138 = PRODUCT_CONTEXT('',#2,'mechanical');
#139 = PRODUCT_DEFINITION_CONTEXT('part definition',#2,'design');
#140 = SHAPE_REPRESENTATION('',(#11,#141,#145,#149,#153,#157),#161);
#141 = AXIS2_PLACEMENT_3D('',#142,#143,#144);
#142 = CARTESIAN_POINT('',(0.,0.,0.));
#143 = DIRECTION('',(0.,0.,1.));
#144 = DIRECTION('',(1.,0.,0.));
#145 = AXIS2_PLACEMENT_3D('',#146,#147,#148);
#146 = CARTESIAN_POINT('',(0.,0.,-0.5));
#147 = DIRECTION('',(0.,0.,1.));
#148 = DIRECTION('',(1.,0.,0.));
#149 = AXIS2_PLACEMENT_3D('',#150,#151,#152);
#150 = CARTESIAN_POINT('',(0.,0.,-1.));
#151 = DIRECTION('',(0.,0.,1.));
#152 = DIRECTION('',(1.,0.,0.));
#153 = AXIS2_PLACEMENT_3D('',#154,#155,#156);
#154 = CARTESIAN_POINT('',(0.,0.,-1.5));
#155 = DIRECTION('',(0.,0.,1.));
#156 = DIRECTION('',(1.,0.,0.));
#157 = AXIS2_PLACEMENT_3D('',#158,#159,#160);
#158 = CARTESIAN_POINT('',(0.,0.,-2.));
#159 = DIRECTION('',(0.,0.,1.));
#160 = DIRECTION('',(1.,0.,0.));
#161 = ( GEOMETRIC_REPRESENTATION_CONTEXT(3) 
GLOBAL_UNCERTAINTY_ASSIGNED_CONTEXT((#165)) GLOBAL_UNIT_ASSIGNED_CONTEXT
((#162,#163,#164)) REPRESENTATION_CONTEXT('Context #1',
  '3D Context with UNIT and UNCERTAINTY') );
#162 = ( LENGTH_UNIT() NAMED_UNIT(*) SI_UNIT(.MILLI.,.METRE.) );
#163 = ( NAMED_UNIT(*) PLANE_ANGLE_UNIT() SI_UNIT($,.RADIAN.) );
#164 = ( NAMED_UNIT(*) SI_UNIT($,.STERADIAN.) SOLID_ANGLE_UNIT() );
#165 = UNCERTAINTY_MEASURE_WITH_UNIT(LENGTH_MEASURE(1.E-07),#162,
  'distance_accuracy_value','confusion accuracy');
#166 = CONTEXT_DEPENDENT_SHAPE_REPRESENTATION(#167,#169);
#167 = ( REPRESENTATION_RELATIONSHIP('','',#140,#10) 
REPRESENTATION_RELATIONSHIP_WITH_TRANSFORMATION(#168) 
SHAPE_REPRESENTATION_RELATIONSHIP() );
#168 = ITEM_DEFINED_TRANSFORMATION('','',#11,#15);
#169 = PRODUCT_DEFINITION_SHAPE('Placement','Placement of an item',#170
  );
#170 = NEXT_ASSEMBLY_USAGE_OCCURRENCE('50558','Array','',#5,#135,$);
#171 = PRODUCT_RELATED_PRODUCT_CATEGORY('part',$,(#137));
#172 = SHAPE_DEFINITION_REPRESENTATION(#173,#179);
#173 = PRODUCT_DEFINITION_SHAPE('','',#174);
#174 = PRODUCT_DEFINITION('design','',#175,#178);
#175 = PRODUCT_DEFINITION_FORMATION('','',#176);
#176 = PRODUCT('Body001 (Mirror #1)','Body001 (Mirror #1)','',(#177));
#177 = PRODUCT_CONTEXT('',#2,'mechanical');
#178 = PRODUCT_DEFINITION_CONTEXT('part definition',#2,'design');
#179 = ADVANCED_BREP_SHAPE_REPRESENTATION('',(#11,#180),#532);
#180 = MANIFOLD_SOLID_BREP('',#181);
#181 = CLOSED_SHELL('',(#182,#222,#253,#286,#317,#348,#379,#410,#443,
    #474,#496,#514));
#182 = ADVANCED_FACE('',(#183),#217,.F.);
#183 = FACE_BOUND('',#184,.T.);
#184 = EDGE_LOOP('',(#185,#195,#203,#211));
#185 = ORIENTED_EDGE('',*,*,#186,.T.);
#186 = EDGE_CURVE('',#187,#189,#191,.T.);
#187 = VERTEX_POINT('',#188);
#188 = CARTESIAN_POINT('',(-1.5,0.48,0.93));
#189 = VERTEX_POINT('',#190);
#190 = CARTESIAN_POINT('',(-1.5,0.48,1.07));
#191 = LINE('',#192,#193);
#192 = CARTESIAN_POINT('',(-1.5,0.48,0.93));
#193 = VECTOR('',#194,1.);
#194 = DIRECTION('',(-0.,-0.,1.));
#195 = ORIENTED_EDGE('',*,*,#196,.T.);
#196 = EDGE_CURVE('',#189,#197,#199,.T.);
#197 = VERTEX_POINT('',#198);
#198 = CARTESIAN_POINT('',(-1.725,0.48,1.07));
#199 = LINE('',#200,#201);
#200 = CARTESIAN_POINT('',(-1.5,0.48,1.07));
#201 = VECTOR('',#202,1.);
#202 = DIRECTION('',(-1.,-0.,-0.));
#203 = ORIENTED_EDGE('',*,*,#204,.F.);
#204 = EDGE_CURVE('',#205,#197,#207,.T.);
#205 = VERTEX_POINT('',#206);
#206 = CARTESIAN_POINT('',(-1.725,0.48,0.93));
#207 = LINE('',#208,#209);
#208 = CARTESIAN_POINT('',(-1.725,0.48,0.93));
#209 = VECTOR('',#210,1.);
#210 = DIRECTION('',(-0.,-0.,1.));
#211 = ORIENTED_EDGE('',*,*,#212,.F.);
#212 = EDGE_CURVE('',#187,#205,#213,.T.);
#213 = LINE('',#214,#215);
#214 = CARTESIAN_POINT('',(-1.5,0.48,0.93));
#215 = VECTOR('',#216,1.);
#216 = DIRECTION('',(-1.,-0.,-0.));
#217 = PLANE('',#218);
#218 = AXIS2_PLACEMENT_3D('',#219,#220,#221);
#219 = CARTESIAN_POINT('',(-1.5,0.48,0.93));
#220 = DIRECTION('',(-0.,1.,-0.));
#221 = DIRECTION('',(1.,0.,0.));
#222 = ADVANCED_FACE('',(#223),#248,.F.);
#223 = FACE_BOUND('',#224,.T.);
#224 = EDGE_LOOP('',(#225,#226,#234,#242));
#225 = ORIENTED_EDGE('',*,*,#204,.T.);
#226 = ORIENTED_EDGE('',*,*,#227,.T.);
#227 = EDGE_CURVE('',#197,#228,#230,.T.);
#228 = VERTEX_POINT('',#229);
#229 = CARTESIAN_POINT('',(-1.725,0.25,1.07));
#230 = LINE('',#231,#232);
#231 = CARTESIAN_POINT('',(-1.725,0.48,1.07));
#232 = VECTOR('',#233,1.);
#233 = DIRECTION('',(-0.,-1.,-0.));
#234 = ORIENTED_EDGE('',*,*,#235,.F.);
#235 = EDGE_CURVE('',#236,#228,#238,.T.);
#236 = VERTEX_POINT('',#237);
#237 = CARTESIAN_POINT('',(-1.725,0.25,0.93));
#238 = LINE('',#239,#240);
#239 = CARTESIAN_POINT('',(-1.725,0.25,0.93));
#240 = VECTOR('',#241,1.);
#241 = DIRECTION('',(-0.,-0.,1.));
#242 = ORIENTED_EDGE('',*,*,#243,.F.);
#243 = EDGE_CURVE('',#205,#236,#244,.T.);
#244 = LINE('',#245,#246);
#245 = CARTESIAN_POINT('',(-1.725,0.48,0.93));
#246 = VECTOR('',#247,1.);
#247 = DIRECTION('',(-0.,-1.,-0.));
#248 = PLANE('',#249);
#249 = AXIS2_PLACEMENT_3D('',#250,#251,#252);
#250 = CARTESIAN_POINT('',(-1.725,0.48,0.93));
#251 = DIRECTION('',(-1.,-0.,-0.));
#252 = DIRECTION('',(0.,1.,0.));
#253 = ADVANCED_FACE('',(#254),#281,.T.);
#254 = FACE_BOUND('',#255,.T.);
#255 = EDGE_LOOP('',(#256,#257,#266,#274));
#256 = ORIENTED_EDGE('',*,*,#235,.T.);
#257 = ORIENTED_EDGE('',*,*,#258,.T.);
#258 = EDGE_CURVE('',#228,#259,#261,.T.);
#259 = VERTEX_POINT('',#260);
#260 = CARTESIAN_POINT('',(-1.975,2.992915493486E-15,1.07));
#261 = CIRCLE('',#262,0.25);
#262 = AXIS2_PLACEMENT_3D('',#263,#264,#265);
#263 = CARTESIAN_POINT('',(-1.975,0.25,1.07));
#264 = DIRECTION('',(0.,0.,-1.));
#265 = DIRECTION('',(-1.,-0.,-0.));
#266 = ORIENTED_EDGE('',*,*,#267,.F.);
#267 = EDGE_CURVE('',#268,#259,#270,.T.);
#268 = VERTEX_POINT('',#269);
#269 = CARTESIAN_POINT('',(-1.975,2.992915493486E-15,0.93));
#270 = LINE('',#271,#272);
#271 = CARTESIAN_POINT('',(-1.975,2.992915493486E-15,0.93));
#272 = VECTOR('',#273,1.);
#273 = DIRECTION('',(-0.,-0.,1.));
#274 = ORIENTED_EDGE('',*,*,#275,.F.);
#275 = EDGE_CURVE('',#236,#268,#276,.T.);
#276 = CIRCLE('',#277,0.25);
#277 = AXIS2_PLACEMENT_3D('',#278,#279,#280);
#278 = CARTESIAN_POINT('',(-1.975,0.25,0.93));
#279 = DIRECTION('',(0.,0.,-1.));
#280 = DIRECTION('',(-1.,-0.,-0.));
#281 = CYLINDRICAL_SURFACE('',#282,0.25);
#282 = AXIS2_PLACEMENT_3D('',#283,#284,#285);
#283 = CARTESIAN_POINT('',(-1.975,0.25,0.93));
#284 = DIRECTION('',(0.,-0.,-1.));
#285 = DIRECTION('',(-1.,-0.,-0.));
#286 = ADVANCED_FACE('',(#287),#312,.F.);
#287 = FACE_BOUND('',#288,.T.);
#288 = EDGE_LOOP('',(#289,#290,#298,#306));
#289 = ORIENTED_EDGE('',*,*,#267,.T.);
#290 = ORIENTED_EDGE('',*,*,#291,.T.);
#291 = EDGE_CURVE('',#259,#292,#294,.T.);
#292 = VERTEX_POINT('',#293);
#293 = CARTESIAN_POINT('',(-2.45,0.,1.07));
#294 = LINE('',#295,#296);
#295 = CARTESIAN_POINT('',(-1.975,1.60045004632E-15,1.07));
#296 = VECTOR('',#297,1.);
#297 = DIRECTION('',(-1.,-3.369368518569E-15,-0.));
#298 = ORIENTED_EDGE('',*,*,#299,.F.);
#299 = EDGE_CURVE('',#300,#292,#302,.T.);
#300 = VERTEX_POINT('',#301);
#301 = CARTESIAN_POINT('',(-2.45,0.,0.93));
#302 = LINE('',#303,#304);
#303 = CARTESIAN_POINT('',(-2.45,0.,0.93));
#304 = VECTOR('',#305,1.);
#305 = DIRECTION('',(-0.,-0.,1.));
#306 = ORIENTED_EDGE('',*,*,#307,.F.);
#307 = EDGE_CURVE('',#268,#300,#308,.T.);
#308 = LINE('',#309,#310);
#309 = CARTESIAN_POINT('',(-1.975,1.60045004632E-15,0.93));
#310 = VECTOR('',#311,1.);
#311 = DIRECTION('',(-1.,-3.369368518569E-15,-0.));
#312 = PLANE('',#313);
#313 = AXIS2_PLACEMENT_3D('',#314,#315,#316);
#314 = CARTESIAN_POINT('',(-1.975,1.60045004632E-15,0.93));
#315 = DIRECTION('',(-3.369368518569E-15,1.,-0.));
#316 = DIRECTION('',(1.,3.369368518569E-15,0.));
#317 = ADVANCED_FACE('',(#318),#343,.F.);
#318 = FACE_BOUND('',#319,.T.);
#319 = EDGE_LOOP('',(#320,#321,#329,#337));
#320 = ORIENTED_EDGE('',*,*,#299,.T.);
#321 = ORIENTED_EDGE('',*,*,#322,.T.);
#322 = EDGE_CURVE('',#292,#323,#325,.T.);
#323 = VERTEX_POINT('',#324);
#324 = CARTESIAN_POINT('',(-2.45,0.25,1.07));
#325 = LINE('',#326,#327);
#326 = CARTESIAN_POINT('',(-2.45,0.,1.07));
#327 = VECTOR('',#328,1.);
#328 = DIRECTION('',(0.,1.,0.));
#329 = ORIENTED_EDGE('',*,*,#330,.F.);
#330 = EDGE_CURVE('',#331,#323,#333,.T.);
#331 = VERTEX_POINT('',#332);
#332 = CARTESIAN_POINT('',(-2.45,0.25,0.93));
#333 = LINE('',#334,#335);
#334 = CARTESIAN_POINT('',(-2.45,0.25,0.93));
#335 = VECTOR('',#336,1.);
#336 = DIRECTION('',(-0.,-0.,1.));
#337 = ORIENTED_EDGE('',*,*,#338,.F.);
#338 = EDGE_CURVE('',#300,#331,#339,.T.);
#339 = LINE('',#340,#341);
#340 = CARTESIAN_POINT('',(-2.45,0.,0.93));
#341 = VECTOR('',#342,1.);
#342 = DIRECTION('',(0.,1.,0.));
#343 = PLANE('',#344);
#344 = AXIS2_PLACEMENT_3D('',#345,#346,#347);
#345 = CARTESIAN_POINT('',(-2.45,0.,0.93));
#346 = DIRECTION('',(1.,-0.,-0.));
#347 = DIRECTION('',(0.,-1.,0.));
#348 = ADVANCED_FACE('',(#349),#374,.F.);
#349 = FACE_BOUND('',#350,.T.);
#350 = EDGE_LOOP('',(#351,#352,#360,#368));
#351 = ORIENTED_EDGE('',*,*,#330,.T.);
#352 = ORIENTED_EDGE('',*,*,#353,.T.);
#353 = EDGE_CURVE('',#323,#354,#356,.T.);
#354 = VERTEX_POINT('',#355);
#355 = CARTESIAN_POINT('',(-1.975,0.25,1.07));
#356 = LINE('',#357,#358);
#357 = CARTESIAN_POINT('',(-2.45,0.25,1.07));
#358 = VECTOR('',#359,1.);
#359 = DIRECTION('',(1.,0.,0.));
#360 = ORIENTED_EDGE('',*,*,#361,.F.);
#361 = EDGE_CURVE('',#362,#354,#364,.T.);
#362 = VERTEX_POINT('',#363);
#363 = CARTESIAN_POINT('',(-1.975,0.25,0.93));
#364 = LINE('',#365,#366);
#365 = CARTESIAN_POINT('',(-1.975,0.25,0.93));
#366 = VECTOR('',#367,1.);
#367 = DIRECTION('',(-0.,-0.,1.));
#368 = ORIENTED_EDGE('',*,*,#369,.F.);
#369 = EDGE_CURVE('',#331,#362,#370,.T.);
#370 = LINE('',#371,#372);
#371 = CARTESIAN_POINT('',(-2.45,0.25,0.93));
#372 = VECTOR('',#373,1.);
#373 = DIRECTION('',(1.,0.,0.));
#374 = PLANE('',#375);
#375 = AXIS2_PLACEMENT_3D('',#376,#377,#378);
#376 = CARTESIAN_POINT('',(-2.45,0.25,0.93));
#377 = DIRECTION('',(-0.,-1.,-0.));
#378 = DIRECTION('',(-1.,0.,0.));
#379 = ADVANCED_FACE('',(#380),#405,.F.);
#380 = FACE_BOUND('',#381,.T.);
#381 = EDGE_LOOP('',(#382,#383,#391,#399));
#382 = ORIENTED_EDGE('',*,*,#361,.T.);
#383 = ORIENTED_EDGE('',*,*,#384,.T.);
#384 = EDGE_CURVE('',#354,#385,#387,.T.);
#385 = VERTEX_POINT('',#386);
#386 = CARTESIAN_POINT('',(-1.975,0.48,1.07));
#387 = LINE('',#388,#389);
#388 = CARTESIAN_POINT('',(-1.975,0.25,1.07));
#389 = VECTOR('',#390,1.);
#390 = DIRECTION('',(0.,1.,0.));
#391 = ORIENTED_EDGE('',*,*,#392,.F.);
#392 = EDGE_CURVE('',#393,#385,#395,.T.);
#393 = VERTEX_POINT('',#394);
#394 = CARTESIAN_POINT('',(-1.975,0.48,0.93));
#395 = LINE('',#396,#397);
#396 = CARTESIAN_POINT('',(-1.975,0.48,0.93));
#397 = VECTOR('',#398,1.);
#398 = DIRECTION('',(-0.,-0.,1.));
#399 = ORIENTED_EDGE('',*,*,#400,.F.);
#400 = EDGE_CURVE('',#362,#393,#401,.T.);
#401 = LINE('',#402,#403);
#402 = CARTESIAN_POINT('',(-1.975,0.25,0.93));
#403 = VECTOR('',#404,1.);
#404 = DIRECTION('',(0.,1.,0.));
#405 = PLANE('',#406);
#406 = AXIS2_PLACEMENT_3D('',#407,#408,#409);
#407 = CARTESIAN_POINT('',(-1.975,0.25,0.93));
#408 = DIRECTION('',(1.,-0.,-0.));
#409 = DIRECTION('',(0.,-1.,0.));
#410 = ADVANCED_FACE('',(#411),#438,.T.);
#411 = FACE_BOUND('',#412,.T.);
#412 = EDGE_LOOP('',(#413,#414,#423,#431));
#413 = ORIENTED_EDGE('',*,*,#392,.T.);
#414 = ORIENTED_EDGE('',*,*,#415,.T.);
#415 = EDGE_CURVE('',#385,#416,#418,.T.);
#416 = VERTEX_POINT('',#417);
#417 = CARTESIAN_POINT('',(-1.725,0.73,1.07));
#418 = CIRCLE('',#419,0.25);
#419 = AXIS2_PLACEMENT_3D('',#420,#421,#422);
#420 = CARTESIAN_POINT('',(-1.725,0.48,1.07));
#421 = DIRECTION('',(0.,0.,-1.));
#422 = DIRECTION('',(-1.,-0.,-0.));
#423 = ORIENTED_EDGE('',*,*,#424,.F.);
#424 = EDGE_CURVE('',#425,#416,#427,.T.);
#425 = VERTEX_POINT('',#426);
#426 = CARTESIAN_POINT('',(-1.725,0.73,0.93));
#427 = LINE('',#428,#429);
#428 = CARTESIAN_POINT('',(-1.725,0.73,0.93));
#429 = VECTOR('',#430,1.);
#430 = DIRECTION('',(-0.,-0.,1.));
#431 = ORIENTED_EDGE('',*,*,#432,.F.);
#432 = EDGE_CURVE('',#393,#425,#433,.T.);
#433 = CIRCLE('',#434,0.25);
#434 = AXIS2_PLACEMENT_3D('',#435,#436,#437);
#435 = CARTESIAN_POINT('',(-1.725,0.48,0.93));
#436 = DIRECTION('',(0.,0.,-1.));
#437 = DIRECTION('',(-1.,-0.,-0.));
#438 = CYLINDRICAL_SURFACE('',#439,0.25);
#439 = AXIS2_PLACEMENT_3D('',#440,#441,#442);
#440 = CARTESIAN_POINT('',(-1.725,0.48,0.93));
#441 = DIRECTION('',(0.,-0.,-1.));
#442 = DIRECTION('',(-1.,-0.,-0.));
#443 = ADVANCED_FACE('',(#444),#469,.F.);
#444 = FACE_BOUND('',#445,.T.);
#445 = EDGE_LOOP('',(#446,#447,#455,#463));
#446 = ORIENTED_EDGE('',*,*,#424,.T.);
#447 = ORIENTED_EDGE('',*,*,#448,.T.);
#448 = EDGE_CURVE('',#416,#449,#451,.T.);
#449 = VERTEX_POINT('',#450);
#450 = CARTESIAN_POINT('',(-1.5,0.73,1.07));
#451 = LINE('',#452,#453);
#452 = CARTESIAN_POINT('',(-1.725,0.73,1.07));
#453 = VECTOR('',#454,1.);
#454 = DIRECTION('',(1.,0.,0.));
#455 = ORIENTED_EDGE('',*,*,#456,.F.);
#456 = EDGE_CURVE('',#457,#449,#459,.T.);
#457 = VERTEX_POINT('',#458);
#458 = CARTESIAN_POINT('',(-1.5,0.73,0.93));
#459 = LINE('',#460,#461);
#460 = CARTESIAN_POINT('',(-1.5,0.73,0.93));
#461 = VECTOR('',#462,1.);
#462 = DIRECTION('',(-0.,-0.,1.));
#463 = ORIENTED_EDGE('',*,*,#464,.F.);
#464 = EDGE_CURVE('',#425,#457,#465,.T.);
#465 = LINE('',#466,#467);
#466 = CARTESIAN_POINT('',(-1.725,0.73,0.93));
#467 = VECTOR('',#468,1.);
#468 = DIRECTION('',(1.,0.,0.));
#469 = PLANE('',#470);
#470 = AXIS2_PLACEMENT_3D('',#471,#472,#473);
#471 = CARTESIAN_POINT('',(-1.725,0.73,0.93));
#472 = DIRECTION('',(-0.,-1.,-0.));
#473 = DIRECTION('',(-1.,0.,0.));
#474 = ADVANCED_FACE('',(#475),#491,.F.);
#475 = FACE_BOUND('',#476,.T.);
#476 = EDGE_LOOP('',(#477,#478,#484,#485));
#477 = ORIENTED_EDGE('',*,*,#456,.T.);
#478 = ORIENTED_EDGE('',*,*,#479,.T.);
#479 = EDGE_CURVE('',#449,#189,#480,.T.);
#480 = LINE('',#481,#482);
#481 = CARTESIAN_POINT('',(-1.5,0.73,1.07));
#482 = VECTOR('',#483,1.);
#483 = DIRECTION('',(-0.,-1.,-0.));
#484 = ORIENTED_EDGE('',*,*,#186,.F.);
#485 = ORIENTED_EDGE('',*,*,#486,.F.);
#486 = EDGE_CURVE('',#457,#187,#487,.T.);
#487 = LINE('',#488,#489);
#488 = CARTESIAN_POINT('',(-1.5,0.73,0.93));
#489 = VECTOR('',#490,1.);
#490 = DIRECTION('',(-0.,-1.,-0.));
#491 = PLANE('',#492);
#492 = AXIS2_PLACEMENT_3D('',#493,#494,#495);
#493 = CARTESIAN_POINT('',(-1.5,0.73,0.93));
#494 = DIRECTION('',(-1.,-0.,-0.));
#495 = DIRECTION('',(0.,1.,0.));
#496 = ADVANCED_FACE('',(#497),#509,.F.);
#497 = FACE_BOUND('',#498,.T.);
#498 = EDGE_LOOP('',(#499,#500,#501,#502,#503,#504,#505,#506,#507,#508)
  );
#499 = ORIENTED_EDGE('',*,*,#212,.T.);
#500 = ORIENTED_EDGE('',*,*,#243,.T.);
#501 = ORIENTED_EDGE('',*,*,#275,.T.);
#502 = ORIENTED_EDGE('',*,*,#307,.T.);
#503 = ORIENTED_EDGE('',*,*,#338,.T.);
#504 = ORIENTED_EDGE('',*,*,#369,.T.);
#505 = ORIENTED_EDGE('',*,*,#400,.T.);
#506 = ORIENTED_EDGE('',*,*,#432,.T.);
#507 = ORIENTED_EDGE('',*,*,#464,.T.);
#508 = ORIENTED_EDGE('',*,*,#486,.T.);
#509 = PLANE('',#510);
#510 = AXIS2_PLACEMENT_3D('',#511,#512,#513);
#511 = CARTESIAN_POINT('',(-1.945649322487,0.326740271006,0.93));
#512 = DIRECTION('',(0.,0.,1.));
#513 = DIRECTION('',(1.,0.,0.));
#514 = ADVANCED_FACE('',(#515),#527,.T.);
#515 = FACE_BOUND('',#516,.F.);
#516 = EDGE_LOOP('',(#517,#518,#519,#520,#521,#522,#523,#524,#525,#526)
  );
#517 = ORIENTED_EDGE('',*,*,#196,.T.);
#518 = ORIENTED_EDGE('',*,*,#227,.T.);
#519 = ORIENTED_EDGE('',*,*,#258,.T.);
#520 = ORIENTED_EDGE('',*,*,#291,.T.);
#521 = ORIENTED_EDGE('',*,*,#322,.T.);
#522 = ORIENTED_EDGE('',*,*,#353,.T.);
#523 = ORIENTED_EDGE('',*,*,#384,.T.);
#524 = ORIENTED_EDGE('',*,*,#415,.T.);
#525 = ORIENTED_EDGE('',*,*,#448,.T.);
#526 = ORIENTED_EDGE('',*,*,#479,.T.);
#527 = PLANE('',#528);
#528 = AXIS2_PLACEMENT_3D('',#529,#530,#531);
#529 = CARTESIAN_POINT('',(-1.945649322487,0.326740271006,1.07));
#530 = DIRECTION('',(0.,0.,1.));
#531 = DIRECTION('',(1.,0.,0.));
#532 = ( GEOMETRIC_REPRESENTATION_CONTEXT(3) 
GLOBAL_UNCERTAINTY_ASSIGNED_CONTEXT((#536)) GLOBAL_UNIT_ASSIGNED_CONTEXT
((#533,#534,#535)) REPRESENTATION_CONTEXT('Context #1',
  '3D Context with UNIT and UNCERTAINTY') );
#533 = ( LENGTH_UNIT() NAMED_UNIT(*) SI_UNIT(.MILLI.,.METRE.) );
#534 = ( NAMED_UNIT(*) PLANE_ANGLE_UNIT() SI_UNIT($,.RADIAN.) );
#535 = ( NAMED_UNIT(*) SI_UNIT($,.STERADIAN.) SOLID_ANGLE_UNIT() );
#536 = UNCERTAINTY_MEASURE_WITH_UNIT(LENGTH_MEASURE(1.E-07),#533,
  'distance_accuracy_value','confusion accuracy');
#537 = CONTEXT_DEPENDENT_SHAPE_REPRESENTATION(#538,#540);
#538 = ( REPRESENTATION_RELATIONSHIP('','',#179,#140) 
REPRESENTATION_RELATIONSHIP_WITH_TRANSFORMATION(#539) 
SHAPE_REPRESENTATION_RELATIONSHIP() );
#539 = ITEM_DEFINED_TRANSFORMATION('','',#11,#141);
#540 = PRODUCT_DEFINITION_SHAPE('Placement','Placement of an item',#541
  );
#541 = NEXT_ASSEMBLY_USAGE_OCCURRENCE('50553','0','',#135,#174,$);
#542 = PRODUCT_RELATED_PRODUCT_CATEGORY('part',$,(#176));
#543 = CONTEXT_DEPENDENT_SHAPE_REPRESENTATION(#544,#546);
#544 = ( REPRESENTATION_RELATIONSHIP('','',#179,#140) 
REPRESENTATION_RELATIONSHIP_WITH_TRANSFORMATION(#545) 
SHAPE_REPRESENTATION_RELATIONSHIP() );
#545 = ITEM_DEFINED_TRANSFORMATION('','',#11,#145);
#546 = PRODUCT_DEFINITION_SHAPE('Placement','Placement of an item',#547
  );
#547 = NEXT_ASSEMBLY_USAGE_OCCURRENCE('50554','1','',#135,#174,$);
#548 = CONTEXT_DEPENDENT_SHAPE_REPRESENTATION(#549,#551);
#549 = ( REPRESENTATION_RELATIONSHIP('','',#179,#140) 
REPRESENTATION_RELATIONSHIP_WITH_TRANSFORMATION(#550) 
SHAPE_REPRESENTATION_RELATIONSHIP() );
#550 = ITEM_DEFINED_TRANSFORMATION('','',#11,#149);
#551 = PRODUCT_DEFINITION_SHAPE('Placement','Placement of an item',#552
  );
#552 = NEXT_ASSEMBLY_USAGE_OCCURRENCE('50555','2','',#135,#174,$);
#553 = CONTEXT_DEPENDENT_SHAPE_REPRESENTATION(#554,#556);
#554 = ( REPRESENTATION_RELATIONSHIP('','',#179,#140) 
REPRESENTATION_RELATIONSHIP_WITH_TRANSFORMATION(#555) 
SHAPE_REPRESENTATION_RELATIONSHIP() );
#555 = ITEM_DEFINED_TRANSFORMATION('','',#11,#153);
#556 = PRODUCT_DEFINITION_SHAPE('Placement','Placement of an item',#557
  );
#557 = NEXT_ASSEMBLY_USAGE_OCCURRENCE('50556','3','',#135,#174,$);
#558 = CONTEXT_DEPENDENT_SHAPE_REPRESENTATION(#559,#561);
#559 = ( REPRESENTATION_RELATIONSHIP('','',#179,#140) 
REPRESENTATION_RELATIONSHIP_WITH_TRANSFORMATION(#560) 
SHAPE_REPRESENTATION_RELATIONSHIP() );
#560 = ITEM_DEFINED_TRANSFORMATION('','',#11,#157);
#561 = PRODUCT_DEFINITION_SHAPE('Placement','Placement of an item',#562
  );
#562 = NEXT_ASSEMBLY_USAGE_OCCURRENCE('50557','4','',#135,#174,$);
#563 = SHAPE_DEFINITION_REPRESENTATION(#564,#570);
#564 = PRODUCT_DEFINITION_SHAPE('','',#565);
#565 = PRODUCT_DEFINITION('design','',#566,#569);
#566 = PRODUCT_DEFINITION_FORMATION('','',#567);
#567 = PRODUCT('Array001','Array001','',(#568));
#568 = PRODUCT_CONTEXT('',#2,'mechanical');
#569 = PRODUCT_DEFINITION_CONTEXT('part definition',#2,'design');
#570 = SHAPE_REPRESENTATION('',(#11,#571,#575,#579,#583,#587),#591);
#571 = AXIS2_PLACEMENT_3D('',#572,#573,#574);
#572 = CARTESIAN_POINT('',(0.,0.,1.));
#573 = DIRECTION('',(0.,0.,1.));
#574 = DIRECTION('',(1.,0.,0.));
#575 = AXIS2_PLACEMENT_3D('',#576,#577,#578);
#576 = CARTESIAN_POINT('',(0.,0.,0.5));
#577 = DIRECTION('',(0.,0.,1.));
#578 = DIRECTION('',(1.,0.,0.));
#579 = AXIS2_PLACEMENT_3D('',#580,#581,#582);
#580 = CARTESIAN_POINT('',(0.,0.,0.));
#581 = DIRECTION('',(0.,0.,1.));
#582 = DIRECTION('',(1.,0.,0.));
#583 = AXIS2_PLACEMENT_3D('',#584,#585,#586);
#584 = CARTESIAN_POINT('',(0.,0.,-0.5));
#585 = DIRECTION('',(0.,0.,1.));
#586 = DIRECTION('',(1.,0.,0.));
#587 = AXIS2_PLACEMENT_3D('',#588,#589,#590);
#588 = CARTESIAN_POINT('',(0.,0.,-1.));
#589 = DIRECTION('',(0.,0.,1.));
#590 = DIRECTION('',(1.,0.,0.));
#591 = ( GEOMETRIC_REPRESENTATION_CONTEXT(3) 
GLOBAL_UNCERTAINTY_ASSIGNED_CONTEXT((#595)) GLOBAL_UNIT_ASSIGNED_CONTEXT
((#592,#593,#594)) REPRESENTATION_CONTEXT('Context #1',
  '3D Context with UNIT and UNCERTAINTY') );
#592 = ( LENGTH_UNIT() NAMED_UNIT(*) SI_UNIT(.MILLI.,.METRE.) );
#593 = ( NAMED_UNIT(*) PLANE_ANGLE_UNIT() SI_UNIT($,.RADIAN.) );
#594 = ( NAMED_UNIT(*) SI_UNIT($,.STERADIAN.) SOLID_ANGLE_UNIT() );
#595 = UNCERTAINTY_MEASURE_WITH_UNIT(LENGTH_MEASURE(1.E-07),#592,
  'distance_accuracy_value','confusion accuracy');
#596 = CONTEXT_DEPENDENT_SHAPE_REPRESENTATION(#597,#599);
#597 = ( REPRESENTATION_RELATIONSHIP('','',#570,#10) 
REPRESENTATION_RELATIONSHIP_WITH_TRANSFORMATION(#598) 
SHAPE_REPRESENTATION_RELATIONSHIP() );
#598 = ITEM_DEFINED_TRANSFORMATION('','',#11,#19);
#599 = PRODUCT_DEFINITION_SHAPE('Placement','Placement of an item',#600
  );
#600 = NEXT_ASSEMBLY_USAGE_OCCURRENCE('50564','Array001','',#5,#565,$);
#601 = PRODUCT_RELATED_PRODUCT_CATEGORY('part',$,(#567));
#602 = SHAPE_DEFINITION_REPRESENTATION(#603,#609);
#603 = PRODUCT_DEFINITION_SHAPE('','',#604);
#604 = PRODUCT_DEFINITION('design','',#605,#608);
#605 = PRODUCT_DEFINITION_FORMATION('','',#606);
#606 = PRODUCT('Body001','Body001','',(#607));
#607 = PRODUCT_CONTEXT('',#2,'mechanical');
#608 = PRODUCT_DEFINITION_CONTEXT('part definition',#2,'design');
#609 = ADVANCED_BREP_SHAPE_REPRESENTATION('',(#11,#610),#962);
#610 = MANIFOLD_SOLID_BREP('',#611);
#611 = CLOSED_SHELL('',(#612,#652,#683,#716,#747,#778,#809,#840,#873,
    #904,#926,#944));
#612 = ADVANCED_FACE('',(#613),#647,.F.);
#613 = FACE_BOUND('',#614,.F.);
#614 = EDGE_LOOP('',(#615,#625,#633,#641));
#615 = ORIENTED_EDGE('',*,*,#616,.T.);
#616 = EDGE_CURVE('',#617,#619,#621,.T.);
#617 = VERTEX_POINT('',#618);
#618 = CARTESIAN_POINT('',(1.5,0.48,-7.E-02));
#619 = VERTEX_POINT('',#620);
#620 = CARTESIAN_POINT('',(1.5,0.48,7.E-02));
#621 = LINE('',#622,#623);
#622 = CARTESIAN_POINT('',(1.5,0.48,-7.E-02));
#623 = VECTOR('',#624,1.);
#624 = DIRECTION('',(0.,0.,1.));
#625 = ORIENTED_EDGE('',*,*,#626,.T.);
#626 = EDGE_CURVE('',#619,#627,#629,.T.);
#627 = VERTEX_POINT('',#628);
#628 = CARTESIAN_POINT('',(1.725,0.48,7.E-02));
#629 = LINE('',#630,#631);
#630 = CARTESIAN_POINT('',(1.5,0.48,7.E-02));
#631 = VECTOR('',#632,1.);
#632 = DIRECTION('',(1.,0.,0.));
#633 = ORIENTED_EDGE('',*,*,#634,.F.);
#634 = EDGE_CURVE('',#635,#627,#637,.T.);
#635 = VERTEX_POINT('',#636);
#636 = CARTESIAN_POINT('',(1.725,0.48,-7.E-02));
#637 = LINE('',#638,#639);
#638 = CARTESIAN_POINT('',(1.725,0.48,-7.E-02));
#639 = VECTOR('',#640,1.);
#640 = DIRECTION('',(0.,0.,1.));
#641 = ORIENTED_EDGE('',*,*,#642,.F.);
#642 = EDGE_CURVE('',#617,#635,#643,.T.);
#643 = LINE('',#644,#645);
#644 = CARTESIAN_POINT('',(1.5,0.48,-7.E-02));
#645 = VECTOR('',#646,1.);
#646 = DIRECTION('',(1.,0.,0.));
#647 = PLANE('',#648);
#648 = AXIS2_PLACEMENT_3D('',#649,#650,#651);
#649 = CARTESIAN_POINT('',(1.5,0.48,-7.E-02));
#650 = DIRECTION('',(0.,1.,0.));
#651 = DIRECTION('',(1.,0.,0.));
#652 = ADVANCED_FACE('',(#653),#678,.F.);
#653 = FACE_BOUND('',#654,.F.);
#654 = EDGE_LOOP('',(#655,#656,#664,#672));
#655 = ORIENTED_EDGE('',*,*,#634,.T.);
#656 = ORIENTED_EDGE('',*,*,#657,.T.);
#657 = EDGE_CURVE('',#627,#658,#660,.T.);
#658 = VERTEX_POINT('',#659);
#659 = CARTESIAN_POINT('',(1.725,0.25,7.E-02));
#660 = LINE('',#661,#662);
#661 = CARTESIAN_POINT('',(1.725,0.48,7.E-02));
#662 = VECTOR('',#663,1.);
#663 = DIRECTION('',(0.,-1.,0.));
#664 = ORIENTED_EDGE('',*,*,#665,.F.);
#665 = EDGE_CURVE('',#666,#658,#668,.T.);
#666 = VERTEX_POINT('',#667);
#667 = CARTESIAN_POINT('',(1.725,0.25,-7.E-02));
#668 = LINE('',#669,#670);
#669 = CARTESIAN_POINT('',(1.725,0.25,-7.E-02));
#670 = VECTOR('',#671,1.);
#671 = DIRECTION('',(0.,0.,1.));
#672 = ORIENTED_EDGE('',*,*,#673,.F.);
#673 = EDGE_CURVE('',#635,#666,#674,.T.);
#674 = LINE('',#675,#676);
#675 = CARTESIAN_POINT('',(1.725,0.48,-7.E-02));
#676 = VECTOR('',#677,1.);
#677 = DIRECTION('',(0.,-1.,0.));
#678 = PLANE('',#679);
#679 = AXIS2_PLACEMENT_3D('',#680,#681,#682);
#680 = CARTESIAN_POINT('',(1.725,0.48,-7.E-02));
#681 = DIRECTION('',(1.,0.,0.));
#682 = DIRECTION('',(0.,-1.,0.));
#683 = ADVANCED_FACE('',(#684),#711,.T.);
#684 = FACE_BOUND('',#685,.F.);
#685 = EDGE_LOOP('',(#686,#687,#696,#704));
#686 = ORIENTED_EDGE('',*,*,#665,.T.);
#687 = ORIENTED_EDGE('',*,*,#688,.T.);
#688 = EDGE_CURVE('',#658,#689,#691,.T.);
#689 = VERTEX_POINT('',#690);
#690 = CARTESIAN_POINT('',(1.975,2.992915493486E-15,7.E-02));
#691 = CIRCLE('',#692,0.25);
#692 = AXIS2_PLACEMENT_3D('',#693,#694,#695);
#693 = CARTESIAN_POINT('',(1.975,0.25,7.E-02));
#694 = DIRECTION('',(0.,0.,1.));
#695 = DIRECTION('',(1.,0.,0.));
#696 = ORIENTED_EDGE('',*,*,#697,.F.);
#697 = EDGE_CURVE('',#698,#689,#700,.T.);
#698 = VERTEX_POINT('',#699);
#699 = CARTESIAN_POINT('',(1.975,2.992915493486E-15,-7.E-02));
#700 = LINE('',#701,#702);
#701 = CARTESIAN_POINT('',(1.975,2.992915493486E-15,-7.E-02));
#702 = VECTOR('',#703,1.);
#703 = DIRECTION('',(0.,0.,1.));
#704 = ORIENTED_EDGE('',*,*,#705,.F.);
#705 = EDGE_CURVE('',#666,#698,#706,.T.);
#706 = CIRCLE('',#707,0.25);
#707 = AXIS2_PLACEMENT_3D('',#708,#709,#710);
#708 = CARTESIAN_POINT('',(1.975,0.25,-7.E-02));
#709 = DIRECTION('',(0.,0.,1.));
#710 = DIRECTION('',(1.,0.,0.));
#711 = CYLINDRICAL_SURFACE('',#712,0.25);
#712 = AXIS2_PLACEMENT_3D('',#713,#714,#715);
#713 = CARTESIAN_POINT('',(1.975,0.25,-7.E-02));
#714 = DIRECTION('',(-0.,-0.,-1.));
#715 = DIRECTION('',(1.,0.,0.));
#716 = ADVANCED_FACE('',(#717),#742,.F.);
#717 = FACE_BOUND('',#718,.F.);
#718 = EDGE_LOOP('',(#719,#720,#728,#736));
#719 = ORIENTED_EDGE('',*,*,#697,.T.);
#720 = ORIENTED_EDGE('',*,*,#721,.T.);
#721 = EDGE_CURVE('',#689,#722,#724,.T.);
#722 = VERTEX_POINT('',#723);
#723 = CARTESIAN_POINT('',(2.45,0.,7.E-02));
#724 = LINE('',#725,#726);
#725 = CARTESIAN_POINT('',(1.975,1.60045004632E-15,7.E-02));
#726 = VECTOR('',#727,1.);
#727 = DIRECTION('',(1.,-3.369368518569E-15,0.));
#728 = ORIENTED_EDGE('',*,*,#729,.F.);
#729 = EDGE_CURVE('',#730,#722,#732,.T.);
#730 = VERTEX_POINT('',#731);
#731 = CARTESIAN_POINT('',(2.45,0.,-7.E-02));
#732 = LINE('',#733,#734);
#733 = CARTESIAN_POINT('',(2.45,0.,-7.E-02));
#734 = VECTOR('',#735,1.);
#735 = DIRECTION('',(0.,0.,1.));
#736 = ORIENTED_EDGE('',*,*,#737,.F.);
#737 = EDGE_CURVE('',#698,#730,#738,.T.);
#738 = LINE('',#739,#740);
#739 = CARTESIAN_POINT('',(1.975,1.60045004632E-15,-7.E-02));
#740 = VECTOR('',#741,1.);
#741 = DIRECTION('',(1.,-3.369368518569E-15,0.));
#742 = PLANE('',#743);
#743 = AXIS2_PLACEMENT_3D('',#744,#745,#746);
#744 = CARTESIAN_POINT('',(1.975,1.60045004632E-15,-7.E-02));
#745 = DIRECTION('',(3.369368518569E-15,1.,0.));
#746 = DIRECTION('',(1.,-3.369368518569E-15,0.));
#747 = ADVANCED_FACE('',(#748),#773,.F.);
#748 = FACE_BOUND('',#749,.F.);
#749 = EDGE_LOOP('',(#750,#751,#759,#767));
#750 = ORIENTED_EDGE('',*,*,#729,.T.);
#751 = ORIENTED_EDGE('',*,*,#752,.T.);
#752 = EDGE_CURVE('',#722,#753,#755,.T.);
#753 = VERTEX_POINT('',#754);
#754 = CARTESIAN_POINT('',(2.45,0.25,7.E-02));
#755 = LINE('',#756,#757);
#756 = CARTESIAN_POINT('',(2.45,0.,7.E-02));
#757 = VECTOR('',#758,1.);
#758 = DIRECTION('',(0.,1.,0.));
#759 = ORIENTED_EDGE('',*,*,#760,.F.);
#760 = EDGE_CURVE('',#761,#753,#763,.T.);
#761 = VERTEX_POINT('',#762);
#762 = CARTESIAN_POINT('',(2.45,0.25,-7.E-02));
#763 = LINE('',#764,#765);
#764 = CARTESIAN_POINT('',(2.45,0.25,-7.E-02));
#765 = VECTOR('',#766,1.);
#766 = DIRECTION('',(0.,0.,1.));
#767 = ORIENTED_EDGE('',*,*,#768,.F.);
#768 = EDGE_CURVE('',#730,#761,#769,.T.);
#769 = LINE('',#770,#771);
#770 = CARTESIAN_POINT('',(2.45,0.,-7.E-02));
#771 = VECTOR('',#772,1.);
#772 = DIRECTION('',(0.,1.,0.));
#773 = PLANE('',#774);
#774 = AXIS2_PLACEMENT_3D('',#775,#776,#777);
#775 = CARTESIAN_POINT('',(2.45,0.,-7.E-02));
#776 = DIRECTION('',(-1.,0.,0.));
#777 = DIRECTION('',(0.,1.,0.));
#778 = ADVANCED_FACE('',(#779),#804,.F.);
#779 = FACE_BOUND('',#780,.F.);
#780 = EDGE_LOOP('',(#781,#782,#790,#798));
#781 = ORIENTED_EDGE('',*,*,#760,.T.);
#782 = ORIENTED_EDGE('',*,*,#783,.T.);
#783 = EDGE_CURVE('',#753,#784,#786,.T.);
#784 = VERTEX_POINT('',#785);
#785 = CARTESIAN_POINT('',(1.975,0.25,7.E-02));
#786 = LINE('',#787,#788);
#787 = CARTESIAN_POINT('',(2.45,0.25,7.E-02));
#788 = VECTOR('',#789,1.);
#789 = DIRECTION('',(-1.,0.,0.));
#790 = ORIENTED_EDGE('',*,*,#791,.F.);
#791 = EDGE_CURVE('',#792,#784,#794,.T.);
#792 = VERTEX_POINT('',#793);
#793 = CARTESIAN_POINT('',(1.975,0.25,-7.E-02));
#794 = LINE('',#795,#796);
#795 = CARTESIAN_POINT('',(1.975,0.25,-7.E-02));
#796 = VECTOR('',#797,1.);
#797 = DIRECTION('',(0.,0.,1.));
#798 = ORIENTED_EDGE('',*,*,#799,.F.);
#799 = EDGE_CURVE('',#761,#792,#800,.T.);
#800 = LINE('',#801,#802);
#801 = CARTESIAN_POINT('',(2.45,0.25,-7.E-02));
#802 = VECTOR('',#803,1.);
#803 = DIRECTION('',(-1.,0.,0.));
#804 = PLANE('',#805);
#805 = AXIS2_PLACEMENT_3D('',#806,#807,#808);
#806 = CARTESIAN_POINT('',(2.45,0.25,-7.E-02));
#807 = DIRECTION('',(0.,-1.,0.));
#808 = DIRECTION('',(-1.,0.,0.));
#809 = ADVANCED_FACE('',(#810),#835,.F.);
#810 = FACE_BOUND('',#811,.F.);
#811 = EDGE_LOOP('',(#812,#813,#821,#829));
#812 = ORIENTED_EDGE('',*,*,#791,.T.);
#813 = ORIENTED_EDGE('',*,*,#814,.T.);
#814 = EDGE_CURVE('',#784,#815,#817,.T.);
#815 = VERTEX_POINT('',#816);
#816 = CARTESIAN_POINT('',(1.975,0.48,7.E-02));
#817 = LINE('',#818,#819);
#818 = CARTESIAN_POINT('',(1.975,0.25,7.E-02));
#819 = VECTOR('',#820,1.);
#820 = DIRECTION('',(0.,1.,0.));
#821 = ORIENTED_EDGE('',*,*,#822,.F.);
#822 = EDGE_CURVE('',#823,#815,#825,.T.);
#823 = VERTEX_POINT('',#824);
#824 = CARTESIAN_POINT('',(1.975,0.48,-7.E-02));
#825 = LINE('',#826,#827);
#826 = CARTESIAN_POINT('',(1.975,0.48,-7.E-02));
#827 = VECTOR('',#828,1.);
#828 = DIRECTION('',(0.,0.,1.));
#829 = ORIENTED_EDGE('',*,*,#830,.F.);
#830 = EDGE_CURVE('',#792,#823,#831,.T.);
#831 = LINE('',#832,#833);
#832 = CARTESIAN_POINT('',(1.975,0.25,-7.E-02));
#833 = VECTOR('',#834,1.);
#834 = DIRECTION('',(0.,1.,0.));
#835 = PLANE('',#836);
#836 = AXIS2_PLACEMENT_3D('',#837,#838,#839);
#837 = CARTESIAN_POINT('',(1.975,0.25,-7.E-02));
#838 = DIRECTION('',(-1.,0.,0.));
#839 = DIRECTION('',(0.,1.,0.));
#840 = ADVANCED_FACE('',(#841),#868,.T.);
#841 = FACE_BOUND('',#842,.F.);
#842 = EDGE_LOOP('',(#843,#844,#853,#861));
#843 = ORIENTED_EDGE('',*,*,#822,.T.);
#844 = ORIENTED_EDGE('',*,*,#845,.T.);
#845 = EDGE_CURVE('',#815,#846,#848,.T.);
#846 = VERTEX_POINT('',#847);
#847 = CARTESIAN_POINT('',(1.725,0.73,7.E-02));
#848 = CIRCLE('',#849,0.25);
#849 = AXIS2_PLACEMENT_3D('',#850,#851,#852);
#850 = CARTESIAN_POINT('',(1.725,0.48,7.E-02));
#851 = DIRECTION('',(0.,0.,1.));
#852 = DIRECTION('',(1.,0.,0.));
#853 = ORIENTED_EDGE('',*,*,#854,.F.);
#854 = EDGE_CURVE('',#855,#846,#857,.T.);
#855 = VERTEX_POINT('',#856);
#856 = CARTESIAN_POINT('',(1.725,0.73,-7.E-02));
#857 = LINE('',#858,#859);
#858 = CARTESIAN_POINT('',(1.725,0.73,-7.E-02));
#859 = VECTOR('',#860,1.);
#860 = DIRECTION('',(0.,0.,1.));
#861 = ORIENTED_EDGE('',*,*,#862,.F.);
#862 = EDGE_CURVE('',#823,#855,#863,.T.);
#863 = CIRCLE('',#864,0.25);
#864 = AXIS2_PLACEMENT_3D('',#865,#866,#867);
#865 = CARTESIAN_POINT('',(1.725,0.48,-7.E-02));
#866 = DIRECTION('',(0.,0.,1.));
#867 = DIRECTION('',(1.,0.,0.));
#868 = CYLINDRICAL_SURFACE('',#869,0.25);
#869 = AXIS2_PLACEMENT_3D('',#870,#871,#872);
#870 = CARTESIAN_POINT('',(1.725,0.48,-7.E-02));
#871 = DIRECTION('',(-0.,-0.,-1.));
#872 = DIRECTION('',(1.,0.,0.));
#873 = ADVANCED_FACE('',(#874),#899,.F.);
#874 = FACE_BOUND('',#875,.F.);
#875 = EDGE_LOOP('',(#876,#877,#885,#893));
#876 = ORIENTED_EDGE('',*,*,#854,.T.);
#877 = ORIENTED_EDGE('',*,*,#878,.T.);
#878 = EDGE_CURVE('',#846,#879,#881,.T.);
#879 = VERTEX_POINT('',#880);
#880 = CARTESIAN_POINT('',(1.5,0.73,7.E-02));
#881 = LINE('',#882,#883);
#882 = CARTESIAN_POINT('',(1.725,0.73,7.E-02));
#883 = VECTOR('',#884,1.);
#884 = DIRECTION('',(-1.,0.,0.));
#885 = ORIENTED_EDGE('',*,*,#886,.F.);
#886 = EDGE_CURVE('',#887,#879,#889,.T.);
#887 = VERTEX_POINT('',#888);
#888 = CARTESIAN_POINT('',(1.5,0.73,-7.E-02));
#889 = LINE('',#890,#891);
#890 = CARTESIAN_POINT('',(1.5,0.73,-7.E-02));
#891 = VECTOR('',#892,1.);
#892 = DIRECTION('',(0.,0.,1.));
#893 = ORIENTED_EDGE('',*,*,#894,.F.);
#894 = EDGE_CURVE('',#855,#887,#895,.T.);
#895 = LINE('',#896,#897);
#896 = CARTESIAN_POINT('',(1.725,0.73,-7.E-02));
#897 = VECTOR('',#898,1.);
#898 = DIRECTION('',(-1.,0.,0.));
#899 = PLANE('',#900);
#900 = AXIS2_PLACEMENT_3D('',#901,#902,#903);
#901 = CARTESIAN_POINT('',(1.725,0.73,-7.E-02));
#902 = DIRECTION('',(0.,-1.,0.));
#903 = DIRECTION('',(-1.,0.,0.));
#904 = ADVANCED_FACE('',(#905),#921,.F.);
#905 = FACE_BOUND('',#906,.F.);
#906 = EDGE_LOOP('',(#907,#908,#914,#915));
#907 = ORIENTED_EDGE('',*,*,#886,.T.);
#908 = ORIENTED_EDGE('',*,*,#909,.T.);
#909 = EDGE_CURVE('',#879,#619,#910,.T.);
#910 = LINE('',#911,#912);
#911 = CARTESIAN_POINT('',(1.5,0.73,7.E-02));
#912 = VECTOR('',#913,1.);
#913 = DIRECTION('',(0.,-1.,0.));
#914 = ORIENTED_EDGE('',*,*,#616,.F.);
#915 = ORIENTED_EDGE('',*,*,#916,.F.);
#916 = EDGE_CURVE('',#887,#617,#917,.T.);
#917 = LINE('',#918,#919);
#918 = CARTESIAN_POINT('',(1.5,0.73,-7.E-02));
#919 = VECTOR('',#920,1.);
#920 = DIRECTION('',(0.,-1.,0.));
#921 = PLANE('',#922);
#922 = AXIS2_PLACEMENT_3D('',#923,#924,#925);
#923 = CARTESIAN_POINT('',(1.5,0.73,-7.E-02));
#924 = DIRECTION('',(1.,0.,0.));
#925 = DIRECTION('',(0.,-1.,0.));
#926 = ADVANCED_FACE('',(#927),#939,.F.);
#927 = FACE_BOUND('',#928,.F.);
#928 = EDGE_LOOP('',(#929,#930,#931,#932,#933,#934,#935,#936,#937,#938)
  );
#929 = ORIENTED_EDGE('',*,*,#642,.T.);
#930 = ORIENTED_EDGE('',*,*,#673,.T.);
#931 = ORIENTED_EDGE('',*,*,#705,.T.);
#932 = ORIENTED_EDGE('',*,*,#737,.T.);
#933 = ORIENTED_EDGE('',*,*,#768,.T.);
#934 = ORIENTED_EDGE('',*,*,#799,.T.);
#935 = ORIENTED_EDGE('',*,*,#830,.T.);
#936 = ORIENTED_EDGE('',*,*,#862,.T.);
#937 = ORIENTED_EDGE('',*,*,#894,.T.);
#938 = ORIENTED_EDGE('',*,*,#916,.T.);
#939 = PLANE('',#940);
#940 = AXIS2_PLACEMENT_3D('',#941,#942,#943);
#941 = CARTESIAN_POINT('',(1.945649322487,0.326740271006,-7.E-02));
#942 = DIRECTION('',(0.,0.,1.));
#943 = DIRECTION('',(1.,0.,0.));
#944 = ADVANCED_FACE('',(#945),#957,.T.);
#945 = FACE_BOUND('',#946,.T.);
#946 = EDGE_LOOP('',(#947,#948,#949,#950,#951,#952,#953,#954,#955,#956)
  );
#947 = ORIENTED_EDGE('',*,*,#626,.T.);
#948 = ORIENTED_EDGE('',*,*,#657,.T.);
#949 = ORIENTED_EDGE('',*,*,#688,.T.);
#950 = ORIENTED_EDGE('',*,*,#721,.T.);
#951 = ORIENTED_EDGE('',*,*,#752,.T.);
#952 = ORIENTED_EDGE('',*,*,#783,.T.);
#953 = ORIENTED_EDGE('',*,*,#814,.T.);
#954 = ORIENTED_EDGE('',*,*,#845,.T.);
#955 = ORIENTED_EDGE('',*,*,#878,.T.);
#956 = ORIENTED_EDGE('',*,*,#909,.T.);
#957 = PLANE('',#958);
#958 = AXIS2_PLACEMENT_3D('',#959,#960,#961);
#959 = CARTESIAN_POINT('',(1.945649322487,0.326740271006,7.E-02));
#960 = DIRECTION('',(0.,0.,1.));
#961 = DIRECTION('',(1.,0.,0.));
#962 = ( GEOMETRIC_REPRESENTATION_CONTEXT(3) 
GLOBAL_UNCERTAINTY_ASSIGNED_CONTEXT((#966)) GLOBAL_UNIT_ASSIGNED_CONTEXT
((#963,#964,#965)) REPRESENTATION_CONTEXT('Context #1',
  '3D Context with UNIT and UNCERTAINTY') );
#963 = ( LENGTH_UNIT() NAMED_UNIT(*) SI_UNIT(.MILLI.,.METRE.) );
#964 = ( NAMED_UNIT(*) PLANE_ANGLE_UNIT() SI_UNIT($,.RADIAN.) );
#965 = ( NAMED_UNIT(*) SI_UNIT($,.STERADIAN.) SOLID_ANGLE_UNIT() );
#966 = UNCERTAINTY_MEASURE_WITH_UNIT(LENGTH_MEASURE(1.E-07),#963,
  'distance_accuracy_value','confusion accuracy');
#967 = CONTEXT_DEPENDENT_SHAPE_REPRESENTATION(#968,#970);
#968 = ( REPRESENTATION_RELATIONSHIP('','',#609,#570) 
REPRESENTATION_RELATIONSHIP_WITH_TRANSFORMATION(#969) 
SHAPE_REPRESENTATION_RELATIONSHIP() );
#969 = ITEM_DEFINED_TRANSFORMATION('','',#11,#571);
#970 = PRODUCT_DEFINITION_SHAPE('Placement','Placement of an item',#971
  );
#971 = NEXT_ASSEMBLY_USAGE_OCCURRENCE('50559','0','',#565,#604,$);
#972 = PRODUCT_RELATED_PRODUCT_CATEGORY('part',$,(#606));
#973 = CONTEXT_DEPENDENT_SHAPE_REPRESENTATION(#974,#976);
#974 = ( REPRESENTATION_RELATIONSHIP('','',#609,#570) 
REPRESENTATION_RELATIONSHIP_WITH_TRANSFORMATION(#975) 
SHAPE_REPRESENTATION_RELATIONSHIP() );
#975 = ITEM_DEFINED_TRANSFORMATION('','',#11,#575);
#976 = PRODUCT_DEFINITION_SHAPE('Placement','Placement of an item',#977
  );
#977 = NEXT_ASSEMBLY_USAGE_OCCURRENCE('50560','1','',#565,#604,$);
#978 = CONTEXT_DEPENDENT_SHAPE_REPRESENTATION(#979,#981);
#979 = ( REPRESENTATION_RELATIONSHIP('','',#609,#570) 
REPRESENTATION_RELATIONSHIP_WITH_TRANSFORMATION(#980) 
SHAPE_REPRESENTATION_RELATIONSHIP() );
#980 = ITEM_DEFINED_TRANSFORMATION('','',#11,#579);
#981 = PRODUCT_DEFINITION_SHAPE('Placement','Placement of an item',#982
  );
#982 = NEXT_ASSEMBLY_USAGE_OCCURRENCE('50561','2','',#565,#604,$);
#983 = CONTEXT_DEPENDENT_SHAPE_REPRESENTATION(#984,#986);
#984 = ( REPRESENTATION_RELATIONSHIP('','',#609,#570) 
REPRESENTATION_RELATIONSHIP_WITH_TRANSFORMATION(#985) 
SHAPE_REPRESENTATION_RELATIONSHIP() );
#985 = ITEM_DEFINED_TRANSFORMATION('','',#11,#583);
#986 = PRODUCT_DEFINITION_SHAPE('Placement','Placement of an item',#987
  );
#987 = NEXT_ASSEMBLY_USAGE_OCCURRENCE('50562','3','',#565,#604,$);
#988 = CONTEXT_DEPENDENT_SHAPE_REPRESENTATION(#989,#991);
#989 = ( REPRESENTATION_RELATIONSHIP('','',#609,#570) 
REPRESENTATION_RELATIONSHIP_WITH_TRANSFORMATION(#990) 
SHAPE_REPRESENTATION_RELATIONSHIP() );
#990 = ITEM_DEFINED_TRANSFORMATION('','',#11,#587);
#991 = PRODUCT_DEFINITION_SHAPE('Placement','Placement of an item',#992
  );
#992 = NEXT_ASSEMBLY_USAGE_OCCURRENCE('50563','4','',#565,#604,$);
#993 = SHAPE_DEFINITION_REPRESENTATION(#994,#1000);
#994 = PRODUCT_DEFINITION_SHAPE('','',#995);
#995 = PRODUCT_DEFINITION('design','',#996,#999);
#996 = PRODUCT_DEFINITION_FORMATION('','',#997);
#997 = PRODUCT('Body','Body','',(#998));
#998 = PRODUCT_CONTEXT('',#2,'mechanical');
#999 = PRODUCT_DEFINITION_CONTEXT('part definition',#2,'design');
#1000 = ADVANCED_BREP_SHAPE_REPRESENTATION('',(#11,#1001),#1388);
#1001 = MANIFOLD_SOLID_BREP('',#1002);
#1002 = CLOSED_SHELL('',(#1003,#1043,#1074,#1105,#1136,#1167,#1191,#1215
    ,#1232,#1254,#1278,#1302,#1330,#1342,#1354,#1379));
#1003 = ADVANCED_FACE('',(#1004),#1038,.T.);
#1004 = FACE_BOUND('',#1005,.T.);
#1005 = EDGE_LOOP('',(#1006,#1016,#1024,#1032));
#1006 = ORIENTED_EDGE('',*,*,#1007,.T.);
#1007 = EDGE_CURVE('',#1008,#1010,#1012,.T.);
#1008 = VERTEX_POINT('',#1009);
#1009 = CARTESIAN_POINT('',(1.5,0.48,1.5));
#1010 = VERTEX_POINT('',#1011);
#1011 = CARTESIAN_POINT('',(1.5,0.48,-1.5));
#1012 = LINE('',#1013,#1014);
#1013 = CARTESIAN_POINT('',(1.5,0.48,4.400181815562));
#1014 = VECTOR('',#1015,1.);
#1015 = DIRECTION('',(0.,0.,-1.));
#1016 = ORIENTED_EDGE('',*,*,#1017,.T.);
#1017 = EDGE_CURVE('',#1010,#1018,#1020,.T.);
#1018 = VERTEX_POINT('',#1019);
#1019 = CARTESIAN_POINT('',(1.5,0.73,-1.5));
#1020 = LINE('',#1021,#1022);
#1021 = CARTESIAN_POINT('',(1.5,-3.330669073875E-16,-1.5));
#1022 = VECTOR('',#1023,1.);
#1023 = DIRECTION('',(0.,1.,-2.22044604925E-16));
#1024 = ORIENTED_EDGE('',*,*,#1025,.F.);
#1025 = EDGE_CURVE('',#1026,#1018,#1028,.T.);
#1026 = VERTEX_POINT('',#1027);
#1027 = CARTESIAN_POINT('',(1.5,0.73,1.5));
#1028 = LINE('',#1029,#1030);
#1029 = CARTESIAN_POINT('',(1.5,0.73,4.400181815562));
#1030 = VECTOR('',#1031,1.);
#1031 = DIRECTION('',(0.,0.,-1.));
#1032 = ORIENTED_EDGE('',*,*,#1033,.F.);
#1033 = EDGE_CURVE('',#1008,#1026,#1034,.T.);
#1034 = LINE('',#1035,#1036);
#1035 = CARTESIAN_POINT('',(1.5,3.330669073875E-16,1.5));
#1036 = VECTOR('',#1037,1.);
#1037 = DIRECTION('',(0.,1.,-2.22044604925E-16));
#1038 = PLANE('',#1039);
#1039 = AXIS2_PLACEMENT_3D('',#1040,#1041,#1042);
#1040 = CARTESIAN_POINT('',(1.5,-3.330669073875E-16,-1.5));
#1041 = DIRECTION('',(1.,0.,0.));
#1042 = DIRECTION('',(0.,2.22044604925E-16,1.));
#1043 = ADVANCED_FACE('',(#1044),#1069,.T.);
#1044 = FACE_BOUND('',#1045,.T.);
#1045 = EDGE_LOOP('',(#1046,#1047,#1055,#1063));
#1046 = ORIENTED_EDGE('',*,*,#1007,.F.);
#1047 = ORIENTED_EDGE('',*,*,#1048,.F.);
#1048 = EDGE_CURVE('',#1049,#1008,#1051,.T.);
#1049 = VERTEX_POINT('',#1050);
#1050 = CARTESIAN_POINT('',(1.44799989116,0.11,1.44799989116));
#1051 = LINE('',#1052,#1053);
#1052 = CARTESIAN_POINT('',(1.504094643883,0.509134905109,1.504094643883
    ));
#1053 = VECTOR('',#1054,1.);
#1054 = DIRECTION('',(0.137844537492,0.980814848464,0.137844537492));
#1055 = ORIENTED_EDGE('',*,*,#1056,.T.);
#1056 = EDGE_CURVE('',#1049,#1057,#1059,.T.);
#1057 = VERTEX_POINT('',#1058);
#1058 = CARTESIAN_POINT('',(1.44799989116,0.11,-1.44799989116));
#1059 = LINE('',#1060,#1061);
#1060 = CARTESIAN_POINT('',(1.44799989116,0.11,4.400181815562));
#1061 = VECTOR('',#1062,1.);
#1062 = DIRECTION('',(0.,0.,-1.));
#1063 = ORIENTED_EDGE('',*,*,#1064,.T.);
#1064 = EDGE_CURVE('',#1057,#1010,#1065,.T.);
#1065 = LINE('',#1066,#1067);
#1066 = CARTESIAN_POINT('',(1.420486276513,-8.576954061614E-02,
    -1.420486276513));
#1067 = VECTOR('',#1068,1.);
#1068 = DIRECTION('',(0.137844537492,0.980814848464,-0.137844537492));
#1069 = PLANE('',#1070);
#1070 = AXIS2_PLACEMENT_3D('',#1071,#1072,#1073);
#1071 = CARTESIAN_POINT('',(1.44799989116,0.11,4.400181815562));
#1072 = DIRECTION('',(0.990268068742,-0.13917310096,0.));
#1073 = DIRECTION('',(0.13917310096,0.990268068742,0.));
#1074 = ADVANCED_FACE('',(#1075),#1100,.T.);
#1075 = FACE_BOUND('',#1076,.T.);
#1076 = EDGE_LOOP('',(#1077,#1085,#1086,#1094));
#1077 = ORIENTED_EDGE('',*,*,#1078,.F.);
#1078 = EDGE_CURVE('',#1008,#1079,#1081,.T.);
#1079 = VERTEX_POINT('',#1080);
#1080 = CARTESIAN_POINT('',(-1.5,0.48,1.5));
#1081 = LINE('',#1082,#1083);
#1082 = CARTESIAN_POINT('',(4.400181815562,0.48,1.5));
#1083 = VECTOR('',#1084,1.);
#1084 = DIRECTION('',(-1.,0.,0.));
#1085 = ORIENTED_EDGE('',*,*,#1033,.T.);
#1086 = ORIENTED_EDGE('',*,*,#1087,.T.);
#1087 = EDGE_CURVE('',#1026,#1088,#1090,.T.);
#1088 = VERTEX_POINT('',#1089);
#1089 = CARTESIAN_POINT('',(-1.5,0.73,1.5));
#1090 = LINE('',#1091,#1092);
#1091 = CARTESIAN_POINT('',(4.400181815562,0.73,1.5));
#1092 = VECTOR('',#1093,1.);
#1093 = DIRECTION('',(-1.,0.,0.));
#1094 = ORIENTED_EDGE('',*,*,#1095,.F.);
#1095 = EDGE_CURVE('',#1079,#1088,#1096,.T.);
#1096 = LINE('',#1097,#1098);
#1097 = CARTESIAN_POINT('',(-1.5,3.330669073875E-16,1.5));
#1098 = VECTOR('',#1099,1.);
#1099 = DIRECTION('',(0.,1.,-2.22044604925E-16));
#1100 = PLANE('',#1101);
#1101 = AXIS2_PLACEMENT_3D('',#1102,#1103,#1104);
#1102 = CARTESIAN_POINT('',(1.5,3.330669073875E-16,1.5));
#1103 = DIRECTION('',(0.,2.22044604925E-16,1.));
#1104 = DIRECTION('',(-1.,0.,0.));
#1105 = ADVANCED_FACE('',(#1106),#1131,.F.);
#1106 = FACE_BOUND('',#1107,.F.);
#1107 = EDGE_LOOP('',(#1108,#1109,#1117,#1125));
#1108 = ORIENTED_EDGE('',*,*,#1025,.F.);
#1109 = ORIENTED_EDGE('',*,*,#1110,.T.);
#1110 = EDGE_CURVE('',#1026,#1111,#1113,.T.);
#1111 = VERTEX_POINT('',#1112);
#1112 = CARTESIAN_POINT('',(1.44799989116,1.1,1.44799989116));
#1113 = LINE('',#1114,#1115);
#1114 = CARTESIAN_POINT('',(1.504094643883,0.700865094891,1.504094643883
    ));
#1115 = VECTOR('',#1116,1.);
#1116 = DIRECTION('',(-0.137844537492,0.980814848464,-0.137844537492));
#1117 = ORIENTED_EDGE('',*,*,#1118,.T.);
#1118 = EDGE_CURVE('',#1111,#1119,#1121,.T.);
#1119 = VERTEX_POINT('',#1120);
#1120 = CARTESIAN_POINT('',(1.44799989116,1.1,-1.44799989116));
#1121 = LINE('',#1122,#1123);
#1122 = CARTESIAN_POINT('',(1.44799989116,1.1,4.400181815562));
#1123 = VECTOR('',#1124,1.);
#1124 = DIRECTION('',(0.,0.,-1.));
#1125 = ORIENTED_EDGE('',*,*,#1126,.F.);
#1126 = EDGE_CURVE('',#1018,#1119,#1127,.T.);
#1127 = LINE('',#1128,#1129);
#1128 = CARTESIAN_POINT('',(1.420486276513,1.295769540616,
    -1.420486276513));
#1129 = VECTOR('',#1130,1.);
#1130 = DIRECTION('',(-0.137844537492,0.980814848464,0.137844537492));
#1131 = PLANE('',#1132);
#1132 = AXIS2_PLACEMENT_3D('',#1133,#1134,#1135);
#1133 = CARTESIAN_POINT('',(1.44799989116,1.1,4.400181815562));
#1134 = DIRECTION('',(-0.990268068742,-0.13917310096,0.));
#1135 = DIRECTION('',(0.13917310096,-0.990268068742,0.));
#1136 = ADVANCED_FACE('',(#1137),#1162,.T.);
#1137 = FACE_BOUND('',#1138,.T.);
#1138 = EDGE_LOOP('',(#1139,#1147,#1155,#1161));
#1139 = ORIENTED_EDGE('',*,*,#1140,.T.);
#1140 = EDGE_CURVE('',#1010,#1141,#1143,.T.);
#1141 = VERTEX_POINT('',#1142);
#1142 = CARTESIAN_POINT('',(-1.5,0.48,-1.5));
#1143 = LINE('',#1144,#1145);
#1144 = CARTESIAN_POINT('',(4.400181815562,0.48,-1.5));
#1145 = VECTOR('',#1146,1.);
#1146 = DIRECTION('',(-1.,0.,0.));
#1147 = ORIENTED_EDGE('',*,*,#1148,.T.);
#1148 = EDGE_CURVE('',#1141,#1149,#1151,.T.);
#1149 = VERTEX_POINT('',#1150);
#1150 = CARTESIAN_POINT('',(-1.5,0.73,-1.5));
#1151 = LINE('',#1152,#1153);
#1152 = CARTESIAN_POINT('',(-1.5,-3.330669073875E-16,-1.5));
#1153 = VECTOR('',#1154,1.);
#1154 = DIRECTION('',(0.,1.,-2.22044604925E-16));
#1155 = ORIENTED_EDGE('',*,*,#1156,.F.);
#1156 = EDGE_CURVE('',#1018,#1149,#1157,.T.);
#1157 = LINE('',#1158,#1159);
#1158 = CARTESIAN_POINT('',(4.400181815562,0.73,-1.5));
#1159 = VECTOR('',#1160,1.);
#1160 = DIRECTION('',(-1.,0.,0.));
#1161 = ORIENTED_EDGE('',*,*,#1017,.F.);
#1162 = PLANE('',#1163);
#1163 = AXIS2_PLACEMENT_3D('',#1164,#1165,#1166);
#1164 = CARTESIAN_POINT('',(-1.5,-3.330669073875E-16,-1.5));
#1165 = DIRECTION('',(0.,-2.22044604925E-16,-1.));
#1166 = DIRECTION('',(1.,0.,0.));
#1167 = ADVANCED_FACE('',(#1168),#1186,.F.);
#1168 = FACE_BOUND('',#1169,.T.);
#1169 = EDGE_LOOP('',(#1170,#1171,#1179,#1185));
#1170 = ORIENTED_EDGE('',*,*,#1064,.F.);
#1171 = ORIENTED_EDGE('',*,*,#1172,.T.);
#1172 = EDGE_CURVE('',#1057,#1173,#1175,.T.);
#1173 = VERTEX_POINT('',#1174);
#1174 = CARTESIAN_POINT('',(-1.44799989116,0.11,-1.44799989116));
#1175 = LINE('',#1176,#1177);
#1176 = CARTESIAN_POINT('',(4.400181815562,0.11,-1.44799989116));
#1177 = VECTOR('',#1178,1.);
#1178 = DIRECTION('',(-1.,0.,0.));
#1179 = ORIENTED_EDGE('',*,*,#1180,.T.);
#1180 = EDGE_CURVE('',#1173,#1141,#1181,.T.);
#1181 = LINE('',#1182,#1183);
#1182 = CARTESIAN_POINT('',(-1.336877909142,-0.680673986341,
    -1.336877909142));
#1183 = VECTOR('',#1184,1.);
#1184 = DIRECTION('',(-0.137844537492,0.980814848464,-0.137844537492));
#1185 = ORIENTED_EDGE('',*,*,#1140,.F.);
#1186 = PLANE('',#1187);
#1187 = AXIS2_PLACEMENT_3D('',#1188,#1189,#1190);
#1188 = CARTESIAN_POINT('',(4.400181815562,0.11,-1.44799989116));
#1189 = DIRECTION('',(0.,0.13917310096,0.990268068742));
#1190 = DIRECTION('',(0.,-0.990268068742,0.13917310096));
#1191 = ADVANCED_FACE('',(#1192),#1210,.F.);
#1192 = FACE_BOUND('',#1193,.F.);
#1193 = EDGE_LOOP('',(#1194,#1202,#1203,#1204));
#1194 = ORIENTED_EDGE('',*,*,#1195,.F.);
#1195 = EDGE_CURVE('',#1049,#1196,#1198,.T.);
#1196 = VERTEX_POINT('',#1197);
#1197 = CARTESIAN_POINT('',(-1.44799989116,0.11,1.44799989116));
#1198 = LINE('',#1199,#1200);
#1199 = CARTESIAN_POINT('',(4.400181815562,0.11,1.44799989116));
#1200 = VECTOR('',#1201,1.);
#1201 = DIRECTION('',(-1.,0.,0.));
#1202 = ORIENTED_EDGE('',*,*,#1056,.T.);
#1203 = ORIENTED_EDGE('',*,*,#1172,.T.);
#1204 = ORIENTED_EDGE('',*,*,#1205,.F.);
#1205 = EDGE_CURVE('',#1196,#1173,#1206,.T.);
#1206 = LINE('',#1207,#1208);
#1207 = CARTESIAN_POINT('',(-1.44799989116,0.11,4.400181815562));
#1208 = VECTOR('',#1209,1.);
#1209 = DIRECTION('',(2.22044604925E-16,0.,-1.));
#1210 = PLANE('',#1211);
#1211 = AXIS2_PLACEMENT_3D('',#1212,#1213,#1214);
#1212 = CARTESIAN_POINT('',(0.,0.11,-2.775557561563E-17));
#1213 = DIRECTION('',(0.,1.,0.));
#1214 = DIRECTION('',(0.,0.,1.));
#1215 = ADVANCED_FACE('',(#1216),#1227,.F.);
#1216 = FACE_BOUND('',#1217,.F.);
#1217 = EDGE_LOOP('',(#1218,#1219,#1220,#1226));
#1218 = ORIENTED_EDGE('',*,*,#1048,.F.);
#1219 = ORIENTED_EDGE('',*,*,#1195,.T.);
#1220 = ORIENTED_EDGE('',*,*,#1221,.T.);
#1221 = EDGE_CURVE('',#1196,#1079,#1222,.T.);
#1222 = LINE('',#1223,#1224);
#1223 = CARTESIAN_POINT('',(-1.420486276513,-8.576954061614E-02,
    1.420486276513));
#1224 = VECTOR('',#1225,1.);
#1225 = DIRECTION('',(-0.137844537492,0.980814848464,0.137844537492));
#1226 = ORIENTED_EDGE('',*,*,#1078,.F.);
#1227 = PLANE('',#1228);
#1228 = AXIS2_PLACEMENT_3D('',#1229,#1230,#1231);
#1229 = CARTESIAN_POINT('',(4.400181815562,0.11,1.44799989116));
#1230 = DIRECTION('',(0.,0.13917310096,-0.990268068742));
#1231 = DIRECTION('',(0.,0.990268068742,0.13917310096));
#1232 = ADVANCED_FACE('',(#1233),#1249,.T.);
#1233 = FACE_BOUND('',#1234,.T.);
#1234 = EDGE_LOOP('',(#1235,#1241,#1242,#1248));
#1235 = ORIENTED_EDGE('',*,*,#1236,.F.);
#1236 = EDGE_CURVE('',#1079,#1141,#1237,.T.);
#1237 = LINE('',#1238,#1239);
#1238 = CARTESIAN_POINT('',(-1.5,0.48,4.400181815562));
#1239 = VECTOR('',#1240,1.);
#1240 = DIRECTION('',(2.22044604925E-16,0.,-1.));
#1241 = ORIENTED_EDGE('',*,*,#1095,.T.);
#1242 = ORIENTED_EDGE('',*,*,#1243,.T.);
#1243 = EDGE_CURVE('',#1088,#1149,#1244,.T.);
#1244 = LINE('',#1245,#1246);
#1245 = CARTESIAN_POINT('',(-1.5,0.73,4.400181815562));
#1246 = VECTOR('',#1247,1.);
#1247 = DIRECTION('',(2.22044604925E-16,0.,-1.));
#1248 = ORIENTED_EDGE('',*,*,#1148,.F.);
#1249 = PLANE('',#1250);
#1250 = AXIS2_PLACEMENT_3D('',#1251,#1252,#1253);
#1251 = CARTESIAN_POINT('',(-1.5,3.330669073875E-16,1.5));
#1252 = DIRECTION('',(-1.,0.,0.));
#1253 = DIRECTION('',(0.,-2.22044604925E-16,-1.));
#1254 = ADVANCED_FACE('',(#1255),#1273,.T.);
#1255 = FACE_BOUND('',#1256,.T.);
#1256 = EDGE_LOOP('',(#1257,#1258,#1266,#1272));
#1257 = ORIENTED_EDGE('',*,*,#1110,.T.);
#1258 = ORIENTED_EDGE('',*,*,#1259,.T.);
#1259 = EDGE_CURVE('',#1111,#1260,#1262,.T.);
#1260 = VERTEX_POINT('',#1261);
#1261 = CARTESIAN_POINT('',(-1.44799989116,1.1,1.44799989116));
#1262 = LINE('',#1263,#1264);
#1263 = CARTESIAN_POINT('',(4.400181815562,1.1,1.44799989116));
#1264 = VECTOR('',#1265,1.);
#1265 = DIRECTION('',(-1.,0.,0.));
#1266 = ORIENTED_EDGE('',*,*,#1267,.F.);
#1267 = EDGE_CURVE('',#1088,#1260,#1268,.T.);
#1268 = LINE('',#1269,#1270);
#1269 = CARTESIAN_POINT('',(-1.420486276513,1.295769540616,
    1.420486276513));
#1270 = VECTOR('',#1271,1.);
#1271 = DIRECTION('',(0.137844537492,0.980814848464,-0.137844537492));
#1272 = ORIENTED_EDGE('',*,*,#1087,.F.);
#1273 = PLANE('',#1274);
#1274 = AXIS2_PLACEMENT_3D('',#1275,#1276,#1277);
#1275 = CARTESIAN_POINT('',(4.400181815562,1.1,1.44799989116));
#1276 = DIRECTION('',(0.,0.13917310096,0.990268068742));
#1277 = DIRECTION('',(0.,-0.990268068742,0.13917310096));
#1278 = ADVANCED_FACE('',(#1279),#1297,.T.);
#1279 = FACE_BOUND('',#1280,.F.);
#1280 = EDGE_LOOP('',(#1281,#1282,#1290,#1296));
#1281 = ORIENTED_EDGE('',*,*,#1126,.T.);
#1282 = ORIENTED_EDGE('',*,*,#1283,.T.);
#1283 = EDGE_CURVE('',#1119,#1284,#1286,.T.);
#1284 = VERTEX_POINT('',#1285);
#1285 = CARTESIAN_POINT('',(-1.44799989116,1.1,-1.44799989116));
#1286 = LINE('',#1287,#1288);
#1287 = CARTESIAN_POINT('',(4.400181815562,1.1,-1.44799989116));
#1288 = VECTOR('',#1289,1.);
#1289 = DIRECTION('',(-1.,0.,0.));
#1290 = ORIENTED_EDGE('',*,*,#1291,.F.);
#1291 = EDGE_CURVE('',#1149,#1284,#1292,.T.);
#1292 = LINE('',#1293,#1294);
#1293 = CARTESIAN_POINT('',(-1.336877909142,1.890673986341,
    -1.336877909142));
#1294 = VECTOR('',#1295,1.);
#1295 = DIRECTION('',(0.137844537492,0.980814848464,0.137844537492));
#1296 = ORIENTED_EDGE('',*,*,#1156,.F.);
#1297 = PLANE('',#1298);
#1298 = AXIS2_PLACEMENT_3D('',#1299,#1300,#1301);
#1299 = CARTESIAN_POINT('',(4.400181815562,1.1,-1.44799989116));
#1300 = DIRECTION('',(0.,0.13917310096,-0.990268068742));
#1301 = DIRECTION('',(0.,0.990268068742,0.13917310096));
#1302 = ADVANCED_FACE('',(#1303,#1314),#1325,.T.);
#1303 = FACE_BOUND('',#1304,.T.);
#1304 = EDGE_LOOP('',(#1305,#1306,#1307,#1308));
#1305 = ORIENTED_EDGE('',*,*,#1259,.F.);
#1306 = ORIENTED_EDGE('',*,*,#1118,.T.);
#1307 = ORIENTED_EDGE('',*,*,#1283,.T.);
#1308 = ORIENTED_EDGE('',*,*,#1309,.F.);
#1309 = EDGE_CURVE('',#1260,#1284,#1310,.T.);
#1310 = LINE('',#1311,#1312);
#1311 = CARTESIAN_POINT('',(-1.44799989116,1.1,4.400181815562));
#1312 = VECTOR('',#1313,1.);
#1313 = DIRECTION('',(2.22044604925E-16,0.,-1.));
#1314 = FACE_BOUND('',#1315,.T.);
#1315 = EDGE_LOOP('',(#1316));
#1316 = ORIENTED_EDGE('',*,*,#1317,.F.);
#1317 = EDGE_CURVE('',#1318,#1318,#1320,.T.);
#1318 = VERTEX_POINT('',#1319);
#1319 = CARTESIAN_POINT('',(-0.921428571429,1.1,-1.071428571429));
#1320 = CIRCLE('',#1321,0.15);
#1321 = AXIS2_PLACEMENT_3D('',#1322,#1323,#1324);
#1322 = CARTESIAN_POINT('',(-1.071428571429,1.1,-1.071428571429));
#1323 = DIRECTION('',(-0.,1.,2.22044604925E-16));
#1324 = DIRECTION('',(1.,0.,0.));
#1325 = PLANE('',#1326);
#1326 = AXIS2_PLACEMENT_3D('',#1327,#1328,#1329);
#1327 = CARTESIAN_POINT('',(0.,1.1,-2.22044604925E-16));
#1328 = DIRECTION('',(0.,1.,0.));
#1329 = DIRECTION('',(0.,0.,1.));
#1330 = ADVANCED_FACE('',(#1331),#1337,.T.);
#1331 = FACE_BOUND('',#1332,.F.);
#1332 = EDGE_LOOP('',(#1333,#1334,#1335,#1336));
#1333 = ORIENTED_EDGE('',*,*,#1236,.F.);
#1334 = ORIENTED_EDGE('',*,*,#1221,.F.);
#1335 = ORIENTED_EDGE('',*,*,#1205,.T.);
#1336 = ORIENTED_EDGE('',*,*,#1180,.T.);
#1337 = PLANE('',#1338);
#1338 = AXIS2_PLACEMENT_3D('',#1339,#1340,#1341);
#1339 = CARTESIAN_POINT('',(-1.44799989116,0.11,4.400181815562));
#1340 = DIRECTION('',(-0.990268068742,-0.13917310096,-2.198836820936E-16
    ));
#1341 = DIRECTION('',(0.13917310096,-0.990268068742,3.090263621887E-17)
  );
#1342 = ADVANCED_FACE('',(#1343),#1349,.F.);
#1343 = FACE_BOUND('',#1344,.T.);
#1344 = EDGE_LOOP('',(#1345,#1346,#1347,#1348));
#1345 = ORIENTED_EDGE('',*,*,#1243,.F.);
#1346 = ORIENTED_EDGE('',*,*,#1267,.T.);
#1347 = ORIENTED_EDGE('',*,*,#1309,.T.);
#1348 = ORIENTED_EDGE('',*,*,#1291,.F.);
#1349 = PLANE('',#1350);
#1350 = AXIS2_PLACEMENT_3D('',#1351,#1352,#1353);
#1351 = CARTESIAN_POINT('',(-1.44799989116,1.1,4.400181815562));
#1352 = DIRECTION('',(0.990268068742,-0.13917310096,2.198836820936E-16)
  );
#1353 = DIRECTION('',(0.13917310096,0.990268068742,3.090263621887E-17));
#1354 = ADVANCED_FACE('',(#1355),#1374,.F.);
#1355 = FACE_BOUND('',#1356,.F.);
#1356 = EDGE_LOOP('',(#1357,#1365,#1372,#1373));
#1357 = ORIENTED_EDGE('',*,*,#1358,.T.);
#1358 = EDGE_CURVE('',#1318,#1359,#1361,.T.);
#1359 = VERTEX_POINT('',#1360);
#1360 = CARTESIAN_POINT('',(-0.921428571429,1.026666666667,
    -1.071428571429));
#1361 = LINE('',#1362,#1363);
#1362 = CARTESIAN_POINT('',(-0.921428571429,1.1,-1.071428571429));
#1363 = VECTOR('',#1364,1.);
#1364 = DIRECTION('',(0.,-1.,-2.22044604925E-16));
#1365 = ORIENTED_EDGE('',*,*,#1366,.T.);
#1366 = EDGE_CURVE('',#1359,#1359,#1367,.T.);
#1367 = CIRCLE('',#1368,0.15);
#1368 = AXIS2_PLACEMENT_3D('',#1369,#1370,#1371);
#1369 = CARTESIAN_POINT('',(-1.071428571429,1.026666666667,
    -1.071428571429));
#1370 = DIRECTION('',(-0.,1.,2.22044604925E-16));
#1371 = DIRECTION('',(1.,0.,0.));
#1372 = ORIENTED_EDGE('',*,*,#1358,.F.);
#1373 = ORIENTED_EDGE('',*,*,#1317,.F.);
#1374 = CYLINDRICAL_SURFACE('',#1375,0.15);
#1375 = AXIS2_PLACEMENT_3D('',#1376,#1377,#1378);
#1376 = CARTESIAN_POINT('',(-1.071428571429,1.1,-1.071428571429));
#1377 = DIRECTION('',(0.,1.,2.22044604925E-16));
#1378 = DIRECTION('',(1.,0.,0.));
#1379 = ADVANCED_FACE('',(#1380),#1383,.T.);
#1380 = FACE_BOUND('',#1381,.T.);
#1381 = EDGE_LOOP('',(#1382));
#1382 = ORIENTED_EDGE('',*,*,#1366,.T.);
#1383 = PLANE('',#1384);
#1384 = AXIS2_PLACEMENT_3D('',#1385,#1386,#1387);
#1385 = CARTESIAN_POINT('',(-1.071428571429,1.026666666667,
    -1.071428571429));
#1386 = DIRECTION('',(0.,1.,0.));
#1387 = DIRECTION('',(0.,0.,1.));
#1388 = ( GEOMETRIC_REPRESENTATION_CONTEXT(3) 
GLOBAL_UNCERTAINTY_ASSIGNED_CONTEXT((#1392)) 
GLOBAL_UNIT_ASSIGNED_CONTEXT((#1389,#1390,#1391)) REPRESENTATION_CONTEXT
('Context #1','3D Context with UNIT and UNCERTAINTY') );
#1389 = ( LENGTH_UNIT() NAMED_UNIT(*) SI_UNIT(.MILLI.,.METRE.) );
#1390 = ( NAMED_UNIT(*) PLANE_ANGLE_UNIT() SI_UNIT($,.RADIAN.) );
#1391 = ( NAMED_UNIT(*) SI_UNIT($,.STERADIAN.) SOLID_ANGLE_UNIT() );
#1392 = UNCERTAINTY_MEASURE_WITH_UNIT(LENGTH_MEASURE(2.E-06),#1389,
  'distance_accuracy_value','confusion accuracy');
#1393 = CONTEXT_DEPENDENT_SHAPE_REPRESENTATION(#1394,#1396);
#1394 = ( REPRESENTATION_RELATIONSHIP('','',#1000,#10) 
REPRESENTATION_RELATIONSHIP_WITH_TRANSFORMATION(#1395) 
SHAPE_REPRESENTATION_RELATIONSHIP() );
#1395 = ITEM_DEFINED_TRANSFORMATION('','',#11,#23);
#1396 = PRODUCT_DEFINITION_SHAPE('Placement','Placement of an item',
  #1397);
#1397 = NEXT_ASSEMBLY_USAGE_OCCURRENCE('50565','Body','',#5,#995,$);
#1398 = PRODUCT_RELATED_PRODUCT_CATEGORY('part',$,(#997));
#1399 = SHAPE_DEFINITION_REPRESENTATION(#1400,#1406);
#1400 = PRODUCT_DEFINITION_SHAPE('','',#1401);
#1401 = PRODUCT_DEFINITION('design','',#1402,#1405);
#1402 = PRODUCT_DEFINITION_FORMATION('','',#1403);
#1403 = PRODUCT('Body003','Body003','',(#1404));
#1404 = PRODUCT_CONTEXT('',#2,'mechanical');
#1405 = PRODUCT_DEFINITION_CONTEXT('part definition',#2,'design');
#1406 = ADVANCED_BREP_SHAPE_REPRESENTATION('',(#11,#1407),#1460);
#1407 = MANIFOLD_SOLID_BREP('',#1408);
#1408 = CLOSED_SHELL('',(#1409,#1442,#1451));
#1409 = ADVANCED_FACE('',(#1410),#1437,.T.);
#1410 = FACE_BOUND('',#1411,.F.);
#1411 = EDGE_LOOP('',(#1412,#1422,#1429,#1430));
#1412 = ORIENTED_EDGE('',*,*,#1413,.T.);
#1413 = EDGE_CURVE('',#1414,#1416,#1418,.T.);
#1414 = VERTEX_POINT('',#1415);
#1415 = CARTESIAN_POINT('',(-1.221428571429,1.026666666667,
    -1.071428571429));
#1416 = VERTEX_POINT('',#1417);
#1417 = CARTESIAN_POINT('',(-1.221428571429,1.1,-1.071428571429));
#1418 = LINE('',#1419,#1420);
#1419 = CARTESIAN_POINT('',(-1.221428571429,1.026666666667,
    -1.071428571429));
#1420 = VECTOR('',#1421,1.);
#1421 = DIRECTION('',(0.,1.,-2.22044604925E-16));
#1422 = ORIENTED_EDGE('',*,*,#1423,.T.);
#1423 = EDGE_CURVE('',#1416,#1416,#1424,.T.);
#1424 = CIRCLE('',#1425,0.15);
#1425 = AXIS2_PLACEMENT_3D('',#1426,#1427,#1428);
#1426 = CARTESIAN_POINT('',(-1.071428571429,1.1,-1.071428571429));
#1427 = DIRECTION('',(0.,1.,-2.22044604925E-16));
#1428 = DIRECTION('',(-1.,0.,0.));
#1429 = ORIENTED_EDGE('',*,*,#1413,.F.);
#1430 = ORIENTED_EDGE('',*,*,#1431,.F.);
#1431 = EDGE_CURVE('',#1414,#1414,#1432,.T.);
#1432 = CIRCLE('',#1433,0.15);
#1433 = AXIS2_PLACEMENT_3D('',#1434,#1435,#1436);
#1434 = CARTESIAN_POINT('',(-1.071428571429,1.026666666667,
    -1.071428571429));
#1435 = DIRECTION('',(0.,1.,-2.22044604925E-16));
#1436 = DIRECTION('',(-1.,0.,0.));
#1437 = CYLINDRICAL_SURFACE('',#1438,0.15);
#1438 = AXIS2_PLACEMENT_3D('',#1439,#1440,#1441);
#1439 = CARTESIAN_POINT('',(-1.071428571429,1.026666666667,
    -1.071428571429));
#1440 = DIRECTION('',(0.,-1.,2.22044604925E-16));
#1441 = DIRECTION('',(-1.,0.,0.));
#1442 = ADVANCED_FACE('',(#1443),#1446,.F.);
#1443 = FACE_BOUND('',#1444,.F.);
#1444 = EDGE_LOOP('',(#1445));
#1445 = ORIENTED_EDGE('',*,*,#1431,.T.);
#1446 = PLANE('',#1447);
#1447 = AXIS2_PLACEMENT_3D('',#1448,#1449,#1450);
#1448 = CARTESIAN_POINT('',(-1.071428571429,1.026666666667,
    -1.071428571429));
#1449 = DIRECTION('',(0.,1.,0.));
#1450 = DIRECTION('',(0.,0.,1.));
#1451 = ADVANCED_FACE('',(#1452),#1455,.T.);
#1452 = FACE_BOUND('',#1453,.T.);
#1453 = EDGE_LOOP('',(#1454));
#1454 = ORIENTED_EDGE('',*,*,#1423,.T.);
#1455 = PLANE('',#1456);
#1456 = AXIS2_PLACEMENT_3D('',#1457,#1458,#1459);
#1457 = CARTESIAN_POINT('',(-1.071428571429,1.1,-1.071428571429));
#1458 = DIRECTION('',(0.,1.,0.));
#1459 = DIRECTION('',(0.,0.,1.));
#1460 = ( GEOMETRIC_REPRESENTATION_CONTEXT(3) 
GLOBAL_UNCERTAINTY_ASSIGNED_CONTEXT((#1464)) 
GLOBAL_UNIT_ASSIGNED_CONTEXT((#1461,#1462,#1463)) REPRESENTATION_CONTEXT
('Context #1','3D Context with UNIT and UNCERTAINTY') );
#1461 = ( LENGTH_UNIT() NAMED_UNIT(*) SI_UNIT(.MILLI.,.METRE.) );
#1462 = ( NAMED_UNIT(*) PLANE_ANGLE_UNIT() SI_UNIT($,.RADIAN.) );
#1463 = ( NAMED_UNIT(*) SI_UNIT($,.STERADIAN.) SOLID_ANGLE_UNIT() );
#1464 = UNCERTAINTY_MEASURE_WITH_UNIT(LENGTH_MEASURE(1.E-07),#1461,
  'distance_accuracy_value','confusion accuracy');
#1465 = CONTEXT_DEPENDENT_SHAPE_REPRESENTATION(#1466,#1468);
#1466 = ( REPRESENTATION_RELATIONSHIP('','',#1406,#10) 
REPRESENTATION_RELATIONSHIP_WITH_TRANSFORMATION(#1467) 
SHAPE_REPRESENTATION_RELATIONSHIP() );
#1467 = ITEM_DEFINED_TRANSFORMATION('','',#11,#27);
#1468 = PRODUCT_DEFINITION_SHAPE('Placement','Placement of an item',
  #1469);
#1469 = NEXT_ASSEMBLY_USAGE_OCCURRENCE('50566','Body003','',#5,#1401,$);
#1470 = PRODUCT_RELATED_PRODUCT_CATEGORY('part',$,(#1403));
#1471 = SHAPE_DEFINITION_REPRESENTATION(#1472,#1478);
#1472 = PRODUCT_DEFINITION_SHAPE('','',#1473);
#1473 = PRODUCT_DEFINITION('design','',#1474,#1477);
#1474 = PRODUCT_DEFINITION_FORMATION('','',#1475);
#1475 = PRODUCT('XY-plane','XY-plane','',(#1476));
#1476 = PRODUCT_CONTEXT('',#2,'mechanical');
#1477 = PRODUCT_DEFINITION_CONTEXT('part definition',#2,'design');
#1478 = MANIFOLD_SURFACE_SHAPE_REPRESENTATION('',(#11),#1479);
#1479 = ( GEOMETRIC_REPRESENTATION_CONTEXT(3) 
GLOBAL_UNCERTAINTY_ASSIGNED_CONTEXT((#1483)) 
GLOBAL_UNIT_ASSIGNED_CONTEXT((#1480,#1481,#1482)) REPRESENTATION_CONTEXT
('Context #1','3D Context with UNIT and UNCERTAINTY') );
#1480 = ( LENGTH_UNIT() NAMED_UNIT(*) SI_UNIT(.MILLI.,.METRE.) );
#1481 = ( NAMED_UNIT(*) PLANE_ANGLE_UNIT() SI_UNIT($,.RADIAN.) );
#1482 = ( NAMED_UNIT(*) SI_UNIT($,.STERADIAN.) SOLID_ANGLE_UNIT() );
#1483 = UNCERTAINTY_MEASURE_WITH_UNIT(LENGTH_MEASURE(1.E-07),#1480,
  'distance_accuracy_value','confusion accuracy');
#1484 = CONTEXT_DEPENDENT_SHAPE_REPRESENTATION(#1485,#1487);
#1485 = ( REPRESENTATION_RELATIONSHIP('','',#1478,#10) 
REPRESENTATION_RELATIONSHIP_WITH_TRANSFORMATION(#1486) 
SHAPE_REPRESENTATION_RELATIONSHIP() );
#1486 = ITEM_DEFINED_TRANSFORMATION('','',#11,#31);
#1487 = PRODUCT_DEFINITION_SHAPE('Placement','Placement of an item',
  #1488);
#1488 = NEXT_ASSEMBLY_USAGE_OCCURRENCE('50567','XY-plane','',#5,#1473,$
  );
#1489 = PRODUCT_RELATED_PRODUCT_CATEGORY('part',$,(#1475));
#1490 = CONTEXT_DEPENDENT_SHAPE_REPRESENTATION(#1491,#1493);
#1491 = ( REPRESENTATION_RELATIONSHIP('','',#1478,#10) 
REPRESENTATION_RELATIONSHIP_WITH_TRANSFORMATION(#1492) 
SHAPE_REPRESENTATION_RELATIONSHIP() );
#1492 = ITEM_DEFINED_TRANSFORMATION('','',#11,#35);
#1493 = PRODUCT_DEFINITION_SHAPE('Placement','Placement of an item',
  #1494);
#1494 = NEXT_ASSEMBLY_USAGE_OCCURRENCE('50568','XY-plane001','',#5,#1473
  ,$);
#1495 = CONTEXT_DEPENDENT_SHAPE_REPRESENTATION(#1496,#1498);
#1496 = ( REPRESENTATION_RELATIONSHIP('','',#1478,#10) 
REPRESENTATION_RELATIONSHIP_WITH_TRANSFORMATION(#1497) 
SHAPE_REPRESENTATION_RELATIONSHIP() );
#1497 = ITEM_DEFINED_TRANSFORMATION('','',#11,#39);
#1498 = PRODUCT_DEFINITION_SHAPE('Placement','Placement of an item',
  #1499);
#1499 = NEXT_ASSEMBLY_USAGE_OCCURRENCE('50569','XY-plane002','',#5,#1473
  ,$);
#1500 = CONTEXT_DEPENDENT_SHAPE_REPRESENTATION(#1501,#1503);
#1501 = ( REPRESENTATION_RELATIONSHIP('','',#1478,#10) 
REPRESENTATION_RELATIONSHIP_WITH_TRANSFORMATION(#1502) 
SHAPE_REPRESENTATION_RELATIONSHIP() );
#1502 = ITEM_DEFINED_TRANSFORMATION('','',#11,#43);
#1503 = PRODUCT_DEFINITION_SHAPE('Placement','Placement of an item',
  #1504);
#1504 = NEXT_ASSEMBLY_USAGE_OCCURRENCE('50570','XY-plane003','',#5,#1473
  ,$);
#1505 = CONTEXT_DEPENDENT_SHAPE_REPRESENTATION(#1506,#1508);
#1506 = ( REPRESENTATION_RELATIONSHIP('','',#1478,#10) 
REPRESENTATION_RELATIONSHIP_WITH_TRANSFORMATION(#1507) 
SHAPE_REPRESENTATION_RELATIONSHIP() );
#1507 = ITEM_DEFINED_TRANSFORMATION('','',#11,#47);
#1508 = PRODUCT_DEFINITION_SHAPE('Placement','Placement of an item',
  #1509);
#1509 = NEXT_ASSEMBLY_USAGE_OCCURRENCE('50571','XZ-plane','',#5,#1473,$
  );
#1510 = CONTEXT_DEPENDENT_SHAPE_REPRESENTATION(#1511,#1513);
#1511 = ( REPRESENTATION_RELATIONSHIP('','',#1478,#10) 
REPRESENTATION_RELATIONSHIP_WITH_TRANSFORMATION(#1512) 
SHAPE_REPRESENTATION_RELATIONSHIP() );
#1512 = ITEM_DEFINED_TRANSFORMATION('','',#11,#51);
#1513 = PRODUCT_DEFINITION_SHAPE('Placement','Placement of an item',
  #1514);
#1514 = NEXT_ASSEMBLY_USAGE_OCCURRENCE('50572','XZ-plane001','',#5,#1473
  ,$);
#1515 = CONTEXT_DEPENDENT_SHAPE_REPRESENTATION(#1516,#1518);
#1516 = ( REPRESENTATION_RELATIONSHIP('','',#1478,#10) 
REPRESENTATION_RELATIONSHIP_WITH_TRANSFORMATION(#1517) 
SHAPE_REPRESENTATION_RELATIONSHIP() );
#1517 = ITEM_DEFINED_TRANSFORMATION('','',#11,#55);
#1518 = PRODUCT_DEFINITION_SHAPE('Placement','Placement of an item',
  #1519);
#1519 = NEXT_ASSEMBLY_USAGE_OCCURRENCE('50573','XZ-plane002','',#5,#1473
  ,$);
#1520 = CONTEXT_DEPENDENT_SHAPE_REPRESENTATION(#1521,#1523);
#1521 = ( REPRESENTATION_RELATIONSHIP('','',#1478,#10) 
REPRESENTATION_RELATIONSHIP_WITH_TRANSFORMATION(#1522) 
SHAPE_REPRESENTATION_RELATIONSHIP() );
#1522 = ITEM_DEFINED_TRANSFORMATION('','',#11,#59);
#1523 = PRODUCT_DEFINITION_SHAPE('Placement','Placement of an item',
  #1524);
#1524 = NEXT_ASSEMBLY_USAGE_OCCURRENCE('50574','XZ-plane003','',#5,#1473
  ,$);
#1525 = SHAPE_DEFINITION_REPRESENTATION(#1526,#1532);
#1526 = PRODUCT_DEFINITION_SHAPE('','',#1527);
#1527 = PRODUCT_DEFINITION('design','',#1528,#1531);
#1528 = PRODUCT_DEFINITION_FORMATION('','',#1529);
#1529 = PRODUCT('X-axis','X-axis','',(#1530));
#1530 = PRODUCT_CONTEXT('',#2,'mechanical');
#1531 = PRODUCT_DEFINITION_CONTEXT('part definition',#2,'design');
#1532 = GEOMETRICALLY_BOUNDED_WIREFRAME_SHAPE_REPRESENTATION('',(#11,
    #1533),#1538);
#1533 = GEOMETRIC_CURVE_SET('',(#1534));
#1534 = LINE('',#1535,#1536);
#1535 = CARTESIAN_POINT('',(0.,0.,0.));
#1536 = VECTOR('',#1537,1.);
#1537 = DIRECTION('',(1.,0.,0.));
#1538 = ( GEOMETRIC_REPRESENTATION_CONTEXT(3) 
GLOBAL_UNCERTAINTY_ASSIGNED_CONTEXT((#1542)) 
GLOBAL_UNIT_ASSIGNED_CONTEXT((#1539,#1540,#1541)) REPRESENTATION_CONTEXT
('Context #1','3D Context with UNIT and UNCERTAINTY') );
#1539 = ( LENGTH_UNIT() NAMED_UNIT(*) SI_UNIT(.MILLI.,.METRE.) );
#1540 = ( NAMED_UNIT(*) PLANE_ANGLE_UNIT() SI_UNIT($,.RADIAN.) );
#1541 = ( NAMED_UNIT(*) SI_UNIT($,.STERADIAN.) SOLID_ANGLE_UNIT() );
#1542 = UNCERTAINTY_MEASURE_WITH_UNIT(LENGTH_MEASURE(1.E-07),#1539,
  'distance_accuracy_value','confusion accuracy');
#1543 = CONTEXT_DEPENDENT_SHAPE_REPRESENTATION(#1544,#1546);
#1544 = ( REPRESENTATION_RELATIONSHIP('','',#1532,#10) 
REPRESENTATION_RELATIONSHIP_WITH_TRANSFORMATION(#1545) 
SHAPE_REPRESENTATION_RELATIONSHIP() );
#1545 = ITEM_DEFINED_TRANSFORMATION('','',#11,#63);
#1546 = PRODUCT_DEFINITION_SHAPE('Placement','Placement of an item',
  #1547);
#1547 = NEXT_ASSEMBLY_USAGE_OCCURRENCE('50575','X-axis','',#5,#1527,$);
#1548 = PRODUCT_RELATED_PRODUCT_CATEGORY('part',$,(#1529));
#1549 = CONTEXT_DEPENDENT_SHAPE_REPRESENTATION(#1550,#1552);
#1550 = ( REPRESENTATION_RELATIONSHIP('','',#1532,#10) 
REPRESENTATION_RELATIONSHIP_WITH_TRANSFORMATION(#1551) 
SHAPE_REPRESENTATION_RELATIONSHIP() );
#1551 = ITEM_DEFINED_TRANSFORMATION('','',#11,#67);
#1552 = PRODUCT_DEFINITION_SHAPE('Placement','Placement of an item',
  #1553);
#1553 = NEXT_ASSEMBLY_USAGE_OCCURRENCE('50576','X-axis001','',#5,#1527,$
  );
#1554 = CONTEXT_DEPENDENT_SHAPE_REPRESENTATION(#1555,#1557);
#1555 = ( REPRESENTATION_RELATIONSHIP('','',#1532,#10) 
REPRESENTATION_RELATIONSHIP_WITH_TRANSFORMATION(#1556) 
SHAPE_REPRESENTATION_RELATIONSHIP() );
#1556 = ITEM_DEFINED_TRANSFORMATION('','',#11,#71);
#1557 = PRODUCT_DEFINITION_SHAPE('Placement','Placement of an item',
  #1558);
#1558 = NEXT_ASSEMBLY_USAGE_OCCURRENCE('50577','X-axis002','',#5,#1527,$
  );
#1559 = CONTEXT_DEPENDENT_SHAPE_REPRESENTATION(#1560,#1562);
#1560 = ( REPRESENTATION_RELATIONSHIP('','',#1532,#10) 
REPRESENTATION_RELATIONSHIP_WITH_TRANSFORMATION(#1561) 
SHAPE_REPRESENTATION_RELATIONSHIP() );
#1561 = ITEM_DEFINED_TRANSFORMATION('','',#11,#75);
#1562 = PRODUCT_DEFINITION_SHAPE('Placement','Placement of an item',
  #1563);
#1563 = NEXT_ASSEMBLY_USAGE_OCCURRENCE('50578','X-axis003','',#5,#1527,$
  );
#1564 = CONTEXT_DEPENDENT_SHAPE_REPRESENTATION(#1565,#1567);
#1565 = ( REPRESENTATION_RELATIONSHIP('','',#1478,#10) 
REPRESENTATION_RELATIONSHIP_WITH_TRANSFORMATION(#1566) 
SHAPE_REPRESENTATION_RELATIONSHIP() );
#1566 = ITEM_DEFINED_TRANSFORMATION('','',#11,#79);
#1567 = PRODUCT_DEFINITION_SHAPE('Placement','Placement of an item',
  #1568);
#1568 = NEXT_ASSEMBLY_USAGE_OCCURRENCE('50579','YZ-plane','',#5,#1473,$
  );
#1569 = CONTEXT_DEPENDENT_SHAPE_REPRESENTATION(#1570,#1572);
#1570 = ( REPRESENTATION_RELATIONSHIP('','',#1478,#10) 
REPRESENTATION_RELATIONSHIP_WITH_TRANSFORMATION(#1571) 
SHAPE_REPRESENTATION_RELATIONSHIP() );
#1571 = ITEM_DEFINED_TRANSFORMATION('','',#11,#83);
#1572 = PRODUCT_DEFINITION_SHAPE('Placement','Placement of an item',
  #1573);
#1573 = NEXT_ASSEMBLY_USAGE_OCCURRENCE('50580','YZ-plane001','',#5,#1473
  ,$);
#1574 = CONTEXT_DEPENDENT_SHAPE_REPRESENTATION(#1575,#1577);
#1575 = ( REPRESENTATION_RELATIONSHIP('','',#1478,#10) 
REPRESENTATION_RELATIONSHIP_WITH_TRANSFORMATION(#1576) 
SHAPE_REPRESENTATION_RELATIONSHIP() );
#1576 = ITEM_DEFINED_TRANSFORMATION('','',#11,#87);
#1577 = PRODUCT_DEFINITION_SHAPE('Placement','Placement of an item',
  #1578);
#1578 = NEXT_ASSEMBLY_USAGE_OCCURRENCE('50581','YZ-plane002','',#5,#1473
  ,$);
#1579 = CONTEXT_DEPENDENT_SHAPE_REPRESENTATION(#1580,#1582);
#1580 = ( REPRESENTATION_RELATIONSHIP('','',#1478,#10) 
REPRESENTATION_RELATIONSHIP_WITH_TRANSFORMATION(#1581) 
SHAPE_REPRESENTATION_RELATIONSHIP() );
#1581 = ITEM_DEFINED_TRANSFORMATION('','',#11,#91);
#1582 = PRODUCT_DEFINITION_SHAPE('Placement','Placement of an item',
  #1583);
#1583 = NEXT_ASSEMBLY_USAGE_OCCURRENCE('50582','YZ-plane003','',#5,#1473
  ,$);
#1584 = CONTEXT_DEPENDENT_SHAPE_REPRESENTATION(#1585,#1587);
#1585 = ( REPRESENTATION_RELATIONSHIP('','',#1532,#10) 
REPRESENTATION_RELATIONSHIP_WITH_TRANSFORMATION(#1586) 
SHAPE_REPRESENTATION_RELATIONSHIP() );
#1586 = ITEM_DEFINED_TRANSFORMATION('','',#11,#95);
#1587 = PRODUCT_DEFINITION_SHAPE('Placement','Placement of an item',
  #1588);
#1588 = NEXT_ASSEMBLY_USAGE_OCCURRENCE('50583','Y-axis','',#5,#1527,$);
#1589 = CONTEXT_DEPENDENT_SHAPE_REPRESENTATION(#1590,#1592);
#1590 = ( REPRESENTATION_RELATIONSHIP('','',#1532,#10) 
REPRESENTATION_RELATIONSHIP_WITH_TRANSFORMATION(#1591) 
SHAPE_REPRESENTATION_RELATIONSHIP() );
#1591 = ITEM_DEFINED_TRANSFORMATION('','',#11,#99);
#1592 = PRODUCT_DEFINITION_SHAPE('Placement','Placement of an item',
  #1593);
#1593 = NEXT_ASSEMBLY_USAGE_OCCURRENCE('50584','Y-axis001','',#5,#1527,$
  );
#1594 = CONTEXT_DEPENDENT_SHAPE_REPRESENTATION(#1595,#1597);
#1595 = ( REPRESENTATION_RELATIONSHIP('','',#1532,#10) 
REPRESENTATION_RELATIONSHIP_WITH_TRANSFORMATION(#1596) 
SHAPE_REPRESENTATION_RELATIONSHIP() );
#1596 = ITEM_DEFINED_TRANSFORMATION('','',#11,#103);
#1597 = PRODUCT_DEFINITION_SHAPE('Placement','Placement of an item',
  #1598);
#1598 = NEXT_ASSEMBLY_USAGE_OCCURRENCE('50585','Y-axis002','',#5,#1527,$
  );
#1599 = CONTEXT_DEPENDENT_SHAPE_REPRESENTATION(#1600,#1602);
#1600 = ( REPRESENTATION_RELATIONSHIP('','',#1532,#10) 
REPRESENTATION_RELATIONSHIP_WITH_TRANSFORMATION(#1601) 
SHAPE_REPRESENTATION_RELATIONSHIP() );
#1601 = ITEM_DEFINED_TRANSFORMATION('','',#11,#107);
#1602 = PRODUCT_DEFINITION_SHAPE('Placement','Placement of an item',
  #1603);
#1603 = NEXT_ASSEMBLY_USAGE_OCCURRENCE('50586','Y-axis003','',#5,#1527,$
  );
#1604 = CONTEXT_DEPENDENT_SHAPE_REPRESENTATION(#1605,#1607);
#1605 = ( REPRESENTATION_RELATIONSHIP('','',#1532,#10) 
REPRESENTATION_RELATIONSHIP_WITH_TRANSFORMATION(#1606) 
SHAPE_REPRESENTATION_RELATIONSHIP() );
#1606 = ITEM_DEFINED_TRANSFORMATION('','',#11,#111);
#1607 = PRODUCT_DEFINITION_SHAPE('Placement','Placement of an item',
  #1608);
#1608 = NEXT_ASSEMBLY_USAGE_OCCURRENCE('50587','Z-axis','',#5,#1527,$);
#1609 = CONTEXT_DEPENDENT_SHAPE_REPRESENTATION(#1610,#1612);
#1610 = ( REPRESENTATION_RELATIONSHIP('','',#1532,#10) 
REPRESENTATION_RELATIONSHIP_WITH_TRANSFORMATION(#1611) 
SHAPE_REPRESENTATION_RELATIONSHIP() );
#1611 = ITEM_DEFINED_TRANSFORMATION('','',#11,#115);
#1612 = PRODUCT_DEFINITION_SHAPE('Placement','Placement of an item',
  #1613);
#1613 = NEXT_ASSEMBLY_USAGE_OCCURRENCE('50588','Z-axis001','',#5,#1527,$
  );
#1614 = CONTEXT_DEPENDENT_SHAPE_REPRESENTATION(#1615,#1617);
#1615 = ( REPRESENTATION_RELATIONSHIP('','',#1532,#10) 
REPRESENTATION_RELATIONSHIP_WITH_TRANSFORMATION(#1616) 
SHAPE_REPRESENTATION_RELATIONSHIP() );
#1616 = ITEM_DEFINED_TRANSFORMATION('','',#11,#119);
#1617 = PRODUCT_DEFINITION_SHAPE('Placement','Placement of an item',
  #1618);
#1618 = NEXT_ASSEMBLY_USAGE_OCCURRENCE('50589','Z-axis002','',#5,#1527,$
  );
#1619 = CONTEXT_DEPENDENT_SHAPE_REPRESENTATION(#1620,#1622);
#1620 = ( REPRESENTATION_RELATIONSHIP('','',#1532,#10) 
REPRESENTATION_RELATIONSHIP_WITH_TRANSFORMATION(#1621) 
SHAPE_REPRESENTATION_RELATIONSHIP() );
#1621 = ITEM_DEFINED_TRANSFORMATION('','',#11,#123);
#1622 = PRODUCT_DEFINITION_SHAPE('Placement','Placement of an item',
  #1623);
#1623 = NEXT_ASSEMBLY_USAGE_OCCURRENCE('50590','Z-axis003','',#5,#1527,$
  );
#1624 = MECHANICAL_DESIGN_GEOMETRIC_PRESENTATION_REPRESENTATION('',(
    #1625),#1388);
#1625 = STYLED_ITEM('color',(#1626),#1001);
#1626 = PRESENTATION_STYLE_ASSIGNMENT((#1627,#1633));
#1627 = SURFACE_STYLE_USAGE(.BOTH.,#1628);
#1628 = SURFACE_SIDE_STYLE('',(#1629));
#1629 = SURFACE_STYLE_FILL_AREA(#1630);
#1630 = FILL_AREA_STYLE('',(#1631));
#1631 = FILL_AREA_STYLE_COLOUR('',#1632);
#1632 = COLOUR_RGB('',0.250980406631,0.250980406631,0.250980406631);
#1633 = CURVE_STYLE('',#1634,POSITIVE_LENGTH_MEASURE(0.1),#1635);
#1634 = DRAUGHTING_PRE_DEFINED_CURVE_FONT('continuous');
#1635 = COLOUR_RGB('',9.803921802644E-02,9.803921802644E-02,
  9.803921802644E-02);
#1636 = MECHANICAL_DESIGN_GEOMETRIC_PRESENTATION_REPRESENTATION('',(
    #1637),#1460);
#1637 = STYLED_ITEM('color',(#1638),#1407);
#1638 = PRESENTATION_STYLE_ASSIGNMENT((#1639,#1645));
#1639 = SURFACE_STYLE_USAGE(.BOTH.,#1640);
#1640 = SURFACE_SIDE_STYLE('',(#1641));
#1641 = SURFACE_STYLE_FILL_AREA(#1642);
#1642 = FILL_AREA_STYLE('',(#1643));
#1643 = FILL_AREA_STYLE_COLOUR('',#1644);
#1644 = DRAUGHTING_PRE_DEFINED_COLOUR('white');
#1645 = CURVE_STYLE('',#1646,POSITIVE_LENGTH_MEASURE(0.1),#1644);
#1646 = DRAUGHTING_PRE_DEFINED_CURVE_FONT('continuous');
#1647 = MECHANICAL_DESIGN_GEOMETRIC_PRESENTATION_REPRESENTATION('',(
    #1648),#962);
#1648 = STYLED_ITEM('color',(#1649),#610);
#1649 = PRESENTATION_STYLE_ASSIGNMENT((#1650,#1656));
#1650 = SURFACE_STYLE_USAGE(.BOTH.,#1651);
#1651 = SURFACE_SIDE_STYLE('',(#1652));
#1652 = SURFACE_STYLE_FILL_AREA(#1653);
#1653 = FILL_AREA_STYLE('',(#1654));
#1654 = FILL_AREA_STYLE_COLOUR('',#1655);
#1655 = COLOUR_RGB('',0.800000010877,0.800000010877,0.800000010877);
#1656 = CURVE_STYLE('',#1657,POSITIVE_LENGTH_MEASURE(0.1),#1635);
#1657 = DRAUGHTING_PRE_DEFINED_CURVE_FONT('continuous');
#1658 = MECHANICAL_DESIGN_GEOMETRIC_PRESENTATION_REPRESENTATION('',(
    #1659),#532);
#1659 = STYLED_ITEM('color',(#1660),#180);
#1660 = PRESENTATION_STYLE_ASSIGNMENT((#1661,#1666));
#1661 = SURFACE_STYLE_USAGE(.BOTH.,#1662);
#1662 = SURFACE_SIDE_STYLE('',(#1663));
#1663 = SURFACE_STYLE_FILL_AREA(#1664);
#1664 = FILL_AREA_STYLE('',(#1665));
#1665 = FILL_AREA_STYLE_COLOUR('',#1655);
#1666 = CURVE_STYLE('',#1667,POSITIVE_LENGTH_MEASURE(0.1),#1635);
#1667 = DRAUGHTING_PRE_DEFINED_CURVE_FONT('continuous');
ENDSEC;
END-ISO-10303-21;
