ISO-10303-21;
HEADER;
FILE_DESCRIPTION (( 'STEP AP214' ),
    '1' );
FILE_NAME ('PA4340.103NLT.STEP',
    '2019-05-14T11:05:55',
    ( '' ),
    ( '' ),
    'SwSTEP 2.0',
    'SolidWorks 2017',
    '' );
FILE_SCHEMA (( 'AUTOMOTIVE_DESIGN' ));
ENDSEC;

DATA;
#1 = VECTOR ( 'NONE', #969, 1000.000000000000000 ) ;
#2 = AXIS2_PLACEMENT_3D ( 'NONE', #712, #1220, #909 ) ;
#3 = DIRECTION ( 'NONE',  ( -0.0000000000000000000, -1.000000000000000000, -1.500458363707617900E-016 ) ) ;
#4 = EDGE_CURVE ( 'NONE', #192, #277, #92, .T. ) ;
#5 = ORIENTED_EDGE ( 'NONE', *, *, #125, .F. ) ;
#6 = CARTESIAN_POINT ( 'NONE',  ( 0.8158443170159626100, 0.1000000000000001600, -1.541947808078634600 ) ) ;
#7 = VERTEX_POINT ( 'NONE', #1137 ) ;
#8 = CARTESIAN_POINT ( 'NONE',  ( -0.7500000000000000000, 0.1999999999999993200, -2.799999999999999800 ) ) ;
#9 = CARTESIAN_POINT ( 'NONE',  ( 2.700000000000000200, 0.09999999999999950600, 2.799999999999998900 ) ) ;
#10 = ORIENTED_EDGE ( 'NONE', *, *, #763, .T. ) ;
#11 = DIRECTION ( 'NONE',  ( 0.0000000000000000000, -3.355863867217036200E-016, 1.000000000000000000 ) ) ;
#12 = LINE ( 'NONE', #182, #347 ) ;
#13 = ORIENTED_EDGE ( 'NONE', *, *, #313, .F. ) ;
#14 = ORIENTED_EDGE ( 'NONE', *, *, #1090, .T. ) ;
#15 = EDGE_CURVE ( 'NONE', #1135, #943, #635, .T. ) ;
#16 = DIRECTION ( 'NONE',  ( 1.000000000000000000, 0.0000000000000000000, -6.187055985601862100E-016 ) ) ;
#17 = CARTESIAN_POINT ( 'NONE',  ( 2.500000000000000000, 2.999999999999999600, 2.799999999999999400 ) ) ;
#18 = ORIENTED_EDGE ( 'NONE', *, *, #567, .F. ) ;
#19 = ORIENTED_EDGE ( 'NONE', *, *, #386, .T. ) ;
#20 = VECTOR ( 'NONE', #252, 1000.000000000000000 ) ;
#21 = DIRECTION ( 'NONE',  ( 0.0000000000000000000, 0.0000000000000000000, -1.000000000000000000 ) ) ;
#22 = ORIENTED_EDGE ( 'NONE', *, *, #682, .T. ) ;
#23 = AXIS2_PLACEMENT_3D ( 'NONE', #1064, #861, #449 ) ;
#24 = ADVANCED_FACE ( 'NONE', ( #1021 ), #445, .F. ) ;
#25 = CARTESIAN_POINT ( 'NONE',  ( -0.8158443170159626100, 0.1000000000000001600, -1.541947808078635500 ) ) ;
#26 = DIRECTION ( 'NONE',  ( 0.0000000000000000000, 0.0000000000000000000, 1.000000000000000000 ) ) ;
#27 = CARTESIAN_POINT ( 'NONE',  ( -2.499999999999997800, 0.1000000000000003400, -2.800000000000000700 ) ) ;
#28 = PLANE ( 'NONE',  #1143 ) ;
#29 = LINE ( 'NONE', #46, #556 ) ;
#30 = AXIS2_PLACEMENT_3D ( 'NONE', #433, #231, #522 ) ;
#31 = FACE_OUTER_BOUND ( 'NONE', #954, .T. ) ;
#32 = ORIENTED_EDGE ( 'NONE', *, *, #155, .F. ) ;
#33 = CARTESIAN_POINT ( 'NONE',  ( -0.8158443170159626100, 3.000000000000000400, -2.800000000000000300 ) ) ;
#34 = EDGE_CURVE ( 'NONE', #1083, #1024, #487, .T. ) ;
#35 = DIRECTION ( 'NONE',  ( -1.000000000000000000, -0.0000000000000000000, -0.0000000000000000000 ) ) ;
#36 = EDGE_LOOP ( 'NONE', ( #1020, #1125, #177, #970, #660, #1051, #293, #387, #1212, #872, #745, #51, #1139, #471, #545, #376, #486, #351, #597, #359 ) ) ;
#37 = LINE ( 'NONE', #9, #1127 ) ;
#38 = CARTESIAN_POINT ( 'NONE',  ( 0.7500000000000000000, 0.1999999999999993400, 2.999999999999999600 ) ) ;
#39 = CLOSED_SHELL ( 'NONE', ( #326, #542, #1120, #174, #24, #49, #1174, #270, #1080, #674, #1155, #168, #423, #574, #181, #452, #868, #933, #752, #319, #332, #1222 ) ) ;
#40 = DIRECTION ( 'NONE',  ( 0.0000000000000000000, -1.000000000000000000, -1.495451272393799300E-016 ) ) ;
#41 = AXIS2_PLACEMENT_3D ( 'NONE', #1205, #1029, #608 ) ;
#42 = VECTOR ( 'NONE', #172, 1000.000000000000000 ) ;
#43 = VERTEX_POINT ( 'NONE', #265 ) ;
#44 = EDGE_LOOP ( 'NONE', ( #369, #120, #666, #152 ) ) ;
#45 = EDGE_LOOP ( 'NONE', ( #309, #142, #1092, #5, #1256, #1257, #834 ) ) ;
#46 = CARTESIAN_POINT ( 'NONE',  ( -2.499999999999999600, 0.09999999999999936700, 2.799999999999998900 ) ) ;
#47 = VECTOR ( 'NONE', #551, 1000.000000000000000 ) ;
#48 = CARTESIAN_POINT ( 'NONE',  ( 0.8158443170159626100, 2.999999999999999600, 2.799999999999999400 ) ) ;
#49 = ADVANCED_FACE ( 'NONE', ( #976 ), #453, .T. ) ;
#50 = EDGE_CURVE ( 'NONE', #346, #1219, #1249, .T. ) ;
#51 = ORIENTED_EDGE ( 'NONE', *, *, #562, .T. ) ;
#52 = SURFACE_SIDE_STYLE ('',( #733 ) ) ;
#53 = VECTOR ( 'NONE', #809, 1000.000000000000000 ) ;
#54 = LINE ( 'NONE', #333, #790 ) ;
#55 = FACE_OUTER_BOUND ( 'NONE', #214, .T. ) ;
#56 = VERTEX_POINT ( 'NONE', #1065 ) ;
#57 = CIRCLE ( 'NONE', #925, 0.2000000000000000900 ) ;
#58 = ORIENTED_EDGE ( 'NONE', *, *, #546, .T. ) ;
#59 = DIRECTION ( 'NONE',  ( 0.0000000000000000000, 1.000000000000000000, 0.0000000000000000000 ) ) ;
#60 = FACE_OUTER_BOUND ( 'NONE', #390, .T. ) ;
#61 = MANIFOLD_SOLID_BREP ( 'Mirror1', #987 ) ;
#62 = CARTESIAN_POINT ( 'NONE',  ( 0.0000000000000000000, 0.0000000000000000000, 0.0000000000000000000 ) ) ;
#63 = PRESENTATION_STYLE_ASSIGNMENT (( #570 ) ) ;
#64 = AXIS2_PLACEMENT_3D ( 'NONE', #759, #1081, #485 ) ;
#65 = CARTESIAN_POINT ( 'NONE',  ( -0.8158443170159626100, 2.999999999999999600, 2.799999999999999400 ) ) ;
#66 = EDGE_CURVE ( 'NONE', #1089, #7, #189, .T. ) ;
#67 = FACE_OUTER_BOUND ( 'NONE', #378, .T. ) ;
#68 = VERTEX_POINT ( 'NONE', #863 ) ;
#69 = EDGE_CURVE ( 'NONE', #304, #738, #154, .T. ) ;
#70 = CARTESIAN_POINT ( 'NONE',  ( 2.700000000000000200, 3.000000000000000400, -2.600000000000000500 ) ) ;
#71 = ORIENTED_EDGE ( 'NONE', *, *, #999, .T. ) ;
#72 = CARTESIAN_POINT ( 'NONE',  ( 0.7500000000000000000, -3.523657060577889400E-016, 2.799999999999999800 ) ) ;
#73 = CIRCLE ( 'NONE', #853, 0.1148956428752446300 ) ;
#74 = EDGE_CURVE ( 'NONE', #1209, #662, #281, .T. ) ;
#75 = ADVANCED_BREP_SHAPE_REPRESENTATION ( 'PA4340.103NLT', ( #1201, #871, #61, #725 ), #407 ) ;
#76 = VECTOR ( 'NONE', #1044, 1000.000000000000000 ) ;
#77 =( NAMED_UNIT ( * ) PLANE_ANGLE_UNIT ( ) SI_UNIT ( $, .RADIAN. ) );
#78 = DIRECTION ( 'NONE',  ( 0.0000000000000000000, 0.0000000000000000000, -1.000000000000000000 ) ) ;
#79 = CARTESIAN_POINT ( 'NONE',  ( 0.7500000000000000000, 0.1999999999999993200, -2.799999999999999800 ) ) ;
#80 = ORIENTED_EDGE ( 'NONE', *, *, #34, .T. ) ;
#81 = EDGE_CURVE ( 'NONE', #633, #1015, #601, .T. ) ;
#82 = PLANE ( 'NONE',  #398 ) ;
#83 =( NAMED_UNIT ( * ) PLANE_ANGLE_UNIT ( ) SI_UNIT ( $, .RADIAN. ) );
#84 = CIRCLE ( 'NONE', #374, 0.1999999999999992300 ) ;
#85 = EDGE_LOOP ( 'NONE', ( #1186, #568, #808, #88 ) ) ;
#86 = CARTESIAN_POINT ( 'NONE',  ( -0.7009486741407179300, 0.1000000000000001400, -1.427052165203391000 ) ) ;
#87 = EDGE_CURVE ( 'NONE', #1135, #163, #505, .T. ) ;
#88 = ORIENTED_EDGE ( 'NONE', *, *, #279, .F. ) ;
#89 = DIRECTION ( 'NONE',  ( 0.0000000000000000000, 0.0000000000000000000, 1.000000000000000000 ) ) ;
#90 = LINE ( 'NONE', #512, #946 ) ;
#91 = CARTESIAN_POINT ( 'NONE',  ( -2.499999999999999600, 0.09999999999999939500, 2.599999999999999200 ) ) ;
#92 = LINE ( 'NONE', #839, #76 ) ;
#93 = CARTESIAN_POINT ( 'NONE',  ( 2.500000000000000000, 3.888173308223879500E-016, -2.600000000000000500 ) ) ;
#94 = EDGE_CURVE ( 'NONE', #254, #43, #246, .T. ) ;
#95 = SURFACE_STYLE_USAGE ( .BOTH. , #697 ) ;
#96 = CARTESIAN_POINT ( 'NONE',  ( -0.7500000000000000000, 0.1999999999999993200, 2.799999999999999800 ) ) ;
#97 = CARTESIAN_POINT ( 'NONE',  ( -0.8158443170159626100, 0.1999999999999992300, 3.000000000000000000 ) ) ;
#98 = PRODUCT_RELATED_PRODUCT_CATEGORY ( 'part', '', ( #289 ) ) ;
#99 = ORIENTED_EDGE ( 'NONE', *, *, #1171, .F. ) ;
#100 = CARTESIAN_POINT ( 'NONE',  ( 0.7500000000000000000, -3.523657060577889400E-016, -2.799999999999999800 ) ) ;
#101 = LINE ( 'NONE', #48, #968 ) ;
#102 = CARTESIAN_POINT ( 'NONE',  ( 0.7500000000000000000, 0.1999999999999993200, -2.799999999999999800 ) ) ;
#103 = VERTEX_POINT ( 'NONE', #164 ) ;
#104 = COLOUR_RGB ( '',0.2509803921568627400, 0.2509803921568627400, 0.2509803921568627400 ) ;
#105 = DIRECTION ( 'NONE',  ( 0.0000000000000000000, 1.179551009674434500E-016, -1.000000000000000000 ) ) ;
#106 = EDGE_LOOP ( 'NONE', ( #773, #587, #114, #337 ) ) ;
#107 = ORIENTED_EDGE ( 'NONE', *, *, #618, .T. ) ;
#108 = CARTESIAN_POINT ( 'NONE',  ( 0.8158443170159626100, 2.466400822762891700, -2.999999999999997300 ) ) ;
#109 = DIRECTION ( 'NONE',  ( -0.0000000000000000000, 1.000000000000000000, -4.336808689942017700E-016 ) ) ;
#110 = LINE ( 'NONE', #233, #389 ) ;
#111 = PRESENTATION_LAYER_ASSIGNMENT (  '', '', ( #537 ) ) ;
#112 = VECTOR ( 'NONE', #59, 1000.000000000000000 ) ;
#113 = CARTESIAN_POINT ( 'NONE',  ( -0.7009486741407179300, 0.1000000000000001600, -1.541947808078635500 ) ) ;
#114 = ORIENTED_EDGE ( 'NONE', *, *, #1048, .F. ) ;
#115 = DIRECTION ( 'NONE',  ( -0.0000000000000000000, 0.0000000000000000000, -1.000000000000000000 ) ) ;
#116 = DIRECTION ( 'NONE',  ( -1.000000000000000000, -0.0000000000000000000, -0.0000000000000000000 ) ) ;
#117 = PLANE ( 'NONE',  #960 ) ;
#118 = CARTESIAN_POINT ( 'NONE',  ( 0.7500000000000000000, 0.1999999999999993400, -2.999999999999999600 ) ) ;
#119 = EDGE_CURVE ( 'NONE', #1060, #735, #372, .T. ) ;
#120 = ORIENTED_EDGE ( 'NONE', *, *, #763, .F. ) ;
#121 = CARTESIAN_POINT ( 'NONE',  ( 2.700000000000000200, 2.999999999999999600, 2.600000000000000100 ) ) ;
#122 = UNCERTAINTY_MEASURE_WITH_UNIT (LENGTH_MEASURE( 1.000000000000000100E-005 ), #820, 'distance_accuracy_value', 'NONE');
#123 = LINE ( 'NONE', #1114, #1266 ) ;
#124 = ORIENTED_EDGE ( 'NONE', *, *, #1239, .T. ) ;
#125 = EDGE_CURVE ( 'NONE', #68, #648, #616, .T. ) ;
#126 = DIRECTION ( 'NONE',  ( -1.000000000000000000, 0.0000000000000000000, 0.0000000000000000000 ) ) ;
#127 = LINE ( 'NONE', #821, #1157 ) ;
#128 = CARTESIAN_POINT ( 'NONE',  ( 2.700000000000000200, 2.999999999999999600, 2.799999999999999400 ) ) ;
#129 = LINE ( 'NONE', #1272, #884 ) ;
#130 = ORIENTED_EDGE ( 'NONE', *, *, #150, .F. ) ;
#131 = CARTESIAN_POINT ( 'NONE',  ( 2.700000000000000200, 0.1000000000000003100, -2.600000000000000500 ) ) ;
#132 = VERTEX_POINT ( 'NONE', #178 ) ;
#133 = VECTOR ( 'NONE', #518, 1000.000000000000000 ) ;
#134 = FILL_AREA_STYLE ('',( #913 ) ) ;
#135 = ORIENTED_EDGE ( 'NONE', *, *, #1017, .T. ) ;
#136 = ORIENTED_EDGE ( 'NONE', *, *, #1273, .T. ) ;
#137 = CARTESIAN_POINT ( 'NONE',  ( -0.7500000000000000000, 0.1999999999999993400, -2.999999999999999600 ) ) ;
#138 = DIRECTION ( 'NONE',  ( 0.0000000000000000000, -1.000000000000000000, 0.0000000000000000000 ) ) ;
#139 = EDGE_LOOP ( 'NONE', ( #1160, #32, #951, #1172 ) ) ;
#140 = CARTESIAN_POINT ( 'NONE',  ( 0.7500000000000000000, 0.0000000000000000000, -1.749999999999999600 ) ) ;
#141 = CARTESIAN_POINT ( 'NONE',  ( 2.700000000000000200, -3.888173308223876500E-016, 2.599999999999999200 ) ) ;
#142 = ORIENTED_EDGE ( 'NONE', *, *, #357, .F. ) ;
#143 = CARTESIAN_POINT ( 'NONE',  ( 0.7500000000000000000, 0.9999999999999997800, -2.799999999999999800 ) ) ;
#144 = AXIS2_PLACEMENT_3D ( 'NONE', #213, #498, #1194 ) ;
#145 = FACE_OUTER_BOUND ( 'NONE', #1096, .T. ) ;
#146 = UNCERTAINTY_MEASURE_WITH_UNIT (LENGTH_MEASURE( 1.000000000000000100E-005 ), #764, 'distance_accuracy_value', 'NONE');
#147 = ORIENTED_EDGE ( 'NONE', *, *, #259, .T. ) ;
#148 = CARTESIAN_POINT ( 'NONE',  ( 0.8158443170159626100, 0.1999999999999992300, 2.799999999999998900 ) ) ;
#149 = VECTOR ( 'NONE', #396, 1000.000000000000000 ) ;
#150 = EDGE_CURVE ( 'NONE', #843, #500, #566, .T. ) ;
#151 = PLANE ( 'NONE',  #1109 ) ;
#152 = ORIENTED_EDGE ( 'NONE', *, *, #299, .T. ) ;
#153 = FACE_OUTER_BOUND ( 'NONE', #873, .T. ) ;
#154 = LINE ( 'NONE', #667, #1177 ) ;
#155 = EDGE_CURVE ( 'NONE', #68, #540, #1071, .T. ) ;
#156 = ORIENTED_EDGE ( 'NONE', *, *, #66, .F. ) ;
#157 = CARTESIAN_POINT ( 'NONE',  ( 2.700000000000000200, 0.0000000000000000000, 0.0000000000000000000 ) ) ;
#158 = EDGE_CURVE ( 'NONE', #280, #1131, #1100, .T. ) ;
#159 = CARTESIAN_POINT ( 'NONE',  ( 2.700000000000000200, 3.000000000000000400, -2.800000000000000300 ) ) ;
#160 = ORIENTED_EDGE ( 'NONE', *, *, #155, .T. ) ;
#161 = DIRECTION ( 'NONE',  ( 0.0000000000000000000, 1.000000000000000000, 4.336808689942017700E-016 ) ) ;
#162 = AXIS2_PLACEMENT_3D ( 'NONE', #1126, #1046, #247 ) ;
#163 = VERTEX_POINT ( 'NONE', #1070 ) ;
#164 = CARTESIAN_POINT ( 'NONE',  ( 0.7009486741407181500, 0.1999999999999992300, 1.427052165203390100 ) ) ;
#165 = VERTEX_POINT ( 'NONE', #555 ) ;
#166 = EDGE_CURVE ( 'NONE', #318, #192, #974, .T. ) ;
#167 = EDGE_LOOP ( 'NONE', ( #1184, #1262, #1068, #905 ) ) ;
#168 = ADVANCED_FACE ( 'NONE', ( #1234 ), #656, .F. ) ;
#169 = VECTOR ( 'NONE', #792, 1000.000000000000000 ) ;
#170 = DIRECTION ( 'NONE',  ( -1.000000000000000000, -0.0000000000000000000, 0.0000000000000000000 ) ) ;
#171 = ORIENTED_EDGE ( 'NONE', *, *, #785, .T. ) ;
#172 = DIRECTION ( 'NONE',  ( -0.0000000000000000000, 1.000000000000000000, -0.0000000000000000000 ) ) ;
#173 = ORIENTED_EDGE ( 'NONE', *, *, #238, .F. ) ;
#174 = ADVANCED_FACE ( 'NONE', ( #245 ), #285, .F. ) ;
#175 = EDGE_CURVE ( 'NONE', #735, #56, #323, .T. ) ;
#176 = DIRECTION ( 'NONE',  ( 0.0000000000000000000, -1.000000000000000000, -1.495451272393799300E-016 ) ) ;
#177 = ORIENTED_EDGE ( 'NONE', *, *, #315, .T. ) ;
#178 = CARTESIAN_POINT ( 'NONE',  ( -2.700000000000000200, 3.000000000000000400, -2.600000000000000500 ) ) ;
#179 = SURFACE_STYLE_FILL_AREA ( #134 ) ;
#180 = LINE ( 'NONE', #1010, #1198 ) ;
#181 = ADVANCED_FACE ( 'NONE', ( #458 ), #478, .F. ) ;
#182 = CARTESIAN_POINT ( 'NONE',  ( 0.8158443170159626100, 0.09999999999999947800, 2.999999999999997800 ) ) ;
#183 = EDGE_LOOP ( 'NONE', ( #429, #395, #243, #945 ) ) ;
#184 = DIRECTION ( 'NONE',  ( -1.000000000000000000, -0.0000000000000000000, -0.0000000000000000000 ) ) ;
#185 = VECTOR ( 'NONE', #771, 1000.000000000000000 ) ;
#186 = ORIENTED_EDGE ( 'NONE', *, *, #74, .F. ) ;
#187 = CARTESIAN_POINT ( 'NONE',  ( 0.7500000000000000000, 0.0000000000000000000, 1.749999999999999600 ) ) ;
#188 = VECTOR ( 'NONE', #204, 1000.000000000000000 ) ;
#189 = LINE ( 'NONE', #459, #47 ) ;
#190 = DIRECTION ( 'NONE',  ( 0.0000000000000000000, 1.000000000000000000, 0.0000000000000000000 ) ) ;
#191 = DIRECTION ( 'NONE',  ( 1.000000000000000000, 0.0000000000000000000, 0.0000000000000000000 ) ) ;
#192 = VERTEX_POINT ( 'NONE', #288 ) ;
#193 = VERTEX_POINT ( 'NONE', #397 ) ;
#194 = AXIS2_PLACEMENT_3D ( 'NONE', #248, #329, #437 ) ;
#195 = CARTESIAN_POINT ( 'NONE',  ( -0.8158443170159626100, 0.1999999999999992300, -2.800000000000000700 ) ) ;
#196 = ORIENTED_EDGE ( 'NONE', *, *, #158, .F. ) ;
#197 = CIRCLE ( 'NONE', #691, 0.1148956428752446300 ) ;
#198 = ORIENTED_EDGE ( 'NONE', *, *, #343, .T. ) ;
#199 = CARTESIAN_POINT ( 'NONE',  ( -0.7500000000000000000, 0.9999999999999997800, 2.799999999999999800 ) ) ;
#200 = VECTOR ( 'NONE', #1207, 1000.000000000000000 ) ;
#201 = EDGE_CURVE ( 'NONE', #1219, #992, #862, .T. ) ;
#202 = DIRECTION ( 'NONE',  ( 0.0000000000000000000, -1.500458363707617900E-016, 1.000000000000000000 ) ) ;
#203 = DIRECTION ( 'NONE',  ( -1.000000000000000000, -0.0000000000000000000, -0.0000000000000000000 ) ) ;
#204 = DIRECTION ( 'NONE',  ( 0.0000000000000000000, 0.0000000000000000000, 1.000000000000000000 ) ) ;
#205 = ORIENTED_EDGE ( 'NONE', *, *, #899, .F. ) ;
#206 = FACE_OUTER_BOUND ( 'NONE', #709, .T. ) ;
#207 = FACE_OUTER_BOUND ( 'NONE', #183, .T. ) ;
#208 = VERTEX_POINT ( 'NONE', #1202 ) ;
#209 = CARTESIAN_POINT ( 'NONE',  ( -0.8158443170159626100, 0.1999999999999992300, -2.999999999999999100 ) ) ;
#210 = CYLINDRICAL_SURFACE ( 'NONE', #23, 0.2000000000000000900 ) ;
#211 = VERTEX_POINT ( 'NONE', #612 ) ;
#212 = VECTOR ( 'NONE', #827, 1000.000000000000000 ) ;
#213 = CARTESIAN_POINT ( 'NONE',  ( -0.7009486741407179300, 2.466400822762891300, 1.427052165203391400 ) ) ;
#214 = EDGE_LOOP ( 'NONE', ( #198, #1153, #130, #10 ) ) ;
#215 = EDGE_CURVE ( 'NONE', #1060, #684, #706, .T. ) ;
#216 = CARTESIAN_POINT ( 'NONE',  ( 0.7500000000000000000, 0.1999999999999993200, 2.799999999999999800 ) ) ;
#217 = ORIENTED_EDGE ( 'NONE', *, *, #747, .T. ) ;
#218 = EDGE_CURVE ( 'NONE', #1089, #280, #673, .T. ) ;
#219 = CIRCLE ( 'NONE', #1163, 0.1999999999999996500 ) ;
#220 = CARTESIAN_POINT ( 'NONE',  ( 0.7009486741407179300, 0.1000000000000001400, -1.427052165203390100 ) ) ;
#221 = ORIENTED_EDGE ( 'NONE', *, *, #150, .T. ) ;
#222 = VERTEX_POINT ( 'NONE', #405 ) ;
#223 = CIRCLE ( 'NONE', #817, 0.2000000000000000900 ) ;
#224 = DIRECTION ( 'NONE',  ( 0.0000000000000000000, 0.0000000000000000000, -1.000000000000000000 ) ) ;
#225 = MECHANICAL_DESIGN_GEOMETRIC_PRESENTATION_REPRESENTATION (  '', ( #537 ), #1117 ) ;
#226 = DIRECTION ( 'NONE',  ( 0.0000000000000000000, 0.0000000000000000000, -1.000000000000000000 ) ) ;
#227 = ORIENTED_EDGE ( 'NONE', *, *, #756, .F. ) ;
#228 = EDGE_CURVE ( 'NONE', #1149, #163, #90, .T. ) ;
#229 = DIRECTION ( 'NONE',  ( -1.000000000000000000, 0.0000000000000000000, 6.187055985601862100E-016 ) ) ;
#230 = CARTESIAN_POINT ( 'NONE',  ( 0.7009486741407179300, 0.1999999999999992300, 1.541947808078634600 ) ) ;
#231 = DIRECTION ( 'NONE',  ( 0.0000000000000000000, -1.000000000000000000, -1.495451272393799300E-016 ) ) ;
#232 = SURFACE_STYLE_USAGE ( .BOTH. , #707 ) ;
#233 = CARTESIAN_POINT ( 'NONE',  ( 0.7500000000000000000, 0.1999999999999993200, -2.799999999999999800 ) ) ;
#234 = AXIS2_PLACEMENT_3D ( 'NONE', #409, #1119, #443 ) ;
#235 = DIRECTION ( 'NONE',  ( -0.0000000000000000000, 1.000000000000000000, 3.355863867217036200E-016 ) ) ;
#236 = DIRECTION ( 'NONE',  ( -1.000000000000000000, -0.0000000000000000000, -0.0000000000000000000 ) ) ;
#237 = PLANE ( 'NONE',  #1152 ) ;
#238 = EDGE_CURVE ( 'NONE', #633, #165, #37, .T. ) ;
#239 = DIRECTION ( 'NONE',  ( 0.0000000000000000000, 1.000000000000000000, 1.495451272393799300E-016 ) ) ;
#240 = LINE ( 'NONE', #344, #727 ) ;
#241 = ORIENTED_EDGE ( 'NONE', *, *, #1216, .F. ) ;
#242 = LINE ( 'NONE', #1000, #149 ) ;
#243 = ORIENTED_EDGE ( 'NONE', *, *, #408, .F. ) ;
#244 = CARTESIAN_POINT ( 'NONE',  ( 2.500000000000000000, 2.999999999999999600, 2.599999999999999600 ) ) ;
#245 = FACE_OUTER_BOUND ( 'NONE', #1106, .T. ) ;
#246 = LINE ( 'NONE', #260, #1260 ) ;
#247 = DIRECTION ( 'NONE',  ( 0.0000000000000000000, 0.0000000000000000000, -1.000000000000000000 ) ) ;
#248 = CARTESIAN_POINT ( 'NONE',  ( 0.7500000000000000000, 0.1999999999999993200, 2.799999999999999800 ) ) ;
#249 = CARTESIAN_POINT ( 'NONE',  ( 0.8158443170159626100, 2.466400822762891300, 1.541947808078635100 ) ) ;
#250 = AXIS2_PLACEMENT_3D ( 'NONE', #891, #796, #421 ) ;
#251 = VECTOR ( 'NONE', #470, 1000.000000000000000 ) ;
#252 = DIRECTION ( 'NONE',  ( -0.0000000000000000000, -1.000000000000000000, -1.500458363707617900E-016 ) ) ;
#253 = ORIENTED_EDGE ( 'NONE', *, *, #432, .F. ) ;
#254 = VERTEX_POINT ( 'NONE', #1104 ) ;
#255 = VECTOR ( 'NONE', #388, 1000.000000000000000 ) ;
#256 = EDGE_CURVE ( 'NONE', #280, #1015, #420, .T. ) ;
#257 = FILL_AREA_STYLE_COLOUR ( '', #287 ) ;
#258 = ORIENTED_EDGE ( 'NONE', *, *, #747, .F. ) ;
#259 = EDGE_CURVE ( 'NONE', #610, #346, #1145, .T. ) ;
#260 = CARTESIAN_POINT ( 'NONE',  ( -0.7500000000000000000, 0.1999999999999993400, 2.999999999999999600 ) ) ;
#261 = EDGE_LOOP ( 'NONE', ( #720, #803, #767, #483 ) ) ;
#262 = CARTESIAN_POINT ( 'NONE',  ( 0.7500000000000000000, 0.1999999999999993200, 1.749999999999999600 ) ) ;
#263 = PRODUCT_DEFINITION_FORMATION_WITH_SPECIFIED_SOURCE ( 'ANY', '', #289, .NOT_KNOWN. ) ;
#264 = CIRCLE ( 'NONE', #283, 0.2000000000000000900 ) ;
#265 = CARTESIAN_POINT ( 'NONE',  ( -0.7500000000000000000, 0.1999999999999993400, 2.999999999999999600 ) ) ;
#266 = VERTEX_POINT ( 'NONE', #1282 ) ;
#267 = CYLINDRICAL_SURFACE ( 'NONE', #1151, 0.2000000000000000900 ) ;
#268 = AXIS2_PLACEMENT_3D ( 'NONE', #442, #935, #320 ) ;
#269 = CARTESIAN_POINT ( 'NONE',  ( -2.499999999999999600, 2.999999999999999600, 2.599999999999999600 ) ) ;
#270 = ADVANCED_FACE ( 'NONE', ( #371 ), #301, .F. ) ;
#271 = ORIENTED_EDGE ( 'NONE', *, *, #215, .T. ) ;
#272 = EDGE_CURVE ( 'NONE', #1131, #7, #73, .T. ) ;
#273 = CARTESIAN_POINT ( 'NONE',  ( -2.499999999999999600, 3.000000000000000400, -2.600000000000000500 ) ) ;
#274 = FILL_AREA_STYLE ('',( #257 ) ) ;
#275 = EDGE_LOOP ( 'NONE', ( #860, #1274, #1144, #1014 ) ) ;
#276 = PRESENTATION_LAYER_ASSIGNMENT (  '', '', ( #793 ) ) ;
#277 = VERTEX_POINT ( 'NONE', #17 ) ;
#278 = FACE_OUTER_BOUND ( 'NONE', #139, .T. ) ;
#279 = EDGE_CURVE ( 'NONE', #193, #657, #1175, .T. ) ;
#280 = VERTEX_POINT ( 'NONE', #998 ) ;
#281 = CIRCLE ( 'NONE', #427, 0.2000000000000000900 ) ;
#282 = CARTESIAN_POINT ( 'NONE',  ( -0.7500000000000000000, 0.1999999999999993200, -2.799999999999999800 ) ) ;
#283 = AXIS2_PLACEMENT_3D ( 'NONE', #244, #804, #650 ) ;
#284 = FILL_AREA_STYLE_COLOUR ( '', #104 ) ;
#285 = PLANE ( 'NONE',  #768 ) ;
#286 = CARTESIAN_POINT ( 'NONE',  ( -0.8158443170159626100, 2.466400822762890900, 3.000000000000000000 ) ) ;
#287 = COLOUR_RGB ( '',0.7921568627450980000, 0.8196078431372548800, 0.9333333333333333500 ) ;
#288 = CARTESIAN_POINT ( 'NONE',  ( 2.500000000000000000, 0.09999999999999950600, 2.799999999999998900 ) ) ;
#289 = PRODUCT ( 'PA4340.103NLT', 'PA4340.103NLT', '', ( #702 ) ) ;
#290 = FACE_OUTER_BOUND ( 'NONE', #36, .T. ) ;
#291 = MECHANICAL_DESIGN_GEOMETRIC_PRESENTATION_REPRESENTATION (  '', ( #719 ), #646 ) ;
#292 = VECTOR ( 'NONE', #1061, 1000.000000000000000 ) ;
#293 = ORIENTED_EDGE ( 'NONE', *, *, #272, .F. ) ;
#294 = FACE_OUTER_BOUND ( 'NONE', #335, .T. ) ;
#295 = DIRECTION ( 'NONE',  ( 0.0000000000000000000, 0.0000000000000000000, 1.000000000000000000 ) ) ;
#296 = CLOSED_SHELL ( 'NONE', ( #659, #1228, #1128, #462, #950, #361, #1072, #550, #1150 ) ) ;
#297 = CARTESIAN_POINT ( 'NONE',  ( 0.7500000000000000000, 1.199999999999999300, 2.799999999999999400 ) ) ;
#298 = LINE ( 'NONE', #100, #600 ) ;
#299 = EDGE_CURVE ( 'NONE', #1188, #43, #692, .T. ) ;
#300 =( NAMED_UNIT ( * ) SI_UNIT ( $, .STERADIAN. ) SOLID_ANGLE_UNIT ( ) );
#301 = PLANE ( 'NONE',  #1211 ) ;
#302 = VERTEX_POINT ( 'NONE', #1097 ) ;
#303 = CYLINDRICAL_SURFACE ( 'NONE', #736, 0.1148956428752446300 ) ;
#304 = VERTEX_POINT ( 'NONE', #911 ) ;
#305 = DIRECTION ( 'NONE',  ( 0.0000000000000000000, 0.0000000000000000000, 1.000000000000000000 ) ) ;
#306 = VECTOR ( 'NONE', #1277, 1000.000000000000000 ) ;
#307 = ORIENTED_EDGE ( 'NONE', *, *, #1133, .T. ) ;
#308 = DIRECTION ( 'NONE',  ( 0.0000000000000000000, -1.000000000000000000, 0.0000000000000000000 ) ) ;
#309 = ORIENTED_EDGE ( 'NONE', *, *, #119, .F. ) ;
#310 = CARTESIAN_POINT ( 'NONE',  ( -0.7009486741407179300, 0.1999999999999992300, -1.427052165203391000 ) ) ;
#311 =( NAMED_UNIT ( * ) SI_UNIT ( $, .STERADIAN. ) SOLID_ANGLE_UNIT ( ) );
#312 = DIRECTION ( 'NONE',  ( 0.0000000000000000000, -0.0000000000000000000, -1.000000000000000000 ) ) ;
#313 = EDGE_CURVE ( 'NONE', #614, #1213, #298, .T. ) ;
#314 = ORIENTED_EDGE ( 'NONE', *, *, #175, .F. ) ;
#315 = EDGE_CURVE ( 'NONE', #192, #681, #826, .T. ) ;
#316 = FACE_OUTER_BOUND ( 'NONE', #1025, .T. ) ;
#317 = DIRECTION ( 'NONE',  ( 0.0000000000000000000, 0.0000000000000000000, 1.000000000000000000 ) ) ;
#318 = VERTEX_POINT ( 'NONE', #1210 ) ;
#319 = ADVANCED_FACE ( 'NONE', ( #153 ), #267, .T. ) ;
#320 = DIRECTION ( 'NONE',  ( 0.0000000000000000000, 0.0000000000000000000, -1.000000000000000000 ) ) ;
#321 = CARTESIAN_POINT ( 'NONE',  ( 2.500000000000000000, 3.000000000000000400, -2.800000000000000300 ) ) ;
#322 = ORIENTED_EDGE ( 'NONE', *, *, #590, .T. ) ;
#323 = LINE ( 'NONE', #1075, #169 ) ;
#324 = CARTESIAN_POINT ( 'NONE',  ( 0.7500000000000000000, 0.9999999999999995600, 2.999999999999999100 ) ) ;
#325 = DIRECTION ( 'NONE',  ( 0.0000000000000000000, 1.000000000000000000, 1.495451272393799300E-016 ) ) ;
#326 = ADVANCED_FACE ( 'NONE', ( #60 ), #1116, .F. ) ;
#327 = CARTESIAN_POINT ( 'NONE',  ( -0.8158443170159626100, 0.1999999999999992300, 2.799999999999998900 ) ) ;
#328 = CARTESIAN_POINT ( 'NONE',  ( 2.700000000000000200, 0.1000000000000003400, -2.800000000000000700 ) ) ;
#329 = DIRECTION ( 'NONE',  ( 1.000000000000000000, 0.0000000000000000000, 0.0000000000000000000 ) ) ;
#330 = ORIENTED_EDGE ( 'NONE', *, *, #1239, .F. ) ;
#331 = DIRECTION ( 'NONE',  ( 0.0000000000000000000, 0.0000000000000000000, 1.000000000000000000 ) ) ;
#332 = ADVANCED_FACE ( 'NONE', ( #651 ), #959, .T. ) ;
#333 = CARTESIAN_POINT ( 'NONE',  ( 0.7500000000000000000, 1.199999999999999300, -2.799999999999999400 ) ) ;
#334 = VECTOR ( 'NONE', #900, 1000.000000000000000 ) ;
#335 = EDGE_LOOP ( 'NONE', ( #399, #1217, #107, #812 ) ) ;
#336 = ORIENTED_EDGE ( 'NONE', *, *, #1123, .F. ) ;
#337 = ORIENTED_EDGE ( 'NONE', *, *, #525, .T. ) ;
#338 = DIRECTION ( 'NONE',  ( 0.0000000000000000000, -1.000000000000000000, -5.421010862427520200E-016 ) ) ;
#339 = AXIS2_PLACEMENT_3D ( 'NONE', #749, #170, #348 ) ;
#340 = LINE ( 'NONE', #426, #892 ) ;
#341 = DIRECTION ( 'NONE',  ( 0.0000000000000000000, 0.0000000000000000000, -1.000000000000000000 ) ) ;
#342 = VECTOR ( 'NONE', #1159, 1000.000000000000000 ) ;
#343 = EDGE_CURVE ( 'NONE', #1197, #304, #1040, .T. ) ;
#344 = CARTESIAN_POINT ( 'NONE',  ( -0.7500000000000000000, 0.1999999999999993200, -2.799999999999999800 ) ) ;
#345 = PLANE ( 'NONE',  #887 ) ;
#346 = VERTEX_POINT ( 'NONE', #936 ) ;
#347 = VECTOR ( 'NONE', #552, 1000.000000000000000 ) ;
#348 = DIRECTION ( 'NONE',  ( 0.0000000000000000000, 0.0000000000000000000, 1.000000000000000000 ) ) ;
#349 = EDGE_CURVE ( 'NONE', #648, #1247, #1164, .T. ) ;
#350 = LINE ( 'NONE', #86, #53 ) ;
#351 = ORIENTED_EDGE ( 'NONE', *, *, #910, .F. ) ;
#352 = CIRCLE ( 'NONE', #64, 0.1999999999999996500 ) ;
#353 = ORIENTED_EDGE ( 'NONE', *, *, #682, .F. ) ;
#354 = FACE_OUTER_BOUND ( 'NONE', #167, .T. ) ;
#355 = DIRECTION ( 'NONE',  ( 0.0000000000000000000, -1.000000000000000000, -1.495451272393799300E-016 ) ) ;
#356 = CYLINDRICAL_SURFACE ( 'NONE', #658, 0.1999999999999996500 ) ;
#357 = EDGE_CURVE ( 'NONE', #614, #1060, #1008, .T. ) ;
#358 = EDGE_LOOP ( 'NONE', ( #754, #858, #1058, #883, #983, #401, #495 ) ) ;
#359 = ORIENTED_EDGE ( 'NONE', *, *, #74, .T. ) ;
#360 = EDGE_CURVE ( 'NONE', #302, #1209, #504, .T. ) ;
#361 = ADVANCED_FACE ( 'NONE', ( #875 ), #356, .T. ) ;
#362 = CARTESIAN_POINT ( 'NONE',  ( -0.7500000000000000000, 0.1999999999999993400, -2.999999999999999600 ) ) ;
#363 = ORIENTED_EDGE ( 'NONE', *, *, #620, .F. ) ;
#364 = ORIENTED_EDGE ( 'NONE', *, *, #69, .F. ) ;
#365 = LINE ( 'NONE', #962, #609 ) ;
#366 = DIRECTION ( 'NONE',  ( 0.0000000000000000000, -0.0000000000000000000, -1.000000000000000000 ) ) ;
#367 = EDGE_LOOP ( 'NONE', ( #147, #1076, #836, #475 ) ) ;
#368 = CARTESIAN_POINT ( 'NONE',  ( 0.7500000000000000000, 0.1999999999999993200, 2.799999999999999800 ) ) ;
#369 = ORIENTED_EDGE ( 'NONE', *, *, #756, .T. ) ;
#370 = ORIENTED_EDGE ( 'NONE', *, *, #797, .T. ) ;
#371 = FACE_OUTER_BOUND ( 'NONE', #367, .T. ) ;
#372 = LINE ( 'NONE', #1165, #112 ) ;
#373 = DIRECTION ( 'NONE',  ( 0.0000000000000000000, -1.000000000000000000, -1.500458363707617900E-016 ) ) ;
#374 = AXIS2_PLACEMENT_3D ( 'NONE', #636, #1134, #1226 ) ;
#375 = DIRECTION ( 'NONE',  ( -6.187055985601862100E-016, -1.500458363707617900E-016, 1.000000000000000000 ) ) ;
#376 = ORIENTED_EDGE ( 'NONE', *, *, #1191, .F. ) ;
#377 = DIRECTION ( 'NONE',  ( 0.0000000000000000000, -1.548860246407863600E-016, 1.000000000000000000 ) ) ;
#378 = EDGE_LOOP ( 'NONE', ( #690, #775, #698, #156 ) ) ;
#379 = LINE ( 'NONE', #1195, #514 ) ;
#380 = ORIENTED_EDGE ( 'NONE', *, *, #1105, .F. ) ;
#381 = DIRECTION ( 'NONE',  ( 0.0000000000000000000, -1.000000000000000000, -1.500458363707617900E-016 ) ) ;
#382 = FACE_OUTER_BOUND ( 'NONE', #85, .T. ) ;
#383 = ORIENTED_EDGE ( 'NONE', *, *, #507, .T. ) ;
#384 = CARTESIAN_POINT ( 'NONE',  ( 2.700000000000000200, 3.000000000000000400, -2.800000000000000300 ) ) ;
#385 = LINE ( 'NONE', #784, #561 ) ;
#386 = EDGE_CURVE ( 'NONE', #735, #852, #110, .T. ) ;
#387 = ORIENTED_EDGE ( 'NONE', *, *, #620, .T. ) ;
#388 = DIRECTION ( 'NONE',  ( -1.000000000000000000, -0.0000000000000000000, -0.0000000000000000000 ) ) ;
#389 = VECTOR ( 'NONE', #224, 1000.000000000000000 ) ;
#390 = EDGE_LOOP ( 'NONE', ( #1055, #748, #731, #124, #173, #956, #353, #575 ) ) ;
#391 = DIRECTION ( 'NONE',  ( -1.000000000000000000, -0.0000000000000000000, 0.0000000000000000000 ) ) ;
#392 =( GEOMETRIC_REPRESENTATION_CONTEXT ( 3 ) GLOBAL_UNCERTAINTY_ASSIGNED_CONTEXT ( ( #914 ) ) GLOBAL_UNIT_ASSIGNED_CONTEXT ( ( #680, #77, #878 ) ) REPRESENTATION_CONTEXT ( 'NONE', 'WORKASPACE' ) );
#393 = FILL_AREA_STYLE ('',( #284 ) ) ;
#394 = CARTESIAN_POINT ( 'NONE',  ( 0.7500000000000000000, 0.0000000000000000000, -1.749999999999999600 ) ) ;
#395 = ORIENTED_EDGE ( 'NONE', *, *, #87, .F. ) ;
#396 = DIRECTION ( 'NONE',  ( -0.0000000000000000000, -0.0000000000000000000, 1.000000000000000000 ) ) ;
#397 = CARTESIAN_POINT ( 'NONE',  ( 0.7009486741407181500, 0.1999999999999992300, -1.427052165203390100 ) ) ;
#398 = AXIS2_PLACEMENT_3D ( 'NONE', #368, #990, #779 ) ;
#399 = ORIENTED_EDGE ( 'NONE', *, *, #1129, .F. ) ;
#400 = CIRCLE ( 'NONE', #948, 0.2000000000000000900 ) ;
#401 = ORIENTED_EDGE ( 'NONE', *, *, #1129, .T. ) ;
#402 = VECTOR ( 'NONE', #1003, 1000.000000000000000 ) ;
#403 = ORIENTED_EDGE ( 'NONE', *, *, #811, .T. ) ;
#404 = DIRECTION ( 'NONE',  ( 0.0000000000000000000, 0.0000000000000000000, 1.000000000000000000 ) ) ;
#405 = CARTESIAN_POINT ( 'NONE',  ( -0.7500000000000000000, 0.1999999999999993200, -2.799999999999999800 ) ) ;
#406 = PRESENTATION_LAYER_ASSIGNMENT (  '', '', ( #719 ) ) ;
#407 =( GEOMETRIC_REPRESENTATION_CONTEXT ( 3 ) GLOBAL_UNCERTAINTY_ASSIGNED_CONTEXT ( ( #146 ) ) GLOBAL_UNIT_ASSIGNED_CONTEXT ( ( #764, #1063, #461 ) ) REPRESENTATION_CONTEXT ( 'NONE', 'WORKASPACE' ) );
#408 = EDGE_CURVE ( 'NONE', #533, #1135, #469, .T. ) ;
#409 = CARTESIAN_POINT ( 'NONE',  ( 0.7009486741407179300, 0.09999999999999968600, 1.541947808078634600 ) ) ;
#410 = DIRECTION ( 'NONE',  ( 1.000000000000000000, 0.0000000000000000000, 0.0000000000000000000 ) ) ;
#411 = CARTESIAN_POINT ( 'NONE',  ( 0.7500000000000000000, 0.0000000000000000000, 1.749999999999999600 ) ) ;
#412 = EDGE_LOOP ( 'NONE', ( #613, #625, #1004, #728 ) ) ;
#413 = CARTESIAN_POINT ( 'NONE',  ( 2.700000000000000200, 3.000000000000000400, -2.800000000000000300 ) ) ;
#414 = DIRECTION ( 'NONE',  ( 0.0000000000000000000, 0.0000000000000000000, 1.000000000000000000 ) ) ;
#415 = PRESENTATION_STYLE_ASSIGNMENT (( #95 ) ) ;
#416 = ORIENTED_EDGE ( 'NONE', *, *, #664, .T. ) ;
#417 = AXIS2_PLACEMENT_3D ( 'NONE', #113, #521, #919 ) ;
#418 = PLANE ( 'NONE',  #1230 ) ;
#419 = EDGE_LOOP ( 'NONE', ( #769, #370, #1268, #1231, #14, #454, #221 ) ) ;
#420 = LINE ( 'NONE', #97, #402 ) ;
#421 = DIRECTION ( 'NONE',  ( 0.0000000000000000000, 0.0000000000000000000, 1.000000000000000000 ) ) ;
#422 = DIRECTION ( 'NONE',  ( -1.000000000000000000, -0.0000000000000000000, 0.0000000000000000000 ) ) ;
#423 = ADVANCED_FACE ( 'NONE', ( #615 ), #916, .T. ) ;
#424 =( NAMED_UNIT ( * ) PLANE_ANGLE_UNIT ( ) SI_UNIT ( $, .RADIAN. ) );
#425 = DIRECTION ( 'NONE',  ( -0.0000000000000000000, -1.000000000000000000, -1.500458363707617900E-016 ) ) ;
#426 = CARTESIAN_POINT ( 'NONE',  ( 0.8158443170159626100, 2.466400822762891700, -1.541947808078634200 ) ) ;
#427 = AXIS2_PLACEMENT_3D ( 'NONE', #766, #958, #565 ) ;
#428 = DIRECTION ( 'NONE',  ( 0.0000000000000000000, -1.000000000000000000, -1.500458363707617900E-016 ) ) ;
#429 = ORIENTED_EDGE ( 'NONE', *, *, #228, .T. ) ;
#430 = ADVANCED_FACE ( 'NONE', ( #844 ), #927, .T. ) ;
#431 = DIRECTION ( 'NONE',  ( 0.0000000000000000000, -0.0000000000000000000, -1.000000000000000000 ) ) ;
#432 = EDGE_CURVE ( 'NONE', #467, #932, #340, .T. ) ;
#433 = CARTESIAN_POINT ( 'NONE',  ( -2.499999999999999600, 3.000000000000000400, -2.600000000000000500 ) ) ;
#434 = PRESENTATION_STYLE_ASSIGNMENT (( #232 ) ) ;
#435 = CARTESIAN_POINT ( 'NONE',  ( 2.700000000000000200, 0.1000000000000003400, -2.800000000000000700 ) ) ;
#436 = ORIENTED_EDGE ( 'NONE', *, *, #664, .F. ) ;
#437 = DIRECTION ( 'NONE',  ( 0.0000000000000000000, 0.0000000000000000000, -1.000000000000000000 ) ) ;
#438 = VERTEX_POINT ( 'NONE', #530 ) ;
#439 = VECTOR ( 'NONE', #391, 1000.000000000000000 ) ;
#440 = CARTESIAN_POINT ( 'NONE',  ( 0.7500000000000000000, 1.199999999999999300, -2.799999999999999400 ) ) ;
#441 = ORIENTED_EDGE ( 'NONE', *, *, #299, .F. ) ;
#442 = CARTESIAN_POINT ( 'NONE',  ( 0.7500000000000000000, 0.1999999999999993200, -2.799999999999999800 ) ) ;
#443 = DIRECTION ( 'NONE',  ( 0.0000000000000000000, -1.179551009674434500E-016, 1.000000000000000000 ) ) ;
#444 = ORIENTED_EDGE ( 'NONE', *, *, #480, .F. ) ;
#445 = PLANE ( 'NONE',  #523 ) ;
#446 = CARTESIAN_POINT ( 'NONE',  ( 0.7500000000000000000, 0.1999999999999993200, 1.749999999999999600 ) ) ;
#447 = ORIENTED_EDGE ( 'NONE', *, *, #1123, .T. ) ;
#448 = ORIENTED_EDGE ( 'NONE', *, *, #879, .F. ) ;
#449 = DIRECTION ( 'NONE',  ( 0.0000000000000000000, 1.495451272393799000E-016, -1.000000000000000000 ) ) ;
#450 = EDGE_LOOP ( 'NONE', ( #416, #890, #1007, #519 ) ) ;
#451 = VECTOR ( 'NONE', #703, 1000.000000000000000 ) ;
#452 = ADVANCED_FACE ( 'NONE', ( #1113 ), #717, .F. ) ;
#453 = PLANE ( 'NONE',  #339 ) ;
#454 = ORIENTED_EDGE ( 'NONE', *, *, #464, .T. ) ;
#455 = CYLINDRICAL_SURFACE ( 'NONE', #268, 0.1999999999999996500 ) ;
#456 = AXIS2_PLACEMENT_3D ( 'NONE', #588, #580, #1261 ) ;
#457 = ORIENTED_EDGE ( 'NONE', *, *, #360, .T. ) ;
#458 = FACE_OUTER_BOUND ( 'NONE', #516, .T. ) ;
#459 = CARTESIAN_POINT ( 'NONE',  ( -0.7009486741407179300, 2.466400822762891300, 1.427052165203391400 ) ) ;
#460 = EDGE_CURVE ( 'NONE', #876, #1024, #634, .T. ) ;
#461 =( NAMED_UNIT ( * ) SI_UNIT ( $, .STERADIAN. ) SOLID_ANGLE_UNIT ( ) );
#462 = ADVANCED_FACE ( 'NONE', ( #1190 ), #653, .T. ) ;
#463 = DIRECTION ( 'NONE',  ( -0.0000000000000000000, -1.000000000000000000, -1.500458363707617900E-016 ) ) ;
#464 = EDGE_CURVE ( 'NONE', #1188, #843, #489, .T. ) ;
#465 = FACE_OUTER_BOUND ( 'NONE', #1280, .T. ) ;
#466 = ORIENTED_EDGE ( 'NONE', *, *, #1062, .F. ) ;
#467 = VERTEX_POINT ( 'NONE', #1142 ) ;
#468 = DIRECTION ( 'NONE',  ( -1.000000000000000000, -0.0000000000000000000, -0.0000000000000000000 ) ) ;
#469 = LINE ( 'NONE', #643, #212 ) ;
#470 = DIRECTION ( 'NONE',  ( -0.0000000000000000000, -1.000000000000000000, -1.500458363707617900E-016 ) ) ;
#471 = ORIENTED_EDGE ( 'NONE', *, *, #201, .F. ) ;
#472 = DIRECTION ( 'NONE',  ( -0.0000000000000000000, 1.000000000000000000, 1.500458363707617900E-016 ) ) ;
#473 = CARTESIAN_POINT ( 'NONE',  ( 0.8158443170159626100, 0.1999999999999992300, 2.999999999999998200 ) ) ;
#474 = ADVANCED_FACE ( 'NONE', ( #908 ), #151, .F. ) ;
#475 = ORIENTED_EDGE ( 'NONE', *, *, #999, .F. ) ;
#476 = PLANE ( 'NONE',  #776 ) ;
#477 = DIRECTION ( 'NONE',  ( 0.0000000000000000000, 0.0000000000000000000, -1.000000000000000000 ) ) ;
#478 = PLANE ( 'NONE',  #695 ) ;
#479 = ORIENTED_EDGE ( 'NONE', *, *, #562, .F. ) ;
#480 = EDGE_CURVE ( 'NONE', #560, #704, #54, .T. ) ;
#481 = LINE ( 'NONE', #799, #451 ) ;
#482 = DIRECTION ( 'NONE',  ( 0.0000000000000000000, -1.355252715606879800E-016, 1.000000000000000000 ) ) ;
#483 = ORIENTED_EDGE ( 'NONE', *, *, #828, .T. ) ;
#484 = FACE_OUTER_BOUND ( 'NONE', #419, .T. ) ;
#485 = DIRECTION ( 'NONE',  ( 0.0000000000000000000, 0.0000000000000000000, -1.000000000000000000 ) ) ;
#486 = ORIENTED_EDGE ( 'NONE', *, *, #988, .F. ) ;
#487 = LINE ( 'NONE', #249, #20 ) ;
#488 = DIRECTION ( 'NONE',  ( -1.000000000000000000, 0.0000000000000000000, 0.0000000000000000000 ) ) ;
#489 = CIRCLE ( 'NONE', #194, 0.1999999999999996500 ) ;
#490 = STYLED_ITEM ( 'NONE', ( #434 ), #1201 ) ;
#491 = DIRECTION ( 'NONE',  ( 1.000000000000000000, 0.0000000000000000000, -0.0000000000000000000 ) ) ;
#492 = DIRECTION ( 'NONE',  ( -0.0000000000000000000, 1.000000000000000000, 1.548860246407863800E-016 ) ) ;
#493 = CARTESIAN_POINT ( 'NONE',  ( -2.700000000000000200, 0.09999999999999953400, 2.599999999999999600 ) ) ;
#494 = DIRECTION ( 'NONE',  ( 0.0000000000000000000, 0.0000000000000000000, -1.000000000000000000 ) ) ;
#495 = ORIENTED_EDGE ( 'NONE', *, *, #879, .T. ) ;
#496 = AXIS2_PLACEMENT_3D ( 'NONE', #128, #1037, #325 ) ;
#497 = LINE ( 'NONE', #569, #1227 ) ;
#498 = DIRECTION ( 'NONE',  ( -6.187055985601862100E-016, 1.500458363707617900E-016, -1.000000000000000000 ) ) ;
#499 = CIRCLE ( 'NONE', #162, 0.1148956428752446300 ) ;
#500 = VERTEX_POINT ( 'NONE', #647 ) ;
#501 = DIRECTION ( 'NONE',  ( 0.0000000000000000000, 1.179551009674434500E-016, -1.000000000000000000 ) ) ;
#502 = EDGE_CURVE ( 'NONE', #684, #56, #595, .T. ) ;
#503 = ORIENTED_EDGE ( 'NONE', *, *, #785, .F. ) ;
#504 = LINE ( 'NONE', #321, #1258 ) ;
#505 = LINE ( 'NONE', #1073, #1086 ) ;
#506 = CARTESIAN_POINT ( 'NONE',  ( 2.700000000000000200, 0.09999999999999950600, 2.799999999999998900 ) ) ;
#507 = EDGE_CURVE ( 'NONE', #1141, #511, #57, .T. ) ;
#508 = MECHANICAL_DESIGN_GEOMETRIC_PRESENTATION_REPRESENTATION (  '', ( #793 ), #392 ) ;
#509 = DIRECTION ( 'NONE',  ( 0.0000000000000000000, 0.0000000000000000000, 1.000000000000000000 ) ) ;
#510 = EDGE_CURVE ( 'NONE', #662, #547, #1098, .T. ) ;
#511 = VERTEX_POINT ( 'NONE', #1185 ) ;
#512 = CARTESIAN_POINT ( 'NONE',  ( -0.7500000000000000000, 1.199999999999999300, 2.799999999999999400 ) ) ;
#513 = AXIS2_PLACEMENT_3D ( 'NONE', #79, #491, #295 ) ;
#514 = VECTOR ( 'NONE', #1206, 1000.000000000000000 ) ;
#515 = ORIENTED_EDGE ( 'NONE', *, *, #1171, .T. ) ;
#516 = EDGE_LOOP ( 'NONE', ( #403, #80, #686, #380 ) ) ;
#517 = LINE ( 'NONE', #435, #1187 ) ;
#518 = DIRECTION ( 'NONE',  ( 0.0000000000000000000, 3.355863867217036200E-016, 1.000000000000000000 ) ) ;
#519 = ORIENTED_EDGE ( 'NONE', *, *, #87, .T. ) ;
#520 = ADVANCED_FACE ( 'NONE', ( #278 ), #1093, .F. ) ;
#521 = DIRECTION ( 'NONE',  ( 0.0000000000000000000, -1.000000000000000000, -1.500458363707617900E-016 ) ) ;
#522 = DIRECTION ( 'NONE',  ( 0.0000000000000000000, 0.0000000000000000000, -1.000000000000000000 ) ) ;
#523 = AXIS2_PLACEMENT_3D ( 'NONE', #157, #1146, #845 ) ;
#524 = CARTESIAN_POINT ( 'NONE',  ( 0.8158443170159626100, 0.1999999999999992300, 1.541947808078634900 ) ) ;
#525 = EDGE_CURVE ( 'NONE', #500, #304, #746, .T. ) ;
#526 = DIRECTION ( 'NONE',  ( 0.0000000000000000000, -1.495451272393799000E-016, 1.000000000000000000 ) ) ;
#527 = DIRECTION ( 'NONE',  ( 0.0000000000000000000, -5.421010862427520200E-016, -1.000000000000000000 ) ) ;
#528 = LINE ( 'NONE', #413, #1031 ) ;
#529 = DIRECTION ( 'NONE',  ( 0.0000000000000000000, 1.000000000000000000, 1.495451272393799300E-016 ) ) ;
#530 = CARTESIAN_POINT ( 'NONE',  ( 0.8158443170159626100, 0.1000000000000003400, -2.800000000000000700 ) ) ;
#531 = VECTOR ( 'NONE', #338, 1000.000000000000000 ) ;
#532 = ORIENTED_EDGE ( 'NONE', *, *, #1090, .F. ) ;
#533 = VERTEX_POINT ( 'NONE', #1179 ) ;
#534 = VECTOR ( 'NONE', #599, 1000.000000000000000 ) ;
#535 = DIRECTION ( 'NONE',  ( 0.0000000000000000000, 1.000000000000000000, 4.336808689942017700E-016 ) ) ;
#536 = DIRECTION ( 'NONE',  ( 0.0000000000000000000, 0.0000000000000000000, -1.000000000000000000 ) ) ;
#537 = STYLED_ITEM ( 'NONE', ( #415 ), #871 ) ;
#538 = ORIENTED_EDGE ( 'NONE', *, *, #1193, .T. ) ;
#539 = DIRECTION ( 'NONE',  ( -1.000000000000000000, -0.0000000000000000000, -0.0000000000000000000 ) ) ;
#540 = VERTEX_POINT ( 'NONE', #675 ) ;
#541 = ORIENTED_EDGE ( 'NONE', *, *, #814, .F. ) ;
#542 = ADVANCED_FACE ( 'NONE', ( #290 ), #770, .F. ) ;
#543 = DIRECTION ( 'NONE',  ( 1.000000000000000000, 0.0000000000000000000, 0.0000000000000000000 ) ) ;
#544 = VECTOR ( 'NONE', #539, 1000.000000000000000 ) ;
#545 = ORIENTED_EDGE ( 'NONE', *, *, #1067, .F. ) ;
#546 = EDGE_CURVE ( 'NONE', #610, #266, #1054, .T. ) ;
#547 = VERTEX_POINT ( 'NONE', #70 ) ;
#548 = EDGE_LOOP ( 'NONE', ( #22, #628, #586, #668, #912, #886 ) ) ;
#549 = EDGE_CURVE ( 'NONE', #346, #939, #1161, .T. ) ;
#550 = ADVANCED_FACE ( 'NONE', ( #484 ), #82, .T. ) ;
#551 = DIRECTION ( 'NONE',  ( -0.0000000000000000000, -1.000000000000000000, -1.500458363707617900E-016 ) ) ;
#552 = DIRECTION ( 'NONE',  ( -0.0000000000000000000, -1.487192541519087900E-016, 1.000000000000000000 ) ) ;
#553 = MECHANICAL_DESIGN_GEOMETRIC_PRESENTATION_REPRESENTATION (  '', ( #490 ), #623 ) ;
#554 = DIRECTION ( 'NONE',  ( -0.0000000000000000000, -1.000000000000000000, 5.421010862427520200E-016 ) ) ;
#555 = CARTESIAN_POINT ( 'NONE',  ( -2.499999999999997800, 0.09999999999999950600, 2.799999999999998900 ) ) ;
#556 = VECTOR ( 'NONE', #176, 1000.000000000000000 ) ;
#557 = CYLINDRICAL_SURFACE ( 'NONE', #1167, 0.1148956428752446300 ) ;
#558 = VECTOR ( 'NONE', #190, 1000.000000000000000 ) ;
#559 = LINE ( 'NONE', #141, #292 ) ;
#560 = VERTEX_POINT ( 'NONE', #774 ) ;
#561 = VECTOR ( 'NONE', #16, 1000.000000000000000 ) ;
#562 = EDGE_CURVE ( 'NONE', #211, #649, #825, .T. ) ;
#563 = EDGE_LOOP ( 'NONE', ( #363, #196, #1156, #1233 ) ) ;
#564 = VECTOR ( 'NONE', #116, 1000.000000000000000 ) ;
#565 = DIRECTION ( 'NONE',  ( 0.0000000000000000000, -1.355252715606879800E-016, 1.000000000000000000 ) ) ;
#566 = LINE ( 'NONE', #187, #1204 ) ;
#567 = EDGE_CURVE ( 'NONE', #898, #132, #223, .T. ) ;
#568 = ORIENTED_EDGE ( 'NONE', *, *, #432, .T. ) ;
#569 = CARTESIAN_POINT ( 'NONE',  ( -0.7500000000000000000, 1.199999999999999300, -2.799999999999999400 ) ) ;
#570 = SURFACE_STYLE_USAGE ( .BOTH. , #52 ) ;
#571 = ORIENTED_EDGE ( 'NONE', *, *, #1200, .F. ) ;
#572 = CARTESIAN_POINT ( 'NONE',  ( -2.700000000000000200, 2.999999999999999600, 2.600000000000000100 ) ) ;
#573 = LINE ( 'NONE', #310, #700 ) ;
#574 = ADVANCED_FACE ( 'NONE', ( #1246 ), #679, .F. ) ;
#575 = ORIENTED_EDGE ( 'NONE', *, *, #1105, .T. ) ;
#576 = LINE ( 'NONE', #602, #306 ) ;
#577 = ORIENTED_EDGE ( 'NONE', *, *, #841, .F. ) ;
#578 = CARTESIAN_POINT ( 'NONE',  ( 0.7500000000000000000, 1.199999999999999300, 2.799999999999999400 ) ) ;
#579 = ORIENTED_EDGE ( 'NONE', *, *, #507, .F. ) ;
#580 = DIRECTION ( 'NONE',  ( 0.0000000000000000000, -5.421010862427520200E-016, 1.000000000000000000 ) ) ;
#581 = AXIS2_PLACEMENT_3D ( 'NONE', #732, #818, #410 ) ;
#582 = DIRECTION ( 'NONE',  ( 0.0000000000000000000, -1.000000000000000000, -1.548860246407863800E-016 ) ) ;
#583 = CARTESIAN_POINT ( 'NONE',  ( -2.700000000000000200, 0.1000000000000002600, -2.600000000000000500 ) ) ;
#584 = DIRECTION ( 'NONE',  ( 1.000000000000000000, 0.0000000000000000000, 6.187055985601862100E-016 ) ) ;
#585 = AXIS2_PLACEMENT_3D ( 'NONE', #877, #982, #78 ) ;
#586 = ORIENTED_EDGE ( 'NONE', *, *, #218, .F. ) ;
#587 = ORIENTED_EDGE ( 'NONE', *, *, #828, .F. ) ;
#588 = CARTESIAN_POINT ( 'NONE',  ( 0.7500000000000000000, 0.1999999999999993400, -2.999999999999999600 ) ) ;
#589 = DIRECTION ( 'NONE',  ( -0.0000000000000000000, -1.000000000000000000, -1.500458363707617900E-016 ) ) ;
#590 = EDGE_CURVE ( 'NONE', #132, #211, #777, .T. ) ;
#591 = VECTOR ( 'NONE', #683, 1000.000000000000000 ) ;
#592 = LINE ( 'NONE', #33, #1095 ) ;
#593 = CARTESIAN_POINT ( 'NONE',  ( 0.7500000000000000000, 0.0000000000000000000, 1.749999999999999600 ) ) ;
#594 = ORIENTED_EDGE ( 'NONE', *, *, #955, .T. ) ;
#595 = LINE ( 'NONE', #978, #558 ) ;
#596 = PLANE ( 'NONE',  #513 ) ;
#597 = ORIENTED_EDGE ( 'NONE', *, *, #1235, .F. ) ;
#598 = CARTESIAN_POINT ( 'NONE',  ( -0.8158443170159626100, 0.09999999999999939500, 1.541947808078635500 ) ) ;
#599 = DIRECTION ( 'NONE',  ( -1.000000000000000000, -0.0000000000000000000, -0.0000000000000000000 ) ) ;
#600 = VECTOR ( 'NONE', #1108, 1000.000000000000000 ) ;
#601 = LINE ( 'NONE', #65, #829 ) ;
#602 = CARTESIAN_POINT ( 'NONE',  ( 2.700000000000000200, 2.999999999999999600, 2.799999999999999400 ) ) ;
#603 = CARTESIAN_POINT ( 'NONE',  ( -0.8158443170159626100, 0.1000000000000003700, -2.999999999999999600 ) ) ;
#604 = APPLICATION_PROTOCOL_DEFINITION ( 'draft international standard', 'automotive_design', 1998, #677 ) ;
#605 = CARTESIAN_POINT ( 'NONE',  ( -2.499999999999997800, 3.000000000000000400, -2.800000000000000300 ) ) ;
#606 = CARTESIAN_POINT ( 'NONE',  ( -0.7500000000000000000, 0.1999999999999993200, 2.799999999999999800 ) ) ;
#607 = AXIS2_PLACEMENT_3D ( 'NONE', #1147, #236, #331 ) ;
#608 = DIRECTION ( 'NONE',  ( 0.0000000000000000000, -3.355863867217036200E-016, -1.000000000000000000 ) ) ;
#609 = VECTOR ( 'NONE', #846, 1000.000000000000000 ) ;
#610 = VERTEX_POINT ( 'NONE', #195 ) ;
#611 = DIRECTION ( 'NONE',  ( 0.0000000000000000000, 0.0000000000000000000, -1.000000000000000000 ) ) ;
#612 = CARTESIAN_POINT ( 'NONE',  ( -2.700000000000000200, 0.1000000000000003100, -2.600000000000000500 ) ) ;
#613 = ORIENTED_EDGE ( 'NONE', *, *, #699, .T. ) ;
#614 = VERTEX_POINT ( 'NONE', #1078 ) ;
#615 = FACE_OUTER_BOUND ( 'NONE', #548, .T. ) ;
#616 = LINE ( 'NONE', #753, #342 ) ;
#617 = DIRECTION ( 'NONE',  ( 1.000000000000000000, -0.0000000000000000000, 0.0000000000000000000 ) ) ;
#618 = EDGE_CURVE ( 'NONE', #648, #614, #1019, .T. ) ;
#619 = ADVANCED_FACE ( 'NONE', ( #715 ), #476, .F. ) ;
#620 = EDGE_CURVE ( 'NONE', #1131, #633, #1069, .T. ) ;
#621 = ORIENTED_EDGE ( 'NONE', *, *, #549, .F. ) ;
#622 = DIRECTION ( 'NONE',  ( -0.0000000000000000000, -1.000000000000000000, -1.495451272393799300E-016 ) ) ;
#623 =( GEOMETRIC_REPRESENTATION_CONTEXT ( 3 ) GLOBAL_UNCERTAINTY_ASSIGNED_CONTEXT ( ( #122 ) ) GLOBAL_UNIT_ASSIGNED_CONTEXT ( ( #820, #424, #311 ) ) REPRESENTATION_CONTEXT ( 'NONE', 'WORKASPACE' ) );
#624 = CARTESIAN_POINT ( 'NONE',  ( -0.8158443170159626100, 0.1000000000000003400, -2.800000000000000700 ) ) ;
#625 = ORIENTED_EDGE ( 'NONE', *, *, #729, .T. ) ;
#626 = VECTOR ( 'NONE', #341, 1000.000000000000000 ) ;
#627 = LINE ( 'NONE', #137, #531 ) ;
#628 = ORIENTED_EDGE ( 'NONE', *, *, #256, .F. ) ;
#629 = VECTOR ( 'NONE', #126, 1000.000000000000000 ) ;
#630 = DIRECTION ( 'NONE',  ( 1.000000000000000000, 0.0000000000000000000, -0.0000000000000000000 ) ) ;
#631 = DIRECTION ( 'NONE',  ( -4.718204038697738300E-015, 0.0000000000000000000, -1.000000000000000000 ) ) ;
#632 = CARTESIAN_POINT ( 'NONE',  ( 0.7009486741407179300, 2.466400822762891300, 1.541947808078635100 ) ) ;
#633 = VERTEX_POINT ( 'NONE', #880 ) ;
#634 = CIRCLE ( 'NONE', #234, 0.1148956428752446300 ) ;
#635 = CIRCLE ( 'NONE', #740, 0.1999999999999992300 ) ;
#636 = CARTESIAN_POINT ( 'NONE',  ( 0.7500000000000000000, 0.9999999999999997800, -2.799999999999999800 ) ) ;
#637 = DIRECTION ( 'NONE',  ( -0.0000000000000000000, 1.500458363707617900E-016, -1.000000000000000000 ) ) ;
#638 = CARTESIAN_POINT ( 'NONE',  ( 0.7500000000000000000, 0.1999999999999993200, -1.749999999999999600 ) ) ;
#639 = AXIS2_PLACEMENT_3D ( 'NONE', #1170, #375, #584 ) ;
#640 = CARTESIAN_POINT ( 'NONE',  ( 0.7009486741407179300, 0.1000000000000001600, -1.541947808078634600 ) ) ;
#641 = DIRECTION ( 'NONE',  ( 0.0000000000000000000, -1.000000000000000000, -4.336808689942017700E-016 ) ) ;
#642 = EDGE_CURVE ( 'NONE', #318, #662, #517, .T. ) ;
#643 = CARTESIAN_POINT ( 'NONE',  ( 0.7500000000000000000, 1.199999999999999300, 2.799999999999999400 ) ) ;
#644 = ORIENTED_EDGE ( 'NONE', *, *, #228, .F. ) ;
#645 = CARTESIAN_POINT ( 'NONE',  ( 0.8158443170159626100, 0.09999999999999968600, 1.541947808078634600 ) ) ;
#646 =( GEOMETRIC_REPRESENTATION_CONTEXT ( 3 ) GLOBAL_UNCERTAINTY_ASSIGNED_CONTEXT ( ( #973 ) ) GLOBAL_UNIT_ASSIGNED_CONTEXT ( ( #751, #1259, #665 ) ) REPRESENTATION_CONTEXT ( 'NONE', 'WORKASPACE' ) );
#647 = CARTESIAN_POINT ( 'NONE',  ( 0.7500000000000000000, 0.0000000000000000000, 1.749999999999999600 ) ) ;
#648 = VERTEX_POINT ( 'NONE', #1132 ) ;
#649 = VERTEX_POINT ( 'NONE', #27 ) ;
#650 = DIRECTION ( 'NONE',  ( 0.0000000000000000000, 0.0000000000000000000, -1.000000000000000000 ) ) ;
#651 = FACE_OUTER_BOUND ( 'NONE', #1181, .T. ) ;
#652 = PLANE ( 'NONE',  #1038 ) ;
#653 = CYLINDRICAL_SURFACE ( 'NONE', #904, 0.1999999999999992300 ) ;
#654 = AXIS2_PLACEMENT_3D ( 'NONE', #199, #191, #477 ) ;
#655 = DIRECTION ( 'NONE',  ( 0.0000000000000000000, -1.495451272393799300E-016, 1.000000000000000000 ) ) ;
#656 = PLANE ( 'NONE',  #639 ) ;
#657 = VERTEX_POINT ( 'NONE', #220 ) ;
#658 = AXIS2_PLACEMENT_3D ( 'NONE', #1229, #35, #26 ) ;
#659 = ADVANCED_FACE ( 'NONE', ( #1214 ), #918, .F. ) ;
#660 = ORIENTED_EDGE ( 'NONE', *, *, #460, .F. ) ;
#661 = LINE ( 'NONE', #722, #629 ) ;
#662 = VERTEX_POINT ( 'NONE', #131 ) ;
#663 = FILL_AREA_STYLE ('',( #1253 ) ) ;
#664 = EDGE_CURVE ( 'NONE', #163, #254, #1122, .T. ) ;
#665 =( NAMED_UNIT ( * ) SI_UNIT ( $, .STERADIAN. ) SOLID_ANGLE_UNIT ( ) );
#666 = ORIENTED_EDGE ( 'NONE', *, *, #464, .F. ) ;
#667 = CARTESIAN_POINT ( 'NONE',  ( -0.7500000000000000000, 0.1999999999999993200, 1.749999999999999600 ) ) ;
#668 = ORIENTED_EDGE ( 'NONE', *, *, #1193, .F. ) ;
#669 = ORIENTED_EDGE ( 'NONE', *, *, #94, .T. ) ;
#670 = ORIENTED_EDGE ( 'NONE', *, *, #729, .F. ) ;
#671 = LINE ( 'NONE', #473, #760 ) ;
#672 = ORIENTED_EDGE ( 'NONE', *, *, #480, .T. ) ;
#673 = CIRCLE ( 'NONE', #705, 0.1148956428752446300 ) ;
#674 = ADVANCED_FACE ( 'NONE', ( #382 ), #923, .F. ) ;
#675 = CARTESIAN_POINT ( 'NONE',  ( -0.7500000000000000000, 0.9999999999999995600, -2.999999999999999100 ) ) ;
#676 = ORIENTED_EDGE ( 'NONE', *, *, #259, .F. ) ;
#677 = APPLICATION_CONTEXT ( 'automotive_design' ) ;
#678 = EDGE_CURVE ( 'NONE', #7, #876, #385, .T. ) ;
#679 = PLANE ( 'NONE',  #1012 ) ;
#680 =( LENGTH_UNIT ( ) NAMED_UNIT ( * ) SI_UNIT ( .MILLI., .METRE. ) );
#681 = VERTEX_POINT ( 'NONE', #694 ) ;
#682 = EDGE_CURVE ( 'NONE', #915, #1015, #661, .T. ) ;
#683 = DIRECTION ( 'NONE',  ( -0.0000000000000000000, -1.000000000000000000, -1.495451272393799300E-016 ) ) ;
#684 = VERTEX_POINT ( 'NONE', #947 ) ;
#685 = CARTESIAN_POINT ( 'NONE',  ( -0.7500000000000000000, 0.0000000000000000000, -1.749999999999999600 ) ) ;
#686 = ORIENTED_EDGE ( 'NONE', *, *, #1254, .T. ) ;
#687 = DIRECTION ( 'NONE',  ( 0.0000000000000000000, 0.0000000000000000000, -1.000000000000000000 ) ) ;
#688 = DIRECTION ( 'NONE',  ( 0.0000000000000000000, 1.548860246407863800E-016, -1.000000000000000000 ) ) ;
#689 = VECTOR ( 'NONE', #941, 1000.000000000000000 ) ;
#690 = ORIENTED_EDGE ( 'NONE', *, *, #218, .T. ) ;
#691 = AXIS2_PLACEMENT_3D ( 'NONE', #230, #1221, #631 ) ;
#692 = LINE ( 'NONE', #1192, #534 ) ;
#693 = DIRECTION ( 'NONE',  ( 0.0000000000000000000, 1.000000000000000000, 1.495451272393799300E-016 ) ) ;
#694 = CARTESIAN_POINT ( 'NONE',  ( 0.8158443170159626100, 0.09999999999999950600, 2.799999999999999800 ) ) ;
#695 = AXIS2_PLACEMENT_3D ( 'NONE', #1196, #617, #897 ) ;
#696 = EDGE_LOOP ( 'NONE', ( #1242, #136, #824, #743 ) ) ;
#697 = SURFACE_SIDE_STYLE ('',( #1243 ) ) ;
#698 = ORIENTED_EDGE ( 'NONE', *, *, #272, .T. ) ;
#699 = EDGE_CURVE ( 'NONE', #1083, #103, #197, .T. ) ;
#700 = VECTOR ( 'NONE', #1225, 1000.000000000000000 ) ;
#701 = EDGE_LOOP ( 'NONE', ( #579, #577, #780, #330 ) ) ;
#702 = PRODUCT_CONTEXT ( 'NONE', #677, 'mechanical' ) ;
#703 = DIRECTION ( 'NONE',  ( -0.0000000000000000000, 1.000000000000000000, 1.495451272393799300E-016 ) ) ;
#704 = VERTEX_POINT ( 'NONE', #837 ) ;
#705 = AXIS2_PLACEMENT_3D ( 'NONE', #708, #798, #494 ) ;
#706 = LINE ( 'NONE', #394, #439 ) ;
#707 = SURFACE_SIDE_STYLE ('',( #179 ) ) ;
#708 = CARTESIAN_POINT ( 'NONE',  ( -0.7009486741407179300, 0.1999999999999992300, 1.541947808078635500 ) ) ;
#709 = EDGE_LOOP ( 'NONE', ( #1199, #1270, #926, #672 ) ) ;
#710 = LINE ( 'NONE', #328, #917 ) ;
#711 = ORIENTED_EDGE ( 'NONE', *, *, #1154, .T. ) ;
#712 = CARTESIAN_POINT ( 'NONE',  ( 2.500000000000000000, 3.000000000000000400, -2.600000000000000500 ) ) ;
#713 = CARTESIAN_POINT ( 'NONE',  ( 0.7500000000000000000, 0.9999999999999997800, 2.799999999999999800 ) ) ;
#714 = VERTEX_POINT ( 'NONE', #493 ) ;
#715 = FACE_OUTER_BOUND ( 'NONE', #358, .T. ) ;
#716 = DIRECTION ( 'NONE',  ( 1.000000000000000000, 0.0000000000000000000, -0.0000000000000000000 ) ) ;
#717 = CYLINDRICAL_SURFACE ( 'NONE', #977, 0.1148956428752446300 ) ;
#718 = DIRECTION ( 'NONE',  ( 0.0000000000000000000, -1.548860246407863600E-016, 1.000000000000000000 ) ) ;
#719 = STYLED_ITEM ( 'NONE', ( #63 ), #61 ) ;
#720 = ORIENTED_EDGE ( 'NONE', *, *, #814, .T. ) ;
#721 = EDGE_CURVE ( 'NONE', #992, #649, #957, .T. ) ;
#722 = CARTESIAN_POINT ( 'NONE',  ( 2.700000000000000200, 0.1999999999999992300, 2.799999999999998900 ) ) ;
#723 = DIRECTION ( 'NONE',  ( 0.0000000000000000000, 0.0000000000000000000, -1.000000000000000000 ) ) ;
#724 = ADVANCED_FACE ( 'NONE', ( #294 ), #455, .T. ) ;
#725 = AXIS2_PLACEMENT_3D ( 'NONE', #62, #1009, #894 ) ;
#726 = VECTOR ( 'NONE', #637, 1000.000000000000000 ) ;
#727 = VECTOR ( 'NONE', #226, 1000.000000000000000 ) ;
#728 = ORIENTED_EDGE ( 'NONE', *, *, #34, .F. ) ;
#729 = EDGE_CURVE ( 'NONE', #103, #876, #127, .T. ) ;
#730 = CARTESIAN_POINT ( 'NONE',  ( -0.7009486741407179300, 0.1999999999999992300, -1.427052165203391000 ) ) ;
#731 = ORIENTED_EDGE ( 'NONE', *, *, #831, .T. ) ;
#732 = CARTESIAN_POINT ( 'NONE',  ( 0.7500000000000000000, 0.1999999999999993200, 1.749999999999999600 ) ) ;
#733 = SURFACE_STYLE_FILL_AREA ( #663 ) ;
#734 = DIRECTION ( 'NONE',  ( -0.0000000000000000000, -1.000000000000000000, -1.500458363707617900E-016 ) ) ;
#735 = VERTEX_POINT ( 'NONE', #638 ) ;
#736 = AXIS2_PLACEMENT_3D ( 'NONE', #737, #734, #1049 ) ;
#737 = CARTESIAN_POINT ( 'NONE',  ( -0.7009486741407179300, 2.466400822762891300, 1.541947808078636000 ) ) ;
#738 = VERTEX_POINT ( 'NONE', #1030 ) ;
#739 = DIRECTION ( 'NONE',  ( 0.0000000000000000000, 0.0000000000000000000, -1.000000000000000000 ) ) ;
#740 = AXIS2_PLACEMENT_3D ( 'NONE', #850, #543, #739 ) ;
#741 = DIRECTION ( 'NONE',  ( -1.000000000000000000, -0.0000000000000000000, -0.0000000000000000000 ) ) ;
#742 = VECTOR ( 'NONE', #996, 1000.000000000000000 ) ;
#743 = ORIENTED_EDGE ( 'NONE', *, *, #50, .F. ) ;
#744 = LINE ( 'NONE', #685, #334 ) ;
#745 = ORIENTED_EDGE ( 'NONE', *, *, #1200, .T. ) ;
#746 = LINE ( 'NONE', #593, #255 ) ;
#747 = EDGE_CURVE ( 'NONE', #467, #266, #1094, .T. ) ;
#748 = ORIENTED_EDGE ( 'NONE', *, *, #4, .T. ) ;
#749 = CARTESIAN_POINT ( 'NONE',  ( -2.700000000000000200, 0.0000000000000000000, 0.0000000000000000000 ) ) ;
#750 = ORIENTED_EDGE ( 'NONE', *, *, #1273, .F. ) ;
#751 =( LENGTH_UNIT ( ) NAMED_UNIT ( * ) SI_UNIT ( .MILLI., .METRE. ) );
#752 = ADVANCED_FACE ( 'NONE', ( #354 ), #210, .T. ) ;
#753 = CARTESIAN_POINT ( 'NONE',  ( 0.7500000000000000000, 0.1999999999999993400, -2.999999999999999600 ) ) ;
#754 = ORIENTED_EDGE ( 'NONE', *, *, #502, .T. ) ;
#755 = FACE_OUTER_BOUND ( 'NONE', #261, .T. ) ;
#756 = EDGE_CURVE ( 'NONE', #43, #1197, #352, .T. ) ;
#757 = CIRCLE ( 'NONE', #417, 0.1148956428752446300 ) ;
#758 = ORIENTED_EDGE ( 'NONE', *, *, #910, .T. ) ;
#759 = CARTESIAN_POINT ( 'NONE',  ( -0.7500000000000000000, 0.1999999999999993200, 2.799999999999999800 ) ) ;
#760 = VECTOR ( 'NONE', #1006, 1000.000000000000000 ) ;
#761 = DIRECTION ( 'NONE',  ( -0.0000000000000000000, -1.000000000000000000, -1.500458363707617900E-016 ) ) ;
#762 = VECTOR ( 'NONE', #924, 1000.000000000000000 ) ;
#763 = EDGE_CURVE ( 'NONE', #843, #1197, #921, .T. ) ;
#764 =( LENGTH_UNIT ( ) NAMED_UNIT ( * ) SI_UNIT ( .MILLI., .METRE. ) );
#765 = CARTESIAN_POINT ( 'NONE',  ( -2.700000000000000200, 3.000000000000000400, -2.800000000000000300 ) ) ;
#766 = CARTESIAN_POINT ( 'NONE',  ( 2.500000000000000000, 0.1000000000000003100, -2.600000000000000500 ) ) ;
#767 = ORIENTED_EDGE ( 'NONE', *, *, #797, .F. ) ;
#768 = AXIS2_PLACEMENT_3D ( 'NONE', #384, #582, #688 ) ;
#769 = ORIENTED_EDGE ( 'NONE', *, *, #1048, .T. ) ;
#770 = PLANE ( 'NONE',  #1027 ) ;
#771 = DIRECTION ( 'NONE',  ( -0.0000000000000000000, -0.0000000000000000000, 1.000000000000000000 ) ) ;
#772 = LINE ( 'NONE', #830, #544 ) ;
#773 = ORIENTED_EDGE ( 'NONE', *, *, #69, .T. ) ;
#774 = CARTESIAN_POINT ( 'NONE',  ( 0.7500000000000000000, 1.199999999999999300, -2.799999999999999400 ) ) ;
#775 = ORIENTED_EDGE ( 'NONE', *, *, #158, .T. ) ;
#776 = AXIS2_PLACEMENT_3D ( 'NONE', #282, #716, #930 ) ;
#777 = LINE ( 'NONE', #583, #591 ) ;
#778 = DIRECTION ( 'NONE',  ( 0.0000000000000000000, -1.000000000000000000, -1.500458363707617900E-016 ) ) ;
#779 = DIRECTION ( 'NONE',  ( 0.0000000000000000000, 0.0000000000000000000, -1.000000000000000000 ) ) ;
#780 = ORIENTED_EDGE ( 'NONE', *, *, #859, .F. ) ;
#781 = CARTESIAN_POINT ( 'NONE',  ( 0.7500000000000000000, -3.523657060577889400E-016, 2.799999999999999800 ) ) ;
#782 = AXIS2_PLACEMENT_3D ( 'NONE', #874, #778, #1265 ) ;
#783 = PLANE ( 'NONE',  #250 ) ;
#784 = CARTESIAN_POINT ( 'NONE',  ( -0.7009486741407179300, 0.09999999999999970000, 1.427052165203391000 ) ) ;
#785 = EDGE_CURVE ( 'NONE', #649, #898, #944, .T. ) ;
#786 = SURFACE_STYLE_FILL_AREA ( #274 ) ;
#787 = CARTESIAN_POINT ( 'NONE',  ( 2.700000000000000200, 0.1000000000000003400, -2.800000000000000700 ) ) ;
#788 = UNCERTAINTY_MEASURE_WITH_UNIT (LENGTH_MEASURE( 1.000000000000000100E-005 ), #795, 'distance_accuracy_value', 'NONE');
#789 = DIRECTION ( 'NONE',  ( 0.0000000000000000000, -1.355252715606879800E-016, 1.000000000000000000 ) ) ;
#790 = VECTOR ( 'NONE', #1236, 1000.000000000000000 ) ;
#791 = ORIENTED_EDGE ( 'NONE', *, *, #215, .F. ) ;
#792 = DIRECTION ( 'NONE',  ( -1.000000000000000000, -0.0000000000000000000, 0.0000000000000000000 ) ) ;
#793 = STYLED_ITEM ( 'NONE', ( #1050 ), #75 ) ;
#794 = VECTOR ( 'NONE', #422, 1000.000000000000000 ) ;
#795 =( LENGTH_UNIT ( ) NAMED_UNIT ( * ) SI_UNIT ( .MILLI., .METRE. ) );
#796 = DIRECTION ( 'NONE',  ( 0.0000000000000000000, -1.000000000000000000, 0.0000000000000000000 ) ) ;
#797 = EDGE_CURVE ( 'NONE', #1053, #533, #1035, .T. ) ;
#798 = DIRECTION ( 'NONE',  ( -0.0000000000000000000, 1.000000000000000000, -0.0000000000000000000 ) ) ;
#799 = CARTESIAN_POINT ( 'NONE',  ( -2.700000000000000200, 2.999999999999999600, 2.599999999999999600 ) ) ;
#800 = DIRECTION ( 'NONE',  ( -1.000000000000000000, 0.0000000000000000000, 0.0000000000000000000 ) ) ;
#801 = AXIS2_PLACEMENT_3D ( 'NONE', #640, #428, #105 ) ;
#802 = DIRECTION ( 'NONE',  ( -1.000000000000000000, -0.0000000000000000000, -0.0000000000000000000 ) ) ;
#803 = ORIENTED_EDGE ( 'NONE', *, *, #971, .F. ) ;
#804 = DIRECTION ( 'NONE',  ( -0.0000000000000000000, 1.000000000000000000, 1.548860246407863800E-016 ) ) ;
#805 = CARTESIAN_POINT ( 'NONE',  ( -0.7500000000000000000, -3.523657060577889400E-016, -2.799999999999999800 ) ) ;
#806 = DIRECTION ( 'NONE',  ( -1.000000000000000000, -0.0000000000000000000, -0.0000000000000000000 ) ) ;
#807 = EDGE_LOOP ( 'NONE', ( #989, #1267, #870, #750 ) ) ;
#808 = ORIENTED_EDGE ( 'NONE', *, *, #988, .T. ) ;
#809 = DIRECTION ( 'NONE',  ( -1.000000000000000000, -0.0000000000000000000, -6.187055985601862100E-016 ) ) ;
#810 = DIRECTION ( 'NONE',  ( 0.0000000000000000000, -1.000000000000000000, -1.500458363707617900E-016 ) ) ;
#811 = EDGE_CURVE ( 'NONE', #915, #1083, #671, .T. ) ;
#812 = ORIENTED_EDGE ( 'NONE', *, *, #313, .T. ) ;
#813 = CARTESIAN_POINT ( 'NONE',  ( -2.700000000000000200, 0.1000000000000003400, -2.800000000000000700 ) ) ;
#814 = EDGE_CURVE ( 'NONE', #738, #1149, #242, .T. ) ;
#815 = DIRECTION ( 'NONE',  ( -1.000000000000000000, -0.0000000000000000000, -0.0000000000000000000 ) ) ;
#816 = CARTESIAN_POINT ( 'NONE',  ( -0.7500000000000000000, 0.0000000000000000000, 1.749999999999999600 ) ) ;
#817 = AXIS2_PLACEMENT_3D ( 'NONE', #273, #492, #1271 ) ;
#818 = DIRECTION ( 'NONE',  ( -0.0000000000000000000, 0.0000000000000000000, 1.000000000000000000 ) ) ;
#819 = ADVANCED_FACE ( 'NONE', ( #1052 ), #596, .T. ) ;
#820 =( LENGTH_UNIT ( ) NAMED_UNIT ( * ) SI_UNIT ( .MILLI., .METRE. ) );
#821 = CARTESIAN_POINT ( 'NONE',  ( 0.7009486741407179300, 2.466400822762891300, 1.427052165203390500 ) ) ;
#822 = VECTOR ( 'NONE', #1039, 1000.000000000000000 ) ;
#823 = LINE ( 'NONE', #949, #1279 ) ;
#824 = ORIENTED_EDGE ( 'NONE', *, *, #1067, .T. ) ;
#825 = CIRCLE ( 'NONE', #1079, 0.2000000000000000900 ) ;
#826 = LINE ( 'NONE', #506, #564 ) ;
#827 = DIRECTION ( 'NONE',  ( -0.0000000000000000000, 1.000000000000000000, -4.336808689942017700E-016 ) ) ;
#828 = EDGE_CURVE ( 'NONE', #1053, #738, #1005, .T. ) ;
#829 = VECTOR ( 'NONE', #1057, 1000.000000000000000 ) ;
#830 = CARTESIAN_POINT ( 'NONE',  ( 0.7500000000000000000, 0.9999999999999995600, 2.999999999999999100 ) ) ;
#831 = EDGE_CURVE ( 'NONE', #277, #511, #576, .T. ) ;
#832 = CARTESIAN_POINT ( 'NONE',  ( 2.700000000000000200, 0.1000000000000003400, -2.800000000000000700 ) ) ;
#833 = DIRECTION ( 'NONE',  ( 0.0000000000000000000, -1.000000000000000000, 0.0000000000000000000 ) ) ;
#834 = ORIENTED_EDGE ( 'NONE', *, *, #386, .F. ) ;
#835 = PLANE ( 'NONE',  #41 ) ;
#836 = ORIENTED_EDGE ( 'NONE', *, *, #201, .T. ) ;
#837 = CARTESIAN_POINT ( 'NONE',  ( -0.7500000000000000000, 1.199999999999999300, -2.799999999999999400 ) ) ;
#838 = DIRECTION ( 'NONE',  ( 1.000000000000000000, 0.0000000000000000000, 0.0000000000000000000 ) ) ;
#839 = CARTESIAN_POINT ( 'NONE',  ( 2.500000000000000000, 2.999999999999999600, 2.799999999999999400 ) ) ;
#840 = EDGE_LOOP ( 'NONE', ( #58, #258, #205, #1111, #621, #676 ) ) ;
#841 = EDGE_CURVE ( 'NONE', #714, #1141, #481, .T. ) ;
#842 = VECTOR ( 'NONE', #203, 1000.000000000000000 ) ;
#843 = VERTEX_POINT ( 'NONE', #781 ) ;
#844 = FACE_OUTER_BOUND ( 'NONE', #964, .T. ) ;
#845 = DIRECTION ( 'NONE',  ( 0.0000000000000000000, 0.0000000000000000000, 1.000000000000000000 ) ) ;
#846 = DIRECTION ( 'NONE',  ( 0.0000000000000000000, 1.000000000000000000, 1.495451272393799300E-016 ) ) ;
#847 = ORIENTED_EDGE ( 'NONE', *, *, #841, .T. ) ;
#848 = AXIS2_PLACEMENT_3D ( 'NONE', #38, #527, #1041 ) ;
#849 = DIRECTION ( 'NONE',  ( 0.0000000000000000000, -1.000000000000000000, -1.495451272393799300E-016 ) ) ;
#850 = CARTESIAN_POINT ( 'NONE',  ( 0.7500000000000000000, 0.9999999999999997800, 2.799999999999999800 ) ) ;
#851 = PRODUCT_DEFINITION_SHAPE ( 'NONE', 'NONE',  #979 ) ;
#852 = VERTEX_POINT ( 'NONE', #995 ) ;
#853 = AXIS2_PLACEMENT_3D ( 'NONE', #1103, #810, #501 ) ;
#854 = CARTESIAN_POINT ( 'NONE',  ( -0.7009486741407179300, 2.466400822762891700, -1.427052165203390500 ) ) ;
#855 = COLOUR_RGB ( '',1.000000000000000000, 1.000000000000000000, 1.000000000000000000 ) ;
#856 = VECTOR ( 'NONE', #885, 1000.000000000000000 ) ;
#857 = CIRCLE ( 'NONE', #607, 0.1999999999999992300 ) ;
#858 = ORIENTED_EDGE ( 'NONE', *, *, #1062, .T. ) ;
#859 = EDGE_CURVE ( 'NONE', #165, #714, #400, .T. ) ;
#860 = ORIENTED_EDGE ( 'NONE', *, *, #1216, .T. ) ;
#861 = DIRECTION ( 'NONE',  ( 0.0000000000000000000, -1.000000000000000000, -1.495451272393799300E-016 ) ) ;
#862 = LINE ( 'NONE', #603, #200 ) ;
#863 = CARTESIAN_POINT ( 'NONE',  ( 0.7500000000000000000, 0.9999999999999995600, -2.999999999999999100 ) ) ;
#864 = CARTESIAN_POINT ( 'NONE',  ( -2.499999999999999600, 3.000000000000000400, -2.800000000000000300 ) ) ;
#865 = DIRECTION ( 'NONE',  ( -0.0000000000000000000, 1.000000000000000000, -0.0000000000000000000 ) ) ;
#866 = EDGE_LOOP ( 'NONE', ( #448, #13, #1240, #271 ) ) ;
#867 = DIRECTION ( 'NONE',  ( 0.0000000000000000000, -1.000000000000000000, 4.336808689942017700E-016 ) ) ;
#868 = ADVANCED_FACE ( 'NONE', ( #1232 ), #889, .F. ) ;
#869 = DIRECTION ( 'NONE',  ( 0.0000000000000000000, 0.0000000000000000000, -1.000000000000000000 ) ) ;
#870 = ORIENTED_EDGE ( 'NONE', *, *, #1191, .T. ) ;
#871 = MANIFOLD_SOLID_BREP ( 'Fillet1', #39 ) ;
#872 = ORIENTED_EDGE ( 'NONE', *, *, #859, .T. ) ;
#873 = EDGE_LOOP ( 'NONE', ( #186, #1244, #99, #1173 ) ) ;
#874 = CARTESIAN_POINT ( 'NONE',  ( 2.500000000000000000, 0.09999999999999953400, 2.599999999999999200 ) ) ;
#875 = FACE_OUTER_BOUND ( 'NONE', #44, .T. ) ;
#876 = VERTEX_POINT ( 'NONE', #895 ) ;
#877 = CARTESIAN_POINT ( 'NONE',  ( -0.7009486741407179300, 0.1999999999999992300, -1.541947808078635500 ) ) ;
#878 =( NAMED_UNIT ( * ) SI_UNIT ( $, .STERADIAN. ) SOLID_ANGLE_UNIT ( ) );
#879 = EDGE_CURVE ( 'NONE', #1213, #684, #744, .T. ) ;
#880 = CARTESIAN_POINT ( 'NONE',  ( -0.8158443170159626100, 0.09999999999999950600, 2.799999999999999800 ) ) ;
#881 = CARTESIAN_POINT ( 'NONE',  ( 0.7500000000000000000, 0.1999999999999993200, 1.749999999999999600 ) ) ;
#882 = SHAPE_DEFINITION_REPRESENTATION ( #851, #75 ) ;
#883 = ORIENTED_EDGE ( 'NONE', *, *, #928, .T. ) ;
#884 = VECTOR ( 'NONE', #1091, 1000.000000000000000 ) ;
#885 = DIRECTION ( 'NONE',  ( 1.000000000000000000, 0.0000000000000000000, 0.0000000000000000000 ) ) ;
#886 = ORIENTED_EDGE ( 'NONE', *, *, #811, .F. ) ;
#887 = AXIS2_PLACEMENT_3D ( 'NONE', #578, #1074, #867 ) ;
#888 = VECTOR ( 'NONE', #693, 1000.000000000000000 ) ;
#889 = PLANE ( 'NONE',  #144 ) ;
#890 = ORIENTED_EDGE ( 'NONE', *, *, #1017, .F. ) ;
#891 = CARTESIAN_POINT ( 'NONE',  ( 0.7500000000000000000, 0.1999999999999993200, -2.799999999999999800 ) ) ;
#892 = VECTOR ( 'NONE', #1130, 1000.000000000000000 ) ;
#893 = ORIENTED_EDGE ( 'NONE', *, *, #502, .F. ) ;
#894 = DIRECTION ( 'NONE',  ( 1.000000000000000000, 0.0000000000000000000, 0.0000000000000000000 ) ) ;
#895 = CARTESIAN_POINT ( 'NONE',  ( 0.7009486741407179300, 0.09999999999999970000, 1.427052165203390100 ) ) ;
#896 = DIRECTION ( 'NONE',  ( -0.0000000000000000000, -1.000000000000000000, -1.500458363707617900E-016 ) ) ;
#897 = DIRECTION ( 'NONE',  ( 0.0000000000000000000, 0.0000000000000000000, -1.000000000000000000 ) ) ;
#898 = VERTEX_POINT ( 'NONE', #605 ) ;
#899 = EDGE_CURVE ( 'NONE', #193, #467, #499, .T. ) ;
#900 = DIRECTION ( 'NONE',  ( 0.0000000000000000000, 3.355863867217036200E-016, 1.000000000000000000 ) ) ;
#901 = LINE ( 'NONE', #446, #42 ) ;
#902 = ORIENTED_EDGE ( 'NONE', *, *, #1059, .F. ) ;
#903 = CARTESIAN_POINT ( 'NONE',  ( 0.7009486741407179300, 2.466400822762891700, -1.427052165203389600 ) ) ;
#904 = AXIS2_PLACEMENT_3D ( 'NONE', #713, #815, #414 ) ;
#905 = ORIENTED_EDGE ( 'NONE', *, *, #1042, .F. ) ;
#906 = APPLICATION_PROTOCOL_DEFINITION ( 'draft international standard', 'automotive_design', 1998, #1013 ) ;
#907 = VECTOR ( 'NONE', #896, 1000.000000000000000 ) ;
#908 = FACE_OUTER_BOUND ( 'NONE', #920, .T. ) ;
#909 = DIRECTION ( 'NONE',  ( 0.0000000000000000000, 0.0000000000000000000, -1.000000000000000000 ) ) ;
#910 = EDGE_CURVE ( 'NONE', #438, #932, #129, .T. ) ;
#911 = CARTESIAN_POINT ( 'NONE',  ( -0.7500000000000000000, 0.0000000000000000000, 1.749999999999999600 ) ) ;
#912 = ORIENTED_EDGE ( 'NONE', *, *, #699, .F. ) ;
#913 = FILL_AREA_STYLE_COLOUR ( '', #855 ) ;
#914 = UNCERTAINTY_MEASURE_WITH_UNIT (LENGTH_MEASURE( 1.000000000000000100E-005 ), #680, 'distance_accuracy_value', 'NONE');
#915 = VERTEX_POINT ( 'NONE', #148 ) ;
#916 = PLANE ( 'NONE',  #1269 ) ;
#917 = VECTOR ( 'NONE', #741, 1000.000000000000000 ) ;
#918 = PLANE ( 'NONE',  #581 ) ;
#919 = DIRECTION ( 'NONE',  ( 0.0000000000000000000, -1.179551009674434500E-016, 1.000000000000000000 ) ) ;
#920 = EDGE_LOOP ( 'NONE', ( #893, #791, #997, #1203 ) ) ;
#921 = LINE ( 'NONE', #72, #986 ) ;
#922 = ORIENTED_EDGE ( 'NONE', *, *, #567, .T. ) ;
#923 = CYLINDRICAL_SURFACE ( 'NONE', #1182, 0.1148956428752446300 ) ;
#924 = DIRECTION ( 'NONE',  ( -0.0000000000000000000, 3.355863867217036200E-016, -1.000000000000000000 ) ) ;
#925 = AXIS2_PLACEMENT_3D ( 'NONE', #269, #1176, #869 ) ;
#926 = ORIENTED_EDGE ( 'NONE', *, *, #1022, .T. ) ;
#927 = CYLINDRICAL_SURFACE ( 'NONE', #1252, 0.1999999999999992300 ) ;
#928 = EDGE_CURVE ( 'NONE', #704, #540, #857, .T. ) ;
#929 = DIRECTION ( 'NONE',  ( -1.000000000000000000, -0.0000000000000000000, 0.0000000000000000000 ) ) ;
#930 = DIRECTION ( 'NONE',  ( 0.0000000000000000000, 0.0000000000000000000, 1.000000000000000000 ) ) ;
#931 = CARTESIAN_POINT ( 'NONE',  ( -0.8158443170159626100, 0.1000000000000003400, -2.800000000000000700 ) ) ;
#932 = VERTEX_POINT ( 'NONE', #6 ) ;
#933 = ADVANCED_FACE ( 'NONE', ( #67 ), #303, .F. ) ;
#934 = DIRECTION ( 'NONE',  ( 0.0000000000000000000, 4.336808689942017700E-016, -1.000000000000000000 ) ) ;
#935 = DIRECTION ( 'NONE',  ( -1.000000000000000000, -0.0000000000000000000, 0.0000000000000000000 ) ) ;
#936 = CARTESIAN_POINT ( 'NONE',  ( -0.8158443170159626100, 0.1999999999999992300, -1.541947808078635300 ) ) ;
#937 = ORIENTED_EDGE ( 'NONE', *, *, #1059, .T. ) ;
#938 = DIRECTION ( 'NONE',  ( -0.0000000000000000000, 1.500458363707617900E-016, -1.000000000000000000 ) ) ;
#939 = VERTEX_POINT ( 'NONE', #730 ) ;
#940 = EDGE_CURVE ( 'NONE', #540, #1247, #627, .T. ) ;
#941 = DIRECTION ( 'NONE',  ( -1.000000000000000000, -0.0000000000000000000, -0.0000000000000000000 ) ) ;
#942 = FACE_OUTER_BOUND ( 'NONE', #840, .T. ) ;
#943 = VERTEX_POINT ( 'NONE', #324 ) ;
#944 = LINE ( 'NONE', #864, #1281 ) ;
#945 = ORIENTED_EDGE ( 'NONE', *, *, #971, .T. ) ;
#946 = VECTOR ( 'NONE', #109, 1000.000000000000000 ) ;
#947 = CARTESIAN_POINT ( 'NONE',  ( -0.7500000000000000000, 0.0000000000000000000, -1.749999999999999600 ) ) ;
#948 = AXIS2_PLACEMENT_3D ( 'NONE', #91, #381, #789 ) ;
#949 = CARTESIAN_POINT ( 'NONE',  ( 0.7500000000000000000, 1.199999999999999300, -2.799999999999999400 ) ) ;
#950 = ADVANCED_FACE ( 'NONE', ( #31 ), #1140, .F. ) ;
#951 = ORIENTED_EDGE ( 'NONE', *, *, #125, .T. ) ;
#952 = ADVANCED_FACE ( 'NONE', ( #1124 ), #835, .F. ) ;
#953 = CIRCLE ( 'NONE', #2, 0.2000000000000000900 ) ;
#954 = EDGE_LOOP ( 'NONE', ( #669, #441, #532, #135 ) ) ;
#955 = EDGE_CURVE ( 'NONE', #277, #1077, #264, .T. ) ;
#956 = ORIENTED_EDGE ( 'NONE', *, *, #81, .T. ) ;
#957 = LINE ( 'NONE', #832, #689 ) ;
#958 = DIRECTION ( 'NONE',  ( 0.0000000000000000000, -1.000000000000000000, -1.500458363707617900E-016 ) ) ;
#959 = CYLINDRICAL_SURFACE ( 'NONE', #30, 0.2000000000000000900 ) ;
#960 = AXIS2_PLACEMENT_3D ( 'NONE', #108, #630, #115 ) ;
#961 = CARTESIAN_POINT ( 'NONE',  ( -0.8158443170159626100, 2.466400822762891300, 1.541947808078636000 ) ) ;
#962 = CARTESIAN_POINT ( 'NONE',  ( 0.8158443170159626100, 3.000000000000000400, -2.800000000000000300 ) ) ;
#963 = DIRECTION ( 'NONE',  ( -0.0000000000000000000, 3.355863867217036200E-016, -1.000000000000000000 ) ) ;
#964 = EDGE_LOOP ( 'NONE', ( #1166, #444, #1085, #160 ) ) ;
#965 = AXIS2_PLACEMENT_3D ( 'NONE', #1215, #529, #404 ) ;
#966 = DIRECTION ( 'NONE',  ( 0.0000000000000000000, 1.000000000000000000, 1.495451272393799300E-016 ) ) ;
#967 = FACE_OUTER_BOUND ( 'NONE', #701, .T. ) ;
#968 = VECTOR ( 'NONE', #355, 1000.000000000000000 ) ;
#969 = DIRECTION ( 'NONE',  ( -1.000000000000000000, -0.0000000000000000000, 0.0000000000000000000 ) ) ;
#970 = ORIENTED_EDGE ( 'NONE', *, *, #1254, .F. ) ;
#971 = EDGE_CURVE ( 'NONE', #533, #1149, #1158, .T. ) ;
#972 = EDGE_LOOP ( 'NONE', ( #336, #322, #571, #847 ) ) ;
#973 = UNCERTAINTY_MEASURE_WITH_UNIT (LENGTH_MEASURE( 1.000000000000000100E-005 ), #751, 'distance_accuracy_value', 'NONE');
#974 = CIRCLE ( 'NONE', #782, 0.2000000000000000900 ) ;
#975 = CARTESIAN_POINT ( 'NONE',  ( 0.7500000000000000000, 0.9999999999999995600, -2.999999999999999100 ) ) ;
#976 = FACE_OUTER_BOUND ( 'NONE', #972, .T. ) ;
#977 = AXIS2_PLACEMENT_3D ( 'NONE', #632, #1023, #21 ) ;
#978 = CARTESIAN_POINT ( 'NONE',  ( -0.7500000000000000000, 0.1999999999999993200, -1.749999999999999600 ) ) ;
#979 = PRODUCT_DEFINITION ( 'UNKNOWN', '', #263, #1045 ) ;
#980 = CARTESIAN_POINT ( 'NONE',  ( 0.7500000000000000000, 0.1999999999999993200, -2.799999999999999800 ) ) ;
#981 = EDGE_CURVE ( 'NONE', #560, #68, #84, .T. ) ;
#982 = DIRECTION ( 'NONE',  ( -0.0000000000000000000, 1.000000000000000000, -0.0000000000000000000 ) ) ;
#983 = ORIENTED_EDGE ( 'NONE', *, *, #940, .T. ) ;
#984 = PRESENTATION_LAYER_ASSIGNMENT (  '', '', ( #490 ) ) ;
#985 = ORIENTED_EDGE ( 'NONE', *, *, #94, .F. ) ;
#986 = VECTOR ( 'NONE', #184, 1000.000000000000000 ) ;
#987 = CLOSED_SHELL ( 'NONE', ( #474, #1168, #1237, #430, #520, #724, #952, #819, #619 ) ) ;
#988 = EDGE_CURVE ( 'NONE', #932, #657, #1255, .T. ) ;
#989 = ORIENTED_EDGE ( 'NONE', *, *, #1087, .T. ) ;
#990 = DIRECTION ( 'NONE',  ( 1.000000000000000000, 0.0000000000000000000, 0.0000000000000000000 ) ) ;
#991 = VECTOR ( 'NONE', #761, 1000.000000000000000 ) ;
#992 = VERTEX_POINT ( 'NONE', #931 ) ;
#993 = CARTESIAN_POINT ( 'NONE',  ( 2.700000000000000200, 3.888173308223879500E-016, -2.600000000000000500 ) ) ;
#994 = SURFACE_STYLE_USAGE ( .BOTH. , #1084 ) ;
#995 = CARTESIAN_POINT ( 'NONE',  ( 0.7500000000000000000, 0.1999999999999993200, -2.799999999999999800 ) ) ;
#996 = DIRECTION ( 'NONE',  ( -1.000000000000000000, -0.0000000000000000000, 0.0000000000000000000 ) ) ;
#997 = ORIENTED_EDGE ( 'NONE', *, *, #119, .T. ) ;
#998 = CARTESIAN_POINT ( 'NONE',  ( -0.8158443170159626100, 0.1999999999999992300, 1.541947808078635700 ) ) ;
#999 = EDGE_CURVE ( 'NONE', #610, #992, #592, .T. ) ;
#1000 = CARTESIAN_POINT ( 'NONE',  ( -0.7500000000000000000, 0.1999999999999993200, 2.799999999999999800 ) ) ;
#1001 = PLANE ( 'NONE',  #1208 ) ;
#1002 = FACE_OUTER_BOUND ( 'NONE', #1082, .T. ) ;
#1003 = DIRECTION ( 'NONE',  ( 0.0000000000000000000, 0.0000000000000000000, 1.000000000000000000 ) ) ;
#1004 = ORIENTED_EDGE ( 'NONE', *, *, #460, .T. ) ;
#1005 = LINE ( 'NONE', #881, #842 ) ;
#1006 = DIRECTION ( 'NONE',  ( 0.0000000000000000000, 0.0000000000000000000, -1.000000000000000000 ) ) ;
#1007 = ORIENTED_EDGE ( 'NONE', *, *, #15, .F. ) ;
#1008 = LINE ( 'NONE', #140, #133 ) ;
#1009 = DIRECTION ( 'NONE',  ( 0.0000000000000000000, 0.0000000000000000000, 1.000000000000000000 ) ) ;
#1010 = CARTESIAN_POINT ( 'NONE',  ( 0.7500000000000000000, 0.1999999999999993400, 2.999999999999999600 ) ) ;
#1011 = CARTESIAN_POINT ( 'NONE',  ( -0.8158443170159626100, 2.466400822762891700, -2.999999999999999100 ) ) ;
#1012 = AXIS2_PLACEMENT_3D ( 'NONE', #286, #488, #89 ) ;
#1013 = APPLICATION_CONTEXT ( 'automotive_design' ) ;
#1014 = ORIENTED_EDGE ( 'NONE', *, *, #510, .T. ) ;
#1015 = VERTEX_POINT ( 'NONE', #327 ) ;
#1016 = CARTESIAN_POINT ( 'NONE',  ( 0.7500000000000000000, 0.1999999999999993400, 2.999999999999999600 ) ) ;
#1017 = EDGE_CURVE ( 'NONE', #943, #254, #772, .T. ) ;
#1018 = ORIENTED_EDGE ( 'NONE', *, *, #546, .F. ) ;
#1019 = CIRCLE ( 'NONE', #1245, 0.1999999999999996500 ) ;
#1020 = ORIENTED_EDGE ( 'NONE', *, *, #642, .F. ) ;
#1021 = FACE_OUTER_BOUND ( 'NONE', #275, .T. ) ;
#1022 = EDGE_CURVE ( 'NONE', #852, #560, #823, .T. ) ;
#1023 = DIRECTION ( 'NONE',  ( -0.0000000000000000000, -1.000000000000000000, -1.500458363707617900E-016 ) ) ;
#1024 = VERTEX_POINT ( 'NONE', #645 ) ;
#1025 = EDGE_LOOP ( 'NONE', ( #466, #314, #19, #307 ) ) ;
#1026 = CARTESIAN_POINT ( 'NONE',  ( 0.7500000000000000000, 0.1999999999999993200, 2.799999999999999800 ) ) ;
#1027 = AXIS2_PLACEMENT_3D ( 'NONE', #787, #472, #202 ) ;
#1028 = CARTESIAN_POINT ( 'NONE',  ( -0.7009486741407179300, 0.1999999999999992300, 1.427052165203391000 ) ) ;
#1029 = DIRECTION ( 'NONE',  ( 0.0000000000000000000, 1.000000000000000000, -3.355863867217036200E-016 ) ) ;
#1030 = CARTESIAN_POINT ( 'NONE',  ( -0.7500000000000000000, 0.1999999999999993200, 1.749999999999999600 ) ) ;
#1031 = VECTOR ( 'NONE', #718, 1000.000000000000000 ) ;
#1032 = VECTOR ( 'NONE', #1034, 1000.000000000000000 ) ;
#1033 = ORIENTED_EDGE ( 'NONE', *, *, #721, .T. ) ;
#1034 = DIRECTION ( 'NONE',  ( -1.000000000000000000, -0.0000000000000000000, -0.0000000000000000000 ) ) ;
#1035 = LINE ( 'NONE', #1263, #185 ) ;
#1036 = CARTESIAN_POINT ( 'NONE',  ( 0.8158443170159626100, 0.1999999999999992300, -2.999999999999997300 ) ) ;
#1037 = DIRECTION ( 'NONE',  ( 0.0000000000000000000, 1.495451272393799300E-016, -1.000000000000000000 ) ) ;
#1038 = AXIS2_PLACEMENT_3D ( 'NONE', #1148, #138, #431 ) ;
#1039 = DIRECTION ( 'NONE',  ( 0.0000000000000000000, -1.500458363707617900E-016, 1.000000000000000000 ) ) ;
#1040 = LINE ( 'NONE', #816, #762 ) ;
#1041 = DIRECTION ( 'NONE',  ( 0.0000000000000000000, 1.000000000000000000, -5.421010862427520200E-016 ) ) ;
#1042 = EDGE_CURVE ( 'NONE', #1077, #318, #559, .T. ) ;
#1043 = CARTESIAN_POINT ( 'NONE',  ( 0.7500000000000000000, 0.1999999999999993200, -1.749999999999999600 ) ) ;
#1044 = DIRECTION ( 'NONE',  ( -0.0000000000000000000, 1.000000000000000000, 1.495451272393799300E-016 ) ) ;
#1045 = PRODUCT_DEFINITION_CONTEXT ( 'detailed design', #1013, 'design' ) ;
#1046 = DIRECTION ( 'NONE',  ( -0.0000000000000000000, 1.000000000000000000, -0.0000000000000000000 ) ) ;
#1047 = ORIENTED_EDGE ( 'NONE', *, *, #343, .F. ) ;
#1048 = EDGE_CURVE ( 'NONE', #500, #1053, #901, .T. ) ;
#1049 = DIRECTION ( 'NONE',  ( 0.0000000000000000000, 0.0000000000000000000, -1.000000000000000000 ) ) ;
#1050 = PRESENTATION_STYLE_ASSIGNMENT (( #994 ) ) ;
#1051 = ORIENTED_EDGE ( 'NONE', *, *, #678, .F. ) ;
#1052 = FACE_OUTER_BOUND ( 'NONE', #45, .T. ) ;
#1053 = VERTEX_POINT ( 'NONE', #262 ) ;
#1054 = LINE ( 'NONE', #1088, #856 ) ;
#1055 = ORIENTED_EDGE ( 'NONE', *, *, #315, .F. ) ;
#1056 = AXIS2_PLACEMENT_3D ( 'NONE', #159, #655, #849 ) ;
#1057 = DIRECTION ( 'NONE',  ( 0.0000000000000000000, 1.000000000000000000, 1.495451272393799300E-016 ) ) ;
#1058 = ORIENTED_EDGE ( 'NONE', *, *, #1238, .T. ) ;
#1059 = EDGE_CURVE ( 'NONE', #438, #266, #365, .T. ) ;
#1060 = VERTEX_POINT ( 'NONE', #1251 ) ;
#1061 = DIRECTION ( 'NONE',  ( 0.0000000000000000000, -1.000000000000000000, -1.495451272393799300E-016 ) ) ;
#1062 = EDGE_CURVE ( 'NONE', #56, #222, #240, .T. ) ;
#1063 =( NAMED_UNIT ( * ) PLANE_ANGLE_UNIT ( ) SI_UNIT ( $, .RADIAN. ) );
#1064 = CARTESIAN_POINT ( 'NONE',  ( 2.500000000000000000, -3.888173308223876500E-016, 2.599999999999999200 ) ) ;
#1065 = CARTESIAN_POINT ( 'NONE',  ( -0.7500000000000000000, 0.1999999999999993200, -1.749999999999999600 ) ) ;
#1066 = LINE ( 'NONE', #980, #742 ) ;
#1067 = EDGE_CURVE ( 'NONE', #208, #1219, #757, .T. ) ;
#1068 = ORIENTED_EDGE ( 'NONE', *, *, #166, .F. ) ;
#1069 = LINE ( 'NONE', #624, #822 ) ;
#1070 = CARTESIAN_POINT ( 'NONE',  ( -0.7500000000000000000, 1.199999999999999300, 2.799999999999999400 ) ) ;
#1071 = LINE ( 'NONE', #975, #1 ) ;
#1072 = ADVANCED_FACE ( 'NONE', ( #55 ), #28, .F. ) ;
#1073 = CARTESIAN_POINT ( 'NONE',  ( 0.7500000000000000000, 1.199999999999999300, 2.799999999999999400 ) ) ;
#1074 = DIRECTION ( 'NONE',  ( -0.0000000000000000000, 4.336808689942017700E-016, 1.000000000000000000 ) ) ;
#1075 = CARTESIAN_POINT ( 'NONE',  ( 0.7500000000000000000, 0.1999999999999993200, -1.749999999999999600 ) ) ;
#1076 = ORIENTED_EDGE ( 'NONE', *, *, #50, .T. ) ;
#1077 = VERTEX_POINT ( 'NONE', #121 ) ;
#1078 = CARTESIAN_POINT ( 'NONE',  ( 0.7500000000000000000, -3.523657060577889400E-016, -2.799999999999999800 ) ) ;
#1079 = AXIS2_PLACEMENT_3D ( 'NONE', #1276, #373, #482 ) ;
#1080 = ADVANCED_FACE ( 'NONE', ( #942 ), #418, .T. ) ;
#1081 = DIRECTION ( 'NONE',  ( 1.000000000000000000, 0.0000000000000000000, 0.0000000000000000000 ) ) ;
#1082 = EDGE_LOOP ( 'NONE', ( #758, #253, #217, #902 ) ) ;
#1083 = VERTEX_POINT ( 'NONE', #524 ) ;
#1084 = SURFACE_SIDE_STYLE ('',( #786 ) ) ;
#1085 = ORIENTED_EDGE ( 'NONE', *, *, #981, .T. ) ;
#1086 = VECTOR ( 'NONE', #468, 1000.000000000000000 ) ;
#1087 = EDGE_CURVE ( 'NONE', #939, #193, #573, .T. ) ;
#1088 = CARTESIAN_POINT ( 'NONE',  ( 2.700000000000000200, 0.1999999999999992300, -2.800000000000000700 ) ) ;
#1089 = VERTEX_POINT ( 'NONE', #1028 ) ;
#1090 = EDGE_CURVE ( 'NONE', #943, #1188, #180, .T. ) ;
#1091 = DIRECTION ( 'NONE',  ( 0.0000000000000000000, -1.487192541519087900E-016, 1.000000000000000000 ) ) ;
#1092 = ORIENTED_EDGE ( 'NONE', *, *, #618, .F. ) ;
#1093 = PLANE ( 'NONE',  #456 ) ;
#1094 = LINE ( 'NONE', #1036, #626 ) ;
#1095 = VECTOR ( 'NONE', #40, 1000.000000000000000 ) ;
#1096 = EDGE_LOOP ( 'NONE', ( #364, #1047, #227, #985, #436, #644, #541 ) ) ;
#1097 = CARTESIAN_POINT ( 'NONE',  ( 2.500000000000000000, 3.000000000000000400, -2.800000000000000300 ) ) ;
#1098 = LINE ( 'NONE', #993, #888 ) ;
#1099 = ORIENTED_EDGE ( 'NONE', *, *, #678, .T. ) ;
#1100 = LINE ( 'NONE', #961, #1218 ) ;
#1101 = COLOUR_RGB ( '',1.000000000000000000, 1.000000000000000000, 1.000000000000000000 ) ;
#1102 = CARTESIAN_POINT ( 'NONE',  ( -0.7009486741407179300, 2.466400822762891700, -1.541947808078635100 ) ) ;
#1103 = CARTESIAN_POINT ( 'NONE',  ( -0.7009486741407179300, 0.09999999999999968600, 1.541947808078635500 ) ) ;
#1104 = CARTESIAN_POINT ( 'NONE',  ( -0.7500000000000000000, 0.9999999999999995600, 2.999999999999999100 ) ) ;
#1105 = EDGE_CURVE ( 'NONE', #915, #681, #101, .T. ) ;
#1106 = EDGE_LOOP ( 'NONE', ( #1115, #594, #241, #515, #711, #922, #447, #383 ) ) ;
#1107 = DIRECTION ( 'NONE',  ( 0.0000000000000000000, 0.0000000000000000000, -1.000000000000000000 ) ) ;
#1108 = DIRECTION ( 'NONE',  ( -1.000000000000000000, -0.0000000000000000000, 0.0000000000000000000 ) ) ;
#1109 = AXIS2_PLACEMENT_3D ( 'NONE', #1043, #536, #838 ) ;
#1110 = VECTOR ( 'NONE', #377, 1000.000000000000000 ) ;
#1111 = ORIENTED_EDGE ( 'NONE', *, *, #1087, .F. ) ;
#1112 = EDGE_LOOP ( 'NONE', ( #538, #1169, #1099, #670 ) ) ;
#1113 = FACE_OUTER_BOUND ( 'NONE', #412, .T. ) ;
#1114 = CARTESIAN_POINT ( 'NONE',  ( -0.7009486741407179300, 0.1999999999999992300, 1.427052165203391000 ) ) ;
#1115 = ORIENTED_EDGE ( 'NONE', *, *, #831, .F. ) ;
#1116 = PLANE ( 'NONE',  #496 ) ;
#1117 =( GEOMETRIC_REPRESENTATION_CONTEXT ( 3 ) GLOBAL_UNCERTAINTY_ASSIGNED_CONTEXT ( ( #788 ) ) GLOBAL_UNIT_ASSIGNED_CONTEXT ( ( #795, #83, #300 ) ) REPRESENTATION_CONTEXT ( 'NONE', 'WORKASPACE' ) );
#1118 = CARTESIAN_POINT ( 'NONE',  ( 2.500000000000000000, 0.1000000000000003400, -2.800000000000000700 ) ) ;
#1119 = DIRECTION ( 'NONE',  ( 0.0000000000000000000, -1.000000000000000000, -1.500458363707617900E-016 ) ) ;
#1120 = ADVANCED_FACE ( 'NONE', ( #465 ), #1241, .F. ) ;
#1121 = FACE_OUTER_BOUND ( 'NONE', #696, .T. ) ;
#1122 = CIRCLE ( 'NONE', #654, 0.1999999999999992300 ) ;
#1123 = EDGE_CURVE ( 'NONE', #132, #1141, #1138, .T. ) ;
#1124 = FACE_OUTER_BOUND ( 'NONE', #866, .T. ) ;
#1125 = ORIENTED_EDGE ( 'NONE', *, *, #166, .T. ) ;
#1126 = CARTESIAN_POINT ( 'NONE',  ( 0.7009486741407179300, 0.1999999999999992300, -1.541947808078634600 ) ) ;
#1127 = VECTOR ( 'NONE', #806, 1000.000000000000000 ) ;
#1128 = ADVANCED_FACE ( 'NONE', ( #207 ), #345, .F. ) ;
#1129 = EDGE_CURVE ( 'NONE', #1247, #1213, #219, .T. ) ;
#1130 = DIRECTION ( 'NONE',  ( -0.0000000000000000000, -1.000000000000000000, -1.500458363707617900E-016 ) ) ;
#1131 = VERTEX_POINT ( 'NONE', #598 ) ;
#1132 = CARTESIAN_POINT ( 'NONE',  ( 0.7500000000000000000, 0.1999999999999993400, -2.999999999999999600 ) ) ;
#1133 = EDGE_CURVE ( 'NONE', #852, #222, #1066, .T. ) ;
#1134 = DIRECTION ( 'NONE',  ( -1.000000000000000000, -0.0000000000000000000, -0.0000000000000000000 ) ) ;
#1135 = VERTEX_POINT ( 'NONE', #297 ) ;
#1136 = LINE ( 'NONE', #854, #251 ) ;
#1137 = CARTESIAN_POINT ( 'NONE',  ( -0.7009486741407179300, 0.09999999999999970000, 1.427052165203391000 ) ) ;
#1138 = LINE ( 'NONE', #765, #1110 ) ;
#1139 = ORIENTED_EDGE ( 'NONE', *, *, #721, .F. ) ;
#1140 = PLANE ( 'NONE',  #848 ) ;
#1141 = VERTEX_POINT ( 'NONE', #572 ) ;
#1142 = CARTESIAN_POINT ( 'NONE',  ( 0.8158443170159626100, 0.1999999999999992300, -1.541947808078634200 ) ) ;
#1143 = AXIS2_PLACEMENT_3D ( 'NONE', #411, #235, #11 ) ;
#1144 = ORIENTED_EDGE ( 'NONE', *, *, #642, .T. ) ;
#1145 = LINE ( 'NONE', #209, #188 ) ;
#1146 = DIRECTION ( 'NONE',  ( -1.000000000000000000, -0.0000000000000000000, 0.0000000000000000000 ) ) ;
#1147 = CARTESIAN_POINT ( 'NONE',  ( -0.7500000000000000000, 0.9999999999999997800, -2.799999999999999800 ) ) ;
#1148 = CARTESIAN_POINT ( 'NONE',  ( 0.7500000000000000000, 0.1999999999999993200, 2.799999999999999800 ) ) ;
#1149 = VERTEX_POINT ( 'NONE', #96 ) ;
#1150 = ADVANCED_FACE ( 'NONE', ( #145 ), #1001, .F. ) ;
#1151 = AXIS2_PLACEMENT_3D ( 'NONE', #93, #239, #526 ) ;
#1152 = AXIS2_PLACEMENT_3D ( 'NONE', #440, #934, #641 ) ;
#1153 = ORIENTED_EDGE ( 'NONE', *, *, #525, .F. ) ;
#1154 = EDGE_CURVE ( 'NONE', #302, #898, #379, .T. ) ;
#1155 = ADVANCED_FACE ( 'NONE', ( #1121 ), #557, .F. ) ;
#1156 = ORIENTED_EDGE ( 'NONE', *, *, #256, .T. ) ;
#1157 = VECTOR ( 'NONE', #425, 1000.000000000000000 ) ;
#1158 = LINE ( 'NONE', #1223, #1032 ) ;
#1159 = DIRECTION ( 'NONE',  ( 0.0000000000000000000, -1.000000000000000000, -5.421010862427520200E-016 ) ) ;
#1160 = ORIENTED_EDGE ( 'NONE', *, *, #940, .F. ) ;
#1161 = CIRCLE ( 'NONE', #585, 0.1148956428752446300 ) ;
#1162 = ORIENTED_EDGE ( 'NONE', *, *, #1235, .T. ) ;
#1163 = AXIS2_PLACEMENT_3D ( 'NONE', #8, #1189, #509 ) ;
#1164 = LINE ( 'NONE', #118, #794 ) ;
#1165 = CARTESIAN_POINT ( 'NONE',  ( 0.7500000000000000000, 0.1999999999999993200, -1.749999999999999600 ) ) ;
#1166 = ORIENTED_EDGE ( 'NONE', *, *, #928, .F. ) ;
#1167 = AXIS2_PLACEMENT_3D ( 'NONE', #1102, #3, #611 ) ;
#1168 = ADVANCED_FACE ( 'NONE', ( #316 ), #783, .F. ) ;
#1169 = ORIENTED_EDGE ( 'NONE', *, *, #66, .T. ) ;
#1170 = CARTESIAN_POINT ( 'NONE',  ( -0.7009486741407179300, 2.466400822762891700, -1.427052165203390500 ) ) ;
#1171 = EDGE_CURVE ( 'NONE', #547, #302, #953, .T. ) ;
#1172 = ORIENTED_EDGE ( 'NONE', *, *, #349, .T. ) ;
#1173 = ORIENTED_EDGE ( 'NONE', *, *, #510, .F. ) ;
#1174 = ADVANCED_FACE ( 'NONE', ( #1002 ), #117, .F. ) ;
#1175 = LINE ( 'NONE', #903, #907 ) ;
#1176 = DIRECTION ( 'NONE',  ( -0.0000000000000000000, 1.000000000000000000, 1.548860246407863800E-016 ) ) ;
#1177 = VECTOR ( 'NONE', #865, 1000.000000000000000 ) ;
#1178 = ORIENTED_EDGE ( 'NONE', *, *, #590, .F. ) ;
#1179 = CARTESIAN_POINT ( 'NONE',  ( 0.7500000000000000000, 0.1999999999999993200, 2.799999999999999800 ) ) ;
#1180 = CARTESIAN_POINT ( 'NONE',  ( 0.7009486741407179300, 2.466400822762891700, -1.541947808078634200 ) ) ;
#1181 = EDGE_LOOP ( 'NONE', ( #479, #1178, #18, #503 ) ) ;
#1182 = AXIS2_PLACEMENT_3D ( 'NONE', #1180, #589, #687 ) ;
#1183 = LINE ( 'NONE', #813, #726 ) ;
#1184 = ORIENTED_EDGE ( 'NONE', *, *, #955, .F. ) ;
#1185 = CARTESIAN_POINT ( 'NONE',  ( -2.499999999999997800, 2.999999999999999600, 2.799999999999999400 ) ) ;
#1186 = ORIENTED_EDGE ( 'NONE', *, *, #899, .T. ) ;
#1187 = VECTOR ( 'NONE', #938, 1000.000000000000000 ) ;
#1188 = VERTEX_POINT ( 'NONE', #1016 ) ;
#1189 = DIRECTION ( 'NONE',  ( -1.000000000000000000, -0.0000000000000000000, -0.0000000000000000000 ) ) ;
#1190 = FACE_OUTER_BOUND ( 'NONE', #450, .T. ) ;
#1191 = EDGE_CURVE ( 'NONE', #657, #208, #350, .T. ) ;
#1192 = CARTESIAN_POINT ( 'NONE',  ( 0.7500000000000000000, 0.1999999999999993400, 2.999999999999999600 ) ) ;
#1193 = EDGE_CURVE ( 'NONE', #103, #1089, #123, .T. ) ;
#1194 = DIRECTION ( 'NONE',  ( -1.000000000000000000, 0.0000000000000000000, 6.187055985601862100E-016 ) ) ;
#1195 = CARTESIAN_POINT ( 'NONE',  ( 2.700000000000000200, 3.000000000000000400, -2.800000000000000300 ) ) ;
#1196 = CARTESIAN_POINT ( 'NONE',  ( 0.8158443170159626100, 2.466400822762890900, 2.999999999999998200 ) ) ;
#1197 = VERTEX_POINT ( 'NONE', #1224 ) ;
#1198 = VECTOR ( 'NONE', #554, 1000.000000000000000 ) ;
#1199 = ORIENTED_EDGE ( 'NONE', *, *, #1238, .F. ) ;
#1200 = EDGE_CURVE ( 'NONE', #714, #211, #1183, .T. ) ;
#1201 = MANIFOLD_SOLID_BREP ( 'Boss-Extrude2', #296 ) ;
#1202 = CARTESIAN_POINT ( 'NONE',  ( -0.7009486741407179300, 0.1000000000000001400, -1.427052165203391000 ) ) ;
#1203 = ORIENTED_EDGE ( 'NONE', *, *, #175, .T. ) ;
#1204 = VECTOR ( 'NONE', #963, 1000.000000000000000 ) ;
#1205 = CARTESIAN_POINT ( 'NONE',  ( 0.7500000000000000000, 0.0000000000000000000, -1.749999999999999600 ) ) ;
#1206 = DIRECTION ( 'NONE',  ( -1.000000000000000000, -0.0000000000000000000, -0.0000000000000000000 ) ) ;
#1207 = DIRECTION ( 'NONE',  ( -0.0000000000000000000, 1.487192541519087000E-016, -1.000000000000000000 ) ) ;
#1208 = AXIS2_PLACEMENT_3D ( 'NONE', #606, #1275, #1107 ) ;
#1209 = VERTEX_POINT ( 'NONE', #1118 ) ;
#1210 = CARTESIAN_POINT ( 'NONE',  ( 2.700000000000000200, 0.09999999999999953400, 2.599999999999999600 ) ) ;
#1211 = AXIS2_PLACEMENT_3D ( 'NONE', #1011, #800, #305 ) ;
#1212 = ORIENTED_EDGE ( 'NONE', *, *, #238, .T. ) ;
#1213 = VERTEX_POINT ( 'NONE', #805 ) ;
#1214 = FACE_OUTER_BOUND ( 'NONE', #106, .T. ) ;
#1215 = CARTESIAN_POINT ( 'NONE',  ( -2.499999999999999600, 2.999999999999999600, 2.599999999999999600 ) ) ;
#1216 = EDGE_CURVE ( 'NONE', #547, #1077, #528, .T. ) ;
#1217 = ORIENTED_EDGE ( 'NONE', *, *, #349, .F. ) ;
#1218 = VECTOR ( 'NONE', #463, 1000.000000000000000 ) ;
#1219 = VERTEX_POINT ( 'NONE', #25 ) ;
#1220 = DIRECTION ( 'NONE',  ( -0.0000000000000000000, 1.000000000000000000, 1.548860246407863800E-016 ) ) ;
#1221 = DIRECTION ( 'NONE',  ( -0.0000000000000000000, 1.000000000000000000, -0.0000000000000000000 ) ) ;
#1222 = ADVANCED_FACE ( 'NONE', ( #967 ), #1278, .T. ) ;
#1223 = CARTESIAN_POINT ( 'NONE',  ( 0.7500000000000000000, 0.1999999999999993200, 2.799999999999999800 ) ) ;
#1224 = CARTESIAN_POINT ( 'NONE',  ( -0.7500000000000000000, -3.523657060577889400E-016, 2.799999999999999800 ) ) ;
#1225 = DIRECTION ( 'NONE',  ( 1.000000000000000000, 0.0000000000000000000, 6.187055985601862100E-016 ) ) ;
#1226 = DIRECTION ( 'NONE',  ( 0.0000000000000000000, 0.0000000000000000000, 1.000000000000000000 ) ) ;
#1227 = VECTOR ( 'NONE', #161, 1000.000000000000000 ) ;
#1228 = ADVANCED_FACE ( 'NONE', ( #755 ), #652, .F. ) ;
#1229 = CARTESIAN_POINT ( 'NONE',  ( 0.7500000000000000000, 0.1999999999999993200, 2.799999999999999800 ) ) ;
#1230 = AXIS2_PLACEMENT_3D ( 'NONE', #216, #308, #366 ) ;
#1231 = ORIENTED_EDGE ( 'NONE', *, *, #15, .T. ) ;
#1232 = FACE_OUTER_BOUND ( 'NONE', #1112, .T. ) ;
#1233 = ORIENTED_EDGE ( 'NONE', *, *, #81, .F. ) ;
#1234 = FACE_OUTER_BOUND ( 'NONE', #807, .T. ) ;
#1235 = EDGE_CURVE ( 'NONE', #1209, #438, #710, .T. ) ;
#1236 = DIRECTION ( 'NONE',  ( -1.000000000000000000, -0.0000000000000000000, 0.0000000000000000000 ) ) ;
#1237 = ADVANCED_FACE ( 'NONE', ( #206 ), #237, .F. ) ;
#1238 = EDGE_CURVE ( 'NONE', #222, #704, #497, .T. ) ;
#1239 = EDGE_CURVE ( 'NONE', #511, #165, #29, .T. ) ;
#1240 = ORIENTED_EDGE ( 'NONE', *, *, #357, .T. ) ;
#1241 = PLANE ( 'NONE',  #1056 ) ;
#1242 = ORIENTED_EDGE ( 'NONE', *, *, #549, .T. ) ;
#1243 = SURFACE_STYLE_FILL_AREA ( #393 ) ;
#1244 = ORIENTED_EDGE ( 'NONE', *, *, #360, .F. ) ;
#1245 = AXIS2_PLACEMENT_3D ( 'NONE', #102, #802, #317 ) ;
#1246 = FACE_OUTER_BOUND ( 'NONE', #563, .T. ) ;
#1247 = VERTEX_POINT ( 'NONE', #362 ) ;
#1248 = DIRECTION ( 'NONE',  ( -0.0000000000000000000, -1.000000000000000000, 5.421010862427520200E-016 ) ) ;
#1249 = LINE ( 'NONE', #1250, #991 ) ;
#1250 = CARTESIAN_POINT ( 'NONE',  ( -0.8158443170159626100, 2.466400822762891700, -1.541947808078635100 ) ) ;
#1251 = CARTESIAN_POINT ( 'NONE',  ( 0.7500000000000000000, 0.0000000000000000000, -1.749999999999999600 ) ) ;
#1252 = AXIS2_PLACEMENT_3D ( 'NONE', #143, #929, #723 ) ;
#1253 = FILL_AREA_STYLE_COLOUR ( '', #1101 ) ;
#1254 = EDGE_CURVE ( 'NONE', #1024, #681, #12, .T. ) ;
#1255 = CIRCLE ( 'NONE', #801, 0.1148956428752446300 ) ;
#1256 = ORIENTED_EDGE ( 'NONE', *, *, #981, .F. ) ;
#1257 = ORIENTED_EDGE ( 'NONE', *, *, #1022, .F. ) ;
#1258 = VECTOR ( 'NONE', #622, 1000.000000000000000 ) ;
#1259 =( NAMED_UNIT ( * ) PLANE_ANGLE_UNIT ( ) SI_UNIT ( $, .RADIAN. ) );
#1260 = VECTOR ( 'NONE', #1248, 1000.000000000000000 ) ;
#1261 = DIRECTION ( 'NONE',  ( 0.0000000000000000000, 1.000000000000000000, 5.421010862427520200E-016 ) ) ;
#1262 = ORIENTED_EDGE ( 'NONE', *, *, #4, .F. ) ;
#1263 = CARTESIAN_POINT ( 'NONE',  ( 0.7500000000000000000, 0.1999999999999993200, 2.799999999999999800 ) ) ;
#1264 = ORIENTED_EDGE ( 'NONE', *, *, #1154, .F. ) ;
#1265 = DIRECTION ( 'NONE',  ( 0.0000000000000000000, -1.355252715606879800E-016, 1.000000000000000000 ) ) ;
#1266 = VECTOR ( 'NONE', #229, 1000.000000000000000 ) ;
#1267 = ORIENTED_EDGE ( 'NONE', *, *, #279, .T. ) ;
#1268 = ORIENTED_EDGE ( 'NONE', *, *, #408, .T. ) ;
#1269 = AXIS2_PLACEMENT_3D ( 'NONE', #1026, #833, #312 ) ;
#1270 = ORIENTED_EDGE ( 'NONE', *, *, #1133, .F. ) ;
#1271 = DIRECTION ( 'NONE',  ( 0.0000000000000000000, 0.0000000000000000000, -1.000000000000000000 ) ) ;
#1272 = CARTESIAN_POINT ( 'NONE',  ( 0.8158443170159626100, 0.1000000000000003700, -2.999999999999997800 ) ) ;
#1273 = EDGE_CURVE ( 'NONE', #939, #208, #1136, .T. ) ;
#1274 = ORIENTED_EDGE ( 'NONE', *, *, #1042, .T. ) ;
#1275 = DIRECTION ( 'NONE',  ( 1.000000000000000000, 0.0000000000000000000, 0.0000000000000000000 ) ) ;
#1276 = CARTESIAN_POINT ( 'NONE',  ( -2.499999999999999600, 0.1000000000000002600, -2.600000000000000500 ) ) ;
#1277 = DIRECTION ( 'NONE',  ( -1.000000000000000000, -0.0000000000000000000, -0.0000000000000000000 ) ) ;
#1278 = CYLINDRICAL_SURFACE ( 'NONE', #965, 0.2000000000000000900 ) ;
#1279 = VECTOR ( 'NONE', #535, 1000.000000000000000 ) ;
#1280 = EDGE_LOOP ( 'NONE', ( #1264, #457, #1162, #937, #1018, #71, #1033, #171 ) ) ;
#1281 = VECTOR ( 'NONE', #966, 1000.000000000000000 ) ;
#1282 = CARTESIAN_POINT ( 'NONE',  ( 0.8158443170159626100, 0.1999999999999992300, -2.800000000000000700 ) ) ;
ENDSEC;
END-ISO-10303-21;
