ISO-10303-21;
HEADER;
FILE_DESCRIPTION (( 'STEP AP214' ),
    '1' );
FILE_NAME ('WSLF25121L500FEA.STEP',
    '2023-12-10T13:02:58',
    ( '' ),
    ( '' ),
    'SwSTEP 2.0',
    'SolidWorks 2023',
    '' );
FILE_SCHEMA (( 'AUTOMOTIVE_DESIGN' ));
ENDSEC;

DATA;
#1 = CARTESIAN_POINT ( 'NONE',  ( 1.498600000000000154, 3.174999999999999378, 0.6612000000000000099 ) ) ;
#2 = SURFACE_SIDE_STYLE ('',( #690 ) ) ;
#3 = ORIENTED_EDGE ( 'NONE', *, *, #871, .T. ) ;
#4 =( NAMED_UNIT ( * ) PLANE_ANGLE_UNIT ( ) SI_UNIT ( $, .RADIAN. ) );
#5 = EDGE_CURVE ( 'NONE', #103, #335, #138, .T. ) ;
#6 = EDGE_LOOP ( 'NONE', ( #18, #632, #1080, #835 ) ) ;
#7 = CIRCLE ( 'NONE', #464, 0.1269999999999981422 ) ;
#8 = PLANE ( 'NONE',  #1195 ) ;
#9 = FACE_OUTER_BOUND ( 'NONE', #862, .T. ) ;
#10 = EDGE_LOOP ( 'NONE', ( #290, #197, #874, #542, #985, #121, #299, #400, #211, #352, #776, #455 ) ) ;
#11 = FILL_AREA_STYLE_COLOUR ( '', #707 ) ;
#12 =( GEOMETRIC_REPRESENTATION_CONTEXT ( 3 ) GLOBAL_UNCERTAINTY_ASSIGNED_CONTEXT ( ( #248 ) ) GLOBAL_UNIT_ASSIGNED_CONTEXT ( ( #625, #61, #57 ) ) REPRESENTATION_CONTEXT ( 'NONE', 'WORKASPACE' ) );
#13 = ORIENTED_EDGE ( 'NONE', *, *, #1225, .F. ) ;
#14 = EDGE_CURVE ( 'NONE', #793, #83, #219, .T. ) ;
#15 = DIRECTION ( 'NONE',  ( 0.000000000000000000, -1.000000000000000000, -0.000000000000000000 ) ) ;
#16 = VERTEX_POINT ( 'NONE', #1116 ) ;
#17 = CYLINDRICAL_SURFACE ( 'NONE', #70, 0.1269999999999999463 ) ;
#18 = ORIENTED_EDGE ( 'NONE', *, *, #541, .F. ) ;
#19 = DIRECTION ( 'NONE',  ( 0.000000000000000000, 1.000000000000000000, 0.000000000000000000 ) ) ;
#20 = LINE ( 'NONE', #977, #666 ) ;
#21 = ORIENTED_EDGE ( 'NONE', *, *, #612, .T. ) ;
#22 = CARTESIAN_POINT ( 'NONE',  ( -0.9296389959878580411, 0.000000000000000000, 0.3809999999999997833 ) ) ;
#23 = EDGE_LOOP ( 'NONE', ( #738, #624, #1024, #173, #519, #42, #802, #1166, #1074, #1145, #154, #111 ) ) ;
#24 = AXIS2_PLACEMENT_3D ( 'NONE', #313, #917, #237 ) ;
#25 = DIRECTION ( 'NONE',  ( -1.000000000000000000, 0.000000000000000000, -1.107916130763839898E-17 ) ) ;
#26 = EDGE_CURVE ( 'NONE', #289, #578, #698, .T. ) ;
#27 = AXIS2_PLACEMENT_3D ( 'NONE', #863, #772, #752 ) ;
#28 = LINE ( 'NONE', #506, #890 ) ;
#29 = EDGE_CURVE ( 'NONE', #476, #423, #302, .T. ) ;
#30 = DIRECTION ( 'NONE',  ( -1.000000000000000000, 0.000000000000000000, -0.000000000000000000 ) ) ;
#31 =( LENGTH_UNIT ( ) NAMED_UNIT ( * ) SI_UNIT ( .MILLI., .METRE. ) );
#32 = EDGE_LOOP ( 'NONE', ( #608, #929, #888, #1234 ) ) ;
#33 =( GEOMETRIC_REPRESENTATION_CONTEXT ( 3 ) GLOBAL_UNCERTAINTY_ASSIGNED_CONTEXT ( ( #1213 ) ) GLOBAL_UNIT_ASSIGNED_CONTEXT ( ( #970, #393, #715 ) ) REPRESENTATION_CONTEXT ( 'NONE', 'WORKASPACE' ) );
#34 = ORIENTED_EDGE ( 'NONE', *, *, #1136, .F. ) ;
#35 = DIRECTION ( 'NONE',  ( -1.000000000000000000, 6.810399253411078248E-81, 7.941518348716158446E-49 ) ) ;
#36 = CARTESIAN_POINT ( 'NONE',  ( 1.498600000000000154, 0.000000000000000000, 0.3810000000000000053 ) ) ;
#37 = PRESENTATION_STYLE_ASSIGNMENT (( #988 ) ) ;
#38 = CARTESIAN_POINT ( 'NONE',  ( 1.545789755157234824, 3.174999999999999822, 0.3810000000000000053 ) ) ;
#39 = ORIENTED_EDGE ( 'NONE', *, *, #172, .T. ) ;
#40 = CARTESIAN_POINT ( 'NONE',  ( -1.498600000000000154, 0.000000000000000000, 0.5461000000000000298 ) ) ;
#41 = LINE ( 'NONE', #418, #1221 ) ;
#42 = ORIENTED_EDGE ( 'NONE', *, *, #481, .T. ) ;
#43 = SURFACE_STYLE_USAGE ( .BOTH. , #225 ) ;
#44 = ORIENTED_EDGE ( 'NONE', *, *, #283, .F. ) ;
#45 = ADVANCED_FACE ( 'NONE', ( #613 ), #1183, .T. ) ;
#46 = CARTESIAN_POINT ( 'NONE',  ( 2.314685842675820115, 3.174999999999999822, 0.2687510811488479923 ) ) ;
#47 = VECTOR ( 'NONE', #217, 1000.000000000000000 ) ;
#48 = FACE_OUTER_BOUND ( 'NONE', #316, .T. ) ;
#49 = VECTOR ( 'NONE', #585, 1000.000000000000000 ) ;
#50 = ORIENTED_EDGE ( 'NONE', *, *, #592, .F. ) ;
#51 = AXIS2_PLACEMENT_3D ( 'NONE', #87, #750, #547 ) ;
#52 = EDGE_CURVE ( 'NONE', #308, #407, #56, .T. ) ;
#53 = MANIFOLD_SOLID_BREP ( 'WSLF2512 (0.0013 ohm).stp[1]', #885 ) ;
#54 = LINE ( 'NONE', #122, #621 ) ;
#55 = CARTESIAN_POINT ( 'NONE',  ( 2.168773318295595942, 3.174999999999999822, 0.4071999999999999509 ) ) ;
#56 = LINE ( 'NONE', #1011, #260 ) ;
#57 =( NAMED_UNIT ( * ) SI_UNIT ( $, .STERADIAN. ) SOLID_ANGLE_UNIT ( ) );
#58 = VERTEX_POINT ( 'NONE', #838 ) ;
#59 = EDGE_CURVE ( 'NONE', #1168, #243, #1087, .T. ) ;
#60 = CARTESIAN_POINT ( 'NONE',  ( -1.498600000000000154, 0.000000000000000000, 0.6612000000000000099 ) ) ;
#61 =( NAMED_UNIT ( * ) PLANE_ANGLE_UNIT ( ) SI_UNIT ( $, .RADIAN. ) );
#62 = ORIENTED_EDGE ( 'NONE', *, *, #1216, .F. ) ;
#63 = EDGE_CURVE ( 'NONE', #389, #1039, #1022, .T. ) ;
#64 = FILL_AREA_STYLE ('',( #1137 ) ) ;
#65 = DIRECTION ( 'NONE',  ( 0.000000000000000000, 1.000000000000000000, 0.000000000000000000 ) ) ;
#66 = ADVANCED_FACE ( 'NONE', ( #369 ), #729, .T. ) ;
#67 = ORIENTED_EDGE ( 'NONE', *, *, #155, .T. ) ;
#68 =( NAMED_UNIT ( * ) SI_UNIT ( $, .STERADIAN. ) SOLID_ANGLE_UNIT ( ) );
#69 = STYLED_ITEM ( 'NONE', ( #442 ), #196 ) ;
#70 = AXIS2_PLACEMENT_3D ( 'NONE', #886, #1184, #405 ) ;
#71 = VECTOR ( 'NONE', #932, 1000.000000000000000 ) ;
#72 = AXIS2_PLACEMENT_3D ( 'NONE', #497, #107, #964 ) ;
#73 = LINE ( 'NONE', #60, #1031 ) ;
#74 = VERTEX_POINT ( 'NONE', #833 ) ;
#75 = FACE_OUTER_BOUND ( 'NONE', #1229, .T. ) ;
#76 = CARTESIAN_POINT ( 'NONE',  ( 1.772365634663519929, 0.000000000000000000, 0.6240025612106908648 ) ) ;
#77 = DIRECTION ( 'NONE',  ( 1.107916130763839898E-17, 0.000000000000000000, -1.000000000000000000 ) ) ;
#78 = EDGE_LOOP ( 'NONE', ( #108, #13, #1191, #882 ) ) ;
#79 = CARTESIAN_POINT ( 'NONE',  ( -3.174999999999999378, 0.000000000000000000, 0.2801999999999999491 ) ) ;
#80 = EDGE_CURVE ( 'NONE', #705, #952, #170, .T. ) ;
#81 = LINE ( 'NONE', #630, #930 ) ;
#82 = LINE ( 'NONE', #655, #330 ) ;
#83 = VERTEX_POINT ( 'NONE', #175 ) ;
#84 = CARTESIAN_POINT ( 'NONE',  ( 1.498600000000000154, 3.174999999999999822, 0.6612000000000000099 ) ) ;
#85 = VECTOR ( 'NONE', #253, 1000.000000000000000 ) ;
#86 = COLOUR_RGB ( '',0.6274509803921568540, 0.6274509803921568540, 0.6274509803921568540 ) ;
#87 = CARTESIAN_POINT ( 'NONE',  ( 1.545789755157234824, 0.000000000000000000, 0.3810000000000000053 ) ) ;
#88 = VECTOR ( 'NONE', #982, 1000.000000000000114 ) ;
#89 = ORIENTED_EDGE ( 'NONE', *, *, #1133, .F. ) ;
#90 = DIRECTION ( 'NONE',  ( 0.7071067811865475727, 0.000000000000000000, 0.7071067811865475727 ) ) ;
#91 = CARTESIAN_POINT ( 'NONE',  ( 3.174999999999999822, 0.000000000000000000, 0.000000000000000000 ) ) ;
#92 = EDGE_CURVE ( 'NONE', #936, #494, #1222, .T. ) ;
#93 = CARTESIAN_POINT ( 'NONE',  ( 2.314685842675820115, 0.000000000000000000, 0.2802000000000000046 ) ) ;
#94 = VERTEX_POINT ( 'NONE', #266 ) ;
#95 = PLANE ( 'NONE',  #282 ) ;
#96 = ORIENTED_EDGE ( 'NONE', *, *, #445, .F. ) ;
#97 = LINE ( 'NONE', #1169, #262 ) ;
#98 = CARTESIAN_POINT ( 'NONE',  ( 2.078970757084904530, 3.174999999999999822, 0.3173974387893086502 ) ) ;
#99 = EDGE_CURVE ( 'NONE', #289, #680, #816, .T. ) ;
#100 = EDGE_LOOP ( 'NONE', ( #723, #978, #754, #898 ) ) ;
#101 = FILL_AREA_STYLE ('',( #860 ) ) ;
#102 = EDGE_CURVE ( 'NONE', #936, #570, #73, .T. ) ;
#103 = VERTEX_POINT ( 'NONE', #356 ) ;
#104 = VECTOR ( 'NONE', #15, 1000.000000000000000 ) ;
#105 = PRESENTATION_LAYER_ASSIGNMENT (  '', '', ( #992 ) ) ;
#106 = LINE ( 'NONE', #484, #104 ) ;
#107 = DIRECTION ( 'NONE',  ( -4.293077795037871945E-46, 5.690876648960960028E-31, 1.000000000000000000 ) ) ;
#108 = ORIENTED_EDGE ( 'NONE', *, *, #92, .T. ) ;
#109 = CARTESIAN_POINT ( 'NONE',  ( 1.498600000000000154, 0.000000000000000000, 0.6612000000000000099 ) ) ;
#110 = AXIS2_PLACEMENT_3D ( 'NONE', #928, #469, #1023 ) ;
#111 = ORIENTED_EDGE ( 'NONE', *, *, #1150, .T. ) ;
#112 = CARTESIAN_POINT ( 'NONE',  ( -1.498600000000000154, 0.000000000000000000, 0.3810000000000000053 ) ) ;
#113 = DIRECTION ( 'NONE',  ( 0.000000000000000000, 0.000000000000000000, 1.000000000000000000 ) ) ;
#114 = ORIENTED_EDGE ( 'NONE', *, *, #778, .F. ) ;
#115 = SURFACE_SIDE_STYLE ('',( #1178 ) ) ;
#116 = ORIENTED_EDGE ( 'NONE', *, *, #1068, .F. ) ;
#117 = CARTESIAN_POINT ( 'NONE',  ( -3.174999999999999378, 0.000000000000000000, -1.266348137463068840E-17 ) ) ;
#118 = CARTESIAN_POINT ( 'NONE',  ( -1.635592316367925125, 0.000000000000000000, 0.3438025612106905271 ) ) ;
#119 = ORIENTED_EDGE ( 'NONE', *, *, #404, .T. ) ;
#120 = SURFACE_SIDE_STYLE ('',( #294 ) ) ;
#121 = ORIENTED_EDGE ( 'NONE', *, *, #375, .F. ) ;
#122 = CARTESIAN_POINT ( 'NONE',  ( -1.772365634663521705, 0.000000000000000000, 0.6240025612106928632 ) ) ;
#123 =( GEOMETRIC_REPRESENTATION_CONTEXT ( 3 ) GLOBAL_UNCERTAINTY_ASSIGNED_CONTEXT ( ( #562 ) ) GLOBAL_UNIT_ASSIGNED_CONTEXT ( ( #563, #681, #556 ) ) REPRESENTATION_CONTEXT ( 'NONE', 'WORKASPACE' ) );
#124 = DIRECTION ( 'NONE',  ( -0.000000000000000000, -1.000000000000000000, -0.000000000000000000 ) ) ;
#125 = AXIS2_PLACEMENT_3D ( 'NONE', #1249, #554, #641 ) ;
#126 = DIRECTION ( 'NONE',  ( 0.000000000000000000, 1.000000000000000000, 0.000000000000000000 ) ) ;
#127 = CARTESIAN_POINT ( 'NONE',  ( 2.168773318295595942, 0.000000000000000000, 0.2802000000000000046 ) ) ;
#128 = EDGE_LOOP ( 'NONE', ( #880, #876, #1139, #278 ) ) ;
#129 = AXIS2_PLACEMENT_3D ( 'NONE', #267, #1028, #351 ) ;
#130 = VECTOR ( 'NONE', #595, 1000.000000000000000 ) ;
#131 = PLANE ( 'NONE',  #576 ) ;
#132 = PRESENTATION_STYLE_ASSIGNMENT (( #1016 ) ) ;
#133 = EDGE_CURVE ( 'NONE', #293, #394, #271, .T. ) ;
#134 = CARTESIAN_POINT ( 'NONE',  ( 1.545789755157234824, 0.000000000000000000, 0.2540000000000000036 ) ) ;
#135 = ORIENTED_EDGE ( 'NONE', *, *, #1037, .T. ) ;
#136 = VERTEX_POINT ( 'NONE', #638 ) ;
#137 = DIRECTION ( 'NONE',  ( -8.405686134351569576E-16, 0.000000000000000000, -1.000000000000000000 ) ) ;
#138 = LINE ( 'NONE', #233, #1156 ) ;
#139 = LINE ( 'NONE', #411, #1077 ) ;
#140 = ORIENTED_EDGE ( 'NONE', *, *, #628, .T. ) ;
#141 = DIRECTION ( 'NONE',  ( -0.7071067811865480168, 0.000000000000000000, 0.7071067811865470176 ) ) ;
#142 = ADVANCED_FACE ( 'NONE', ( #939 ), #1041, .T. ) ;
#143 = SURFACE_STYLE_USAGE ( .BOTH. , #1103 ) ;
#144 = DIRECTION ( 'NONE',  ( 0.000000000000000000, -0.000000000000000000, -1.000000000000000000 ) ) ;
#145 = PRESENTATION_LAYER_ASSIGNMENT (  '', '', ( #599 ) ) ;
#146 = VECTOR ( 'NONE', #856, 1000.000000000000000 ) ;
#147 = DIRECTION ( 'NONE',  ( 0.000000000000000000, 1.000000000000000000, 0.000000000000000000 ) ) ;
#148 = FACE_OUTER_BOUND ( 'NONE', #6, .T. ) ;
#149 = PRESENTATION_LAYER_ASSIGNMENT (  '', '', ( #385 ) ) ;
#150 = ORIENTED_EDGE ( 'NONE', *, *, #1163, .T. ) ;
#151 = SURFACE_SIDE_STYLE ('',( #720 ) ) ;
#152 = DIRECTION ( 'NONE',  ( 1.000000000000000000, 0.000000000000000000, 0.000000000000000000 ) ) ;
#153 = DIRECTION ( 'NONE',  ( -1.000000000000000000, 0.000000000000000000, 0.000000000000000000 ) ) ;
#154 = ORIENTED_EDGE ( 'NONE', *, *, #577, .F. ) ;
#155 = EDGE_CURVE ( 'NONE', #407, #103, #944, .T. ) ;
#156 = CARTESIAN_POINT ( 'NONE',  ( 1.498600000000000154, 0.000000000000000000, 0.6612000000000000099 ) ) ;
#157 = EDGE_CURVE ( 'NONE', #1039, #243, #914, .T. ) ;
#158 = DIRECTION ( 'NONE',  ( -0.000000000000000000, 0.000000000000000000, 1.000000000000000000 ) ) ;
#159 = LINE ( 'NONE', #1247, #995 ) ;
#160 = EDGE_LOOP ( 'NONE', ( #164, #34, #515, #3 ) ) ;
#161 = DIRECTION ( 'NONE',  ( 0.7071067811865474617, 0.000000000000000000, -0.7071067811865474617 ) ) ;
#162 = CARTESIAN_POINT ( 'NONE',  ( -1.498600000000000154, 3.174999999999999378, 0.6612000000000000099 ) ) ;
#163 = VECTOR ( 'NONE', #826, 1000.000000000000000 ) ;
#164 = ORIENTED_EDGE ( 'NONE', *, *, #375, .T. ) ;
#165 = LINE ( 'NONE', #84, #366 ) ;
#166 = VECTOR ( 'NONE', #25, 1000.000000000000000 ) ;
#167 = PRESENTATION_LAYER_ASSIGNMENT (  '', '', ( #622 ) ) ;
#168 = CARTESIAN_POINT ( 'NONE',  ( 5.648007849606931081E-49, -0.7132182513173130900, -0.001000000000000132727 ) ) ;
#169 = AXIS2_PLACEMENT_3D ( 'NONE', #409, #218, #1104 ) ;
#170 = LINE ( 'NONE', #1228, #757 ) ;
#171 = SURFACE_STYLE_FILL_AREA ( #1149 ) ;
#172 = EDGE_CURVE ( 'NONE', #335, #94, #81, .T. ) ;
#173 = ORIENTED_EDGE ( 'NONE', *, *, #851, .T. ) ;
#174 = CARTESIAN_POINT ( 'NONE',  ( 2.168773318295595942, 0.000000000000000000, 0.4071999999999999509 ) ) ;
#175 = CARTESIAN_POINT ( 'NONE',  ( 1.498600000000000154, 0.000000000000000000, 0.3810000000000000053 ) ) ;
#176 = CARTESIAN_POINT ( 'NONE',  ( 1.498600000000000154, 0.000000000000000000, 0.6612000000000000099 ) ) ;
#177 = ORIENTED_EDGE ( 'NONE', *, *, #337, .T. ) ;
#178 = PLANE ( 'NONE',  #971 ) ;
#179 = DIRECTION ( 'NONE',  ( 0.000000000000000000, 0.000000000000000000, 1.000000000000000000 ) ) ;
#180 = DIRECTION ( 'NONE',  ( -0.7071067811865475727, 0.000000000000000000, 0.7071067811865475727 ) ) ;
#181 = CARTESIAN_POINT ( 'NONE',  ( 3.174999999999999822, 0.000000000000000000, 0.000000000000000000 ) ) ;
#182 = VERTEX_POINT ( 'NONE', #538 ) ;
#183 = DIRECTION ( 'NONE',  ( 0.000000000000000000, 1.000000000000000000, 0.000000000000000000 ) ) ;
#184 = APPLICATION_CONTEXT ( 'automotive_design' ) ;
#185 = MECHANICAL_DESIGN_GEOMETRIC_PRESENTATION_REPRESENTATION (  '', ( #441 ), #483 ) ;
#186 =( GEOMETRIC_REPRESENTATION_CONTEXT ( 3 ) GLOBAL_UNCERTAINTY_ASSIGNED_CONTEXT ( ( #637 ) ) GLOBAL_UNIT_ASSIGNED_CONTEXT ( ( #1132, #1224, #68 ) ) REPRESENTATION_CONTEXT ( 'NONE', 'WORKASPACE' ) );
#187 = EDGE_CURVE ( 'NONE', #376, #1061, #533, .T. ) ;
#188 = FACE_OUTER_BOUND ( 'NONE', #975, .T. ) ;
#189 = FACE_OUTER_BOUND ( 'NONE', #731, .T. ) ;
#190 = VECTOR ( 'NONE', #380, 1000.000000000000000 ) ;
#191 = ORIENTED_EDGE ( 'NONE', *, *, #412, .T. ) ;
#192 = ORIENTED_EDGE ( 'NONE', *, *, #665, .F. ) ;
#193 = UNCERTAINTY_MEASURE_WITH_UNIT (LENGTH_MEASURE( 1.000000000000000082E-05 ), #552, 'distance_accuracy_value', 'NONE');
#194 = EDGE_CURVE ( 'NONE', #952, #308, #1219, .T. ) ;
#195 = DIRECTION ( 'NONE',  ( 0.000000000000000000, 0.000000000000000000, 1.000000000000000000 ) ) ;
#196 = ADVANCED_FACE ( 'NONE', ( #249 ), #927, .T. ) ;
#197 = ORIENTED_EDGE ( 'NONE', *, *, #592, .T. ) ;
#198 = PLANE ( 'NONE',  #601 ) ;
#199 = ORIENTED_EDGE ( 'NONE', *, *, #920, .T. ) ;
#200 = DIRECTION ( 'NONE',  ( -1.000000000000000000, 0.000000000000000000, -0.000000000000000000 ) ) ;
#201 = FACE_OUTER_BOUND ( 'NONE', #678, .T. ) ;
#202 = ADVANCED_FACE ( 'NONE', ( #285 ), #963, .T. ) ;
#203 = ORIENTED_EDGE ( 'NONE', *, *, #354, .T. ) ;
#204 = SURFACE_STYLE_USAGE ( .BOTH. , #115 ) ;
#205 = ORIENTED_EDGE ( 'NONE', *, *, #652, .F. ) ;
#206 = MECHANICAL_DESIGN_GEOMETRIC_PRESENTATION_REPRESENTATION (  '', ( #69 ), #123 ) ;
#207 = VECTOR ( 'NONE', #543, 1000.000000000000114 ) ;
#208 = DIRECTION ( 'NONE',  ( 0.000000000000000000, -1.000000000000000000, 5.690876648960960028E-31 ) ) ;
#209 = ORIENTED_EDGE ( 'NONE', *, *, #63, .F. ) ;
#210 = CIRCLE ( 'NONE', #849, 0.1269999999999999463 ) ;
#211 = ORIENTED_EDGE ( 'NONE', *, *, #337, .F. ) ;
#212 = LINE ( 'NONE', #996, #424 ) ;
#213 = DIRECTION ( 'NONE',  ( 1.000000000000000000, 0.000000000000000000, 0.000000000000000000 ) ) ;
#214 = EDGE_LOOP ( 'NONE', ( #150, #808, #135, #446 ) ) ;
#215 = VERTEX_POINT ( 'NONE', #950 ) ;
#216 = ORIENTED_EDGE ( 'NONE', *, *, #404, .F. ) ;
#217 = DIRECTION ( 'NONE',  ( -0.000000000000000000, -0.000000000000000000, -1.000000000000000000 ) ) ;
#218 = DIRECTION ( 'NONE',  ( 0.000000000000000000, 0.000000000000000000, 1.000000000000000000 ) ) ;
#219 = LINE ( 'NONE', #1203, #478 ) ;
#220 = DIRECTION ( 'NONE',  ( -0.000000000000000000, -1.000000000000000000, -0.000000000000000000 ) ) ;
#221 = VERTEX_POINT ( 'NONE', #468 ) ;
#222 = EDGE_CURVE ( 'NONE', #83, #136, #1157, .T. ) ;
#223 = CARTESIAN_POINT ( 'NONE',  ( 3.174999999999999378, 0.000000000000000000, 0.000000000000000000 ) ) ;
#224 = VECTOR ( 'NONE', #372, 1000.000000000000000 ) ;
#225 = SURFACE_SIDE_STYLE ('',( #319 ) ) ;
#226 = VERTEX_POINT ( 'NONE', #1 ) ;
#227 = DIRECTION ( 'NONE',  ( 0.000000000000000000, 0.000000000000000000, 1.000000000000000000 ) ) ;
#228 = AXIS2_PLACEMENT_3D ( 'NONE', #1193, #231, #137 ) ;
#229 = ORIENTED_EDGE ( 'NONE', *, *, #99, .F. ) ;
#230 = PRESENTATION_STYLE_ASSIGNMENT (( #143 ) ) ;
#231 = DIRECTION ( 'NONE',  ( 1.000000000000000000, 0.000000000000000000, -8.405686134351569576E-16 ) ) ;
#232 = EDGE_CURVE ( 'NONE', #647, #570, #658, .T. ) ;
#233 = CARTESIAN_POINT ( 'NONE',  ( 1.498600000000000154, 3.174999999999999822, 0.3810000000000000053 ) ) ;
#234 = ORIENTED_EDGE ( 'NONE', *, *, #232, .F. ) ;
#235 = LINE ( 'NONE', #696, #240 ) ;
#236 = DIRECTION ( 'NONE',  ( -8.405686134351569576E-16, 0.000000000000000000, -1.000000000000000000 ) ) ;
#237 = DIRECTION ( 'NONE',  ( 0.000000000000000000, 0.000000000000000000, 1.000000000000000000 ) ) ;
#238 = ORIENTED_EDGE ( 'NONE', *, *, #1239, .F. ) ;
#239 = PRESENTATION_LAYER_ASSIGNMENT (  '', '', ( #725 ) ) ;
#240 = VECTOR ( 'NONE', #594, 1000.000000000000000 ) ;
#241 = SURFACE_STYLE_FILL_AREA ( #811 ) ;
#242 = PLANE ( 'NONE',  #872 ) ;
#243 = VERTEX_POINT ( 'NONE', #306 ) ;
#244 = VECTOR ( 'NONE', #1107, 1000.000000000000000 ) ;
#245 = EDGE_CURVE ( 'NONE', #912, #1171, #976, .T. ) ;
#246 = EDGE_CURVE ( 'NONE', #474, #1188, #97, .T. ) ;
#247 = CARTESIAN_POINT ( 'NONE',  ( 3.174999999999999378, 3.174999999999999378, 0.2801999999999999491 ) ) ;
#248 = UNCERTAINTY_MEASURE_WITH_UNIT (LENGTH_MEASURE( 1.000000000000000082E-05 ), #625, 'distance_accuracy_value', 'NONE');
#249 = FACE_OUTER_BOUND ( 'NONE', #301, .T. ) ;
#250 = DIRECTION ( 'NONE',  ( 0.000000000000000000, 0.000000000000000000, 1.000000000000000000 ) ) ;
#251 = ORIENTED_EDGE ( 'NONE', *, *, #858, .F. ) ;
#252 = DIRECTION ( 'NONE',  ( -0.000000000000000000, -1.000000000000000000, -0.000000000000000000 ) ) ;
#253 = DIRECTION ( 'NONE',  ( 1.000000000000000000, -0.000000000000000000, 0.000000000000000000 ) ) ;
#254 = DIRECTION ( 'NONE',  ( -0.000000000000000000, -1.000000000000000000, 0.000000000000000000 ) ) ;
#255 = ORIENTED_EDGE ( 'NONE', *, *, #895, .F. ) ;
#256 = CARTESIAN_POINT ( 'NONE',  ( -1.498600000000000154, 0.000000000000000000, 0.6612000000000000099 ) ) ;
#257 = PRODUCT_CONTEXT ( 'NONE', #184, 'mechanical' ) ;
#258 = ADVANCED_FACE ( 'NONE', ( #188 ), #291, .T. ) ;
#259 = DIRECTION ( 'NONE',  ( 0.000000000000000000, -1.000000000000000000, -0.000000000000000000 ) ) ;
#260 = VECTOR ( 'NONE', #722, 1000.000000000000000 ) ;
#261 = DIRECTION ( 'NONE',  ( -0.000000000000000000, -1.000000000000000000, -0.000000000000000000 ) ) ;
#262 = VECTOR ( 'NONE', #1046, 1000.000000000000000 ) ;
#263 = ORIENTED_EDGE ( 'NONE', *, *, #5, .F. ) ;
#264 = CARTESIAN_POINT ( 'NONE',  ( 2.032000000000000028, 3.174999999999999822, 0.000000000000000000 ) ) ;
#265 = CYLINDRICAL_SURFACE ( 'NONE', #1243, 0.1269999999999999463 ) ;
#266 = CARTESIAN_POINT ( 'NONE',  ( 1.498600000000000154, 3.174999999999999822, 0.6612000000000000099 ) ) ;
#267 = CARTESIAN_POINT ( 'NONE',  ( -2.314685842675820115, 3.174999999999999822, 0.2687510811488479923 ) ) ;
#268 = ORIENTED_EDGE ( 'NONE', *, *, #323, .F. ) ;
#269 = FACE_OUTER_BOUND ( 'NONE', #1020, .T. ) ;
#270 = DIRECTION ( 'NONE',  ( 1.000000000000000000, 0.000000000000000000, 0.000000000000000000 ) ) ;
#271 = LINE ( 'NONE', #644, #85 ) ;
#272 = FILL_AREA_STYLE_COLOUR ( '', #916 ) ;
#273 = ORIENTED_EDGE ( 'NONE', *, *, #321, .T. ) ;
#274 = CARTESIAN_POINT ( 'NONE',  ( 1.498600000000000154, 0.000000000000000000, 0.6612000000000000099 ) ) ;
#275 = EDGE_CURVE ( 'NONE', #1114, #991, #1175, .T. ) ;
#276 =( NAMED_UNIT ( * ) SI_UNIT ( $, .STERADIAN. ) SOLID_ANGLE_UNIT ( ) );
#277 = PLANE ( 'NONE',  #287 ) ;
#278 = ORIENTED_EDGE ( 'NONE', *, *, #1014, .F. ) ;
#279 = FACE_OUTER_BOUND ( 'NONE', #1151, .T. ) ;
#280 = ADVANCED_FACE ( 'NONE', ( #1153 ), #8, .T. ) ;
#281 = VECTOR ( 'NONE', #1055, 1000.000000000000000 ) ;
#282 = AXIS2_PLACEMENT_3D ( 'NONE', #493, #881, #866 ) ;
#283 = EDGE_CURVE ( 'NONE', #1131, #760, #386, .T. ) ;
#284 =( GEOMETRIC_REPRESENTATION_CONTEXT ( 3 ) GLOBAL_UNCERTAINTY_ASSIGNED_CONTEXT ( ( #962 ) ) GLOBAL_UNIT_ASSIGNED_CONTEXT ( ( #527, #332, #604 ) ) REPRESENTATION_CONTEXT ( 'NONE', 'WORKASPACE' ) );
#285 = FACE_OUTER_BOUND ( 'NONE', #1064, .T. ) ;
#286 = FILL_AREA_STYLE ('',( #1176 ) ) ;
#287 = AXIS2_PLACEMENT_3D ( 'NONE', #682, #113, #1063 ) ;
#288 = AXIS2_PLACEMENT_3D ( 'NONE', #832, #649, #1147 ) ;
#289 = VERTEX_POINT ( 'NONE', #878 ) ;
#290 = ORIENTED_EDGE ( 'NONE', *, *, #133, .F. ) ;
#291 = PLANE ( 'NONE',  #1097 ) ;
#292 = LINE ( 'NONE', #491, #465 ) ;
#293 = VERTEX_POINT ( 'NONE', #1062 ) ;
#294 = SURFACE_STYLE_FILL_AREA ( #775 ) ;
#295 = ORIENTED_EDGE ( 'NONE', *, *, #956, .F. ) ;
#296 = LINE ( 'NONE', #425, #325 ) ;
#297 = EDGE_CURVE ( 'NONE', #774, #647, #643, .T. ) ;
#298 = DIRECTION ( 'NONE',  ( 4.293077795037871945E-46, 5.690876648960960028E-31, 1.000000000000000000 ) ) ;
#299 = ORIENTED_EDGE ( 'NONE', *, *, #636, .F. ) ;
#300 = PRESENTATION_STYLE_ASSIGNMENT (( #679 ) ) ;
#301 = EDGE_LOOP ( 'NONE', ( #119, #1162, #614, #347 ) ) ;
#302 = CIRCLE ( 'NONE', #383, 0.1270000000000001128 ) ;
#303 = VECTOR ( 'NONE', #472, 1000.000000000000000 ) ;
#304 = VECTOR ( 'NONE', #395, 1000.000000000000000 ) ;
#305 = AXIS2_PLACEMENT_3D ( 'NONE', #989, #1197, #518 ) ;
#306 = CARTESIAN_POINT ( 'NONE',  ( 1.772365634663520151, 0.000000000000000000, 0.6240025612106906427 ) ) ;
#307 = CARTESIAN_POINT ( 'NONE',  ( -3.174999999999999378, 3.174999999999999378, 0.2801999999999999491 ) ) ;
#308 = VERTEX_POINT ( 'NONE', #777 ) ;
#309 = VECTOR ( 'NONE', #748, 1000.000000000000000 ) ;
#310 = ORIENTED_EDGE ( 'NONE', *, *, #744, .F. ) ;
#311 = LINE ( 'NONE', #709, #759 ) ;
#312 = CARTESIAN_POINT ( 'NONE',  ( -2.078970757084904530, 3.175000000000000711, 0.3173974387893090943 ) ) ;
#313 = CARTESIAN_POINT ( 'NONE',  ( -1.498600000000000154, 3.174999999999999822, 0.7112000000000000544 ) ) ;
#314 = ORIENTED_EDGE ( 'NONE', *, *, #246, .T. ) ;
#315 = EDGE_CURVE ( 'NONE', #413, #548, #567, .T. ) ;
#316 = EDGE_LOOP ( 'NONE', ( #396, #1058, #664, #1198, #140, #1186 ) ) ;
#317 = LINE ( 'NONE', #434, #1032 ) ;
#318 = FACE_OUTER_BOUND ( 'NONE', #684, .T. ) ;
#319 = SURFACE_STYLE_FILL_AREA ( #902 ) ;
#320 = ORIENTED_EDGE ( 'NONE', *, *, #877, .F. ) ;
#321 = EDGE_CURVE ( 'NONE', #1188, #16, #106, .T. ) ;
#322 = VECTOR ( 'NONE', #1027, 1000.000000000000000 ) ;
#323 = EDGE_CURVE ( 'NONE', #680, #335, #296, .T. ) ;
#324 = DIRECTION ( 'NONE',  ( 0.000000000000000000, 0.000000000000000000, 1.000000000000000000 ) ) ;
#325 = VECTOR ( 'NONE', #805, 1000.000000000000000 ) ;
#326 = CARTESIAN_POINT ( 'NONE',  ( -2.314685842675820115, 0.000000000000000000, 0.2687510811488479923 ) ) ;
#327 = MECHANICAL_DESIGN_GEOMETRIC_PRESENTATION_REPRESENTATION (  '', ( #622 ), #824 ) ;
#328 = FILL_AREA_STYLE_COLOUR ( '', #557 ) ;
#329 = ORIENTED_EDGE ( 'NONE', *, *, #59, .T. ) ;
#330 = VECTOR ( 'NONE', #254, 1000.000000000000000 ) ;
#331 = DIRECTION ( 'NONE',  ( -1.000000000000000000, 0.000000000000000000, 2.315125418359550089E-16 ) ) ;
#332 =( NAMED_UNIT ( * ) PLANE_ANGLE_UNIT ( ) SI_UNIT ( $, .RADIAN. ) );
#333 = CARTESIAN_POINT ( 'NONE',  ( -1.498600000000000154, 3.174999999999999822, 0.6612000000000000099 ) ) ;
#334 = DIRECTION ( 'NONE',  ( 6.829619984160651932E-15, 0.000000000000000000, 1.000000000000000000 ) ) ;
#335 = VERTEX_POINT ( 'NONE', #809 ) ;
#336 = PLANE ( 'NONE',  #426 ) ;
#337 = EDGE_CURVE ( 'NONE', #182, #1098, #883, .T. ) ;
#338 = DIRECTION ( 'NONE',  ( 0.000000000000000000, -1.000000000000000000, 8.575689124375139816E-33 ) ) ;
#339 = CYLINDRICAL_SURFACE ( 'NONE', #1122, 0.1270000000000000018 ) ;
#340 = EDGE_LOOP ( 'NONE', ( #1029, #700, #575, #67 ) ) ;
#341 = DIRECTION ( 'NONE',  ( 0.000000000000000000, 1.000000000000000000, 0.000000000000000000 ) ) ;
#342 =( LENGTH_UNIT ( ) NAMED_UNIT ( * ) SI_UNIT ( .MILLI., .METRE. ) );
#343 = AXIS2_PLACEMENT_3D ( 'NONE', #551, #77, #747 ) ;
#344 = DIRECTION ( 'NONE',  ( 1.000000000000000000, -0.000000000000000000, 1.107916130763839898E-17 ) ) ;
#345 = DIRECTION ( 'NONE',  ( 7.941518348716158446E-49, 8.575689124375139816E-33, 1.000000000000000000 ) ) ;
#346 = VECTOR ( 'NONE', #942, 1000.000000000000000 ) ;
#347 = ORIENTED_EDGE ( 'NONE', *, *, #1226, .F. ) ;
#348 = AXIS2_PLACEMENT_3D ( 'NONE', #1111, #901, #787 ) ;
#349 = CARTESIAN_POINT ( 'NONE',  ( -1.545789755157234824, 0.000000000000000000, 0.3809999999999999498 ) ) ;
#350 = CARTESIAN_POINT ( 'NONE',  ( 1.772365634663519929, 0.000000000000000000, 0.6240025612106908648 ) ) ;
#351 = DIRECTION ( 'NONE',  ( 0.000000000000000000, -0.000000000000000000, -1.000000000000000000 ) ) ;
#352 = ORIENTED_EDGE ( 'NONE', *, *, #612, .F. ) ;
#353 = CARTESIAN_POINT ( 'NONE',  ( 1.772365634663519929, 0.000000000000000000, 0.6240025612106908648 ) ) ;
#354 = EDGE_CURVE ( 'NONE', #705, #535, #212, .T. ) ;
#355 = CARTESIAN_POINT ( 'NONE',  ( 1.545789755157234824, 3.174999999999999822, 0.3810000000000000053 ) ) ;
#356 = CARTESIAN_POINT ( 'NONE',  ( 1.498600000000000154, 0.000000000000000000, 0.3809999999999998943 ) ) ;
#357 = FACE_OUTER_BOUND ( 'NONE', #10, .T. ) ;
#358 = ORIENTED_EDGE ( 'NONE', *, *, #958, .T. ) ;
#359 = DIRECTION ( 'NONE',  ( 0.000000000000000000, 0.000000000000000000, 1.000000000000000000 ) ) ;
#360 = DIRECTION ( 'NONE',  ( -0.000000000000000000, -0.000000000000000000, -1.000000000000000000 ) ) ;
#361 = MECHANICAL_DESIGN_GEOMETRIC_PRESENTATION_REPRESENTATION (  '', ( #599 ), #683 ) ;
#362 = DIRECTION ( 'NONE',  ( 0.000000000000000000, 1.000000000000000000, -0.000000000000000000 ) ) ;
#363 = PRESENTATION_LAYER_ASSIGNMENT (  '', '', ( #69 ) ) ;
#364 = EDGE_LOOP ( 'NONE', ( #268, #229, #1177, #488 ) ) ;
#365 = CARTESIAN_POINT ( 'NONE',  ( -2.168773318295595942, 0.000000000000000000, 0.2802000000000000046 ) ) ;
#366 = VECTOR ( 'NONE', #937, 1000.000000000000000 ) ;
#367 = VECTOR ( 'NONE', #1088, 1000.000000000000000 ) ;
#368 = CIRCLE ( 'NONE', #1017, 0.1270000000000001128 ) ;
#369 = FACE_OUTER_BOUND ( 'NONE', #32, .T. ) ;
#370 = CARTESIAN_POINT ( 'NONE',  ( 1.682563073452829849, 3.174999999999999822, 0.5342000000000001192 ) ) ;
#371 = VERTEX_POINT ( 'NONE', #587 ) ;
#372 = DIRECTION ( 'NONE',  ( -0.000000000000000000, 1.000000000000000000, 0.000000000000000000 ) ) ;
#373 = DIRECTION ( 'NONE',  ( -1.000000000000000000, 0.000000000000000000, -0.000000000000000000 ) ) ;
#374 = DIRECTION ( 'NONE',  ( 0.7071067811865454633, 0.000000000000000000, 0.7071067811865496822 ) ) ;
#375 = EDGE_CURVE ( 'NONE', #1007, #376, #317, .T. ) ;
#376 = VERTEX_POINT ( 'NONE', #1003 ) ;
#377 = DIRECTION ( 'NONE',  ( 0.000000000000000000, 1.000000000000000000, 0.000000000000000000 ) ) ;
#378 = EDGE_CURVE ( 'NONE', #749, #413, #981, .T. ) ;
#379 = DIRECTION ( 'NONE',  ( 0.000000000000000000, -1.000000000000000000, 0.000000000000000000 ) ) ;
#380 = DIRECTION ( 'NONE',  ( -0.000000000000000000, -1.000000000000000000, -0.000000000000000000 ) ) ;
#381 = ORIENTED_EDGE ( 'NONE', *, *, #1014, .T. ) ;
#382 = FACE_OUTER_BOUND ( 'NONE', #961, .T. ) ;
#383 = AXIS2_PLACEMENT_3D ( 'NONE', #1196, #147, #896 ) ;
#384 = ORIENTED_EDGE ( 'NONE', *, *, #1136, .T. ) ;
#385 = STYLED_ITEM ( 'NONE', ( #487 ), #694 ) ;
#386 = LINE ( 'NONE', #669, #303 ) ;
#387 = CARTESIAN_POINT ( 'NONE',  ( -1.942197438789305064, 3.174999999999999822, 0.03719743878930864556 ) ) ;
#388 = AXIS2_PLACEMENT_3D ( 'NONE', #326, #1182, #144 ) ;
#389 = VERTEX_POINT ( 'NONE', #1092 ) ;
#390 = DIRECTION ( 'NONE',  ( 0.000000000000000000, 0.000000000000000000, 1.000000000000000000 ) ) ;
#391 = ORIENTED_EDGE ( 'NONE', *, *, #99, .T. ) ;
#392 = ADVANCED_FACE ( 'NONE', ( #504 ), #131, .T. ) ;
#393 =( NAMED_UNIT ( * ) PLANE_ANGLE_UNIT ( ) SI_UNIT ( $, .RADIAN. ) );
#394 = VERTEX_POINT ( 'NONE', #796 ) ;
#395 = DIRECTION ( 'NONE',  ( -1.000000000000000000, -2.443137617595383271E-76, -4.293077795037871945E-46 ) ) ;
#396 = ORIENTED_EDGE ( 'NONE', *, *, #26, .T. ) ;
#397 = CARTESIAN_POINT ( 'NONE',  ( -1.682563073452829849, 0.000000000000000000, 0.5342000000000001192 ) ) ;
#398 = PLANE ( 'NONE',  #1161 ) ;
#399 = ORIENTED_EDGE ( 'NONE', *, *, #222, .T. ) ;
#400 = ORIENTED_EDGE ( 'NONE', *, *, #778, .T. ) ;
#401 = PRESENTATION_LAYER_ASSIGNMENT (  '', '', ( #441 ) ) ;
#402 = DIRECTION ( 'NONE',  ( 0.000000000000000000, 1.000000000000000000, 0.000000000000000000 ) ) ;
#403 = PLANE ( 'NONE',  #348 ) ;
#404 = EDGE_CURVE ( 'NONE', #578, #535, #900, .T. ) ;
#405 = DIRECTION ( 'NONE',  ( 0.000000000000000000, 0.000000000000000000, 1.000000000000000000 ) ) ;
#406 = VERTEX_POINT ( 'NONE', #223 ) ;
#407 = VERTEX_POINT ( 'NONE', #603 ) ;
#408 = FILL_AREA_STYLE ('',( #892 ) ) ;
#409 = CARTESIAN_POINT ( 'NONE',  ( 5.648007849606931081E-49, -0.7132182513173130900, 0.3809999999999996723 ) ) ;
#410 =( NAMED_UNIT ( * ) PLANE_ANGLE_UNIT ( ) SI_UNIT ( $, .RADIAN. ) );
#411 = CARTESIAN_POINT ( 'NONE',  ( -2.314685842675820115, 0.000000000000000000, 0.2802000000000000046 ) ) ;
#412 = EDGE_CURVE ( 'NONE', #476, #774, #908, .T. ) ;
#413 = VERTEX_POINT ( 'NONE', #117 ) ;
#414 = DIRECTION ( 'NONE',  ( 0.000000000000000000, 1.000000000000000000, 0.000000000000000000 ) ) ;
#415 = EDGE_CURVE ( 'NONE', #226, #136, #616, .T. ) ;
#416 = EDGE_LOOP ( 'NONE', ( #1159, #924, #618, #399 ) ) ;
#417 = CARTESIAN_POINT ( 'NONE',  ( -2.078970757084904974, 0.000000000000000000, 0.3173974387893094273 ) ) ;
#418 = CARTESIAN_POINT ( 'NONE',  ( -1.635592316367925125, 0.000000000000000000, 0.3438025612106905271 ) ) ;
#419 = PRESENTATION_STYLE_ASSIGNMENT (( #43 ) ) ;
#420 = ORIENTED_EDGE ( 'NONE', *, *, #521, .F. ) ;
#421 = CARTESIAN_POINT ( 'NONE',  ( -2.078970757084904530, 0.000000000000000000, 0.3173974387893088167 ) ) ;
#422 = EDGE_CURVE ( 'NONE', #1114, #566, #1201, .T. ) ;
#423 = VERTEX_POINT ( 'NONE', #714 ) ;
#424 = VECTOR ( 'NONE', #331, 1000.000000000000000 ) ;
#425 = CARTESIAN_POINT ( 'NONE',  ( 2.932565832893410188E-17, 3.174999999999999822, 0.3810000000000000053 ) ) ;
#426 = AXIS2_PLACEMENT_3D ( 'NONE', #609, #1218, #141 ) ;
#427 = UNCERTAINTY_MEASURE_WITH_UNIT (LENGTH_MEASURE( 1.000000000000000082E-05 ), #1095, 'distance_accuracy_value', 'NONE');
#428 =( NAMED_UNIT ( * ) SI_UNIT ( $, .STERADIAN. ) SOLID_ANGLE_UNIT ( ) );
#429 = CARTESIAN_POINT ( 'NONE',  ( 0.000000000000000000, 0.000000000000000000, 0.5461000000000000298 ) ) ;
#430 = ORIENTED_EDGE ( 'NONE', *, *, #187, .T. ) ;
#431 = FILL_AREA_STYLE ('',( #913 ) ) ;
#432 = VECTOR ( 'NONE', #213, 1000.000000000000000 ) ;
#433 = ADVANCED_FACE ( 'NONE', ( #1110 ), #689, .T. ) ;
#434 = CARTESIAN_POINT ( 'NONE',  ( -3.174999999999999822, 3.174999999999999822, 0.2687510811488479923 ) ) ;
#435 = DIRECTION ( 'NONE',  ( 1.000000000000000000, -0.000000000000000000, 0.000000000000000000 ) ) ;
#436 = FILL_AREA_STYLE_COLOUR ( '', #1012 ) ;
#437 = ORIENTED_EDGE ( 'NONE', *, *, #871, .F. ) ;
#438 = DIRECTION ( 'NONE',  ( -0.000000000000000000, -0.000000000000000000, -1.000000000000000000 ) ) ;
#439 = DIRECTION ( 'NONE',  ( 0.000000000000000000, -1.000000000000000000, 0.000000000000000000 ) ) ;
#440 = ORIENTED_EDGE ( 'NONE', *, *, #315, .F. ) ;
#441 = STYLED_ITEM ( 'NONE', ( #230 ), #457 ) ;
#442 = PRESENTATION_STYLE_ASSIGNMENT (( #1148 ) ) ;
#443 = FACE_OUTER_BOUND ( 'NONE', #100, .T. ) ;
#444 = MECHANICAL_DESIGN_GEOMETRIC_PRESENTATION_REPRESENTATION (  '', ( #385 ), #579 ) ;
#445 = EDGE_CURVE ( 'NONE', #774, #182, #54, .T. ) ;
#446 = ORIENTED_EDGE ( 'NONE', *, *, #422, .T. ) ;
#447 = PRESENTATION_LAYER_ASSIGNMENT (  '', '', ( #1180 ) ) ;
#448 = DIRECTION ( 'NONE',  ( 1.000000000000000000, 0.000000000000000000, 0.000000000000000000 ) ) ;
#449 = LINE ( 'NONE', #834, #828 ) ;
#450 = ORIENTED_EDGE ( 'NONE', *, *, #102, .T. ) ;
#451 = LINE ( 'NONE', #274, #502 ) ;
#452 = EDGE_CURVE ( 'NONE', #94, #289, #311, .T. ) ;
#453 = EDGE_CURVE ( 'NONE', #58, #371, #235, .T. ) ;
#454 = DIRECTION ( 'NONE',  ( 0.000000000000000000, 1.000000000000000000, 0.000000000000000000 ) ) ;
#455 = ORIENTED_EDGE ( 'NONE', *, *, #795, .F. ) ;
#456 = CARTESIAN_POINT ( 'NONE',  ( 1.545789755157234824, 0.000000000000000000, 0.3810000000000000053 ) ) ;
#457 = MANIFOLD_SOLID_BREP ( 'WSLF2512 (0.0013 ohm).stp[2]', #1094 ) ;
#458 = SURFACE_STYLE_FILL_AREA ( #64 ) ;
#459 = VECTOR ( 'NONE', #360, 1000.000000000000000 ) ;
#460 = DIRECTION ( 'NONE',  ( 0.000000000000000000, 0.000000000000000000, -1.000000000000000000 ) ) ;
#461 = VECTOR ( 'NONE', #402, 1000.000000000000000 ) ;
#462 = ORIENTED_EDGE ( 'NONE', *, *, #29, .T. ) ;
#463 = FACE_OUTER_BOUND ( 'NONE', #482, .T. ) ;
#464 = AXIS2_PLACEMENT_3D ( 'NONE', #480, #498, #390 ) ;
#465 = VECTOR ( 'NONE', #374, 1000.000000000000114 ) ;
#466 = ADVANCED_FACE ( 'NONE', ( #598 ), #987, .F. ) ;
#467 = VECTOR ( 'NONE', #629, 1000.000000000000000 ) ;
#468 = CARTESIAN_POINT ( 'NONE',  ( -1.942197438789306618, 0.000000000000000000, 0.03719743878930865943 ) ) ;
#469 = DIRECTION ( 'NONE',  ( 0.000000000000000000, 1.000000000000000000, 0.000000000000000000 ) ) ;
#470 = EDGE_LOOP ( 'NONE', ( #610, #50, #192, #780 ) ) ;
#471 = CARTESIAN_POINT ( 'NONE',  ( -2.032000000000000028, 3.174999999999999822, 0.1270000000000000018 ) ) ;
#472 = DIRECTION ( 'NONE',  ( 0.000000000000000000, -1.000000000000000000, -0.000000000000000000 ) ) ;
#473 = DIRECTION ( 'NONE',  ( 0.7071067811865470176, 0.000000000000000000, -0.7071067811865480168 ) ) ;
#474 = VERTEX_POINT ( 'NONE', #905 ) ;
#475 = CARTESIAN_POINT ( 'NONE',  ( -1.498600000000000154, 3.174999999999999378, 0.3810000000000000053 ) ) ;
#476 = VERTEX_POINT ( 'NONE', #421 ) ;
#477 = DIRECTION ( 'NONE',  ( -1.000000000000000000, 0.000000000000000000, -0.000000000000000000 ) ) ;
#478 = VECTOR ( 'NONE', #30, 1000.000000000000000 ) ;
#479 = ORIENTED_EDGE ( 'NONE', *, *, #1091, .F. ) ;
#480 = CARTESIAN_POINT ( 'NONE',  ( 2.168773318295595942, 0.000000000000000000, 0.4071999999999999509 ) ) ;
#481 = EDGE_CURVE ( 'NONE', #58, #1217, #1033, .T. ) ;
#482 = EDGE_LOOP ( 'NONE', ( #21, #96, #751, #1048 ) ) ;
#483 =( GEOMETRIC_REPRESENTATION_CONTEXT ( 3 ) GLOBAL_UNCERTAINTY_ASSIGNED_CONTEXT ( ( #1128 ) ) GLOBAL_UNIT_ASSIGNED_CONTEXT ( ( #1212, #1134, #276 ) ) REPRESENTATION_CONTEXT ( 'NONE', 'WORKASPACE' ) );
#484 = CARTESIAN_POINT ( 'NONE',  ( 3.174999999999999822, 0.000000000000000000, 0.2802000000000000046 ) ) ;
#485 = CARTESIAN_POINT ( 'NONE',  ( -1.942197438789306618, 0.000000000000000000, 0.03719743878931011660 ) ) ;
#486 = ORIENTED_EDGE ( 'NONE', *, *, #378, .T. ) ;
#487 = PRESENTATION_STYLE_ASSIGNMENT (( #204 ) ) ;
#488 = ORIENTED_EDGE ( 'NONE', *, *, #172, .F. ) ;
#489 = PRODUCT_RELATED_PRODUCT_CATEGORY ( 'part', '', ( #583 ) ) ;
#490 = DIRECTION ( 'NONE',  ( 0.000000000000000000, 0.000000000000000000, -1.000000000000000000 ) ) ;
#491 = CARTESIAN_POINT ( 'NONE',  ( -1.942197438789305064, 0.000000000000000000, 0.03719743878930864556 ) ) ;
#492 = ORIENTED_EDGE ( 'NONE', *, *, #445, .T. ) ;
#493 = CARTESIAN_POINT ( 'NONE',  ( -1.498600000000000154, 0.000000000000000000, 0.7112000000000000544 ) ) ;
#494 = VERTEX_POINT ( 'NONE', #633 ) ;
#495 = EDGE_CURVE ( 'NONE', #793, #1066, #540, .T. ) ;
#496 = CARTESIAN_POINT ( 'NONE',  ( 2.032000000000000028, 0.000000000000000000, 0.000000000000000000 ) ) ;
#497 = CARTESIAN_POINT ( 'NONE',  ( 1.498600000000000154, 0.000000000000000000, 0.6612000000000000099 ) ) ;
#498 = DIRECTION ( 'NONE',  ( 0.000000000000000000, 1.000000000000000000, 0.000000000000000000 ) ) ;
#499 = EDGE_LOOP ( 'NONE', ( #391, #199, #216, #829 ) ) ;
#500 =( GEOMETRIC_REPRESENTATION_CONTEXT ( 3 ) GLOBAL_UNCERTAINTY_ASSIGNED_CONTEXT ( ( #427 ) ) GLOBAL_UNIT_ASSIGNED_CONTEXT ( ( #1095, #511, #798 ) ) REPRESENTATION_CONTEXT ( 'NONE', 'WORKASPACE' ) );
#501 = ORIENTED_EDGE ( 'NONE', *, *, #412, .F. ) ;
#502 = VECTOR ( 'NONE', #1152, 1000.000000000000000 ) ;
#503 = VECTOR ( 'NONE', #161, 1000.000000000000114 ) ;
#504 = FACE_OUTER_BOUND ( 'NONE', #23, .T. ) ;
#505 = EDGE_CURVE ( 'NONE', #530, #1171, #646, .T. ) ;
#506 = CARTESIAN_POINT ( 'NONE',  ( -2.078970757084904086, 0.000000000000000000, 0.3173974387893083726 ) ) ;
#507 =( GEOMETRIC_REPRESENTATION_CONTEXT ( 3 ) GLOBAL_UNCERTAINTY_ASSIGNED_CONTEXT ( ( #193 ) ) GLOBAL_UNIT_ASSIGNED_CONTEXT ( ( #552, #1125, #534 ) ) REPRESENTATION_CONTEXT ( 'NONE', 'WORKASPACE' ) );
#508 = ORIENTED_EDGE ( 'NONE', *, *, #628, .F. ) ;
#509 = DIRECTION ( 'NONE',  ( -0.000000000000000000, 1.000000000000000000, 0.000000000000000000 ) ) ;
#510 = LINE ( 'NONE', #623, #788 ) ;
#511 =( NAMED_UNIT ( * ) PLANE_ANGLE_UNIT ( ) SI_UNIT ( $, .RADIAN. ) );
#512 = DIRECTION ( 'NONE',  ( 0.000000000000000000, 0.000000000000000000, 1.000000000000000000 ) ) ;
#513 = ADVANCED_FACE ( 'NONE', ( #820 ), #336, .T. ) ;
#514 = EDGE_LOOP ( 'NONE', ( #1043, #627, #525, #565 ) ) ;
#515 = ORIENTED_EDGE ( 'NONE', *, *, #315, .T. ) ;
#516 = CARTESIAN_POINT ( 'NONE',  ( -2.078970757084904974, 3.175000000000001599, 0.3173974387893094273 ) ) ;
#517 = CARTESIAN_POINT ( 'NONE',  ( 1.942197438789305064, 0.000000000000000000, 0.03719743878930864556 ) ) ;
#518 = DIRECTION ( 'NONE',  ( 0.000000000000000000, 0.000000000000000000, 1.000000000000000000 ) ) ;
#519 = ORIENTED_EDGE ( 'NONE', *, *, #453, .F. ) ;
#520 = CARTESIAN_POINT ( 'NONE',  ( 2.314685842675820115, 3.174999999999999822, 0.2802000000000000046 ) ) ;
#521 = EDGE_CURVE ( 'NONE', #1131, #1188, #1008, .T. ) ;
#522 = DIRECTION ( 'NONE',  ( -0.7071067811865474617, -0.000000000000000000, -0.7071067811865474617 ) ) ;
#523 = MECHANICAL_DESIGN_GEOMETRIC_PRESENTATION_REPRESENTATION (  '', ( #992 ), #186 ) ;
#524 = CARTESIAN_POINT ( 'NONE',  ( 2.032000000000000028, 0.000000000000000000, 0.000000000000000000 ) ) ;
#525 = ORIENTED_EDGE ( 'NONE', *, *, #157, .T. ) ;
#526 = AXIS2_PLACEMENT_3D ( 'NONE', #55, #791, #1189 ) ;
#527 =( LENGTH_UNIT ( ) NAMED_UNIT ( * ) SI_UNIT ( .MILLI., .METRE. ) );
#528 = DIRECTION ( 'NONE',  ( -0.000000000000000000, 0.000000000000000000, 1.000000000000000000 ) ) ;
#529 = CARTESIAN_POINT ( 'NONE',  ( 1.498600000000000154, 3.174999999999999822, 0.6612000000000000099 ) ) ;
#530 = VERTEX_POINT ( 'NONE', #724 ) ;
#531 = CARTESIAN_POINT ( 'NONE',  ( -2.168773318295595942, 0.000000000000000000, 0.4071999999999999509 ) ) ;
#532 = DIRECTION ( 'NONE',  ( 1.000000000000000000, -6.810399253411078248E-81, -7.941518348716158446E-49 ) ) ;
#533 = LINE ( 'NONE', #922, #600 ) ;
#534 =( NAMED_UNIT ( * ) SI_UNIT ( $, .STERADIAN. ) SOLID_ANGLE_UNIT ( ) );
#535 = VERTEX_POINT ( 'NONE', #732 ) ;
#536 =( NAMED_UNIT ( * ) SI_UNIT ( $, .STERADIAN. ) SOLID_ANGLE_UNIT ( ) );
#537 = ADVANCED_FACE ( 'NONE', ( #713 ), #1109, .T. ) ;
#538 = CARTESIAN_POINT ( 'NONE',  ( -1.772365634663521927, 3.175000000000001155, 0.6240025612106925301 ) ) ;
#539 = CARTESIAN_POINT ( 'NONE',  ( -0.9296389959878580411, 7.299925623453610004E-81, 0.6612000000000001210 ) ) ;
#540 = CIRCLE ( 'NONE', #1073, 0.1270000000000000018 ) ;
#541 = EDGE_CURVE ( 'NONE', #1217, #793, #1146, .T. ) ;
#542 = ORIENTED_EDGE ( 'NONE', *, *, #674, .F. ) ;
#543 = DIRECTION ( 'NONE',  ( -0.7071067811865474617, -0.000000000000000000, 0.7071067811865474617 ) ) ;
#544 = PRESENTATION_LAYER_ASSIGNMENT (  '', '', ( #580 ) ) ;
#545 = CARTESIAN_POINT ( 'NONE',  ( 1.498600000000000154, 0.000000000000000000, 0.3810000000000000053 ) ) ;
#546 = DIRECTION ( 'NONE',  ( -0.000000000000000000, -1.000000000000000000, -0.000000000000000000 ) ) ;
#547 = DIRECTION ( 'NONE',  ( -1.000000000000000000, 0.000000000000000000, -0.000000000000000000 ) ) ;
#548 = VERTEX_POINT ( 'NONE', #79 ) ;
#549 = CARTESIAN_POINT ( 'NONE',  ( 1.772365634663519929, 3.175000000000001599, 0.6240025612106908648 ) ) ;
#550 = FACE_OUTER_BOUND ( 'NONE', #514, .T. ) ;
#551 = CARTESIAN_POINT ( 'NONE',  ( -2.032000000000000028, 0.000000000000000000, 0.000000000000000000 ) ) ;
#552 =( LENGTH_UNIT ( ) NAMED_UNIT ( * ) SI_UNIT ( .MILLI., .METRE. ) );
#553 = ORIENTED_EDGE ( 'NONE', *, *, #505, .T. ) ;
#554 = DIRECTION ( 'NONE',  ( -0.000000000000000000, -1.000000000000000000, -0.000000000000000000 ) ) ;
#555 = ADVANCED_FACE ( 'NONE', ( #269 ), #1030, .F. ) ;
#556 =( NAMED_UNIT ( * ) SI_UNIT ( $, .STERADIAN. ) SOLID_ANGLE_UNIT ( ) );
#557 = COLOUR_RGB ( '',0.6274509803921568540, 0.6274509803921568540, 0.6274509803921568540 ) ;
#558 = DIRECTION ( 'NONE',  ( -0.000000000000000000, -1.000000000000000000, -0.000000000000000000 ) ) ;
#559 = AXIS2_PLACEMENT_3D ( 'NONE', #1123, #438, #448 ) ;
#560 = ORIENTED_EDGE ( 'NONE', *, *, #858, .T. ) ;
#561 = DIRECTION ( 'NONE',  ( 0.000000000000000000, 1.000000000000000000, 0.000000000000000000 ) ) ;
#562 = UNCERTAINTY_MEASURE_WITH_UNIT (LENGTH_MEASURE( 1.000000000000000082E-05 ), #563, 'distance_accuracy_value', 'NONE');
#563 =( LENGTH_UNIT ( ) NAMED_UNIT ( * ) SI_UNIT ( .MILLI., .METRE. ) );
#564 = DIRECTION ( 'NONE',  ( 0.000000000000000000, 1.000000000000000000, 0.000000000000000000 ) ) ;
#565 = ORIENTED_EDGE ( 'NONE', *, *, #59, .F. ) ;
#566 = VERTEX_POINT ( 'NONE', #264 ) ;
#567 = LINE ( 'NONE', #675, #887 ) ;
#568 = EDGE_CURVE ( 'NONE', #215, #1039, #451, .T. ) ;
#569 = LINE ( 'NONE', #574, #785 ) ;
#570 = VERTEX_POINT ( 'NONE', #830 ) ;
#571 = CARTESIAN_POINT ( 'NONE',  ( 1.498600000000000154, 0.000000000000000000, 0.3810000000000000053 ) ) ;
#572 = ORIENTED_EDGE ( 'NONE', *, *, #415, .T. ) ;
#573 = CARTESIAN_POINT ( 'NONE',  ( -2.078970757084904974, 0.000000000000000000, 0.3173974387893094273 ) ) ;
#574 = CARTESIAN_POINT ( 'NONE',  ( 3.174999999999999822, 0.000000000000000000, 0.000000000000000000 ) ) ;
#575 = ORIENTED_EDGE ( 'NONE', *, *, #52, .T. ) ;
#576 = AXIS2_PLACEMENT_3D ( 'NONE', #46, #509, #790 ) ;
#577 = EDGE_CURVE ( 'NONE', #983, #1168, #1040, .T. ) ;
#578 = VERTEX_POINT ( 'NONE', #256 ) ;
#579 =( GEOMETRIC_REPRESENTATION_CONTEXT ( 3 ) GLOBAL_UNCERTAINTY_ASSIGNED_CONTEXT ( ( #855 ) ) GLOBAL_UNIT_ASSIGNED_CONTEXT ( ( #31, #4, #1065 ) ) REPRESENTATION_CONTEXT ( 'NONE', 'WORKASPACE' ) );
#580 = STYLED_ITEM ( 'NONE', ( #419 ), #837 ) ;
#581 = CARTESIAN_POINT ( 'NONE',  ( 2.078970757084904530, 0.000000000000000000, 0.3173974387893086502 ) ) ;
#582 = VECTOR ( 'NONE', #362, 1000.000000000000000 ) ;
#583 = PRODUCT ( 'WSLF25121L500FEA', 'WSLF25121L500FEA', '', ( #257 ) ) ;
#584 = ORIENTED_EDGE ( 'NONE', *, *, #275, .F. ) ;
#585 = DIRECTION ( 'NONE',  ( 1.000000000000000000, -6.810399253411078248E-81, -7.941518348716158446E-49 ) ) ;
#586 = ORIENTED_EDGE ( 'NONE', *, *, #194, .F. ) ;
#587 = CARTESIAN_POINT ( 'NONE',  ( 1.942197438789306618, 3.174999999999999822, 0.03719743878930853453 ) ) ;
#588 = LINE ( 'NONE', #387, #88 ) ;
#589 = ORIENTED_EDGE ( 'NONE', *, *, #771, .F. ) ;
#590 = DIRECTION ( 'NONE',  ( 0.000000000000000000, 0.000000000000000000, 1.000000000000000000 ) ) ;
#591 = ORIENTED_EDGE ( 'NONE', *, *, #920, .F. ) ;
#592 = EDGE_CURVE ( 'NONE', #293, #1126, #1220, .T. ) ;
#593 = ADVANCED_FACE ( 'NONE', ( #75 ), #178, .T. ) ;
#594 = DIRECTION ( 'NONE',  ( 0.7071067811865480168, -0.000000000000000000, -0.7071067811865470176 ) ) ;
#595 = DIRECTION ( 'NONE',  ( 0.000000000000000000, 1.000000000000000000, 0.000000000000000000 ) ) ;
#596 = LINE ( 'NONE', #923, #244 ) ;
#597 = ORIENTED_EDGE ( 'NONE', *, *, #1083, .F. ) ;
#598 = FACE_OUTER_BOUND ( 'NONE', #819, .T. ) ;
#599 = STYLED_ITEM ( 'NONE', ( #999 ), #45 ) ;
#600 = VECTOR ( 'NONE', #344, 1000.000000000000000 ) ;
#601 = AXIS2_PLACEMENT_3D ( 'NONE', #781, #672, #973 ) ;
#602 = COLOUR_RGB ( '',0.6274509803921568540, 0.6274509803921568540, 0.6274509803921568540 ) ;
#603 = CARTESIAN_POINT ( 'NONE',  ( 0.9296389959878580411, 0.000000000000000000, 0.3809999999999996723 ) ) ;
#604 =( NAMED_UNIT ( * ) SI_UNIT ( $, .STERADIAN. ) SOLID_ANGLE_UNIT ( ) );
#605 = SURFACE_STYLE_FILL_AREA ( #1209 ) ;
#606 = VECTOR ( 'NONE', #558, 1000.000000000000000 ) ;
#607 = CYLINDRICAL_SURFACE ( 'NONE', #305, 0.1270000000000001128 ) ;
#608 = ORIENTED_EDGE ( 'NONE', *, *, #851, .F. ) ;
#609 = CARTESIAN_POINT ( 'NONE',  ( 1.942197438789305064, 0.000000000000000000, 0.03719743878930865943 ) ) ;
#610 = ORIENTED_EDGE ( 'NONE', *, *, #1142, .F. ) ;
#611 = CARTESIAN_POINT ( 'NONE',  ( 1.772365634663519929, 3.175000000000000711, 0.6240025612106908648 ) ) ;
#612 = EDGE_CURVE ( 'NONE', #494, #182, #662, .T. ) ;
#613 = FACE_OUTER_BOUND ( 'NONE', #499, .T. ) ;
#614 = ORIENTED_EDGE ( 'NONE', *, *, #80, .T. ) ;
#615 = DIRECTION ( 'NONE',  ( 0.000000000000000000, 1.000000000000000000, 0.000000000000000000 ) ) ;
#616 = LINE ( 'NONE', #915, #47 ) ;
#617 = CARTESIAN_POINT ( 'NONE',  ( -3.174999999999999822, 0.000000000000000000, -1.266348137463068840E-17 ) ) ;
#618 = ORIENTED_EDGE ( 'NONE', *, *, #14, .T. ) ;
#619 = SURFACE_STYLE_USAGE ( .BOTH. , #151 ) ;
#620 = AXIS2_PLACEMENT_3D ( 'NONE', #1214, #736, #1232 ) ;
#621 = VECTOR ( 'NONE', #786, 1000.000000000000000 ) ;
#622 = STYLED_ITEM ( 'NONE', ( #300 ), #755 ) ;
#623 = CARTESIAN_POINT ( 'NONE',  ( 3.174999999999999822, 3.174999999999999822, 0.000000000000000000 ) ) ;
#624 = ORIENTED_EDGE ( 'NONE', *, *, #246, .F. ) ;
#625 =( LENGTH_UNIT ( ) NAMED_UNIT ( * ) SI_UNIT ( .MILLI., .METRE. ) );
#626 = AXIS2_PLACEMENT_3D ( 'NONE', #1042, #1138, #1130 ) ;
#627 = ORIENTED_EDGE ( 'NONE', *, *, #63, .T. ) ;
#628 = EDGE_CURVE ( 'NONE', #1013, #94, #165, .T. ) ;
#629 = DIRECTION ( 'NONE',  ( 0.000000000000000000, 0.000000000000000000, -1.000000000000000000 ) ) ;
#630 = CARTESIAN_POINT ( 'NONE',  ( 1.498600000000000154, 3.174999999999999822, 0.5461000000000000298 ) ) ;
#631 = SURFACE_STYLE_USAGE ( .BOTH. , #1036 ) ;
#632 = ORIENTED_EDGE ( 'NONE', *, *, #481, .F. ) ;
#633 = CARTESIAN_POINT ( 'NONE',  ( -1.682563073452829849, 3.174999999999999822, 0.6612000000000001210 ) ) ;
#634 = ADVANCED_FACE ( 'NONE', ( #463 ), #836, .T. ) ;
#635 = DIRECTION ( 'NONE',  ( 0.000000000000000000, 0.000000000000000000, 1.000000000000000000 ) ) ;
#636 = EDGE_CURVE ( 'NONE', #74, #1007, #661, .T. ) ;
#637 = UNCERTAINTY_MEASURE_WITH_UNIT (LENGTH_MEASURE( 1.000000000000000082E-05 ), #1132, 'distance_accuracy_value', 'NONE');
#638 = CARTESIAN_POINT ( 'NONE',  ( 1.498600000000000154, 3.174999999999999378, 0.3810000000000000053 ) ) ;
#639 = PLANE ( 'NONE',  #129 ) ;
#640 = EDGE_LOOP ( 'NONE', ( #251, #846, #1248, #1071, #859, #656, #62, #968, #1089, #479, #584, #899 ) ) ;
#641 = DIRECTION ( 'NONE',  ( 0.000000000000000000, 0.000000000000000000, 1.000000000000000000 ) ) ;
#642 = APPLICATION_PROTOCOL_DEFINITION ( 'draft international standard', 'automotive_design', 1998, #891 ) ;
#643 = CIRCLE ( 'NONE', #782, 0.1270000000000000573 ) ;
#644 = CARTESIAN_POINT ( 'NONE',  ( -1.498600000000000154, 3.174999999999999822, 0.3810000000000000053 ) ) ;
#645 = CARTESIAN_POINT ( 'NONE',  ( -3.174999999999999822, 0.000000000000000000, 0.2802000000000000046 ) ) ;
#646 = CIRCLE ( 'NONE', #727, 0.1269999999999999463 ) ;
#647 = VERTEX_POINT ( 'NONE', #840 ) ;
#648 = AXIS2_PLACEMENT_3D ( 'NONE', #118, #473, #1056 ) ;
#649 = DIRECTION ( 'NONE',  ( 0.000000000000000000, 0.000000000000000000, 1.000000000000000000 ) ) ;
#650 = CARTESIAN_POINT ( 'NONE',  ( -1.682563073452829849, 3.174999999999999822, 0.6612000000000000099 ) ) ;
#651 = DIRECTION ( 'NONE',  ( 1.707404996040165152E-15, 0.000000000000000000, 1.000000000000000000 ) ) ;
#652 = EDGE_CURVE ( 'NONE', #423, #74, #1059, .T. ) ;
#653 = ORIENTED_EDGE ( 'NONE', *, *, #245, .F. ) ;
#654 = DIRECTION ( 'NONE',  ( -0.000000000000000000, -1.000000000000000000, -0.000000000000000000 ) ) ;
#655 = CARTESIAN_POINT ( 'NONE',  ( -1.498600000000000154, 3.174999999999999822, 0.3810000000000000053 ) ) ;
#656 = ORIENTED_EDGE ( 'NONE', *, *, #568, .F. ) ;
#657 = CARTESIAN_POINT ( 'NONE',  ( -1.545789755157234824, 3.174999999999999822, 0.2540000000000000036 ) ) ;
#658 = LINE ( 'NONE', #1164, #281 ) ;
#659 = DIRECTION ( 'NONE',  ( 0.000000000000000000, 1.000000000000000000, 0.000000000000000000 ) ) ;
#660 = ORIENTED_EDGE ( 'NONE', *, *, #974, .T. ) ;
#661 = LINE ( 'NONE', #1140, #346 ) ;
#662 = CIRCLE ( 'NONE', #125, 0.1270000000000000573 ) ;
#663 = AXIS2_PLACEMENT_3D ( 'NONE', #168, #179, #270 ) ;
#664 = ORIENTED_EDGE ( 'NONE', *, *, #194, .T. ) ;
#665 = EDGE_CURVE ( 'NONE', #1171, #293, #1049, .T. ) ;
#666 = VECTOR ( 'NONE', #659, 1000.000000000000000 ) ;
#667 = UNCERTAINTY_MEASURE_WITH_UNIT (LENGTH_MEASURE( 1.000000000000000082E-05 ), #979, 'distance_accuracy_value', 'NONE');
#668 = PRESENTATION_LAYER_ASSIGNMENT (  '', '', ( #831 ) ) ;
#669 = CARTESIAN_POINT ( 'NONE',  ( 2.168773318295595942, 0.000000000000000000, 0.2802000000000000046 ) ) ;
#670 = SURFACE_STYLE_USAGE ( .BOTH. , #2 ) ;
#671 = ORIENTED_EDGE ( 'NONE', *, *, #52, .F. ) ;
#672 = DIRECTION ( 'NONE',  ( 0.000000000000000000, -1.000000000000000000, 0.000000000000000000 ) ) ;
#673 = ORIENTED_EDGE ( 'NONE', *, *, #1068, .T. ) ;
#674 = EDGE_CURVE ( 'NONE', #1061, #770, #1099, .T. ) ;
#675 = CARTESIAN_POINT ( 'NONE',  ( -3.174999999999999822, 0.000000000000000000, -1.266348137463070073E-17 ) ) ;
#676 = PLANE ( 'NONE',  #72 ) ;
#677 = ADVANCED_FACE ( 'NONE', ( #279 ), #95, .T. ) ;
#678 = EDGE_LOOP ( 'NONE', ( #39, #508, #994, #919 ) ) ;
#679 = SURFACE_STYLE_USAGE ( .BOTH. , #120 ) ;
#680 = VERTEX_POINT ( 'NONE', #475 ) ;
#681 =( NAMED_UNIT ( * ) PLANE_ANGLE_UNIT ( ) SI_UNIT ( $, .RADIAN. ) );
#682 = CARTESIAN_POINT ( 'NONE',  ( 2.168773318295595942, 0.000000000000000000, 0.2802000000000000046 ) ) ;
#683 =( GEOMETRIC_REPRESENTATION_CONTEXT ( 3 ) GLOBAL_UNCERTAINTY_ASSIGNED_CONTEXT ( ( #728 ) ) GLOBAL_UNIT_ASSIGNED_CONTEXT ( ( #717, #410, #428 ) ) REPRESENTATION_CONTEXT ( 'NONE', 'WORKASPACE' ) );
#684 = EDGE_LOOP ( 'NONE', ( #586, #701, #89, #671 ) ) ;
#685 = FACE_OUTER_BOUND ( 'NONE', #364, .T. ) ;
#686 = EDGE_LOOP ( 'NONE', ( #972, #437, #742, #946 ) ) ;
#687 = AXIS2_PLACEMENT_3D ( 'NONE', #711, #220, #334 ) ;
#688 = MECHANICAL_DESIGN_GEOMETRIC_PRESENTATION_REPRESENTATION (  '', ( #580 ), #12 ) ;
#689 = PLANE ( 'NONE',  #842 ) ;
#690 = SURFACE_STYLE_FILL_AREA ( #286 ) ;
#691 = PRODUCT_DEFINITION_FORMATION_WITH_SPECIFIED_SOURCE ( 'ANY', '', #583, .NOT_KNOWN. ) ;
#692 = ORIENTED_EDGE ( 'NONE', *, *, #674, .T. ) ;
#693 = CARTESIAN_POINT ( 'NONE',  ( 1.498600000000000154, 3.174999999999999822, 0.6612000000000000099 ) ) ;
#694 = ADVANCED_FACE ( 'NONE', ( #685 ), #198, .F. ) ;
#695 = ORIENTED_EDGE ( 'NONE', *, *, #577, .T. ) ;
#696 = CARTESIAN_POINT ( 'NONE',  ( 1.942197438789305064, 3.174999999999999822, 0.03719743878930865943 ) ) ;
#697 = LINE ( 'NONE', #36, #935 ) ;
#698 = LINE ( 'NONE', #333, #1194 ) ;
#699 =( NAMED_UNIT ( * ) PLANE_ANGLE_UNIT ( ) SI_UNIT ( $, .RADIAN. ) );
#700 = ORIENTED_EDGE ( 'NONE', *, *, #708, .F. ) ;
#701 = ORIENTED_EDGE ( 'NONE', *, *, #80, .F. ) ;
#702 = PRODUCT_DEFINITION_SHAPE ( 'NONE', 'NONE',  #943 ) ;
#703 = DIRECTION ( 'NONE',  ( 0.000000000000000000, -0.000000000000000000, -1.000000000000000000 ) ) ;
#704 = FILL_AREA_STYLE_COLOUR ( '', #602 ) ;
#705 = VERTEX_POINT ( 'NONE', #22 ) ;
#706 = DIRECTION ( 'NONE',  ( 0.000000000000000000, 0.000000000000000000, 1.000000000000000000 ) ) ;
#707 = COLOUR_RGB ( '',0.6274509803921568540, 0.6274509803921568540, 0.6274509803921568540 ) ;
#708 = EDGE_CURVE ( 'NONE', #308, #1013, #960, .T. ) ;
#709 = CARTESIAN_POINT ( 'NONE',  ( 1.498600000000000154, 3.174999999999999822, 0.6612000000000000099 ) ) ;
#710 = CIRCLE ( 'NONE', #169, 1.171711968392163516 ) ;
#711 = CARTESIAN_POINT ( 'NONE',  ( -2.168773318295595942, 3.174999999999999822, 0.4071999999999999509 ) ) ;
#712 = ORIENTED_EDGE ( 'NONE', *, *, #795, .T. ) ;
#713 = FACE_OUTER_BOUND ( 'NONE', #789, .T. ) ;
#714 = CARTESIAN_POINT ( 'NONE',  ( -2.168773318295595942, 0.000000000000000000, 0.2802000000000000046 ) ) ;
#715 =( NAMED_UNIT ( * ) SI_UNIT ( $, .STERADIAN. ) SOLID_ANGLE_UNIT ( ) );
#716 = ADVANCED_FACE ( 'NONE', ( #382 ), #761, .T. ) ;
#717 =( LENGTH_UNIT ( ) NAMED_UNIT ( * ) SI_UNIT ( .MILLI., .METRE. ) );
#718 = FACE_OUTER_BOUND ( 'NONE', #160, .T. ) ;
#719 = ORIENTED_EDGE ( 'NONE', *, *, #895, .T. ) ;
#720 = SURFACE_STYLE_FILL_AREA ( #431 ) ;
#721 = FACE_OUTER_BOUND ( 'NONE', #980, .T. ) ;
#722 = DIRECTION ( 'NONE',  ( 0.000000000000000000, -0.000000000000000000, -1.000000000000000000 ) ) ;
#723 = ORIENTED_EDGE ( 'NONE', *, *, #133, .T. ) ;
#724 = CARTESIAN_POINT ( 'NONE',  ( -1.635592316367925347, 0.000000000000000000, 0.3438025612106903051 ) ) ;
#725 = STYLED_ITEM ( 'NONE', ( #37 ), #53 ) ;
#726 = AXIS2_PLACEMENT_3D ( 'NONE', #741, #454, #1035 ) ;
#727 = AXIS2_PLACEMENT_3D ( 'NONE', #1206, #615, #227 ) ;
#728 = UNCERTAINTY_MEASURE_WITH_UNIT (LENGTH_MEASURE( 1.000000000000000082E-05 ), #717, 'distance_accuracy_value', 'NONE');
#729 = CYLINDRICAL_SURFACE ( 'NONE', #620, 0.1270000000000000018 ) ;
#730 = PRESENTATION_STYLE_ASSIGNMENT (( #631 ) ) ;
#731 = EDGE_LOOP ( 'NONE', ( #420, #904, #812, #907 ) ) ;
#732 = CARTESIAN_POINT ( 'NONE',  ( -1.498600000000000154, 0.000000000000000000, 0.3810000000000000053 ) ) ;
#733 = EDGE_CURVE ( 'NONE', #389, #226, #967, .T. ) ;
#734 = ADVANCED_FACE ( 'NONE', ( #1081 ), #17, .F. ) ;
#735 = LINE ( 'NONE', #938, #1105 ) ;
#736 = DIRECTION ( 'NONE',  ( 0.000000000000000000, 1.000000000000000000, 0.000000000000000000 ) ) ;
#737 = LINE ( 'NONE', #176, #309 ) ;
#738 = ORIENTED_EDGE ( 'NONE', *, *, #521, .T. ) ;
#739 = DIRECTION ( 'NONE',  ( 0.000000000000000000, 0.000000000000000000, 1.000000000000000000 ) ) ;
#740 = CARTESIAN_POINT ( 'NONE',  ( 1.682563073452829849, 0.000000000000000000, 0.5342000000000001192 ) ) ;
#741 = CARTESIAN_POINT ( 'NONE',  ( 1.682563073452829849, 0.000000000000000000, 0.5342000000000001192 ) ) ;
#742 = ORIENTED_EDGE ( 'NONE', *, *, #815, .F. ) ;
#743 = CARTESIAN_POINT ( 'NONE',  ( -1.682563073452829849, 0.000000000000000000, 0.5342000000000001192 ) ) ;
#744 = EDGE_CURVE ( 'NONE', #760, #959, #7, .T. ) ;
#745 = VECTOR ( 'NONE', #152, 1000.000000000000000 ) ;
#746 = VECTOR ( 'NONE', #1199, 1000.000000000000000 ) ;
#747 = DIRECTION ( 'NONE',  ( -1.000000000000000000, 0.000000000000000000, -1.107916130763839898E-17 ) ) ;
#748 = DIRECTION ( 'NONE',  ( 0.000000000000000000, 1.000000000000000000, -0.000000000000000000 ) ) ;
#749 = VERTEX_POINT ( 'NONE', #984 ) ;
#750 = DIRECTION ( 'NONE',  ( 0.000000000000000000, 0.000000000000000000, -1.000000000000000000 ) ) ;
#751 = ORIENTED_EDGE ( 'NONE', *, *, #297, .T. ) ;
#752 = DIRECTION ( 'NONE',  ( 0.000000000000000000, 0.000000000000000000, 1.000000000000000000 ) ) ;
#753 = CARTESIAN_POINT ( 'NONE',  ( -2.032000000000000028, 3.174999999999999822, 0.000000000000000000 ) ) ;
#754 = ORIENTED_EDGE ( 'NONE', *, *, #245, .T. ) ;
#755 = ADVANCED_FACE ( 'NONE', ( #1160 ), #1167, .T. ) ;
#756 = DIRECTION ( 'NONE',  ( 0.000000000000000000, 0.000000000000000000, -1.000000000000000000 ) ) ;
#757 = VECTOR ( 'NONE', #528, 1000.000000000000000 ) ;
#758 = CARTESIAN_POINT ( 'NONE',  ( 1.682563073452829849, 2.247235525005356277E-77, 0.6612000000000000099 ) ) ;
#759 = VECTOR ( 'NONE', #35, 1000.000000000000000 ) ;
#760 = VERTEX_POINT ( 'NONE', #127 ) ;
#761 = PLANE ( 'NONE',  #844 ) ;
#762 = AXIS2_PLACEMENT_3D ( 'NONE', #743, #377, #1235 ) ;
#763 = ORIENTED_EDGE ( 'NONE', *, *, #29, .F. ) ;
#764 = ADVANCED_FACE ( 'NONE', ( #799 ), #607, .T. ) ;
#765 = EDGE_CURVE ( 'NONE', #136, #1217, #897, .T. ) ;
#766 = STYLED_ITEM ( 'NONE', ( #1079 ), #1075 ) ;
#767 = DIRECTION ( 'NONE',  ( 1.000000000000000000, 0.000000000000000000, 0.000000000000000000 ) ) ;
#768 = FACE_OUTER_BOUND ( 'NONE', #128, .T. ) ;
#769 = ORIENTED_EDGE ( 'NONE', *, *, #378, .F. ) ;
#770 = VERTEX_POINT ( 'NONE', #817 ) ;
#771 = EDGE_CURVE ( 'NONE', #991, #371, #1210, .T. ) ;
#772 = DIRECTION ( 'NONE',  ( 0.000000000000000000, 1.000000000000000000, 0.000000000000000000 ) ) ;
#773 = FACE_OUTER_BOUND ( 'NONE', #78, .T. ) ;
#774 = VERTEX_POINT ( 'NONE', #1215 ) ;
#775 = FILL_AREA_STYLE ('',( #11 ) ) ;
#776 = ORIENTED_EDGE ( 'NONE', *, *, #92, .F. ) ;
#777 = CARTESIAN_POINT ( 'NONE',  ( 0.9296389959878581521, 0.000000000000000000, 0.6612000000000000099 ) ) ;
#778 = EDGE_CURVE ( 'NONE', #74, #1098, #869, .T. ) ;
#779 = PLANE ( 'NONE',  #228 ) ;
#780 = ORIENTED_EDGE ( 'NONE', *, *, #505, .F. ) ;
#781 = CARTESIAN_POINT ( 'NONE',  ( 2.932565832893410188E-17, 3.174999999999999822, 0.5461000000000000298 ) ) ;
#782 = AXIS2_PLACEMENT_3D ( 'NONE', #397, #19, #195 ) ;
#783 = ORIENTED_EDGE ( 'NONE', *, *, #1150, .F. ) ;
#784 = COLOUR_RGB ( '',0.6274509803921568540, 0.6274509803921568540, 0.6274509803921568540 ) ;
#785 = VECTOR ( 'NONE', #477, 1000.000000000000000 ) ;
#786 = DIRECTION ( 'NONE',  ( 0.000000000000000000, 1.000000000000000000, -0.000000000000000000 ) ) ;
#787 = DIRECTION ( 'NONE',  ( 0.000000000000000000, -0.000000000000000000, 1.000000000000000000 ) ) ;
#788 = VECTOR ( 'NONE', #435, 1000.000000000000000 ) ;
#789 = EDGE_LOOP ( 'NONE', ( #263, #1076, #870, #203, #591, #800 ) ) ;
#790 = DIRECTION ( 'NONE',  ( 0.000000000000000000, -0.000000000000000000, 1.000000000000000000 ) ) ;
#791 = DIRECTION ( 'NONE',  ( -0.000000000000000000, -1.000000000000000000, -0.000000000000000000 ) ) ;
#792 = FILL_AREA_STYLE_COLOUR ( '', #1038 ) ;
#793 = VERTEX_POINT ( 'NONE', #807 ) ;
#794 = DIRECTION ( 'NONE',  ( 0.000000000000000000, 0.000000000000000000, 1.000000000000000000 ) ) ;
#795 = EDGE_CURVE ( 'NONE', #394, #936, #596, .T. ) ;
#796 = CARTESIAN_POINT ( 'NONE',  ( -1.498600000000000154, 3.174999999999999378, 0.3810000000000000053 ) ) ;
#797 = FACE_OUTER_BOUND ( 'NONE', #640, .T. ) ;
#798 =( NAMED_UNIT ( * ) SI_UNIT ( $, .STERADIAN. ) SOLID_ANGLE_UNIT ( ) );
#799 = FACE_OUTER_BOUND ( 'NONE', #966, .T. ) ;
#800 = ORIENTED_EDGE ( 'NONE', *, *, #323, .T. ) ;
#801 = VECTOR ( 'NONE', #522, 1000.000000000000114 ) ;
#802 = ORIENTED_EDGE ( 'NONE', *, *, #765, .F. ) ;
#803 = VECTOR ( 'NONE', #1044, 1000.000000000000000 ) ;
#804 = ADVANCED_FACE ( 'NONE', ( #718 ), #1019, .T. ) ;
#805 = DIRECTION ( 'NONE',  ( 1.000000000000000000, 0.000000000000000000, 0.000000000000000000 ) ) ;
#806 = CIRCLE ( 'NONE', #110, 0.1270000000000000018 ) ;
#807 = CARTESIAN_POINT ( 'NONE',  ( 1.545789755157234824, 0.000000000000000000, 0.3810000000000000053 ) ) ;
#808 = ORIENTED_EDGE ( 'NONE', *, *, #934, .T. ) ;
#809 = CARTESIAN_POINT ( 'NONE',  ( 1.498600000000000154, 3.174999999999999378, 0.3810000000000000053 ) ) ;
#810 = CYLINDRICAL_SURFACE ( 'NONE', #663, 1.171711968392163516 ) ;
#811 = FILL_AREA_STYLE ('',( #436 ) ) ;
#812 = ORIENTED_EDGE ( 'NONE', *, *, #965, .T. ) ;
#813 = PRESENTATION_STYLE_ASSIGNMENT (( #619 ) ) ;
#814 = DIRECTION ( 'NONE',  ( 0.000000000000000000, 1.000000000000000000, 0.000000000000000000 ) ) ;
#815 = EDGE_CURVE ( 'NONE', #423, #548, #139, .T. ) ;
#816 = LINE ( 'NONE', #1129, #459 ) ;
#817 = CARTESIAN_POINT ( 'NONE',  ( -1.942197438789306618, 3.174999999999999822, 0.03719743878930865943 ) ) ;
#818 = ADVANCED_FACE ( 'NONE', ( #148 ), #339, .F. ) ;
#819 = EDGE_LOOP ( 'NONE', ( #597, #114, #205, #763 ) ) ;
#820 = FACE_OUTER_BOUND ( 'NONE', #1001, .T. ) ;
#821 = AXIS2_PLACEMENT_3D ( 'NONE', #1174, #767, #756 ) ;
#822 = VECTOR ( 'NONE', #183, 1000.000000000000000 ) ;
#823 =( NAMED_UNIT ( * ) PLANE_ANGLE_UNIT ( ) SI_UNIT ( $, .RADIAN. ) );
#824 =( GEOMETRIC_REPRESENTATION_CONTEXT ( 3 ) GLOBAL_UNCERTAINTY_ASSIGNED_CONTEXT ( ( #667 ) ) GLOBAL_UNIT_ASSIGNED_CONTEXT ( ( #979, #699, #1204 ) ) REPRESENTATION_CONTEXT ( 'NONE', 'WORKASPACE' ) );
#825 = UNCERTAINTY_MEASURE_WITH_UNIT (LENGTH_MEASURE( 1.000000000000000082E-05 ), #342, 'distance_accuracy_value', 'NONE');
#826 = DIRECTION ( 'NONE',  ( 0.000000000000000000, -1.000000000000000000, -0.000000000000000000 ) ) ;
#827 = PLANE ( 'NONE',  #51 ) ;
#828 = VECTOR ( 'NONE', #261, 1000.000000000000000 ) ;
#829 = ORIENTED_EDGE ( 'NONE', *, *, #26, .F. ) ;
#830 = CARTESIAN_POINT ( 'NONE',  ( -1.498600000000000154, 0.000000000000000000, 0.6612000000000000099 ) ) ;
#831 = STYLED_ITEM ( 'NONE', ( #132 ), #1170 ) ;
#832 = CARTESIAN_POINT ( 'NONE',  ( 0.000000000000000000, 0.000000000000000000, 0.000000000000000000 ) ) ;
#833 = CARTESIAN_POINT ( 'NONE',  ( -2.168773318295595942, 3.174999999999999822, 0.2802000000000000046 ) ) ;
#834 = CARTESIAN_POINT ( 'NONE',  ( -2.032000000000000028, 0.000000000000000000, 0.000000000000000000 ) ) ;
#835 = ORIENTED_EDGE ( 'NONE', *, *, #495, .F. ) ;
#836 = CYLINDRICAL_SURFACE ( 'NONE', #762, 0.1270000000000000573 ) ;
#837 = ADVANCED_FACE ( 'NONE', ( #48 ), #242, .T. ) ;
#838 = CARTESIAN_POINT ( 'NONE',  ( 1.635592316367924015, 3.174999999999999822, 0.3438025612106893614 ) ) ;
#839 = ORIENTED_EDGE ( 'NONE', *, *, #297, .F. ) ;
#840 = CARTESIAN_POINT ( 'NONE',  ( -1.682563073452829849, 5.685870533255175103E-138, 0.6612000000000001210 ) ) ;
#841 = CARTESIAN_POINT ( 'NONE',  ( -1.498600000000000154, 0.000000000000000000, 0.7112000000000000544 ) ) ;
#842 = AXIS2_PLACEMENT_3D ( 'NONE', #1192, #324, #1078 ) ;
#843 = ADVANCED_FACE ( 'NONE', ( #940 ), #827, .T. ) ;
#844 = AXIS2_PLACEMENT_3D ( 'NONE', #571, #875, #590 ) ;
#845 = SURFACE_SIDE_STYLE ('',( #458 ) ) ;
#846 = ORIENTED_EDGE ( 'NONE', *, *, #965, .F. ) ;
#847 = CARTESIAN_POINT ( 'NONE',  ( -1.498600000000000154, 3.174999999999999822, 0.3810000000000000053 ) ) ;
#848 = ADVANCED_BREP_SHAPE_REPRESENTATION ( 'WSLF25121L500FEA', ( #53, #868, #457, #288 ), #1124 ) ;
#849 = AXIS2_PLACEMENT_3D ( 'NONE', #370, #1241, #651 ) ;
#850 = CARTESIAN_POINT ( 'NONE',  ( 0.000000000000000000, 0.000000000000000000, 0.5461000000000000298 ) ) ;
#851 = EDGE_CURVE ( 'NONE', #566, #371, #806, .T. ) ;
#852 = DIRECTION ( 'NONE',  ( 0.000000000000000000, -1.000000000000000000, 8.575689124375139816E-33 ) ) ;
#853 = ORIENTED_EDGE ( 'NONE', *, *, #956, .T. ) ;
#854 = DIRECTION ( 'NONE',  ( -3.414809992080325966E-15, 0.000000000000000000, 1.000000000000000000 ) ) ;
#855 = UNCERTAINTY_MEASURE_WITH_UNIT (LENGTH_MEASURE( 1.000000000000000082E-05 ), #31, 'distance_accuracy_value', 'NONE');
#856 = DIRECTION ( 'NONE',  ( 0.000000000000000000, 1.000000000000000000, 0.000000000000000000 ) ) ;
#857 = CARTESIAN_POINT ( 'NONE',  ( 2.078970757084905419, 0.000000000000000000, 0.3173974387893097604 ) ) ;
#858 = EDGE_CURVE ( 'NONE', #16, #406, #159, .T. ) ;
#859 = ORIENTED_EDGE ( 'NONE', *, *, #157, .F. ) ;
#860 = FILL_AREA_STYLE_COLOUR ( '', #867 ) ;
#861 = EDGE_CURVE ( 'NONE', #1168, #389, #210, .T. ) ;
#862 = EDGE_LOOP ( 'NONE', ( #1205, #320, #941, #209 ) ) ;
#863 = CARTESIAN_POINT ( 'NONE',  ( 2.032000000000000028, 0.000000000000000000, 0.1270000000000000018 ) ) ;
#864 = LINE ( 'NONE', #93, #432 ) ;
#865 = ORIENTED_EDGE ( 'NONE', *, *, #222, .F. ) ;
#866 = DIRECTION ( 'NONE',  ( 0.000000000000000000, 0.000000000000000000, -1.000000000000000000 ) ) ;
#867 = COLOUR_RGB ( '',0.6274509803921568540, 0.6274509803921568540, 0.6274509803921568540 ) ;
#868 = MANIFOLD_SOLID_BREP ( 'Cut-Extrude1', #1236 ) ;
#869 = CIRCLE ( 'NONE', #687, 0.1270000000000001128 ) ;
#870 = ORIENTED_EDGE ( 'NONE', *, *, #1133, .T. ) ;
#871 = EDGE_CURVE ( 'NONE', #548, #1007, #1233, .T. ) ;
#872 = AXIS2_PLACEMENT_3D ( 'NONE', #529, #345, #852 ) ;
#873 = DIRECTION ( 'NONE',  ( 0.000000000000000000, -0.000000000000000000, -1.000000000000000000 ) ) ;
#874 = ORIENTED_EDGE ( 'NONE', *, *, #997, .F. ) ;
#875 = DIRECTION ( 'NONE',  ( -1.000000000000000000, 0.000000000000000000, 0.000000000000000000 ) ) ;
#876 = ORIENTED_EDGE ( 'NONE', *, *, #1142, .T. ) ;
#877 = EDGE_CURVE ( 'NONE', #215, #226, #737, .T. ) ;
#878 = CARTESIAN_POINT ( 'NONE',  ( -1.498600000000000154, 3.174999999999999822, 0.6612000000000000099 ) ) ;
#879 = CARTESIAN_POINT ( 'NONE',  ( -1.682563073452829849, 0.000000000000000000, 0.6612000000000000099 ) ) ;
#880 = ORIENTED_EDGE ( 'NONE', *, *, #997, .T. ) ;
#881 = DIRECTION ( 'NONE',  ( 1.000000000000000000, 0.000000000000000000, 0.000000000000000000 ) ) ;
#882 = ORIENTED_EDGE ( 'NONE', *, *, #102, .F. ) ;
#883 = LINE ( 'NONE', #516, #801 ) ;
#884 = PLANE ( 'NONE',  #648 ) ;
#885 = CLOSED_SHELL ( 'NONE', ( #280, #202, #392, #66, #1090, #1052, #513, #555, #818, #593, #843, #1185, #716, #1026 ) ) ;
#886 = CARTESIAN_POINT ( 'NONE',  ( -1.545789755157234824, 0.000000000000000000, 0.2540000000000000036 ) ) ;
#887 = VECTOR ( 'NONE', #1067, 1000.000000000000000 ) ;
#888 = ORIENTED_EDGE ( 'NONE', *, *, #275, .T. ) ;
#889 = AXIS2_PLACEMENT_3D ( 'NONE', #847, #1245, #1230 ) ;
#890 = VECTOR ( 'NONE', #124, 1000.000000000000000 ) ;
#891 = APPLICATION_CONTEXT ( 'automotive_design' ) ;
#892 = FILL_AREA_STYLE_COLOUR ( '', #948 ) ;
#893 = LINE ( 'NONE', #517, #1060 ) ;
#894 = VECTOR ( 'NONE', #532, 1000.000000000000000 ) ;
#895 = EDGE_CURVE ( 'NONE', #221, #749, #368, .T. ) ;
#896 = DIRECTION ( 'NONE',  ( 0.000000000000000000, 0.000000000000000000, 1.000000000000000000 ) ) ;
#897 = LINE ( 'NONE', #38, #367 ) ;
#898 = ORIENTED_EDGE ( 'NONE', *, *, #665, .T. ) ;
#899 = ORIENTED_EDGE ( 'NONE', *, *, #1037, .F. ) ;
#900 = LINE ( 'NONE', #40, #990 ) ;
#901 = DIRECTION ( 'NONE',  ( -0.000000000000000000, 1.000000000000000000, 0.000000000000000000 ) ) ;
#902 = FILL_AREA_STYLE ('',( #792 ) ) ;
#903 = ADVANCED_FACE ( 'NONE', ( #357 ), #639, .F. ) ;
#904 = ORIENTED_EDGE ( 'NONE', *, *, #283, .T. ) ;
#905 = CARTESIAN_POINT ( 'NONE',  ( 3.174999999999999378, 3.174999999999999378, 0.000000000000000000 ) ) ;
#906 = ADVANCED_FACE ( 'NONE', ( #443 ), #951, .T. ) ;
#907 = ORIENTED_EDGE ( 'NONE', *, *, #321, .F. ) ;
#908 = LINE ( 'NONE', #417, #1053 ) ;
#909 = DIRECTION ( 'NONE',  ( -0.000000000000000000, -1.000000000000000000, -0.000000000000000000 ) ) ;
#910 = PRODUCT_DEFINITION_CONTEXT ( 'detailed design', #891, 'design' ) ;
#911 = DIRECTION ( 'NONE',  ( -1.000000000000000000, -0.000000000000000000, -0.000000000000000000 ) ) ;
#912 = VERTEX_POINT ( 'NONE', #945 ) ;
#913 = FILL_AREA_STYLE_COLOUR ( '', #784 ) ;
#914 = CIRCLE ( 'NONE', #726, 0.1269999999999999463 ) ;
#915 = CARTESIAN_POINT ( 'NONE',  ( 1.498600000000000154, 3.174999999999999822, 0.3810000000000000053 ) ) ;
#916 = COLOUR_RGB ( '',0.6274509803921568540, 0.6274509803921568540, 0.6274509803921568540 ) ;
#917 = DIRECTION ( 'NONE',  ( -1.000000000000000000, 0.000000000000000000, 0.000000000000000000 ) ) ;
#918 = MECHANICAL_DESIGN_GEOMETRIC_PRESENTATION_REPRESENTATION (  '', ( #831 ), #284 ) ;
#919 = ORIENTED_EDGE ( 'NONE', *, *, #5, .T. ) ;
#920 = EDGE_CURVE ( 'NONE', #680, #535, #82, .T. ) ;
#921 = LINE ( 'NONE', #156, #894 ) ;
#922 = CARTESIAN_POINT ( 'NONE',  ( -2.032000000000000028, 3.174999999999999822, 0.000000000000000000 ) ) ;
#923 = CARTESIAN_POINT ( 'NONE',  ( -1.498600000000000154, 3.174999999999999822, 0.7112000000000000544 ) ) ;
#924 = ORIENTED_EDGE ( 'NONE', *, *, #541, .T. ) ;
#925 = DIRECTION ( 'NONE',  ( 6.829619984160657454E-15, 0.000000000000000000, 1.000000000000000000 ) ) ;
#926 = LINE ( 'NONE', #76, #503 ) ;
#927 = PLANE ( 'NONE',  #1237 ) ;
#928 = CARTESIAN_POINT ( 'NONE',  ( 2.032000000000000028, 3.174999999999999822, 0.1270000000000000018 ) ) ;
#929 = ORIENTED_EDGE ( 'NONE', *, *, #422, .F. ) ;
#930 = VECTOR ( 'NONE', #158, 1000.000000000000000 ) ;
#931 = AXIS2_PLACEMENT_3D ( 'NONE', #471, #1155, #854 ) ;
#932 = DIRECTION ( 'NONE',  ( -0.000000000000000000, -1.000000000000000000, -0.000000000000000000 ) ) ;
#933 = CARTESIAN_POINT ( 'NONE',  ( 1.682563073452829849, 0.000000000000000000, 0.6612000000000000099 ) ) ;
#934 = EDGE_CURVE ( 'NONE', #474, #406, #1047, .T. ) ;
#935 = VECTOR ( 'NONE', #236, 1000.000000000000000 ) ;
#936 = VERTEX_POINT ( 'NONE', #162 ) ;
#937 = DIRECTION ( 'NONE',  ( -0.000000000000000000, 1.000000000000000000, -8.575689124375139816E-33 ) ) ;
#938 = CARTESIAN_POINT ( 'NONE',  ( -1.682563073452829849, 0.000000000000000000, 0.6612000000000001210 ) ) ;
#939 = FACE_OUTER_BOUND ( 'NONE', #1154, .T. ) ;
#940 = FACE_OUTER_BOUND ( 'NONE', #416, .T. ) ;
#941 = ORIENTED_EDGE ( 'NONE', *, *, #568, .T. ) ;
#942 = DIRECTION ( 'NONE',  ( -1.000000000000000000, -0.000000000000000000, 0.000000000000000000 ) ) ;
#943 = PRODUCT_DEFINITION ( 'UNKNOWN', '', #691, #910 ) ;
#944 = LINE ( 'NONE', #1240, #745 ) ;
#945 = CARTESIAN_POINT ( 'NONE',  ( -1.498600000000000154, 0.000000000000000000, 0.3810000000000000053 ) ) ;
#946 = ORIENTED_EDGE ( 'NONE', *, *, #652, .T. ) ;
#947 = DIRECTION ( 'NONE',  ( 0.7071067811865474617, 0.000000000000000000, -0.7071067811865474617 ) ) ;
#948 = COLOUR_RGB ( '',0.5372549019607842924, 0.3490196078431372362, 0.3372549019607843368 ) ;
#949 = AXIS2_PLACEMENT_3D ( 'NONE', #1002, #252, #925 ) ;
#950 = CARTESIAN_POINT ( 'NONE',  ( 1.498600000000000154, 0.000000000000000000, 0.6612000000000000099 ) ) ;
#951 = PLANE ( 'NONE',  #626 ) ;
#952 = VERTEX_POINT ( 'NONE', #539 ) ;
#953 = CARTESIAN_POINT ( 'NONE',  ( -1.545789755157234824, 0.000000000000000000, 0.3809999999999999498 ) ) ;
#954 = VECTOR ( 'NONE', #564, 1000.000000000000000 ) ;
#955 = CIRCLE ( 'NONE', #526, 0.1269999999999981422 ) ;
#956 = EDGE_CURVE ( 'NONE', #1061, #749, #449, .T. ) ;
#957 = CARTESIAN_POINT ( 'NONE',  ( 1.498600000000000376, 0.000000000000000000, 0.6612000000000000099 ) ) ;
#958 = EDGE_CURVE ( 'NONE', #1066, #58, #20, .T. ) ;
#959 = VERTEX_POINT ( 'NONE', #581 ) ;
#960 = LINE ( 'NONE', #109, #49 ) ;
#961 = EDGE_LOOP ( 'NONE', ( #572, #865, #1172, #1223 ) ) ;
#962 = UNCERTAINTY_MEASURE_WITH_UNIT (LENGTH_MEASURE( 1.000000000000000082E-05 ), #527, 'distance_accuracy_value', 'NONE');
#963 = PLANE ( 'NONE',  #821 ) ;
#964 = DIRECTION ( 'NONE',  ( 0.000000000000000000, -1.000000000000000000, 5.690876648960960028E-31 ) ) ;
#965 = EDGE_CURVE ( 'NONE', #760, #16, #864, .T. ) ;
#966 = EDGE_LOOP ( 'NONE', ( #692, #381, #719, #295 ) ) ;
#967 = LINE ( 'NONE', #693, #304 ) ;
#968 = ORIENTED_EDGE ( 'NONE', *, *, #14, .F. ) ;
#969 = DIRECTION ( 'NONE',  ( 0.7071067811865474617, 0.000000000000000000, 0.7071067811865474617 ) ) ;
#970 =( LENGTH_UNIT ( ) NAMED_UNIT ( * ) SI_UNIT ( .MILLI., .METRE. ) );
#971 = AXIS2_PLACEMENT_3D ( 'NONE', #353, #90, #947 ) ;
#972 = ORIENTED_EDGE ( 'NONE', *, *, #636, .T. ) ;
#973 = DIRECTION ( 'NONE',  ( 0.000000000000000000, -0.000000000000000000, -1.000000000000000000 ) ) ;
#974 = EDGE_CURVE ( 'NONE', #221, #530, #292, .T. ) ;
#975 = EDGE_LOOP ( 'NONE', ( #177, #1084, #191, #492 ) ) ;
#976 = LINE ( 'NONE', #112, #1119 ) ;
#977 = CARTESIAN_POINT ( 'NONE',  ( 1.635592316367924015, 0.000000000000000000, 0.3438025612106894169 ) ) ;
#978 = ORIENTED_EDGE ( 'NONE', *, *, #1187, .T. ) ;
#979 =( LENGTH_UNIT ( ) NAMED_UNIT ( * ) SI_UNIT ( .MILLI., .METRE. ) );
#980 = EDGE_LOOP ( 'NONE', ( #553, #653, #238, #234, #839, #501, #462, #1244, #440, #769, #255, #660 ) ) ;
#981 = LINE ( 'NONE', #1181, #166 ) ;
#982 = DIRECTION ( 'NONE',  ( 0.7071067811865454633, 0.000000000000000000, 0.7071067811865496822 ) ) ;
#983 = VERTEX_POINT ( 'NONE', #98 ) ;
#984 = CARTESIAN_POINT ( 'NONE',  ( -2.032000000000000028, 0.000000000000000000, 0.000000000000000000 ) ) ;
#985 = ORIENTED_EDGE ( 'NONE', *, *, #187, .F. ) ;
#986 = ADVANCED_FACE ( 'NONE', ( #773 ), #398, .T. ) ;
#987 = CYLINDRICAL_SURFACE ( 'NONE', #1141, 0.1270000000000001128 ) ;
#988 = SURFACE_STYLE_USAGE ( .BOTH. , #1018 ) ;
#989 = CARTESIAN_POINT ( 'NONE',  ( -2.032000000000000028, 0.000000000000000000, 0.1270000000000000018 ) ) ;
#990 = VECTOR ( 'NONE', #1207, 1000.000000000000000 ) ;
#991 = VERTEX_POINT ( 'NONE', #1072 ) ;
#992 = STYLED_ITEM ( 'NONE', ( #813 ), #537 ) ;
#993 = VECTOR ( 'NONE', #1006, 1000.000000000000000 ) ;
#994 = ORIENTED_EDGE ( 'NONE', *, *, #1112, .T. ) ;
#995 = VECTOR ( 'NONE', #460, 1000.000000000000000 ) ;
#996 = CARTESIAN_POINT ( 'NONE',  ( -1.498600000000000154, 0.000000000000000000, 0.3810000000000000053 ) ) ;
#997 = EDGE_CURVE ( 'NONE', #770, #1126, #588, .T. ) ;
#998 = DIRECTION ( 'NONE',  ( -0.7071067811865454633, 0.000000000000000000, 0.7071067811865496822 ) ) ;
#999 = PRESENTATION_STYLE_ASSIGNMENT (( #1005 ) ) ;
#1000 = DIRECTION ( 'NONE',  ( 0.000000000000000000, -0.000000000000000000, -1.000000000000000000 ) ) ;
#1001 = EDGE_LOOP ( 'NONE', ( #1108, #589, #1179, #358 ) ) ;
#1002 = CARTESIAN_POINT ( 'NONE',  ( 1.545789755157234824, 3.174999999999999822, 0.2540000000000000036 ) ) ;
#1003 = CARTESIAN_POINT ( 'NONE',  ( -3.174999999999999378, 3.174999999999999378, -8.442320916420460474E-18 ) ) ;
#1004 = SURFACE_SIDE_STYLE ('',( #1093 ) ) ;
#1005 = SURFACE_STYLE_USAGE ( .BOTH. , #1106 ) ;
#1006 = DIRECTION ( 'NONE',  ( 0.000000000000000000, 1.000000000000000000, 0.000000000000000000 ) ) ;
#1007 = VERTEX_POINT ( 'NONE', #307 ) ;
#1008 = LINE ( 'NONE', #520, #746 ) ;
#1009 = SURFACE_STYLE_FILL_AREA ( #408 ) ;
#1010 = FILL_AREA_STYLE ('',( #704 ) ) ;
#1011 = CARTESIAN_POINT ( 'NONE',  ( 0.9296389959878581521, 0.000000000000000000, 0.5461000000000000298 ) ) ;
#1012 = COLOUR_RGB ( '',0.5372549019607842924, 0.3490196078431372362, 0.3372549019607843368 ) ;
#1013 = VERTEX_POINT ( 'NONE', #957 ) ;
#1014 = EDGE_CURVE ( 'NONE', #770, #221, #1158, .T. ) ;
#1015 = AXIS2_PLACEMENT_3D ( 'NONE', #174, #561, #739 ) ;
#1016 = SURFACE_STYLE_USAGE ( .BOTH. , #1004 ) ;
#1017 = AXIS2_PLACEMENT_3D ( 'NONE', #1143, #65, #250 ) ;
#1018 = SURFACE_SIDE_STYLE ('',( #241 ) ) ;
#1019 = PLANE ( 'NONE',  #1120 ) ;
#1020 = EDGE_LOOP ( 'NONE', ( #44, #783, #116, #310 ) ) ;
#1021 = LINE ( 'NONE', #545, #1057 ) ;
#1022 = LINE ( 'NONE', #933, #1173 ) ;
#1023 = DIRECTION ( 'NONE',  ( 0.000000000000000000, 0.000000000000000000, 1.000000000000000000 ) ) ;
#1024 = ORIENTED_EDGE ( 'NONE', *, *, #1163, .F. ) ;
#1025 = DIRECTION ( 'NONE',  ( 0.000000000000000000, 1.000000000000000000, 0.000000000000000000 ) ) ;
#1026 = ADVANCED_FACE ( 'NONE', ( #9 ), #676, .T. ) ;
#1027 = DIRECTION ( 'NONE',  ( -1.000000000000000000, 2.443137617595383271E-76, 4.293077795037871945E-46 ) ) ;
#1028 = DIRECTION ( 'NONE',  ( 0.000000000000000000, -1.000000000000000000, 0.000000000000000000 ) ) ;
#1029 = ORIENTED_EDGE ( 'NONE', *, *, #1112, .F. ) ;
#1030 = CYLINDRICAL_SURFACE ( 'NONE', #1015, 0.1269999999999981422 ) ;
#1031 = VECTOR ( 'NONE', #259, 1000.000000000000000 ) ;
#1032 = VECTOR ( 'NONE', #703, 1000.000000000000000 ) ;
#1033 = CIRCLE ( 'NONE', #949, 0.1270000000000000018 ) ;
#1034 = SHAPE_DEFINITION_REPRESENTATION ( #702, #848 ) ;
#1035 = DIRECTION ( 'NONE',  ( 0.000000000000000000, 0.000000000000000000, 1.000000000000000000 ) ) ;
#1036 = SURFACE_SIDE_STYLE ('',( #171 ) ) ;
#1037 = EDGE_CURVE ( 'NONE', #406, #1114, #569, .T. ) ;
#1038 = COLOUR_RGB ( '',0.6274509803921568540, 0.6274509803921568540, 0.6274509803921568540 ) ;
#1039 = VERTEX_POINT ( 'NONE', #758 ) ;
#1040 = LINE ( 'NONE', #549, #207 ) ;
#1041 = PLANE ( 'NONE',  #343 ) ;
#1042 = CARTESIAN_POINT ( 'NONE',  ( -1.498600000000000154, 0.000000000000000000, 0.3810000000000000053 ) ) ;
#1043 = ORIENTED_EDGE ( 'NONE', *, *, #861, .T. ) ;
#1044 = DIRECTION ( 'NONE',  ( -0.000000000000000000, -1.000000000000000000, -0.000000000000000000 ) ) ;
#1045 = LINE ( 'NONE', #841, #467 ) ;
#1046 = DIRECTION ( 'NONE',  ( -0.000000000000000000, -0.000000000000000000, 1.000000000000000000 ) ) ;
#1047 = LINE ( 'NONE', #181, #606 ) ;
#1048 = ORIENTED_EDGE ( 'NONE', *, *, #1225, .T. ) ;
#1049 = LINE ( 'NONE', #953, #822 ) ;
#1050 = ADVANCED_FACE ( 'NONE', ( #768 ), #884, .T. ) ;
#1051 = MECHANICAL_DESIGN_GEOMETRIC_PRESENTATION_REPRESENTATION (  '', ( #725 ), #500 ) ;
#1052 = ADVANCED_FACE ( 'NONE', ( #189 ), #277, .T. ) ;
#1053 = VECTOR ( 'NONE', #1085, 1000.000000000000114 ) ;
#1054 = AXIS2_PLACEMENT_3D ( 'NONE', #657, #654, #359 ) ;
#1055 = DIRECTION ( 'NONE',  ( 1.000000000000000000, -2.443137617595383271E-76, -4.293077795037871945E-46 ) ) ;
#1056 = DIRECTION ( 'NONE',  ( -0.7071067811865480168, 0.000000000000000000, -0.7071067811865470176 ) ) ;
#1057 = VECTOR ( 'NONE', #635, 1000.000000000000000 ) ;
#1058 = ORIENTED_EDGE ( 'NONE', *, *, #1226, .T. ) ;
#1059 = LINE ( 'NONE', #365, #224 ) ;
#1060 = VECTOR ( 'NONE', #998, 1000.000000000000114 ) ;
#1061 = VERTEX_POINT ( 'NONE', #753 ) ;
#1062 = CARTESIAN_POINT ( 'NONE',  ( -1.545789755157234824, 3.174999999999999822, 0.3809999999999999498 ) ) ;
#1063 = DIRECTION ( 'NONE',  ( 1.000000000000000000, 0.000000000000000000, -0.000000000000000000 ) ) ;
#1064 = EDGE_LOOP ( 'NONE', ( #314, #273, #560, #1070 ) ) ;
#1065 =( NAMED_UNIT ( * ) SI_UNIT ( $, .STERADIAN. ) SOLID_ANGLE_UNIT ( ) );
#1066 = VERTEX_POINT ( 'NONE', #1069 ) ;
#1067 = DIRECTION ( 'NONE',  ( 0.000000000000000000, 0.000000000000000000, 1.000000000000000000 ) ) ;
#1068 = EDGE_CURVE ( 'NONE', #959, #983, #1165, .T. ) ;
#1069 = CARTESIAN_POINT ( 'NONE',  ( 1.635592316367924903, 0.000000000000000000, 0.3438025612106897499 ) ) ;
#1070 = ORIENTED_EDGE ( 'NONE', *, *, #934, .F. ) ;
#1071 = ORIENTED_EDGE ( 'NONE', *, *, #1231, .F. ) ;
#1072 = CARTESIAN_POINT ( 'NONE',  ( 1.942197438789306618, 0.000000000000000000, 0.03719743878930870107 ) ) ;
#1073 = AXIS2_PLACEMENT_3D ( 'NONE', #1100, #341, #794 ) ;
#1074 = ORIENTED_EDGE ( 'NONE', *, *, #733, .F. ) ;
#1075 = ADVANCED_FACE ( 'NONE', ( #201 ), #779, .T. ) ;
#1076 = ORIENTED_EDGE ( 'NONE', *, *, #155, .F. ) ;
#1077 = VECTOR ( 'NONE', #911, 1000.000000000000000 ) ;
#1078 = DIRECTION ( 'NONE',  ( 1.000000000000000000, 0.000000000000000000, -0.000000000000000000 ) ) ;
#1079 = PRESENTATION_STYLE_ASSIGNMENT (( #670 ) ) ;
#1080 = ORIENTED_EDGE ( 'NONE', *, *, #958, .F. ) ;
#1081 = FACE_OUTER_BOUND ( 'NONE', #470, .T. ) ;
#1082 = ORIENTED_EDGE ( 'NONE', *, *, #1239, .T. ) ;
#1083 = EDGE_CURVE ( 'NONE', #1098, #476, #28, .T. ) ;
#1084 = ORIENTED_EDGE ( 'NONE', *, *, #1083, .T. ) ;
#1085 = DIRECTION ( 'NONE',  ( 0.7071067811865474617, 0.000000000000000000, 0.7071067811865474617 ) ) ;
#1086 = CARTESIAN_POINT ( 'NONE',  ( -1.635592316367925347, 3.174999999999999822, 0.3438025612106902495 ) ) ;
#1087 = LINE ( 'NONE', #350, #163 ) ;
#1088 = DIRECTION ( 'NONE',  ( 1.000000000000000000, -0.000000000000000000, 0.000000000000000000 ) ) ;
#1089 = ORIENTED_EDGE ( 'NONE', *, *, #495, .T. ) ;
#1090 = ADVANCED_FACE ( 'NONE', ( #797 ), #403, .F. ) ;
#1091 = EDGE_CURVE ( 'NONE', #991, #1066, #893, .T. ) ;
#1092 = CARTESIAN_POINT ( 'NONE',  ( 1.682563073452829849, 3.174999999999999822, 0.6612000000000000099 ) ) ;
#1093 = SURFACE_STYLE_FILL_AREA ( #1010 ) ;
#1094 = CLOSED_SHELL ( 'NONE', ( #142, #764, #903, #804, #1127, #1050, #433, #734, #466, #906, #258, #677, #634, #986 ) ) ;
#1095 =( LENGTH_UNIT ( ) NAMED_UNIT ( * ) SI_UNIT ( .MILLI., .METRE. ) );
#1096 = DIRECTION ( 'NONE',  ( 0.000000000000000000, 0.000000000000000000, 1.000000000000000000 ) ) ;
#1097 = AXIS2_PLACEMENT_3D ( 'NONE', #573, #180, #969 ) ;
#1098 = VERTEX_POINT ( 'NONE', #312 ) ;
#1099 = CIRCLE ( 'NONE', #931, 0.1270000000000001128 ) ;
#1100 = CARTESIAN_POINT ( 'NONE',  ( 1.545789755157234824, 0.000000000000000000, 0.2540000000000000036 ) ) ;
#1101 = AXIS2_PLACEMENT_3D ( 'NONE', #429, #439, #1000 ) ;
#1102 = MECHANICAL_DESIGN_GEOMETRIC_PRESENTATION_REPRESENTATION (  '', ( #766 ), #33 ) ;
#1103 = SURFACE_SIDE_STYLE ('',( #1009 ) ) ;
#1104 = DIRECTION ( 'NONE',  ( 1.000000000000000000, 0.000000000000000000, 0.000000000000000000 ) ) ;
#1105 = VECTOR ( 'NONE', #814, 1000.000000000000000 ) ;
#1106 = SURFACE_SIDE_STYLE ('',( #605 ) ) ;
#1107 = DIRECTION ( 'NONE',  ( -0.000000000000000000, -0.000000000000000000, 1.000000000000000000 ) ) ;
#1108 = ORIENTED_EDGE ( 'NONE', *, *, #453, .T. ) ;
#1109 = PLANE ( 'NONE',  #889 ) ;
#1110 = FACE_OUTER_BOUND ( 'NONE', #686, .T. ) ;
#1111 = CARTESIAN_POINT ( 'NONE',  ( 2.314685842675820115, 0.000000000000000000, 0.2687510811488479923 ) ) ;
#1112 = EDGE_CURVE ( 'NONE', #1013, #103, #697, .T. ) ;
#1113 = DIRECTION ( 'NONE',  ( 0.000000000000000000, 1.000000000000000000, 0.000000000000000000 ) ) ;
#1114 = VERTEX_POINT ( 'NONE', #524 ) ;
#1115 = LINE ( 'NONE', #617, #130 ) ;
#1116 = CARTESIAN_POINT ( 'NONE',  ( 3.174999999999999378, 0.000000000000000000, 0.2801999999999999491 ) ) ;
#1117 = CARTESIAN_POINT ( 'NONE',  ( -3.174999999999999822, 0.000000000000000000, -1.266348137463070073E-17 ) ) ;
#1118 = ORIENTED_EDGE ( 'NONE', *, *, #1187, .F. ) ;
#1119 = VECTOR ( 'NONE', #373, 1000.000000000000000 ) ;
#1120 = AXIS2_PLACEMENT_3D ( 'NONE', #1117, #153, #1096 ) ;
#1121 = CARTESIAN_POINT ( 'NONE',  ( -1.498600000000000154, 0.000000000000000000, 0.3810000000000000053 ) ) ;
#1122 = AXIS2_PLACEMENT_3D ( 'NONE', #134, #1113, #512 ) ;
#1123 = CARTESIAN_POINT ( 'NONE',  ( 5.648007849606931081E-49, -0.7132182513173130900, 0.6612000000000001210 ) ) ;
#1124 =( GEOMETRIC_REPRESENTATION_CONTEXT ( 3 ) GLOBAL_UNCERTAINTY_ASSIGNED_CONTEXT ( ( #825 ) ) GLOBAL_UNIT_ASSIGNED_CONTEXT ( ( #342, #823, #536 ) ) REPRESENTATION_CONTEXT ( 'NONE', 'WORKASPACE' ) );
#1125 =( NAMED_UNIT ( * ) PLANE_ANGLE_UNIT ( ) SI_UNIT ( $, .RADIAN. ) );
#1126 = VERTEX_POINT ( 'NONE', #1086 ) ;
#1127 = ADVANCED_FACE ( 'NONE', ( #721 ), #1202, .T. ) ;
#1128 = UNCERTAINTY_MEASURE_WITH_UNIT (LENGTH_MEASURE( 1.000000000000000082E-05 ), #1212, 'distance_accuracy_value', 'NONE');
#1129 = CARTESIAN_POINT ( 'NONE',  ( -1.498600000000000154, 3.174999999999999822, 0.7112000000000000544 ) ) ;
#1130 = DIRECTION ( 'NONE',  ( -1.000000000000000000, 0.000000000000000000, -0.000000000000000000 ) ) ;
#1131 = VERTEX_POINT ( 'NONE', #1208 ) ;
#1132 =( LENGTH_UNIT ( ) NAMED_UNIT ( * ) SI_UNIT ( .MILLI., .METRE. ) );
#1133 = EDGE_CURVE ( 'NONE', #407, #705, #710, .T. ) ;
#1134 =( NAMED_UNIT ( * ) PLANE_ANGLE_UNIT ( ) SI_UNIT ( $, .RADIAN. ) );
#1135 = APPLICATION_PROTOCOL_DEFINITION ( 'draft international standard', 'automotive_design', 1998, #184 ) ;
#1136 = EDGE_CURVE ( 'NONE', #413, #376, #1115, .T. ) ;
#1137 = FILL_AREA_STYLE_COLOUR ( '', #86 ) ;
#1138 = DIRECTION ( 'NONE',  ( 0.000000000000000000, 0.000000000000000000, -1.000000000000000000 ) ) ;
#1139 = ORIENTED_EDGE ( 'NONE', *, *, #974, .F. ) ;
#1140 = CARTESIAN_POINT ( 'NONE',  ( -3.174999999999999822, 3.174999999999999822, 0.2802000000000000046 ) ) ;
#1141 = AXIS2_PLACEMENT_3D ( 'NONE', #531, #414, #706 ) ;
#1142 = EDGE_CURVE ( 'NONE', #1126, #530, #41, .T. ) ;
#1143 = CARTESIAN_POINT ( 'NONE',  ( -2.032000000000000028, 0.000000000000000000, 0.1270000000000000018 ) ) ;
#1144 = PRESENTATION_LAYER_ASSIGNMENT (  '', '', ( #766 ) ) ;
#1145 = ORIENTED_EDGE ( 'NONE', *, *, #861, .F. ) ;
#1146 = LINE ( 'NONE', #456, #803 ) ;
#1147 = DIRECTION ( 'NONE',  ( 1.000000000000000000, 0.000000000000000000, 0.000000000000000000 ) ) ;
#1148 = SURFACE_STYLE_USAGE ( .BOTH. , #845 ) ;
#1149 = FILL_AREA_STYLE ('',( #272 ) ) ;
#1150 = EDGE_CURVE ( 'NONE', #983, #1131, #955, .T. ) ;
#1151 = EDGE_LOOP ( 'NONE', ( #712, #450, #1082, #1118 ) ) ;
#1152 = DIRECTION ( 'NONE',  ( 1.000000000000000000, 2.443137617595383271E-76, 4.293077795037871945E-46 ) ) ;
#1153 = FACE_OUTER_BOUND ( 'NONE', #214, .T. ) ;
#1154 = EDGE_LOOP ( 'NONE', ( #430, #853, #486, #384 ) ) ;
#1155 = DIRECTION ( 'NONE',  ( -0.000000000000000000, -1.000000000000000000, -0.000000000000000000 ) ) ;
#1156 = VECTOR ( 'NONE', #126, 1000.000000000000000 ) ;
#1157 = LINE ( 'NONE', #1246, #146 ) ;
#1158 = LINE ( 'NONE', #485, #190 ) ;
#1159 = ORIENTED_EDGE ( 'NONE', *, *, #765, .T. ) ;
#1160 = FACE_OUTER_BOUND ( 'NONE', #340, .T. ) ;
#1161 = AXIS2_PLACEMENT_3D ( 'NONE', #879, #298, #208 ) ;
#1162 = ORIENTED_EDGE ( 'NONE', *, *, #354, .F. ) ;
#1163 = EDGE_CURVE ( 'NONE', #566, #474, #510, .T. ) ;
#1164 = CARTESIAN_POINT ( 'NONE',  ( -1.682563073452829849, 0.000000000000000000, 0.6612000000000000099 ) ) ;
#1165 = LINE ( 'NONE', #857, #954 ) ;
#1166 = ORIENTED_EDGE ( 'NONE', *, *, #415, .F. ) ;
#1167 = PLANE ( 'NONE',  #1101 ) ;
#1168 = VERTEX_POINT ( 'NONE', #611 ) ;
#1169 = CARTESIAN_POINT ( 'NONE',  ( 3.174999999999999822, 3.174999999999999822, 0.3301999999999999935 ) ) ;
#1170 = ADVANCED_FACE ( 'NONE', ( #318 ), #810, .F. ) ;
#1171 = VERTEX_POINT ( 'NONE', #349 ) ;
#1172 = ORIENTED_EDGE ( 'NONE', *, *, #1216, .T. ) ;
#1173 = VECTOR ( 'NONE', #546, 1000.000000000000000 ) ;
#1174 = CARTESIAN_POINT ( 'NONE',  ( 3.174999999999999822, 0.000000000000000000, 0.3301999999999999935 ) ) ;
#1175 = CIRCLE ( 'NONE', #27, 0.1270000000000000018 ) ;
#1176 = FILL_AREA_STYLE_COLOUR ( '', #1200 ) ;
#1177 = ORIENTED_EDGE ( 'NONE', *, *, #452, .F. ) ;
#1178 = SURFACE_STYLE_FILL_AREA ( #101 ) ;
#1179 = ORIENTED_EDGE ( 'NONE', *, *, #1091, .T. ) ;
#1180 = STYLED_ITEM ( 'NONE', ( #730 ), #868 ) ;
#1181 = CARTESIAN_POINT ( 'NONE',  ( -2.032000000000000028, 0.000000000000000000, 0.000000000000000000 ) ) ;
#1182 = DIRECTION ( 'NONE',  ( 0.000000000000000000, -1.000000000000000000, 0.000000000000000000 ) ) ;
#1183 = PLANE ( 'NONE',  #24 ) ;
#1184 = DIRECTION ( 'NONE',  ( 0.000000000000000000, 1.000000000000000000, 0.000000000000000000 ) ) ;
#1185 = ADVANCED_FACE ( 'NONE', ( #550 ), #265, .T. ) ;
#1186 = ORIENTED_EDGE ( 'NONE', *, *, #452, .T. ) ;
#1187 = EDGE_CURVE ( 'NONE', #394, #912, #1238, .T. ) ;
#1188 = VERTEX_POINT ( 'NONE', #247 ) ;
#1189 = DIRECTION ( 'NONE',  ( -3.414809992080378820E-15, 0.000000000000000000, 1.000000000000000000 ) ) ;
#1190 = CARTESIAN_POINT ( 'NONE',  ( 1.942197438789306618, 0.000000000000000000, 0.03719743878931019987 ) ) ;
#1191 = ORIENTED_EDGE ( 'NONE', *, *, #232, .T. ) ;
#1192 = CARTESIAN_POINT ( 'NONE',  ( -3.174999999999999822, 0.000000000000000000, 0.2802000000000000046 ) ) ;
#1193 = CARTESIAN_POINT ( 'NONE',  ( 1.498600000000000154, 3.174999999999999822, 0.3810000000000000053 ) ) ;
#1194 = VECTOR ( 'NONE', #338, 1000.000000000000000 ) ;
#1195 = AXIS2_PLACEMENT_3D ( 'NONE', #91, #490, #200 ) ;
#1196 = CARTESIAN_POINT ( 'NONE',  ( -2.168773318295595942, 0.000000000000000000, 0.4071999999999999509 ) ) ;
#1197 = DIRECTION ( 'NONE',  ( 0.000000000000000000, 1.000000000000000000, 0.000000000000000000 ) ) ;
#1198 = ORIENTED_EDGE ( 'NONE', *, *, #708, .T. ) ;
#1199 = DIRECTION ( 'NONE',  ( 1.000000000000000000, 0.000000000000000000, 0.000000000000000000 ) ) ;
#1200 = COLOUR_RGB ( '',0.6274509803921568540, 0.6274509803921568540, 0.6274509803921568540 ) ;
#1201 = LINE ( 'NONE', #496, #461 ) ;
#1202 = PLANE ( 'NONE',  #388 ) ;
#1203 = CARTESIAN_POINT ( 'NONE',  ( 1.545789755157234824, 0.000000000000000000, 0.3810000000000000053 ) ) ;
#1204 =( NAMED_UNIT ( * ) SI_UNIT ( $, .STERADIAN. ) SOLID_ANGLE_UNIT ( ) );
#1205 = ORIENTED_EDGE ( 'NONE', *, *, #733, .T. ) ;
#1206 = CARTESIAN_POINT ( 'NONE',  ( -1.545789755157234824, 0.000000000000000000, 0.2540000000000000036 ) ) ;
#1207 = DIRECTION ( 'NONE',  ( 0.000000000000000000, -0.000000000000000000, -1.000000000000000000 ) ) ;
#1208 = CARTESIAN_POINT ( 'NONE',  ( 2.168773318295595942, 3.174999999999999822, 0.2802000000000000046 ) ) ;
#1209 = FILL_AREA_STYLE ('',( #328 ) ) ;
#1210 = LINE ( 'NONE', #1190, #993 ) ;
#1211 = ORIENTED_EDGE ( 'NONE', *, *, #1231, .T. ) ;
#1212 =( LENGTH_UNIT ( ) NAMED_UNIT ( * ) SI_UNIT ( .MILLI., .METRE. ) );
#1213 = UNCERTAINTY_MEASURE_WITH_UNIT (LENGTH_MEASURE( 1.000000000000000082E-05 ), #970, 'distance_accuracy_value', 'NONE');
#1214 = CARTESIAN_POINT ( 'NONE',  ( 2.032000000000000028, 0.000000000000000000, 0.1270000000000000018 ) ) ;
#1215 = CARTESIAN_POINT ( 'NONE',  ( -1.772365634663521927, 0.000000000000000000, 0.6240025612106926411 ) ) ;
#1216 = EDGE_CURVE ( 'NONE', #83, #215, #1021, .T. ) ;
#1217 = VERTEX_POINT ( 'NONE', #355 ) ;
#1218 = DIRECTION ( 'NONE',  ( -0.7071067811865470176, 0.000000000000000000, -0.7071067811865480168 ) ) ;
#1219 = CIRCLE ( 'NONE', #559, 1.171711968392163516 ) ;
#1220 = CIRCLE ( 'NONE', #1054, 0.1269999999999999463 ) ;
#1221 = VECTOR ( 'NONE', #909, 1000.000000000000000 ) ;
#1222 = LINE ( 'NONE', #650, #322 ) ;
#1223 = ORIENTED_EDGE ( 'NONE', *, *, #877, .T. ) ;
#1224 =( NAMED_UNIT ( * ) PLANE_ANGLE_UNIT ( ) SI_UNIT ( $, .RADIAN. ) );
#1225 = EDGE_CURVE ( 'NONE', #647, #494, #735, .T. ) ;
#1226 = EDGE_CURVE ( 'NONE', #578, #952, #921, .T. ) ;
#1227 = DIRECTION ( 'NONE',  ( 0.000000000000000000, 0.000000000000000000, 1.000000000000000000 ) ) ;
#1228 = CARTESIAN_POINT ( 'NONE',  ( -0.9296389959878581521, 0.000000000000000000, 0.5461000000000000298 ) ) ;
#1229 = EDGE_LOOP ( 'NONE', ( #695, #329, #1211, #673 ) ) ;
#1230 = DIRECTION ( 'NONE',  ( -1.000000000000000000, 0.000000000000000000, 2.315125418359550089E-16 ) ) ;
#1231 = EDGE_CURVE ( 'NONE', #243, #959, #926, .T. ) ;
#1232 = DIRECTION ( 'NONE',  ( 0.000000000000000000, 0.000000000000000000, 1.000000000000000000 ) ) ;
#1233 = LINE ( 'NONE', #645, #582 ) ;
#1234 = ORIENTED_EDGE ( 'NONE', *, *, #771, .T. ) ;
#1235 = DIRECTION ( 'NONE',  ( 0.000000000000000000, 0.000000000000000000, 1.000000000000000000 ) ) ;
#1236 = CLOSED_SHELL ( 'NONE', ( #837, #196, #45, #694, #1075, #755, #1170, #537 ) ) ;
#1237 = AXIS2_PLACEMENT_3D ( 'NONE', #850, #379, #873 ) ;
#1238 = LINE ( 'NONE', #1121, #71 ) ;
#1239 = EDGE_CURVE ( 'NONE', #570, #912, #1045, .T. ) ;
#1240 = CARTESIAN_POINT ( 'NONE',  ( 0.000000000000000000, 0.000000000000000000, 0.3809999999999996723 ) ) ;
#1241 = DIRECTION ( 'NONE',  ( -0.000000000000000000, -1.000000000000000000, -0.000000000000000000 ) ) ;
#1242 = MECHANICAL_DESIGN_GEOMETRIC_PRESENTATION_REPRESENTATION (  '', ( #1180 ), #507 ) ;
#1243 = AXIS2_PLACEMENT_3D ( 'NONE', #740, #1025, #1227 ) ;
#1244 = ORIENTED_EDGE ( 'NONE', *, *, #815, .T. ) ;
#1245 = DIRECTION ( 'NONE',  ( -2.315125418359550089E-16, 0.000000000000000000, -1.000000000000000000 ) ) ;
#1246 = CARTESIAN_POINT ( 'NONE',  ( 1.498600000000000154, 0.000000000000000000, 0.3810000000000000053 ) ) ;
#1247 = CARTESIAN_POINT ( 'NONE',  ( 3.174999999999999822, 0.000000000000000000, 0.3301999999999999935 ) ) ;
#1248 = ORIENTED_EDGE ( 'NONE', *, *, #744, .T. ) ;
#1249 = CARTESIAN_POINT ( 'NONE',  ( -1.682563073452829849, 3.174999999999999822, 0.5342000000000001192 ) ) ;
ENDSEC;
END-ISO-10303-21;
