ISO-10303-21;
HEADER;
FILE_DESCRIPTION(('STEP AP214'),'1');
FILE_NAME('TO_P-M34W_VIS','2025-10-29T01:48:17',(''),(''),'','','');
FILE_SCHEMA(('AUTOMOTIVE_DESIGN'));
ENDSEC;
DATA;
#1=SHAPE_DEFINITION_REPRESENTATION(#2,#3);
#2=PRODUCT_DEFINITION_SHAPE('',$,#4);
#3=SHAPE_REPRESENTATION('',(#197,#252,#308,#1142,#19),#11);
#4=PRODUCT_DEFINITION('design','example product_definition',#6,#5);
#5=PRODUCT_DEFINITION_CONTEXT('3D Mechanical Parts',#10,'design');
#6=PRODUCT_DEFINITION_FORMATION('1.0','first version',#8);
#7=APPLICATION_PROTOCOL_DEFINITION('international standard','automotive_design',2003,#10);
#8=PRODUCT('product','part','',(#9));
#9=PRODUCT_CONTEXT('3D Mechanical Parts',#10,'mechanical');
#10=APPLICATION_CONTEXT('Core Data for Automotive Mechanical Design Process');
#11=(GEOMETRIC_REPRESENTATION_CONTEXT(3) GLOBAL_UNCERTAINTY_ASSIGNED_CONTEXT((#12)) GLOBAL_UNIT_ASSIGNED_CONTEXT((#13,#14,#18)) REPRESENTATION_CONTEXT('ID1','3D'));
#12=UNCERTAINTY_MEASURE_WITH_UNIT(LENGTH_MEASURE(1.E-005),#13,'DISTANCE_ACCURACY_VALUE','Maximum model space distance between geometric entities at asserted connectivities');
#13=(LENGTH_UNIT() NAMED_UNIT(*) SI_UNIT(.MILLI.,.METRE.));
#14=(CONVERSION_BASED_UNIT('degree',#16) NAMED_UNIT(#15) PLANE_ANGLE_UNIT());
#15=DIMENSIONAL_EXPONENTS(0.,0.,0.,0.,0.,0.,0.);
#16=MEASURE_WITH_UNIT(PLANE_ANGLE_MEASURE(0.01745329252),#17);
#17=(NAMED_UNIT(*) PLANE_ANGLE_UNIT() SI_UNIT($,.RADIAN.));
#18=(NAMED_UNIT(*) SI_UNIT($,.STERADIAN.) SOLID_ANGLE_UNIT());
#19=AXIS2_PLACEMENT_3D('',#20,#21,#22);
#20=CARTESIAN_POINT('',(0.0,0.0,0.0));
#21=DIRECTION('',(0.0,0.0,1.0));
#22=DIRECTION('',(1.0,0.0,0.0));
#25=MECHANICAL_DESIGN_GEOMETRIC_PRESENTATION_REPRESENTATION($,(#249,#250,#251,#304,#305,#306,#310,#385,#510,#561,#612,#671,#720,#779,#828,#877,#926,#975,#1024,#1073,#1144,#1213,#1262,#1311,#1360,#1409,#1458,#1507),#11);
#26=PRODUCT_CATEGORY_RELATIONSHIP('','',#27,#28);
#27=PRODUCT_CATEGORY('part','');
#28=PRODUCT_RELATED_PRODUCT_CATEGORY('','',(#8));
#34=PRESENTATION_STYLE_ASSIGNMENT((#35,#40));
#35=SURFACE_STYLE_USAGE(.BOTH.,#36);
#36=SURFACE_SIDE_STYLE('',(#37));
#37=SURFACE_STYLE_FILL_AREA(#38);
#38=FILL_AREA_STYLE('',(#39));
#39=FILL_AREA_STYLE_COLOUR('',#41);
#40=CURVE_STYLE('',#42,POSITIVE_LENGTH_MEASURE(0.1),#41);
#41=COLOUR_RGB('Aluminum',0.725,0.725,0.725);
#42=DRAUGHTING_PRE_DEFINED_CURVE_FONT('continuous');
#43=PRESENTATION_STYLE_ASSIGNMENT((#44,#49));
#44=SURFACE_STYLE_USAGE(.BOTH.,#45);
#45=SURFACE_SIDE_STYLE('',(#46));
#46=SURFACE_STYLE_FILL_AREA(#47);
#47=FILL_AREA_STYLE('',(#48));
#48=FILL_AREA_STYLE_COLOUR('',#50);
#49=CURVE_STYLE('',#51,POSITIVE_LENGTH_MEASURE(0.1),#50);
#50=COLOUR_RGB('Black',0.196,0.196,0.196);
#51=DRAUGHTING_PRE_DEFINED_CURVE_FONT('continuous');
#52=PRESENTATION_STYLE_ASSIGNMENT((#53,#58));
#53=SURFACE_STYLE_USAGE(.BOTH.,#54);
#54=SURFACE_SIDE_STYLE('',(#55));
#55=SURFACE_STYLE_FILL_AREA(#56);
#56=FILL_AREA_STYLE('',(#57));
#57=FILL_AREA_STYLE_COLOUR('',#59);
#58=CURVE_STYLE('',#60,POSITIVE_LENGTH_MEASURE(0.1),#59);
#59=COLOUR_RGB('Pin1',0.588,0.588,0.588);
#60=DRAUGHTING_PRE_DEFINED_CURVE_FONT('continuous');
#61=PRESENTATION_STYLE_ASSIGNMENT((#62,#67));
#62=SURFACE_STYLE_USAGE(.BOTH.,#63);
#63=SURFACE_SIDE_STYLE('',(#64));
#64=SURFACE_STYLE_FILL_AREA(#65);
#65=FILL_AREA_STYLE('',(#66));
#66=FILL_AREA_STYLE_COLOUR('',#68);
#67=CURVE_STYLE('',#69,POSITIVE_LENGTH_MEASURE(0.1),#68);
#68=COLOUR_RGB('HeatTab',0.588,0.588,0.588);
#69=DRAUGHTING_PRE_DEFINED_CURVE_FONT('continuous');
#70=PRESENTATION_STYLE_ASSIGNMENT((#71,#76));
#71=SURFACE_STYLE_USAGE(.BOTH.,#72);
#72=SURFACE_SIDE_STYLE('',(#73));
#73=SURFACE_STYLE_FILL_AREA(#74);
#74=FILL_AREA_STYLE('',(#75));
#75=FILL_AREA_STYLE_COLOUR('',#77);
#76=CURVE_STYLE('',#78,POSITIVE_LENGTH_MEASURE(0.1),#77);
#77=COLOUR_RGB('Pin1Axial',0.98,0.706,0.176);
#78=DRAUGHTING_PRE_DEFINED_CURVE_FONT('continuous');
#79=PRESENTATION_STYLE_ASSIGNMENT((#80,#85));
#80=SURFACE_STYLE_USAGE(.BOTH.,#81);
#81=SURFACE_SIDE_STYLE('',(#82));
#82=SURFACE_STYLE_FILL_AREA(#83);
#83=FILL_AREA_STYLE('',(#84));
#84=FILL_AREA_STYLE_COLOUR('',#86);
#85=CURVE_STYLE('',#87,POSITIVE_LENGTH_MEASURE(0.1),#86);
#86=COLOUR_RGB('MountTab',0.706,0.706,0.706);
#87=DRAUGHTING_PRE_DEFINED_CURVE_FONT('continuous');
#88=PRESENTATION_STYLE_ASSIGNMENT((#89,#94));
#89=SURFACE_STYLE_USAGE(.BOTH.,#90);
#90=SURFACE_SIDE_STYLE('',(#91));
#91=SURFACE_STYLE_FILL_AREA(#92);
#92=FILL_AREA_STYLE('',(#93));
#93=FILL_AREA_STYLE_COLOUR('',#95);
#94=CURVE_STYLE('',#96,POSITIVE_LENGTH_MEASURE(0.1),#95);
#95=COLOUR_RGB('Gold',0.843,0.686,0.0);
#96=DRAUGHTING_PRE_DEFINED_CURVE_FONT('continuous');
#97=PRESENTATION_STYLE_ASSIGNMENT((#98,#103));
#98=SURFACE_STYLE_USAGE(.BOTH.,#99);
#99=SURFACE_SIDE_STYLE('',(#100));
#100=SURFACE_STYLE_FILL_AREA(#101);
#101=FILL_AREA_STYLE('',(#102));
#102=FILL_AREA_STYLE_COLOUR('',#104);
#103=CURVE_STYLE('',#105,POSITIVE_LENGTH_MEASURE(0.1),#104);
#104=COLOUR_RGB('Brown',0.459,0.345,0.176);
#105=DRAUGHTING_PRE_DEFINED_CURVE_FONT('continuous');
#106=PRESENTATION_STYLE_ASSIGNMENT((#107,#112));
#107=SURFACE_STYLE_USAGE(.BOTH.,#108);
#108=SURFACE_SIDE_STYLE('',(#109));
#109=SURFACE_STYLE_FILL_AREA(#110);
#110=FILL_AREA_STYLE('',(#111));
#111=FILL_AREA_STYLE_COLOUR('',#113);
#112=CURVE_STYLE('',#114,POSITIVE_LENGTH_MEASURE(0.1),#113);
#113=COLOUR_RGB('Tan',0.784,0.686,0.51);
#114=DRAUGHTING_PRE_DEFINED_CURVE_FONT('continuous');
#115=PRESENTATION_STYLE_ASSIGNMENT((#116,#121));
#116=SURFACE_STYLE_USAGE(.BOTH.,#117);
#117=SURFACE_SIDE_STYLE('',(#118));
#118=SURFACE_STYLE_FILL_AREA(#119);
#119=FILL_AREA_STYLE('',(#120));
#120=FILL_AREA_STYLE_COLOUR('',#122);
#121=CURVE_STYLE('',#123,POSITIVE_LENGTH_MEASURE(0.1),#122);
#122=COLOUR_RGB('Gray',0.431,0.431,0.431);
#123=DRAUGHTING_PRE_DEFINED_CURVE_FONT('continuous');
#124=PRESENTATION_STYLE_ASSIGNMENT((#125,#130));
#125=SURFACE_STYLE_USAGE(.BOTH.,#126);
#126=SURFACE_SIDE_STYLE('',(#127));
#127=SURFACE_STYLE_FILL_AREA(#128);
#128=FILL_AREA_STYLE('',(#129));
#129=FILL_AREA_STYLE_COLOUR('',#131);
#130=CURVE_STYLE('',#132,POSITIVE_LENGTH_MEASURE(0.1),#131);
#131=COLOUR_RGB('Red',0.6,0.0,0.0);
#132=DRAUGHTING_PRE_DEFINED_CURVE_FONT('continuous');
#133=PRESENTATION_STYLE_ASSIGNMENT((#134,#139));
#134=SURFACE_STYLE_USAGE(.BOTH.,#135);
#135=SURFACE_SIDE_STYLE('',(#136));
#136=SURFACE_STYLE_FILL_AREA(#137);
#137=FILL_AREA_STYLE('',(#138));
#138=FILL_AREA_STYLE_COLOUR('',#140);
#139=CURVE_STYLE('',#141,POSITIVE_LENGTH_MEASURE(0.1),#140);
#140=COLOUR_RGB('Blue',0.157,0.157,0.588);
#141=DRAUGHTING_PRE_DEFINED_CURVE_FONT('continuous');
#142=PRESENTATION_STYLE_ASSIGNMENT((#143,#148));
#143=SURFACE_STYLE_USAGE(.BOTH.,#144);
#144=SURFACE_SIDE_STYLE('',(#145));
#145=SURFACE_STYLE_FILL_AREA(#146);
#146=FILL_AREA_STYLE('',(#147));
#147=FILL_AREA_STYLE_COLOUR('',#149);
#148=CURVE_STYLE('',#150,POSITIVE_LENGTH_MEASURE(0.1),#149);
#149=COLOUR_RGB('Maroon',0.294,0.0,0.0);
#150=DRAUGHTING_PRE_DEFINED_CURVE_FONT('continuous');
#151=PRESENTATION_STYLE_ASSIGNMENT((#152,#157));
#152=SURFACE_STYLE_USAGE(.BOTH.,#153);
#153=SURFACE_SIDE_STYLE('',(#154));
#154=SURFACE_STYLE_FILL_AREA(#155);
#155=FILL_AREA_STYLE('',(#156));
#156=FILL_AREA_STYLE_COLOUR('',#158);
#157=CURVE_STYLE('',#159,POSITIVE_LENGTH_MEASURE(0.1),#158);
#158=COLOUR_RGB('Green',0.0,0.294,0.0);
#159=DRAUGHTING_PRE_DEFINED_CURVE_FONT('continuous');
#160=PRESENTATION_STYLE_ASSIGNMENT((#161,#166));
#161=SURFACE_STYLE_USAGE(.BOTH.,#162);
#162=SURFACE_SIDE_STYLE('',(#163));
#163=SURFACE_STYLE_FILL_AREA(#164);
#164=FILL_AREA_STYLE('',(#165));
#165=FILL_AREA_STYLE_COLOUR('',#167);
#166=CURVE_STYLE('',#168,POSITIVE_LENGTH_MEASURE(0.1),#167);
#167=COLOUR_RGB('Pin1Wrap',0.98,0.706,0.176);
#168=DRAUGHTING_PRE_DEFINED_CURVE_FONT('continuous');
#169=PRESENTATION_STYLE_ASSIGNMENT((#170,#175));
#170=SURFACE_STYLE_USAGE(.BOTH.,#171);
#171=SURFACE_SIDE_STYLE('',(#172));
#172=SURFACE_STYLE_FILL_AREA(#173);
#173=FILL_AREA_STYLE('',(#174));
#174=FILL_AREA_STYLE_COLOUR('',#176);
#175=CURVE_STYLE('',#177,POSITIVE_LENGTH_MEASURE(0.1),#176);
#176=COLOUR_RGB('Pin1Rad',0.588,0.588,0.588);
#177=DRAUGHTING_PRE_DEFINED_CURVE_FONT('continuous');
#178=PRESENTATION_STYLE_ASSIGNMENT((#179,#184));
#179=SURFACE_STYLE_USAGE(.BOTH.,#180);
#180=SURFACE_SIDE_STYLE('',(#181));
#181=SURFACE_STYLE_FILL_AREA(#182);
#182=FILL_AREA_STYLE('',(#183));
#183=FILL_AREA_STYLE_COLOUR('',#185);
#184=CURVE_STYLE('',#186,POSITIVE_LENGTH_MEASURE(0.1),#185);
#185=COLOUR_RGB('Pin1Tant',0.459,0.345,0.176);
#186=DRAUGHTING_PRE_DEFINED_CURVE_FONT('continuous');
#187=PRESENTATION_STYLE_ASSIGNMENT((#188,#193));
#188=SURFACE_STYLE_USAGE(.BOTH.,#189);
#189=SURFACE_SIDE_STYLE('',(#190));
#190=SURFACE_STYLE_FILL_AREA(#191);
#191=FILL_AREA_STYLE('',(#192));
#192=FILL_AREA_STYLE_COLOUR('',#194);
#193=CURVE_STYLE('',#195,POSITIVE_LENGTH_MEASURE(0.1),#194);
#194=COLOUR_RGB('Shroud',0.235,0.235,0.235);
#195=DRAUGHTING_PRE_DEFINED_CURVE_FONT('continuous');
#197=MANIFOLD_SOLID_BREP($,#198);
#198=CLOSED_SHELL('',(#199,#200,#201));
#199=ADVANCED_FACE($,(#205,#204),#222,.T.);
#200=ADVANCED_FACE($,(#206),#202,.F.);
#201=ADVANCED_FACE($,(#207),#203,.T.);
#202=PLANE($,#227);
#203=PLANE($,#228);
#204=FACE_BOUND($,#209,.T.);
#205=FACE_OUTER_BOUND($,#208,.T.);
#206=FACE_OUTER_BOUND($,#210,.T.);
#207=FACE_OUTER_BOUND($,#211,.T.);
#208=EDGE_LOOP($,(#218));
#209=EDGE_LOOP($,(#219));
#210=EDGE_LOOP($,(#220));
#211=EDGE_LOOP($,(#221));
#212=CIRCLE($,#225,0.3429);
#213=CIRCLE($,#226,0.3429);
#214=VERTEX_POINT('',#243);
#215=VERTEX_POINT('',#245);
#216=EDGE_CURVE($,#214,#214,#212,.T.);
#217=EDGE_CURVE($,#215,#215,#213,.T.);
#218=ORIENTED_EDGE($,*,*,#216,.F.);
#219=ORIENTED_EDGE($,*,*,#217,.F.);
#220=ORIENTED_EDGE($,*,*,#217,.T.);
#221=ORIENTED_EDGE($,*,*,#216,.T.);
#222=CYLINDRICAL_SURFACE($,#224,0.3429);
#223=AXIS2_PLACEMENT_3D('placement',#241,#229,#230);
#224=AXIS2_PLACEMENT_3D($,#242,#231,#232);
#225=AXIS2_PLACEMENT_3D($,#244,#233,#234);
#226=AXIS2_PLACEMENT_3D($,#246,#235,#236);
#227=AXIS2_PLACEMENT_3D($,#247,#237,#238);
#228=AXIS2_PLACEMENT_3D($,#248,#239,#240);
#229=DIRECTION('axis',(0.,1.,0.));
#230=DIRECTION('refdir',(1.,0.,0.));
#231=DIRECTION('',(0.,0.,1.));
#232=DIRECTION('',(1.,0.,0.));
#233=DIRECTION('',(0.,0.,1.));
#234=DIRECTION('',(1.,0.,0.));
#235=DIRECTION('',(0.,0.,-1.));
#236=DIRECTION('',(1.,0.,0.));
#237=DIRECTION('',(0.,0.,1.));
#238=DIRECTION('',(0.,1.,0.));
#239=DIRECTION('',(0.,0.,1.));
#240=DIRECTION('',(0.,1.,0.));
#241=CARTESIAN_POINT('',(0.,0.,0.));
#242=CARTESIAN_POINT('',(5.08,0.0,-5.283));
#243=CARTESIAN_POINT('',(4.737,0.0,0.0));
#244=CARTESIAN_POINT('',(5.08,0.0,0.0));
#245=CARTESIAN_POINT('',(4.737,0.0,-5.283));
#246=CARTESIAN_POINT('',(5.08,0.0,-5.283));
#247=CARTESIAN_POINT('',(5.08,0.0,-5.283));
#248=CARTESIAN_POINT('',(5.08,0.0,0.0));
#249=STYLED_ITEM('color',(#34),#199);
#250=STYLED_ITEM('color',(#34),#200);
#251=STYLED_ITEM('color',(#34),#201);
#252=MANIFOLD_SOLID_BREP($,#253);
#253=CLOSED_SHELL('',(#254,#255,#256));
#254=ADVANCED_FACE($,(#260,#259),#277,.T.);
#255=ADVANCED_FACE($,(#261),#257,.F.);
#256=ADVANCED_FACE($,(#262),#258,.T.);
#257=PLANE($,#282);
#258=PLANE($,#283);
#259=FACE_BOUND($,#264,.T.);
#260=FACE_OUTER_BOUND($,#263,.T.);
#261=FACE_OUTER_BOUND($,#265,.T.);
#262=FACE_OUTER_BOUND($,#266,.T.);
#263=EDGE_LOOP($,(#273));
#264=EDGE_LOOP($,(#274));
#265=EDGE_LOOP($,(#275));
#266=EDGE_LOOP($,(#276));
#267=CIRCLE($,#280,0.3429);
#268=CIRCLE($,#281,0.3429);
#269=VERTEX_POINT('',#298);
#270=VERTEX_POINT('',#300);
#271=EDGE_CURVE($,#269,#269,#267,.T.);
#272=EDGE_CURVE($,#270,#270,#268,.T.);
#273=ORIENTED_EDGE($,*,*,#271,.F.);
#274=ORIENTED_EDGE($,*,*,#272,.F.);
#275=ORIENTED_EDGE($,*,*,#272,.T.);
#276=ORIENTED_EDGE($,*,*,#271,.T.);
#277=CYLINDRICAL_SURFACE($,#279,0.3429);
#278=AXIS2_PLACEMENT_3D('placement',#296,#284,#285);
#279=AXIS2_PLACEMENT_3D($,#297,#286,#287);
#280=AXIS2_PLACEMENT_3D($,#299,#288,#289);
#281=AXIS2_PLACEMENT_3D($,#301,#290,#291);
#282=AXIS2_PLACEMENT_3D($,#302,#292,#293);
#283=AXIS2_PLACEMENT_3D($,#303,#294,#295);
#284=DIRECTION('axis',(0.,1.,0.));
#285=DIRECTION('refdir',(1.,0.,0.));
#286=DIRECTION('',(0.,0.,1.));
#287=DIRECTION('',(1.,0.,0.));
#288=DIRECTION('',(0.,0.,1.));
#289=DIRECTION('',(1.,0.,0.));
#290=DIRECTION('',(0.,0.,-1.));
#291=DIRECTION('',(1.,0.,0.));
#292=DIRECTION('',(0.,0.,1.));
#293=DIRECTION('',(0.,1.,0.));
#294=DIRECTION('',(0.,0.,1.));
#295=DIRECTION('',(0.,1.,0.));
#296=CARTESIAN_POINT('',(0.,0.,0.));
#297=CARTESIAN_POINT('',(0.0,0.0,-5.283));
#298=CARTESIAN_POINT('',(-0.343,0.0,0.0));
#299=CARTESIAN_POINT('',(0.0,0.0,0.0));
#300=CARTESIAN_POINT('',(-0.343,0.0,-5.283));
#301=CARTESIAN_POINT('',(0.0,0.0,-5.283));
#302=CARTESIAN_POINT('',(0.0,0.0,-5.283));
#303=CARTESIAN_POINT('',(0.0,0.0,0.0));
#304=STYLED_ITEM('color',(#34),#254);
#305=STYLED_ITEM('color',(#34),#255);
#306=STYLED_ITEM('color',(#34),#256);
#308=MANIFOLD_SOLID_BREP($,#309);
#309=CLOSED_SHELL('',(#311,#386,#511,#562,#613,#672,#721,#780,#829,#878,#927,#976,#1025,#1074));
#310=STYLED_ITEM('color',(#34),#311);
#311=ADVANCED_FACE($,(#317, #361),#312,.T.);
#312=PLANE($,#313);
#313=AXIS2_PLACEMENT_3D($,#314,#315,#316);
#314=CARTESIAN_POINT('',(2.54,1.619,12.253));
#315=DIRECTION('',(0.0,-1.0,0.0));
#316=DIRECTION('',(1.,0.,0.));
#317=FACE_OUTER_BOUND($,#318,.T.);
#318=EDGE_LOOP($,(#321, #331, #341, #351));
#324=CARTESIAN_POINT('',(7.709,1.619,15.316));
#323=VERTEX_POINT('',#324);
#326=CARTESIAN_POINT('',(7.709,1.619,9.19));
#325=VERTEX_POINT('',#326);
#322=EDGE_CURVE('',#323,#325,#327,.T.);
#327=LINE('',#324,#329);
#329=VECTOR('',#330,6.12648);
#330=DIRECTION('',(0.0,0.0,-1.0));
#321=ORIENTED_EDGE('',*,*,#322,.F.);
#334=CARTESIAN_POINT('',(-2.629,1.619,15.316));
#333=VERTEX_POINT('',#334);
#332=EDGE_CURVE('',#333,#323,#337,.T.);
#337=LINE('',#334,#339);
#339=VECTOR('',#340,10.3377999459936);
#340=DIRECTION('',(1.0,0.0,0.0));
#331=ORIENTED_EDGE('',*,*,#332,.F.);
#344=CARTESIAN_POINT('',(-2.629,1.619,9.19));
#343=VERTEX_POINT('',#344);
#342=EDGE_CURVE('',#343,#333,#347,.T.);
#347=LINE('',#344,#349);
#349=VECTOR('',#350,6.12648);
#350=DIRECTION('',(0.0,0.0,1.0));
#341=ORIENTED_EDGE('',*,*,#342,.F.);
#352=EDGE_CURVE('',#325,#343,#357,.T.);
#357=LINE('',#326,#359);
#359=VECTOR('',#360,10.3377999459936);
#360=DIRECTION('',(-1.0,0.0,0.0));
#351=ORIENTED_EDGE('',*,*,#352,.F.);
#361=FACE_BOUND($,#362,.T.);
#362=EDGE_LOOP($,(#363, #374));
#366=CARTESIAN_POINT('',(4.684,1.619,12.253));
#365=VERTEX_POINT('',#366);
#368=CARTESIAN_POINT('',(0.396,1.619,12.253));
#367=VERTEX_POINT('',#368);
#364=EDGE_CURVE($,#365,#367,#369,.T.);
#369=CIRCLE($,#370,2.144268);
#371=CARTESIAN_POINT('',(2.54,1.619,12.253));
#370=AXIS2_PLACEMENT_3D($,#371,#372,#373);
#372=DIRECTION('',(0.0,-1.0,0.0));
#373=DIRECTION('',(-1.0,0.0,0.0));
#363=ORIENTED_EDGE('',*,*,#364,.F.);
#375=EDGE_CURVE($,#367,#365,#380,.T.);
#380=CIRCLE($,#381,2.144268);
#381=AXIS2_PLACEMENT_3D($,#371,#383,#384);
#383=DIRECTION('',(0.0,-1.0,0.0));
#384=DIRECTION('',(-1.0,0.0,0.0));
#374=ORIENTED_EDGE('',*,*,#375,.F.);
#385=STYLED_ITEM('color',(#34),#386);
#386=ADVANCED_FACE($,(#392, #486),#387,.T.);
#387=PLANE($,#388);
#388=AXIS2_PLACEMENT_3D($,#389,#390,#391);
#389=CARTESIAN_POINT('',(2.54,2.794,12.253));
#390=DIRECTION('',(0.,1.,0.));
#391=DIRECTION('',(-1.,0.,0.));
#392=FACE_OUTER_BOUND($,#393,.T.);
#393=EDGE_LOOP($,(#396, #406, #416, #426, #436, #446, #466, #476));
#399=CARTESIAN_POINT('',(-2.629,2.794,15.316));
#398=VERTEX_POINT('',#399);
#401=CARTESIAN_POINT('',(-2.629,2.794,9.19));
#400=VERTEX_POINT('',#401);
#397=EDGE_CURVE('',#398,#400,#402,.T.);
#402=LINE('',#399,#404);
#404=VECTOR('',#405,6.12648);
#405=DIRECTION('',(0.0,0.0,-1.0));
#396=ORIENTED_EDGE('',*,*,#397,.F.);
#409=CARTESIAN_POINT('',(7.709,2.794,15.316));
#408=VERTEX_POINT('',#409);
#407=EDGE_CURVE('',#408,#398,#412,.T.);
#412=LINE('',#409,#414);
#414=VECTOR('',#415,10.3377999082559);
#415=DIRECTION('',(-1.0,0.0,0.0));
#406=ORIENTED_EDGE('',*,*,#407,.F.);
#419=CARTESIAN_POINT('',(7.709,2.794,9.19));
#418=VERTEX_POINT('',#419);
#417=EDGE_CURVE('',#418,#408,#422,.T.);
#422=LINE('',#419,#424);
#424=VECTOR('',#425,6.12648);
#425=DIRECTION('',(0.0,0.0,1.0));
#416=ORIENTED_EDGE('',*,*,#417,.F.);
#429=CARTESIAN_POINT('',(6.675,2.794,9.19));
#428=VERTEX_POINT('',#429);
#427=EDGE_CURVE('',#428,#418,#432,.T.);
#432=LINE('',#429,#434);
#434=VECTOR('',#435,1.03377999639361);
#435=DIRECTION('',(1.0,0.0,0.0));
#426=ORIENTED_EDGE('',*,*,#427,.F.);
#439=CARTESIAN_POINT('',(6.675,2.794,3.063));
#438=VERTEX_POINT('',#439);
#437=EDGE_CURVE('',#438,#428,#442,.T.);
#442=LINE('',#439,#444);
#444=VECTOR('',#445,6.12648);
#445=DIRECTION('',(0.0,0.0,1.0));
#436=ORIENTED_EDGE('',*,*,#437,.F.);
#449=CARTESIAN_POINT('',(-1.595,2.794,3.063));
#448=VERTEX_POINT('',#449);
#447=EDGE_CURVE('',#448,#438,#452,.T.);
#452=LINE('',#449,#454);
#454=VECTOR('',#455,8.27023991546867);
#455=DIRECTION('',(1.0,0.0,0.0));
#446=ORIENTED_EDGE('',*,*,#447,.F.);
#469=CARTESIAN_POINT('',(-1.595,2.794,9.19));
#468=VERTEX_POINT('',#469);
#467=EDGE_CURVE('',#468,#448,#472,.T.);
#472=LINE('',#469,#474);
#474=VECTOR('',#475,6.12648);
#475=DIRECTION('',(0.0,0.0,-1.0));
#466=ORIENTED_EDGE('',*,*,#467,.F.);
#477=EDGE_CURVE('',#400,#468,#482,.T.);
#482=LINE('',#401,#484);
#484=VECTOR('',#485,1.03377999639361);
#485=DIRECTION('',(1.0,0.0,0.0));
#476=ORIENTED_EDGE('',*,*,#477,.F.);
#486=FACE_BOUND($,#487,.T.);
#487=EDGE_LOOP($,(#488, #499));
#491=CARTESIAN_POINT('',(0.396,2.794,12.253));
#490=VERTEX_POINT('',#491);
#493=CARTESIAN_POINT('',(4.684,2.794,12.253));
#492=VERTEX_POINT('',#493);
#489=EDGE_CURVE($,#490,#492,#494,.T.);
#494=CIRCLE($,#495,2.144268);
#496=CARTESIAN_POINT('',(2.54,2.794,12.253));
#495=AXIS2_PLACEMENT_3D($,#496,#497,#498);
#497=DIRECTION('',(0.0,1.0,0.0));
#498=DIRECTION('',(1.0,0.0,0.0));
#488=ORIENTED_EDGE('',*,*,#489,.F.);
#500=EDGE_CURVE($,#492,#490,#505,.T.);
#505=CIRCLE($,#506,2.144268);
#506=AXIS2_PLACEMENT_3D($,#496,#508,#509);
#508=DIRECTION('',(0.0,1.0,0.0));
#509=DIRECTION('',(1.0,0.0,0.0));
#499=ORIENTED_EDGE('',*,*,#500,.F.);
#510=STYLED_ITEM($,(#34),#511);
#511=ADVANCED_FACE($,(#517),#512,.F.);
#512=CYLINDRICAL_SURFACE($,#513,2.144268);
#513=AXIS2_PLACEMENT_3D($,#514,#515,#516);
#514=CARTESIAN_POINT('',(2.54,1.619,12.253));
#515=DIRECTION('',(0.0,1.0,0.0));
#516=DIRECTION('',(0.,0.,1.));
#517=FACE_OUTER_BOUND($,#518,.T.);
#518=EDGE_LOOP($,(#530,#540,#551,#519));
#531=EDGE_CURVE('',#490,#367,#536,.T.);
#536=LINE('',#491,#538);
#538=VECTOR('',#539,1.17474998794652);
#539=DIRECTION('',(0.0,-1.0,0.0));
#530=ORIENTED_EDGE('',*,*,#531,.F.);
#540=ORIENTED_EDGE('',*,*,#489,.T.);
#552=EDGE_CURVE('',#365,#492,#557,.T.);
#557=LINE('',#366,#559);
#559=VECTOR('',#560,1.17474998794652);
#560=DIRECTION('',(0.0,1.0,0.0));
#551=ORIENTED_EDGE('',*,*,#552,.F.);
#519=ORIENTED_EDGE('',*,*,#364,.T.);
#561=STYLED_ITEM($,(#34),#562);
#562=ADVANCED_FACE($,(#568),#563,.F.);
#563=CYLINDRICAL_SURFACE($,#564,2.144268);
#564=AXIS2_PLACEMENT_3D($,#565,#566,#567);
#565=CARTESIAN_POINT('',(2.54,1.619,12.253));
#566=DIRECTION('',(0.0,1.0,0.0));
#567=DIRECTION('',(0.,0.,1.));
#568=FACE_OUTER_BOUND($,#569,.T.);
#569=EDGE_LOOP($,(#581,#591,#602,#570));
#581=ORIENTED_EDGE('',*,*,#552,.T.);
#591=ORIENTED_EDGE('',*,*,#500,.T.);
#602=ORIENTED_EDGE('',*,*,#531,.T.);
#570=ORIENTED_EDGE('',*,*,#375,.T.);
#612=STYLED_ITEM('',(#34),#613);
#613=ADVANCED_FACE('',(#619),#614,.T.);
#614=PLANE('',#615);
#615=AXIS2_PLACEMENT_3D('',#616,#617,#618);
#616=CARTESIAN_POINT('',(7.709,1.619,9.19));
#617=DIRECTION('',(1.0,0.0,0.0));
#618=DIRECTION('',(0.,1.,0.));
#619=FACE_OUTER_BOUND('',#620,.T.);
#620=EDGE_LOOP('',(#621,#631,#641,#651,#661));
#624=CARTESIAN_POINT('',(7.709,2.692,9.19));
#623=VERTEX_POINT('',#624);
#622=EDGE_CURVE('',#623,#325,#627,.T.);
#627=LINE('',#624,#629);
#629=VECTOR('',#630,1.07314998355002);
#630=DIRECTION('',(0.0,-1.0,0.0));
#621=ORIENTED_EDGE('',*,*,#622,.F.);
#632=EDGE_CURVE('',#418,#623,#637,.T.);
#637=LINE('',#419,#639);
#639=VECTOR('',#640,0.101599998554415);
#640=DIRECTION('',(0.0,-1.0,0.0));
#631=ORIENTED_EDGE('',*,*,#632,.F.);
#641=ORIENTED_EDGE('',*,*,#417,.T.);
#652=EDGE_CURVE('',#323,#408,#657,.T.);
#657=LINE('',#324,#659);
#659=VECTOR('',#660,1.17474998210444);
#660=DIRECTION('',(0.0,1.0,0.0));
#651=ORIENTED_EDGE('',*,*,#652,.F.);
#661=ORIENTED_EDGE('',*,*,#322,.T.);
#671=STYLED_ITEM('',(#34),#672);
#672=ADVANCED_FACE('',(#678),#673,.T.);
#673=PLANE('',#674);
#674=AXIS2_PLACEMENT_3D('',#675,#676,#677);
#675=CARTESIAN_POINT('',(7.709,2.794,15.316));
#676=DIRECTION('',(0.0,0.0,1.0));
#677=DIRECTION('',(0.,1.,0.));
#678=FACE_OUTER_BOUND('',#679,.T.);
#679=EDGE_LOOP('',(#680,#690,#700,#710));
#680=ORIENTED_EDGE('',*,*,#407,.T.);
#691=EDGE_CURVE('',#333,#398,#696,.T.);
#696=LINE('',#334,#698);
#698=VECTOR('',#699,1.17474998210444);
#699=DIRECTION('',(0.0,1.0,0.0));
#690=ORIENTED_EDGE('',*,*,#691,.F.);
#700=ORIENTED_EDGE('',*,*,#332,.T.);
#710=ORIENTED_EDGE('',*,*,#652,.T.);
#720=STYLED_ITEM('',(#34),#721);
#721=ADVANCED_FACE('',(#727),#722,.T.);
#722=PLANE('',#723);
#723=AXIS2_PLACEMENT_3D('',#724,#725,#726);
#724=CARTESIAN_POINT('',(-2.629,2.794,9.19));
#725=DIRECTION('',(-1.0,0.0,0.0));
#726=DIRECTION('',(0.,1.,0.));
#727=FACE_OUTER_BOUND('',#728,.T.);
#728=EDGE_LOOP('',(#729,#739,#749,#759,#769));
#732=CARTESIAN_POINT('',(-2.629,2.692,9.19));
#731=VERTEX_POINT('',#732);
#730=EDGE_CURVE('',#731,#400,#735,.T.);
#735=LINE('',#732,#737);
#737=VECTOR('',#738,0.101599998554416);
#738=DIRECTION('',(0.0,1.0,0.0));
#729=ORIENTED_EDGE('',*,*,#730,.F.);
#740=EDGE_CURVE('',#343,#731,#745,.T.);
#745=LINE('',#344,#747);
#747=VECTOR('',#748,1.07314998355002);
#748=DIRECTION('',(0.0,1.0,0.0));
#739=ORIENTED_EDGE('',*,*,#740,.F.);
#749=ORIENTED_EDGE('',*,*,#342,.T.);
#759=ORIENTED_EDGE('',*,*,#691,.T.);
#769=ORIENTED_EDGE('',*,*,#397,.T.);
#779=STYLED_ITEM('',(#34),#780);
#780=ADVANCED_FACE('',(#786),#781,.T.);
#781=PLANE('',#782);
#782=AXIS2_PLACEMENT_3D('',#783,#784,#785);
#783=CARTESIAN_POINT('',(7.709,2.794,9.19));
#784=DIRECTION('',(0.0,0.0,-1.0));
#785=DIRECTION('',(0.,1.,0.));
#786=FACE_OUTER_BOUND('',#787,.T.);
#787=EDGE_LOOP('',(#788,#798,#808,#818));
#788=ORIENTED_EDGE('',*,*,#632,.T.);
#801=CARTESIAN_POINT('',(6.675,2.692,9.19));
#800=VERTEX_POINT('',#801);
#799=EDGE_CURVE('',#800,#623,#804,.T.);
#804=LINE('',#801,#806);
#806=VECTOR('',#807,1.03377999663995);
#807=DIRECTION('',(1.0,0.0,0.0));
#798=ORIENTED_EDGE('',*,*,#799,.F.);
#809=EDGE_CURVE('',#428,#800,#814,.T.);
#814=LINE('',#429,#816);
#816=VECTOR('',#817,0.101599998677259);
#817=DIRECTION('',(0.0,-1.0,0.0));
#808=ORIENTED_EDGE('',*,*,#809,.F.);
#818=ORIENTED_EDGE('',*,*,#427,.T.);
#828=STYLED_ITEM('',(#34),#829);
#829=ADVANCED_FACE('',(#835),#830,.T.);
#830=PLANE('',#831);
#831=AXIS2_PLACEMENT_3D('',#832,#833,#834);
#832=CARTESIAN_POINT('',(6.675,2.692,3.063));
#833=DIRECTION('',(1.0,0.0,0.0));
#834=DIRECTION('',(0.,0.,1.));
#835=FACE_OUTER_BOUND('',#836,.T.);
#836=EDGE_LOOP('',(#837,#847,#857,#867));
#842=CARTESIAN_POINT('',(6.675,2.692,3.063));
#841=VERTEX_POINT('',#842);
#838=EDGE_CURVE('',#438,#841,#843,.T.);
#843=LINE('',#439,#845);
#845=VECTOR('',#846,0.101599998677259);
#846=DIRECTION('',(0.0,-1.0,0.0));
#837=ORIENTED_EDGE('',*,*,#838,.F.);
#847=ORIENTED_EDGE('',*,*,#437,.T.);
#857=ORIENTED_EDGE('',*,*,#809,.T.);
#868=EDGE_CURVE('',#841,#800,#873,.T.);
#873=LINE('',#842,#875);
#875=VECTOR('',#876,6.12648);
#876=DIRECTION('',(0.0,0.0,1.0));
#867=ORIENTED_EDGE('',*,*,#868,.F.);
#877=STYLED_ITEM('',(#34),#878);
#878=ADVANCED_FACE('',(#884),#879,.T.);
#879=PLANE('',#880);
#880=AXIS2_PLACEMENT_3D('',#881,#882,#883);
#881=CARTESIAN_POINT('',(6.675,2.692,3.063));
#882=DIRECTION('',(0.0,0.0,-1.0));
#883=DIRECTION('',(0.,1.,0.));
#884=FACE_OUTER_BOUND('',#885,.T.);
#885=EDGE_LOOP('',(#886,#896,#906,#916));
#889=CARTESIAN_POINT('',(-1.595,2.692,3.063));
#888=VERTEX_POINT('',#889);
#887=EDGE_CURVE('',#888,#841,#892,.T.);
#892=LINE('',#889,#894);
#894=VECTOR('',#895,8.27023991768596);
#895=DIRECTION('',(1.0,0.0,0.0));
#886=ORIENTED_EDGE('',*,*,#887,.F.);
#897=EDGE_CURVE('',#448,#888,#902,.T.);
#902=LINE('',#449,#904);
#904=VECTOR('',#905,0.101599998677259);
#905=DIRECTION('',(0.0,-1.0,0.0));
#896=ORIENTED_EDGE('',*,*,#897,.F.);
#906=ORIENTED_EDGE('',*,*,#447,.T.);
#916=ORIENTED_EDGE('',*,*,#838,.T.);
#926=STYLED_ITEM('',(#34),#927);
#927=ADVANCED_FACE('',(#933),#928,.T.);
#928=PLANE('',#929);
#929=AXIS2_PLACEMENT_3D('',#930,#931,#932);
#930=CARTESIAN_POINT('',(-1.595,2.692,3.063));
#931=DIRECTION('',(-1.0,0.0,0.0));
#932=DIRECTION('',(0.,0.,1.));
#933=FACE_OUTER_BOUND('',#934,.T.);
#934=EDGE_LOOP('',(#935,#945,#955,#965));
#938=CARTESIAN_POINT('',(-1.595,2.692,9.19));
#937=VERTEX_POINT('',#938);
#936=EDGE_CURVE('',#937,#888,#941,.T.);
#941=LINE('',#938,#943);
#943=VECTOR('',#944,6.12648);
#944=DIRECTION('',(0.0,0.0,-1.0));
#935=ORIENTED_EDGE('',*,*,#936,.F.);
#946=EDGE_CURVE('',#468,#937,#951,.T.);
#951=LINE('',#469,#953);
#953=VECTOR('',#954,0.101599998677259);
#954=DIRECTION('',(0.0,-1.0,0.0));
#945=ORIENTED_EDGE('',*,*,#946,.F.);
#955=ORIENTED_EDGE('',*,*,#467,.T.);
#965=ORIENTED_EDGE('',*,*,#897,.T.);
#975=STYLED_ITEM('',(#34),#976);
#976=ADVANCED_FACE('',(#982),#977,.T.);
#977=PLANE('',#978);
#978=AXIS2_PLACEMENT_3D('',#979,#980,#981);
#979=CARTESIAN_POINT('',(-1.595,2.692,9.19));
#980=DIRECTION('',(0.0,0.0,-1.0));
#981=DIRECTION('',(0.,1.,0.));
#982=FACE_OUTER_BOUND('',#983,.T.);
#983=EDGE_LOOP('',(#984,#994,#1004,#1014));
#985=EDGE_CURVE('',#731,#937,#990,.T.);
#990=LINE('',#732,#992);
#992=VECTOR('',#993,1.03377999663995);
#993=DIRECTION('',(1.0,0.0,0.0));
#984=ORIENTED_EDGE('',*,*,#985,.F.);
#994=ORIENTED_EDGE('',*,*,#730,.T.);
#1004=ORIENTED_EDGE('',*,*,#477,.T.);
#1014=ORIENTED_EDGE('',*,*,#946,.T.);
#1024=STYLED_ITEM('',(#34),#1025);
#1025=ADVANCED_FACE('',(#1031),#1026,.T.);
#1026=PLANE('',#1027);
#1027=AXIS2_PLACEMENT_3D('',#1028,#1029,#1030);
#1028=CARTESIAN_POINT('',(-1.595,2.692,3.063));
#1029=DIRECTION('',(0.0,-1.0,0.0));
#1030=DIRECTION('',(0.,0.,1.));
#1031=FACE_OUTER_BOUND('',#1032,.T.);
#1032=EDGE_LOOP('',(#1033,#1043,#1053,#1063));
#1033=ORIENTED_EDGE('',*,*,#887,.T.);
#1043=ORIENTED_EDGE('',*,*,#868,.T.);
#1054=EDGE_CURVE('',#937,#800,#1059,.T.);
#1059=LINE('',#938,#1061);
#1061=VECTOR('',#1062,8.27023991768596);
#1062=DIRECTION('',(1.0,0.0,0.0));
#1053=ORIENTED_EDGE('',*,*,#1054,.F.);
#1063=ORIENTED_EDGE('',*,*,#936,.T.);
#1073=STYLED_ITEM('',(#34),#1074);
#1074=ADVANCED_FACE('',(#1080),#1075,.T.);
#1075=PLANE('',#1076);
#1076=AXIS2_PLACEMENT_3D('',#1077,#1078,#1079);
#1077=CARTESIAN_POINT('',(7.709,1.619,9.19));
#1078=DIRECTION('',(0.0,0.0,-1.0));
#1079=DIRECTION('',(0.,1.,0.));
#1080=FACE_OUTER_BOUND('',#1081,.T.);
#1081=EDGE_LOOP('',(#1082,#1092,#1102,#1112,#1122,#1132));
#1082=ORIENTED_EDGE('',*,*,#352,.T.);
#1092=ORIENTED_EDGE('',*,*,#740,.T.);
#1102=ORIENTED_EDGE('',*,*,#985,.T.);
#1112=ORIENTED_EDGE('',*,*,#1054,.T.);
#1122=ORIENTED_EDGE('',*,*,#799,.T.);
#1132=ORIENTED_EDGE('',*,*,#622,.T.);
#1142=MANIFOLD_SOLID_BREP($,#1143);
#1143=CLOSED_SHELL('',(#1145,#1214,#1263,#1312,#1361,#1410,#1459,#1508));
#1144=STYLED_ITEM('',(#43),#1145);
#1145=ADVANCED_FACE('',(#1151),#1146,.T.);
#1146=PLANE('',#1147);
#1147=AXIS2_PLACEMENT_3D('',#1148,#1149,#1150);
#1148=CARTESIAN_POINT('',(7.81,-0.871,0.0));
#1149=DIRECTION('',(0.0,0.0,-1.0));
#1150=DIRECTION('',(0.,1.,0.));
#1151=FACE_OUTER_BOUND('',#1152,.T.);
#1152=EDGE_LOOP('',(#1153,#1163,#1173,#1183,#1193,#1203));
#1156=CARTESIAN_POINT('',(6.777,-1.905,0.0));
#1155=VERTEX_POINT('',#1156);
#1158=CARTESIAN_POINT('',(7.81,-0.871,0.0));
#1157=VERTEX_POINT('',#1158);
#1154=EDGE_CURVE('',#1155,#1157,#1159,.T.);
#1159=LINE('',#1156,#1161);
#1161=VECTOR('',#1162,1.46198567573955);
#1162=DIRECTION('',(0.707,0.707,0.0));
#1153=ORIENTED_EDGE('',*,*,#1154,.F.);
#1166=CARTESIAN_POINT('',(-1.697,-1.905,0.0));
#1165=VERTEX_POINT('',#1166);
#1164=EDGE_CURVE('',#1165,#1155,#1169,.T.);
#1169=LINE('',#1166,#1171);
#1171=VECTOR('',#1172,8.47343991463898);
#1172=DIRECTION('',(1.0,0.0,0.0));
#1163=ORIENTED_EDGE('',*,*,#1164,.F.);
#1176=CARTESIAN_POINT('',(-2.731,-0.871,0.0));
#1175=VERTEX_POINT('',#1176);
#1174=EDGE_CURVE('',#1175,#1165,#1179,.T.);
#1179=LINE('',#1176,#1181);
#1181=VECTOR('',#1182,1.46198567573955);
#1182=DIRECTION('',(0.707,-0.707,0.0));
#1173=ORIENTED_EDGE('',*,*,#1174,.F.);
#1186=CARTESIAN_POINT('',(-2.73,2.692,0.0));
#1185=VERTEX_POINT('',#1186);
#1184=EDGE_CURVE('',#1185,#1175,#1189,.T.);
#1189=LINE('',#1186,#1191);
#1191=VECTOR('',#1192,3.56361994181507);
#1192=DIRECTION('',(0.0,-1.0,0.0));
#1183=ORIENTED_EDGE('',*,*,#1184,.F.);
#1196=CARTESIAN_POINT('',(7.811,2.692,0.0));
#1195=VERTEX_POINT('',#1196);
#1194=EDGE_CURVE('',#1195,#1185,#1199,.T.);
#1199=LINE('',#1196,#1201);
#1201=VECTOR('',#1202,10.540999910424);
#1202=DIRECTION('',(-1.0,0.0,0.0));
#1193=ORIENTED_EDGE('',*,*,#1194,.F.);
#1204=EDGE_CURVE('',#1157,#1195,#1209,.T.);
#1209=LINE('',#1158,#1211);
#1211=VECTOR('',#1212,3.56362050670507);
#1212=DIRECTION('',(0.0,1.0,0.0));
#1203=ORIENTED_EDGE('',*,*,#1204,.F.);
#1213=STYLED_ITEM('',(#43),#1214);
#1214=ADVANCED_FACE('',(#1220),#1215,.T.);
#1215=PLANE('',#1216);
#1216=AXIS2_PLACEMENT_3D('',#1217,#1218,#1219);
#1217=CARTESIAN_POINT('',(-1.697,-1.905,0.0));
#1218=DIRECTION('',(0.0,-1.0,0.0));
#1219=DIRECTION('',(0.,0.,1.));
#1220=FACE_OUTER_BOUND('',#1221,.T.);
#1221=EDGE_LOOP('',(#1222,#1232,#1242,#1252));
#1222=ORIENTED_EDGE('',*,*,#1164,.T.);
#1235=CARTESIAN_POINT('',(6.777,-1.905,9.19));
#1234=VERTEX_POINT('',#1235);
#1233=EDGE_CURVE('',#1234,#1155,#1238,.T.);
#1238=LINE('',#1235,#1240);
#1240=VECTOR('',#1241,9.18972);
#1241=DIRECTION('',(0.0,0.0,-1.0));
#1232=ORIENTED_EDGE('',*,*,#1233,.F.);
#1245=CARTESIAN_POINT('',(-1.697,-1.905,9.19));
#1244=VERTEX_POINT('',#1245);
#1243=EDGE_CURVE('',#1244,#1234,#1248,.T.);
#1248=LINE('',#1245,#1250);
#1250=VECTOR('',#1251,8.47343991463898);
#1251=DIRECTION('',(1.0,0.0,0.0));
#1242=ORIENTED_EDGE('',*,*,#1243,.F.);
#1253=EDGE_CURVE('',#1165,#1244,#1258,.T.);
#1258=LINE('',#1166,#1260);
#1260=VECTOR('',#1261,9.18972);
#1261=DIRECTION('',(0.0,0.0,1.0));
#1252=ORIENTED_EDGE('',*,*,#1253,.F.);
#1262=STYLED_ITEM('',(#43),#1263);
#1263=ADVANCED_FACE('',(#1269),#1264,.T.);
#1264=PLANE('',#1265);
#1265=AXIS2_PLACEMENT_3D('',#1266,#1267,#1268);
#1266=CARTESIAN_POINT('',(6.777,-1.905,0.0));
#1267=DIRECTION('',(0.707,-0.707,0.0));
#1268=DIRECTION('',(0.,0.,1.));
#1269=FACE_OUTER_BOUND('',#1270,.T.);
#1270=EDGE_LOOP('',(#1271,#1281,#1291,#1301));
#1271=ORIENTED_EDGE('',*,*,#1154,.T.);
#1284=CARTESIAN_POINT('',(7.81,-0.871,9.19));
#1283=VERTEX_POINT('',#1284);
#1282=EDGE_CURVE('',#1283,#1157,#1287,.T.);
#1287=LINE('',#1284,#1289);
#1289=VECTOR('',#1290,9.18972);
#1290=DIRECTION('',(0.0,0.0,-1.0));
#1281=ORIENTED_EDGE('',*,*,#1282,.F.);
#1292=EDGE_CURVE('',#1234,#1283,#1297,.T.);
#1297=LINE('',#1235,#1299);
#1299=VECTOR('',#1300,1.46198567573955);
#1300=DIRECTION('',(0.707,0.707,0.0));
#1291=ORIENTED_EDGE('',*,*,#1292,.F.);
#1301=ORIENTED_EDGE('',*,*,#1233,.T.);
#1311=STYLED_ITEM('',(#43),#1312);
#1312=ADVANCED_FACE('',(#1318),#1313,.T.);
#1313=PLANE('',#1314);
#1314=AXIS2_PLACEMENT_3D('',#1315,#1316,#1317);
#1315=CARTESIAN_POINT('',(7.81,-0.871,0.0));
#1316=DIRECTION('',(1.0,0.0,0.0));
#1317=DIRECTION('',(0.,0.,1.));
#1318=FACE_OUTER_BOUND('',#1319,.T.);
#1319=EDGE_LOOP('',(#1320,#1330,#1340,#1350));
#1320=ORIENTED_EDGE('',*,*,#1204,.T.);
#1333=CARTESIAN_POINT('',(7.811,2.692,9.19));
#1332=VERTEX_POINT('',#1333);
#1331=EDGE_CURVE('',#1332,#1195,#1336,.T.);
#1336=LINE('',#1333,#1338);
#1338=VECTOR('',#1339,9.18972);
#1339=DIRECTION('',(0.0,0.0,-1.0));
#1330=ORIENTED_EDGE('',*,*,#1331,.F.);
#1341=EDGE_CURVE('',#1283,#1332,#1346,.T.);
#1346=LINE('',#1284,#1348);
#1348=VECTOR('',#1349,3.56362050670507);
#1349=DIRECTION('',(0.0,1.0,0.0));
#1340=ORIENTED_EDGE('',*,*,#1341,.F.);
#1350=ORIENTED_EDGE('',*,*,#1282,.T.);
#1360=STYLED_ITEM('',(#43),#1361);
#1361=ADVANCED_FACE('',(#1367),#1362,.T.);
#1362=PLANE('',#1363);
#1363=AXIS2_PLACEMENT_3D('',#1364,#1365,#1366);
#1364=CARTESIAN_POINT('',(7.811,2.692,0.0));
#1365=DIRECTION('',(0.0,1.0,0.0));
#1366=DIRECTION('',(0.,0.,1.));
#1367=FACE_OUTER_BOUND('',#1368,.T.);
#1368=EDGE_LOOP('',(#1369,#1379,#1389,#1399));
#1369=ORIENTED_EDGE('',*,*,#1194,.T.);
#1382=CARTESIAN_POINT('',(-2.73,2.692,9.19));
#1381=VERTEX_POINT('',#1382);
#1380=EDGE_CURVE('',#1381,#1185,#1385,.T.);
#1385=LINE('',#1382,#1387);
#1387=VECTOR('',#1388,9.18972);
#1388=DIRECTION('',(0.0,0.0,-1.0));
#1379=ORIENTED_EDGE('',*,*,#1380,.F.);
#1390=EDGE_CURVE('',#1332,#1381,#1395,.T.);
#1395=LINE('',#1333,#1397);
#1397=VECTOR('',#1398,10.540999910424);
#1398=DIRECTION('',(-1.0,0.0,0.0));
#1389=ORIENTED_EDGE('',*,*,#1390,.F.);
#1399=ORIENTED_EDGE('',*,*,#1331,.T.);
#1409=STYLED_ITEM('',(#43),#1410);
#1410=ADVANCED_FACE('',(#1416),#1411,.T.);
#1411=PLANE('',#1412);
#1412=AXIS2_PLACEMENT_3D('',#1413,#1414,#1415);
#1413=CARTESIAN_POINT('',(-2.73,2.692,0.0));
#1414=DIRECTION('',(-1.0,0.0,0.0));
#1415=DIRECTION('',(0.,0.,1.));
#1416=FACE_OUTER_BOUND('',#1417,.T.);
#1417=EDGE_LOOP('',(#1418,#1428,#1438,#1448));
#1418=ORIENTED_EDGE('',*,*,#1184,.T.);
#1431=CARTESIAN_POINT('',(-2.731,-0.871,9.19));
#1430=VERTEX_POINT('',#1431);
#1429=EDGE_CURVE('',#1430,#1175,#1434,.T.);
#1434=LINE('',#1431,#1436);
#1436=VECTOR('',#1437,9.18972);
#1437=DIRECTION('',(0.0,0.0,-1.0));
#1428=ORIENTED_EDGE('',*,*,#1429,.F.);
#1439=EDGE_CURVE('',#1381,#1430,#1444,.T.);
#1444=LINE('',#1382,#1446);
#1446=VECTOR('',#1447,3.56361994181507);
#1447=DIRECTION('',(0.0,-1.0,0.0));
#1438=ORIENTED_EDGE('',*,*,#1439,.F.);
#1448=ORIENTED_EDGE('',*,*,#1380,.T.);
#1458=STYLED_ITEM('',(#43),#1459);
#1459=ADVANCED_FACE('',(#1465),#1460,.T.);
#1460=PLANE('',#1461);
#1461=AXIS2_PLACEMENT_3D('',#1462,#1463,#1464);
#1462=CARTESIAN_POINT('',(-2.731,-0.871,0.0));
#1463=DIRECTION('',(-0.707,-0.707,0.0));
#1464=DIRECTION('',(0.,0.,1.));
#1465=FACE_OUTER_BOUND('',#1466,.T.);
#1466=EDGE_LOOP('',(#1467,#1477,#1487,#1497));
#1467=ORIENTED_EDGE('',*,*,#1174,.T.);
#1477=ORIENTED_EDGE('',*,*,#1253,.T.);
#1488=EDGE_CURVE('',#1430,#1244,#1493,.T.);
#1493=LINE('',#1431,#1495);
#1495=VECTOR('',#1496,1.46198567573955);
#1496=DIRECTION('',(0.707,-0.707,0.0));
#1487=ORIENTED_EDGE('',*,*,#1488,.F.);
#1497=ORIENTED_EDGE('',*,*,#1429,.T.);
#1507=STYLED_ITEM('',(#43),#1508);
#1508=ADVANCED_FACE('',(#1514),#1509,.T.);
#1509=PLANE('',#1510);
#1510=AXIS2_PLACEMENT_3D('',#1511,#1512,#1513);
#1511=CARTESIAN_POINT('',(7.811,2.692,9.19));
#1512=DIRECTION('',(0.0,0.0,1.0));
#1513=DIRECTION('',(0.,1.,0.));
#1514=FACE_OUTER_BOUND('',#1515,.T.);
#1515=EDGE_LOOP('',(#1516,#1526,#1536,#1546,#1556,#1566));
#1516=ORIENTED_EDGE('',*,*,#1390,.T.);
#1526=ORIENTED_EDGE('',*,*,#1439,.T.);
#1536=ORIENTED_EDGE('',*,*,#1488,.T.);
#1546=ORIENTED_EDGE('',*,*,#1243,.T.);
#1556=ORIENTED_EDGE('',*,*,#1292,.T.);
#1566=ORIENTED_EDGE('',*,*,#1341,.T.);
ENDSEC;
END-ISO-10303-21;
