ISO-10303-21;
HEADER;
FILE_DESCRIPTION(('STEP AP214'),'1');
FILE_NAME('LFPAK56_SOT669_NEX','2026-07-05T05:08:32',(''),(''),'','','');
FILE_SCHEMA(('AUTOMOTIVE_DESIGN'));
ENDSEC;
DATA;
#1=SHAPE_DEFINITION_REPRESENTATION(#2,#3);
#2=PRODUCT_DEFINITION_SHAPE('',$,#4);
#3=SHAPE_REPRESENTATION('',(#188,#244,#541,#1411,#2281,#3151,#4022,#19),#11);
#4=PRODUCT_DEFINITION('design','example product_definition',#6,#5);
#5=PRODUCT_DEFINITION_CONTEXT('3D Mechanical Parts',#10,'design');
#6=PRODUCT_DEFINITION_FORMATION('1.0','first version',#8);
#7=APPLICATION_PROTOCOL_DEFINITION('international standard','automotive_design',2003,#10);
#8=PRODUCT('product','part','',(#9));
#9=PRODUCT_CONTEXT('3D Mechanical Parts',#10,'mechanical');
#10=APPLICATION_CONTEXT('Core Data for Automotive Mechanical Design Process');
#11=(GEOMETRIC_REPRESENTATION_CONTEXT(3) GLOBAL_UNCERTAINTY_ASSIGNED_CONTEXT((#12)) GLOBAL_UNIT_ASSIGNED_CONTEXT((#13,#14,#18)) REPRESENTATION_CONTEXT('ID1','3D'));
#12=UNCERTAINTY_MEASURE_WITH_UNIT(LENGTH_MEASURE(1.E-005),#13,'DISTANCE_ACCURACY_VALUE','Maximum model space distance between geometric entities at asserted connectivities');
#13=(LENGTH_UNIT() NAMED_UNIT(*) SI_UNIT(.MILLI.,.METRE.));
#14=(CONVERSION_BASED_UNIT('degree',#16) NAMED_UNIT(#15) PLANE_ANGLE_UNIT());
#15=DIMENSIONAL_EXPONENTS(0.,0.,0.,0.,0.,0.,0.);
#16=MEASURE_WITH_UNIT(PLANE_ANGLE_MEASURE(0.01745329252),#17);
#17=(NAMED_UNIT(*) PLANE_ANGLE_UNIT() SI_UNIT($,.RADIAN.));
#18=(NAMED_UNIT(*) SI_UNIT($,.STERADIAN.) SOLID_ANGLE_UNIT());
#19=AXIS2_PLACEMENT_3D('',#20,#21,#22);
#20=CARTESIAN_POINT('',(0.0,0.0,0.0));
#21=DIRECTION('',(0.0,0.0,1.0));
#22=DIRECTION('',(1.0,0.0,0.0));
#25=MECHANICAL_DESIGN_GEOMETRIC_PRESENTATION_REPRESENTATION($,(#240,#241,#242,#246,#295,#344,#393,#442,#491,#543,#592,#641,#690,#739,#788,#837,#886,#935,#986,#1037,#1088,#1139,#1275,#1413,#1462,#1511,#1560,#1609,#1658,#1707,#1756,#1805,#1856,#1907,#1958,#2009,#2145,#2283,#2332,#2381,#2430,#2479,#2528,#2577,#2626,#2675,#2726,#2777,#2828,#2879,#3015,#3153,#3202,#3251,#3300,#3349,#3398,#3447,#3496,#3545,#3596,#3647,#3698,#3749,#3885,#4024,#4073,#4122,#4171,#4220,#4269,#4318,#4367,#4416,#4465,#4514,#4563,#4612,#4681,#4770,#4919),#11);
#26=PRODUCT_CATEGORY_RELATIONSHIP('','',#27,#28);
#27=PRODUCT_CATEGORY('part','');
#28=PRODUCT_RELATED_PRODUCT_CATEGORY('','',(#8));
#34=PRESENTATION_STYLE_ASSIGNMENT((#35,#40));
#35=SURFACE_STYLE_USAGE(.BOTH.,#36);
#36=SURFACE_SIDE_STYLE('',(#37));
#37=SURFACE_STYLE_FILL_AREA(#38);
#38=FILL_AREA_STYLE('',(#39));
#39=FILL_AREA_STYLE_COLOUR('',#41);
#40=CURVE_STYLE('',#42,POSITIVE_LENGTH_MEASURE(0.1),#41);
#41=COLOUR_RGB('Aluminum',0.725,0.725,0.725);
#42=DRAUGHTING_PRE_DEFINED_CURVE_FONT('continuous');
#43=PRESENTATION_STYLE_ASSIGNMENT((#44,#49));
#44=SURFACE_STYLE_USAGE(.BOTH.,#45);
#45=SURFACE_SIDE_STYLE('',(#46));
#46=SURFACE_STYLE_FILL_AREA(#47);
#47=FILL_AREA_STYLE('',(#48));
#48=FILL_AREA_STYLE_COLOUR('',#50);
#49=CURVE_STYLE('',#51,POSITIVE_LENGTH_MEASURE(0.1),#50);
#50=COLOUR_RGB('Black',0.196,0.196,0.196);
#51=DRAUGHTING_PRE_DEFINED_CURVE_FONT('continuous');
#52=PRESENTATION_STYLE_ASSIGNMENT((#53,#58));
#53=SURFACE_STYLE_USAGE(.BOTH.,#54);
#54=SURFACE_SIDE_STYLE('',(#55));
#55=SURFACE_STYLE_FILL_AREA(#56);
#56=FILL_AREA_STYLE('',(#57));
#57=FILL_AREA_STYLE_COLOUR('',#59);
#58=CURVE_STYLE('',#60,POSITIVE_LENGTH_MEASURE(0.1),#59);
#59=COLOUR_RGB('Pin1',0.588,0.588,0.588);
#60=DRAUGHTING_PRE_DEFINED_CURVE_FONT('continuous');
#61=PRESENTATION_STYLE_ASSIGNMENT((#62,#67));
#62=SURFACE_STYLE_USAGE(.BOTH.,#63);
#63=SURFACE_SIDE_STYLE('',(#64));
#64=SURFACE_STYLE_FILL_AREA(#65);
#65=FILL_AREA_STYLE('',(#66));
#66=FILL_AREA_STYLE_COLOUR('',#68);
#67=CURVE_STYLE('',#69,POSITIVE_LENGTH_MEASURE(0.1),#68);
#68=COLOUR_RGB('HeatTab',0.588,0.588,0.588);
#69=DRAUGHTING_PRE_DEFINED_CURVE_FONT('continuous');
#70=PRESENTATION_STYLE_ASSIGNMENT((#71,#76));
#71=SURFACE_STYLE_USAGE(.BOTH.,#72);
#72=SURFACE_SIDE_STYLE('',(#73));
#73=SURFACE_STYLE_FILL_AREA(#74);
#74=FILL_AREA_STYLE('',(#75));
#75=FILL_AREA_STYLE_COLOUR('',#77);
#76=CURVE_STYLE('',#78,POSITIVE_LENGTH_MEASURE(0.1),#77);
#77=COLOUR_RGB('Gold',0.843,0.686,0.0);
#78=DRAUGHTING_PRE_DEFINED_CURVE_FONT('continuous');
#79=PRESENTATION_STYLE_ASSIGNMENT((#80,#85));
#80=SURFACE_STYLE_USAGE(.BOTH.,#81);
#81=SURFACE_SIDE_STYLE('',(#82));
#82=SURFACE_STYLE_FILL_AREA(#83);
#83=FILL_AREA_STYLE('',(#84));
#84=FILL_AREA_STYLE_COLOUR('',#86);
#85=CURVE_STYLE('',#87,POSITIVE_LENGTH_MEASURE(0.1),#86);
#86=COLOUR_RGB('Brown',0.459,0.345,0.176);
#87=DRAUGHTING_PRE_DEFINED_CURVE_FONT('continuous');
#88=PRESENTATION_STYLE_ASSIGNMENT((#89,#94));
#89=SURFACE_STYLE_USAGE(.BOTH.,#90);
#90=SURFACE_SIDE_STYLE('',(#91));
#91=SURFACE_STYLE_FILL_AREA(#92);
#92=FILL_AREA_STYLE('',(#93));
#93=FILL_AREA_STYLE_COLOUR('',#95);
#94=CURVE_STYLE('',#96,POSITIVE_LENGTH_MEASURE(0.1),#95);
#95=COLOUR_RGB('Tan',0.784,0.686,0.51);
#96=DRAUGHTING_PRE_DEFINED_CURVE_FONT('continuous');
#97=PRESENTATION_STYLE_ASSIGNMENT((#98,#103));
#98=SURFACE_STYLE_USAGE(.BOTH.,#99);
#99=SURFACE_SIDE_STYLE('',(#100));
#100=SURFACE_STYLE_FILL_AREA(#101);
#101=FILL_AREA_STYLE('',(#102));
#102=FILL_AREA_STYLE_COLOUR('',#104);
#103=CURVE_STYLE('',#105,POSITIVE_LENGTH_MEASURE(0.1),#104);
#104=COLOUR_RGB('Gray',0.431,0.431,0.431);
#105=DRAUGHTING_PRE_DEFINED_CURVE_FONT('continuous');
#106=PRESENTATION_STYLE_ASSIGNMENT((#107,#112));
#107=SURFACE_STYLE_USAGE(.BOTH.,#108);
#108=SURFACE_SIDE_STYLE('',(#109));
#109=SURFACE_STYLE_FILL_AREA(#110);
#110=FILL_AREA_STYLE('',(#111));
#111=FILL_AREA_STYLE_COLOUR('',#113);
#112=CURVE_STYLE('',#114,POSITIVE_LENGTH_MEASURE(0.1),#113);
#113=COLOUR_RGB('Red',0.6,0.0,0.0);
#114=DRAUGHTING_PRE_DEFINED_CURVE_FONT('continuous');
#115=PRESENTATION_STYLE_ASSIGNMENT((#116,#121));
#116=SURFACE_STYLE_USAGE(.BOTH.,#117);
#117=SURFACE_SIDE_STYLE('',(#118));
#118=SURFACE_STYLE_FILL_AREA(#119);
#119=FILL_AREA_STYLE('',(#120));
#120=FILL_AREA_STYLE_COLOUR('',#122);
#121=CURVE_STYLE('',#123,POSITIVE_LENGTH_MEASURE(0.1),#122);
#122=COLOUR_RGB('Blue',0.157,0.157,0.588);
#123=DRAUGHTING_PRE_DEFINED_CURVE_FONT('continuous');
#124=PRESENTATION_STYLE_ASSIGNMENT((#125,#130));
#125=SURFACE_STYLE_USAGE(.BOTH.,#126);
#126=SURFACE_SIDE_STYLE('',(#127));
#127=SURFACE_STYLE_FILL_AREA(#128);
#128=FILL_AREA_STYLE('',(#129));
#129=FILL_AREA_STYLE_COLOUR('',#131);
#130=CURVE_STYLE('',#132,POSITIVE_LENGTH_MEASURE(0.1),#131);
#131=COLOUR_RGB('Maroon',0.294,0.0,0.0);
#132=DRAUGHTING_PRE_DEFINED_CURVE_FONT('continuous');
#133=PRESENTATION_STYLE_ASSIGNMENT((#134,#139));
#134=SURFACE_STYLE_USAGE(.BOTH.,#135);
#135=SURFACE_SIDE_STYLE('',(#136));
#136=SURFACE_STYLE_FILL_AREA(#137);
#137=FILL_AREA_STYLE('',(#138));
#138=FILL_AREA_STYLE_COLOUR('',#140);
#139=CURVE_STYLE('',#141,POSITIVE_LENGTH_MEASURE(0.1),#140);
#140=COLOUR_RGB('Green',0.0,0.294,0.0);
#141=DRAUGHTING_PRE_DEFINED_CURVE_FONT('continuous');
#142=PRESENTATION_STYLE_ASSIGNMENT((#143,#148));
#143=SURFACE_STYLE_USAGE(.BOTH.,#144);
#144=SURFACE_SIDE_STYLE('',(#145));
#145=SURFACE_STYLE_FILL_AREA(#146);
#146=FILL_AREA_STYLE('',(#147));
#147=FILL_AREA_STYLE_COLOUR('',#149);
#148=CURVE_STYLE('',#150,POSITIVE_LENGTH_MEASURE(0.1),#149);
#149=COLOUR_RGB('Pin1Wrap',0.98,0.706,0.176);
#150=DRAUGHTING_PRE_DEFINED_CURVE_FONT('continuous');
#151=PRESENTATION_STYLE_ASSIGNMENT((#152,#157));
#152=SURFACE_STYLE_USAGE(.BOTH.,#153);
#153=SURFACE_SIDE_STYLE('',(#154));
#154=SURFACE_STYLE_FILL_AREA(#155);
#155=FILL_AREA_STYLE('',(#156));
#156=FILL_AREA_STYLE_COLOUR('',#158);
#157=CURVE_STYLE('',#159,POSITIVE_LENGTH_MEASURE(0.1),#158);
#158=COLOUR_RGB('Pin1Rad',0.588,0.588,0.588);
#159=DRAUGHTING_PRE_DEFINED_CURVE_FONT('continuous');
#160=PRESENTATION_STYLE_ASSIGNMENT((#161,#166));
#161=SURFACE_STYLE_USAGE(.BOTH.,#162);
#162=SURFACE_SIDE_STYLE('',(#163));
#163=SURFACE_STYLE_FILL_AREA(#164);
#164=FILL_AREA_STYLE('',(#165));
#165=FILL_AREA_STYLE_COLOUR('',#167);
#166=CURVE_STYLE('',#168,POSITIVE_LENGTH_MEASURE(0.1),#167);
#167=COLOUR_RGB('Pin1Axial',0.98,0.706,0.176);
#168=DRAUGHTING_PRE_DEFINED_CURVE_FONT('continuous');
#169=PRESENTATION_STYLE_ASSIGNMENT((#170,#175));
#170=SURFACE_STYLE_USAGE(.BOTH.,#171);
#171=SURFACE_SIDE_STYLE('',(#172));
#172=SURFACE_STYLE_FILL_AREA(#173);
#173=FILL_AREA_STYLE('',(#174));
#174=FILL_AREA_STYLE_COLOUR('',#176);
#175=CURVE_STYLE('',#177,POSITIVE_LENGTH_MEASURE(0.1),#176);
#176=COLOUR_RGB('Pin1Tant',0.459,0.345,0.176);
#177=DRAUGHTING_PRE_DEFINED_CURVE_FONT('continuous');
#178=PRESENTATION_STYLE_ASSIGNMENT((#179,#184));
#179=SURFACE_STYLE_USAGE(.BOTH.,#180);
#180=SURFACE_SIDE_STYLE('',(#181));
#181=SURFACE_STYLE_FILL_AREA(#182);
#182=FILL_AREA_STYLE('',(#183));
#183=FILL_AREA_STYLE_COLOUR('',#185);
#184=CURVE_STYLE('',#186,POSITIVE_LENGTH_MEASURE(0.1),#185);
#185=COLOUR_RGB('Shroud',0.235,0.235,0.235);
#186=DRAUGHTING_PRE_DEFINED_CURVE_FONT('continuous');
#188=MANIFOLD_SOLID_BREP($,#189);
#189=CLOSED_SHELL('',(#190,#191,#192));
#190=ADVANCED_FACE($,(#196,#195),#213,.T.);
#191=ADVANCED_FACE($,(#197),#193,.F.);
#192=ADVANCED_FACE($,(#198),#194,.T.);
#193=PLANE($,#218);
#194=PLANE($,#219);
#195=FACE_BOUND($,#200,.T.);
#196=FACE_OUTER_BOUND($,#199,.T.);
#197=FACE_OUTER_BOUND($,#201,.T.);
#198=FACE_OUTER_BOUND($,#202,.T.);
#199=EDGE_LOOP($,(#209));
#200=EDGE_LOOP($,(#210));
#201=EDGE_LOOP($,(#211));
#202=EDGE_LOOP($,(#212));
#203=CIRCLE($,#216,0.125095);
#204=CIRCLE($,#217,0.125095);
#205=VERTEX_POINT('',#234);
#206=VERTEX_POINT('',#236);
#207=EDGE_CURVE($,#205,#205,#203,.T.);
#208=EDGE_CURVE($,#206,#206,#204,.T.);
#209=ORIENTED_EDGE($,*,*,#207,.F.);
#210=ORIENTED_EDGE($,*,*,#208,.F.);
#211=ORIENTED_EDGE($,*,*,#208,.T.);
#212=ORIENTED_EDGE($,*,*,#207,.T.);
#213=CYLINDRICAL_SURFACE($,#215,0.125095);
#214=AXIS2_PLACEMENT_3D('placement',#232,#220,#221);
#215=AXIS2_PLACEMENT_3D($,#233,#222,#223);
#216=AXIS2_PLACEMENT_3D($,#235,#224,#225);
#217=AXIS2_PLACEMENT_3D($,#237,#226,#227);
#218=AXIS2_PLACEMENT_3D($,#238,#228,#229);
#219=AXIS2_PLACEMENT_3D($,#239,#230,#231);
#220=DIRECTION('axis',(0.,1.,0.));
#221=DIRECTION('refdir',(1.,0.,0.));
#222=DIRECTION('',(0.,0.,1.));
#223=DIRECTION('',(1.,0.,0.));
#224=DIRECTION('',(0.,0.,1.));
#225=DIRECTION('',(1.,0.,0.));
#226=DIRECTION('',(0.,0.,-1.));
#227=DIRECTION('',(1.,0.,0.));
#228=DIRECTION('',(0.,0.,1.));
#229=DIRECTION('',(0.,1.,0.));
#230=DIRECTION('',(0.,0.,1.));
#231=DIRECTION('',(0.,1.,0.));
#232=CARTESIAN_POINT('',(0.,0.,0.));
#233=CARTESIAN_POINT('',(-1.905,-1.459,1.092));
#234=CARTESIAN_POINT('',(-2.03,-1.459,1.095));
#235=CARTESIAN_POINT('',(-1.905,-1.459,1.095));
#236=CARTESIAN_POINT('',(-2.03,-1.459,1.092));
#237=CARTESIAN_POINT('',(-1.905,-1.459,1.092));
#238=CARTESIAN_POINT('',(-1.905,-1.459,1.092));
#239=CARTESIAN_POINT('',(-1.905,-1.459,1.095));
#240=STYLED_ITEM('color',(#52),#190);
#241=STYLED_ITEM('color',(#52),#191);
#242=STYLED_ITEM('color',(#52),#192);
#244=MANIFOLD_SOLID_BREP($,#245);
#245=CLOSED_SHELL('',(#247,#296,#345,#394,#443,#492));
#246=STYLED_ITEM('',(#43),#247);
#247=ADVANCED_FACE('',(#253),#248,.T.);
#248=PLANE('',#249);
#249=AXIS2_PLACEMENT_3D('',#250,#251,#252);
#250=CARTESIAN_POINT('',(-2.502,-2.045,0.0));
#251=DIRECTION('',(0.0,-1.0,0.0));
#252=DIRECTION('',(0.,0.,1.));
#253=FACE_OUTER_BOUND('',#254,.T.);
#254=EDGE_LOOP('',(#255,#265,#275,#285));
#258=CARTESIAN_POINT('',(2.502,-2.045,0.0));
#257=VERTEX_POINT('',#258);
#260=CARTESIAN_POINT('',(-2.502,-2.045,0.0));
#259=VERTEX_POINT('',#260);
#256=EDGE_CURVE('',#257,#259,#261,.T.);
#261=LINE('',#258,#263);
#263=VECTOR('',#264,5.0038);
#264=DIRECTION('',(-1.0,0.0,0.0));
#255=ORIENTED_EDGE('',*,*,#256,.F.);
#268=CARTESIAN_POINT('',(2.502,-2.045,1.092));
#267=VERTEX_POINT('',#268);
#266=EDGE_CURVE('',#267,#257,#271,.T.);
#271=LINE('',#268,#273);
#273=VECTOR('',#274,1.0922);
#274=DIRECTION('',(0.0,0.0,-1.0));
#265=ORIENTED_EDGE('',*,*,#266,.F.);
#278=CARTESIAN_POINT('',(-2.502,-2.045,1.092));
#277=VERTEX_POINT('',#278);
#276=EDGE_CURVE('',#277,#267,#281,.T.);
#281=LINE('',#278,#283);
#283=VECTOR('',#284,5.0038);
#284=DIRECTION('',(1.0,0.0,0.0));
#275=ORIENTED_EDGE('',*,*,#276,.F.);
#286=EDGE_CURVE('',#259,#277,#291,.T.);
#291=LINE('',#260,#293);
#293=VECTOR('',#294,1.0922);
#294=DIRECTION('',(0.0,0.0,1.0));
#285=ORIENTED_EDGE('',*,*,#286,.F.);
#295=STYLED_ITEM('',(#43),#296);
#296=ADVANCED_FACE('',(#302),#297,.T.);
#297=PLANE('',#298);
#298=AXIS2_PLACEMENT_3D('',#299,#300,#301);
#299=CARTESIAN_POINT('',(2.502,-2.045,0.0));
#300=DIRECTION('',(1.0,0.0,0.0));
#301=DIRECTION('',(0.,0.,1.));
#302=FACE_OUTER_BOUND('',#303,.T.);
#303=EDGE_LOOP('',(#304,#314,#324,#334));
#307=CARTESIAN_POINT('',(2.502,2.045,0.0));
#306=VERTEX_POINT('',#307);
#305=EDGE_CURVE('',#306,#257,#310,.T.);
#310=LINE('',#307,#312);
#312=VECTOR('',#313,4.0894);
#313=DIRECTION('',(0.0,-1.0,0.0));
#304=ORIENTED_EDGE('',*,*,#305,.F.);
#317=CARTESIAN_POINT('',(2.502,2.045,1.092));
#316=VERTEX_POINT('',#317);
#315=EDGE_CURVE('',#316,#306,#320,.T.);
#320=LINE('',#317,#322);
#322=VECTOR('',#323,1.0922);
#323=DIRECTION('',(0.0,0.0,-1.0));
#314=ORIENTED_EDGE('',*,*,#315,.F.);
#325=EDGE_CURVE('',#267,#316,#330,.T.);
#330=LINE('',#268,#332);
#332=VECTOR('',#333,4.0894);
#333=DIRECTION('',(0.0,1.0,0.0));
#324=ORIENTED_EDGE('',*,*,#325,.F.);
#334=ORIENTED_EDGE('',*,*,#266,.T.);
#344=STYLED_ITEM('',(#43),#345);
#345=ADVANCED_FACE('',(#351),#346,.T.);
#346=PLANE('',#347);
#347=AXIS2_PLACEMENT_3D('',#348,#349,#350);
#348=CARTESIAN_POINT('',(2.502,2.045,0.0));
#349=DIRECTION('',(0.0,1.0,0.0));
#350=DIRECTION('',(0.,0.,1.));
#351=FACE_OUTER_BOUND('',#352,.T.);
#352=EDGE_LOOP('',(#353,#363,#373,#383));
#356=CARTESIAN_POINT('',(-2.502,2.045,0.0));
#355=VERTEX_POINT('',#356);
#354=EDGE_CURVE('',#355,#306,#359,.T.);
#359=LINE('',#356,#361);
#361=VECTOR('',#362,5.0038);
#362=DIRECTION('',(1.0,0.0,0.0));
#353=ORIENTED_EDGE('',*,*,#354,.F.);
#366=CARTESIAN_POINT('',(-2.502,2.045,1.092));
#365=VERTEX_POINT('',#366);
#364=EDGE_CURVE('',#365,#355,#369,.T.);
#369=LINE('',#366,#371);
#371=VECTOR('',#372,1.0922);
#372=DIRECTION('',(0.0,0.0,-1.0));
#363=ORIENTED_EDGE('',*,*,#364,.F.);
#374=EDGE_CURVE('',#316,#365,#379,.T.);
#379=LINE('',#317,#381);
#381=VECTOR('',#382,5.0038);
#382=DIRECTION('',(-1.0,0.0,0.0));
#373=ORIENTED_EDGE('',*,*,#374,.F.);
#383=ORIENTED_EDGE('',*,*,#315,.T.);
#393=STYLED_ITEM('',(#43),#394);
#394=ADVANCED_FACE('',(#400),#395,.T.);
#395=PLANE('',#396);
#396=AXIS2_PLACEMENT_3D('',#397,#398,#399);
#397=CARTESIAN_POINT('',(-2.502,2.045,0.0));
#398=DIRECTION('',(-1.0,0.0,0.0));
#399=DIRECTION('',(0.,0.,1.));
#400=FACE_OUTER_BOUND('',#401,.T.);
#401=EDGE_LOOP('',(#402,#412,#422,#432));
#403=EDGE_CURVE('',#259,#355,#408,.T.);
#408=LINE('',#260,#410);
#410=VECTOR('',#411,4.0894);
#411=DIRECTION('',(0.0,1.0,0.0));
#402=ORIENTED_EDGE('',*,*,#403,.F.);
#412=ORIENTED_EDGE('',*,*,#286,.T.);
#423=EDGE_CURVE('',#365,#277,#428,.T.);
#428=LINE('',#366,#430);
#430=VECTOR('',#431,4.0894);
#431=DIRECTION('',(0.0,-1.0,0.0));
#422=ORIENTED_EDGE('',*,*,#423,.F.);
#432=ORIENTED_EDGE('',*,*,#364,.T.);
#442=STYLED_ITEM('',(#43),#443);
#443=ADVANCED_FACE('',(#449),#444,.T.);
#444=PLANE('',#445);
#445=AXIS2_PLACEMENT_3D('',#446,#447,#448);
#446=CARTESIAN_POINT('',(-2.502,2.045,0.0));
#447=DIRECTION('',(0.0,0.0,-1.0));
#448=DIRECTION('',(0.,1.,0.));
#449=FACE_OUTER_BOUND('',#450,.T.);
#450=EDGE_LOOP('',(#451,#461,#471,#481));
#451=ORIENTED_EDGE('',*,*,#354,.T.);
#461=ORIENTED_EDGE('',*,*,#305,.T.);
#471=ORIENTED_EDGE('',*,*,#256,.T.);
#481=ORIENTED_EDGE('',*,*,#403,.T.);
#491=STYLED_ITEM('',(#43),#492);
#492=ADVANCED_FACE('',(#498),#493,.T.);
#493=PLANE('',#494);
#494=AXIS2_PLACEMENT_3D('',#495,#496,#497);
#495=CARTESIAN_POINT('',(-2.502,-2.045,1.092));
#496=DIRECTION('',(0.0,0.0,1.0));
#497=DIRECTION('',(0.,1.,0.));
#498=FACE_OUTER_BOUND('',#499,.T.);
#499=EDGE_LOOP('',(#500,#510,#520,#530));
#500=ORIENTED_EDGE('',*,*,#276,.T.);
#510=ORIENTED_EDGE('',*,*,#325,.T.);
#520=ORIENTED_EDGE('',*,*,#374,.T.);
#530=ORIENTED_EDGE('',*,*,#423,.T.);
#541=MANIFOLD_SOLID_BREP($,#542);
#542=CLOSED_SHELL('',(#544,#593,#642,#691,#740,#789,#838,#887,#936,#987,#1038,#1089,#1140,#1276));
#543=STYLED_ITEM('',(#34),#544);
#544=ADVANCED_FACE('',(#550),#545,.T.);
#545=PLANE('',#546);
#546=AXIS2_PLACEMENT_3D('',#547,#548,#549);
#547=CARTESIAN_POINT('',(-1.651,-2.045,0.505));
#548=DIRECTION('',(0.0,1.0,0.0));
#549=DIRECTION('',(0.,0.,1.));
#550=FACE_OUTER_BOUND('',#551,.T.);
#551=EDGE_LOOP('',(#552,#562,#572,#582));
#555=CARTESIAN_POINT('',(-2.159,-2.045,0.505));
#554=VERTEX_POINT('',#555);
#557=CARTESIAN_POINT('',(-1.651,-2.045,0.505));
#556=VERTEX_POINT('',#557);
#553=EDGE_CURVE('',#554,#556,#558,.T.);
#558=LINE('',#555,#560);
#560=VECTOR('',#561,0.507999991608882);
#561=DIRECTION('',(1.0,0.0,0.0));
#552=ORIENTED_EDGE('',*,*,#553,.F.);
#565=CARTESIAN_POINT('',(-2.159,-2.045,0.673));
#564=VERTEX_POINT('',#565);
#563=EDGE_CURVE('',#564,#554,#568,.T.);
#568=LINE('',#565,#570);
#570=VECTOR('',#571,0.168275);
#571=DIRECTION('',(0.0,0.0,-1.0));
#562=ORIENTED_EDGE('',*,*,#563,.F.);
#575=CARTESIAN_POINT('',(-1.651,-2.045,0.673));
#574=VERTEX_POINT('',#575);
#573=EDGE_CURVE('',#574,#564,#578,.T.);
#578=LINE('',#575,#580);
#580=VECTOR('',#581,0.507999991608882);
#581=DIRECTION('',(-1.0,0.0,0.0));
#572=ORIENTED_EDGE('',*,*,#573,.F.);
#583=EDGE_CURVE('',#556,#574,#588,.T.);
#588=LINE('',#557,#590);
#590=VECTOR('',#591,0.168275);
#591=DIRECTION('',(0.0,0.0,1.0));
#582=ORIENTED_EDGE('',*,*,#583,.F.);
#592=STYLED_ITEM('',(#34),#593);
#593=ADVANCED_FACE('',(#599),#594,.T.);
#594=PLANE('',#595);
#595=AXIS2_PLACEMENT_3D('',#596,#597,#598);
#596=CARTESIAN_POINT('',(-1.651,-2.045,0.673));
#597=DIRECTION('',(0.0,0.0,1.0));
#598=DIRECTION('',(0.,1.,0.));
#599=FACE_OUTER_BOUND('',#600,.T.);
#600=EDGE_LOOP('',(#601,#611,#621,#631));
#601=ORIENTED_EDGE('',*,*,#573,.T.);
#614=CARTESIAN_POINT('',(-2.159,-2.19,0.673));
#613=VERTEX_POINT('',#614);
#612=EDGE_CURVE('',#613,#564,#617,.T.);
#617=LINE('',#614,#619);
#619=VECTOR('',#620,0.145083565178712);
#620=DIRECTION('',(0.0,1.0,0.0));
#611=ORIENTED_EDGE('',*,*,#612,.F.);
#624=CARTESIAN_POINT('',(-1.651,-2.19,0.673));
#623=VERTEX_POINT('',#624);
#622=EDGE_CURVE('',#623,#613,#627,.T.);
#627=LINE('',#624,#629);
#629=VECTOR('',#630,0.507999991727213);
#630=DIRECTION('',(-1.0,0.0,0.0));
#621=ORIENTED_EDGE('',*,*,#622,.F.);
#632=EDGE_CURVE('',#574,#623,#637,.T.);
#637=LINE('',#575,#639);
#639=VECTOR('',#640,0.145083565178712);
#640=DIRECTION('',(0.0,-1.0,0.0));
#631=ORIENTED_EDGE('',*,*,#632,.F.);
#641=STYLED_ITEM('',(#34),#642);
#642=ADVANCED_FACE('',(#648),#643,.T.);
#643=PLANE('',#644);
#644=AXIS2_PLACEMENT_3D('',#645,#646,#647);
#645=CARTESIAN_POINT('',(-2.159,-2.045,0.505));
#646=DIRECTION('',(0.0,0.0,-1.0));
#647=DIRECTION('',(0.,1.,0.));
#648=FACE_OUTER_BOUND('',#649,.T.);
#649=EDGE_LOOP('',(#650,#660,#670,#680));
#650=ORIENTED_EDGE('',*,*,#553,.T.);
#663=CARTESIAN_POINT('',(-1.651,-2.19,0.505));
#662=VERTEX_POINT('',#663);
#661=EDGE_CURVE('',#662,#556,#666,.T.);
#666=LINE('',#663,#668);
#668=VECTOR('',#669,0.145083565178712);
#669=DIRECTION('',(0.0,1.0,0.0));
#660=ORIENTED_EDGE('',*,*,#661,.F.);
#673=CARTESIAN_POINT('',(-2.159,-2.19,0.505));
#672=VERTEX_POINT('',#673);
#671=EDGE_CURVE('',#672,#662,#676,.T.);
#676=LINE('',#673,#678);
#678=VECTOR('',#679,0.507999991727213);
#679=DIRECTION('',(1.0,0.0,0.0));
#670=ORIENTED_EDGE('',*,*,#671,.F.);
#681=EDGE_CURVE('',#554,#672,#686,.T.);
#686=LINE('',#555,#688);
#688=VECTOR('',#689,0.145083565178712);
#689=DIRECTION('',(0.0,-1.0,0.0));
#680=ORIENTED_EDGE('',*,*,#681,.F.);
#690=STYLED_ITEM('',(#34),#691);
#691=ADVANCED_FACE('',(#697),#692,.T.);
#692=PLANE('',#693);
#693=AXIS2_PLACEMENT_3D('',#694,#695,#696);
#694=CARTESIAN_POINT('',(-2.159,-2.55,0.293));
#695=DIRECTION('',(0.0,-0.966,0.259));
#696=DIRECTION('',(0.,0.,1.));
#697=FACE_OUTER_BOUND('',#698,.T.);
#698=EDGE_LOOP('',(#699,#709,#719,#729));
#702=CARTESIAN_POINT('',(-1.651,-2.55,0.293));
#701=VERTEX_POINT('',#702);
#704=CARTESIAN_POINT('',(-2.159,-2.55,0.293));
#703=VERTEX_POINT('',#704);
#700=EDGE_CURVE('',#701,#703,#705,.T.);
#705=LINE('',#702,#707);
#707=VECTOR('',#708,0.507999992763007);
#708=DIRECTION('',(-1.0,0.0,0.0));
#699=ORIENTED_EDGE('',*,*,#700,.F.);
#712=CARTESIAN_POINT('',(-1.651,-2.515,0.424));
#711=VERTEX_POINT('',#712);
#710=EDGE_CURVE('',#711,#701,#715,.T.);
#715=LINE('',#712,#717);
#717=VECTOR('',#718,0.135265794794851);
#718=DIRECTION('',(0.0,-0.259,-0.966));
#709=ORIENTED_EDGE('',*,*,#710,.F.);
#722=CARTESIAN_POINT('',(-2.159,-2.515,0.424));
#721=VERTEX_POINT('',#722);
#720=EDGE_CURVE('',#721,#711,#725,.T.);
#725=LINE('',#722,#727);
#727=VECTOR('',#728,0.507999992550019);
#728=DIRECTION('',(1.0,0.0,0.0));
#719=ORIENTED_EDGE('',*,*,#720,.F.);
#730=EDGE_CURVE('',#703,#721,#735,.T.);
#735=LINE('',#704,#737);
#737=VECTOR('',#738,0.135265794794851);
#738=DIRECTION('',(0.0,0.259,0.966));
#729=ORIENTED_EDGE('',*,*,#730,.F.);
#739=STYLED_ITEM('',(#34),#740);
#740=ADVANCED_FACE('',(#746),#741,.T.);
#741=PLANE('',#742);
#742=AXIS2_PLACEMENT_3D('',#743,#744,#745);
#743=CARTESIAN_POINT('',(-1.651,-2.387,0.249));
#744=DIRECTION('',(0.0,0.966,-0.259));
#745=DIRECTION('',(0.,0.,1.));
#746=FACE_OUTER_BOUND('',#747,.T.);
#747=EDGE_LOOP('',(#748,#758,#768,#778));
#751=CARTESIAN_POINT('',(-2.159,-2.387,0.249));
#750=VERTEX_POINT('',#751);
#753=CARTESIAN_POINT('',(-1.651,-2.387,0.249));
#752=VERTEX_POINT('',#753);
#749=EDGE_CURVE('',#750,#752,#754,.T.);
#754=LINE('',#751,#756);
#756=VECTOR('',#757,0.507999992062364);
#757=DIRECTION('',(1.0,0.0,0.0));
#748=ORIENTED_EDGE('',*,*,#749,.F.);
#761=CARTESIAN_POINT('',(-2.159,-2.352,0.38));
#760=VERTEX_POINT('',#761);
#759=EDGE_CURVE('',#760,#750,#764,.T.);
#764=LINE('',#761,#766);
#766=VECTOR('',#767,0.135265794820453);
#767=DIRECTION('',(0.0,-0.259,-0.966));
#758=ORIENTED_EDGE('',*,*,#759,.F.);
#771=CARTESIAN_POINT('',(-1.651,-2.352,0.38));
#770=VERTEX_POINT('',#771);
#769=EDGE_CURVE('',#770,#760,#774,.T.);
#774=LINE('',#771,#776);
#776=VECTOR('',#777,0.507999991978118);
#777=DIRECTION('',(-1.0,0.0,0.0));
#768=ORIENTED_EDGE('',*,*,#769,.F.);
#779=EDGE_CURVE('',#752,#770,#784,.T.);
#784=LINE('',#753,#786);
#786=VECTOR('',#787,0.135265794820453);
#787=DIRECTION('',(0.0,0.259,0.966));
#778=ORIENTED_EDGE('',*,*,#779,.F.);
#788=STYLED_ITEM('',(#34),#789);
#789=ADVANCED_FACE('',(#795),#790,.T.);
#790=PLANE('',#791);
#791=AXIS2_PLACEMENT_3D('',#792,#793,#794);
#792=CARTESIAN_POINT('',(-2.159,-2.857,0.168));
#793=DIRECTION('',(0.0,0.0,1.0));
#794=DIRECTION('',(0.,1.,0.));
#795=FACE_OUTER_BOUND('',#796,.T.);
#796=EDGE_LOOP('',(#797,#807,#817,#827));
#800=CARTESIAN_POINT('',(-1.651,-2.858,0.168));
#799=VERTEX_POINT('',#800);
#802=CARTESIAN_POINT('',(-2.159,-2.857,0.168));
#801=VERTEX_POINT('',#802);
#798=EDGE_CURVE('',#799,#801,#803,.T.);
#803=LINE('',#800,#805);
#805=VECTOR('',#806,0.508);
#806=DIRECTION('',(-1.0,0.0,0.0));
#797=ORIENTED_EDGE('',*,*,#798,.F.);
#810=CARTESIAN_POINT('',(-1.651,-2.712,0.168));
#809=VERTEX_POINT('',#810);
#808=EDGE_CURVE('',#809,#799,#813,.T.);
#813=LINE('',#810,#815);
#815=VECTOR('',#816,0.145083563188273);
#816=DIRECTION('',(0.0,-1.0,0.0));
#807=ORIENTED_EDGE('',*,*,#808,.F.);
#820=CARTESIAN_POINT('',(-2.159,-2.712,0.168));
#819=VERTEX_POINT('',#820);
#818=EDGE_CURVE('',#819,#809,#823,.T.);
#823=LINE('',#820,#825);
#825=VECTOR('',#826,0.507999994798595);
#826=DIRECTION('',(1.0,0.0,0.0));
#817=ORIENTED_EDGE('',*,*,#818,.F.);
#828=EDGE_CURVE('',#801,#819,#833,.T.);
#833=LINE('',#802,#835);
#835=VECTOR('',#836,0.145083563188273);
#836=DIRECTION('',(0.0,1.0,0.0));
#827=ORIENTED_EDGE('',*,*,#828,.F.);
#837=STYLED_ITEM('',(#34),#838);
#838=ADVANCED_FACE('',(#844),#839,.T.);
#839=PLANE('',#840);
#840=AXIS2_PLACEMENT_3D('',#841,#842,#843);
#841=CARTESIAN_POINT('',(-2.159,-2.712,0.0));
#842=DIRECTION('',(0.0,0.0,-1.0));
#843=DIRECTION('',(0.,1.,0.));
#844=FACE_OUTER_BOUND('',#845,.T.);
#845=EDGE_LOOP('',(#846,#856,#866,#876));
#849=CARTESIAN_POINT('',(-1.651,-2.712,0.0));
#848=VERTEX_POINT('',#849);
#851=CARTESIAN_POINT('',(-2.159,-2.712,0.0));
#850=VERTEX_POINT('',#851);
#847=EDGE_CURVE('',#848,#850,#852,.T.);
#852=LINE('',#849,#854);
#854=VECTOR('',#855,0.507999994798595);
#855=DIRECTION('',(-1.0,0.0,0.0));
#846=ORIENTED_EDGE('',*,*,#847,.F.);
#859=CARTESIAN_POINT('',(-1.651,-2.858,0.0));
#858=VERTEX_POINT('',#859);
#857=EDGE_CURVE('',#858,#848,#862,.T.);
#862=LINE('',#859,#864);
#864=VECTOR('',#865,0.145083563188273);
#865=DIRECTION('',(0.0,1.0,0.0));
#856=ORIENTED_EDGE('',*,*,#857,.F.);
#869=CARTESIAN_POINT('',(-2.159,-2.857,0.0));
#868=VERTEX_POINT('',#869);
#867=EDGE_CURVE('',#868,#858,#872,.T.);
#872=LINE('',#869,#874);
#874=VECTOR('',#875,0.508);
#875=DIRECTION('',(1.0,0.0,0.0));
#866=ORIENTED_EDGE('',*,*,#867,.F.);
#877=EDGE_CURVE('',#850,#868,#882,.T.);
#882=LINE('',#851,#884);
#884=VECTOR('',#885,0.145083563188273);
#885=DIRECTION('',(0.0,-1.0,0.0));
#876=ORIENTED_EDGE('',*,*,#877,.F.);
#886=STYLED_ITEM('',(#34),#887);
#887=ADVANCED_FACE('',(#893),#888,.T.);
#888=PLANE('',#889);
#889=AXIS2_PLACEMENT_3D('',#890,#891,#892);
#890=CARTESIAN_POINT('',(-2.159,-2.857,0.0));
#891=DIRECTION('',(0.0,-1.0,0.0));
#892=DIRECTION('',(0.,0.,1.));
#893=FACE_OUTER_BOUND('',#894,.T.);
#894=EDGE_LOOP('',(#895,#905,#915,#925));
#895=ORIENTED_EDGE('',*,*,#867,.T.);
#906=EDGE_CURVE('',#799,#858,#911,.T.);
#911=LINE('',#800,#913);
#913=VECTOR('',#914,0.168275);
#914=DIRECTION('',(0.0,0.0,-1.0));
#905=ORIENTED_EDGE('',*,*,#906,.F.);
#915=ORIENTED_EDGE('',*,*,#798,.T.);
#926=EDGE_CURVE('',#868,#801,#931,.T.);
#931=LINE('',#869,#933);
#933=VECTOR('',#934,0.168275);
#934=DIRECTION('',(0.0,0.0,1.0));
#925=ORIENTED_EDGE('',*,*,#926,.F.);
#935=STYLED_ITEM($,(#34),#936);
#936=ADVANCED_FACE($,(#942),#937,.T.);
#937=CYLINDRICAL_SURFACE($,#938,0.33655);
#938=AXIS2_PLACEMENT_3D($,#939,#940,#941);
#939=CARTESIAN_POINT('',(-1.651,-2.19,0.337));
#940=DIRECTION('',(1.0,0.0,0.0));
#941=DIRECTION('',(0.,0.,1.));
#942=FACE_OUTER_BOUND($,#943,.T.);
#943=EDGE_LOOP($,(#955,#965,#976,#944));
#955=ORIENTED_EDGE('',*,*,#622,.T.);
#966=EDGE_CURVE($,#721,#613,#971,.T.);
#971=CIRCLE($,#972,0.33655);
#973=CARTESIAN_POINT('',(-2.159,-2.19,0.337));
#972=AXIS2_PLACEMENT_3D($,#973,#974,#975);
#974=DIRECTION('',(-1.0,0.0,0.0));
#975=DIRECTION('',(0.0,0.793,0.609));
#965=ORIENTED_EDGE('',*,*,#966,.F.);
#976=ORIENTED_EDGE('',*,*,#720,.T.);
#945=EDGE_CURVE($,#623,#711,#950,.T.);
#950=CIRCLE($,#951,0.33655);
#952=CARTESIAN_POINT('',(-1.651,-2.19,0.337));
#951=AXIS2_PLACEMENT_3D($,#952,#953,#954);
#953=DIRECTION('',(1.0,0.0,0.0));
#954=DIRECTION('',(0.0,-0.793,-0.609));
#944=ORIENTED_EDGE('',*,*,#945,.F.);
#986=STYLED_ITEM($,(#34),#987);
#987=ADVANCED_FACE($,(#993),#988,.F.);
#988=CYLINDRICAL_SURFACE($,#989,0.168275);
#989=AXIS2_PLACEMENT_3D($,#990,#991,#992);
#990=CARTESIAN_POINT('',(-2.159,-2.19,0.337));
#991=DIRECTION('',(1.0,0.0,0.0));
#992=DIRECTION('',(0.,0.,-1.));
#993=FACE_OUTER_BOUND($,#994,.T.);
#994=EDGE_LOOP($,(#1006,#1016,#1027,#995));
#1006=ORIENTED_EDGE('',*,*,#671,.T.);
#1017=EDGE_CURVE($,#770,#662,#1022,.T.);
#1022=CIRCLE($,#1023,0.168275);
#1023=AXIS2_PLACEMENT_3D($,#952,#1025,#1026);
#1025=DIRECTION('',(-1.0,0.0,0.0));
#1026=DIRECTION('',(0.0,0.793,0.609));
#1016=ORIENTED_EDGE('',*,*,#1017,.F.);
#1027=ORIENTED_EDGE('',*,*,#769,.T.);
#996=EDGE_CURVE($,#672,#760,#1001,.T.);
#1001=CIRCLE($,#1002,0.168275);
#1002=AXIS2_PLACEMENT_3D($,#973,#1004,#1005);
#1004=DIRECTION('',(1.0,0.0,0.0));
#1005=DIRECTION('',(0.0,-0.793,-0.609));
#995=ORIENTED_EDGE('',*,*,#996,.F.);
#1037=STYLED_ITEM($,(#34),#1038);
#1038=ADVANCED_FACE($,(#1044),#1039,.F.);
#1039=CYLINDRICAL_SURFACE($,#1040,0.168275);
#1040=AXIS2_PLACEMENT_3D($,#1041,#1042,#1043);
#1041=CARTESIAN_POINT('',(-2.159,-2.712,0.337));
#1042=DIRECTION('',(1.0,0.0,0.0));
#1043=DIRECTION('',(0.,0.,1.));
#1044=FACE_OUTER_BOUND($,#1045,.T.);
#1045=EDGE_LOOP($,(#1057,#1067,#1078,#1046));
#1057=ORIENTED_EDGE('',*,*,#818,.T.);
#1068=EDGE_CURVE($,#701,#809,#1073,.T.);
#1073=CIRCLE($,#1074,0.168275);
#1075=CARTESIAN_POINT('',(-1.651,-2.712,0.337));
#1074=AXIS2_PLACEMENT_3D($,#1075,#1076,#1077);
#1076=DIRECTION('',(-1.0,0.0,0.0));
#1077=DIRECTION('',(0.0,-0.793,-0.609));
#1067=ORIENTED_EDGE('',*,*,#1068,.F.);
#1078=ORIENTED_EDGE('',*,*,#700,.T.);
#1047=EDGE_CURVE($,#819,#703,#1052,.T.);
#1052=CIRCLE($,#1053,0.168275);
#1054=CARTESIAN_POINT('',(-2.159,-2.712,0.337));
#1053=AXIS2_PLACEMENT_3D($,#1054,#1055,#1056);
#1055=DIRECTION('',(1.0,0.0,0.0));
#1056=DIRECTION('',(0.0,0.793,0.609));
#1046=ORIENTED_EDGE('',*,*,#1047,.F.);
#1088=STYLED_ITEM($,(#34),#1089);
#1089=ADVANCED_FACE($,(#1095),#1090,.T.);
#1090=CYLINDRICAL_SURFACE($,#1091,0.33655);
#1091=AXIS2_PLACEMENT_3D($,#1092,#1093,#1094);
#1092=CARTESIAN_POINT('',(-2.159,-2.712,0.337));
#1093=DIRECTION('',(1.0,0.0,0.0));
#1094=DIRECTION('',(0.,0.,-1.));
#1095=FACE_OUTER_BOUND($,#1096,.T.);
#1096=EDGE_LOOP($,(#1108,#1118,#1129,#1097));
#1108=ORIENTED_EDGE('',*,*,#847,.T.);
#1119=EDGE_CURVE($,#750,#850,#1124,.T.);
#1124=CIRCLE($,#1125,0.33655);
#1125=AXIS2_PLACEMENT_3D($,#1054,#1127,#1128);
#1127=DIRECTION('',(-1.0,0.0,0.0));
#1128=DIRECTION('',(0.0,-0.793,-0.609));
#1118=ORIENTED_EDGE('',*,*,#1119,.F.);
#1129=ORIENTED_EDGE('',*,*,#749,.T.);
#1098=EDGE_CURVE($,#848,#752,#1103,.T.);
#1103=CIRCLE($,#1104,0.33655);
#1104=AXIS2_PLACEMENT_3D($,#1075,#1106,#1107);
#1106=DIRECTION('',(1.0,0.0,0.0));
#1107=DIRECTION('',(0.0,0.793,0.609));
#1097=ORIENTED_EDGE('',*,*,#1098,.F.);
#1139=STYLED_ITEM('color',(#34),#1140);
#1140=ADVANCED_FACE($,(#1146),#1141,.T.);
#1141=PLANE($,#1142);
#1142=AXIS2_PLACEMENT_3D($,#1143,#1144,#1145);
#1143=CARTESIAN_POINT('',(-2.159,-2.045,0.505));
#1144=DIRECTION('',(-1.0,0.0,0.0));
#1145=DIRECTION('',(1.,0.,0.));
#1146=FACE_OUTER_BOUND($,#1147,.T.);
#1147=EDGE_LOOP($,(#1150, #1160, #1170, #1233, #1244, #1180, #1191, #1201, #1211, #1221, #1254, #1264));
#1150=ORIENTED_EDGE('',*,*,#612,.T.);
#1160=ORIENTED_EDGE('',*,*,#563,.T.);
#1170=ORIENTED_EDGE('',*,*,#681,.T.);
#1233=ORIENTED_EDGE('',*,*,#996,.T.);
#1244=ORIENTED_EDGE('',*,*,#759,.T.);
#1180=ORIENTED_EDGE('',*,*,#1119,.T.);
#1191=ORIENTED_EDGE('',*,*,#877,.T.);
#1201=ORIENTED_EDGE('',*,*,#926,.T.);
#1211=ORIENTED_EDGE('',*,*,#828,.T.);
#1221=ORIENTED_EDGE('',*,*,#1047,.T.);
#1254=ORIENTED_EDGE('',*,*,#730,.T.);
#1264=ORIENTED_EDGE('',*,*,#966,.T.);
#1275=STYLED_ITEM('color',(#34),#1276);
#1276=ADVANCED_FACE($,(#1282),#1277,.T.);
#1277=PLANE($,#1278);
#1278=AXIS2_PLACEMENT_3D($,#1279,#1280,#1281);
#1279=CARTESIAN_POINT('',(-1.651,-2.712,0.168));
#1280=DIRECTION('',(1.0,0.0,0.0));
#1281=DIRECTION('',(1.,0.,0.));
#1282=FACE_OUTER_BOUND($,#1283,.T.);
#1283=EDGE_LOOP($,(#1286, #1296, #1306, #1369, #1380, #1316, #1327, #1337, #1347, #1357, #1390, #1400));
#1286=ORIENTED_EDGE('',*,*,#661,.T.);
#1296=ORIENTED_EDGE('',*,*,#583,.T.);
#1306=ORIENTED_EDGE('',*,*,#632,.T.);
#1369=ORIENTED_EDGE('',*,*,#945,.T.);
#1380=ORIENTED_EDGE('',*,*,#710,.T.);
#1316=ORIENTED_EDGE('',*,*,#1068,.T.);
#1327=ORIENTED_EDGE('',*,*,#808,.T.);
#1337=ORIENTED_EDGE('',*,*,#906,.T.);
#1347=ORIENTED_EDGE('',*,*,#857,.T.);
#1357=ORIENTED_EDGE('',*,*,#1098,.T.);
#1390=ORIENTED_EDGE('',*,*,#779,.T.);
#1400=ORIENTED_EDGE('',*,*,#1017,.T.);
#1411=MANIFOLD_SOLID_BREP($,#1412);
#1412=CLOSED_SHELL('',(#1414,#1463,#1512,#1561,#1610,#1659,#1708,#1757,#1806,#1857,#1908,#1959,#2010,#2146));
#1413=STYLED_ITEM('',(#34),#1414);
#1414=ADVANCED_FACE('',(#1420),#1415,.T.);
#1415=PLANE('',#1416);
#1416=AXIS2_PLACEMENT_3D('',#1417,#1418,#1419);
#1417=CARTESIAN_POINT('',(-0.381,-2.045,0.505));
#1418=DIRECTION('',(0.0,1.0,0.0));
#1419=DIRECTION('',(0.,0.,1.));
#1420=FACE_OUTER_BOUND('',#1421,.T.);
#1421=EDGE_LOOP('',(#1422,#1432,#1442,#1452));
#1425=CARTESIAN_POINT('',(-0.889,-2.045,0.505));
#1424=VERTEX_POINT('',#1425);
#1427=CARTESIAN_POINT('',(-0.381,-2.045,0.505));
#1426=VERTEX_POINT('',#1427);
#1423=EDGE_CURVE('',#1424,#1426,#1428,.T.);
#1428=LINE('',#1425,#1430);
#1430=VECTOR('',#1431,0.507999991608882);
#1431=DIRECTION('',(1.0,0.0,0.0));
#1422=ORIENTED_EDGE('',*,*,#1423,.F.);
#1435=CARTESIAN_POINT('',(-0.889,-2.045,0.673));
#1434=VERTEX_POINT('',#1435);
#1433=EDGE_CURVE('',#1434,#1424,#1438,.T.);
#1438=LINE('',#1435,#1440);
#1440=VECTOR('',#1441,0.168275);
#1441=DIRECTION('',(0.0,0.0,-1.0));
#1432=ORIENTED_EDGE('',*,*,#1433,.F.);
#1445=CARTESIAN_POINT('',(-0.381,-2.045,0.673));
#1444=VERTEX_POINT('',#1445);
#1443=EDGE_CURVE('',#1444,#1434,#1448,.T.);
#1448=LINE('',#1445,#1450);
#1450=VECTOR('',#1451,0.507999991608882);
#1451=DIRECTION('',(-1.0,0.0,0.0));
#1442=ORIENTED_EDGE('',*,*,#1443,.F.);
#1453=EDGE_CURVE('',#1426,#1444,#1458,.T.);
#1458=LINE('',#1427,#1460);
#1460=VECTOR('',#1461,0.168275);
#1461=DIRECTION('',(0.0,0.0,1.0));
#1452=ORIENTED_EDGE('',*,*,#1453,.F.);
#1462=STYLED_ITEM('',(#34),#1463);
#1463=ADVANCED_FACE('',(#1469),#1464,.T.);
#1464=PLANE('',#1465);
#1465=AXIS2_PLACEMENT_3D('',#1466,#1467,#1468);
#1466=CARTESIAN_POINT('',(-0.381,-2.045,0.673));
#1467=DIRECTION('',(0.0,0.0,1.0));
#1468=DIRECTION('',(0.,1.,0.));
#1469=FACE_OUTER_BOUND('',#1470,.T.);
#1470=EDGE_LOOP('',(#1471,#1481,#1491,#1501));
#1471=ORIENTED_EDGE('',*,*,#1443,.T.);
#1484=CARTESIAN_POINT('',(-0.889,-2.19,0.673));
#1483=VERTEX_POINT('',#1484);
#1482=EDGE_CURVE('',#1483,#1434,#1487,.T.);
#1487=LINE('',#1484,#1489);
#1489=VECTOR('',#1490,0.145083565178712);
#1490=DIRECTION('',(0.0,1.0,0.0));
#1481=ORIENTED_EDGE('',*,*,#1482,.F.);
#1494=CARTESIAN_POINT('',(-0.381,-2.19,0.673));
#1493=VERTEX_POINT('',#1494);
#1492=EDGE_CURVE('',#1493,#1483,#1497,.T.);
#1497=LINE('',#1494,#1499);
#1499=VECTOR('',#1500,0.507999991727213);
#1500=DIRECTION('',(-1.0,0.0,0.0));
#1491=ORIENTED_EDGE('',*,*,#1492,.F.);
#1502=EDGE_CURVE('',#1444,#1493,#1507,.T.);
#1507=LINE('',#1445,#1509);
#1509=VECTOR('',#1510,0.145083565178712);
#1510=DIRECTION('',(0.0,-1.0,0.0));
#1501=ORIENTED_EDGE('',*,*,#1502,.F.);
#1511=STYLED_ITEM('',(#34),#1512);
#1512=ADVANCED_FACE('',(#1518),#1513,.T.);
#1513=PLANE('',#1514);
#1514=AXIS2_PLACEMENT_3D('',#1515,#1516,#1517);
#1515=CARTESIAN_POINT('',(-0.889,-2.045,0.505));
#1516=DIRECTION('',(0.0,0.0,-1.0));
#1517=DIRECTION('',(0.,1.,0.));
#1518=FACE_OUTER_BOUND('',#1519,.T.);
#1519=EDGE_LOOP('',(#1520,#1530,#1540,#1550));
#1520=ORIENTED_EDGE('',*,*,#1423,.T.);
#1533=CARTESIAN_POINT('',(-0.381,-2.19,0.505));
#1532=VERTEX_POINT('',#1533);
#1531=EDGE_CURVE('',#1532,#1426,#1536,.T.);
#1536=LINE('',#1533,#1538);
#1538=VECTOR('',#1539,0.145083565178712);
#1539=DIRECTION('',(0.0,1.0,0.0));
#1530=ORIENTED_EDGE('',*,*,#1531,.F.);
#1543=CARTESIAN_POINT('',(-0.889,-2.19,0.505));
#1542=VERTEX_POINT('',#1543);
#1541=EDGE_CURVE('',#1542,#1532,#1546,.T.);
#1546=LINE('',#1543,#1548);
#1548=VECTOR('',#1549,0.507999991727213);
#1549=DIRECTION('',(1.0,0.0,0.0));
#1540=ORIENTED_EDGE('',*,*,#1541,.F.);
#1551=EDGE_CURVE('',#1424,#1542,#1556,.T.);
#1556=LINE('',#1425,#1558);
#1558=VECTOR('',#1559,0.145083565178712);
#1559=DIRECTION('',(0.0,-1.0,0.0));
#1550=ORIENTED_EDGE('',*,*,#1551,.F.);
#1560=STYLED_ITEM('',(#34),#1561);
#1561=ADVANCED_FACE('',(#1567),#1562,.T.);
#1562=PLANE('',#1563);
#1563=AXIS2_PLACEMENT_3D('',#1564,#1565,#1566);
#1564=CARTESIAN_POINT('',(-0.889,-2.55,0.293));
#1565=DIRECTION('',(0.0,-0.966,0.259));
#1566=DIRECTION('',(0.,0.,1.));
#1567=FACE_OUTER_BOUND('',#1568,.T.);
#1568=EDGE_LOOP('',(#1569,#1579,#1589,#1599));
#1572=CARTESIAN_POINT('',(-0.381,-2.55,0.293));
#1571=VERTEX_POINT('',#1572);
#1574=CARTESIAN_POINT('',(-0.889,-2.55,0.293));
#1573=VERTEX_POINT('',#1574);
#1570=EDGE_CURVE('',#1571,#1573,#1575,.T.);
#1575=LINE('',#1572,#1577);
#1577=VECTOR('',#1578,0.507999992763007);
#1578=DIRECTION('',(-1.0,0.0,0.0));
#1569=ORIENTED_EDGE('',*,*,#1570,.F.);
#1582=CARTESIAN_POINT('',(-0.381,-2.515,0.424));
#1581=VERTEX_POINT('',#1582);
#1580=EDGE_CURVE('',#1581,#1571,#1585,.T.);
#1585=LINE('',#1582,#1587);
#1587=VECTOR('',#1588,0.135265794794851);
#1588=DIRECTION('',(0.0,-0.259,-0.966));
#1579=ORIENTED_EDGE('',*,*,#1580,.F.);
#1592=CARTESIAN_POINT('',(-0.889,-2.515,0.424));
#1591=VERTEX_POINT('',#1592);
#1590=EDGE_CURVE('',#1591,#1581,#1595,.T.);
#1595=LINE('',#1592,#1597);
#1597=VECTOR('',#1598,0.507999992550019);
#1598=DIRECTION('',(1.0,0.0,0.0));
#1589=ORIENTED_EDGE('',*,*,#1590,.F.);
#1600=EDGE_CURVE('',#1573,#1591,#1605,.T.);
#1605=LINE('',#1574,#1607);
#1607=VECTOR('',#1608,0.135265794794851);
#1608=DIRECTION('',(0.0,0.259,0.966));
#1599=ORIENTED_EDGE('',*,*,#1600,.F.);
#1609=STYLED_ITEM('',(#34),#1610);
#1610=ADVANCED_FACE('',(#1616),#1611,.T.);
#1611=PLANE('',#1612);
#1612=AXIS2_PLACEMENT_3D('',#1613,#1614,#1615);
#1613=CARTESIAN_POINT('',(-0.381,-2.387,0.249));
#1614=DIRECTION('',(0.0,0.966,-0.259));
#1615=DIRECTION('',(0.,0.,1.));
#1616=FACE_OUTER_BOUND('',#1617,.T.);
#1617=EDGE_LOOP('',(#1618,#1628,#1638,#1648));
#1621=CARTESIAN_POINT('',(-0.889,-2.387,0.249));
#1620=VERTEX_POINT('',#1621);
#1623=CARTESIAN_POINT('',(-0.381,-2.387,0.249));
#1622=VERTEX_POINT('',#1623);
#1619=EDGE_CURVE('',#1620,#1622,#1624,.T.);
#1624=LINE('',#1621,#1626);
#1626=VECTOR('',#1627,0.507999992062364);
#1627=DIRECTION('',(1.0,0.0,0.0));
#1618=ORIENTED_EDGE('',*,*,#1619,.F.);
#1631=CARTESIAN_POINT('',(-0.889,-2.352,0.38));
#1630=VERTEX_POINT('',#1631);
#1629=EDGE_CURVE('',#1630,#1620,#1634,.T.);
#1634=LINE('',#1631,#1636);
#1636=VECTOR('',#1637,0.135265794820453);
#1637=DIRECTION('',(0.0,-0.259,-0.966));
#1628=ORIENTED_EDGE('',*,*,#1629,.F.);
#1641=CARTESIAN_POINT('',(-0.381,-2.352,0.38));
#1640=VERTEX_POINT('',#1641);
#1639=EDGE_CURVE('',#1640,#1630,#1644,.T.);
#1644=LINE('',#1641,#1646);
#1646=VECTOR('',#1647,0.507999991978118);
#1647=DIRECTION('',(-1.0,0.0,0.0));
#1638=ORIENTED_EDGE('',*,*,#1639,.F.);
#1649=EDGE_CURVE('',#1622,#1640,#1654,.T.);
#1654=LINE('',#1623,#1656);
#1656=VECTOR('',#1657,0.135265794820453);
#1657=DIRECTION('',(0.0,0.259,0.966));
#1648=ORIENTED_EDGE('',*,*,#1649,.F.);
#1658=STYLED_ITEM('',(#34),#1659);
#1659=ADVANCED_FACE('',(#1665),#1660,.T.);
#1660=PLANE('',#1661);
#1661=AXIS2_PLACEMENT_3D('',#1662,#1663,#1664);
#1662=CARTESIAN_POINT('',(-0.889,-2.857,0.168));
#1663=DIRECTION('',(0.0,0.0,1.0));
#1664=DIRECTION('',(0.,1.,0.));
#1665=FACE_OUTER_BOUND('',#1666,.T.);
#1666=EDGE_LOOP('',(#1667,#1677,#1687,#1697));
#1670=CARTESIAN_POINT('',(-0.381,-2.858,0.168));
#1669=VERTEX_POINT('',#1670);
#1672=CARTESIAN_POINT('',(-0.889,-2.857,0.168));
#1671=VERTEX_POINT('',#1672);
#1668=EDGE_CURVE('',#1669,#1671,#1673,.T.);
#1673=LINE('',#1670,#1675);
#1675=VECTOR('',#1676,0.508);
#1676=DIRECTION('',(-1.0,0.0,0.0));
#1667=ORIENTED_EDGE('',*,*,#1668,.F.);
#1680=CARTESIAN_POINT('',(-0.381,-2.712,0.168));
#1679=VERTEX_POINT('',#1680);
#1678=EDGE_CURVE('',#1679,#1669,#1683,.T.);
#1683=LINE('',#1680,#1685);
#1685=VECTOR('',#1686,0.145083563188273);
#1686=DIRECTION('',(0.0,-1.0,0.0));
#1677=ORIENTED_EDGE('',*,*,#1678,.F.);
#1690=CARTESIAN_POINT('',(-0.889,-2.712,0.168));
#1689=VERTEX_POINT('',#1690);
#1688=EDGE_CURVE('',#1689,#1679,#1693,.T.);
#1693=LINE('',#1690,#1695);
#1695=VECTOR('',#1696,0.507999994798595);
#1696=DIRECTION('',(1.0,0.0,0.0));
#1687=ORIENTED_EDGE('',*,*,#1688,.F.);
#1698=EDGE_CURVE('',#1671,#1689,#1703,.T.);
#1703=LINE('',#1672,#1705);
#1705=VECTOR('',#1706,0.145083563188273);
#1706=DIRECTION('',(0.0,1.0,0.0));
#1697=ORIENTED_EDGE('',*,*,#1698,.F.);
#1707=STYLED_ITEM('',(#34),#1708);
#1708=ADVANCED_FACE('',(#1714),#1709,.T.);
#1709=PLANE('',#1710);
#1710=AXIS2_PLACEMENT_3D('',#1711,#1712,#1713);
#1711=CARTESIAN_POINT('',(-0.889,-2.712,0.0));
#1712=DIRECTION('',(0.0,0.0,-1.0));
#1713=DIRECTION('',(0.,1.,0.));
#1714=FACE_OUTER_BOUND('',#1715,.T.);
#1715=EDGE_LOOP('',(#1716,#1726,#1736,#1746));
#1719=CARTESIAN_POINT('',(-0.381,-2.712,0.0));
#1718=VERTEX_POINT('',#1719);
#1721=CARTESIAN_POINT('',(-0.889,-2.712,0.0));
#1720=VERTEX_POINT('',#1721);
#1717=EDGE_CURVE('',#1718,#1720,#1722,.T.);
#1722=LINE('',#1719,#1724);
#1724=VECTOR('',#1725,0.507999994798595);
#1725=DIRECTION('',(-1.0,0.0,0.0));
#1716=ORIENTED_EDGE('',*,*,#1717,.F.);
#1729=CARTESIAN_POINT('',(-0.381,-2.858,0.0));
#1728=VERTEX_POINT('',#1729);
#1727=EDGE_CURVE('',#1728,#1718,#1732,.T.);
#1732=LINE('',#1729,#1734);
#1734=VECTOR('',#1735,0.145083563188273);
#1735=DIRECTION('',(0.0,1.0,0.0));
#1726=ORIENTED_EDGE('',*,*,#1727,.F.);
#1739=CARTESIAN_POINT('',(-0.889,-2.857,0.0));
#1738=VERTEX_POINT('',#1739);
#1737=EDGE_CURVE('',#1738,#1728,#1742,.T.);
#1742=LINE('',#1739,#1744);
#1744=VECTOR('',#1745,0.508);
#1745=DIRECTION('',(1.0,0.0,0.0));
#1736=ORIENTED_EDGE('',*,*,#1737,.F.);
#1747=EDGE_CURVE('',#1720,#1738,#1752,.T.);
#1752=LINE('',#1721,#1754);
#1754=VECTOR('',#1755,0.145083563188273);
#1755=DIRECTION('',(0.0,-1.0,0.0));
#1746=ORIENTED_EDGE('',*,*,#1747,.F.);
#1756=STYLED_ITEM('',(#34),#1757);
#1757=ADVANCED_FACE('',(#1763),#1758,.T.);
#1758=PLANE('',#1759);
#1759=AXIS2_PLACEMENT_3D('',#1760,#1761,#1762);
#1760=CARTESIAN_POINT('',(-0.889,-2.857,0.0));
#1761=DIRECTION('',(0.0,-1.0,0.0));
#1762=DIRECTION('',(0.,0.,1.));
#1763=FACE_OUTER_BOUND('',#1764,.T.);
#1764=EDGE_LOOP('',(#1765,#1775,#1785,#1795));
#1765=ORIENTED_EDGE('',*,*,#1737,.T.);
#1776=EDGE_CURVE('',#1669,#1728,#1781,.T.);
#1781=LINE('',#1670,#1783);
#1783=VECTOR('',#1784,0.168275);
#1784=DIRECTION('',(0.0,0.0,-1.0));
#1775=ORIENTED_EDGE('',*,*,#1776,.F.);
#1785=ORIENTED_EDGE('',*,*,#1668,.T.);
#1796=EDGE_CURVE('',#1738,#1671,#1801,.T.);
#1801=LINE('',#1739,#1803);
#1803=VECTOR('',#1804,0.168275);
#1804=DIRECTION('',(0.0,0.0,1.0));
#1795=ORIENTED_EDGE('',*,*,#1796,.F.);
#1805=STYLED_ITEM($,(#34),#1806);
#1806=ADVANCED_FACE($,(#1812),#1807,.T.);
#1807=CYLINDRICAL_SURFACE($,#1808,0.33655);
#1808=AXIS2_PLACEMENT_3D($,#1809,#1810,#1811);
#1809=CARTESIAN_POINT('',(-0.381,-2.19,0.337));
#1810=DIRECTION('',(1.0,0.0,0.0));
#1811=DIRECTION('',(0.,0.,1.));
#1812=FACE_OUTER_BOUND($,#1813,.T.);
#1813=EDGE_LOOP($,(#1825,#1835,#1846,#1814));
#1825=ORIENTED_EDGE('',*,*,#1492,.T.);
#1836=EDGE_CURVE($,#1591,#1483,#1841,.T.);
#1841=CIRCLE($,#1842,0.33655);
#1843=CARTESIAN_POINT('',(-0.889,-2.19,0.337));
#1842=AXIS2_PLACEMENT_3D($,#1843,#1844,#1845);
#1844=DIRECTION('',(-1.0,0.0,0.0));
#1845=DIRECTION('',(0.0,0.793,0.609));
#1835=ORIENTED_EDGE('',*,*,#1836,.F.);
#1846=ORIENTED_EDGE('',*,*,#1590,.T.);
#1815=EDGE_CURVE($,#1493,#1581,#1820,.T.);
#1820=CIRCLE($,#1821,0.33655);
#1822=CARTESIAN_POINT('',(-0.381,-2.19,0.337));
#1821=AXIS2_PLACEMENT_3D($,#1822,#1823,#1824);
#1823=DIRECTION('',(1.0,0.0,0.0));
#1824=DIRECTION('',(0.0,-0.793,-0.609));
#1814=ORIENTED_EDGE('',*,*,#1815,.F.);
#1856=STYLED_ITEM($,(#34),#1857);
#1857=ADVANCED_FACE($,(#1863),#1858,.F.);
#1858=CYLINDRICAL_SURFACE($,#1859,0.168275);
#1859=AXIS2_PLACEMENT_3D($,#1860,#1861,#1862);
#1860=CARTESIAN_POINT('',(-0.889,-2.19,0.337));
#1861=DIRECTION('',(1.0,0.0,0.0));
#1862=DIRECTION('',(0.,0.,-1.));
#1863=FACE_OUTER_BOUND($,#1864,.T.);
#1864=EDGE_LOOP($,(#1876,#1886,#1897,#1865));
#1876=ORIENTED_EDGE('',*,*,#1541,.T.);
#1887=EDGE_CURVE($,#1640,#1532,#1892,.T.);
#1892=CIRCLE($,#1893,0.168275);
#1893=AXIS2_PLACEMENT_3D($,#1822,#1895,#1896);
#1895=DIRECTION('',(-1.0,0.0,0.0));
#1896=DIRECTION('',(0.0,0.793,0.609));
#1886=ORIENTED_EDGE('',*,*,#1887,.F.);
#1897=ORIENTED_EDGE('',*,*,#1639,.T.);
#1866=EDGE_CURVE($,#1542,#1630,#1871,.T.);
#1871=CIRCLE($,#1872,0.168275);
#1872=AXIS2_PLACEMENT_3D($,#1843,#1874,#1875);
#1874=DIRECTION('',(1.0,0.0,0.0));
#1875=DIRECTION('',(0.0,-0.793,-0.609));
#1865=ORIENTED_EDGE('',*,*,#1866,.F.);
#1907=STYLED_ITEM($,(#34),#1908);
#1908=ADVANCED_FACE($,(#1914),#1909,.F.);
#1909=CYLINDRICAL_SURFACE($,#1910,0.168275);
#1910=AXIS2_PLACEMENT_3D($,#1911,#1912,#1913);
#1911=CARTESIAN_POINT('',(-0.889,-2.712,0.337));
#1912=DIRECTION('',(1.0,0.0,0.0));
#1913=DIRECTION('',(0.,0.,1.));
#1914=FACE_OUTER_BOUND($,#1915,.T.);
#1915=EDGE_LOOP($,(#1927,#1937,#1948,#1916));
#1927=ORIENTED_EDGE('',*,*,#1688,.T.);
#1938=EDGE_CURVE($,#1571,#1679,#1943,.T.);
#1943=CIRCLE($,#1944,0.168275);
#1945=CARTESIAN_POINT('',(-0.381,-2.712,0.337));
#1944=AXIS2_PLACEMENT_3D($,#1945,#1946,#1947);
#1946=DIRECTION('',(-1.0,0.0,0.0));
#1947=DIRECTION('',(0.0,-0.793,-0.609));
#1937=ORIENTED_EDGE('',*,*,#1938,.F.);
#1948=ORIENTED_EDGE('',*,*,#1570,.T.);
#1917=EDGE_CURVE($,#1689,#1573,#1922,.T.);
#1922=CIRCLE($,#1923,0.168275);
#1924=CARTESIAN_POINT('',(-0.889,-2.712,0.337));
#1923=AXIS2_PLACEMENT_3D($,#1924,#1925,#1926);
#1925=DIRECTION('',(1.0,0.0,0.0));
#1926=DIRECTION('',(0.0,0.793,0.609));
#1916=ORIENTED_EDGE('',*,*,#1917,.F.);
#1958=STYLED_ITEM($,(#34),#1959);
#1959=ADVANCED_FACE($,(#1965),#1960,.T.);
#1960=CYLINDRICAL_SURFACE($,#1961,0.33655);
#1961=AXIS2_PLACEMENT_3D($,#1962,#1963,#1964);
#1962=CARTESIAN_POINT('',(-0.889,-2.712,0.337));
#1963=DIRECTION('',(1.0,0.0,0.0));
#1964=DIRECTION('',(0.,0.,-1.));
#1965=FACE_OUTER_BOUND($,#1966,.T.);
#1966=EDGE_LOOP($,(#1978,#1988,#1999,#1967));
#1978=ORIENTED_EDGE('',*,*,#1717,.T.);
#1989=EDGE_CURVE($,#1620,#1720,#1994,.T.);
#1994=CIRCLE($,#1995,0.33655);
#1995=AXIS2_PLACEMENT_3D($,#1924,#1997,#1998);
#1997=DIRECTION('',(-1.0,0.0,0.0));
#1998=DIRECTION('',(0.0,-0.793,-0.609));
#1988=ORIENTED_EDGE('',*,*,#1989,.F.);
#1999=ORIENTED_EDGE('',*,*,#1619,.T.);
#1968=EDGE_CURVE($,#1718,#1622,#1973,.T.);
#1973=CIRCLE($,#1974,0.33655);
#1974=AXIS2_PLACEMENT_3D($,#1945,#1976,#1977);
#1976=DIRECTION('',(1.0,0.0,0.0));
#1977=DIRECTION('',(0.0,0.793,0.609));
#1967=ORIENTED_EDGE('',*,*,#1968,.F.);
#2009=STYLED_ITEM('color',(#34),#2010);
#2010=ADVANCED_FACE($,(#2016),#2011,.T.);
#2011=PLANE($,#2012);
#2012=AXIS2_PLACEMENT_3D($,#2013,#2014,#2015);
#2013=CARTESIAN_POINT('',(-0.889,-2.045,0.505));
#2014=DIRECTION('',(-1.0,0.0,0.0));
#2015=DIRECTION('',(1.,0.,0.));
#2016=FACE_OUTER_BOUND($,#2017,.T.);
#2017=EDGE_LOOP($,(#2020, #2030, #2040, #2103, #2114, #2050, #2061, #2071, #2081, #2091, #2124, #2134));
#2020=ORIENTED_EDGE('',*,*,#1482,.T.);
#2030=ORIENTED_EDGE('',*,*,#1433,.T.);
#2040=ORIENTED_EDGE('',*,*,#1551,.T.);
#2103=ORIENTED_EDGE('',*,*,#1866,.T.);
#2114=ORIENTED_EDGE('',*,*,#1629,.T.);
#2050=ORIENTED_EDGE('',*,*,#1989,.T.);
#2061=ORIENTED_EDGE('',*,*,#1747,.T.);
#2071=ORIENTED_EDGE('',*,*,#1796,.T.);
#2081=ORIENTED_EDGE('',*,*,#1698,.T.);
#2091=ORIENTED_EDGE('',*,*,#1917,.T.);
#2124=ORIENTED_EDGE('',*,*,#1600,.T.);
#2134=ORIENTED_EDGE('',*,*,#1836,.T.);
#2145=STYLED_ITEM('color',(#34),#2146);
#2146=ADVANCED_FACE($,(#2152),#2147,.T.);
#2147=PLANE($,#2148);
#2148=AXIS2_PLACEMENT_3D($,#2149,#2150,#2151);
#2149=CARTESIAN_POINT('',(-0.381,-2.712,0.168));
#2150=DIRECTION('',(1.0,0.0,0.0));
#2151=DIRECTION('',(1.,0.,0.));
#2152=FACE_OUTER_BOUND($,#2153,.T.);
#2153=EDGE_LOOP($,(#2156, #2166, #2176, #2239, #2250, #2186, #2197, #2207, #2217, #2227, #2260, #2270));
#2156=ORIENTED_EDGE('',*,*,#1531,.T.);
#2166=ORIENTED_EDGE('',*,*,#1453,.T.);
#2176=ORIENTED_EDGE('',*,*,#1502,.T.);
#2239=ORIENTED_EDGE('',*,*,#1815,.T.);
#2250=ORIENTED_EDGE('',*,*,#1580,.T.);
#2186=ORIENTED_EDGE('',*,*,#1938,.T.);
#2197=ORIENTED_EDGE('',*,*,#1678,.T.);
#2207=ORIENTED_EDGE('',*,*,#1776,.T.);
#2217=ORIENTED_EDGE('',*,*,#1727,.T.);
#2227=ORIENTED_EDGE('',*,*,#1968,.T.);
#2260=ORIENTED_EDGE('',*,*,#1649,.T.);
#2270=ORIENTED_EDGE('',*,*,#1887,.T.);
#2281=MANIFOLD_SOLID_BREP($,#2282);
#2282=CLOSED_SHELL('',(#2284,#2333,#2382,#2431,#2480,#2529,#2578,#2627,#2676,#2727,#2778,#2829,#2880,#3016));
#2283=STYLED_ITEM('',(#34),#2284);
#2284=ADVANCED_FACE('',(#2290),#2285,.T.);
#2285=PLANE('',#2286);
#2286=AXIS2_PLACEMENT_3D('',#2287,#2288,#2289);
#2287=CARTESIAN_POINT('',(0.889,-2.045,0.505));
#2288=DIRECTION('',(0.0,1.0,0.0));
#2289=DIRECTION('',(0.,0.,1.));
#2290=FACE_OUTER_BOUND('',#2291,.T.);
#2291=EDGE_LOOP('',(#2292,#2302,#2312,#2322));
#2295=CARTESIAN_POINT('',(0.381,-2.045,0.505));
#2294=VERTEX_POINT('',#2295);
#2297=CARTESIAN_POINT('',(0.889,-2.045,0.505));
#2296=VERTEX_POINT('',#2297);
#2293=EDGE_CURVE('',#2294,#2296,#2298,.T.);
#2298=LINE('',#2295,#2300);
#2300=VECTOR('',#2301,0.507999991608882);
#2301=DIRECTION('',(1.0,0.0,0.0));
#2292=ORIENTED_EDGE('',*,*,#2293,.F.);
#2305=CARTESIAN_POINT('',(0.381,-2.045,0.673));
#2304=VERTEX_POINT('',#2305);
#2303=EDGE_CURVE('',#2304,#2294,#2308,.T.);
#2308=LINE('',#2305,#2310);
#2310=VECTOR('',#2311,0.168275);
#2311=DIRECTION('',(0.0,0.0,-1.0));
#2302=ORIENTED_EDGE('',*,*,#2303,.F.);
#2315=CARTESIAN_POINT('',(0.889,-2.045,0.673));
#2314=VERTEX_POINT('',#2315);
#2313=EDGE_CURVE('',#2314,#2304,#2318,.T.);
#2318=LINE('',#2315,#2320);
#2320=VECTOR('',#2321,0.507999991608882);
#2321=DIRECTION('',(-1.0,0.0,0.0));
#2312=ORIENTED_EDGE('',*,*,#2313,.F.);
#2323=EDGE_CURVE('',#2296,#2314,#2328,.T.);
#2328=LINE('',#2297,#2330);
#2330=VECTOR('',#2331,0.168275);
#2331=DIRECTION('',(0.0,0.0,1.0));
#2322=ORIENTED_EDGE('',*,*,#2323,.F.);
#2332=STYLED_ITEM('',(#34),#2333);
#2333=ADVANCED_FACE('',(#2339),#2334,.T.);
#2334=PLANE('',#2335);
#2335=AXIS2_PLACEMENT_3D('',#2336,#2337,#2338);
#2336=CARTESIAN_POINT('',(0.889,-2.045,0.673));
#2337=DIRECTION('',(0.0,0.0,1.0));
#2338=DIRECTION('',(0.,1.,0.));
#2339=FACE_OUTER_BOUND('',#2340,.T.);
#2340=EDGE_LOOP('',(#2341,#2351,#2361,#2371));
#2341=ORIENTED_EDGE('',*,*,#2313,.T.);
#2354=CARTESIAN_POINT('',(0.381,-2.19,0.673));
#2353=VERTEX_POINT('',#2354);
#2352=EDGE_CURVE('',#2353,#2304,#2357,.T.);
#2357=LINE('',#2354,#2359);
#2359=VECTOR('',#2360,0.145083565178712);
#2360=DIRECTION('',(0.0,1.0,0.0));
#2351=ORIENTED_EDGE('',*,*,#2352,.F.);
#2364=CARTESIAN_POINT('',(0.889,-2.19,0.673));
#2363=VERTEX_POINT('',#2364);
#2362=EDGE_CURVE('',#2363,#2353,#2367,.T.);
#2367=LINE('',#2364,#2369);
#2369=VECTOR('',#2370,0.507999991727213);
#2370=DIRECTION('',(-1.0,0.0,0.0));
#2361=ORIENTED_EDGE('',*,*,#2362,.F.);
#2372=EDGE_CURVE('',#2314,#2363,#2377,.T.);
#2377=LINE('',#2315,#2379);
#2379=VECTOR('',#2380,0.145083565178712);
#2380=DIRECTION('',(0.0,-1.0,0.0));
#2371=ORIENTED_EDGE('',*,*,#2372,.F.);
#2381=STYLED_ITEM('',(#34),#2382);
#2382=ADVANCED_FACE('',(#2388),#2383,.T.);
#2383=PLANE('',#2384);
#2384=AXIS2_PLACEMENT_3D('',#2385,#2386,#2387);
#2385=CARTESIAN_POINT('',(0.381,-2.045,0.505));
#2386=DIRECTION('',(0.0,0.0,-1.0));
#2387=DIRECTION('',(0.,1.,0.));
#2388=FACE_OUTER_BOUND('',#2389,.T.);
#2389=EDGE_LOOP('',(#2390,#2400,#2410,#2420));
#2390=ORIENTED_EDGE('',*,*,#2293,.T.);
#2403=CARTESIAN_POINT('',(0.889,-2.19,0.505));
#2402=VERTEX_POINT('',#2403);
#2401=EDGE_CURVE('',#2402,#2296,#2406,.T.);
#2406=LINE('',#2403,#2408);
#2408=VECTOR('',#2409,0.145083565178712);
#2409=DIRECTION('',(0.0,1.0,0.0));
#2400=ORIENTED_EDGE('',*,*,#2401,.F.);
#2413=CARTESIAN_POINT('',(0.381,-2.19,0.505));
#2412=VERTEX_POINT('',#2413);
#2411=EDGE_CURVE('',#2412,#2402,#2416,.T.);
#2416=LINE('',#2413,#2418);
#2418=VECTOR('',#2419,0.507999991727213);
#2419=DIRECTION('',(1.0,0.0,0.0));
#2410=ORIENTED_EDGE('',*,*,#2411,.F.);
#2421=EDGE_CURVE('',#2294,#2412,#2426,.T.);
#2426=LINE('',#2295,#2428);
#2428=VECTOR('',#2429,0.145083565178712);
#2429=DIRECTION('',(0.0,-1.0,0.0));
#2420=ORIENTED_EDGE('',*,*,#2421,.F.);
#2430=STYLED_ITEM('',(#34),#2431);
#2431=ADVANCED_FACE('',(#2437),#2432,.T.);
#2432=PLANE('',#2433);
#2433=AXIS2_PLACEMENT_3D('',#2434,#2435,#2436);
#2434=CARTESIAN_POINT('',(0.381,-2.55,0.293));
#2435=DIRECTION('',(0.0,-0.966,0.259));
#2436=DIRECTION('',(0.,0.,1.));
#2437=FACE_OUTER_BOUND('',#2438,.T.);
#2438=EDGE_LOOP('',(#2439,#2449,#2459,#2469));
#2442=CARTESIAN_POINT('',(0.889,-2.55,0.293));
#2441=VERTEX_POINT('',#2442);
#2444=CARTESIAN_POINT('',(0.381,-2.55,0.293));
#2443=VERTEX_POINT('',#2444);
#2440=EDGE_CURVE('',#2441,#2443,#2445,.T.);
#2445=LINE('',#2442,#2447);
#2447=VECTOR('',#2448,0.507999992763007);
#2448=DIRECTION('',(-1.0,0.0,0.0));
#2439=ORIENTED_EDGE('',*,*,#2440,.F.);
#2452=CARTESIAN_POINT('',(0.889,-2.515,0.424));
#2451=VERTEX_POINT('',#2452);
#2450=EDGE_CURVE('',#2451,#2441,#2455,.T.);
#2455=LINE('',#2452,#2457);
#2457=VECTOR('',#2458,0.135265794794851);
#2458=DIRECTION('',(0.0,-0.259,-0.966));
#2449=ORIENTED_EDGE('',*,*,#2450,.F.);
#2462=CARTESIAN_POINT('',(0.381,-2.515,0.424));
#2461=VERTEX_POINT('',#2462);
#2460=EDGE_CURVE('',#2461,#2451,#2465,.T.);
#2465=LINE('',#2462,#2467);
#2467=VECTOR('',#2468,0.507999992550019);
#2468=DIRECTION('',(1.0,0.0,0.0));
#2459=ORIENTED_EDGE('',*,*,#2460,.F.);
#2470=EDGE_CURVE('',#2443,#2461,#2475,.T.);
#2475=LINE('',#2444,#2477);
#2477=VECTOR('',#2478,0.135265794794851);
#2478=DIRECTION('',(0.0,0.259,0.966));
#2469=ORIENTED_EDGE('',*,*,#2470,.F.);
#2479=STYLED_ITEM('',(#34),#2480);
#2480=ADVANCED_FACE('',(#2486),#2481,.T.);
#2481=PLANE('',#2482);
#2482=AXIS2_PLACEMENT_3D('',#2483,#2484,#2485);
#2483=CARTESIAN_POINT('',(0.889,-2.387,0.249));
#2484=DIRECTION('',(0.0,0.966,-0.259));
#2485=DIRECTION('',(0.,0.,1.));
#2486=FACE_OUTER_BOUND('',#2487,.T.);
#2487=EDGE_LOOP('',(#2488,#2498,#2508,#2518));
#2491=CARTESIAN_POINT('',(0.381,-2.387,0.249));
#2490=VERTEX_POINT('',#2491);
#2493=CARTESIAN_POINT('',(0.889,-2.387,0.249));
#2492=VERTEX_POINT('',#2493);
#2489=EDGE_CURVE('',#2490,#2492,#2494,.T.);
#2494=LINE('',#2491,#2496);
#2496=VECTOR('',#2497,0.507999992062364);
#2497=DIRECTION('',(1.0,0.0,0.0));
#2488=ORIENTED_EDGE('',*,*,#2489,.F.);
#2501=CARTESIAN_POINT('',(0.381,-2.352,0.38));
#2500=VERTEX_POINT('',#2501);
#2499=EDGE_CURVE('',#2500,#2490,#2504,.T.);
#2504=LINE('',#2501,#2506);
#2506=VECTOR('',#2507,0.135265794820453);
#2507=DIRECTION('',(0.0,-0.259,-0.966));
#2498=ORIENTED_EDGE('',*,*,#2499,.F.);
#2511=CARTESIAN_POINT('',(0.889,-2.352,0.38));
#2510=VERTEX_POINT('',#2511);
#2509=EDGE_CURVE('',#2510,#2500,#2514,.T.);
#2514=LINE('',#2511,#2516);
#2516=VECTOR('',#2517,0.507999991978118);
#2517=DIRECTION('',(-1.0,0.0,0.0));
#2508=ORIENTED_EDGE('',*,*,#2509,.F.);
#2519=EDGE_CURVE('',#2492,#2510,#2524,.T.);
#2524=LINE('',#2493,#2526);
#2526=VECTOR('',#2527,0.135265794820453);
#2527=DIRECTION('',(0.0,0.259,0.966));
#2518=ORIENTED_EDGE('',*,*,#2519,.F.);
#2528=STYLED_ITEM('',(#34),#2529);
#2529=ADVANCED_FACE('',(#2535),#2530,.T.);
#2530=PLANE('',#2531);
#2531=AXIS2_PLACEMENT_3D('',#2532,#2533,#2534);
#2532=CARTESIAN_POINT('',(0.381,-2.857,0.168));
#2533=DIRECTION('',(0.0,0.0,1.0));
#2534=DIRECTION('',(0.,1.,0.));
#2535=FACE_OUTER_BOUND('',#2536,.T.);
#2536=EDGE_LOOP('',(#2537,#2547,#2557,#2567));
#2540=CARTESIAN_POINT('',(0.889,-2.858,0.168));
#2539=VERTEX_POINT('',#2540);
#2542=CARTESIAN_POINT('',(0.381,-2.857,0.168));
#2541=VERTEX_POINT('',#2542);
#2538=EDGE_CURVE('',#2539,#2541,#2543,.T.);
#2543=LINE('',#2540,#2545);
#2545=VECTOR('',#2546,0.508);
#2546=DIRECTION('',(-1.0,0.0,0.0));
#2537=ORIENTED_EDGE('',*,*,#2538,.F.);
#2550=CARTESIAN_POINT('',(0.889,-2.712,0.168));
#2549=VERTEX_POINT('',#2550);
#2548=EDGE_CURVE('',#2549,#2539,#2553,.T.);
#2553=LINE('',#2550,#2555);
#2555=VECTOR('',#2556,0.145083563188273);
#2556=DIRECTION('',(0.0,-1.0,0.0));
#2547=ORIENTED_EDGE('',*,*,#2548,.F.);
#2560=CARTESIAN_POINT('',(0.381,-2.712,0.168));
#2559=VERTEX_POINT('',#2560);
#2558=EDGE_CURVE('',#2559,#2549,#2563,.T.);
#2563=LINE('',#2560,#2565);
#2565=VECTOR('',#2566,0.507999994798595);
#2566=DIRECTION('',(1.0,0.0,0.0));
#2557=ORIENTED_EDGE('',*,*,#2558,.F.);
#2568=EDGE_CURVE('',#2541,#2559,#2573,.T.);
#2573=LINE('',#2542,#2575);
#2575=VECTOR('',#2576,0.145083563188273);
#2576=DIRECTION('',(0.0,1.0,0.0));
#2567=ORIENTED_EDGE('',*,*,#2568,.F.);
#2577=STYLED_ITEM('',(#34),#2578);
#2578=ADVANCED_FACE('',(#2584),#2579,.T.);
#2579=PLANE('',#2580);
#2580=AXIS2_PLACEMENT_3D('',#2581,#2582,#2583);
#2581=CARTESIAN_POINT('',(0.381,-2.712,0.0));
#2582=DIRECTION('',(0.0,0.0,-1.0));
#2583=DIRECTION('',(0.,1.,0.));
#2584=FACE_OUTER_BOUND('',#2585,.T.);
#2585=EDGE_LOOP('',(#2586,#2596,#2606,#2616));
#2589=CARTESIAN_POINT('',(0.889,-2.712,0.0));
#2588=VERTEX_POINT('',#2589);
#2591=CARTESIAN_POINT('',(0.381,-2.712,0.0));
#2590=VERTEX_POINT('',#2591);
#2587=EDGE_CURVE('',#2588,#2590,#2592,.T.);
#2592=LINE('',#2589,#2594);
#2594=VECTOR('',#2595,0.507999994798595);
#2595=DIRECTION('',(-1.0,0.0,0.0));
#2586=ORIENTED_EDGE('',*,*,#2587,.F.);
#2599=CARTESIAN_POINT('',(0.889,-2.858,0.0));
#2598=VERTEX_POINT('',#2599);
#2597=EDGE_CURVE('',#2598,#2588,#2602,.T.);
#2602=LINE('',#2599,#2604);
#2604=VECTOR('',#2605,0.145083563188273);
#2605=DIRECTION('',(0.0,1.0,0.0));
#2596=ORIENTED_EDGE('',*,*,#2597,.F.);
#2609=CARTESIAN_POINT('',(0.381,-2.857,0.0));
#2608=VERTEX_POINT('',#2609);
#2607=EDGE_CURVE('',#2608,#2598,#2612,.T.);
#2612=LINE('',#2609,#2614);
#2614=VECTOR('',#2615,0.508);
#2615=DIRECTION('',(1.0,0.0,0.0));
#2606=ORIENTED_EDGE('',*,*,#2607,.F.);
#2617=EDGE_CURVE('',#2590,#2608,#2622,.T.);
#2622=LINE('',#2591,#2624);
#2624=VECTOR('',#2625,0.145083563188273);
#2625=DIRECTION('',(0.0,-1.0,0.0));
#2616=ORIENTED_EDGE('',*,*,#2617,.F.);
#2626=STYLED_ITEM('',(#34),#2627);
#2627=ADVANCED_FACE('',(#2633),#2628,.T.);
#2628=PLANE('',#2629);
#2629=AXIS2_PLACEMENT_3D('',#2630,#2631,#2632);
#2630=CARTESIAN_POINT('',(0.381,-2.857,0.0));
#2631=DIRECTION('',(0.0,-1.0,0.0));
#2632=DIRECTION('',(0.,0.,1.));
#2633=FACE_OUTER_BOUND('',#2634,.T.);
#2634=EDGE_LOOP('',(#2635,#2645,#2655,#2665));
#2635=ORIENTED_EDGE('',*,*,#2607,.T.);
#2646=EDGE_CURVE('',#2539,#2598,#2651,.T.);
#2651=LINE('',#2540,#2653);
#2653=VECTOR('',#2654,0.168275);
#2654=DIRECTION('',(0.0,0.0,-1.0));
#2645=ORIENTED_EDGE('',*,*,#2646,.F.);
#2655=ORIENTED_EDGE('',*,*,#2538,.T.);
#2666=EDGE_CURVE('',#2608,#2541,#2671,.T.);
#2671=LINE('',#2609,#2673);
#2673=VECTOR('',#2674,0.168275);
#2674=DIRECTION('',(0.0,0.0,1.0));
#2665=ORIENTED_EDGE('',*,*,#2666,.F.);
#2675=STYLED_ITEM($,(#34),#2676);
#2676=ADVANCED_FACE($,(#2682),#2677,.T.);
#2677=CYLINDRICAL_SURFACE($,#2678,0.33655);
#2678=AXIS2_PLACEMENT_3D($,#2679,#2680,#2681);
#2679=CARTESIAN_POINT('',(0.889,-2.19,0.337));
#2680=DIRECTION('',(1.0,0.0,0.0));
#2681=DIRECTION('',(0.,0.,1.));
#2682=FACE_OUTER_BOUND($,#2683,.T.);
#2683=EDGE_LOOP($,(#2695,#2705,#2716,#2684));
#2695=ORIENTED_EDGE('',*,*,#2362,.T.);
#2706=EDGE_CURVE($,#2461,#2353,#2711,.T.);
#2711=CIRCLE($,#2712,0.33655);
#2713=CARTESIAN_POINT('',(0.381,-2.19,0.337));
#2712=AXIS2_PLACEMENT_3D($,#2713,#2714,#2715);
#2714=DIRECTION('',(-1.0,0.0,0.0));
#2715=DIRECTION('',(0.0,0.793,0.609));
#2705=ORIENTED_EDGE('',*,*,#2706,.F.);
#2716=ORIENTED_EDGE('',*,*,#2460,.T.);
#2685=EDGE_CURVE($,#2363,#2451,#2690,.T.);
#2690=CIRCLE($,#2691,0.33655);
#2692=CARTESIAN_POINT('',(0.889,-2.19,0.337));
#2691=AXIS2_PLACEMENT_3D($,#2692,#2693,#2694);
#2693=DIRECTION('',(1.0,0.0,0.0));
#2694=DIRECTION('',(0.0,-0.793,-0.609));
#2684=ORIENTED_EDGE('',*,*,#2685,.F.);
#2726=STYLED_ITEM($,(#34),#2727);
#2727=ADVANCED_FACE($,(#2733),#2728,.F.);
#2728=CYLINDRICAL_SURFACE($,#2729,0.168275);
#2729=AXIS2_PLACEMENT_3D($,#2730,#2731,#2732);
#2730=CARTESIAN_POINT('',(0.381,-2.19,0.337));
#2731=DIRECTION('',(1.0,0.0,0.0));
#2732=DIRECTION('',(0.,0.,-1.));
#2733=FACE_OUTER_BOUND($,#2734,.T.);
#2734=EDGE_LOOP($,(#2746,#2756,#2767,#2735));
#2746=ORIENTED_EDGE('',*,*,#2411,.T.);
#2757=EDGE_CURVE($,#2510,#2402,#2762,.T.);
#2762=CIRCLE($,#2763,0.168275);
#2763=AXIS2_PLACEMENT_3D($,#2692,#2765,#2766);
#2765=DIRECTION('',(-1.0,0.0,0.0));
#2766=DIRECTION('',(0.0,0.793,0.609));
#2756=ORIENTED_EDGE('',*,*,#2757,.F.);
#2767=ORIENTED_EDGE('',*,*,#2509,.T.);
#2736=EDGE_CURVE($,#2412,#2500,#2741,.T.);
#2741=CIRCLE($,#2742,0.168275);
#2742=AXIS2_PLACEMENT_3D($,#2713,#2744,#2745);
#2744=DIRECTION('',(1.0,0.0,0.0));
#2745=DIRECTION('',(0.0,-0.793,-0.609));
#2735=ORIENTED_EDGE('',*,*,#2736,.F.);
#2777=STYLED_ITEM($,(#34),#2778);
#2778=ADVANCED_FACE($,(#2784),#2779,.F.);
#2779=CYLINDRICAL_SURFACE($,#2780,0.168275);
#2780=AXIS2_PLACEMENT_3D($,#2781,#2782,#2783);
#2781=CARTESIAN_POINT('',(0.381,-2.712,0.337));
#2782=DIRECTION('',(1.0,0.0,0.0));
#2783=DIRECTION('',(0.,0.,1.));
#2784=FACE_OUTER_BOUND($,#2785,.T.);
#2785=EDGE_LOOP($,(#2797,#2807,#2818,#2786));
#2797=ORIENTED_EDGE('',*,*,#2558,.T.);
#2808=EDGE_CURVE($,#2441,#2549,#2813,.T.);
#2813=CIRCLE($,#2814,0.168275);
#2815=CARTESIAN_POINT('',(0.889,-2.712,0.337));
#2814=AXIS2_PLACEMENT_3D($,#2815,#2816,#2817);
#2816=DIRECTION('',(-1.0,0.0,0.0));
#2817=DIRECTION('',(0.0,-0.793,-0.609));
#2807=ORIENTED_EDGE('',*,*,#2808,.F.);
#2818=ORIENTED_EDGE('',*,*,#2440,.T.);
#2787=EDGE_CURVE($,#2559,#2443,#2792,.T.);
#2792=CIRCLE($,#2793,0.168275);
#2794=CARTESIAN_POINT('',(0.381,-2.712,0.337));
#2793=AXIS2_PLACEMENT_3D($,#2794,#2795,#2796);
#2795=DIRECTION('',(1.0,0.0,0.0));
#2796=DIRECTION('',(0.0,0.793,0.609));
#2786=ORIENTED_EDGE('',*,*,#2787,.F.);
#2828=STYLED_ITEM($,(#34),#2829);
#2829=ADVANCED_FACE($,(#2835),#2830,.T.);
#2830=CYLINDRICAL_SURFACE($,#2831,0.33655);
#2831=AXIS2_PLACEMENT_3D($,#2832,#2833,#2834);
#2832=CARTESIAN_POINT('',(0.381,-2.712,0.337));
#2833=DIRECTION('',(1.0,0.0,0.0));
#2834=DIRECTION('',(0.,0.,-1.));
#2835=FACE_OUTER_BOUND($,#2836,.T.);
#2836=EDGE_LOOP($,(#2848,#2858,#2869,#2837));
#2848=ORIENTED_EDGE('',*,*,#2587,.T.);
#2859=EDGE_CURVE($,#2490,#2590,#2864,.T.);
#2864=CIRCLE($,#2865,0.33655);
#2865=AXIS2_PLACEMENT_3D($,#2794,#2867,#2868);
#2867=DIRECTION('',(-1.0,0.0,0.0));
#2868=DIRECTION('',(0.0,-0.793,-0.609));
#2858=ORIENTED_EDGE('',*,*,#2859,.F.);
#2869=ORIENTED_EDGE('',*,*,#2489,.T.);
#2838=EDGE_CURVE($,#2588,#2492,#2843,.T.);
#2843=CIRCLE($,#2844,0.33655);
#2844=AXIS2_PLACEMENT_3D($,#2815,#2846,#2847);
#2846=DIRECTION('',(1.0,0.0,0.0));
#2847=DIRECTION('',(0.0,0.793,0.609));
#2837=ORIENTED_EDGE('',*,*,#2838,.F.);
#2879=STYLED_ITEM('color',(#34),#2880);
#2880=ADVANCED_FACE($,(#2886),#2881,.T.);
#2881=PLANE($,#2882);
#2882=AXIS2_PLACEMENT_3D($,#2883,#2884,#2885);
#2883=CARTESIAN_POINT('',(0.381,-2.045,0.505));
#2884=DIRECTION('',(-1.0,0.0,0.0));
#2885=DIRECTION('',(1.,0.,0.));
#2886=FACE_OUTER_BOUND($,#2887,.T.);
#2887=EDGE_LOOP($,(#2890, #2900, #2910, #2973, #2984, #2920, #2931, #2941, #2951, #2961, #2994, #3004));
#2890=ORIENTED_EDGE('',*,*,#2352,.T.);
#2900=ORIENTED_EDGE('',*,*,#2303,.T.);
#2910=ORIENTED_EDGE('',*,*,#2421,.T.);
#2973=ORIENTED_EDGE('',*,*,#2736,.T.);
#2984=ORIENTED_EDGE('',*,*,#2499,.T.);
#2920=ORIENTED_EDGE('',*,*,#2859,.T.);
#2931=ORIENTED_EDGE('',*,*,#2617,.T.);
#2941=ORIENTED_EDGE('',*,*,#2666,.T.);
#2951=ORIENTED_EDGE('',*,*,#2568,.T.);
#2961=ORIENTED_EDGE('',*,*,#2787,.T.);
#2994=ORIENTED_EDGE('',*,*,#2470,.T.);
#3004=ORIENTED_EDGE('',*,*,#2706,.T.);
#3015=STYLED_ITEM('color',(#34),#3016);
#3016=ADVANCED_FACE($,(#3022),#3017,.T.);
#3017=PLANE($,#3018);
#3018=AXIS2_PLACEMENT_3D($,#3019,#3020,#3021);
#3019=CARTESIAN_POINT('',(0.889,-2.712,0.168));
#3020=DIRECTION('',(1.0,0.0,0.0));
#3021=DIRECTION('',(1.,0.,0.));
#3022=FACE_OUTER_BOUND($,#3023,.T.);
#3023=EDGE_LOOP($,(#3026, #3036, #3046, #3109, #3120, #3056, #3067, #3077, #3087, #3097, #3130, #3140));
#3026=ORIENTED_EDGE('',*,*,#2401,.T.);
#3036=ORIENTED_EDGE('',*,*,#2323,.T.);
#3046=ORIENTED_EDGE('',*,*,#2372,.T.);
#3109=ORIENTED_EDGE('',*,*,#2685,.T.);
#3120=ORIENTED_EDGE('',*,*,#2450,.T.);
#3056=ORIENTED_EDGE('',*,*,#2808,.T.);
#3067=ORIENTED_EDGE('',*,*,#2548,.T.);
#3077=ORIENTED_EDGE('',*,*,#2646,.T.);
#3087=ORIENTED_EDGE('',*,*,#2597,.T.);
#3097=ORIENTED_EDGE('',*,*,#2838,.T.);
#3130=ORIENTED_EDGE('',*,*,#2519,.T.);
#3140=ORIENTED_EDGE('',*,*,#2757,.T.);
#3151=MANIFOLD_SOLID_BREP($,#3152);
#3152=CLOSED_SHELL('',(#3154,#3203,#3252,#3301,#3350,#3399,#3448,#3497,#3546,#3597,#3648,#3699,#3750,#3886));
#3153=STYLED_ITEM('',(#34),#3154);
#3154=ADVANCED_FACE('',(#3160),#3155,.T.);
#3155=PLANE('',#3156);
#3156=AXIS2_PLACEMENT_3D('',#3157,#3158,#3159);
#3157=CARTESIAN_POINT('',(2.159,-2.045,0.505));
#3158=DIRECTION('',(0.0,1.0,0.0));
#3159=DIRECTION('',(0.,0.,1.));
#3160=FACE_OUTER_BOUND('',#3161,.T.);
#3161=EDGE_LOOP('',(#3162,#3172,#3182,#3192));
#3165=CARTESIAN_POINT('',(1.651,-2.045,0.505));
#3164=VERTEX_POINT('',#3165);
#3167=CARTESIAN_POINT('',(2.159,-2.045,0.505));
#3166=VERTEX_POINT('',#3167);
#3163=EDGE_CURVE('',#3164,#3166,#3168,.T.);
#3168=LINE('',#3165,#3170);
#3170=VECTOR('',#3171,0.507999991608882);
#3171=DIRECTION('',(1.0,0.0,0.0));
#3162=ORIENTED_EDGE('',*,*,#3163,.F.);
#3175=CARTESIAN_POINT('',(1.651,-2.045,0.673));
#3174=VERTEX_POINT('',#3175);
#3173=EDGE_CURVE('',#3174,#3164,#3178,.T.);
#3178=LINE('',#3175,#3180);
#3180=VECTOR('',#3181,0.168275);
#3181=DIRECTION('',(0.0,0.0,-1.0));
#3172=ORIENTED_EDGE('',*,*,#3173,.F.);
#3185=CARTESIAN_POINT('',(2.159,-2.045,0.673));
#3184=VERTEX_POINT('',#3185);
#3183=EDGE_CURVE('',#3184,#3174,#3188,.T.);
#3188=LINE('',#3185,#3190);
#3190=VECTOR('',#3191,0.507999991608882);
#3191=DIRECTION('',(-1.0,0.0,0.0));
#3182=ORIENTED_EDGE('',*,*,#3183,.F.);
#3193=EDGE_CURVE('',#3166,#3184,#3198,.T.);
#3198=LINE('',#3167,#3200);
#3200=VECTOR('',#3201,0.168275);
#3201=DIRECTION('',(0.0,0.0,1.0));
#3192=ORIENTED_EDGE('',*,*,#3193,.F.);
#3202=STYLED_ITEM('',(#34),#3203);
#3203=ADVANCED_FACE('',(#3209),#3204,.T.);
#3204=PLANE('',#3205);
#3205=AXIS2_PLACEMENT_3D('',#3206,#3207,#3208);
#3206=CARTESIAN_POINT('',(2.159,-2.045,0.673));
#3207=DIRECTION('',(0.0,0.0,1.0));
#3208=DIRECTION('',(0.,1.,0.));
#3209=FACE_OUTER_BOUND('',#3210,.T.);
#3210=EDGE_LOOP('',(#3211,#3221,#3231,#3241));
#3211=ORIENTED_EDGE('',*,*,#3183,.T.);
#3224=CARTESIAN_POINT('',(1.651,-2.19,0.673));
#3223=VERTEX_POINT('',#3224);
#3222=EDGE_CURVE('',#3223,#3174,#3227,.T.);
#3227=LINE('',#3224,#3229);
#3229=VECTOR('',#3230,0.145083565178712);
#3230=DIRECTION('',(0.0,1.0,0.0));
#3221=ORIENTED_EDGE('',*,*,#3222,.F.);
#3234=CARTESIAN_POINT('',(2.159,-2.19,0.673));
#3233=VERTEX_POINT('',#3234);
#3232=EDGE_CURVE('',#3233,#3223,#3237,.T.);
#3237=LINE('',#3234,#3239);
#3239=VECTOR('',#3240,0.507999991727213);
#3240=DIRECTION('',(-1.0,0.0,0.0));
#3231=ORIENTED_EDGE('',*,*,#3232,.F.);
#3242=EDGE_CURVE('',#3184,#3233,#3247,.T.);
#3247=LINE('',#3185,#3249);
#3249=VECTOR('',#3250,0.145083565178712);
#3250=DIRECTION('',(0.0,-1.0,0.0));
#3241=ORIENTED_EDGE('',*,*,#3242,.F.);
#3251=STYLED_ITEM('',(#34),#3252);
#3252=ADVANCED_FACE('',(#3258),#3253,.T.);
#3253=PLANE('',#3254);
#3254=AXIS2_PLACEMENT_3D('',#3255,#3256,#3257);
#3255=CARTESIAN_POINT('',(1.651,-2.045,0.505));
#3256=DIRECTION('',(0.0,0.0,-1.0));
#3257=DIRECTION('',(0.,1.,0.));
#3258=FACE_OUTER_BOUND('',#3259,.T.);
#3259=EDGE_LOOP('',(#3260,#3270,#3280,#3290));
#3260=ORIENTED_EDGE('',*,*,#3163,.T.);
#3273=CARTESIAN_POINT('',(2.159,-2.19,0.505));
#3272=VERTEX_POINT('',#3273);
#3271=EDGE_CURVE('',#3272,#3166,#3276,.T.);
#3276=LINE('',#3273,#3278);
#3278=VECTOR('',#3279,0.145083565178712);
#3279=DIRECTION('',(0.0,1.0,0.0));
#3270=ORIENTED_EDGE('',*,*,#3271,.F.);
#3283=CARTESIAN_POINT('',(1.651,-2.19,0.505));
#3282=VERTEX_POINT('',#3283);
#3281=EDGE_CURVE('',#3282,#3272,#3286,.T.);
#3286=LINE('',#3283,#3288);
#3288=VECTOR('',#3289,0.507999991727213);
#3289=DIRECTION('',(1.0,0.0,0.0));
#3280=ORIENTED_EDGE('',*,*,#3281,.F.);
#3291=EDGE_CURVE('',#3164,#3282,#3296,.T.);
#3296=LINE('',#3165,#3298);
#3298=VECTOR('',#3299,0.145083565178712);
#3299=DIRECTION('',(0.0,-1.0,0.0));
#3290=ORIENTED_EDGE('',*,*,#3291,.F.);
#3300=STYLED_ITEM('',(#34),#3301);
#3301=ADVANCED_FACE('',(#3307),#3302,.T.);
#3302=PLANE('',#3303);
#3303=AXIS2_PLACEMENT_3D('',#3304,#3305,#3306);
#3304=CARTESIAN_POINT('',(1.651,-2.55,0.293));
#3305=DIRECTION('',(0.0,-0.966,0.259));
#3306=DIRECTION('',(0.,0.,1.));
#3307=FACE_OUTER_BOUND('',#3308,.T.);
#3308=EDGE_LOOP('',(#3309,#3319,#3329,#3339));
#3312=CARTESIAN_POINT('',(2.159,-2.55,0.293));
#3311=VERTEX_POINT('',#3312);
#3314=CARTESIAN_POINT('',(1.651,-2.55,0.293));
#3313=VERTEX_POINT('',#3314);
#3310=EDGE_CURVE('',#3311,#3313,#3315,.T.);
#3315=LINE('',#3312,#3317);
#3317=VECTOR('',#3318,0.507999992763007);
#3318=DIRECTION('',(-1.0,0.0,0.0));
#3309=ORIENTED_EDGE('',*,*,#3310,.F.);
#3322=CARTESIAN_POINT('',(2.159,-2.515,0.424));
#3321=VERTEX_POINT('',#3322);
#3320=EDGE_CURVE('',#3321,#3311,#3325,.T.);
#3325=LINE('',#3322,#3327);
#3327=VECTOR('',#3328,0.135265794794851);
#3328=DIRECTION('',(0.0,-0.259,-0.966));
#3319=ORIENTED_EDGE('',*,*,#3320,.F.);
#3332=CARTESIAN_POINT('',(1.651,-2.515,0.424));
#3331=VERTEX_POINT('',#3332);
#3330=EDGE_CURVE('',#3331,#3321,#3335,.T.);
#3335=LINE('',#3332,#3337);
#3337=VECTOR('',#3338,0.507999992550019);
#3338=DIRECTION('',(1.0,0.0,0.0));
#3329=ORIENTED_EDGE('',*,*,#3330,.F.);
#3340=EDGE_CURVE('',#3313,#3331,#3345,.T.);
#3345=LINE('',#3314,#3347);
#3347=VECTOR('',#3348,0.135265794794851);
#3348=DIRECTION('',(0.0,0.259,0.966));
#3339=ORIENTED_EDGE('',*,*,#3340,.F.);
#3349=STYLED_ITEM('',(#34),#3350);
#3350=ADVANCED_FACE('',(#3356),#3351,.T.);
#3351=PLANE('',#3352);
#3352=AXIS2_PLACEMENT_3D('',#3353,#3354,#3355);
#3353=CARTESIAN_POINT('',(2.159,-2.387,0.249));
#3354=DIRECTION('',(0.0,0.966,-0.259));
#3355=DIRECTION('',(0.,0.,1.));
#3356=FACE_OUTER_BOUND('',#3357,.T.);
#3357=EDGE_LOOP('',(#3358,#3368,#3378,#3388));
#3361=CARTESIAN_POINT('',(1.651,-2.387,0.249));
#3360=VERTEX_POINT('',#3361);
#3363=CARTESIAN_POINT('',(2.159,-2.387,0.249));
#3362=VERTEX_POINT('',#3363);
#3359=EDGE_CURVE('',#3360,#3362,#3364,.T.);
#3364=LINE('',#3361,#3366);
#3366=VECTOR('',#3367,0.507999992062364);
#3367=DIRECTION('',(1.0,0.0,0.0));
#3358=ORIENTED_EDGE('',*,*,#3359,.F.);
#3371=CARTESIAN_POINT('',(1.651,-2.352,0.38));
#3370=VERTEX_POINT('',#3371);
#3369=EDGE_CURVE('',#3370,#3360,#3374,.T.);
#3374=LINE('',#3371,#3376);
#3376=VECTOR('',#3377,0.135265794820453);
#3377=DIRECTION('',(0.0,-0.259,-0.966));
#3368=ORIENTED_EDGE('',*,*,#3369,.F.);
#3381=CARTESIAN_POINT('',(2.159,-2.352,0.38));
#3380=VERTEX_POINT('',#3381);
#3379=EDGE_CURVE('',#3380,#3370,#3384,.T.);
#3384=LINE('',#3381,#3386);
#3386=VECTOR('',#3387,0.507999991978118);
#3387=DIRECTION('',(-1.0,0.0,0.0));
#3378=ORIENTED_EDGE('',*,*,#3379,.F.);
#3389=EDGE_CURVE('',#3362,#3380,#3394,.T.);
#3394=LINE('',#3363,#3396);
#3396=VECTOR('',#3397,0.135265794820453);
#3397=DIRECTION('',(0.0,0.259,0.966));
#3388=ORIENTED_EDGE('',*,*,#3389,.F.);
#3398=STYLED_ITEM('',(#34),#3399);
#3399=ADVANCED_FACE('',(#3405),#3400,.T.);
#3400=PLANE('',#3401);
#3401=AXIS2_PLACEMENT_3D('',#3402,#3403,#3404);
#3402=CARTESIAN_POINT('',(1.651,-2.857,0.168));
#3403=DIRECTION('',(0.0,0.0,1.0));
#3404=DIRECTION('',(0.,1.,0.));
#3405=FACE_OUTER_BOUND('',#3406,.T.);
#3406=EDGE_LOOP('',(#3407,#3417,#3427,#3437));
#3410=CARTESIAN_POINT('',(2.159,-2.858,0.168));
#3409=VERTEX_POINT('',#3410);
#3412=CARTESIAN_POINT('',(1.651,-2.857,0.168));
#3411=VERTEX_POINT('',#3412);
#3408=EDGE_CURVE('',#3409,#3411,#3413,.T.);
#3413=LINE('',#3410,#3415);
#3415=VECTOR('',#3416,0.508);
#3416=DIRECTION('',(-1.0,0.0,0.0));
#3407=ORIENTED_EDGE('',*,*,#3408,.F.);
#3420=CARTESIAN_POINT('',(2.159,-2.712,0.168));
#3419=VERTEX_POINT('',#3420);
#3418=EDGE_CURVE('',#3419,#3409,#3423,.T.);
#3423=LINE('',#3420,#3425);
#3425=VECTOR('',#3426,0.145083563188273);
#3426=DIRECTION('',(0.0,-1.0,0.0));
#3417=ORIENTED_EDGE('',*,*,#3418,.F.);
#3430=CARTESIAN_POINT('',(1.651,-2.712,0.168));
#3429=VERTEX_POINT('',#3430);
#3428=EDGE_CURVE('',#3429,#3419,#3433,.T.);
#3433=LINE('',#3430,#3435);
#3435=VECTOR('',#3436,0.507999994798595);
#3436=DIRECTION('',(1.0,0.0,0.0));
#3427=ORIENTED_EDGE('',*,*,#3428,.F.);
#3438=EDGE_CURVE('',#3411,#3429,#3443,.T.);
#3443=LINE('',#3412,#3445);
#3445=VECTOR('',#3446,0.145083563188273);
#3446=DIRECTION('',(0.0,1.0,0.0));
#3437=ORIENTED_EDGE('',*,*,#3438,.F.);
#3447=STYLED_ITEM('',(#34),#3448);
#3448=ADVANCED_FACE('',(#3454),#3449,.T.);
#3449=PLANE('',#3450);
#3450=AXIS2_PLACEMENT_3D('',#3451,#3452,#3453);
#3451=CARTESIAN_POINT('',(1.651,-2.712,0.0));
#3452=DIRECTION('',(0.0,0.0,-1.0));
#3453=DIRECTION('',(0.,1.,0.));
#3454=FACE_OUTER_BOUND('',#3455,.T.);
#3455=EDGE_LOOP('',(#3456,#3466,#3476,#3486));
#3459=CARTESIAN_POINT('',(2.159,-2.712,0.0));
#3458=VERTEX_POINT('',#3459);
#3461=CARTESIAN_POINT('',(1.651,-2.712,0.0));
#3460=VERTEX_POINT('',#3461);
#3457=EDGE_CURVE('',#3458,#3460,#3462,.T.);
#3462=LINE('',#3459,#3464);
#3464=VECTOR('',#3465,0.507999994798595);
#3465=DIRECTION('',(-1.0,0.0,0.0));
#3456=ORIENTED_EDGE('',*,*,#3457,.F.);
#3469=CARTESIAN_POINT('',(2.159,-2.858,0.0));
#3468=VERTEX_POINT('',#3469);
#3467=EDGE_CURVE('',#3468,#3458,#3472,.T.);
#3472=LINE('',#3469,#3474);
#3474=VECTOR('',#3475,0.145083563188273);
#3475=DIRECTION('',(0.0,1.0,0.0));
#3466=ORIENTED_EDGE('',*,*,#3467,.F.);
#3479=CARTESIAN_POINT('',(1.651,-2.857,0.0));
#3478=VERTEX_POINT('',#3479);
#3477=EDGE_CURVE('',#3478,#3468,#3482,.T.);
#3482=LINE('',#3479,#3484);
#3484=VECTOR('',#3485,0.508);
#3485=DIRECTION('',(1.0,0.0,0.0));
#3476=ORIENTED_EDGE('',*,*,#3477,.F.);
#3487=EDGE_CURVE('',#3460,#3478,#3492,.T.);
#3492=LINE('',#3461,#3494);
#3494=VECTOR('',#3495,0.145083563188273);
#3495=DIRECTION('',(0.0,-1.0,0.0));
#3486=ORIENTED_EDGE('',*,*,#3487,.F.);
#3496=STYLED_ITEM('',(#34),#3497);
#3497=ADVANCED_FACE('',(#3503),#3498,.T.);
#3498=PLANE('',#3499);
#3499=AXIS2_PLACEMENT_3D('',#3500,#3501,#3502);
#3500=CARTESIAN_POINT('',(1.651,-2.857,0.0));
#3501=DIRECTION('',(0.0,-1.0,0.0));
#3502=DIRECTION('',(0.,0.,1.));
#3503=FACE_OUTER_BOUND('',#3504,.T.);
#3504=EDGE_LOOP('',(#3505,#3515,#3525,#3535));
#3505=ORIENTED_EDGE('',*,*,#3477,.T.);
#3516=EDGE_CURVE('',#3409,#3468,#3521,.T.);
#3521=LINE('',#3410,#3523);
#3523=VECTOR('',#3524,0.168275);
#3524=DIRECTION('',(0.0,0.0,-1.0));
#3515=ORIENTED_EDGE('',*,*,#3516,.F.);
#3525=ORIENTED_EDGE('',*,*,#3408,.T.);
#3536=EDGE_CURVE('',#3478,#3411,#3541,.T.);
#3541=LINE('',#3479,#3543);
#3543=VECTOR('',#3544,0.168275);
#3544=DIRECTION('',(0.0,0.0,1.0));
#3535=ORIENTED_EDGE('',*,*,#3536,.F.);
#3545=STYLED_ITEM($,(#34),#3546);
#3546=ADVANCED_FACE($,(#3552),#3547,.T.);
#3547=CYLINDRICAL_SURFACE($,#3548,0.33655);
#3548=AXIS2_PLACEMENT_3D($,#3549,#3550,#3551);
#3549=CARTESIAN_POINT('',(2.159,-2.19,0.337));
#3550=DIRECTION('',(1.0,0.0,0.0));
#3551=DIRECTION('',(0.,0.,1.));
#3552=FACE_OUTER_BOUND($,#3553,.T.);
#3553=EDGE_LOOP($,(#3565,#3575,#3586,#3554));
#3565=ORIENTED_EDGE('',*,*,#3232,.T.);
#3576=EDGE_CURVE($,#3331,#3223,#3581,.T.);
#3581=CIRCLE($,#3582,0.33655);
#3583=CARTESIAN_POINT('',(1.651,-2.19,0.337));
#3582=AXIS2_PLACEMENT_3D($,#3583,#3584,#3585);
#3584=DIRECTION('',(-1.0,0.0,0.0));
#3585=DIRECTION('',(0.0,0.793,0.609));
#3575=ORIENTED_EDGE('',*,*,#3576,.F.);
#3586=ORIENTED_EDGE('',*,*,#3330,.T.);
#3555=EDGE_CURVE($,#3233,#3321,#3560,.T.);
#3560=CIRCLE($,#3561,0.33655);
#3562=CARTESIAN_POINT('',(2.159,-2.19,0.337));
#3561=AXIS2_PLACEMENT_3D($,#3562,#3563,#3564);
#3563=DIRECTION('',(1.0,0.0,0.0));
#3564=DIRECTION('',(0.0,-0.793,-0.609));
#3554=ORIENTED_EDGE('',*,*,#3555,.F.);
#3596=STYLED_ITEM($,(#34),#3597);
#3597=ADVANCED_FACE($,(#3603),#3598,.F.);
#3598=CYLINDRICAL_SURFACE($,#3599,0.168275);
#3599=AXIS2_PLACEMENT_3D($,#3600,#3601,#3602);
#3600=CARTESIAN_POINT('',(1.651,-2.19,0.337));
#3601=DIRECTION('',(1.0,0.0,0.0));
#3602=DIRECTION('',(0.,0.,-1.));
#3603=FACE_OUTER_BOUND($,#3604,.T.);
#3604=EDGE_LOOP($,(#3616,#3626,#3637,#3605));
#3616=ORIENTED_EDGE('',*,*,#3281,.T.);
#3627=EDGE_CURVE($,#3380,#3272,#3632,.T.);
#3632=CIRCLE($,#3633,0.168275);
#3633=AXIS2_PLACEMENT_3D($,#3562,#3635,#3636);
#3635=DIRECTION('',(-1.0,0.0,0.0));
#3636=DIRECTION('',(0.0,0.793,0.609));
#3626=ORIENTED_EDGE('',*,*,#3627,.F.);
#3637=ORIENTED_EDGE('',*,*,#3379,.T.);
#3606=EDGE_CURVE($,#3282,#3370,#3611,.T.);
#3611=CIRCLE($,#3612,0.168275);
#3612=AXIS2_PLACEMENT_3D($,#3583,#3614,#3615);
#3614=DIRECTION('',(1.0,0.0,0.0));
#3615=DIRECTION('',(0.0,-0.793,-0.609));
#3605=ORIENTED_EDGE('',*,*,#3606,.F.);
#3647=STYLED_ITEM($,(#34),#3648);
#3648=ADVANCED_FACE($,(#3654),#3649,.F.);
#3649=CYLINDRICAL_SURFACE($,#3650,0.168275);
#3650=AXIS2_PLACEMENT_3D($,#3651,#3652,#3653);
#3651=CARTESIAN_POINT('',(1.651,-2.712,0.337));
#3652=DIRECTION('',(1.0,0.0,0.0));
#3653=DIRECTION('',(0.,0.,1.));
#3654=FACE_OUTER_BOUND($,#3655,.T.);
#3655=EDGE_LOOP($,(#3667,#3677,#3688,#3656));
#3667=ORIENTED_EDGE('',*,*,#3428,.T.);
#3678=EDGE_CURVE($,#3311,#3419,#3683,.T.);
#3683=CIRCLE($,#3684,0.168275);
#3685=CARTESIAN_POINT('',(2.159,-2.712,0.337));
#3684=AXIS2_PLACEMENT_3D($,#3685,#3686,#3687);
#3686=DIRECTION('',(-1.0,0.0,0.0));
#3687=DIRECTION('',(0.0,-0.793,-0.609));
#3677=ORIENTED_EDGE('',*,*,#3678,.F.);
#3688=ORIENTED_EDGE('',*,*,#3310,.T.);
#3657=EDGE_CURVE($,#3429,#3313,#3662,.T.);
#3662=CIRCLE($,#3663,0.168275);
#3664=CARTESIAN_POINT('',(1.651,-2.712,0.337));
#3663=AXIS2_PLACEMENT_3D($,#3664,#3665,#3666);
#3665=DIRECTION('',(1.0,0.0,0.0));
#3666=DIRECTION('',(0.0,0.793,0.609));
#3656=ORIENTED_EDGE('',*,*,#3657,.F.);
#3698=STYLED_ITEM($,(#34),#3699);
#3699=ADVANCED_FACE($,(#3705),#3700,.T.);
#3700=CYLINDRICAL_SURFACE($,#3701,0.33655);
#3701=AXIS2_PLACEMENT_3D($,#3702,#3703,#3704);
#3702=CARTESIAN_POINT('',(1.651,-2.712,0.337));
#3703=DIRECTION('',(1.0,0.0,0.0));
#3704=DIRECTION('',(0.,0.,-1.));
#3705=FACE_OUTER_BOUND($,#3706,.T.);
#3706=EDGE_LOOP($,(#3718,#3728,#3739,#3707));
#3718=ORIENTED_EDGE('',*,*,#3457,.T.);
#3729=EDGE_CURVE($,#3360,#3460,#3734,.T.);
#3734=CIRCLE($,#3735,0.33655);
#3735=AXIS2_PLACEMENT_3D($,#3664,#3737,#3738);
#3737=DIRECTION('',(-1.0,0.0,0.0));
#3738=DIRECTION('',(0.0,-0.793,-0.609));
#3728=ORIENTED_EDGE('',*,*,#3729,.F.);
#3739=ORIENTED_EDGE('',*,*,#3359,.T.);
#3708=EDGE_CURVE($,#3458,#3362,#3713,.T.);
#3713=CIRCLE($,#3714,0.33655);
#3714=AXIS2_PLACEMENT_3D($,#3685,#3716,#3717);
#3716=DIRECTION('',(1.0,0.0,0.0));
#3717=DIRECTION('',(0.0,0.793,0.609));
#3707=ORIENTED_EDGE('',*,*,#3708,.F.);
#3749=STYLED_ITEM('color',(#34),#3750);
#3750=ADVANCED_FACE($,(#3756),#3751,.T.);
#3751=PLANE($,#3752);
#3752=AXIS2_PLACEMENT_3D($,#3753,#3754,#3755);
#3753=CARTESIAN_POINT('',(1.651,-2.045,0.505));
#3754=DIRECTION('',(-1.0,0.0,0.0));
#3755=DIRECTION('',(1.,0.,0.));
#3756=FACE_OUTER_BOUND($,#3757,.T.);
#3757=EDGE_LOOP($,(#3760, #3770, #3780, #3843, #3854, #3790, #3801, #3811, #3821, #3831, #3864, #3874));
#3760=ORIENTED_EDGE('',*,*,#3222,.T.);
#3770=ORIENTED_EDGE('',*,*,#3173,.T.);
#3780=ORIENTED_EDGE('',*,*,#3291,.T.);
#3843=ORIENTED_EDGE('',*,*,#3606,.T.);
#3854=ORIENTED_EDGE('',*,*,#3369,.T.);
#3790=ORIENTED_EDGE('',*,*,#3729,.T.);
#3801=ORIENTED_EDGE('',*,*,#3487,.T.);
#3811=ORIENTED_EDGE('',*,*,#3536,.T.);
#3821=ORIENTED_EDGE('',*,*,#3438,.T.);
#3831=ORIENTED_EDGE('',*,*,#3657,.T.);
#3864=ORIENTED_EDGE('',*,*,#3340,.T.);
#3874=ORIENTED_EDGE('',*,*,#3576,.T.);
#3885=STYLED_ITEM('color',(#34),#3886);
#3886=ADVANCED_FACE($,(#3892),#3887,.T.);
#3887=PLANE($,#3888);
#3888=AXIS2_PLACEMENT_3D($,#3889,#3890,#3891);
#3889=CARTESIAN_POINT('',(2.159,-2.712,0.168));
#3890=DIRECTION('',(1.0,0.0,0.0));
#3891=DIRECTION('',(1.,0.,0.));
#3892=FACE_OUTER_BOUND($,#3893,.T.);
#3893=EDGE_LOOP($,(#3896, #3906, #3916, #3979, #3990, #3926, #3937, #3947, #3957, #3967, #4000, #4010));
#3896=ORIENTED_EDGE('',*,*,#3271,.T.);
#3906=ORIENTED_EDGE('',*,*,#3193,.T.);
#3916=ORIENTED_EDGE('',*,*,#3242,.T.);
#3979=ORIENTED_EDGE('',*,*,#3555,.T.);
#3990=ORIENTED_EDGE('',*,*,#3320,.T.);
#3926=ORIENTED_EDGE('',*,*,#3678,.T.);
#3937=ORIENTED_EDGE('',*,*,#3418,.T.);
#3947=ORIENTED_EDGE('',*,*,#3516,.T.);
#3957=ORIENTED_EDGE('',*,*,#3467,.T.);
#3967=ORIENTED_EDGE('',*,*,#3708,.T.);
#4000=ORIENTED_EDGE('',*,*,#3389,.T.);
#4010=ORIENTED_EDGE('',*,*,#3627,.T.);
#4022=MANIFOLD_SOLID_BREP($,#4023);
#4023=CLOSED_SHELL('',(#4025,#4074,#4123,#4172,#4221,#4270,#4319,#4368,#4417,#4466,#4515,#4564,#4613,#4682,#4771,#4920));
#4024=STYLED_ITEM('',(#61),#4025);
#4025=ADVANCED_FACE('',(#4031),#4026,.T.);
#4026=PLANE('',#4027);
#4027=AXIS2_PLACEMENT_3D('',#4028,#4029,#4030);
#4028=CARTESIAN_POINT('',(-1.878,-0.749,-0.051));
#4029=DIRECTION('',(0.0,-1.0,0.0));
#4030=DIRECTION('',(0.,0.,1.));
#4031=FACE_OUTER_BOUND('',#4032,.T.);
#4032=EDGE_LOOP('',(#4033,#4043,#4053,#4063));
#4036=CARTESIAN_POINT('',(1.878,-0.749,-0.051));
#4035=VERTEX_POINT('',#4036);
#4038=CARTESIAN_POINT('',(-1.878,-0.749,-0.051));
#4037=VERTEX_POINT('',#4038);
#4034=EDGE_CURVE('',#4035,#4037,#4039,.T.);
#4039=LINE('',#4036,#4041);
#4041=VECTOR('',#4042,3.75666);
#4042=DIRECTION('',(-1.0,0.0,0.0));
#4033=ORIENTED_EDGE('',*,*,#4034,.F.);
#4046=CARTESIAN_POINT('',(1.878,-0.749,0.0));
#4045=VERTEX_POINT('',#4046);
#4044=EDGE_CURVE('',#4045,#4035,#4049,.T.);
#4049=LINE('',#4046,#4051);
#4051=VECTOR('',#4052,0.0508);
#4052=DIRECTION('',(0.0,0.0,-1.0));
#4043=ORIENTED_EDGE('',*,*,#4044,.F.);
#4056=CARTESIAN_POINT('',(-1.878,-0.749,0.0));
#4055=VERTEX_POINT('',#4056);
#4054=EDGE_CURVE('',#4055,#4045,#4059,.T.);
#4059=LINE('',#4056,#4061);
#4061=VECTOR('',#4062,3.75666);
#4062=DIRECTION('',(1.0,0.0,0.0));
#4053=ORIENTED_EDGE('',*,*,#4054,.F.);
#4064=EDGE_CURVE('',#4037,#4055,#4069,.T.);
#4069=LINE('',#4038,#4071);
#4071=VECTOR('',#4072,0.0508);
#4072=DIRECTION('',(0.0,0.0,1.0));
#4063=ORIENTED_EDGE('',*,*,#4064,.F.);
#4073=STYLED_ITEM('',(#61),#4074);
#4074=ADVANCED_FACE('',(#4080),#4075,.T.);
#4075=PLANE('',#4076);
#4076=AXIS2_PLACEMENT_3D('',#4077,#4078,#4079);
#4077=CARTESIAN_POINT('',(1.878,-0.749,-0.051));
#4078=DIRECTION('',(1.0,0.0,0.0));
#4079=DIRECTION('',(0.,0.,1.));
#4080=FACE_OUTER_BOUND('',#4081,.T.);
#4081=EDGE_LOOP('',(#4082,#4092,#4102,#4112));
#4085=CARTESIAN_POINT('',(1.878,1.905,-0.051));
#4084=VERTEX_POINT('',#4085);
#4083=EDGE_CURVE('',#4084,#4035,#4088,.T.);
#4088=LINE('',#4085,#4090);
#4090=VECTOR('',#4091,2.6543);
#4091=DIRECTION('',(0.0,-1.0,0.0));
#4082=ORIENTED_EDGE('',*,*,#4083,.F.);
#4095=CARTESIAN_POINT('',(1.878,1.905,0.0));
#4094=VERTEX_POINT('',#4095);
#4093=EDGE_CURVE('',#4094,#4084,#4098,.T.);
#4098=LINE('',#4095,#4100);
#4100=VECTOR('',#4101,0.0508);
#4101=DIRECTION('',(0.0,0.0,-1.0));
#4092=ORIENTED_EDGE('',*,*,#4093,.F.);
#4103=EDGE_CURVE('',#4045,#4094,#4108,.T.);
#4108=LINE('',#4046,#4110);
#4110=VECTOR('',#4111,2.6543);
#4111=DIRECTION('',(0.0,1.0,0.0));
#4102=ORIENTED_EDGE('',*,*,#4103,.F.);
#4112=ORIENTED_EDGE('',*,*,#4044,.T.);
#4122=STYLED_ITEM('',(#61),#4123);
#4123=ADVANCED_FACE('',(#4129),#4124,.T.);
#4124=PLANE('',#4125);
#4125=AXIS2_PLACEMENT_3D('',#4126,#4127,#4128);
#4126=CARTESIAN_POINT('',(1.878,1.905,-0.051));
#4127=DIRECTION('',(0.0,1.0,0.0));
#4128=DIRECTION('',(0.,0.,1.));
#4129=FACE_OUTER_BOUND('',#4130,.T.);
#4130=EDGE_LOOP('',(#4131,#4141,#4151,#4161));
#4134=CARTESIAN_POINT('',(1.657,1.905,-0.051));
#4133=VERTEX_POINT('',#4134);
#4132=EDGE_CURVE('',#4133,#4084,#4137,.T.);
#4137=LINE('',#4134,#4139);
#4139=VECTOR('',#4140,0.22098);
#4140=DIRECTION('',(1.0,0.0,0.0));
#4131=ORIENTED_EDGE('',*,*,#4132,.F.);
#4144=CARTESIAN_POINT('',(1.657,1.905,0.0));
#4143=VERTEX_POINT('',#4144);
#4142=EDGE_CURVE('',#4143,#4133,#4147,.T.);
#4147=LINE('',#4144,#4149);
#4149=VECTOR('',#4150,0.0508);
#4150=DIRECTION('',(0.0,0.0,-1.0));
#4141=ORIENTED_EDGE('',*,*,#4142,.F.);
#4152=EDGE_CURVE('',#4094,#4143,#4157,.T.);
#4157=LINE('',#4095,#4159);
#4159=VECTOR('',#4160,0.22098);
#4160=DIRECTION('',(-1.0,0.0,0.0));
#4151=ORIENTED_EDGE('',*,*,#4152,.F.);
#4161=ORIENTED_EDGE('',*,*,#4093,.T.);
#4171=STYLED_ITEM('',(#61),#4172);
#4172=ADVANCED_FACE('',(#4178),#4173,.T.);
#4173=PLANE('',#4174);
#4174=AXIS2_PLACEMENT_3D('',#4175,#4176,#4177);
#4175=CARTESIAN_POINT('',(1.657,1.905,-0.051));
#4176=DIRECTION('',(1.0,0.0,0.0));
#4177=DIRECTION('',(0.,0.,1.));
#4178=FACE_OUTER_BOUND('',#4179,.T.);
#4179=EDGE_LOOP('',(#4180,#4190,#4200,#4210));
#4183=CARTESIAN_POINT('',(1.657,2.045,-0.051));
#4182=VERTEX_POINT('',#4183);
#4181=EDGE_CURVE('',#4182,#4133,#4186,.T.);
#4186=LINE('',#4183,#4188);
#4188=VECTOR('',#4189,0.1397);
#4189=DIRECTION('',(0.0,-1.0,0.0));
#4180=ORIENTED_EDGE('',*,*,#4181,.F.);
#4193=CARTESIAN_POINT('',(1.657,2.045,0.0));
#4192=VERTEX_POINT('',#4193);
#4191=EDGE_CURVE('',#4192,#4182,#4196,.T.);
#4196=LINE('',#4193,#4198);
#4198=VECTOR('',#4199,0.0508);
#4199=DIRECTION('',(0.0,0.0,-1.0));
#4190=ORIENTED_EDGE('',*,*,#4191,.F.);
#4201=EDGE_CURVE('',#4143,#4192,#4206,.T.);
#4206=LINE('',#4144,#4208);
#4208=VECTOR('',#4209,0.1397);
#4209=DIRECTION('',(0.0,1.0,0.0));
#4200=ORIENTED_EDGE('',*,*,#4201,.F.);
#4210=ORIENTED_EDGE('',*,*,#4142,.T.);
#4220=STYLED_ITEM('',(#61),#4221);
#4221=ADVANCED_FACE('',(#4227),#4222,.T.);
#4222=PLANE('',#4223);
#4223=AXIS2_PLACEMENT_3D('',#4224,#4225,#4226);
#4224=CARTESIAN_POINT('',(2.21,2.045,-0.051));
#4225=DIRECTION('',(1.0,0.0,0.0));
#4226=DIRECTION('',(0.,0.,1.));
#4227=FACE_OUTER_BOUND('',#4228,.T.);
#4228=EDGE_LOOP('',(#4229,#4239,#4249,#4259));
#4232=CARTESIAN_POINT('',(2.21,2.692,-0.051));
#4231=VERTEX_POINT('',#4232);
#4234=CARTESIAN_POINT('',(2.21,2.045,-0.051));
#4233=VERTEX_POINT('',#4234);
#4230=EDGE_CURVE('',#4231,#4233,#4235,.T.);
#4235=LINE('',#4232,#4237);
#4237=VECTOR('',#4238,0.6477);
#4238=DIRECTION('',(0.0,-1.0,0.0));
#4229=ORIENTED_EDGE('',*,*,#4230,.F.);
#4242=CARTESIAN_POINT('',(2.21,2.692,0.203));
#4241=VERTEX_POINT('',#4242);
#4240=EDGE_CURVE('',#4241,#4231,#4245,.T.);
#4245=LINE('',#4242,#4247);
#4247=VECTOR('',#4248,0.254);
#4248=DIRECTION('',(0.0,0.0,-1.0));
#4239=ORIENTED_EDGE('',*,*,#4240,.F.);
#4252=CARTESIAN_POINT('',(2.21,2.045,0.203));
#4251=VERTEX_POINT('',#4252);
#4250=EDGE_CURVE('',#4251,#4241,#4255,.T.);
#4255=LINE('',#4252,#4257);
#4257=VECTOR('',#4258,0.6477);
#4258=DIRECTION('',(0.0,1.0,0.0));
#4249=ORIENTED_EDGE('',*,*,#4250,.F.);
#4260=EDGE_CURVE('',#4233,#4251,#4265,.T.);
#4265=LINE('',#4234,#4267);
#4267=VECTOR('',#4268,0.254);
#4268=DIRECTION('',(0.0,0.0,1.0));
#4259=ORIENTED_EDGE('',*,*,#4260,.F.);
#4269=STYLED_ITEM('',(#61),#4270);
#4270=ADVANCED_FACE('',(#4276),#4271,.T.);
#4271=PLANE('',#4272);
#4272=AXIS2_PLACEMENT_3D('',#4273,#4274,#4275);
#4273=CARTESIAN_POINT('',(2.21,2.692,-0.051));
#4274=DIRECTION('',(0.761,0.649,0.0));
#4275=DIRECTION('',(0.,0.,1.));
#4276=FACE_OUTER_BOUND('',#4277,.T.);
#4277=EDGE_LOOP('',(#4278,#4288,#4298,#4308));
#4281=CARTESIAN_POINT('',(1.657,3.34,-0.051));
#4280=VERTEX_POINT('',#4281);
#4279=EDGE_CURVE('',#4280,#4231,#4284,.T.);
#4284=LINE('',#4281,#4286);
#4286=VECTOR('',#4287,0.851302703214315);
#4287=DIRECTION('',(0.649,-0.761,0.0));
#4278=ORIENTED_EDGE('',*,*,#4279,.F.);
#4291=CARTESIAN_POINT('',(1.657,3.34,0.203));
#4290=VERTEX_POINT('',#4291);
#4289=EDGE_CURVE('',#4290,#4280,#4294,.T.);
#4294=LINE('',#4291,#4296);
#4296=VECTOR('',#4297,0.254);
#4297=DIRECTION('',(0.0,0.0,-1.0));
#4288=ORIENTED_EDGE('',*,*,#4289,.F.);
#4299=EDGE_CURVE('',#4241,#4290,#4304,.T.);
#4304=LINE('',#4242,#4306);
#4306=VECTOR('',#4307,0.851302703214315);
#4307=DIRECTION('',(-0.649,0.761,0.0));
#4298=ORIENTED_EDGE('',*,*,#4299,.F.);
#4308=ORIENTED_EDGE('',*,*,#4240,.T.);
#4318=STYLED_ITEM('',(#61),#4319);
#4319=ADVANCED_FACE('',(#4325),#4320,.T.);
#4320=PLANE('',#4321);
#4321=AXIS2_PLACEMENT_3D('',#4322,#4323,#4324);
#4322=CARTESIAN_POINT('',(1.657,3.34,-0.051));
#4323=DIRECTION('',(0.0,1.0,0.0));
#4324=DIRECTION('',(0.,0.,1.));
#4325=FACE_OUTER_BOUND('',#4326,.T.);
#4326=EDGE_LOOP('',(#4327,#4337,#4347,#4357));
#4330=CARTESIAN_POINT('',(-1.657,3.34,-0.051));
#4329=VERTEX_POINT('',#4330);
#4328=EDGE_CURVE('',#4329,#4280,#4333,.T.);
#4333=LINE('',#4330,#4335);
#4335=VECTOR('',#4336,3.3147);
#4336=DIRECTION('',(1.0,0.0,0.0));
#4327=ORIENTED_EDGE('',*,*,#4328,.F.);
#4340=CARTESIAN_POINT('',(-1.657,3.34,0.203));
#4339=VERTEX_POINT('',#4340);
#4338=EDGE_CURVE('',#4339,#4329,#4343,.T.);
#4343=LINE('',#4340,#4345);
#4345=VECTOR('',#4346,0.254);
#4346=DIRECTION('',(0.0,0.0,-1.0));
#4337=ORIENTED_EDGE('',*,*,#4338,.F.);
#4348=EDGE_CURVE('',#4290,#4339,#4353,.T.);
#4353=LINE('',#4291,#4355);
#4355=VECTOR('',#4356,3.3147);
#4356=DIRECTION('',(-1.0,0.0,0.0));
#4347=ORIENTED_EDGE('',*,*,#4348,.F.);
#4357=ORIENTED_EDGE('',*,*,#4289,.T.);
#4367=STYLED_ITEM('',(#61),#4368);
#4368=ADVANCED_FACE('',(#4374),#4369,.T.);
#4369=PLANE('',#4370);
#4370=AXIS2_PLACEMENT_3D('',#4371,#4372,#4373);
#4371=CARTESIAN_POINT('',(-1.657,3.34,-0.051));
#4372=DIRECTION('',(-0.761,0.649,0.0));
#4373=DIRECTION('',(0.,0.,1.));
#4374=FACE_OUTER_BOUND('',#4375,.T.);
#4375=EDGE_LOOP('',(#4376,#4386,#4396,#4406));
#4379=CARTESIAN_POINT('',(-2.21,2.692,-0.051));
#4378=VERTEX_POINT('',#4379);
#4377=EDGE_CURVE('',#4378,#4329,#4382,.T.);
#4382=LINE('',#4379,#4384);
#4384=VECTOR('',#4385,0.851302703214315);
#4385=DIRECTION('',(0.649,0.761,0.0));
#4376=ORIENTED_EDGE('',*,*,#4377,.F.);
#4389=CARTESIAN_POINT('',(-2.21,2.692,0.203));
#4388=VERTEX_POINT('',#4389);
#4387=EDGE_CURVE('',#4388,#4378,#4392,.T.);
#4392=LINE('',#4389,#4394);
#4394=VECTOR('',#4395,0.254);
#4395=DIRECTION('',(0.0,0.0,-1.0));
#4386=ORIENTED_EDGE('',*,*,#4387,.F.);
#4397=EDGE_CURVE('',#4339,#4388,#4402,.T.);
#4402=LINE('',#4340,#4404);
#4404=VECTOR('',#4405,0.851302703214315);
#4405=DIRECTION('',(-0.649,-0.761,0.0));
#4396=ORIENTED_EDGE('',*,*,#4397,.F.);
#4406=ORIENTED_EDGE('',*,*,#4338,.T.);
#4416=STYLED_ITEM('',(#61),#4417);
#4417=ADVANCED_FACE('',(#4423),#4418,.T.);
#4418=PLANE('',#4419);
#4419=AXIS2_PLACEMENT_3D('',#4420,#4421,#4422);
#4420=CARTESIAN_POINT('',(-2.21,2.692,-0.051));
#4421=DIRECTION('',(-1.0,0.0,0.0));
#4422=DIRECTION('',(0.,0.,1.));
#4423=FACE_OUTER_BOUND('',#4424,.T.);
#4424=EDGE_LOOP('',(#4425,#4435,#4445,#4455));
#4428=CARTESIAN_POINT('',(-2.21,2.045,-0.051));
#4427=VERTEX_POINT('',#4428);
#4426=EDGE_CURVE('',#4427,#4378,#4431,.T.);
#4431=LINE('',#4428,#4433);
#4433=VECTOR('',#4434,0.6477);
#4434=DIRECTION('',(0.0,1.0,0.0));
#4425=ORIENTED_EDGE('',*,*,#4426,.F.);
#4438=CARTESIAN_POINT('',(-2.21,2.045,0.203));
#4437=VERTEX_POINT('',#4438);
#4436=EDGE_CURVE('',#4437,#4427,#4441,.T.);
#4441=LINE('',#4438,#4443);
#4443=VECTOR('',#4444,0.254);
#4444=DIRECTION('',(0.0,0.0,-1.0));
#4435=ORIENTED_EDGE('',*,*,#4436,.F.);
#4446=EDGE_CURVE('',#4388,#4437,#4451,.T.);
#4451=LINE('',#4389,#4453);
#4453=VECTOR('',#4454,0.6477);
#4454=DIRECTION('',(0.0,-1.0,0.0));
#4445=ORIENTED_EDGE('',*,*,#4446,.F.);
#4455=ORIENTED_EDGE('',*,*,#4387,.T.);
#4465=STYLED_ITEM('',(#61),#4466);
#4466=ADVANCED_FACE('',(#4472),#4467,.T.);
#4467=PLANE('',#4468);
#4468=AXIS2_PLACEMENT_3D('',#4469,#4470,#4471);
#4469=CARTESIAN_POINT('',(-1.657,2.045,-0.051));
#4470=DIRECTION('',(-1.0,0.0,0.0));
#4471=DIRECTION('',(0.,0.,1.));
#4472=FACE_OUTER_BOUND('',#4473,.T.);
#4473=EDGE_LOOP('',(#4474,#4484,#4494,#4504));
#4477=CARTESIAN_POINT('',(-1.657,1.905,-0.051));
#4476=VERTEX_POINT('',#4477);
#4479=CARTESIAN_POINT('',(-1.657,2.045,-0.051));
#4478=VERTEX_POINT('',#4479);
#4475=EDGE_CURVE('',#4476,#4478,#4480,.T.);
#4480=LINE('',#4477,#4482);
#4482=VECTOR('',#4483,0.1397);
#4483=DIRECTION('',(0.0,1.0,0.0));
#4474=ORIENTED_EDGE('',*,*,#4475,.F.);
#4487=CARTESIAN_POINT('',(-1.657,1.905,0.0));
#4486=VERTEX_POINT('',#4487);
#4485=EDGE_CURVE('',#4486,#4476,#4490,.T.);
#4490=LINE('',#4487,#4492);
#4492=VECTOR('',#4493,0.0508);
#4493=DIRECTION('',(0.0,0.0,-1.0));
#4484=ORIENTED_EDGE('',*,*,#4485,.F.);
#4497=CARTESIAN_POINT('',(-1.657,2.045,0.0));
#4496=VERTEX_POINT('',#4497);
#4495=EDGE_CURVE('',#4496,#4486,#4500,.T.);
#4500=LINE('',#4497,#4502);
#4502=VECTOR('',#4503,0.1397);
#4503=DIRECTION('',(0.0,-1.0,0.0));
#4494=ORIENTED_EDGE('',*,*,#4495,.F.);
#4505=EDGE_CURVE('',#4478,#4496,#4510,.T.);
#4510=LINE('',#4479,#4512);
#4512=VECTOR('',#4513,0.0508);
#4513=DIRECTION('',(0.0,0.0,1.0));
#4504=ORIENTED_EDGE('',*,*,#4505,.F.);
#4514=STYLED_ITEM('',(#61),#4515);
#4515=ADVANCED_FACE('',(#4521),#4516,.T.);
#4516=PLANE('',#4517);
#4517=AXIS2_PLACEMENT_3D('',#4518,#4519,#4520);
#4518=CARTESIAN_POINT('',(-1.657,1.905,-0.051));
#4519=DIRECTION('',(0.0,1.0,0.0));
#4520=DIRECTION('',(0.,0.,1.));
#4521=FACE_OUTER_BOUND('',#4522,.T.);
#4522=EDGE_LOOP('',(#4523,#4533,#4543,#4553));
#4526=CARTESIAN_POINT('',(-1.878,1.905,-0.051));
#4525=VERTEX_POINT('',#4526);
#4524=EDGE_CURVE('',#4525,#4476,#4529,.T.);
#4529=LINE('',#4526,#4531);
#4531=VECTOR('',#4532,0.22098);
#4532=DIRECTION('',(1.0,0.0,0.0));
#4523=ORIENTED_EDGE('',*,*,#4524,.F.);
#4536=CARTESIAN_POINT('',(-1.878,1.905,0.0));
#4535=VERTEX_POINT('',#4536);
#4534=EDGE_CURVE('',#4535,#4525,#4539,.T.);
#4539=LINE('',#4536,#4541);
#4541=VECTOR('',#4542,0.0508);
#4542=DIRECTION('',(0.0,0.0,-1.0));
#4533=ORIENTED_EDGE('',*,*,#4534,.F.);
#4544=EDGE_CURVE('',#4486,#4535,#4549,.T.);
#4549=LINE('',#4487,#4551);
#4551=VECTOR('',#4552,0.22098);
#4552=DIRECTION('',(-1.0,0.0,0.0));
#4543=ORIENTED_EDGE('',*,*,#4544,.F.);
#4553=ORIENTED_EDGE('',*,*,#4485,.T.);
#4563=STYLED_ITEM('',(#61),#4564);
#4564=ADVANCED_FACE('',(#4570),#4565,.T.);
#4565=PLANE('',#4566);
#4566=AXIS2_PLACEMENT_3D('',#4567,#4568,#4569);
#4567=CARTESIAN_POINT('',(-1.878,1.905,-0.051));
#4568=DIRECTION('',(-1.0,0.0,0.0));
#4569=DIRECTION('',(0.,0.,1.));
#4570=FACE_OUTER_BOUND('',#4571,.T.);
#4571=EDGE_LOOP('',(#4572,#4582,#4592,#4602));
#4573=EDGE_CURVE('',#4037,#4525,#4578,.T.);
#4578=LINE('',#4038,#4580);
#4580=VECTOR('',#4581,2.6543);
#4581=DIRECTION('',(0.0,1.0,0.0));
#4572=ORIENTED_EDGE('',*,*,#4573,.F.);
#4582=ORIENTED_EDGE('',*,*,#4064,.T.);
#4593=EDGE_CURVE('',#4535,#4055,#4598,.T.);
#4598=LINE('',#4536,#4600);
#4600=VECTOR('',#4601,2.6543);
#4601=DIRECTION('',(0.0,-1.0,0.0));
#4592=ORIENTED_EDGE('',*,*,#4593,.F.);
#4602=ORIENTED_EDGE('',*,*,#4534,.T.);
#4612=STYLED_ITEM('',(#61),#4613);
#4613=ADVANCED_FACE('',(#4619),#4614,.T.);
#4614=PLANE('',#4615);
#4615=AXIS2_PLACEMENT_3D('',#4616,#4617,#4618);
#4616=CARTESIAN_POINT('',(-2.21,2.692,0.203));
#4617=DIRECTION('',(0.0,0.0,1.0));
#4618=DIRECTION('',(0.,1.,0.));
#4619=FACE_OUTER_BOUND('',#4620,.T.);
#4620=EDGE_LOOP('',(#4621,#4631,#4641,#4651,#4661,#4671));
#4621=ORIENTED_EDGE('',*,*,#4446,.T.);
#4632=EDGE_CURVE('',#4251,#4437,#4637,.T.);
#4637=LINE('',#4252,#4639);
#4639=VECTOR('',#4640,4.4196);
#4640=DIRECTION('',(-1.0,0.0,0.0));
#4631=ORIENTED_EDGE('',*,*,#4632,.F.);
#4641=ORIENTED_EDGE('',*,*,#4250,.T.);
#4651=ORIENTED_EDGE('',*,*,#4299,.T.);
#4661=ORIENTED_EDGE('',*,*,#4348,.T.);
#4671=ORIENTED_EDGE('',*,*,#4397,.T.);
#4681=STYLED_ITEM('',(#61),#4682);
#4682=ADVANCED_FACE('',(#4688),#4683,.T.);
#4683=PLANE('',#4684);
#4684=AXIS2_PLACEMENT_3D('',#4685,#4686,#4687);
#4685=CARTESIAN_POINT('',(-1.878,1.905,0.0));
#4686=DIRECTION('',(0.0,0.0,1.0));
#4687=DIRECTION('',(0.,1.,0.));
#4688=FACE_OUTER_BOUND('',#4689,.T.);
#4689=EDGE_LOOP('',(#4690,#4700,#4710,#4720,#4730,#4740,#4750,#4760));
#4690=ORIENTED_EDGE('',*,*,#4593,.T.);
#4700=ORIENTED_EDGE('',*,*,#4054,.T.);
#4710=ORIENTED_EDGE('',*,*,#4103,.T.);
#4720=ORIENTED_EDGE('',*,*,#4152,.T.);
#4730=ORIENTED_EDGE('',*,*,#4201,.T.);
#4741=EDGE_CURVE('',#4496,#4192,#4746,.T.);
#4746=LINE('',#4497,#4748);
#4748=VECTOR('',#4749,3.3147);
#4749=DIRECTION('',(1.0,0.0,0.0));
#4740=ORIENTED_EDGE('',*,*,#4741,.F.);
#4750=ORIENTED_EDGE('',*,*,#4495,.T.);
#4760=ORIENTED_EDGE('',*,*,#4544,.T.);
#4770=STYLED_ITEM('',(#61),#4771);
#4771=ADVANCED_FACE('',(#4777),#4772,.T.);
#4772=PLANE('',#4773);
#4773=AXIS2_PLACEMENT_3D('',#4774,#4775,#4776);
#4774=CARTESIAN_POINT('',(1.878,-0.749,-0.051));
#4775=DIRECTION('',(0.0,0.0,-1.0));
#4776=DIRECTION('',(0.,1.,0.));
#4777=FACE_OUTER_BOUND('',#4778,.T.);
#4778=EDGE_LOOP('',(#4779,#4789,#4799,#4809,#4819,#4829,#4839,#4849,#4859,#4869,#4879,#4889,#4899,#4909));
#4779=ORIENTED_EDGE('',*,*,#4034,.T.);
#4789=ORIENTED_EDGE('',*,*,#4573,.T.);
#4799=ORIENTED_EDGE('',*,*,#4524,.T.);
#4809=ORIENTED_EDGE('',*,*,#4475,.T.);
#4820=EDGE_CURVE('',#4427,#4478,#4825,.T.);
#4825=LINE('',#4428,#4827);
#4827=VECTOR('',#4828,0.55245);
#4828=DIRECTION('',(1.0,0.0,0.0));
#4819=ORIENTED_EDGE('',*,*,#4820,.F.);
#4829=ORIENTED_EDGE('',*,*,#4426,.T.);
#4839=ORIENTED_EDGE('',*,*,#4377,.T.);
#4849=ORIENTED_EDGE('',*,*,#4328,.T.);
#4859=ORIENTED_EDGE('',*,*,#4279,.T.);
#4869=ORIENTED_EDGE('',*,*,#4230,.T.);
#4880=EDGE_CURVE('',#4182,#4233,#4885,.T.);
#4885=LINE('',#4183,#4887);
#4887=VECTOR('',#4888,0.55245);
#4888=DIRECTION('',(1.0,0.0,0.0));
#4879=ORIENTED_EDGE('',*,*,#4880,.F.);
#4889=ORIENTED_EDGE('',*,*,#4181,.T.);
#4899=ORIENTED_EDGE('',*,*,#4132,.T.);
#4909=ORIENTED_EDGE('',*,*,#4083,.T.);
#4919=STYLED_ITEM('',(#61),#4920);
#4920=ADVANCED_FACE('',(#4926),#4921,.T.);
#4921=PLANE('',#4922);
#4922=AXIS2_PLACEMENT_3D('',#4923,#4924,#4925);
#4923=CARTESIAN_POINT('',(-2.21,2.045,-0.051));
#4924=DIRECTION('',(0.0,-1.0,0.0));
#4925=DIRECTION('',(0.,0.,1.));
#4926=FACE_OUTER_BOUND('',#4927,.T.);
#4927=EDGE_LOOP('',(#4928,#4938,#4948,#4958,#4968,#4978,#4988,#4998));
#4928=ORIENTED_EDGE('',*,*,#4820,.T.);
#4938=ORIENTED_EDGE('',*,*,#4505,.T.);
#4948=ORIENTED_EDGE('',*,*,#4741,.T.);
#4958=ORIENTED_EDGE('',*,*,#4191,.T.);
#4968=ORIENTED_EDGE('',*,*,#4880,.T.);
#4978=ORIENTED_EDGE('',*,*,#4260,.T.);
#4988=ORIENTED_EDGE('',*,*,#4632,.T.);
#4998=ORIENTED_EDGE('',*,*,#4436,.T.);
ENDSEC;
END-ISO-10303-21;
