ISO-10303-21;
HEADER;
FILE_DESCRIPTION(('FreeCAD Model'),'2;1');
FILE_NAME('/var/www/3D/0T/1197460.1.1.stp','2023-12-11T11:01:11',(
    'Author'),(''),'Open CASCADE STEP processor 6.9','FreeCAD','Unknown'
  );
FILE_SCHEMA(('AUTOMOTIVE_DESIGN { 1 0 10303 214 1 1 1 1 }'));
ENDSEC;
DATA;
#1 = APPLICATION_PROTOCOL_DEFINITION('international standard',
  'automotive_design',2000,#2);
#2 = APPLICATION_CONTEXT(
  'core data for automotive mechanical design processes');
#3 = SHAPE_DEFINITION_REPRESENTATION(#4,#10);
#4 = PRODUCT_DEFINITION_SHAPE('','',#5);
#5 = PRODUCT_DEFINITION('design','',#6,#9);
#6 = PRODUCT_DEFINITION_FORMATION('','',#7);
#7 = PRODUCT('ASSEMBLY','ASSEMBLY','',(#8));
#8 = PRODUCT_CONTEXT('',#2,'mechanical');
#9 = PRODUCT_DEFINITION_CONTEXT('part definition',#2,'design');
#10 = SHAPE_REPRESENTATION('',(#11,#15,#19,#23),#27);
#11 = AXIS2_PLACEMENT_3D('',#12,#13,#14);
#12 = CARTESIAN_POINT('',(0.,0.,0.));
#13 = DIRECTION('',(0.,0.,1.));
#14 = DIRECTION('',(1.,0.,-0.));
#15 = AXIS2_PLACEMENT_3D('',#16,#17,#18);
#16 = CARTESIAN_POINT('',(17.7,0.,4.55));
#17 = DIRECTION('',(1.,-0.,2.22044604925E-16));
#18 = DIRECTION('',(2.22044604925E-16,0.,-1.));
#19 = AXIS2_PLACEMENT_3D('',#20,#21,#22);
#20 = CARTESIAN_POINT('',(0.,0.,0.));
#21 = DIRECTION('',(0.,0.,1.));
#22 = DIRECTION('',(1.,0.,0.));
#23 = AXIS2_PLACEMENT_3D('',#24,#25,#26);
#24 = CARTESIAN_POINT('',(0.,0.,0.));
#25 = DIRECTION('',(0.,0.,1.));
#26 = DIRECTION('',(1.,0.,0.));
#27 = ( GEOMETRIC_REPRESENTATION_CONTEXT(3) 
GLOBAL_UNCERTAINTY_ASSIGNED_CONTEXT((#31)) GLOBAL_UNIT_ASSIGNED_CONTEXT(
(#28,#29,#30)) REPRESENTATION_CONTEXT('Context #1',
  '3D Context with UNIT and UNCERTAINTY') );
#28 = ( LENGTH_UNIT() NAMED_UNIT(*) SI_UNIT(.MILLI.,.METRE.) );
#29 = ( NAMED_UNIT(*) PLANE_ANGLE_UNIT() SI_UNIT($,.RADIAN.) );
#30 = ( NAMED_UNIT(*) SI_UNIT($,.STERADIAN.) SOLID_ANGLE_UNIT() );
#31 = UNCERTAINTY_MEASURE_WITH_UNIT(LENGTH_MEASURE(1.E-07),#28,
  'distance_accuracy_value','confusion accuracy');
#32 = PRODUCT_RELATED_PRODUCT_CATEGORY('part',$,(#7));
#33 = ADVANCED_BREP_SHAPE_REPRESENTATION('',(#11,#34),#185);
#34 = MANIFOLD_SOLID_BREP('',#35);
#35 = CLOSED_SHELL('',(#36,#124,#177,#181));
#36 = ADVANCED_FACE('',(#37),#51,.T.);
#37 = FACE_BOUND('',#38,.T.);
#38 = EDGE_LOOP('',(#39,#69,#96,#97));
#39 = ORIENTED_EDGE('',*,*,#40,.T.);
#40 = EDGE_CURVE('',#41,#43,#45,.T.);
#41 = VERTEX_POINT('',#42);
#42 = CARTESIAN_POINT('',(4.55,0.,1.1375));
#43 = VERTEX_POINT('',#44);
#44 = CARTESIAN_POINT('',(4.55,-1.114428587224E-15,8.85));
#45 = SEAM_CURVE('',#46,(#50,#62),.PCURVE_S1.);
#46 = LINE('',#47,#48);
#47 = CARTESIAN_POINT('',(4.55,-1.114428587224E-15,0.));
#48 = VECTOR('',#49,1.);
#49 = DIRECTION('',(0.,0.,1.));
#50 = PCURVE('',#51,#56);
#51 = CYLINDRICAL_SURFACE('',#52,4.55);
#52 = AXIS2_PLACEMENT_3D('',#53,#54,#55);
#53 = CARTESIAN_POINT('',(0.,0.,0.));
#54 = DIRECTION('',(0.,0.,1.));
#55 = DIRECTION('',(1.,0.,0.));
#56 = DEFINITIONAL_REPRESENTATION('',(#57),#61);
#57 = LINE('',#58,#59);
#58 = CARTESIAN_POINT('',(6.28318530718,-0.));
#59 = VECTOR('',#60,1.);
#60 = DIRECTION('',(0.,1.));
#61 = ( GEOMETRIC_REPRESENTATION_CONTEXT(2) 
PARAMETRIC_REPRESENTATION_CONTEXT() REPRESENTATION_CONTEXT('2D SPACE',''
  ) );
#62 = PCURVE('',#51,#63);
#63 = DEFINITIONAL_REPRESENTATION('',(#64),#68);
#64 = LINE('',#65,#66);
#65 = CARTESIAN_POINT('',(0.,-0.));
#66 = VECTOR('',#67,1.);
#67 = DIRECTION('',(0.,1.));
#68 = ( GEOMETRIC_REPRESENTATION_CONTEXT(2) 
PARAMETRIC_REPRESENTATION_CONTEXT() REPRESENTATION_CONTEXT('2D SPACE',''
  ) );
#69 = ORIENTED_EDGE('',*,*,#70,.F.);
#70 = EDGE_CURVE('',#43,#43,#71,.T.);
#71 = SURFACE_CURVE('',#72,(#77,#84),.PCURVE_S1.);
#72 = CIRCLE('',#73,4.55);
#73 = AXIS2_PLACEMENT_3D('',#74,#75,#76);
#74 = CARTESIAN_POINT('',(0.,0.,8.85));
#75 = DIRECTION('',(0.,0.,1.));
#76 = DIRECTION('',(1.,0.,0.));
#77 = PCURVE('',#51,#78);
#78 = DEFINITIONAL_REPRESENTATION('',(#79),#83);
#79 = LINE('',#80,#81);
#80 = CARTESIAN_POINT('',(0.,8.85));
#81 = VECTOR('',#82,1.);
#82 = DIRECTION('',(1.,0.));
#83 = ( GEOMETRIC_REPRESENTATION_CONTEXT(2) 
PARAMETRIC_REPRESENTATION_CONTEXT() REPRESENTATION_CONTEXT('2D SPACE',''
  ) );
#84 = PCURVE('',#85,#90);
#85 = PLANE('',#86);
#86 = AXIS2_PLACEMENT_3D('',#87,#88,#89);
#87 = CARTESIAN_POINT('',(0.,0.,8.85));
#88 = DIRECTION('',(0.,0.,1.));
#89 = DIRECTION('',(1.,0.,0.));
#90 = DEFINITIONAL_REPRESENTATION('',(#91),#95);
#91 = CIRCLE('',#92,4.55);
#92 = AXIS2_PLACEMENT_2D('',#93,#94);
#93 = CARTESIAN_POINT('',(0.,0.));
#94 = DIRECTION('',(1.,0.));
#95 = ( GEOMETRIC_REPRESENTATION_CONTEXT(2) 
PARAMETRIC_REPRESENTATION_CONTEXT() REPRESENTATION_CONTEXT('2D SPACE',''
  ) );
#96 = ORIENTED_EDGE('',*,*,#40,.F.);
#97 = ORIENTED_EDGE('',*,*,#98,.T.);
#98 = EDGE_CURVE('',#41,#41,#99,.T.);
#99 = SURFACE_CURVE('',#100,(#105,#112),.PCURVE_S1.);
#100 = CIRCLE('',#101,4.55);
#101 = AXIS2_PLACEMENT_3D('',#102,#103,#104);
#102 = CARTESIAN_POINT('',(0.,0.,1.1375));
#103 = DIRECTION('',(0.,0.,1.));
#104 = DIRECTION('',(1.,0.,-0.));
#105 = PCURVE('',#51,#106);
#106 = DEFINITIONAL_REPRESENTATION('',(#107),#111);
#107 = LINE('',#108,#109);
#108 = CARTESIAN_POINT('',(0.,1.1375));
#109 = VECTOR('',#110,1.);
#110 = DIRECTION('',(1.,0.));
#111 = ( GEOMETRIC_REPRESENTATION_CONTEXT(2) 
PARAMETRIC_REPRESENTATION_CONTEXT() REPRESENTATION_CONTEXT('2D SPACE',''
  ) );
#112 = PCURVE('',#113,#118);
#113 = CONICAL_SURFACE('',#114,4.55,0.785398163397);
#114 = AXIS2_PLACEMENT_3D('',#115,#116,#117);
#115 = CARTESIAN_POINT('',(0.,0.,1.1375));
#116 = DIRECTION('',(0.,0.,1.));
#117 = DIRECTION('',(1.,0.,-0.));
#118 = DEFINITIONAL_REPRESENTATION('',(#119),#123);
#119 = LINE('',#120,#121);
#120 = CARTESIAN_POINT('',(0.,-0.));
#121 = VECTOR('',#122,1.);
#122 = DIRECTION('',(1.,-0.));
#123 = ( GEOMETRIC_REPRESENTATION_CONTEXT(2) 
PARAMETRIC_REPRESENTATION_CONTEXT() REPRESENTATION_CONTEXT('2D SPACE',''
  ) );
#124 = ADVANCED_FACE('',(#125),#113,.T.);
#125 = FACE_BOUND('',#126,.F.);
#126 = EDGE_LOOP('',(#127,#148,#149,#150));
#127 = ORIENTED_EDGE('',*,*,#128,.F.);
#128 = EDGE_CURVE('',#41,#129,#131,.T.);
#129 = VERTEX_POINT('',#130);
#130 = CARTESIAN_POINT('',(3.4125,0.,0.));
#131 = SEAM_CURVE('',#132,(#136,#142),.PCURVE_S1.);
#132 = LINE('',#133,#134);
#133 = CARTESIAN_POINT('',(4.55,0.,1.1375));
#134 = VECTOR('',#135,1.);
#135 = DIRECTION('',(-0.707106781187,-0.,-0.707106781187));
#136 = PCURVE('',#113,#137);
#137 = DEFINITIONAL_REPRESENTATION('',(#138),#141);
#138 = B_SPLINE_CURVE_WITH_KNOTS('',1,(#139,#140),.UNSPECIFIED.,.F.,.F.,
  (2,2),(0.,1.608667927199),.PIECEWISE_BEZIER_KNOTS.);
#139 = CARTESIAN_POINT('',(0.,0.));
#140 = CARTESIAN_POINT('',(0.,-1.1375));
#141 = ( GEOMETRIC_REPRESENTATION_CONTEXT(2) 
PARAMETRIC_REPRESENTATION_CONTEXT() REPRESENTATION_CONTEXT('2D SPACE',''
  ) );
#142 = PCURVE('',#113,#143);
#143 = DEFINITIONAL_REPRESENTATION('',(#144),#147);
#144 = B_SPLINE_CURVE_WITH_KNOTS('',1,(#145,#146),.UNSPECIFIED.,.F.,.F.,
  (2,2),(0.,1.608667927199),.PIECEWISE_BEZIER_KNOTS.);
#145 = CARTESIAN_POINT('',(6.28318530718,0.));
#146 = CARTESIAN_POINT('',(6.28318530718,-1.1375));
#147 = ( GEOMETRIC_REPRESENTATION_CONTEXT(2) 
PARAMETRIC_REPRESENTATION_CONTEXT() REPRESENTATION_CONTEXT('2D SPACE',''
  ) );
#148 = ORIENTED_EDGE('',*,*,#98,.T.);
#149 = ORIENTED_EDGE('',*,*,#128,.T.);
#150 = ORIENTED_EDGE('',*,*,#151,.F.);
#151 = EDGE_CURVE('',#129,#129,#152,.T.);
#152 = SURFACE_CURVE('',#153,(#158,#165),.PCURVE_S1.);
#153 = CIRCLE('',#154,3.4125);
#154 = AXIS2_PLACEMENT_3D('',#155,#156,#157);
#155 = CARTESIAN_POINT('',(0.,0.,0.));
#156 = DIRECTION('',(0.,0.,1.));
#157 = DIRECTION('',(1.,0.,-0.));
#158 = PCURVE('',#113,#159);
#159 = DEFINITIONAL_REPRESENTATION('',(#160),#164);
#160 = LINE('',#161,#162);
#161 = CARTESIAN_POINT('',(0.,-1.1375));
#162 = VECTOR('',#163,1.);
#163 = DIRECTION('',(1.,-0.));
#164 = ( GEOMETRIC_REPRESENTATION_CONTEXT(2) 
PARAMETRIC_REPRESENTATION_CONTEXT() REPRESENTATION_CONTEXT('2D SPACE',''
  ) );
#165 = PCURVE('',#166,#171);
#166 = PLANE('',#167);
#167 = AXIS2_PLACEMENT_3D('',#168,#169,#170);
#168 = CARTESIAN_POINT('',(0.,0.,0.));
#169 = DIRECTION('',(0.,0.,1.));
#170 = DIRECTION('',(1.,0.,0.));
#171 = DEFINITIONAL_REPRESENTATION('',(#172),#176);
#172 = CIRCLE('',#173,3.4125);
#173 = AXIS2_PLACEMENT_2D('',#174,#175);
#174 = CARTESIAN_POINT('',(0.,0.));
#175 = DIRECTION('',(1.,0.));
#176 = ( GEOMETRIC_REPRESENTATION_CONTEXT(2) 
PARAMETRIC_REPRESENTATION_CONTEXT() REPRESENTATION_CONTEXT('2D SPACE',''
  ) );
#177 = ADVANCED_FACE('',(#178),#85,.T.);
#178 = FACE_BOUND('',#179,.T.);
#179 = EDGE_LOOP('',(#180));
#180 = ORIENTED_EDGE('',*,*,#70,.T.);
#181 = ADVANCED_FACE('',(#182),#166,.F.);
#182 = FACE_BOUND('',#183,.F.);
#183 = EDGE_LOOP('',(#184));
#184 = ORIENTED_EDGE('',*,*,#151,.T.);
#185 = ( GEOMETRIC_REPRESENTATION_CONTEXT(3) 
GLOBAL_UNCERTAINTY_ASSIGNED_CONTEXT((#189)) GLOBAL_UNIT_ASSIGNED_CONTEXT
((#186,#187,#188)) REPRESENTATION_CONTEXT('Context #1',
  '3D Context with UNIT and UNCERTAINTY') );
#186 = ( LENGTH_UNIT() NAMED_UNIT(*) SI_UNIT(.MILLI.,.METRE.) );
#187 = ( NAMED_UNIT(*) PLANE_ANGLE_UNIT() SI_UNIT($,.RADIAN.) );
#188 = ( NAMED_UNIT(*) SI_UNIT($,.STERADIAN.) SOLID_ANGLE_UNIT() );
#189 = UNCERTAINTY_MEASURE_WITH_UNIT(LENGTH_MEASURE(1.E-07),#186,
  'distance_accuracy_value','confusion accuracy');
#190 = SHAPE_DEFINITION_REPRESENTATION(#191,#33);
#191 = PRODUCT_DEFINITION_SHAPE('','',#192);
#192 = PRODUCT_DEFINITION('design','',#193,#196);
#193 = PRODUCT_DEFINITION_FORMATION('','',#194);
#194 = PRODUCT('Body','Body','',(#195));
#195 = PRODUCT_CONTEXT('',#2,'mechanical');
#196 = PRODUCT_DEFINITION_CONTEXT('part definition',#2,'design');
#197 = CONTEXT_DEPENDENT_SHAPE_REPRESENTATION(#198,#200);
#198 = ( REPRESENTATION_RELATIONSHIP('','',#33,#10) 
REPRESENTATION_RELATIONSHIP_WITH_TRANSFORMATION(#199) 
SHAPE_REPRESENTATION_RELATIONSHIP() );
#199 = ITEM_DEFINED_TRANSFORMATION('','',#11,#15);
#200 = PRODUCT_DEFINITION_SHAPE('Placement','Placement of an item',#201
  );
#201 = NEXT_ASSEMBLY_USAGE_OCCURRENCE('1','=>[0:1:1:2]','',#5,#192,$);
#202 = PRODUCT_RELATED_PRODUCT_CATEGORY('part',$,(#194));
#203 = ADVANCED_BREP_SHAPE_REPRESENTATION('',(#11,#204),#388);
#204 = MANIFOLD_SOLID_BREP('',#205);
#205 = CLOSED_SHELL('',(#206,#296,#326,#380,#384));
#206 = ADVANCED_FACE('',(#207),#221,.T.);
#207 = FACE_BOUND('',#208,.T.);
#208 = EDGE_LOOP('',(#209,#238,#268,#269));
#209 = ORIENTED_EDGE('',*,*,#210,.T.);
#210 = EDGE_CURVE('',#211,#213,#215,.T.);
#211 = VERTEX_POINT('',#212);
#212 = CARTESIAN_POINT('',(17.7,1.66551964684E-16,3.87));
#213 = VERTEX_POINT('',#214);
#214 = CARTESIAN_POINT('',(0.68,-7.549516567451E-17,3.87));
#215 = SEAM_CURVE('',#216,(#220,#231),.PCURVE_S1.);
#216 = LINE('',#217,#218);
#217 = CARTESIAN_POINT('',(17.7,0.,3.87));
#218 = VECTOR('',#219,1.);
#219 = DIRECTION('',(-1.,0.,0.));
#220 = PCURVE('',#221,#226);
#221 = CYLINDRICAL_SURFACE('',#222,0.68);
#222 = AXIS2_PLACEMENT_3D('',#223,#224,#225);
#223 = CARTESIAN_POINT('',(17.7,0.,4.55));
#224 = DIRECTION('',(-1.,0.,0.));
#225 = DIRECTION('',(0.,0.,-1.));
#226 = DEFINITIONAL_REPRESENTATION('',(#227),#230);
#227 = B_SPLINE_CURVE_WITH_KNOTS('',1,(#228,#229),.UNSPECIFIED.,.F.,.F.,
  (2,2),(0.,17.02),.PIECEWISE_BEZIER_KNOTS.);
#228 = CARTESIAN_POINT('',(6.28318530718,0.));
#229 = CARTESIAN_POINT('',(6.28318530718,17.02));
#230 = ( GEOMETRIC_REPRESENTATION_CONTEXT(2) 
PARAMETRIC_REPRESENTATION_CONTEXT() REPRESENTATION_CONTEXT('2D SPACE',''
  ) );
#231 = PCURVE('',#221,#232);
#232 = DEFINITIONAL_REPRESENTATION('',(#233),#237);
#233 = LINE('',#234,#235);
#234 = CARTESIAN_POINT('',(0.,0.));
#235 = VECTOR('',#236,1.);
#236 = DIRECTION('',(0.,1.));
#237 = ( GEOMETRIC_REPRESENTATION_CONTEXT(2) 
PARAMETRIC_REPRESENTATION_CONTEXT() REPRESENTATION_CONTEXT('2D SPACE',''
  ) );
#238 = ORIENTED_EDGE('',*,*,#239,.F.);
#239 = EDGE_CURVE('',#213,#213,#240,.T.);
#240 = SURFACE_CURVE('',#241,(#246,#253),.PCURVE_S1.);
#241 = CIRCLE('',#242,0.68);
#242 = AXIS2_PLACEMENT_3D('',#243,#244,#245);
#243 = CARTESIAN_POINT('',(0.68,0.,4.55));
#244 = DIRECTION('',(-1.,0.,0.));
#245 = DIRECTION('',(0.,0.,-1.));
#246 = PCURVE('',#221,#247);
#247 = DEFINITIONAL_REPRESENTATION('',(#248),#252);
#248 = LINE('',#249,#250);
#249 = CARTESIAN_POINT('',(0.,17.02));
#250 = VECTOR('',#251,1.);
#251 = DIRECTION('',(1.,0.));
#252 = ( GEOMETRIC_REPRESENTATION_CONTEXT(2) 
PARAMETRIC_REPRESENTATION_CONTEXT() REPRESENTATION_CONTEXT('2D SPACE',''
  ) );
#253 = PCURVE('',#254,#263);
#254 = SURFACE_OF_REVOLUTION('',#255,#260);
#255 = CIRCLE('',#256,0.68);
#256 = AXIS2_PLACEMENT_3D('',#257,#258,#259);
#257 = CARTESIAN_POINT('',(1.36,-1.50990331349E-16,3.87));
#258 = DIRECTION('',(-1.306144734853E-15,-2.22044604925E-16,-1.));
#259 = DIRECTION('',(1.,-2.900223916254E-31,-1.306144734853E-15));
#260 = AXIS1_PLACEMENT('',#261,#262);
#261 = CARTESIAN_POINT('',(0.68,-1.50990331349E-16,3.87));
#262 = DIRECTION('',(0.,-1.,2.22044604925E-16));
#263 = DEFINITIONAL_REPRESENTATION('',(#264),#267);
#264 = B_SPLINE_CURVE_WITH_KNOTS('',1,(#265,#266),.UNSPECIFIED.,.F.,.F.,
  (2,2),(0.,6.28318530718),.PIECEWISE_BEZIER_KNOTS.);
#265 = CARTESIAN_POINT('',(1.570796326795,9.424777960769));
#266 = CARTESIAN_POINT('',(1.570796326795,3.14159265359));
#267 = ( GEOMETRIC_REPRESENTATION_CONTEXT(2) 
PARAMETRIC_REPRESENTATION_CONTEXT() REPRESENTATION_CONTEXT('2D SPACE',''
  ) );
#268 = ORIENTED_EDGE('',*,*,#210,.F.);
#269 = ORIENTED_EDGE('',*,*,#270,.T.);
#270 = EDGE_CURVE('',#211,#211,#271,.T.);
#271 = SURFACE_CURVE('',#272,(#277,#284),.PCURVE_S1.);
#272 = CIRCLE('',#273,0.68);
#273 = AXIS2_PLACEMENT_3D('',#274,#275,#276);
#274 = CARTESIAN_POINT('',(17.7,0.,4.55));
#275 = DIRECTION('',(-1.,0.,0.));
#276 = DIRECTION('',(0.,0.,-1.));
#277 = PCURVE('',#221,#278);
#278 = DEFINITIONAL_REPRESENTATION('',(#279),#283);
#279 = LINE('',#280,#281);
#280 = CARTESIAN_POINT('',(0.,0.));
#281 = VECTOR('',#282,1.);
#282 = DIRECTION('',(1.,0.));
#283 = ( GEOMETRIC_REPRESENTATION_CONTEXT(2) 
PARAMETRIC_REPRESENTATION_CONTEXT() REPRESENTATION_CONTEXT('2D SPACE',''
  ) );
#284 = PCURVE('',#285,#290);
#285 = PLANE('',#286);
#286 = AXIS2_PLACEMENT_3D('',#287,#288,#289);
#287 = CARTESIAN_POINT('',(17.7,-3.5083257075E-17,4.55));
#288 = DIRECTION('',(-1.,-6.209411764495E-31,1.137342712256E-29));
#289 = DIRECTION('',(-1.137342712256E-29,0.,-1.));
#290 = DEFINITIONAL_REPRESENTATION('',(#291),#295);
#291 = CIRCLE('',#292,0.68);
#292 = AXIS2_PLACEMENT_2D('',#293,#294);
#293 = CARTESIAN_POINT('',(-8.881784197001E-16,-3.5083257075E-17));
#294 = DIRECTION('',(1.,7.062229217747E-60));
#295 = ( GEOMETRIC_REPRESENTATION_CONTEXT(2) 
PARAMETRIC_REPRESENTATION_CONTEXT() REPRESENTATION_CONTEXT('2D SPACE',''
  ) );
#296 = ADVANCED_FACE('',(#297),#254,.T.);
#297 = FACE_BOUND('',#298,.T.);
#298 = EDGE_LOOP('',(#299,#300));
#299 = ORIENTED_EDGE('',*,*,#239,.T.);
#300 = ORIENTED_EDGE('',*,*,#301,.T.);
#301 = EDGE_CURVE('',#213,#213,#302,.T.);
#302 = SURFACE_CURVE('',#303,(#308,#315),.PCURVE_S1.);
#303 = CIRCLE('',#304,0.68);
#304 = AXIS2_PLACEMENT_3D('',#305,#306,#307);
#305 = CARTESIAN_POINT('',(0.,-1.50990331349E-16,3.87));
#306 = DIRECTION('',(1.428609414768E-15,2.22044604925E-16,1.));
#307 = DIRECTION('',(-1.,3.172150130943E-31,1.428609414768E-15));
#308 = PCURVE('',#254,#309);
#309 = DEFINITIONAL_REPRESENTATION('',(#310),#314);
#310 = LINE('',#311,#312);
#311 = CARTESIAN_POINT('',(3.14159265359,0.));
#312 = VECTOR('',#313,1.);
#313 = DIRECTION('',(0.,1.));
#314 = ( GEOMETRIC_REPRESENTATION_CONTEXT(2) 
PARAMETRIC_REPRESENTATION_CONTEXT() REPRESENTATION_CONTEXT('2D SPACE',''
  ) );
#315 = PCURVE('',#316,#321);
#316 = CYLINDRICAL_SURFACE('',#317,0.68);
#317 = AXIS2_PLACEMENT_3D('',#318,#319,#320);
#318 = CARTESIAN_POINT('',(1.087704858758E-31,-1.50990331349E-16,3.87));
#319 = DIRECTION('',(0.,-2.22044604925E-16,-1.));
#320 = DIRECTION('',(1.,5.473822126269E-48,-1.215432671457E-63));
#321 = DEFINITIONAL_REPRESENTATION('',(#322),#325);
#322 = B_SPLINE_CURVE_WITH_KNOTS('',1,(#323,#324),.UNSPECIFIED.,.F.,.F.,
  (2,2),(3.14159265359,9.424777960769),.PIECEWISE_BEZIER_KNOTS.);
#323 = CARTESIAN_POINT('',(6.28318530718,0.));
#324 = CARTESIAN_POINT('',(0.,0.));
#325 = ( GEOMETRIC_REPRESENTATION_CONTEXT(2) 
PARAMETRIC_REPRESENTATION_CONTEXT() REPRESENTATION_CONTEXT('2D SPACE',''
  ) );
#326 = ADVANCED_FACE('',(#327),#316,.T.);
#327 = FACE_BOUND('',#328,.T.);
#328 = EDGE_LOOP('',(#329,#351,#378,#379));
#329 = ORIENTED_EDGE('',*,*,#330,.T.);
#330 = EDGE_CURVE('',#213,#331,#333,.T.);
#331 = VERTEX_POINT('',#332);
#332 = CARTESIAN_POINT('',(0.68,-2.864356892543E-15,-9.1));
#333 = SEAM_CURVE('',#334,(#338,#344),.PCURVE_S1.);
#334 = LINE('',#335,#336);
#335 = CARTESIAN_POINT('',(0.68,-1.50990331349E-16,3.87));
#336 = VECTOR('',#337,1.);
#337 = DIRECTION('',(0.,-2.22044604925E-16,-1.));
#338 = PCURVE('',#316,#339);
#339 = DEFINITIONAL_REPRESENTATION('',(#340),#343);
#340 = B_SPLINE_CURVE_WITH_KNOTS('',1,(#341,#342),.UNSPECIFIED.,.F.,.F.,
  (2,2),(0.,12.97),.PIECEWISE_BEZIER_KNOTS.);
#341 = CARTESIAN_POINT('',(6.28318530718,0.));
#342 = CARTESIAN_POINT('',(6.28318530718,12.97));
#343 = ( GEOMETRIC_REPRESENTATION_CONTEXT(2) 
PARAMETRIC_REPRESENTATION_CONTEXT() REPRESENTATION_CONTEXT('2D SPACE',''
  ) );
#344 = PCURVE('',#316,#345);
#345 = DEFINITIONAL_REPRESENTATION('',(#346),#350);
#346 = LINE('',#347,#348);
#347 = CARTESIAN_POINT('',(0.,0.));
#348 = VECTOR('',#349,1.);
#349 = DIRECTION('',(0.,1.));
#350 = ( GEOMETRIC_REPRESENTATION_CONTEXT(2) 
PARAMETRIC_REPRESENTATION_CONTEXT() REPRESENTATION_CONTEXT('2D SPACE',''
  ) );
#351 = ORIENTED_EDGE('',*,*,#352,.F.);
#352 = EDGE_CURVE('',#331,#331,#353,.T.);
#353 = SURFACE_CURVE('',#354,(#359,#366),.PCURVE_S1.);
#354 = CIRCLE('',#355,0.68);
#355 = AXIS2_PLACEMENT_3D('',#356,#357,#358);
#356 = CARTESIAN_POINT('',(1.087704858758E-31,-3.030908857227E-15,-9.1)
  );
#357 = DIRECTION('',(0.,-2.22044604925E-16,-1.));
#358 = DIRECTION('',(1.,5.473822126269E-48,-1.215432671457E-63));
#359 = PCURVE('',#316,#360);
#360 = DEFINITIONAL_REPRESENTATION('',(#361),#365);
#361 = LINE('',#362,#363);
#362 = CARTESIAN_POINT('',(0.,12.97));
#363 = VECTOR('',#364,1.);
#364 = DIRECTION('',(1.,0.));
#365 = ( GEOMETRIC_REPRESENTATION_CONTEXT(2) 
PARAMETRIC_REPRESENTATION_CONTEXT() REPRESENTATION_CONTEXT('2D SPACE',''
  ) );
#366 = PCURVE('',#367,#372);
#367 = PLANE('',#368);
#368 = AXIS2_PLACEMENT_3D('',#369,#370,#371);
#369 = CARTESIAN_POINT('',(-1.571047946392E-17,-3.053911447506E-15,-9.1)
  );
#370 = DIRECTION('',(1.42167839032E-31,-2.427310626797E-31,-1.));
#371 = DIRECTION('',(0.,-1.,2.427310626797E-31));
#372 = DEFINITIONAL_REPRESENTATION('',(#373),#377);
#373 = CIRCLE('',#374,0.68);
#374 = AXIS2_PLACEMENT_2D('',#375,#376);
#375 = CARTESIAN_POINT('',(-2.300259027965E-17,-1.571047946392E-17));
#376 = DIRECTION('',(-5.473822126269E-48,-1.));
#377 = ( GEOMETRIC_REPRESENTATION_CONTEXT(2) 
PARAMETRIC_REPRESENTATION_CONTEXT() REPRESENTATION_CONTEXT('2D SPACE',''
  ) );
#378 = ORIENTED_EDGE('',*,*,#330,.F.);
#379 = ORIENTED_EDGE('',*,*,#301,.F.);
#380 = ADVANCED_FACE('',(#381),#285,.F.);
#381 = FACE_BOUND('',#382,.F.);
#382 = EDGE_LOOP('',(#383));
#383 = ORIENTED_EDGE('',*,*,#270,.T.);
#384 = ADVANCED_FACE('',(#385),#367,.T.);
#385 = FACE_BOUND('',#386,.T.);
#386 = EDGE_LOOP('',(#387));
#387 = ORIENTED_EDGE('',*,*,#352,.T.);
#388 = ( GEOMETRIC_REPRESENTATION_CONTEXT(3) 
GLOBAL_UNCERTAINTY_ASSIGNED_CONTEXT((#392)) GLOBAL_UNIT_ASSIGNED_CONTEXT
((#389,#390,#391)) REPRESENTATION_CONTEXT('Context #1',
  '3D Context with UNIT and UNCERTAINTY') );
#389 = ( LENGTH_UNIT() NAMED_UNIT(*) SI_UNIT(.MILLI.,.METRE.) );
#390 = ( NAMED_UNIT(*) PLANE_ANGLE_UNIT() SI_UNIT($,.RADIAN.) );
#391 = ( NAMED_UNIT(*) SI_UNIT($,.STERADIAN.) SOLID_ANGLE_UNIT() );
#392 = UNCERTAINTY_MEASURE_WITH_UNIT(LENGTH_MEASURE(1.E-07),#389,
  'distance_accuracy_value','confusion accuracy');
#393 = SHAPE_DEFINITION_REPRESENTATION(#394,#203);
#394 = PRODUCT_DEFINITION_SHAPE('','',#395);
#395 = PRODUCT_DEFINITION('design','',#396,#399);
#396 = PRODUCT_DEFINITION_FORMATION('','',#397);
#397 = PRODUCT('Sweep1','Sweep1','',(#398));
#398 = PRODUCT_CONTEXT('',#2,'mechanical');
#399 = PRODUCT_DEFINITION_CONTEXT('part definition',#2,'design');
#400 = CONTEXT_DEPENDENT_SHAPE_REPRESENTATION(#401,#403);
#401 = ( REPRESENTATION_RELATIONSHIP('','',#203,#10) 
REPRESENTATION_RELATIONSHIP_WITH_TRANSFORMATION(#402) 
SHAPE_REPRESENTATION_RELATIONSHIP() );
#402 = ITEM_DEFINED_TRANSFORMATION('','',#11,#19);
#403 = PRODUCT_DEFINITION_SHAPE('Placement','Placement of an item',#404
  );
#404 = NEXT_ASSEMBLY_USAGE_OCCURRENCE('2','=>[0:1:1:3]','',#5,#395,$);
#405 = PRODUCT_RELATED_PRODUCT_CATEGORY('part',$,(#397));
#406 = ADVANCED_BREP_SHAPE_REPRESENTATION('',(#11,#407),#623);
#407 = MANIFOLD_SOLID_BREP('',#408);
#408 = CLOSED_SHELL('',(#409,#503,#557,#615,#619));
#409 = ADVANCED_FACE('',(#410),#424,.T.);
#410 = FACE_BOUND('',#411,.T.);
#411 = EDGE_LOOP('',(#412,#441,#471,#472));
#412 = ORIENTED_EDGE('',*,*,#413,.T.);
#413 = EDGE_CURVE('',#414,#416,#418,.T.);
#414 = VERTEX_POINT('',#415);
#415 = CARTESIAN_POINT('',(26.55,3.181899188576E-15,5.23));
#416 = VERTEX_POINT('',#417);
#417 = CARTESIAN_POINT('',(43.57,3.181899188576E-15,5.23));
#418 = SEAM_CURVE('',#419,(#423,#435),.PCURVE_S1.);
#419 = LINE('',#420,#421);
#420 = CARTESIAN_POINT('',(26.55,3.34845115326E-15,5.23));
#421 = VECTOR('',#422,1.);
#422 = DIRECTION('',(1.,0.,0.));
#423 = PCURVE('',#424,#429);
#424 = CYLINDRICAL_SURFACE('',#425,0.68);
#425 = AXIS2_PLACEMENT_3D('',#426,#427,#428);
#426 = CARTESIAN_POINT('',(26.55,3.030908857227E-15,4.55));
#427 = DIRECTION('',(1.,0.,0.));
#428 = DIRECTION('',(-0.,2.22044604925E-16,1.));
#429 = DEFINITIONAL_REPRESENTATION('',(#430),#434);
#430 = LINE('',#431,#432);
#431 = CARTESIAN_POINT('',(6.28318530718,0.));
#432 = VECTOR('',#433,1.);
#433 = DIRECTION('',(0.,1.));
#434 = ( GEOMETRIC_REPRESENTATION_CONTEXT(2) 
PARAMETRIC_REPRESENTATION_CONTEXT() REPRESENTATION_CONTEXT('2D SPACE',''
  ) );
#435 = PCURVE('',#424,#436);
#436 = DEFINITIONAL_REPRESENTATION('',(#437),#440);
#437 = B_SPLINE_CURVE_WITH_KNOTS('',1,(#438,#439),.UNSPECIFIED.,.F.,.F.,
  (2,2),(0.,17.02),.PIECEWISE_BEZIER_KNOTS.);
#438 = CARTESIAN_POINT('',(0.,0.));
#439 = CARTESIAN_POINT('',(0.,17.02));
#440 = ( GEOMETRIC_REPRESENTATION_CONTEXT(2) 
PARAMETRIC_REPRESENTATION_CONTEXT() REPRESENTATION_CONTEXT('2D SPACE',''
  ) );
#441 = ORIENTED_EDGE('',*,*,#442,.F.);
#442 = EDGE_CURVE('',#416,#416,#443,.T.);
#443 = SURFACE_CURVE('',#444,(#449,#456),.PCURVE_S1.);
#444 = CIRCLE('',#445,0.68);
#445 = AXIS2_PLACEMENT_3D('',#446,#447,#448);
#446 = CARTESIAN_POINT('',(43.57,3.030908857227E-15,4.55));
#447 = DIRECTION('',(1.,0.,0.));
#448 = DIRECTION('',(-0.,2.22044604925E-16,1.));
#449 = PCURVE('',#424,#450);
#450 = DEFINITIONAL_REPRESENTATION('',(#451),#455);
#451 = LINE('',#452,#453);
#452 = CARTESIAN_POINT('',(0.,17.02));
#453 = VECTOR('',#454,1.);
#454 = DIRECTION('',(1.,0.));
#455 = ( GEOMETRIC_REPRESENTATION_CONTEXT(2) 
PARAMETRIC_REPRESENTATION_CONTEXT() REPRESENTATION_CONTEXT('2D SPACE',''
  ) );
#456 = PCURVE('',#457,#466);
#457 = SURFACE_OF_REVOLUTION('',#458,#463);
#458 = CIRCLE('',#459,0.68);
#459 = AXIS2_PLACEMENT_3D('',#460,#461,#462);
#460 = CARTESIAN_POINT('',(44.25,2.879918525878E-15,3.87));
#461 = DIRECTION('',(-0.,2.22044604925E-16,1.));
#462 = DIRECTION('',(1.,0.,0.));
#463 = AXIS1_PLACEMENT('',#464,#465);
#464 = CARTESIAN_POINT('',(43.57,2.879918525878E-15,3.87));
#465 = DIRECTION('',(0.,1.,-2.22044604925E-16));
#466 = DEFINITIONAL_REPRESENTATION('',(#467),#470);
#467 = B_SPLINE_CURVE_WITH_KNOTS('',1,(#468,#469),.UNSPECIFIED.,.F.,.F.,
  (2,2),(0.,6.28318530718),.PIECEWISE_BEZIER_KNOTS.);
#468 = CARTESIAN_POINT('',(4.712388980385,6.28318530718));
#469 = CARTESIAN_POINT('',(4.712388980385,0.));
#470 = ( GEOMETRIC_REPRESENTATION_CONTEXT(2) 
PARAMETRIC_REPRESENTATION_CONTEXT() REPRESENTATION_CONTEXT('2D SPACE',''
  ) );
#471 = ORIENTED_EDGE('',*,*,#413,.F.);
#472 = ORIENTED_EDGE('',*,*,#473,.T.);
#473 = EDGE_CURVE('',#414,#414,#474,.T.);
#474 = SURFACE_CURVE('',#475,(#480,#487),.PCURVE_S1.);
#475 = CIRCLE('',#476,0.68);
#476 = AXIS2_PLACEMENT_3D('',#477,#478,#479);
#477 = CARTESIAN_POINT('',(26.55,3.030908857227E-15,4.55));
#478 = DIRECTION('',(1.,0.,0.));
#479 = DIRECTION('',(-0.,2.22044604925E-16,1.));
#480 = PCURVE('',#424,#481);
#481 = DEFINITIONAL_REPRESENTATION('',(#482),#486);
#482 = LINE('',#483,#484);
#483 = CARTESIAN_POINT('',(0.,0.));
#484 = VECTOR('',#485,1.);
#485 = DIRECTION('',(1.,0.));
#486 = ( GEOMETRIC_REPRESENTATION_CONTEXT(2) 
PARAMETRIC_REPRESENTATION_CONTEXT() REPRESENTATION_CONTEXT('2D SPACE',''
  ) );
#487 = PCURVE('',#488,#493);
#488 = PLANE('',#489);
#489 = AXIS2_PLACEMENT_3D('',#490,#491,#492);
#490 = CARTESIAN_POINT('',(26.55,2.914647111798E-15,4.55));
#491 = DIRECTION('',(-1.,1.084660678778E-30,1.876615475223E-29));
#492 = DIRECTION('',(-1.876615475223E-29,0.,-1.));
#493 = DEFINITIONAL_REPRESENTATION('',(#494),#502);
#494 = ( BOUNDED_CURVE() B_SPLINE_CURVE(2,(#495,#496,#497,#498,#499,#500
,#501),.UNSPECIFIED.,.F.,.F.) B_SPLINE_CURVE_WITH_KNOTS((1,2,2,2,2,1),(
    -2.094395102393,0.,2.094395102393,4.188790204786,6.28318530718,
8.377580409573),.UNSPECIFIED.) CURVE() GEOMETRIC_REPRESENTATION_ITEM() 
RATIONAL_B_SPLINE_CURVE((1.,0.5,1.,0.5,1.,0.5,1.)) REPRESENTATION_ITEM(
  '') );
#495 = CARTESIAN_POINT('',(-0.68,-2.67252076778E-16));
#496 = CARTESIAN_POINT('',(-0.68,1.177794549147));
#497 = CARTESIAN_POINT('',(0.34,0.588897274573));
#498 = CARTESIAN_POINT('',(1.36,3.522708819531E-16));
#499 = CARTESIAN_POINT('',(0.34,-0.588897274573));
#500 = CARTESIAN_POINT('',(-0.68,-1.177794549147));
#501 = CARTESIAN_POINT('',(-0.68,-2.67252076778E-16));
#502 = ( GEOMETRIC_REPRESENTATION_CONTEXT(2) 
PARAMETRIC_REPRESENTATION_CONTEXT() REPRESENTATION_CONTEXT('2D SPACE',''
  ) );
#503 = ADVANCED_FACE('',(#504),#457,.T.);
#504 = FACE_BOUND('',#505,.T.);
#505 = EDGE_LOOP('',(#506,#529,#555,#556));
#506 = ORIENTED_EDGE('',*,*,#507,.T.);
#507 = EDGE_CURVE('',#416,#508,#510,.T.);
#508 = VERTEX_POINT('',#509);
#509 = CARTESIAN_POINT('',(44.93,2.879918525878E-15,3.87));
#510 = SEAM_CURVE('',#511,(#516,#523),.PCURVE_S1.);
#511 = CIRCLE('',#512,1.36);
#512 = AXIS2_PLACEMENT_3D('',#513,#514,#515);
#513 = CARTESIAN_POINT('',(43.57,2.879918525878E-15,3.87));
#514 = DIRECTION('',(0.,1.,-2.22044604925E-16));
#515 = DIRECTION('',(1.,0.,0.));
#516 = PCURVE('',#457,#517);
#517 = DEFINITIONAL_REPRESENTATION('',(#518),#522);
#518 = LINE('',#519,#520);
#519 = CARTESIAN_POINT('',(0.,0.));
#520 = VECTOR('',#521,1.);
#521 = DIRECTION('',(1.,0.));
#522 = ( GEOMETRIC_REPRESENTATION_CONTEXT(2) 
PARAMETRIC_REPRESENTATION_CONTEXT() REPRESENTATION_CONTEXT('2D SPACE',''
  ) );
#523 = PCURVE('',#457,#524);
#524 = DEFINITIONAL_REPRESENTATION('',(#525),#528);
#525 = B_SPLINE_CURVE_WITH_KNOTS('',1,(#526,#527),.UNSPECIFIED.,.F.,.F.,
  (2,2),(4.712388980385,6.28318530718),.PIECEWISE_BEZIER_KNOTS.);
#526 = CARTESIAN_POINT('',(4.712388980385,6.28318530718));
#527 = CARTESIAN_POINT('',(6.28318530718,6.28318530718));
#528 = ( GEOMETRIC_REPRESENTATION_CONTEXT(2) 
PARAMETRIC_REPRESENTATION_CONTEXT() REPRESENTATION_CONTEXT('2D SPACE',''
  ) );
#529 = ORIENTED_EDGE('',*,*,#530,.T.);
#530 = EDGE_CURVE('',#508,#508,#531,.T.);
#531 = SURFACE_CURVE('',#532,(#537,#544),.PCURVE_S1.);
#532 = CIRCLE('',#533,0.68);
#533 = AXIS2_PLACEMENT_3D('',#534,#535,#536);
#534 = CARTESIAN_POINT('',(44.25,2.879918525878E-15,3.87));
#535 = DIRECTION('',(-2.449293598295E-16,2.22044604925E-16,1.));
#536 = DIRECTION('',(1.,5.438524293788E-32,2.449293598295E-16));
#537 = PCURVE('',#457,#538);
#538 = DEFINITIONAL_REPRESENTATION('',(#539),#543);
#539 = LINE('',#540,#541);
#540 = CARTESIAN_POINT('',(6.28318530718,0.));
#541 = VECTOR('',#542,1.);
#542 = DIRECTION('',(0.,1.));
#543 = ( GEOMETRIC_REPRESENTATION_CONTEXT(2) 
PARAMETRIC_REPRESENTATION_CONTEXT() REPRESENTATION_CONTEXT('2D SPACE',''
  ) );
#544 = PCURVE('',#545,#550);
#545 = CYLINDRICAL_SURFACE('',#546,0.68);
#546 = AXIS2_PLACEMENT_3D('',#547,#548,#549);
#547 = CARTESIAN_POINT('',(44.25,2.879918525878E-15,3.87));
#548 = DIRECTION('',(0.,-2.22044604925E-16,-1.));
#549 = DIRECTION('',(1.,-1.359631073447E-32,3.018987445473E-48));
#550 = DEFINITIONAL_REPRESENTATION('',(#551),#554);
#551 = B_SPLINE_CURVE_WITH_KNOTS('',1,(#552,#553),.UNSPECIFIED.,.F.,.F.,
  (2,2),(0.,6.28318530718),.PIECEWISE_BEZIER_KNOTS.);
#552 = CARTESIAN_POINT('',(6.28318530718,0.));
#553 = CARTESIAN_POINT('',(0.,0.));
#554 = ( GEOMETRIC_REPRESENTATION_CONTEXT(2) 
PARAMETRIC_REPRESENTATION_CONTEXT() REPRESENTATION_CONTEXT('2D SPACE',''
  ) );
#555 = ORIENTED_EDGE('',*,*,#507,.F.);
#556 = ORIENTED_EDGE('',*,*,#442,.T.);
#557 = ADVANCED_FACE('',(#558),#545,.T.);
#558 = FACE_BOUND('',#559,.T.);
#559 = EDGE_LOOP('',(#560,#582,#613,#614));
#560 = ORIENTED_EDGE('',*,*,#561,.T.);
#561 = EDGE_CURVE('',#508,#562,#564,.T.);
#562 = VERTEX_POINT('',#563);
#563 = CARTESIAN_POINT('',(44.93,2.366582715663E-30,-9.1));
#564 = SEAM_CURVE('',#565,(#569,#576),.PCURVE_S1.);
#565 = LINE('',#566,#567);
#566 = CARTESIAN_POINT('',(44.93,3.046470490562E-15,3.87));
#567 = VECTOR('',#568,1.);
#568 = DIRECTION('',(0.,-2.22044604925E-16,-1.));
#569 = PCURVE('',#545,#570);
#570 = DEFINITIONAL_REPRESENTATION('',(#571),#575);
#571 = LINE('',#572,#573);
#572 = CARTESIAN_POINT('',(6.28318530718,0.));
#573 = VECTOR('',#574,1.);
#574 = DIRECTION('',(0.,1.));
#575 = ( GEOMETRIC_REPRESENTATION_CONTEXT(2) 
PARAMETRIC_REPRESENTATION_CONTEXT() REPRESENTATION_CONTEXT('2D SPACE',''
  ) );
#576 = PCURVE('',#545,#577);
#577 = DEFINITIONAL_REPRESENTATION('',(#578),#581);
#578 = B_SPLINE_CURVE_WITH_KNOTS('',1,(#579,#580),.UNSPECIFIED.,.F.,.F.,
  (2,2),(0.,12.97),.PIECEWISE_BEZIER_KNOTS.);
#579 = CARTESIAN_POINT('',(0.,0.));
#580 = CARTESIAN_POINT('',(0.,12.97));
#581 = ( GEOMETRIC_REPRESENTATION_CONTEXT(2) 
PARAMETRIC_REPRESENTATION_CONTEXT() REPRESENTATION_CONTEXT('2D SPACE',''
  ) );
#582 = ORIENTED_EDGE('',*,*,#583,.F.);
#583 = EDGE_CURVE('',#562,#562,#584,.T.);
#584 = SURFACE_CURVE('',#585,(#590,#597),.PCURVE_S1.);
#585 = CIRCLE('',#586,0.68);
#586 = AXIS2_PLACEMENT_3D('',#587,#588,#589);
#587 = CARTESIAN_POINT('',(44.25,2.366582715663E-30,-9.1));
#588 = DIRECTION('',(0.,-2.22044604925E-16,-1.));
#589 = DIRECTION('',(1.,-1.359631073447E-32,3.018987445473E-48));
#590 = PCURVE('',#545,#591);
#591 = DEFINITIONAL_REPRESENTATION('',(#592),#596);
#592 = LINE('',#593,#594);
#593 = CARTESIAN_POINT('',(0.,12.97));
#594 = VECTOR('',#595,1.);
#595 = DIRECTION('',(1.,0.));
#596 = ( GEOMETRIC_REPRESENTATION_CONTEXT(2) 
PARAMETRIC_REPRESENTATION_CONTEXT() REPRESENTATION_CONTEXT('2D SPACE',''
  ) );
#597 = PCURVE('',#598,#603);
#598 = PLANE('',#599);
#599 = AXIS2_PLACEMENT_3D('',#600,#601,#602);
#600 = CARTESIAN_POINT('',(44.25,4.676520857704E-16,-9.1));
#601 = DIRECTION('',(0.,0.,1.));
#602 = DIRECTION('',(1.,0.,-0.));
#603 = DEFINITIONAL_REPRESENTATION('',(#604),#612);
#604 = ( BOUNDED_CURVE() B_SPLINE_CURVE(2,(#605,#606,#607,#608,#609,#610
,#611),.UNSPECIFIED.,.F.,.F.) B_SPLINE_CURVE_WITH_KNOTS((1,2,2,2,2,1),(
    -2.094395102393,0.,2.094395102393,4.188790204786,6.28318530718,
8.377580409573),.UNSPECIFIED.) CURVE() GEOMETRIC_REPRESENTATION_ITEM() 
RATIONAL_B_SPLINE_CURVE((1.,0.5,1.,0.5,1.,0.5,1.)) REPRESENTATION_ITEM(
  '') );
#605 = CARTESIAN_POINT('',(0.68,-4.676520857704E-16));
#606 = CARTESIAN_POINT('',(0.68,-1.177794549147));
#607 = CARTESIAN_POINT('',(-0.34,-0.588897274573));
#608 = CARTESIAN_POINT('',(-1.36,-6.342040504544E-16));
#609 = CARTESIAN_POINT('',(-0.34,0.588897274573));
#610 = CARTESIAN_POINT('',(0.68,1.177794549147));
#611 = CARTESIAN_POINT('',(0.68,-4.676520857704E-16));
#612 = ( GEOMETRIC_REPRESENTATION_CONTEXT(2) 
PARAMETRIC_REPRESENTATION_CONTEXT() REPRESENTATION_CONTEXT('2D SPACE',''
  ) );
#613 = ORIENTED_EDGE('',*,*,#561,.F.);
#614 = ORIENTED_EDGE('',*,*,#530,.F.);
#615 = ADVANCED_FACE('',(#616),#488,.T.);
#616 = FACE_BOUND('',#617,.T.);
#617 = EDGE_LOOP('',(#618));
#618 = ORIENTED_EDGE('',*,*,#473,.F.);
#619 = ADVANCED_FACE('',(#620),#598,.F.);
#620 = FACE_BOUND('',#621,.F.);
#621 = EDGE_LOOP('',(#622));
#622 = ORIENTED_EDGE('',*,*,#583,.F.);
#623 = ( GEOMETRIC_REPRESENTATION_CONTEXT(3) 
GLOBAL_UNCERTAINTY_ASSIGNED_CONTEXT((#627)) GLOBAL_UNIT_ASSIGNED_CONTEXT
((#624,#625,#626)) REPRESENTATION_CONTEXT('Context #1',
  '3D Context with UNIT and UNCERTAINTY') );
#624 = ( LENGTH_UNIT() NAMED_UNIT(*) SI_UNIT(.MILLI.,.METRE.) );
#625 = ( NAMED_UNIT(*) PLANE_ANGLE_UNIT() SI_UNIT($,.RADIAN.) );
#626 = ( NAMED_UNIT(*) SI_UNIT($,.STERADIAN.) SOLID_ANGLE_UNIT() );
#627 = UNCERTAINTY_MEASURE_WITH_UNIT(LENGTH_MEASURE(1.E-07),#624,
  'distance_accuracy_value','confusion accuracy');
#628 = SHAPE_DEFINITION_REPRESENTATION(#629,#406);
#629 = PRODUCT_DEFINITION_SHAPE('','',#630);
#630 = PRODUCT_DEFINITION('design','',#631,#634);
#631 = PRODUCT_DEFINITION_FORMATION('','',#632);
#632 = PRODUCT('Sweep2','Sweep2','',(#633));
#633 = PRODUCT_CONTEXT('',#2,'mechanical');
#634 = PRODUCT_DEFINITION_CONTEXT('part definition',#2,'design');
#635 = CONTEXT_DEPENDENT_SHAPE_REPRESENTATION(#636,#638);
#636 = ( REPRESENTATION_RELATIONSHIP('','',#406,#10) 
REPRESENTATION_RELATIONSHIP_WITH_TRANSFORMATION(#637) 
SHAPE_REPRESENTATION_RELATIONSHIP() );
#637 = ITEM_DEFINED_TRANSFORMATION('','',#11,#23);
#638 = PRODUCT_DEFINITION_SHAPE('Placement','Placement of an item',#639
  );
#639 = NEXT_ASSEMBLY_USAGE_OCCURRENCE('3','=>[0:1:1:4]','',#5,#630,$);
#640 = PRODUCT_RELATED_PRODUCT_CATEGORY('part',$,(#632));
#641 = MECHANICAL_DESIGN_GEOMETRIC_PRESENTATION_REPRESENTATION('',(#642)
  ,#623);
#642 = STYLED_ITEM('color',(#643),#407);
#643 = PRESENTATION_STYLE_ASSIGNMENT((#644,#650));
#644 = SURFACE_STYLE_USAGE(.BOTH.,#645);
#645 = SURFACE_SIDE_STYLE('',(#646));
#646 = SURFACE_STYLE_FILL_AREA(#647);
#647 = FILL_AREA_STYLE('',(#648));
#648 = FILL_AREA_STYLE_COLOUR('',#649);
#649 = COLOUR_RGB('',0.73400002718,0.773000001907,0.79699999094);
#650 = CURVE_STYLE('',#651,POSITIVE_LENGTH_MEASURE(0.1),#649);
#651 = DRAUGHTING_PRE_DEFINED_CURVE_FONT('continuous');
#652 = MECHANICAL_DESIGN_GEOMETRIC_PRESENTATION_REPRESENTATION('',(#653)
  ,#185);
#653 = STYLED_ITEM('color',(#654),#34);
#654 = PRESENTATION_STYLE_ASSIGNMENT((#655,#661));
#655 = SURFACE_STYLE_USAGE(.BOTH.,#656);
#656 = SURFACE_SIDE_STYLE('',(#657));
#657 = SURFACE_STYLE_FILL_AREA(#658);
#658 = FILL_AREA_STYLE('',(#659));
#659 = FILL_AREA_STYLE_COLOUR('',#660);
#660 = COLOUR_RGB('',0.20000000298,0.20000000298,0.20000000298);
#661 = CURVE_STYLE('',#662,POSITIVE_LENGTH_MEASURE(0.1),#660);
#662 = DRAUGHTING_PRE_DEFINED_CURVE_FONT('continuous');
#663 = MECHANICAL_DESIGN_GEOMETRIC_PRESENTATION_REPRESENTATION('',(#664)
  ,#388);
#664 = STYLED_ITEM('color',(#665),#204);
#665 = PRESENTATION_STYLE_ASSIGNMENT((#666,#671));
#666 = SURFACE_STYLE_USAGE(.BOTH.,#667);
#667 = SURFACE_SIDE_STYLE('',(#668));
#668 = SURFACE_STYLE_FILL_AREA(#669);
#669 = FILL_AREA_STYLE('',(#670));
#670 = FILL_AREA_STYLE_COLOUR('',#649);
#671 = CURVE_STYLE('',#672,POSITIVE_LENGTH_MEASURE(0.1),#649);
#672 = DRAUGHTING_PRE_DEFINED_CURVE_FONT('continuous');
ENDSEC;
END-ISO-10303-21;
