ISO-10303-21;
HEADER;
FILE_DESCRIPTION((''),'2;1');
FILE_NAME('DFG0004A_ASM','2021-08-09T09:24:39',('a0412086'),(''),
'CREO PARAMETRIC BY PTC INC, 2018500','CREO PARAMETRIC BY PTC INC, 2018500','');
FILE_SCHEMA(('CONFIG_CONTROL_DESIGN','SHAPE_APPEARANCE_LAYERS_GROUPS'));
ENDSEC;
DATA;
#29=DIRECTION('',(0.E0,0.E0,1.E0));
#30=VECTOR('',#29,3.51E0);
#31=CARTESIAN_POINT('',(2.000507628871E0,-9.25E-1,-1.755E0));
#32=LINE('',#31,#30);
#33=DRAUGHTING_PRE_DEFINED_CURVE_FONT('continuous');
#34=CURVE_STYLE('',#33,POSITIVE_LENGTH_MEASURE(2.E-2),#3);
#35=PRESENTATION_STYLE_ASSIGNMENT((#34));
#36=STYLED_ITEM('',(#35),#32);
#37=DIRECTION('',(-1.E0,0.E0,0.E0));
#38=VECTOR('',#37,4.001015257742E0);
#39=CARTESIAN_POINT('',(2.000507628871E0,-9.25E-1,-1.755E0));
#40=LINE('',#39,#38);
#41=CURVE_STYLE('',#33,POSITIVE_LENGTH_MEASURE(2.E-2),#3);
#42=PRESENTATION_STYLE_ASSIGNMENT((#41));
#43=STYLED_ITEM('',(#42),#40);
#44=DIRECTION('',(0.E0,0.E0,-1.E0));
#45=VECTOR('',#44,3.51E0);
#46=CARTESIAN_POINT('',(-2.000507628871E0,-9.25E-1,1.755E0));
#47=LINE('',#46,#45);
#48=CURVE_STYLE('',#33,POSITIVE_LENGTH_MEASURE(2.E-2),#3);
#49=PRESENTATION_STYLE_ASSIGNMENT((#48));
#50=STYLED_ITEM('',(#49),#47);
#51=DIRECTION('',(1.E0,0.E0,0.E0));
#52=VECTOR('',#51,4.001015257742E0);
#53=CARTESIAN_POINT('',(-2.000507628871E0,-9.25E-1,1.755E0));
#54=LINE('',#53,#52);
#55=CURVE_STYLE('',#33,POSITIVE_LENGTH_MEASURE(2.E-2),#3);
#56=PRESENTATION_STYLE_ASSIGNMENT((#55));
#57=STYLED_ITEM('',(#56),#54);
#58=CARTESIAN_POINT('',(1.893327951899E0,9.25E-1,1.755E0));
#59=DIRECTION('',(0.E0,0.E0,1.E0));
#60=DIRECTION('',(9.659258262891E-1,2.588190451025E-1,0.E0));
#61=AXIS2_PLACEMENT_3D('',#58,#59,#60);
#63=CURVE_STYLE('',#33,POSITIVE_LENGTH_MEASURE(2.E-2),#3);
#64=PRESENTATION_STYLE_ASSIGNMENT((#63));
#65=STYLED_ITEM('',(#64),#62);
#66=CARTESIAN_POINT('',(2.000507628871E0,-6.75E-1,1.755E0));
#67=DIRECTION('',(0.E0,0.E0,1.E0));
#68=DIRECTION('',(0.E0,-1.E0,0.E0));
#69=AXIS2_PLACEMENT_3D('',#66,#67,#68);
#71=CURVE_STYLE('',#33,POSITIVE_LENGTH_MEASURE(2.E-2),#3);
#72=PRESENTATION_STYLE_ASSIGNMENT((#71));
#73=STYLED_ITEM('',(#72),#70);
#74=CARTESIAN_POINT('',(-2.000507628871E0,-6.75E-1,1.755E0));
#75=DIRECTION('',(0.E0,0.E0,1.E0));
#76=DIRECTION('',(-9.659258262891E-1,-2.588190451025E-1,0.E0));
#77=AXIS2_PLACEMENT_3D('',#74,#75,#76);
#79=CURVE_STYLE('',#33,POSITIVE_LENGTH_MEASURE(2.E-2),#3);
#80=PRESENTATION_STYLE_ASSIGNMENT((#79));
#81=STYLED_ITEM('',(#80),#78);
#82=DIRECTION('',(-2.588190451025E-1,9.659258262891E-1,0.E0));
#83=VECTOR('',#82,6.105072928231E-1);
#84=CARTESIAN_POINT('',(-2.241989085443E0,-7.397047612756E-1,1.755E0));
#85=LINE('',#84,#83);
#86=CURVE_STYLE('',#33,POSITIVE_LENGTH_MEASURE(2.E-2),#3);
#87=PRESENTATION_STYLE_ASSIGNMENT((#86));
#88=STYLED_ITEM('',(#87),#85);
#89=DIRECTION('',(0.E0,1.E0,0.E0));
#90=VECTOR('',#89,1.5E-1);
#91=CARTESIAN_POINT('',(-2.4E0,-1.5E-1,1.755E0));
#92=LINE('',#91,#90);
#93=CURVE_STYLE('',#33,POSITIVE_LENGTH_MEASURE(2.E-2),#3);
#94=PRESENTATION_STYLE_ASSIGNMENT((#93));
#95=STYLED_ITEM('',(#94),#92);
#96=DIRECTION('',(2.588190451025E-1,9.659258262891E-1,0.E0));
#97=VECTOR('',#96,1.024617764987E0);
#98=CARTESIAN_POINT('',(-2.4E0,0.E0,1.755E0));
#99=LINE('',#98,#97);
#100=CURVE_STYLE('',#33,POSITIVE_LENGTH_MEASURE(2.E-2),#3);
#101=PRESENTATION_STYLE_ASSIGNMENT((#100));
#102=STYLED_ITEM('',(#101),#99);
#103=CARTESIAN_POINT('',(-1.893327951899E0,9.25E-1,1.755E0));
#104=DIRECTION('',(0.E0,0.E0,1.E0));
#105=DIRECTION('',(0.E0,1.E0,0.E0));
#106=AXIS2_PLACEMENT_3D('',#103,#104,#105);
#108=CURVE_STYLE('',#33,POSITIVE_LENGTH_MEASURE(2.E-2),#3);
#109=PRESENTATION_STYLE_ASSIGNMENT((#108));
#110=STYLED_ITEM('',(#109),#107);
#111=CARTESIAN_POINT('',(1.893327951899E0,9.25E-1,-1.755E0));
#112=DIRECTION('',(0.E0,0.E0,-1.E0));
#113=DIRECTION('',(0.E0,1.E0,0.E0));
#114=AXIS2_PLACEMENT_3D('',#111,#112,#113);
#116=CURVE_STYLE('',#33,POSITIVE_LENGTH_MEASURE(2.E-2),#3);
#117=PRESENTATION_STYLE_ASSIGNMENT((#116));
#118=STYLED_ITEM('',(#117),#115);
#119=CARTESIAN_POINT('',(-1.893327951899E0,9.25E-1,-1.755E0));
#120=DIRECTION('',(0.E0,0.E0,-1.E0));
#121=DIRECTION('',(-9.659258262891E-1,2.588190451025E-1,0.E0));
#122=AXIS2_PLACEMENT_3D('',#119,#120,#121);
#124=CURVE_STYLE('',#33,POSITIVE_LENGTH_MEASURE(2.E-2),#3);
#125=PRESENTATION_STYLE_ASSIGNMENT((#124));
#126=STYLED_ITEM('',(#125),#123);
#127=CARTESIAN_POINT('',(-2.000507628871E0,-6.75E-1,-1.755E0));
#128=DIRECTION('',(0.E0,0.E0,-1.E0));
#129=DIRECTION('',(0.E0,-1.E0,0.E0));
#130=AXIS2_PLACEMENT_3D('',#127,#128,#129);
#132=CURVE_STYLE('',#33,POSITIVE_LENGTH_MEASURE(2.E-2),#3);
#133=PRESENTATION_STYLE_ASSIGNMENT((#132));
#134=STYLED_ITEM('',(#133),#131);
#135=CARTESIAN_POINT('',(2.000507628871E0,-6.75E-1,-1.755E0));
#136=DIRECTION('',(0.E0,0.E0,-1.E0));
#137=DIRECTION('',(9.659258262891E-1,-2.588190451025E-1,0.E0));
#138=AXIS2_PLACEMENT_3D('',#135,#136,#137);
#140=CURVE_STYLE('',#33,POSITIVE_LENGTH_MEASURE(2.E-2),#3);
#141=PRESENTATION_STYLE_ASSIGNMENT((#140));
#142=STYLED_ITEM('',(#141),#139);
#143=DIRECTION('',(2.588190451025E-1,9.659258262891E-1,0.E0));
#144=VECTOR('',#143,6.105072928231E-1);
#145=CARTESIAN_POINT('',(2.241989085443E0,-7.397047612756E-1,-1.755E0));
#146=LINE('',#145,#144);
#147=CURVE_STYLE('',#33,POSITIVE_LENGTH_MEASURE(2.E-2),#3);
#148=PRESENTATION_STYLE_ASSIGNMENT((#147));
#149=STYLED_ITEM('',(#148),#146);
#150=DIRECTION('',(0.E0,1.E0,0.E0));
#151=VECTOR('',#150,1.5E-1);
#152=CARTESIAN_POINT('',(2.4E0,-1.5E-1,-1.755E0));
#153=LINE('',#152,#151);
#154=CURVE_STYLE('',#33,POSITIVE_LENGTH_MEASURE(2.E-2),#3);
#155=PRESENTATION_STYLE_ASSIGNMENT((#154));
#156=STYLED_ITEM('',(#155),#153);
#157=DIRECTION('',(-2.588190451025E-1,9.659258262891E-1,0.E0));
#158=VECTOR('',#157,1.024617764987E0);
#159=CARTESIAN_POINT('',(2.4E0,0.E0,-1.755E0));
#160=LINE('',#159,#158);
#161=CURVE_STYLE('',#33,POSITIVE_LENGTH_MEASURE(2.E-2),#3);
#162=PRESENTATION_STYLE_ASSIGNMENT((#161));
#163=STYLED_ITEM('',(#162),#160);
#164=DIRECTION('',(0.E0,0.E0,-1.E0));
#165=VECTOR('',#164,3.51E0);
#166=CARTESIAN_POINT('',(1.893327951899E0,1.175E0,1.755E0));
#167=LINE('',#166,#165);
#168=CURVE_STYLE('',#33,POSITIVE_LENGTH_MEASURE(2.E-2),#3);
#169=PRESENTATION_STYLE_ASSIGNMENT((#168));
#170=STYLED_ITEM('',(#169),#167);
#171=DIRECTION('',(1.E0,0.E0,0.E0));
#172=VECTOR('',#171,3.786655903797E0);
#173=CARTESIAN_POINT('',(-1.893327951899E0,1.175E0,1.755E0));
#174=LINE('',#173,#172);
#175=CURVE_STYLE('',#33,POSITIVE_LENGTH_MEASURE(2.E-2),#3);
#176=PRESENTATION_STYLE_ASSIGNMENT((#175));
#177=STYLED_ITEM('',(#176),#174);
#178=DIRECTION('',(0.E0,0.E0,1.E0));
#179=VECTOR('',#178,3.51E0);
#180=CARTESIAN_POINT('',(-1.893327951899E0,1.175E0,-1.755E0));
#181=LINE('',#180,#179);
#182=CURVE_STYLE('',#33,POSITIVE_LENGTH_MEASURE(2.E-2),#3);
#183=PRESENTATION_STYLE_ASSIGNMENT((#182));
#184=STYLED_ITEM('',(#183),#181);
#185=DIRECTION('',(-1.E0,0.E0,0.E0));
#186=VECTOR('',#185,3.786655903797E0);
#187=CARTESIAN_POINT('',(1.893327951899E0,1.175E0,-1.755E0));
#188=LINE('',#187,#186);
#189=CURVE_STYLE('',#33,POSITIVE_LENGTH_MEASURE(2.E-2),#3);
#190=PRESENTATION_STYLE_ASSIGNMENT((#189));
#191=STYLED_ITEM('',(#190),#188);
#192=DIRECTION('',(0.E0,0.E0,1.E0));
#193=VECTOR('',#192,3.51E0);
#194=CARTESIAN_POINT('',(-2.134809408471E0,9.897047612756E-1,-1.755E0));
#195=LINE('',#194,#193);
#196=CURVE_STYLE('',#33,POSITIVE_LENGTH_MEASURE(2.E-2),#3);
#197=PRESENTATION_STYLE_ASSIGNMENT((#196));
#198=STYLED_ITEM('',(#197),#195);
#199=DIRECTION('',(0.E0,0.E0,1.E0));
#200=VECTOR('',#199,3.51E0);
#201=CARTESIAN_POINT('',(-2.4E0,0.E0,-1.755E0));
#202=LINE('',#201,#200);
#203=CURVE_STYLE('',#33,POSITIVE_LENGTH_MEASURE(2.E-2),#3);
#204=PRESENTATION_STYLE_ASSIGNMENT((#203));
#205=STYLED_ITEM('',(#204),#202);
#206=DIRECTION('',(2.588190451025E-1,9.659258262891E-1,0.E0));
#207=VECTOR('',#206,1.024617764987E0);
#208=CARTESIAN_POINT('',(-2.4E0,0.E0,-1.755E0));
#209=LINE('',#208,#207);
#210=CURVE_STYLE('',#33,POSITIVE_LENGTH_MEASURE(2.E-2),#3);
#211=PRESENTATION_STYLE_ASSIGNMENT((#210));
#212=STYLED_ITEM('',(#211),#209);
#213=DIRECTION('',(0.E0,0.E0,1.E0));
#214=VECTOR('',#213,3.51E0);
#215=CARTESIAN_POINT('',(-2.4E0,-1.5E-1,-1.755E0));
#216=LINE('',#215,#214);
#217=CURVE_STYLE('',#33,POSITIVE_LENGTH_MEASURE(2.E-2),#3);
#218=PRESENTATION_STYLE_ASSIGNMENT((#217));
#219=STYLED_ITEM('',(#218),#216);
#220=DIRECTION('',(0.E0,1.E0,0.E0));
#221=VECTOR('',#220,1.5E-1);
#222=CARTESIAN_POINT('',(-2.4E0,-1.5E-1,-1.755E0));
#223=LINE('',#222,#221);
#224=CURVE_STYLE('',#33,POSITIVE_LENGTH_MEASURE(2.E-2),#3);
#225=PRESENTATION_STYLE_ASSIGNMENT((#224));
#226=STYLED_ITEM('',(#225),#223);
#227=DIRECTION('',(0.E0,0.E0,-1.E0));
#228=VECTOR('',#227,3.51E0);
#229=CARTESIAN_POINT('',(-2.241989085443E0,-7.397047612756E-1,1.755E0));
#230=LINE('',#229,#228);
#231=CURVE_STYLE('',#33,POSITIVE_LENGTH_MEASURE(2.E-2),#3);
#232=PRESENTATION_STYLE_ASSIGNMENT((#231));
#233=STYLED_ITEM('',(#232),#230);
#234=DIRECTION('',(-2.588190451025E-1,9.659258262891E-1,0.E0));
#235=VECTOR('',#234,6.105072928231E-1);
#236=CARTESIAN_POINT('',(-2.241989085443E0,-7.397047612756E-1,-1.755E0));
#237=LINE('',#236,#235);
#238=CURVE_STYLE('',#33,POSITIVE_LENGTH_MEASURE(2.E-2),#3);
#239=PRESENTATION_STYLE_ASSIGNMENT((#238));
#240=STYLED_ITEM('',(#239),#237);
#241=DIRECTION('',(0.E0,0.E0,1.E0));
#242=VECTOR('',#241,3.51E0);
#243=CARTESIAN_POINT('',(2.241989085443E0,-7.397047612756E-1,-1.755E0));
#244=LINE('',#243,#242);
#245=CURVE_STYLE('',#33,POSITIVE_LENGTH_MEASURE(2.E-2),#3);
#246=PRESENTATION_STYLE_ASSIGNMENT((#245));
#247=STYLED_ITEM('',(#246),#244);
#248=DIRECTION('',(2.588190451025E-1,9.659258262891E-1,0.E0));
#249=VECTOR('',#248,6.105072928231E-1);
#250=CARTESIAN_POINT('',(2.241989085443E0,-7.397047612756E-1,1.755E0));
#251=LINE('',#250,#249);
#252=CURVE_STYLE('',#33,POSITIVE_LENGTH_MEASURE(2.E-2),#3);
#253=PRESENTATION_STYLE_ASSIGNMENT((#252));
#254=STYLED_ITEM('',(#253),#251);
#255=DIRECTION('',(0.E0,0.E0,-1.E0));
#256=VECTOR('',#255,3.51E0);
#257=CARTESIAN_POINT('',(2.4E0,-1.5E-1,1.755E0));
#258=LINE('',#257,#256);
#259=CURVE_STYLE('',#33,POSITIVE_LENGTH_MEASURE(2.E-2),#3);
#260=PRESENTATION_STYLE_ASSIGNMENT((#259));
#261=STYLED_ITEM('',(#260),#258);
#262=DIRECTION('',(0.E0,1.E0,0.E0));
#263=VECTOR('',#262,1.5E-1);
#264=CARTESIAN_POINT('',(2.4E0,-1.5E-1,1.755E0));
#265=LINE('',#264,#263);
#266=CURVE_STYLE('',#33,POSITIVE_LENGTH_MEASURE(2.E-2),#3);
#267=PRESENTATION_STYLE_ASSIGNMENT((#266));
#268=STYLED_ITEM('',(#267),#265);
#269=DIRECTION('',(0.E0,0.E0,-1.E0));
#270=VECTOR('',#269,3.51E0);
#271=CARTESIAN_POINT('',(2.134809408471E0,9.897047612756E-1,1.755E0));
#272=LINE('',#271,#270);
#273=CURVE_STYLE('',#33,POSITIVE_LENGTH_MEASURE(2.E-2),#3);
#274=PRESENTATION_STYLE_ASSIGNMENT((#273));
#275=STYLED_ITEM('',(#274),#272);
#276=DIRECTION('',(0.E0,0.E0,-1.E0));
#277=VECTOR('',#276,3.51E0);
#278=CARTESIAN_POINT('',(2.4E0,0.E0,1.755E0));
#279=LINE('',#278,#277);
#280=CURVE_STYLE('',#33,POSITIVE_LENGTH_MEASURE(2.E-2),#3);
#281=PRESENTATION_STYLE_ASSIGNMENT((#280));
#282=STYLED_ITEM('',(#281),#279);
#283=DIRECTION('',(-2.588190451025E-1,9.659258262891E-1,0.E0));
#284=VECTOR('',#283,1.024617764987E0);
#285=CARTESIAN_POINT('',(2.4E0,0.E0,1.755E0));
#286=LINE('',#285,#284);
#287=CURVE_STYLE('',#33,POSITIVE_LENGTH_MEASURE(2.E-2),#3);
#288=PRESENTATION_STYLE_ASSIGNMENT((#287));
#289=STYLED_ITEM('',(#288),#286);
#290=CARTESIAN_POINT('',(2.4E0,0.E0,1.755E0));
#291=CARTESIAN_POINT('',(2.4E0,0.E0,-1.755E0));
#292=VERTEX_POINT('',#290);
#293=VERTEX_POINT('',#291);
#294=CARTESIAN_POINT('',(-2.4E0,0.E0,-1.755E0));
#295=CARTESIAN_POINT('',(-2.4E0,0.E0,1.755E0));
#296=VERTEX_POINT('',#294);
#297=VERTEX_POINT('',#295);
#298=CARTESIAN_POINT('',(2.4E0,-1.5E-1,1.755E0));
#299=CARTESIAN_POINT('',(2.4E0,-1.5E-1,-1.755E0));
#300=VERTEX_POINT('',#298);
#301=VERTEX_POINT('',#299);
#302=CARTESIAN_POINT('',(-2.4E0,-1.5E-1,-1.755E0));
#303=CARTESIAN_POINT('',(-2.4E0,-1.5E-1,1.755E0));
#304=VERTEX_POINT('',#302);
#305=VERTEX_POINT('',#303);
#306=CARTESIAN_POINT('',(1.893327951899E0,1.175E0,-1.755E0));
#307=CARTESIAN_POINT('',(2.134809408471E0,9.897047612756E-1,-1.755E0));
#308=VERTEX_POINT('',#306);
#309=VERTEX_POINT('',#307);
#310=CARTESIAN_POINT('',(2.134809408471E0,9.897047612756E-1,1.755E0));
#311=VERTEX_POINT('',#310);
#312=CARTESIAN_POINT('',(1.893327951899E0,1.175E0,1.755E0));
#313=VERTEX_POINT('',#312);
#314=CARTESIAN_POINT('',(-1.893327951899E0,1.175E0,1.755E0));
#315=CARTESIAN_POINT('',(-2.134809408471E0,9.897047612756E-1,1.755E0));
#316=VERTEX_POINT('',#314);
#317=VERTEX_POINT('',#315);
#318=CARTESIAN_POINT('',(-2.134809408471E0,9.897047612756E-1,-1.755E0));
#319=VERTEX_POINT('',#318);
#320=CARTESIAN_POINT('',(-1.893327951899E0,1.175E0,-1.755E0));
#321=VERTEX_POINT('',#320);
#322=CARTESIAN_POINT('',(2.000507628871E0,-9.25E-1,1.755E0));
#323=CARTESIAN_POINT('',(2.241989085443E0,-7.397047612756E-1,1.755E0));
#324=VERTEX_POINT('',#322);
#325=VERTEX_POINT('',#323);
#326=CARTESIAN_POINT('',(2.241989085443E0,-7.397047612756E-1,-1.755E0));
#327=VERTEX_POINT('',#326);
#328=CARTESIAN_POINT('',(2.000507628871E0,-9.25E-1,-1.755E0));
#329=VERTEX_POINT('',#328);
#330=CARTESIAN_POINT('',(-2.000507628871E0,-9.25E-1,-1.755E0));
#331=CARTESIAN_POINT('',(-2.241989085443E0,-7.397047612756E-1,-1.755E0));
#332=VERTEX_POINT('',#330);
#333=VERTEX_POINT('',#331);
#334=CARTESIAN_POINT('',(-2.241989085443E0,-7.397047612756E-1,1.755E0));
#335=VERTEX_POINT('',#334);
#336=CARTESIAN_POINT('',(-2.000507628871E0,-9.25E-1,1.755E0));
#337=VERTEX_POINT('',#336);
#338=CARTESIAN_POINT('',(0.E0,-9.25E-1,0.E0));
#339=DIRECTION('',(0.E0,1.E0,0.E0));
#340=DIRECTION('',(1.E0,0.E0,0.E0));
#341=AXIS2_PLACEMENT_3D('',#338,#339,#340);
#342=PLANE('',#341);
#344=ORIENTED_EDGE('',*,*,#343,.F.);
#346=ORIENTED_EDGE('',*,*,#345,.T.);
#348=ORIENTED_EDGE('',*,*,#347,.F.);
#350=ORIENTED_EDGE('',*,*,#349,.T.);
#351=EDGE_LOOP('',(#344,#346,#348,#350));
#352=FACE_OUTER_BOUND('',#351,.F.);
#353=ADVANCED_FACE('',(#352),#342,.F.);
#354=CARTESIAN_POINT('',(2.000507628871E0,-6.75E-1,-6.330636E0));
#355=DIRECTION('',(0.E0,0.E0,1.E0));
#356=DIRECTION('',(0.E0,-1.E0,0.E0));
#357=AXIS2_PLACEMENT_3D('',#354,#355,#356);
#358=CYLINDRICAL_SURFACE('',#357,2.5E-1);
#360=ORIENTED_EDGE('',*,*,#359,.T.);
#362=ORIENTED_EDGE('',*,*,#361,.F.);
#364=ORIENTED_EDGE('',*,*,#363,.T.);
#365=ORIENTED_EDGE('',*,*,#343,.T.);
#366=EDGE_LOOP('',(#360,#362,#364,#365));
#367=FACE_OUTER_BOUND('',#366,.F.);
#368=ADVANCED_FACE('',(#367),#358,.T.);
#369=CARTESIAN_POINT('',(-2.4E0,-9.25E-1,1.755E0));
#370=DIRECTION('',(0.E0,0.E0,1.E0));
#371=DIRECTION('',(1.E0,0.E0,0.E0));
#372=AXIS2_PLACEMENT_3D('',#369,#370,#371);
#373=PLANE('',#372);
#375=ORIENTED_EDGE('',*,*,#374,.F.);
#377=ORIENTED_EDGE('',*,*,#376,.F.);
#379=ORIENTED_EDGE('',*,*,#378,.F.);
#381=ORIENTED_EDGE('',*,*,#380,.F.);
#382=ORIENTED_EDGE('',*,*,#359,.F.);
#383=ORIENTED_EDGE('',*,*,#349,.F.);
#385=ORIENTED_EDGE('',*,*,#384,.F.);
#387=ORIENTED_EDGE('',*,*,#386,.T.);
#389=ORIENTED_EDGE('',*,*,#388,.T.);
#391=ORIENTED_EDGE('',*,*,#390,.T.);
#393=ORIENTED_EDGE('',*,*,#392,.F.);
#395=ORIENTED_EDGE('',*,*,#394,.T.);
#396=EDGE_LOOP('',(#375,#377,#379,#381,#382,#383,#385,#387,#389,#391,#393,
#395));
#397=FACE_OUTER_BOUND('',#396,.F.);
#398=ADVANCED_FACE('',(#397),#373,.T.);
#399=CARTESIAN_POINT('',(1.893327951899E0,9.25E-1,6.330636E0));
#400=DIRECTION('',(0.E0,0.E0,-1.E0));
#401=DIRECTION('',(0.E0,1.E0,0.E0));
#402=AXIS2_PLACEMENT_3D('',#399,#400,#401);
#403=CYLINDRICAL_SURFACE('',#402,2.5E-1);
#405=ORIENTED_EDGE('',*,*,#404,.T.);
#407=ORIENTED_EDGE('',*,*,#406,.F.);
#408=ORIENTED_EDGE('',*,*,#374,.T.);
#410=ORIENTED_EDGE('',*,*,#409,.T.);
#411=EDGE_LOOP('',(#405,#407,#408,#410));
#412=FACE_OUTER_BOUND('',#411,.F.);
#413=ADVANCED_FACE('',(#412),#403,.T.);
#414=CARTESIAN_POINT('',(2.4E0,-9.25E-1,-1.755E0));
#415=DIRECTION('',(0.E0,0.E0,-1.E0));
#416=DIRECTION('',(-1.E0,0.E0,0.E0));
#417=AXIS2_PLACEMENT_3D('',#414,#415,#416);
#418=PLANE('',#417);
#419=ORIENTED_EDGE('',*,*,#404,.F.);
#421=ORIENTED_EDGE('',*,*,#420,.T.);
#423=ORIENTED_EDGE('',*,*,#422,.F.);
#425=ORIENTED_EDGE('',*,*,#424,.F.);
#427=ORIENTED_EDGE('',*,*,#426,.F.);
#429=ORIENTED_EDGE('',*,*,#428,.F.);
#431=ORIENTED_EDGE('',*,*,#430,.F.);
#432=ORIENTED_EDGE('',*,*,#345,.F.);
#433=ORIENTED_EDGE('',*,*,#363,.F.);
#435=ORIENTED_EDGE('',*,*,#434,.T.);
#437=ORIENTED_EDGE('',*,*,#436,.T.);
#439=ORIENTED_EDGE('',*,*,#438,.T.);
#440=EDGE_LOOP('',(#419,#421,#423,#425,#427,#429,#431,#432,#433,#435,#437,
#439));
#441=FACE_OUTER_BOUND('',#440,.F.);
#442=ADVANCED_FACE('',(#441),#418,.T.);
#443=CARTESIAN_POINT('',(0.E0,1.175E0,0.E0));
#444=DIRECTION('',(0.E0,1.E0,0.E0));
#445=DIRECTION('',(1.E0,0.E0,0.E0));
#446=AXIS2_PLACEMENT_3D('',#443,#444,#445);
#447=PLANE('',#446);
#448=ORIENTED_EDGE('',*,*,#409,.F.);
#449=ORIENTED_EDGE('',*,*,#394,.F.);
#451=ORIENTED_EDGE('',*,*,#450,.F.);
#452=ORIENTED_EDGE('',*,*,#420,.F.);
#453=EDGE_LOOP('',(#448,#449,#451,#452));
#454=FACE_OUTER_BOUND('',#453,.F.);
#455=ADVANCED_FACE('',(#454),#447,.T.);
#456=CARTESIAN_POINT('',(-1.893327951899E0,9.25E-1,-6.330636E0));
#457=DIRECTION('',(0.E0,0.E0,1.E0));
#458=DIRECTION('',(0.E0,1.E0,0.E0));
#459=AXIS2_PLACEMENT_3D('',#456,#457,#458);
#460=CYLINDRICAL_SURFACE('',#459,2.5E-1);
#461=ORIENTED_EDGE('',*,*,#392,.T.);
#463=ORIENTED_EDGE('',*,*,#462,.F.);
#464=ORIENTED_EDGE('',*,*,#422,.T.);
#465=ORIENTED_EDGE('',*,*,#450,.T.);
#466=EDGE_LOOP('',(#461,#463,#464,#465));
#467=FACE_OUTER_BOUND('',#466,.F.);
#468=ADVANCED_FACE('',(#467),#460,.T.);
#469=CARTESIAN_POINT('',(-2.4E0,0.E0,-1.755E0));
#470=DIRECTION('',(-9.659258262891E-1,2.588190451025E-1,0.E0));
#471=DIRECTION('',(0.E0,0.E0,1.E0));
#472=AXIS2_PLACEMENT_3D('',#469,#470,#471);
#473=PLANE('',#472);
#474=ORIENTED_EDGE('',*,*,#462,.T.);
#475=ORIENTED_EDGE('',*,*,#390,.F.);
#477=ORIENTED_EDGE('',*,*,#476,.F.);
#478=ORIENTED_EDGE('',*,*,#424,.T.);
#479=EDGE_LOOP('',(#474,#475,#477,#478));
#480=FACE_OUTER_BOUND('',#479,.F.);
#481=ADVANCED_FACE('',(#480),#473,.T.);
#482=CARTESIAN_POINT('',(-2.4E0,-9.25E-1,-1.755E0));
#483=DIRECTION('',(-1.E0,0.E0,0.E0));
#484=DIRECTION('',(0.E0,0.E0,1.E0));
#485=AXIS2_PLACEMENT_3D('',#482,#483,#484);
#486=PLANE('',#485);
#488=ORIENTED_EDGE('',*,*,#487,.F.);
#489=ORIENTED_EDGE('',*,*,#426,.T.);
#490=ORIENTED_EDGE('',*,*,#476,.T.);
#491=ORIENTED_EDGE('',*,*,#388,.F.);
#492=EDGE_LOOP('',(#488,#489,#490,#491));
#493=FACE_OUTER_BOUND('',#492,.F.);
#494=ADVANCED_FACE('',(#493),#486,.T.);
#495=CARTESIAN_POINT('',(-2.4E0,-1.5E-1,-1.755E0));
#496=DIRECTION('',(-9.659258262891E-1,-2.588190451025E-1,0.E0));
#497=DIRECTION('',(0.E0,0.E0,1.E0));
#498=AXIS2_PLACEMENT_3D('',#495,#496,#497);
#499=PLANE('',#498);
#501=ORIENTED_EDGE('',*,*,#500,.T.);
#502=ORIENTED_EDGE('',*,*,#428,.T.);
#503=ORIENTED_EDGE('',*,*,#487,.T.);
#504=ORIENTED_EDGE('',*,*,#386,.F.);
#505=EDGE_LOOP('',(#501,#502,#503,#504));
#506=FACE_OUTER_BOUND('',#505,.F.);
#507=ADVANCED_FACE('',(#506),#499,.T.);
#508=CARTESIAN_POINT('',(-2.000507628871E0,-6.75E-1,6.330636E0));
#509=DIRECTION('',(0.E0,0.E0,-1.E0));
#510=DIRECTION('',(0.E0,-1.E0,0.E0));
#511=AXIS2_PLACEMENT_3D('',#508,#509,#510);
#512=CYLINDRICAL_SURFACE('',#511,2.5E-1);
#513=ORIENTED_EDGE('',*,*,#430,.T.);
#514=ORIENTED_EDGE('',*,*,#500,.F.);
#515=ORIENTED_EDGE('',*,*,#384,.T.);
#516=ORIENTED_EDGE('',*,*,#347,.T.);
#517=EDGE_LOOP('',(#513,#514,#515,#516));
#518=FACE_OUTER_BOUND('',#517,.F.);
#519=ADVANCED_FACE('',(#518),#512,.T.);
#520=CARTESIAN_POINT('',(2.4E0,-1.5E-1,1.755E0));
#521=DIRECTION('',(9.659258262891E-1,-2.588190451025E-1,0.E0));
#522=DIRECTION('',(0.E0,0.E0,-1.E0));
#523=AXIS2_PLACEMENT_3D('',#520,#521,#522);
#524=PLANE('',#523);
#525=ORIENTED_EDGE('',*,*,#361,.T.);
#526=ORIENTED_EDGE('',*,*,#380,.T.);
#528=ORIENTED_EDGE('',*,*,#527,.T.);
#529=ORIENTED_EDGE('',*,*,#434,.F.);
#530=EDGE_LOOP('',(#525,#526,#528,#529));
#531=FACE_OUTER_BOUND('',#530,.F.);
#532=ADVANCED_FACE('',(#531),#524,.T.);
#533=CARTESIAN_POINT('',(2.4E0,-9.25E-1,1.755E0));
#534=DIRECTION('',(1.E0,0.E0,0.E0));
#535=DIRECTION('',(0.E0,0.E0,-1.E0));
#536=AXIS2_PLACEMENT_3D('',#533,#534,#535);
#537=PLANE('',#536);
#538=ORIENTED_EDGE('',*,*,#527,.F.);
#539=ORIENTED_EDGE('',*,*,#378,.T.);
#541=ORIENTED_EDGE('',*,*,#540,.T.);
#542=ORIENTED_EDGE('',*,*,#436,.F.);
#543=EDGE_LOOP('',(#538,#539,#541,#542));
#544=FACE_OUTER_BOUND('',#543,.F.);
#545=ADVANCED_FACE('',(#544),#537,.T.);
#546=CARTESIAN_POINT('',(2.4E0,0.E0,1.755E0));
#547=DIRECTION('',(9.659258262891E-1,2.588190451025E-1,0.E0));
#548=DIRECTION('',(0.E0,0.E0,-1.E0));
#549=AXIS2_PLACEMENT_3D('',#546,#547,#548);
#550=PLANE('',#549);
#551=ORIENTED_EDGE('',*,*,#406,.T.);
#552=ORIENTED_EDGE('',*,*,#438,.F.);
#553=ORIENTED_EDGE('',*,*,#540,.F.);
#554=ORIENTED_EDGE('',*,*,#376,.T.);
#555=EDGE_LOOP('',(#551,#552,#553,#554));
#556=FACE_OUTER_BOUND('',#555,.F.);
#557=ADVANCED_FACE('',(#556),#550,.T.);
#558=CLOSED_SHELL('',(#353,#368,#398,#413,#442,#455,#468,#481,#494,#507,#519,
#532,#545,#557));
#559=MANIFOLD_SOLID_BREP('',#558);
#560=FILL_AREA_STYLE_COLOUR('',#3);
#561=FILL_AREA_STYLE('',(#560));
#562=SURFACE_STYLE_FILL_AREA(#561);
#563=SURFACE_SIDE_STYLE('',(#562));
#564=SURFACE_STYLE_USAGE(.BOTH.,#563);
#565=PRESENTATION_STYLE_ASSIGNMENT((#564));
#28=STYLED_ITEM('',(#565),#559);
#567=DIMENSIONAL_EXPONENTS(0.E0,0.E0,0.E0,0.E0,0.E0,0.E0,0.E0);
#569=PLANE_ANGLE_MEASURE_WITH_UNIT(PLANE_ANGLE_MEASURE(1.745329251994E-2),#568);
#570=(CONVERSION_BASED_UNIT('DEGREE',#569)NAMED_UNIT(*)PLANE_ANGLE_UNIT());
#572=UNCERTAINTY_MEASURE_WITH_UNIT(LENGTH_MEASURE(6.306101684530E-4),#566,
'closure',
'Maximum model space distance between geometric entities at asserted connectivities');
#573=(GEOMETRIC_REPRESENTATION_CONTEXT(3)GLOBAL_UNCERTAINTY_ASSIGNED_CONTEXT((
#572))GLOBAL_UNIT_ASSIGNED_CONTEXT((#566,#570,#571))REPRESENTATION_CONTEXT
('ID1','3'));
#574=CARTESIAN_POINT('',(0.E0,0.E0,0.E0));
#575=DIRECTION('',(0.E0,0.E0,1.E0));
#576=DIRECTION('',(1.E0,0.E0,0.E0));
#579=APPLICATION_CONTEXT(
'CONFIGURATION CONTROLLED 3D DESIGNS OF MECHANICAL PARTS AND ASSEMBLIES');
#580=APPLICATION_PROTOCOL_DEFINITION('international standard',
'config_control_design',1994,#579);
#581=DESIGN_CONTEXT('',#579,'design');
#582=MECHANICAL_CONTEXT('',#579,'mechanical');
#583=PRODUCT('DFG0004A_MOLD','DFG0004A_MOLD','NOT SPECIFIED',(#582));
#584=PRODUCT_DEFINITION_FORMATION_WITH_SPECIFIED_SOURCE('3','LAST_VERSION',#583,
.MADE.);
#593=CARTESIAN_POINT('',(0.E0,0.E0,1.025E0));
#594=DIRECTION('',(0.E0,-1.E0,0.E0));
#595=DIRECTION('',(1.E0,0.E0,0.E0));
#596=AXIS2_PLACEMENT_3D('',#593,#594,#595);
#597=ITEM_DEFINED_TRANSFORMATION('','',#577,#596);
#598=(REPRESENTATION_RELATIONSHIP('','',#578,#590)REPRESENTATION_RELATIONSHIP_WITH_TRANSFORMATION(#597)SHAPE_REPRESENTATION_RELATIONSHIP());
#599=CONTEXT_DEPENDENT_SHAPE_REPRESENTATION(#598,#592);
#601=CARTESIAN_POINT('',(-2.E-1,4.25E-1,-2.698064122955E-1));
#602=DIRECTION('',(-1.E0,0.E0,0.E0));
#603=DIRECTION('',(0.E0,1.564344650402E-1,9.876883405951E-1));
#604=AXIS2_PLACEMENT_3D('',#601,#602,#603);
#606=CURVE_STYLE('',#33,POSITIVE_LENGTH_MEASURE(2.E-2),#22);
#607=PRESENTATION_STYLE_ASSIGNMENT((#606));
#608=STYLED_ITEM('',(#607),#605);
#609=DIRECTION('',(0.E0,-9.876883405951E-1,1.564344650402E-1));
#610=VECTOR('',#609,3.924775180317E-1);
#611=CARTESIAN_POINT('',(-2.E-1,4.797520627641E-1,7.588450691277E-2));
#612=LINE('',#611,#610);
#613=CURVE_STYLE('',#33,POSITIVE_LENGTH_MEASURE(2.E-2),#22);
#614=PRESENTATION_STYLE_ASSIGNMENT((#613));
#615=STYLED_ITEM('',(#614),#612);
#616=DIRECTION('',(0.E0,-8.715574274766E-2,9.961946980917E-1));
#617=VECTOR('',#616,2.836914947304E-1);
#618=CARTESIAN_POINT('',(-2.E-1,-7.584545235182E-2,3.173880370559E-1));
#619=LINE('',#618,#617);
#620=CURVE_STYLE('',#33,POSITIVE_LENGTH_MEASURE(2.E-2),#22);
#621=PRESENTATION_STYLE_ASSIGNMENT((#620));
#622=STYLED_ITEM('',(#621),#619);
#623=DIRECTION('',(0.E0,-9.961946980917E-1,-8.715574274766E-2));
#624=VECTOR('',#623,1.5E-1);
#625=CARTESIAN_POINT('',(-2.E-1,-1.005707952862E-1,6.E-1));
#626=LINE('',#625,#624);
#627=CURVE_STYLE('',#33,POSITIVE_LENGTH_MEASURE(2.E-2),#22);
#628=PRESENTATION_STYLE_ASSIGNMENT((#627));
#629=STYLED_ITEM('',(#628),#626);
#630=DIRECTION('',(0.E0,8.715574274766E-2,-9.961946980917E-1));
#631=VECTOR('',#630,2.836914947304E-1);
#632=CARTESIAN_POINT('',(-2.E-1,-2.5E-1,5.869266385879E-1));
#633=LINE('',#632,#631);
#634=CURVE_STYLE('',#33,POSITIVE_LENGTH_MEASURE(2.E-2),#22);
#635=PRESENTATION_STYLE_ASSIGNMENT((#634));
#636=STYLED_ITEM('',(#635),#633);
#637=CARTESIAN_POINT('',(-2.E-1,1.233934872665E-1,3.348191856054E-1));
#638=DIRECTION('',(-1.E0,0.E0,0.E0));
#639=DIRECTION('',(0.E0,-1.564344650402E-1,-9.876883405951E-1));
#640=AXIS2_PLACEMENT_3D('',#637,#638,#639);
#642=CURVE_STYLE('',#33,POSITIVE_LENGTH_MEASURE(2.E-2),#22);
#643=PRESENTATION_STYLE_ASSIGNMENT((#642));
#644=STYLED_ITEM('',(#643),#641);
#645=DIRECTION('',(0.E0,9.876883405951E-1,-1.564344650402E-1));
#646=VECTOR('',#645,3.924775180317E-1);
#647=CARTESIAN_POINT('',(-2.E-1,6.864142450245E-2,-1.087173360290E-2));
#648=LINE('',#647,#646);
#649=CURVE_STYLE('',#33,POSITIVE_LENGTH_MEASURE(2.E-2),#22);
#650=PRESENTATION_STYLE_ASSIGNMENT((#649));
#651=STYLED_ITEM('',(#650),#648);
#652=DIRECTION('',(0.E0,0.E0,-1.E0));
#653=VECTOR('',#652,2.301935877045E-1);
#654=CARTESIAN_POINT('',(-2.E-1,6.25E-1,-2.698064122955E-1));
#655=LINE('',#654,#653);
#656=CURVE_STYLE('',#33,POSITIVE_LENGTH_MEASURE(2.E-2),#22);
#657=PRESENTATION_STYLE_ASSIGNMENT((#656));
#658=STYLED_ITEM('',(#657),#655);
#659=DIRECTION('',(0.E0,1.E0,0.E0));
#660=VECTOR('',#659,1.5E-1);
#661=CARTESIAN_POINT('',(-2.E-1,6.25E-1,-5.E-1));
#662=LINE('',#661,#660);
#663=CURVE_STYLE('',#33,POSITIVE_LENGTH_MEASURE(2.E-2),#22);
#664=PRESENTATION_STYLE_ASSIGNMENT((#663));
#665=STYLED_ITEM('',(#664),#662);
#666=DIRECTION('',(0.E0,0.E0,1.E0));
#667=VECTOR('',#666,2.301935877045E-1);
#668=CARTESIAN_POINT('',(-2.E-1,7.75E-1,-5.E-1));
#669=LINE('',#668,#667);
#670=CURVE_STYLE('',#33,POSITIVE_LENGTH_MEASURE(2.E-2),#22);
#671=PRESENTATION_STYLE_ASSIGNMENT((#670));
#672=STYLED_ITEM('',(#671),#669);
#673=DIRECTION('',(-1.E0,0.E0,0.E0));
#674=VECTOR('',#673,4.E-1);
#675=CARTESIAN_POINT('',(2.E-1,7.75E-1,-2.698064122955E-1));
#676=LINE('',#675,#674);
#677=CURVE_STYLE('',#33,POSITIVE_LENGTH_MEASURE(2.E-2),#22);
#678=PRESENTATION_STYLE_ASSIGNMENT((#677));
#679=STYLED_ITEM('',(#678),#676);
#680=DIRECTION('',(1.E0,0.E0,0.E0));
#681=VECTOR('',#680,4.E-1);
#682=CARTESIAN_POINT('',(-2.E-1,7.75E-1,-5.E-1));
#683=LINE('',#682,#681);
#684=CURVE_STYLE('',#33,POSITIVE_LENGTH_MEASURE(2.E-2),#22);
#685=PRESENTATION_STYLE_ASSIGNMENT((#684));
#686=STYLED_ITEM('',(#685),#683);
#687=DIRECTION('',(1.E0,0.E0,0.E0));
#688=VECTOR('',#687,4.E-1);
#689=CARTESIAN_POINT('',(-2.E-1,6.25E-1,-5.E-1));
#690=LINE('',#689,#688);
#691=CURVE_STYLE('',#33,POSITIVE_LENGTH_MEASURE(2.E-2),#22);
#692=PRESENTATION_STYLE_ASSIGNMENT((#691));
#693=STYLED_ITEM('',(#692),#690);
#694=DIRECTION('',(1.E0,0.E0,0.E0));
#695=VECTOR('',#694,4.E-1);
#696=CARTESIAN_POINT('',(-2.E-1,6.25E-1,-2.698064122955E-1));
#697=LINE('',#696,#695);
#698=CURVE_STYLE('',#33,POSITIVE_LENGTH_MEASURE(2.E-2),#22);
#699=PRESENTATION_STYLE_ASSIGNMENT((#698));
#700=STYLED_ITEM('',(#699),#697);
#701=CARTESIAN_POINT('',(-2.E-1,4.25E-1,-2.698064122955E-1));
#702=DIRECTION('',(1.E0,0.E0,0.E0));
#703=DIRECTION('',(0.E0,1.E0,0.E0));
#704=AXIS2_PLACEMENT_3D('',#701,#702,#703);
#706=CURVE_STYLE('',#33,POSITIVE_LENGTH_MEASURE(2.E-2),#22);
#707=PRESENTATION_STYLE_ASSIGNMENT((#706));
#708=STYLED_ITEM('',(#707),#705);
#709=CARTESIAN_POINT('',(2.E-1,4.25E-1,-2.698064122955E-1));
#710=DIRECTION('',(-1.E0,0.E0,0.E0));
#711=DIRECTION('',(0.E0,1.564344650402E-1,9.876883405951E-1));
#712=AXIS2_PLACEMENT_3D('',#709,#710,#711);
#714=CURVE_STYLE('',#33,POSITIVE_LENGTH_MEASURE(2.E-2),#22);
#715=PRESENTATION_STYLE_ASSIGNMENT((#714));
#716=STYLED_ITEM('',(#715),#713);
#717=DIRECTION('',(-1.E0,0.E0,0.E0));
#718=VECTOR('',#717,4.E-1);
#719=CARTESIAN_POINT('',(2.E-1,6.864142450245E-2,-1.087173360290E-2));
#720=LINE('',#719,#718);
#721=CURVE_STYLE('',#33,POSITIVE_LENGTH_MEASURE(2.E-2),#22);
#722=PRESENTATION_STYLE_ASSIGNMENT((#721));
#723=STYLED_ITEM('',(#722),#720);
#724=DIRECTION('',(1.E0,0.E0,0.E0));
#725=VECTOR('',#724,4.E-1);
#726=CARTESIAN_POINT('',(-2.E-1,4.562868930080E-1,-7.226874417650E-2));
#727=LINE('',#726,#725);
#728=CURVE_STYLE('',#33,POSITIVE_LENGTH_MEASURE(2.E-2),#22);
#729=PRESENTATION_STYLE_ASSIGNMENT((#728));
#730=STYLED_ITEM('',(#729),#727);
#731=DIRECTION('',(-1.E0,0.E0,0.E0));
#732=VECTOR('',#731,4.E-1);
#733=CARTESIAN_POINT('',(2.E-1,-2.252746570656E-1,3.043146756437E-1));
#734=LINE('',#733,#732);
#735=CURVE_STYLE('',#33,POSITIVE_LENGTH_MEASURE(2.E-2),#22);
#736=PRESENTATION_STYLE_ASSIGNMENT((#735));
#737=STYLED_ITEM('',(#736),#734);
#738=DIRECTION('',(1.E0,0.E0,0.E0));
#739=VECTOR('',#738,4.E-1);
#740=CARTESIAN_POINT('',(-2.E-1,-2.5E-1,5.869266385879E-1));
#741=LINE('',#740,#739);
#742=CURVE_STYLE('',#33,POSITIVE_LENGTH_MEASURE(2.E-2),#22);
#743=PRESENTATION_STYLE_ASSIGNMENT((#742));
#744=STYLED_ITEM('',(#743),#741);
#745=DIRECTION('',(1.E0,0.E0,0.E0));
#746=VECTOR('',#745,4.E-1);
#747=CARTESIAN_POINT('',(-2.E-1,-1.005707952862E-1,6.E-1));
#748=LINE('',#747,#746);
#749=CURVE_STYLE('',#33,POSITIVE_LENGTH_MEASURE(2.E-2),#22);
#750=PRESENTATION_STYLE_ASSIGNMENT((#749));
#751=STYLED_ITEM('',(#750),#748);
#752=DIRECTION('',(1.E0,0.E0,0.E0));
#753=VECTOR('',#752,4.E-1);
#754=CARTESIAN_POINT('',(-2.E-1,-7.584545235182E-2,3.173880370559E-1));
#755=LINE('',#754,#753);
#756=CURVE_STYLE('',#33,POSITIVE_LENGTH_MEASURE(2.E-2),#22);
#757=PRESENTATION_STYLE_ASSIGNMENT((#756));
#758=STYLED_ITEM('',(#757),#755);
#759=CARTESIAN_POINT('',(-2.E-1,1.233934872665E-1,3.348191856054E-1));
#760=DIRECTION('',(1.E0,0.E0,0.E0));
#761=DIRECTION('',(0.E0,-9.961946980917E-1,-8.715574274766E-2));
#762=AXIS2_PLACEMENT_3D('',#759,#760,#761);
#764=CURVE_STYLE('',#33,POSITIVE_LENGTH_MEASURE(2.E-2),#22);
#765=PRESENTATION_STYLE_ASSIGNMENT((#764));
#766=STYLED_ITEM('',(#765),#763);
#767=CARTESIAN_POINT('',(2.E-1,1.233934872665E-1,3.348191856054E-1));
#768=DIRECTION('',(-1.E0,0.E0,0.E0));
#769=DIRECTION('',(0.E0,-1.564344650402E-1,-9.876883405951E-1));
#770=AXIS2_PLACEMENT_3D('',#767,#768,#769);
#772=CURVE_STYLE('',#33,POSITIVE_LENGTH_MEASURE(2.E-2),#22);
#773=PRESENTATION_STYLE_ASSIGNMENT((#772));
#774=STYLED_ITEM('',(#773),#771);
#775=DIRECTION('',(-1.E0,0.E0,0.E0));
#776=VECTOR('',#775,4.E-1);
#777=CARTESIAN_POINT('',(2.E-1,4.797520627641E-1,7.588450691277E-2));
#778=LINE('',#777,#776);
#779=CURVE_STYLE('',#33,POSITIVE_LENGTH_MEASURE(2.E-2),#22);
#780=PRESENTATION_STYLE_ASSIGNMENT((#779));
#781=STYLED_ITEM('',(#780),#778);
#782=DIRECTION('',(1.E0,0.E0,0.E0));
#783=VECTOR('',#782,4.E-1);
#784=CARTESIAN_POINT('',(-2.E-1,9.210659425848E-2,1.372815174864E-1));
#785=LINE('',#784,#783);
#786=CURVE_STYLE('',#33,POSITIVE_LENGTH_MEASURE(2.E-2),#22);
#787=PRESENTATION_STYLE_ASSIGNMENT((#786));
#788=STYLED_ITEM('',(#787),#785);
#789=CARTESIAN_POINT('',(2.E-1,4.25E-1,-2.698064122955E-1));
#790=DIRECTION('',(1.E0,0.E0,0.E0));
#791=DIRECTION('',(0.E0,1.E0,0.E0));
#792=AXIS2_PLACEMENT_3D('',#789,#790,#791);
#794=CURVE_STYLE('',#33,POSITIVE_LENGTH_MEASURE(2.E-2),#22);
#795=PRESENTATION_STYLE_ASSIGNMENT((#794));
#796=STYLED_ITEM('',(#795),#793);
#797=DIRECTION('',(0.E0,0.E0,1.E0));
#798=VECTOR('',#797,2.301935877045E-1);
#799=CARTESIAN_POINT('',(2.E-1,7.75E-1,-5.E-1));
#800=LINE('',#799,#798);
#801=CURVE_STYLE('',#33,POSITIVE_LENGTH_MEASURE(2.E-2),#22);
#802=PRESENTATION_STYLE_ASSIGNMENT((#801));
#803=STYLED_ITEM('',(#802),#800);
#804=DIRECTION('',(0.E0,1.E0,0.E0));
#805=VECTOR('',#804,1.5E-1);
#806=CARTESIAN_POINT('',(2.E-1,6.25E-1,-5.E-1));
#807=LINE('',#806,#805);
#808=CURVE_STYLE('',#33,POSITIVE_LENGTH_MEASURE(2.E-2),#22);
#809=PRESENTATION_STYLE_ASSIGNMENT((#808));
#810=STYLED_ITEM('',(#809),#807);
#811=DIRECTION('',(0.E0,0.E0,-1.E0));
#812=VECTOR('',#811,2.301935877045E-1);
#813=CARTESIAN_POINT('',(2.E-1,6.25E-1,-2.698064122955E-1));
#814=LINE('',#813,#812);
#815=CURVE_STYLE('',#33,POSITIVE_LENGTH_MEASURE(2.E-2),#22);
#816=PRESENTATION_STYLE_ASSIGNMENT((#815));
#817=STYLED_ITEM('',(#816),#814);
#818=DIRECTION('',(0.E0,-9.876883405951E-1,1.564344650402E-1));
#819=VECTOR('',#818,3.924775180317E-1);
#820=CARTESIAN_POINT('',(2.E-1,4.562868930080E-1,-7.226874417650E-2));
#821=LINE('',#820,#819);
#822=CURVE_STYLE('',#33,POSITIVE_LENGTH_MEASURE(2.E-2),#22);
#823=PRESENTATION_STYLE_ASSIGNMENT((#822));
#824=STYLED_ITEM('',(#823),#821);
#825=CARTESIAN_POINT('',(2.E-1,1.233934872665E-1,3.348191856054E-1));
#826=DIRECTION('',(1.E0,0.E0,0.E0));
#827=DIRECTION('',(0.E0,-9.961946980917E-1,-8.715574274766E-2));
#828=AXIS2_PLACEMENT_3D('',#825,#826,#827);
#830=CURVE_STYLE('',#33,POSITIVE_LENGTH_MEASURE(2.E-2),#22);
#831=PRESENTATION_STYLE_ASSIGNMENT((#830));
#832=STYLED_ITEM('',(#831),#829);
#833=DIRECTION('',(0.E0,8.715574274766E-2,-9.961946980917E-1));
#834=VECTOR('',#833,2.836914947304E-1);
#835=CARTESIAN_POINT('',(2.E-1,-2.5E-1,5.869266385879E-1));
#836=LINE('',#835,#834);
#837=CURVE_STYLE('',#33,POSITIVE_LENGTH_MEASURE(2.E-2),#22);
#838=PRESENTATION_STYLE_ASSIGNMENT((#837));
#839=STYLED_ITEM('',(#838),#836);
#840=DIRECTION('',(0.E0,-9.961946980917E-1,-8.715574274766E-2));
#841=VECTOR('',#840,1.5E-1);
#842=CARTESIAN_POINT('',(2.E-1,-1.005707952862E-1,6.E-1));
#843=LINE('',#842,#841);
#844=CURVE_STYLE('',#33,POSITIVE_LENGTH_MEASURE(2.E-2),#22);
#845=PRESENTATION_STYLE_ASSIGNMENT((#844));
#846=STYLED_ITEM('',(#845),#843);
#847=DIRECTION('',(0.E0,-8.715574274766E-2,9.961946980917E-1));
#848=VECTOR('',#847,2.836914947304E-1);
#849=CARTESIAN_POINT('',(2.E-1,-7.584545235182E-2,3.173880370559E-1));
#850=LINE('',#849,#848);
#851=CURVE_STYLE('',#33,POSITIVE_LENGTH_MEASURE(2.E-2),#22);
#852=PRESENTATION_STYLE_ASSIGNMENT((#851));
#853=STYLED_ITEM('',(#852),#850);
#854=DIRECTION('',(0.E0,9.876883405951E-1,-1.564344650402E-1));
#855=VECTOR('',#854,3.924775180317E-1);
#856=CARTESIAN_POINT('',(2.E-1,9.210659425848E-2,1.372815174864E-1));
#857=LINE('',#856,#855);
#858=CURVE_STYLE('',#33,POSITIVE_LENGTH_MEASURE(2.E-2),#22);
#859=PRESENTATION_STYLE_ASSIGNMENT((#858));
#860=STYLED_ITEM('',(#859),#857);
#861=CARTESIAN_POINT('',(-2.E-1,-1.005707952862E-1,6.E-1));
#862=CARTESIAN_POINT('',(-2.E-1,-2.5E-1,5.869266385879E-1));
#863=VERTEX_POINT('',#861);
#864=VERTEX_POINT('',#862);
#865=CARTESIAN_POINT('',(2.E-1,-1.005707952862E-1,6.E-1));
#866=CARTESIAN_POINT('',(2.E-1,-2.5E-1,5.869266385879E-1));
#867=VERTEX_POINT('',#865);
#868=VERTEX_POINT('',#866);
#869=CARTESIAN_POINT('',(-2.E-1,6.25E-1,-5.E-1));
#870=CARTESIAN_POINT('',(-2.E-1,7.75E-1,-5.E-1));
#871=VERTEX_POINT('',#869);
#872=VERTEX_POINT('',#870);
#873=CARTESIAN_POINT('',(2.E-1,6.25E-1,-5.E-1));
#874=CARTESIAN_POINT('',(2.E-1,7.75E-1,-5.E-1));
#875=VERTEX_POINT('',#873);
#876=VERTEX_POINT('',#874);
#877=CARTESIAN_POINT('',(-2.E-1,-7.584545235182E-2,3.173880370559E-1));
#878=CARTESIAN_POINT('',(2.E-1,-7.584545235182E-2,3.173880370559E-1));
#879=VERTEX_POINT('',#877);
#880=VERTEX_POINT('',#878);
#881=CARTESIAN_POINT('',(-2.E-1,9.210659425848E-2,1.372815174864E-1));
#882=CARTESIAN_POINT('',(2.E-1,9.210659425848E-2,1.372815174864E-1));
#883=VERTEX_POINT('',#881);
#884=VERTEX_POINT('',#882);
#885=CARTESIAN_POINT('',(-2.E-1,6.25E-1,-2.698064122955E-1));
#886=CARTESIAN_POINT('',(2.E-1,6.25E-1,-2.698064122955E-1));
#887=VERTEX_POINT('',#885);
#888=VERTEX_POINT('',#886);
#889=CARTESIAN_POINT('',(-2.E-1,4.562868930080E-1,-7.226874417650E-2));
#890=CARTESIAN_POINT('',(2.E-1,4.562868930080E-1,-7.226874417650E-2));
#891=VERTEX_POINT('',#889);
#892=VERTEX_POINT('',#890);
#893=CARTESIAN_POINT('',(-2.E-1,4.797520627641E-1,7.588450691277E-2));
#894=CARTESIAN_POINT('',(-2.E-1,7.75E-1,-2.698064122955E-1));
#895=VERTEX_POINT('',#893);
#896=VERTEX_POINT('',#894);
#897=CARTESIAN_POINT('',(2.E-1,7.75E-1,-2.698064122955E-1));
#898=VERTEX_POINT('',#897);
#899=CARTESIAN_POINT('',(2.E-1,4.797520627641E-1,7.588450691277E-2));
#900=VERTEX_POINT('',#899);
#901=CARTESIAN_POINT('',(-2.E-1,6.864142450245E-2,-1.087173360290E-2));
#902=CARTESIAN_POINT('',(-2.E-1,-2.252746570656E-1,3.043146756437E-1));
#903=VERTEX_POINT('',#901);
#904=VERTEX_POINT('',#902);
#905=CARTESIAN_POINT('',(2.E-1,-2.252746570656E-1,3.043146756437E-1));
#906=VERTEX_POINT('',#905);
#907=CARTESIAN_POINT('',(2.E-1,6.864142450245E-2,-1.087173360290E-2));
#908=VERTEX_POINT('',#907);
#909=CARTESIAN_POINT('',(-2.E-1,0.E0,0.E0));
#910=DIRECTION('',(1.E0,0.E0,0.E0));
#911=DIRECTION('',(0.E0,0.E0,-1.E0));
#912=AXIS2_PLACEMENT_3D('',#909,#910,#911);
#913=PLANE('',#912);
#915=ORIENTED_EDGE('',*,*,#914,.F.);
#917=ORIENTED_EDGE('',*,*,#916,.T.);
#919=ORIENTED_EDGE('',*,*,#918,.F.);
#921=ORIENTED_EDGE('',*,*,#920,.T.);
#923=ORIENTED_EDGE('',*,*,#922,.T.);
#925=ORIENTED_EDGE('',*,*,#924,.T.);
#927=ORIENTED_EDGE('',*,*,#926,.F.);
#929=ORIENTED_EDGE('',*,*,#928,.T.);
#931=ORIENTED_EDGE('',*,*,#930,.F.);
#933=ORIENTED_EDGE('',*,*,#932,.T.);
#935=ORIENTED_EDGE('',*,*,#934,.T.);
#937=ORIENTED_EDGE('',*,*,#936,.T.);
#938=EDGE_LOOP('',(#915,#917,#919,#921,#923,#925,#927,#929,#931,#933,#935,
#937));
#939=FACE_OUTER_BOUND('',#938,.F.);
#940=ADVANCED_FACE('',(#939),#913,.F.);
#941=CARTESIAN_POINT('',(7.2144E-1,4.25E-1,-2.698064122955E-1));
#942=DIRECTION('',(-1.E0,0.E0,0.E0));
#943=DIRECTION('',(0.E0,1.564344650402E-1,9.876883405951E-1));
#944=AXIS2_PLACEMENT_3D('',#941,#942,#943);
#945=CYLINDRICAL_SURFACE('',#944,3.5E-1);
#946=ORIENTED_EDGE('',*,*,#914,.T.);
#948=ORIENTED_EDGE('',*,*,#947,.F.);
#950=ORIENTED_EDGE('',*,*,#949,.T.);
#952=ORIENTED_EDGE('',*,*,#951,.T.);
#953=EDGE_LOOP('',(#946,#948,#950,#952));
#954=FACE_OUTER_BOUND('',#953,.F.);
#955=ADVANCED_FACE('',(#954),#945,.T.);
#956=CARTESIAN_POINT('',(-2.E-1,7.75E-1,-5.E-1));
#957=DIRECTION('',(0.E0,1.E0,0.E0));
#958=DIRECTION('',(0.E0,0.E0,1.E0));
#959=AXIS2_PLACEMENT_3D('',#956,#957,#958);
#960=PLANE('',#959);
#961=ORIENTED_EDGE('',*,*,#947,.T.);
#962=ORIENTED_EDGE('',*,*,#936,.F.);
#964=ORIENTED_EDGE('',*,*,#963,.T.);
#966=ORIENTED_EDGE('',*,*,#965,.T.);
#967=EDGE_LOOP('',(#961,#962,#964,#966));
#968=FACE_OUTER_BOUND('',#967,.F.);
#969=ADVANCED_FACE('',(#968),#960,.T.);
#970=CARTESIAN_POINT('',(-2.E-1,6.25E-1,-5.E-1));
#971=DIRECTION('',(0.E0,0.E0,-1.E0));
#972=DIRECTION('',(0.E0,1.E0,0.E0));
#973=AXIS2_PLACEMENT_3D('',#970,#971,#972);
#974=PLANE('',#973);
#975=ORIENTED_EDGE('',*,*,#934,.F.);
#977=ORIENTED_EDGE('',*,*,#976,.T.);
#979=ORIENTED_EDGE('',*,*,#978,.T.);
#980=ORIENTED_EDGE('',*,*,#963,.F.);
#981=EDGE_LOOP('',(#975,#977,#979,#980));
#982=FACE_OUTER_BOUND('',#981,.F.);
#983=ADVANCED_FACE('',(#982),#974,.T.);
#984=CARTESIAN_POINT('',(-2.E-1,6.25E-1,-9.899027520284E-2));
#985=DIRECTION('',(0.E0,-1.E0,0.E0));
#986=DIRECTION('',(0.E0,0.E0,-1.E0));
#987=AXIS2_PLACEMENT_3D('',#984,#985,#986);
#988=PLANE('',#987);
#990=ORIENTED_EDGE('',*,*,#989,.T.);
#992=ORIENTED_EDGE('',*,*,#991,.T.);
#993=ORIENTED_EDGE('',*,*,#976,.F.);
#994=ORIENTED_EDGE('',*,*,#932,.F.);
#995=EDGE_LOOP('',(#990,#992,#993,#994));
#996=FACE_OUTER_BOUND('',#995,.F.);
#997=ADVANCED_FACE('',(#996),#988,.T.);
#998=CARTESIAN_POINT('',(-7.2144E-1,4.25E-1,-2.698064122955E-1));
#999=DIRECTION('',(1.E0,0.E0,0.E0));
#1000=DIRECTION('',(0.E0,1.E0,0.E0));
#1001=AXIS2_PLACEMENT_3D('',#998,#999,#1000);
#1002=CYLINDRICAL_SURFACE('',#1001,2.E-1);
#1003=ORIENTED_EDGE('',*,*,#989,.F.);
#1004=ORIENTED_EDGE('',*,*,#930,.T.);
#1006=ORIENTED_EDGE('',*,*,#1005,.T.);
#1008=ORIENTED_EDGE('',*,*,#1007,.T.);
#1009=EDGE_LOOP('',(#1003,#1004,#1006,#1008));
#1010=FACE_OUTER_BOUND('',#1009,.F.);
#1011=ADVANCED_FACE('',(#1010),#1002,.F.);
#1012=CARTESIAN_POINT('',(-2.E-1,-2.014419218889E-1,3.190526605627E-2));
#1013=DIRECTION('',(0.E0,-1.564344650402E-1,-9.876883405951E-1));
#1014=DIRECTION('',(0.E0,9.876883405951E-1,-1.564344650402E-1));
#1015=AXIS2_PLACEMENT_3D('',#1012,#1013,#1014);
#1016=PLANE('',#1015);
#1018=ORIENTED_EDGE('',*,*,#1017,.F.);
#1020=ORIENTED_EDGE('',*,*,#1019,.F.);
#1021=ORIENTED_EDGE('',*,*,#1005,.F.);
#1022=ORIENTED_EDGE('',*,*,#928,.F.);
#1023=EDGE_LOOP('',(#1018,#1020,#1021,#1022));
#1024=FACE_OUTER_BOUND('',#1023,.F.);
#1025=ADVANCED_FACE('',(#1024),#1016,.T.);
#1026=CARTESIAN_POINT('',(7.2144E-1,1.233934872665E-1,3.348191856054E-1));
#1027=DIRECTION('',(-1.E0,0.E0,0.E0));
#1028=DIRECTION('',(0.E0,-1.564344650402E-1,-9.876883405951E-1));
#1029=AXIS2_PLACEMENT_3D('',#1026,#1027,#1028);
#1030=CYLINDRICAL_SURFACE('',#1029,3.5E-1);
#1031=ORIENTED_EDGE('',*,*,#926,.T.);
#1033=ORIENTED_EDGE('',*,*,#1032,.F.);
#1035=ORIENTED_EDGE('',*,*,#1034,.T.);
#1036=ORIENTED_EDGE('',*,*,#1017,.T.);
#1037=EDGE_LOOP('',(#1031,#1033,#1035,#1036));
#1038=FACE_OUTER_BOUND('',#1037,.F.);
#1039=ADVANCED_FACE('',(#1038),#1030,.T.);
#1040=CARTESIAN_POINT('',(-2.E-1,-2.5E-1,5.869266385879E-1));
#1041=DIRECTION('',(0.E0,-9.961946980917E-1,-8.715574274766E-2));
#1042=DIRECTION('',(0.E0,8.715574274766E-2,-9.961946980917E-1));
#1043=AXIS2_PLACEMENT_3D('',#1040,#1041,#1042);
#1044=PLANE('',#1043);
#1045=ORIENTED_EDGE('',*,*,#1032,.T.);
#1046=ORIENTED_EDGE('',*,*,#924,.F.);
#1048=ORIENTED_EDGE('',*,*,#1047,.T.);
#1050=ORIENTED_EDGE('',*,*,#1049,.T.);
#1051=EDGE_LOOP('',(#1045,#1046,#1048,#1050));
#1052=FACE_OUTER_BOUND('',#1051,.F.);
#1053=ADVANCED_FACE('',(#1052),#1044,.T.);
#1054=CARTESIAN_POINT('',(-2.E-1,-1.005707952862E-1,6.E-1));
#1055=DIRECTION('',(0.E0,-8.715574274766E-2,9.961946980917E-1));
#1056=DIRECTION('',(0.E0,-9.961946980917E-1,-8.715574274766E-2));
#1057=AXIS2_PLACEMENT_3D('',#1054,#1055,#1056);
#1058=PLANE('',#1057);
#1059=ORIENTED_EDGE('',*,*,#922,.F.);
#1061=ORIENTED_EDGE('',*,*,#1060,.T.);
#1063=ORIENTED_EDGE('',*,*,#1062,.T.);
#1064=ORIENTED_EDGE('',*,*,#1047,.F.);
#1065=EDGE_LOOP('',(#1059,#1061,#1063,#1064));
#1066=FACE_OUTER_BOUND('',#1065,.F.);
#1067=ADVANCED_FACE('',(#1066),#1058,.T.);
#1068=CARTESIAN_POINT('',(-2.E-1,-6.222674653657E-2,1.617255172916E-1));
#1069=DIRECTION('',(0.E0,9.961946980917E-1,8.715574274766E-2));
#1070=DIRECTION('',(0.E0,-8.715574274766E-2,9.961946980917E-1));
#1071=AXIS2_PLACEMENT_3D('',#1068,#1069,#1070);
#1072=PLANE('',#1071);
#1074=ORIENTED_EDGE('',*,*,#1073,.T.);
#1076=ORIENTED_EDGE('',*,*,#1075,.T.);
#1077=ORIENTED_EDGE('',*,*,#1060,.F.);
#1078=ORIENTED_EDGE('',*,*,#920,.F.);
#1079=EDGE_LOOP('',(#1074,#1076,#1077,#1078));
#1080=FACE_OUTER_BOUND('',#1079,.F.);
#1081=ADVANCED_FACE('',(#1080),#1072,.T.);
#1082=CARTESIAN_POINT('',(-7.2144E-1,1.233934872665E-1,3.348191856054E-1));
#1083=DIRECTION('',(1.E0,0.E0,0.E0));
#1084=DIRECTION('',(0.E0,-9.961946980917E-1,-8.715574274766E-2));
#1085=AXIS2_PLACEMENT_3D('',#1082,#1083,#1084);
#1086=CYLINDRICAL_SURFACE('',#1085,2.E-1);
#1087=ORIENTED_EDGE('',*,*,#1073,.F.);
#1088=ORIENTED_EDGE('',*,*,#918,.T.);
#1090=ORIENTED_EDGE('',*,*,#1089,.T.);
#1092=ORIENTED_EDGE('',*,*,#1091,.T.);
#1093=EDGE_LOOP('',(#1087,#1088,#1090,#1092));
#1094=FACE_OUTER_BOUND('',#1093,.F.);
#1095=ADVANCED_FACE('',(#1094),#1086,.F.);
#1096=CARTESIAN_POINT('',(-2.E-1,2.346516975603E-2,1.481532510893E-1));
#1097=DIRECTION('',(0.E0,1.564344650402E-1,9.876883405951E-1));
#1098=DIRECTION('',(0.E0,-9.876883405951E-1,1.564344650402E-1));
#1099=AXIS2_PLACEMENT_3D('',#1096,#1097,#1098);
#1100=PLANE('',#1099);
#1101=ORIENTED_EDGE('',*,*,#951,.F.);
#1103=ORIENTED_EDGE('',*,*,#1102,.F.);
#1104=ORIENTED_EDGE('',*,*,#1089,.F.);
#1105=ORIENTED_EDGE('',*,*,#916,.F.);
#1106=EDGE_LOOP('',(#1101,#1103,#1104,#1105));
#1107=FACE_OUTER_BOUND('',#1106,.F.);
#1108=ADVANCED_FACE('',(#1107),#1100,.T.);
#1109=CARTESIAN_POINT('',(2.E-1,0.E0,0.E0));
#1110=DIRECTION('',(1.E0,0.E0,0.E0));
#1111=DIRECTION('',(0.E0,0.E0,-1.E0));
#1112=AXIS2_PLACEMENT_3D('',#1109,#1110,#1111);
#1113=PLANE('',#1112);
#1114=ORIENTED_EDGE('',*,*,#949,.F.);
#1115=ORIENTED_EDGE('',*,*,#965,.F.);
#1116=ORIENTED_EDGE('',*,*,#978,.F.);
#1117=ORIENTED_EDGE('',*,*,#991,.F.);
#1118=ORIENTED_EDGE('',*,*,#1007,.F.);
#1119=ORIENTED_EDGE('',*,*,#1019,.T.);
#1120=ORIENTED_EDGE('',*,*,#1034,.F.);
#1121=ORIENTED_EDGE('',*,*,#1049,.F.);
#1122=ORIENTED_EDGE('',*,*,#1062,.F.);
#1123=ORIENTED_EDGE('',*,*,#1075,.F.);
#1124=ORIENTED_EDGE('',*,*,#1091,.F.);
#1125=ORIENTED_EDGE('',*,*,#1102,.T.);
#1126=EDGE_LOOP('',(#1114,#1115,#1116,#1117,#1118,#1119,#1120,#1121,#1122,#1123,
#1124,#1125));
#1127=FACE_OUTER_BOUND('',#1126,.F.);
#1128=ADVANCED_FACE('',(#1127),#1113,.T.);
#1129=CLOSED_SHELL('',(#940,#955,#969,#983,#997,#1011,#1025,#1039,#1053,#1067,
#1081,#1095,#1108,#1128));
#1130=MANIFOLD_SOLID_BREP('',#1129);
#1131=FILL_AREA_STYLE_COLOUR('',#22);
#1132=FILL_AREA_STYLE('',(#1131));
#1133=SURFACE_STYLE_FILL_AREA(#1132);
#1134=SURFACE_SIDE_STYLE('',(#1133));
#1135=SURFACE_STYLE_USAGE(.BOTH.,#1134);
#1136=PRESENTATION_STYLE_ASSIGNMENT((#1135));
#600=STYLED_ITEM('',(#1136),#1130);
#1138=DIMENSIONAL_EXPONENTS(0.E0,0.E0,0.E0,0.E0,0.E0,0.E0,0.E0);
#1140=PLANE_ANGLE_MEASURE_WITH_UNIT(PLANE_ANGLE_MEASURE(1.745329251994E-2),
#1139);
#1141=(CONVERSION_BASED_UNIT('DEGREE',#1140)NAMED_UNIT(*)PLANE_ANGLE_UNIT());
#1143=UNCERTAINTY_MEASURE_WITH_UNIT(LENGTH_MEASURE(1.555773554819E-4),#1137,
'closure',
'Maximum model space distance between geometric entities at asserted connectivities');
#1144=(GEOMETRIC_REPRESENTATION_CONTEXT(3)GLOBAL_UNCERTAINTY_ASSIGNED_CONTEXT((
#1143))GLOBAL_UNIT_ASSIGNED_CONTEXT((#1137,#1141,#1142))REPRESENTATION_CONTEXT(
'ID2','3'));
#1145=CARTESIAN_POINT('',(0.E0,0.E0,0.E0));
#1146=DIRECTION('',(0.E0,0.E0,1.E0));
#1147=DIRECTION('',(1.E0,0.E0,0.E0));
#1150=MECHANICAL_CONTEXT('',#579,'mechanical');
#1151=PRODUCT('DFG0004A_PIN','DFG0004A_PIN','NOT SPECIFIED',(#1150));
#1152=PRODUCT_DEFINITION_FORMATION_WITH_SPECIFIED_SOURCE('12','LAST_VERSION',
#1151,.MADE.);
#1158=CARTESIAN_POINT('',(-2.9E0,1.27E0,2.5E-1));
#1159=DIRECTION('',(-1.E0,0.E0,0.E0));
#1160=DIRECTION('',(0.E0,-1.E0,0.E0));
#1161=AXIS2_PLACEMENT_3D('',#1158,#1159,#1160);
#1162=ITEM_DEFINED_TRANSFORMATION('','',#1148,#1161);
#1163=(REPRESENTATION_RELATIONSHIP('','',#1149,#590)REPRESENTATION_RELATIONSHIP_WITH_TRANSFORMATION(#1162)SHAPE_REPRESENTATION_RELATIONSHIP());
#1164=CONTEXT_DEPENDENT_SHAPE_REPRESENTATION(#1163,#1157);
#1167=CARTESIAN_POINT('',(-2.9E0,-1.27E0,2.5E-1));
#1168=DIRECTION('',(-1.E0,0.E0,0.E0));
#1169=DIRECTION('',(0.E0,-1.E0,0.E0));
#1170=AXIS2_PLACEMENT_3D('',#1167,#1168,#1169);
#1171=ITEM_DEFINED_TRANSFORMATION('','',#1148,#1170);
#1172=(REPRESENTATION_RELATIONSHIP('','',#1149,#590)REPRESENTATION_RELATIONSHIP_WITH_TRANSFORMATION(#1171)SHAPE_REPRESENTATION_RELATIONSHIP());
#1173=CONTEXT_DEPENDENT_SHAPE_REPRESENTATION(#1172,#1166);
#1176=CARTESIAN_POINT('',(2.9E0,1.27E0,2.5E-1));
#1177=DIRECTION('',(1.E0,0.E0,0.E0));
#1178=DIRECTION('',(0.E0,1.E0,0.E0));
#1179=AXIS2_PLACEMENT_3D('',#1176,#1177,#1178);
#1180=ITEM_DEFINED_TRANSFORMATION('','',#1148,#1179);
#1181=(REPRESENTATION_RELATIONSHIP('','',#1149,#590)REPRESENTATION_RELATIONSHIP_WITH_TRANSFORMATION(#1180)SHAPE_REPRESENTATION_RELATIONSHIP());
#1182=CONTEXT_DEPENDENT_SHAPE_REPRESENTATION(#1181,#1175);
#1185=CARTESIAN_POINT('',(2.9E0,-1.27E0,2.5E-1));
#1186=DIRECTION('',(1.E0,0.E0,0.E0));
#1187=DIRECTION('',(0.E0,1.E0,0.E0));
#1188=AXIS2_PLACEMENT_3D('',#1185,#1186,#1187);
#1189=ITEM_DEFINED_TRANSFORMATION('','',#1148,#1188);
#1190=(REPRESENTATION_RELATIONSHIP('','',#1149,#590)REPRESENTATION_RELATIONSHIP_WITH_TRANSFORMATION(#1189)SHAPE_REPRESENTATION_RELATIONSHIP());
#1191=CONTEXT_DEPENDENT_SHAPE_REPRESENTATION(#1190,#1184);
#1193=DIMENSIONAL_EXPONENTS(0.E0,0.E0,0.E0,0.E0,0.E0,0.E0,0.E0);
#1195=PLANE_ANGLE_MEASURE_WITH_UNIT(PLANE_ANGLE_MEASURE(1.745329251994E-2),
#1194);
#1196=(CONVERSION_BASED_UNIT('DEGREE',#1195)NAMED_UNIT(*)PLANE_ANGLE_UNIT());
#1198=UNCERTAINTY_MEASURE_WITH_UNIT(LENGTH_MEASURE(8.133560554754E-4),#1192,
'closure',
'Maximum model space distance between geometric entities at asserted connectivities');
#1199=(GEOMETRIC_REPRESENTATION_CONTEXT(3)GLOBAL_UNCERTAINTY_ASSIGNED_CONTEXT((
#1198))GLOBAL_UNIT_ASSIGNED_CONTEXT((#1192,#1196,#1197))REPRESENTATION_CONTEXT(
'ID3','3'));
#1200=CARTESIAN_POINT('',(0.E0,0.E0,0.E0));
#1201=DIRECTION('',(0.E0,0.E0,1.E0));
#1202=DIRECTION('',(1.E0,0.E0,0.E0));
#1204=MECHANICAL_DESIGN_GEOMETRIC_PRESENTATION_REPRESENTATION('',(#36,#43,#50,
#57,#65,#73,#81,#88,#95,#102,#110,#118,#126,#134,#142,#149,#156,#163,#170,#177,
#184,#191,#198,#205,#212,#219,#226,#233,#240,#247,#254,#261,#268,#275,#282,#289,
#28,#608,#615,#622,#629,#636,#644,#651,#658,#665,#672,#679,#686,#693,#700,#708,
#716,#723,#730,#737,#744,#751,#758,#766,#774,#781,#788,#796,#803,#810,#817,#824,
#832,#839,#846,#853,#860,#600),#1199);
#1205=DESIGN_CONTEXT('',#579,'design');
#1206=MECHANICAL_CONTEXT('',#579,'mechanical');
#1207=PRODUCT('DFG0004A_ASM','DFG0004A_ASM','NOT SPECIFIED',(#1206));
#1208=PRODUCT_DEFINITION_FORMATION_WITH_SPECIFIED_SOURCE('17','LAST_VERSION',
#1207,.MADE.);
#1210=PRODUCT_CATEGORY('part','');
#1211=PRODUCT_RELATED_PRODUCT_CATEGORY('assembly','',(#1207));
#1212=PRODUCT_CATEGORY_RELATIONSHIP('','',#1210,#1211);
#1213=PRODUCT_CATEGORY('part','');
#1214=PRODUCT_RELATED_PRODUCT_CATEGORY('detail','',(#583,#1151));
#1215=PRODUCT_CATEGORY_RELATIONSHIP('','',#1213,#1214);
#1216=SECURITY_CLASSIFICATION_LEVEL('unclassified');
#1217=SECURITY_CLASSIFICATION('','',#1216);
#1218=CC_DESIGN_SECURITY_CLASSIFICATION(#1217,(#584,#1152,#1208,#591,#1156,
#1165,#1174,#1183));
#1219=APPROVAL_STATUS('approved');
#1220=APPROVAL(#1219,'');
#1221=CC_DESIGN_APPROVAL(#1220,(#1217,#584,#1152,#1208,#585,#1153,#1209));
#1222=CALENDAR_DATE(121,9,8);
#1223=COORDINATED_UNIVERSAL_TIME_OFFSET(7,0,.BEHIND.);
#1224=LOCAL_TIME(9,24,3.9E1,#1223);
#1225=DATE_AND_TIME(#1222,#1224);
#1226=APPROVAL_DATE_TIME(#1225,#1220);
#1227=DATE_TIME_ROLE('creation_date');
#1228=CC_DESIGN_DATE_AND_TIME_ASSIGNMENT(#1225,#1227,(#585,#1153,#1209));
#1229=DATE_TIME_ROLE('classification_date');
#1230=CC_DESIGN_DATE_AND_TIME_ASSIGNMENT(#1225,#1229,(#1217));
#1231=PERSON('UNSPECIFIED','UNSPECIFIED',$,$,$,$);
#1232=ORGANIZATION('UNSPECIFIED','UNSPECIFIED','UNSPECIFIED');
#1233=PERSON_AND_ORGANIZATION(#1231,#1232);
#1234=APPROVAL_ROLE('approver');
#1235=APPROVAL_PERSON_ORGANIZATION(#1233,#1220,#1234);
#1236=PERSON_AND_ORGANIZATION_ROLE('creator');
#1237=CC_DESIGN_PERSON_AND_ORGANIZATION_ASSIGNMENT(#1233,#1236,(#584,#1152,
#1208,#585,#1153,#1209));
#1238=PERSON_AND_ORGANIZATION_ROLE('design_supplier');
#1239=CC_DESIGN_PERSON_AND_ORGANIZATION_ASSIGNMENT(#1233,#1238,(#584,#1152,
#1208));
#1240=PERSON_AND_ORGANIZATION_ROLE('classification_officer');
#1241=CC_DESIGN_PERSON_AND_ORGANIZATION_ASSIGNMENT(#1233,#1240,(#1217));
#1242=PERSON_AND_ORGANIZATION_ROLE('design_owner');
#1243=CC_DESIGN_PERSON_AND_ORGANIZATION_ASSIGNMENT(#1233,#1242,(#1207,#583,
#1151));
#1=COLOUR_RGB('',0.E0,4.3E-1,1.E0);
#2=COLOUR_RGB('',0.E0,6.6E-1,0.E0);
#3=COLOUR_RGB('',9.8039E-2,9.8039E-2,9.8039E-2);
#4=COLOUR_RGB('',1.80392E-1,2.7451E-1,9.8039E-2);
#5=COLOUR_RGB('',3.E-1,1.29412E-1,2.5098E-1);
#6=COLOUR_RGB('',3.13725E-1,3.13725E-1,3.13725E-1);
#7=COLOUR_RGB('',3.2E-1,4.9E-1,1.76471E-1);
#8=COLOUR_RGB('',3.5E-1,3.5E-1,3.5E-1);
#9=COLOUR_RGB('',3.92157E-1,3.92157E-1,3.92157E-1);
#10=COLOUR_RGB('',5.7E-1,0.E0,1.E0);
#11=COLOUR_RGB('',5.9E-1,3.E-1,0.E0);
#12=COLOUR_RGB('',6.E-1,6.E-1,6.E-1);
#13=COLOUR_RGB('',6.2E-1,3.3E-1,2.3E-1);
#14=COLOUR_RGB('',6.35294E-1,6.86275E-1,7.4902E-1);
#15=COLOUR_RGB('',6.66667E-1,6.66667E-1,6.66667E-1);
#16=COLOUR_RGB('',6.9E-1,0.E0,0.E0);
#17=COLOUR_RGB('',7.E-1,7.E-1,7.E-1);
#18=COLOUR_RGB('',8.23529E-1,7.05882E-1,4.31373E-1);
#19=COLOUR_RGB('',8.39216E-1,8.90196E-1,7.68627E-1);
#20=COLOUR_RGB('',8.62745E-1,4.98039E-1,3.92157E-1);
#21=COLOUR_RGB('',8.7E-1,7.5E-1,4.9E-1);
#22=COLOUR_RGB('',8.82353E-1,8.82353E-1,8.82353E-1);
#23=COLOUR_RGB('',9.80392E-1,9.80392E-1,9.80392E-1);
#24=COLOUR_RGB('',9.9E-1,1.E0,0.E0);
#25=COLOUR_RGB('',1.E0,5.E-1,0.E0);
#26=COLOUR_RGB('',1.E0,6.19608E-1,5.17647E-1);
#27=DRAUGHTING_PRE_DEFINED_COLOUR('white');
#62=CIRCLE('',#61,2.5E-1);
#70=CIRCLE('',#69,2.5E-1);
#78=CIRCLE('',#77,2.5E-1);
#107=CIRCLE('',#106,2.5E-1);
#115=CIRCLE('',#114,2.5E-1);
#123=CIRCLE('',#122,2.5E-1);
#131=CIRCLE('',#130,2.5E-1);
#139=CIRCLE('',#138,2.5E-1);
#343=EDGE_CURVE('',#329,#324,#32,.T.);
#345=EDGE_CURVE('',#329,#332,#40,.T.);
#347=EDGE_CURVE('',#337,#332,#47,.T.);
#349=EDGE_CURVE('',#337,#324,#54,.T.);
#359=EDGE_CURVE('',#324,#325,#70,.T.);
#361=EDGE_CURVE('',#327,#325,#244,.T.);
#363=EDGE_CURVE('',#327,#329,#139,.T.);
#374=EDGE_CURVE('',#311,#313,#62,.T.);
#376=EDGE_CURVE('',#292,#311,#286,.T.);
#378=EDGE_CURVE('',#300,#292,#265,.T.);
#380=EDGE_CURVE('',#325,#300,#251,.T.);
#384=EDGE_CURVE('',#335,#337,#78,.T.);
#386=EDGE_CURVE('',#335,#305,#85,.T.);
#388=EDGE_CURVE('',#305,#297,#92,.T.);
#390=EDGE_CURVE('',#297,#317,#99,.T.);
#392=EDGE_CURVE('',#316,#317,#107,.T.);
#394=EDGE_CURVE('',#316,#313,#174,.T.);
#404=EDGE_CURVE('',#308,#309,#115,.T.);
#406=EDGE_CURVE('',#311,#309,#272,.T.);
#409=EDGE_CURVE('',#313,#308,#167,.T.);
#420=EDGE_CURVE('',#308,#321,#188,.T.);
#422=EDGE_CURVE('',#319,#321,#123,.T.);
#424=EDGE_CURVE('',#296,#319,#209,.T.);
#426=EDGE_CURVE('',#304,#296,#223,.T.);
#428=EDGE_CURVE('',#333,#304,#237,.T.);
#430=EDGE_CURVE('',#332,#333,#131,.T.);
#434=EDGE_CURVE('',#327,#301,#146,.T.);
#436=EDGE_CURVE('',#301,#293,#153,.T.);
#438=EDGE_CURVE('',#293,#309,#160,.T.);
#450=EDGE_CURVE('',#321,#316,#181,.T.);
#462=EDGE_CURVE('',#319,#317,#195,.T.);
#476=EDGE_CURVE('',#296,#297,#202,.T.);
#487=EDGE_CURVE('',#304,#305,#216,.T.);
#500=EDGE_CURVE('',#335,#333,#230,.T.);
#527=EDGE_CURVE('',#300,#301,#258,.T.);
#540=EDGE_CURVE('',#292,#293,#279,.T.);
#566=(LENGTH_UNIT()NAMED_UNIT(*)SI_UNIT(.MILLI.,.METRE.));
#568=(NAMED_UNIT(*)PLANE_ANGLE_UNIT()SI_UNIT($,.RADIAN.));
#571=(NAMED_UNIT(*)SI_UNIT($,.STERADIAN.)SOLID_ANGLE_UNIT());
#577=AXIS2_PLACEMENT_3D('',#574,#575,#576);
#578=ADVANCED_BREP_SHAPE_REPRESENTATION('',(#577,#559),#573);
#585=PRODUCT_DEFINITION('design','',#584,#581);
#586=PRODUCT_DEFINITION_SHAPE('','SHAPE FOR DFG0004A_MOLD.',#585);
#587=SHAPE_DEFINITION_REPRESENTATION(#586,#578);
#588=SHAPE_DEFINITION_REPRESENTATION(#589,#590);
#589=PRODUCT_DEFINITION_SHAPE('','SHAPE FOR DFG0004A_ASM.',#1209);
#590=SHAPE_REPRESENTATION('',(#596,#1161,#1170,#1179,#1188,#1203),#1199);
#591=NEXT_ASSEMBLY_USAGE_OCCURRENCE('0','Next assembly relationship',
'DFG0004A_MOLD',#1209,#585,$);
#592=PRODUCT_DEFINITION_SHAPE('Placement #0',
'Placement of DFG0004A_MOLD with respect to DFG0004A_ASM',#591);
#605=CIRCLE('',#604,3.5E-1);
#641=CIRCLE('',#640,3.5E-1);
#705=CIRCLE('',#704,2.E-1);
#713=CIRCLE('',#712,2.E-1);
#763=CIRCLE('',#762,2.E-1);
#771=CIRCLE('',#770,2.E-1);
#793=CIRCLE('',#792,3.5E-1);
#829=CIRCLE('',#828,3.5E-1);
#914=EDGE_CURVE('',#895,#896,#605,.T.);
#916=EDGE_CURVE('',#895,#883,#612,.T.);
#918=EDGE_CURVE('',#879,#883,#763,.T.);
#920=EDGE_CURVE('',#879,#863,#619,.T.);
#922=EDGE_CURVE('',#863,#864,#626,.T.);
#924=EDGE_CURVE('',#864,#904,#633,.T.);
#926=EDGE_CURVE('',#903,#904,#641,.T.);
#928=EDGE_CURVE('',#903,#891,#648,.T.);
#930=EDGE_CURVE('',#887,#891,#705,.T.);
#932=EDGE_CURVE('',#887,#871,#655,.T.);
#934=EDGE_CURVE('',#871,#872,#662,.T.);
#936=EDGE_CURVE('',#872,#896,#669,.T.);
#947=EDGE_CURVE('',#898,#896,#676,.T.);
#949=EDGE_CURVE('',#898,#900,#793,.T.);
#951=EDGE_CURVE('',#900,#895,#778,.T.);
#963=EDGE_CURVE('',#872,#876,#683,.T.);
#965=EDGE_CURVE('',#876,#898,#800,.T.);
#976=EDGE_CURVE('',#871,#875,#690,.T.);
#978=EDGE_CURVE('',#875,#876,#807,.T.);
#989=EDGE_CURVE('',#887,#888,#697,.T.);
#991=EDGE_CURVE('',#888,#875,#814,.T.);
#1005=EDGE_CURVE('',#891,#892,#727,.T.);
#1007=EDGE_CURVE('',#892,#888,#713,.T.);
#1017=EDGE_CURVE('',#908,#903,#720,.T.);
#1019=EDGE_CURVE('',#892,#908,#821,.T.);
#1032=EDGE_CURVE('',#906,#904,#734,.T.);
#1034=EDGE_CURVE('',#906,#908,#829,.T.);
#1047=EDGE_CURVE('',#864,#868,#741,.T.);
#1049=EDGE_CURVE('',#868,#906,#836,.T.);
#1060=EDGE_CURVE('',#863,#867,#748,.T.);
#1062=EDGE_CURVE('',#867,#868,#843,.T.);
#1073=EDGE_CURVE('',#879,#880,#755,.T.);
#1075=EDGE_CURVE('',#880,#867,#850,.T.);
#1089=EDGE_CURVE('',#883,#884,#785,.T.);
#1091=EDGE_CURVE('',#884,#880,#771,.T.);
#1102=EDGE_CURVE('',#884,#900,#857,.T.);
#1137=(LENGTH_UNIT()NAMED_UNIT(*)SI_UNIT(.MILLI.,.METRE.));
#1139=(NAMED_UNIT(*)PLANE_ANGLE_UNIT()SI_UNIT($,.RADIAN.));
#1142=(NAMED_UNIT(*)SI_UNIT($,.STERADIAN.)SOLID_ANGLE_UNIT());
#1148=AXIS2_PLACEMENT_3D('',#1145,#1146,#1147);
#1149=ADVANCED_BREP_SHAPE_REPRESENTATION('',(#1148,#1130),#1144);
#1153=PRODUCT_DEFINITION('design','',#1152,#581);
#1154=PRODUCT_DEFINITION_SHAPE('','SHAPE FOR DFG0004A_PIN.',#1153);
#1155=SHAPE_DEFINITION_REPRESENTATION(#1154,#1149);
#1156=NEXT_ASSEMBLY_USAGE_OCCURRENCE('1','Next assembly relationship',
'DFG0004A_PIN',#1209,#1153,$);
#1157=PRODUCT_DEFINITION_SHAPE('Placement #1',
'Placement of DFG0004A_PIN with respect to DFG0004A_ASM',#1156);
#1165=NEXT_ASSEMBLY_USAGE_OCCURRENCE('2','Next assembly relationship',
'DFG0004A_PIN',#1209,#1153,$);
#1166=PRODUCT_DEFINITION_SHAPE('Placement #2',
'Placement of DFG0004A_PIN with respect to DFG0004A_ASM',#1165);
#1174=NEXT_ASSEMBLY_USAGE_OCCURRENCE('3','Next assembly relationship',
'DFG0004A_PIN',#1209,#1153,$);
#1175=PRODUCT_DEFINITION_SHAPE('Placement #3',
'Placement of DFG0004A_PIN with respect to DFG0004A_ASM',#1174);
#1183=NEXT_ASSEMBLY_USAGE_OCCURRENCE('4','Next assembly relationship',
'DFG0004A_PIN',#1209,#1153,$);
#1184=PRODUCT_DEFINITION_SHAPE('Placement #4',
'Placement of DFG0004A_PIN with respect to DFG0004A_ASM',#1183);
#1192=(LENGTH_UNIT()NAMED_UNIT(*)SI_UNIT(.MILLI.,.METRE.));
#1194=(NAMED_UNIT(*)PLANE_ANGLE_UNIT()SI_UNIT($,.RADIAN.));
#1197=(NAMED_UNIT(*)SI_UNIT($,.STERADIAN.)SOLID_ANGLE_UNIT());
#1203=AXIS2_PLACEMENT_3D('',#1200,#1201,#1202);
#1209=PRODUCT_DEFINITION('design','',#1208,#1205);
ENDSEC;
END-ISO-10303-21;
