ISO-10303-21;
HEADER;
FILE_DESCRIPTION (( 'STEP AP214' ),
    '1' );
FILE_NAME ('SG732BRed.STEP',
    '2023-03-14T12:50:52',
    ( '' ),
    ( '' ),
    'SwSTEP 2.0',
    'SolidWorks 2021',
    '' );
FILE_SCHEMA (( 'AUTOMOTIVE_DESIGN' ));
ENDSEC;

DATA;
#1 = EDGE_CURVE ( 'NONE', #852, #696, #562, .T. ) ;
#2 = LINE ( 'NONE', #1119, #547 ) ;
#3 = ORIENTED_EDGE ( 'NONE', *, *, #739, .T. ) ;
#4 = CARTESIAN_POINT ( 'NONE',  ( 1.200000000000000178, 0.000000000000000000, -0.8000000000000000444 ) ) ;
#5 = CARTESIAN_POINT ( 'NONE',  ( 1.100000000000000089, 0.6066666666666666874, 0.8000000000000000444 ) ) ;
#6 = LINE ( 'NONE', #151, #189 ) ;
#7 = VERTEX_POINT ( 'NONE', #962 ) ;
#8 = DIRECTION ( 'NONE',  ( 0.000000000000000000, -0.000000000000000000, -1.000000000000000000 ) ) ;
#9 = EDGE_LOOP ( 'NONE', ( #1201, #269, #653, #322 ) ) ;
#10 = EDGE_CURVE ( 'NONE', #460, #1170, #306, .T. ) ;
#11 = DIRECTION ( 'NONE',  ( 1.000000000000000000, 0.000000000000000000, 0.000000000000000000 ) ) ;
#12 = ORIENTED_EDGE ( 'NONE', *, *, #32, .F. ) ;
#13 = ADVANCED_FACE ( 'NONE', ( #578 ), #478, .F. ) ;
#14 = AXIS2_PLACEMENT_3D ( 'NONE', #91, #539, #610 ) ;
#15 = VECTOR ( 'NONE', #549, 1000.000000000000000 ) ;
#16 = ORIENTED_EDGE ( 'NONE', *, *, #941, .T. ) ;
#17 = CARTESIAN_POINT ( 'NONE',  ( -1.599999999999999867, 0.6066666666666666874, 0.8000000000000000444 ) ) ;
#18 = DIRECTION ( 'NONE',  ( -0.000000000000000000, 1.000000000000000000, -0.000000000000000000 ) ) ;
#19 = ORIENTED_EDGE ( 'NONE', *, *, #537, .T. ) ;
#20 = VECTOR ( 'NONE', #1080, 1000.000000000000000 ) ;
#21 = ORIENTED_EDGE ( 'NONE', *, *, #986, .F. ) ;
#22 = DIRECTION ( 'NONE',  ( -2.323290369611796681E-15, 1.000000000000000000, 0.000000000000000000 ) ) ;
#23 = SURFACE_SIDE_STYLE ('',( #860 ) ) ;
#24 = FACE_OUTER_BOUND ( 'NONE', #607, .T. ) ;
#25 = DIRECTION ( 'NONE',  ( -1.000000000000000000, 0.000000000000000000, 0.000000000000000000 ) ) ;
#26 =( NAMED_UNIT ( * ) PLANE_ANGLE_UNIT ( ) SI_UNIT ( $, .RADIAN. ) );
#27 = VECTOR ( 'NONE', #816, 1000.000000000000000 ) ;
#28 = FACE_OUTER_BOUND ( 'NONE', #878, .T. ) ;
#29 = CARTESIAN_POINT ( 'NONE',  ( -1.200000000000000178, 0.04666666666666666186, 0.8000000000000000444 ) ) ;
#30 = ORIENTED_EDGE ( 'NONE', *, *, #1198, .F. ) ;
#31 = DIRECTION ( 'NONE',  ( 0.000000000000000000, 0.000000000000000000, 1.000000000000000000 ) ) ;
#32 = EDGE_CURVE ( 'NONE', #994, #449, #193, .T. ) ;
#33 = PRODUCT_CONTEXT ( 'NONE', #488, 'mechanical' ) ;
#34 =( NAMED_UNIT ( * ) PLANE_ANGLE_UNIT ( ) SI_UNIT ( $, .RADIAN. ) );
#35 = ORIENTED_EDGE ( 'NONE', *, *, #96, .F. ) ;
#36 = EDGE_CURVE ( 'NONE', #363, #442, #377, .T. ) ;
#37 = LINE ( 'NONE', #684, #932 ) ;
#38 = DIRECTION ( 'NONE',  ( 1.000000000000000000, 0.000000000000000000, -0.000000000000000000 ) ) ;
#39 = ORIENTED_EDGE ( 'NONE', *, *, #1151, .T. ) ;
#40 = EDGE_CURVE ( 'NONE', #1010, #161, #573, .T. ) ;
#41 = DIRECTION ( 'NONE',  ( -0.000000000000000000, 1.000000000000000000, -0.000000000000000000 ) ) ;
#42 = CIRCLE ( 'NONE', #718, 0.04666666666666664798 ) ;
#43 = CIRCLE ( 'NONE', #487, 0.04666666666666664798 ) ;
#44 = CARTESIAN_POINT ( 'NONE',  ( -1.200000000000000178, 0.04666666666666666186, 0.8000000000000000444 ) ) ;
#45 = FACE_OUTER_BOUND ( 'NONE', #1090, .T. ) ;
#46 = VERTEX_POINT ( 'NONE', #111 ) ;
#47 = VECTOR ( 'NONE', #1073, 1000.000000000000000 ) ;
#48 = CARTESIAN_POINT ( 'NONE',  ( 1.553333333333333455, 0.6066666666666666874, 0.8000000000000000444 ) ) ;
#49 = CIRCLE ( 'NONE', #531, 0.04666666666666664798 ) ;
#50 = CARTESIAN_POINT ( 'NONE',  ( 1.553333333333333455, 0.04666666666666659247, -0.8000000000000000444 ) ) ;
#51 = VERTEX_POINT ( 'NONE', #1143 ) ;
#52 = EDGE_CURVE ( 'NONE', #1122, #591, #1056, .T. ) ;
#53 = ORIENTED_EDGE ( 'NONE', *, *, #213, .T. ) ;
#54 = CARTESIAN_POINT ( 'NONE',  ( 1.100000000000000089, 0.6533333333333333215, 0.8000000000000000444 ) ) ;
#55 = DIRECTION ( 'NONE',  ( 0.000000000000000000, 0.000000000000000000, 1.000000000000000000 ) ) ;
#56 = EDGE_LOOP ( 'NONE', ( #596, #1087, #846, #649 ) ) ;
#57 = ORIENTED_EDGE ( 'NONE', *, *, #250, .T. ) ;
#58 = FACE_OUTER_BOUND ( 'NONE', #128, .T. ) ;
#59 = VECTOR ( 'NONE', #984, 1000.000000000000000 ) ;
#60 = FACE_OUTER_BOUND ( 'NONE', #1118, .T. ) ;
#61 = VECTOR ( 'NONE', #239, 1000.000000000000000 ) ;
#62 = FACE_OUTER_BOUND ( 'NONE', #498, .T. ) ;
#63 = ORIENTED_EDGE ( 'NONE', *, *, #544, .T. ) ;
#64 = DIRECTION ( 'NONE',  ( -0.000000000000000000, -0.000000000000000000, -1.000000000000000000 ) ) ;
#65 = ORIENTED_EDGE ( 'NONE', *, *, #73, .T. ) ;
#66 = VECTOR ( 'NONE', #1019, 1000.000000000000000 ) ;
#67 = PLANE ( 'NONE',  #251 ) ;
#68 = DIRECTION ( 'NONE',  ( 0.000000000000000000, 0.000000000000000000, -1.000000000000000000 ) ) ;
#69 = VECTOR ( 'NONE', #393, 1000.000000000000000 ) ;
#70 = LINE ( 'NONE', #936, #683 ) ;
#71 = ORIENTED_EDGE ( 'NONE', *, *, #770, .T. ) ;
#72 = CARTESIAN_POINT ( 'NONE',  ( 1.200000000000000178, 0.04666666666666666186, 0.8000000000000000444 ) ) ;
#73 = EDGE_CURVE ( 'NONE', #51, #484, #384, .T. ) ;
#74 = UNCERTAINTY_MEASURE_WITH_UNIT (LENGTH_MEASURE( 1.000000000000000082E-05 ), #875, 'distance_accuracy_value', 'NONE');
#75 = EDGE_LOOP ( 'NONE', ( #552, #35, #163, #1046 ) ) ;
#76 = FACE_OUTER_BOUND ( 'NONE', #172, .T. ) ;
#77 = CARTESIAN_POINT ( 'NONE',  ( -1.553333333333333455, 0.6066666666666666874, -3.956735303724051356 ) ) ;
#78 = CARTESIAN_POINT ( 'NONE',  ( 1.599999999999999867, 0.04666666666666659247, 0.8000000000000000444 ) ) ;
#79 = VERTEX_POINT ( 'NONE', #940 ) ;
#80 = CARTESIAN_POINT ( 'NONE',  ( -1.080670033755922299, 0.6999999999999999556, 0.7806700337559221436 ) ) ;
#81 = ADVANCED_FACE ( 'NONE', ( #492 ), #785, .T. ) ;
#82 = EDGE_LOOP ( 'NONE', ( #1154, #1096, #220, #1084, #177, #689, #901, #281, #1070, #57 ) ) ;
#83 = CARTESIAN_POINT ( 'NONE',  ( -1.553333333333333455, 0.04666666666666659941, 0.8000000000000000444 ) ) ;
#84 = CYLINDRICAL_SURFACE ( 'NONE', #746, 0.04666666666666664798 ) ;
#85 = DIRECTION ( 'NONE',  ( 0.000000000000000000, -1.000000000000000000, -0.000000000000000000 ) ) ;
#86 = ORIENTED_EDGE ( 'NONE', *, *, #920, .F. ) ;
#87 = AXIS2_PLACEMENT_3D ( 'NONE', #392, #667, #1054 ) ;
#88 = CYLINDRICAL_SURFACE ( 'NONE', #602, 0.04666666666666664798 ) ;
#89 = CYLINDRICAL_SURFACE ( 'NONE', #453, 0.04666666666666664798 ) ;
#90 = VERTEX_POINT ( 'NONE', #772 ) ;
#91 = CARTESIAN_POINT ( 'NONE',  ( 1.553333333333333455, 0.6066666666666666874, 0.8000000000000000444 ) ) ;
#92 = MANIFOLD_SOLID_BREP ( 'Fillet1', #710 ) ;
#93 = DIRECTION ( 'NONE',  ( 0.000000000000000000, -0.000000000000000000, 1.000000000000000000 ) ) ;
#94 = CARTESIAN_POINT ( 'NONE',  ( -1.553333333333333455, 0.04666666666666659247, -0.8000000000000000444 ) ) ;
#95 = VERTEX_POINT ( 'NONE', #222 ) ;
#96 = EDGE_CURVE ( 'NONE', #994, #51, #125, .T. ) ;
#97 = ORIENTED_EDGE ( 'NONE', *, *, #910, .T. ) ;
#98 = EDGE_CURVE ( 'NONE', #161, #852, #225, .T. ) ;
#99 = ORIENTED_EDGE ( 'NONE', *, *, #36, .F. ) ;
#100 = CARTESIAN_POINT ( 'NONE',  ( -1.100000000000000089, 0.6533333333333333215, 0.8000000000000000444 ) ) ;
#101 = ORIENTED_EDGE ( 'NONE', *, *, #966, .F. ) ;
#102 = CARTESIAN_POINT ( 'NONE',  ( -1.553333333333333455, 0.6066666666666666874, -0.7999999999999999334 ) ) ;
#103 = CARTESIAN_POINT ( 'NONE',  ( 1.553333333333333455, 0.6533333333333332105, -0.8000000000000000444 ) ) ;
#104 = MANIFOLD_SOLID_BREP ( 'Boss-Extrude2', #979 ) ;
#105 = VERTEX_POINT ( 'NONE', #54 ) ;
#106 = CARTESIAN_POINT ( 'NONE',  ( 1.553333333333333455, 0.6533333333333334325, -0.8000000000000000444 ) ) ;
#107 = AXIS2_PLACEMENT_3D ( 'NONE', #279, #1040, #868 ) ;
#108 = ORIENTED_EDGE ( 'NONE', *, *, #1, .F. ) ;
#109 = DIRECTION ( 'NONE',  ( 0.000000000000000000, 1.000000000000000000, 0.000000000000000000 ) ) ;
#110 = DIRECTION ( 'NONE',  ( 1.912192573756218439E-16, 1.000000000000000000, 0.000000000000000000 ) ) ;
#111 = CARTESIAN_POINT ( 'NONE',  ( 1.200000000000000178, 0.04666666666666666186, -0.8000000000000000444 ) ) ;
#112 = VECTOR ( 'NONE', #372, 1000.000000000000000 ) ;
#113 = DIRECTION ( 'NONE',  ( -0.000000000000000000, 0.000000000000000000, -1.000000000000000000 ) ) ;
#114 = EDGE_CURVE ( 'NONE', #506, #704, #980, .T. ) ;
#115 = DIRECTION ( 'NONE',  ( 0.000000000000000000, -0.000000000000000000, 1.000000000000000000 ) ) ;
#116 = CARTESIAN_POINT ( 'NONE',  ( 1.553333333333333455, 0.6066666666666666874, -3.956735303724051356 ) ) ;
#117 = DIRECTION ( 'NONE',  ( 0.000000000000000000, 1.000000000000000000, 0.000000000000000000 ) ) ;
#118 = CARTESIAN_POINT ( 'NONE',  ( 1.099999999999999867, 0.6533333333333334325, -0.7999999999999999334 ) ) ;
#119 = ADVANCED_FACE ( 'NONE', ( #1173 ), #418, .F. ) ;
#120 = EDGE_LOOP ( 'NONE', ( #16, #328, #179, #925, #416, #1113, #470, #738, #240, #1165 ) ) ;
#121 = DIRECTION ( 'NONE',  ( -1.000000000000000000, 0.000000000000000000, 0.000000000000000000 ) ) ;
#122 = VECTOR ( 'NONE', #113, 1000.000000000000000 ) ;
#123 = AXIS2_PLACEMENT_3D ( 'NONE', #199, #1044, #121 ) ;
#124 = CARTESIAN_POINT ( 'NONE',  ( -1.100000000000000089, 0.6066666666666666874, -3.001978907962361109 ) ) ;
#125 = LINE ( 'NONE', #141, #20 ) ;
#126 = LINE ( 'NONE', #1075, #1121 ) ;
#127 = EDGE_CURVE ( 'NONE', #458, #1029, #302, .T. ) ;
#128 = EDGE_LOOP ( 'NONE', ( #349, #620, #457, #369 ) ) ;
#129 = CIRCLE ( 'NONE', #277, 0.04666666666666664798 ) ;
#130 = EDGE_CURVE ( 'NONE', #304, #852, #678, .T. ) ;
#131 = LINE ( 'NONE', #593, #572 ) ;
#132 = FILL_AREA_STYLE_COLOUR ( '', #398 ) ;
#133 = EDGE_CURVE ( 'NONE', #795, #950, #903, .T. ) ;
#134 = DIRECTION ( 'NONE',  ( -0.000000000000000000, -0.000000000000000000, -1.000000000000000000 ) ) ;
#135 = ORIENTED_EDGE ( 'NONE', *, *, #213, .F. ) ;
#136 = FILL_AREA_STYLE ('',( #132 ) ) ;
#137 = ORIENTED_EDGE ( 'NONE', *, *, #854, .F. ) ;
#138 = CARTESIAN_POINT ( 'NONE',  ( -1.599999999999999867, 0.04666666666666659247, -0.8000000000000000444 ) ) ;
#139 = PRESENTATION_STYLE_ASSIGNMENT (( #604 ) ) ;
#140 =( GEOMETRIC_REPRESENTATION_CONTEXT ( 3 ) GLOBAL_UNCERTAINTY_ASSIGNED_CONTEXT ( ( #74 ) ) GLOBAL_UNIT_ASSIGNED_CONTEXT ( ( #875, #417, #968 ) ) REPRESENTATION_CONTEXT ( 'NONE', 'WORKASPACE' ) );
#141 = CARTESIAN_POINT ( 'NONE',  ( -1.553333333333333455, 0.6066666666666666874, -0.7999999999999999334 ) ) ;
#142 = EDGE_LOOP ( 'NONE', ( #338, #210, #561, #872 ) ) ;
#143 = ADVANCED_FACE ( 'NONE', ( #60 ), #175, .T. ) ;
#144 = MECHANICAL_DESIGN_GEOMETRIC_PRESENTATION_REPRESENTATION (  '', ( #974 ), #627 ) ;
#145 = ORIENTED_EDGE ( 'NONE', *, *, #558, .T. ) ;
#146 = CARTESIAN_POINT ( 'NONE',  ( -1.553333333333333455, 0.6066666666666666874, -3.956735303724051356 ) ) ;
#147 = CARTESIAN_POINT ( 'NONE',  ( -1.100000000000000089, 0.6066666666666666874, 0.8000000000000000444 ) ) ;
#148 = ORIENTED_EDGE ( 'NONE', *, *, #558, .F. ) ;
#149 = VERTEX_POINT ( 'NONE', #533 ) ;
#150 = CARTESIAN_POINT ( 'NONE',  ( 1.600000000000000089, 0.04666666666666659247, 0.8000000000000000444 ) ) ;
#151 = CARTESIAN_POINT ( 'NONE',  ( -1.100000000000000089, 0.6066666666666666874, -0.7999999999999999334 ) ) ;
#152 = VERTEX_POINT ( 'NONE', #1025 ) ;
#153 = CARTESIAN_POINT ( 'NONE',  ( 1.553333333333333455, 0.6533333333333332105, 0.8000000000000000444 ) ) ;
#154 = VERTEX_POINT ( 'NONE', #427 ) ;
#155 = DIRECTION ( 'NONE',  ( 0.000000000000000000, 0.000000000000000000, -1.000000000000000000 ) ) ;
#156 = AXIS2_PLACEMENT_3D ( 'NONE', #180, #249, #454 ) ;
#157 = DIRECTION ( 'NONE',  ( 1.917810446613510276E-16, -1.000000000000000000, 0.000000000000000000 ) ) ;
#158 = ADVANCED_FACE ( 'NONE', ( #700 ), #714, .F. ) ;
#159 = VECTOR ( 'NONE', #824, 1000.000000000000000 ) ;
#160 = CARTESIAN_POINT ( 'NONE',  ( 1.099999999999999867, 0.6533333333333334325, 0.8000000000000000444 ) ) ;
#161 = VERTEX_POINT ( 'NONE', #913 ) ;
#162 = EDGE_CURVE ( 'NONE', #977, #1095, #928, .T. ) ;
#163 = ORIENTED_EDGE ( 'NONE', *, *, #565, .F. ) ;
#164 = VECTOR ( 'NONE', #252, 1000.000000000000000 ) ;
#165 = LINE ( 'NONE', #150, #447 ) ;
#166 = DIRECTION ( 'NONE',  ( 1.000000000000000000, 1.912192573756218193E-16, -0.000000000000000000 ) ) ;
#167 = CARTESIAN_POINT ( 'NONE',  ( -1.553333333333333455, 0.04666666666666659941, 0.8000000000000000444 ) ) ;
#168 = ORIENTED_EDGE ( 'NONE', *, *, #874, .T. ) ;
#169 = EDGE_CURVE ( 'NONE', #460, #795, #243, .T. ) ;
#170 = LINE ( 'NONE', #267, #27 ) ;
#171 = ADVANCED_FACE ( 'NONE', ( #347 ), #1111, .F. ) ;
#172 = EDGE_LOOP ( 'NONE', ( #1021, #586, #781, #693 ) ) ;
#173 = DIRECTION ( 'NONE',  ( -0.000000000000000000, -0.000000000000000000, -1.000000000000000000 ) ) ;
#174 = CLOSED_SHELL ( 'NONE', ( #1169, #158, #1042, #171, #13, #711, #404, #1162, #877, #207, #951, #376 ) ) ;
#175 = PLANE ( 'NONE',  #1144 ) ;
#176 = CARTESIAN_POINT ( 'NONE',  ( -1.553333333333333455, 0.6066666666666666874, 0.8000000000000000444 ) ) ;
#177 = ORIENTED_EDGE ( 'NONE', *, *, #1178, .T. ) ;
#178 = DIRECTION ( 'NONE',  ( 0.000000000000000000, -0.000000000000000000, -1.000000000000000000 ) ) ;
#179 = ORIENTED_EDGE ( 'NONE', *, *, #823, .T. ) ;
#180 = CARTESIAN_POINT ( 'NONE',  ( 1.553333333333333455, 0.6066666666666666874, -0.8000000000000000444 ) ) ;
#181 = LINE ( 'NONE', #623, #410 ) ;
#182 = LINE ( 'NONE', #723, #15 ) ;
#183 = ADVANCED_FACE ( 'NONE', ( #1086 ), #637, .F. ) ;
#184 = ORIENTED_EDGE ( 'NONE', *, *, #314, .F. ) ;
#185 = VECTOR ( 'NONE', #336, 1000.000000000000000 ) ;
#186 = ADVANCED_FACE ( 'NONE', ( #996 ), #84, .T. ) ;
#187 = ORIENTED_EDGE ( 'NONE', *, *, #879, .F. ) ;
#188 = CARTESIAN_POINT ( 'NONE',  ( -1.553333333333333455, 0.6066666666666666874, -0.8000000000000000444 ) ) ;
#189 = VECTOR ( 'NONE', #929, 1000.000000000000000 ) ;
#190 = EDGE_LOOP ( 'NONE', ( #235, #135, #63, #97 ) ) ;
#191 = CARTESIAN_POINT ( 'NONE',  ( -1.100000000000000089, 0.6533333333333333215, -0.8000000000000000444 ) ) ;
#192 = APPLICATION_PROTOCOL_DEFINITION ( 'draft international standard', 'automotive_design', 1998, #488 ) ;
#193 = LINE ( 'NONE', #116, #437 ) ;
#194 = CARTESIAN_POINT ( 'NONE',  ( -1.553333333333333455, 0.6066666666666666874, -0.8000000000000000444 ) ) ;
#195 = EDGE_LOOP ( 'NONE', ( #283, #272, #886, #101 ) ) ;
#196 = DIRECTION ( 'NONE',  ( 1.000000000000000000, 0.000000000000000000, 0.000000000000000000 ) ) ;
#197 = PLANE ( 'NONE',  #1068 ) ;
#198 = DIRECTION ( 'NONE',  ( 0.000000000000000000, -0.000000000000000000, -1.000000000000000000 ) ) ;
#199 = CARTESIAN_POINT ( 'NONE',  ( -1.553333333333333455, 0.04666666666666659247, 0.8000000000000000444 ) ) ;
#200 = AXIS2_PLACEMENT_3D ( 'NONE', #705, #616, #433 ) ;
#201 = PRESENTATION_LAYER_ASSIGNMENT (  '', '', ( #524 ) ) ;
#202 = CARTESIAN_POINT ( 'NONE',  ( -1.100000000000000089, 0.6533333333333333215, -3.001978907962361109 ) ) ;
#203 =( NAMED_UNIT ( * ) PLANE_ANGLE_UNIT ( ) SI_UNIT ( $, .RADIAN. ) );
#204 = CARTESIAN_POINT ( 'NONE',  ( -1.553333333333333455, 0.6066666666666666874, -3.956735303724051356 ) ) ;
#205 = VECTOR ( 'NONE', #1016, 1000.000000000000000 ) ;
#206 = PLANE ( 'NONE',  #370 ) ;
#207 = ADVANCED_FACE ( 'NONE', ( #822 ), #813, .F. ) ;
#208 = AXIS2_PLACEMENT_3D ( 'NONE', #594, #406, #231 ) ;
#209 = DIRECTION ( 'NONE',  ( 0.000000000000000000, 0.000000000000000000, -1.000000000000000000 ) ) ;
#210 = ORIENTED_EDGE ( 'NONE', *, *, #685, .F. ) ;
#211 = CARTESIAN_POINT ( 'NONE',  ( -1.100000000000000089, 0.6066666666666666874, -0.7999999999999999334 ) ) ;
#212 = DIRECTION ( 'NONE',  ( 0.000000000000000000, 0.000000000000000000, 1.000000000000000000 ) ) ;
#213 = EDGE_CURVE ( 'NONE', #1196, #458, #830, .T. ) ;
#214 = ORIENTED_EDGE ( 'NONE', *, *, #133, .F. ) ;
#215 = VECTOR ( 'NONE', #1161, 1000.000000000000000 ) ;
#216 = VECTOR ( 'NONE', #85, 1000.000000000000000 ) ;
#217 = DIRECTION ( 'NONE',  ( 0.000000000000000000, 1.000000000000000000, 0.000000000000000000 ) ) ;
#218 = EDGE_CURVE ( 'NONE', #388, #7, #1199, .T. ) ;
#219 = SURFACE_SIDE_STYLE ('',( #691 ) ) ;
#220 = ORIENTED_EDGE ( 'NONE', *, *, #777, .T. ) ;
#221 = SURFACE_STYLE_FILL_AREA ( #895 ) ;
#222 = CARTESIAN_POINT ( 'NONE',  ( -1.100000000000000089, 0.6066666666666666874, 0.8000000000000000444 ) ) ;
#223 = ORIENTED_EDGE ( 'NONE', *, *, #823, .F. ) ;
#224 = CARTESIAN_POINT ( 'NONE',  ( -1.553333333333333455, 0.04666666666666659941, -3.956735303724051356 ) ) ;
#225 = LINE ( 'NONE', #318, #256 ) ;
#226 = LINE ( 'NONE', #701, #61 ) ;
#227 = ORIENTED_EDGE ( 'NONE', *, *, #565, .T. ) ;
#228 = VERTEX_POINT ( 'NONE', #730 ) ;
#229 = LINE ( 'NONE', #1079, #390 ) ;
#230 = VECTOR ( 'NONE', #636, 1000.000000000000000 ) ;
#231 = DIRECTION ( 'NONE',  ( 1.000000000000000000, 0.000000000000000000, 0.000000000000000000 ) ) ;
#232 = CARTESIAN_POINT ( 'NONE',  ( 1.553333333333333455, 0.6066666666666666874, -0.8000000000000000444 ) ) ;
#233 = PLANE ( 'NONE',  #1062 ) ;
#234 = EDGE_LOOP ( 'NONE', ( #609, #740, #1137, #3 ) ) ;
#235 = ORIENTED_EDGE ( 'NONE', *, *, #127, .F. ) ;
#236 = PLANE ( 'NONE',  #200 ) ;
#237 = MECHANICAL_DESIGN_GEOMETRIC_PRESENTATION_REPRESENTATION (  '', ( #1033 ), #312 ) ;
#238 = DIRECTION ( 'NONE',  ( -1.000000000000000000, 0.000000000000000000, 0.000000000000000000 ) ) ;
#239 = DIRECTION ( 'NONE',  ( 0.000000000000000000, -1.000000000000000000, 0.000000000000000000 ) ) ;
#240 = ORIENTED_EDGE ( 'NONE', *, *, #391, .T. ) ;
#241 = CARTESIAN_POINT ( 'NONE',  ( 1.099999999999999867, 0.6533333333333334325, -3.001978907962361109 ) ) ;
#242 = FACE_OUTER_BOUND ( 'NONE', #628, .T. ) ;
#243 = LINE ( 'NONE', #540, #491 ) ;
#244 = CARTESIAN_POINT ( 'NONE',  ( -1.053333333333333455, 0.6533333333333333215, -3.001978907962361109 ) ) ;
#245 = ORIENTED_EDGE ( 'NONE', *, *, #1053, .T. ) ;
#246 = DIRECTION ( 'NONE',  ( 1.000000000000000000, 0.000000000000000000, 0.000000000000000000 ) ) ;
#247 = EDGE_CURVE ( 'NONE', #926, #698, #181, .T. ) ;
#248 = ORIENTED_EDGE ( 'NONE', *, *, #513, .T. ) ;
#249 = DIRECTION ( 'NONE',  ( -0.000000000000000000, -0.000000000000000000, -1.000000000000000000 ) ) ;
#250 = EDGE_CURVE ( 'NONE', #828, #506, #548, .T. ) ;
#251 = AXIS2_PLACEMENT_3D ( 'NONE', #960, #475, #1022 ) ;
#252 = DIRECTION ( 'NONE',  ( 1.000000000000000000, 0.000000000000000000, 0.000000000000000000 ) ) ;
#253 = DIRECTION ( 'NONE',  ( -1.000000000000000000, -2.391622439306259897E-16, 0.000000000000000000 ) ) ;
#254 = EDGE_LOOP ( 'NONE', ( #987, #542, #557, #1179 ) ) ;
#255 = FACE_OUTER_BOUND ( 'NONE', #195, .T. ) ;
#256 = VECTOR ( 'NONE', #584, 1000.000000000000000 ) ;
#257 = DIRECTION ( 'NONE',  ( 0.000000000000000000, 0.000000000000000000, -1.000000000000000000 ) ) ;
#258 = DIRECTION ( 'NONE',  ( 1.000000000000000000, 1.912192573756218193E-16, -0.000000000000000000 ) ) ;
#259 = LINE ( 'NONE', #176, #1028 ) ;
#260 = ORIENTED_EDGE ( 'NONE', *, *, #1178, .F. ) ;
#261 = ORIENTED_EDGE ( 'NONE', *, *, #314, .T. ) ;
#262 = CARTESIAN_POINT ( 'NONE',  ( 1.200000000000000178, 0.04666666666666666186, 0.8000000000000000444 ) ) ;
#263 = ADVANCED_FACE ( 'NONE', ( #923 ), #935, .T. ) ;
#264 = CARTESIAN_POINT ( 'NONE',  ( -1.553333333333333455, 0.04666666666666659941, -0.7999999999999999334 ) ) ;
#265 = DIRECTION ( 'NONE',  ( 1.000000000000000000, -0.000000000000000000, 0.000000000000000000 ) ) ;
#266 = VERTEX_POINT ( 'NONE', #5 ) ;
#267 = CARTESIAN_POINT ( 'NONE',  ( -1.100000000000000089, 0.6533333333333333215, 0.8000000000000000444 ) ) ;
#268 = EDGE_CURVE ( 'NONE', #51, #388, #459, .T. ) ;
#269 = ORIENTED_EDGE ( 'NONE', *, *, #311, .F. ) ;
#270 = PLANE ( 'NONE',  #767 ) ;
#271 = AXIS2_PLACEMENT_3D ( 'NONE', #955, #109, #115 ) ;
#272 = ORIENTED_EDGE ( 'NONE', *, *, #812, .F. ) ;
#273 = VECTOR ( 'NONE', #1175, 1000.000000000000000 ) ;
#274 = DIRECTION ( 'NONE',  ( 1.000000000000000000, 2.391622439306259897E-16, 0.000000000000000000 ) ) ;
#275 = EDGE_LOOP ( 'NONE', ( #1115, #825, #566, #545 ) ) ;
#276 = EDGE_CURVE ( 'NONE', #432, #535, #666, .T. ) ;
#277 = AXIS2_PLACEMENT_3D ( 'NONE', #614, #520, #246 ) ;
#278 = LINE ( 'NONE', #191, #1051 ) ;
#279 = CARTESIAN_POINT ( 'NONE',  ( -1.553333333333333455, 0.6066666666666666874, 0.8000000000000000444 ) ) ;
#280 = DIRECTION ( 'NONE',  ( 1.000000000000000000, -1.912192573756218439E-16, 0.000000000000000000 ) ) ;
#281 = ORIENTED_EDGE ( 'NONE', *, *, #652, .T. ) ;
#282 = FACE_OUTER_BOUND ( 'NONE', #866, .T. ) ;
#283 = ORIENTED_EDGE ( 'NONE', *, *, #10, .F. ) ;
#284 = LINE ( 'NONE', #741, #309 ) ;
#285 = CARTESIAN_POINT ( 'NONE',  ( 1.080670033755922077, 0.6999999999999997335, -0.7806700337559221436 ) ) ;
#286 = CARTESIAN_POINT ( 'NONE',  ( -1.100000000000000089, 0.6533333333333333215, -0.7999999999999999334 ) ) ;
#287 = FILL_AREA_STYLE ('',( #468 ) ) ;
#288 = VERTEX_POINT ( 'NONE', #844 ) ;
#289 = DIRECTION ( 'NONE',  ( -0.000000000000000000, -0.000000000000000000, -1.000000000000000000 ) ) ;
#290 = EDGE_CURVE ( 'NONE', #46, #535, #1132, .T. ) ;
#291 = CARTESIAN_POINT ( 'NONE',  ( -1.553333333333333455, 0.6533333333333334325, 0.8000000000000000444 ) ) ;
#292 = PRESENTATION_STYLE_ASSIGNMENT (( #1059 ) ) ;
#293 = VECTOR ( 'NONE', #838, 1000.000000000000000 ) ;
#294 = PLANE ( 'NONE',  #87 ) ;
#295 = DIRECTION ( 'NONE',  ( 0.000000000000000000, 0.000000000000000000, 1.000000000000000000 ) ) ;
#296 = VECTOR ( 'NONE', #599, 1000.000000000000000 ) ;
#297 = DIRECTION ( 'NONE',  ( -1.000000000000000000, -1.917810446613510276E-16, 0.000000000000000000 ) ) ;
#298 = EDGE_CURVE ( 'NONE', #316, #95, #284, .T. ) ;
#299 = CARTESIAN_POINT ( 'NONE',  ( 1.553333333333333455, 0.6066666666666666874, -0.8000000000000000444 ) ) ;
#300 = ORIENTED_EDGE ( 'NONE', *, *, #695, .T. ) ;
#301 = LINE ( 'NONE', #949, #467 ) ;
#302 = LINE ( 'NONE', #232, #47 ) ;
#303 = CARTESIAN_POINT ( 'NONE',  ( 1.200000000000000178, 0.04666666666666666186, -0.8000000000000000444 ) ) ;
#304 = VERTEX_POINT ( 'NONE', #563 ) ;
#305 = VECTOR ( 'NONE', #731, 1000.000000000000000 ) ;
#306 =( BOUNDED_CURVE ( )  B_SPLINE_CURVE ( 3, ( #761, #948, #756, #286 ),
 .UNSPECIFIED., .F., .T. ) 
 B_SPLINE_CURVE_WITH_KNOTS ( ( 4, 4 ),
 ( 4.712388980384689674, 6.283185307179586232 ),
 .UNSPECIFIED. ) 
 CURVE ( )  GEOMETRIC_REPRESENTATION_ITEM ( )  RATIONAL_B_SPLINE_CURVE ( ( 1.000000000000000000, 0.8047378541243649375, 0.8047378541243649375, 1.000000000000000000 ) ) 
 REPRESENTATION_ITEM ( '' )  );
#307 = DIRECTION ( 'NONE',  ( 0.000000000000000000, -0.000000000000000000, -1.000000000000000000 ) ) ;
#308 = ORIENTED_EDGE ( 'NONE', *, *, #133, .T. ) ;
#309 = VECTOR ( 'NONE', #196, 1000.000000000000000 ) ;
#310 =( BOUNDED_CURVE ( )  B_SPLINE_CURVE ( 3, ( #118, #859, #285, #964 ),
 .UNSPECIFIED., .F., .T. ) 
 B_SPLINE_CURVE_WITH_KNOTS ( ( 4, 4 ),
 ( 3.141592653589795336, 4.712388980384689674 ),
 .UNSPECIFIED. ) 
 CURVE ( )  GEOMETRIC_REPRESENTATION_ITEM ( )  RATIONAL_B_SPLINE_CURVE ( ( 1.000000000000000000, 0.8047378541243654926, 0.8047378541243654926, 1.000000000000000000 ) ) 
 REPRESENTATION_ITEM ( '' )  );
#311 = EDGE_CURVE ( 'NONE', #798, #1170, #1124, .T. ) ;
#312 =( GEOMETRIC_REPRESENTATION_CONTEXT ( 3 ) GLOBAL_UNCERTAINTY_ASSIGNED_CONTEXT ( ( #1071 ) ) GLOBAL_UNIT_ASSIGNED_CONTEXT ( ( #896, #778, #490 ) ) REPRESENTATION_CONTEXT ( 'NONE', 'WORKASPACE' ) );
#313 = LINE ( 'NONE', #411, #760 ) ;
#314 = EDGE_CURVE ( 'NONE', #493, #304, #278, .T. ) ;
#315 = ORIENTED_EDGE ( 'NONE', *, *, #836, .T. ) ;
#316 = VERTEX_POINT ( 'NONE', #569 ) ;
#317 = CARTESIAN_POINT ( 'NONE',  ( -1.100000000000000089, 0.6066666666666666874, 0.8000000000000000444 ) ) ;
#318 = CARTESIAN_POINT ( 'NONE',  ( -1.553333333333333455, 0.6533333333333332105, 0.8000000000000000444 ) ) ;
#319 = LINE ( 'NONE', #981, #587 ) ;
#320 = ORIENTED_EDGE ( 'NONE', *, *, #997, .F. ) ;
#321 = VECTOR ( 'NONE', #474, 1000.000000000000000 ) ;
#322 = ORIENTED_EDGE ( 'NONE', *, *, #169, .F. ) ;
#323 = DIRECTION ( 'NONE',  ( -1.000000000000000000, 0.000000000000000000, 0.000000000000000000 ) ) ;
#324 = MECHANICAL_DESIGN_GEOMETRIC_PRESENTATION_REPRESENTATION (  '', ( #1155 ), #140 ) ;
#325 =( NAMED_UNIT ( * ) SI_UNIT ( $, .STERADIAN. ) SOLID_ANGLE_UNIT ( ) );
#326 = ORIENTED_EDGE ( 'NONE', *, *, #73, .F. ) ;
#327 = DIRECTION ( 'NONE',  ( 0.000000000000000000, 0.000000000000000000, 1.000000000000000000 ) ) ;
#328 = ORIENTED_EDGE ( 'NONE', *, *, #290, .T. ) ;
#329 = EDGE_CURVE ( 'NONE', #828, #977, #954, .T. ) ;
#330 = CARTESIAN_POINT ( 'NONE',  ( -1.100000000000000089, 0.6533333333333333215, 0.8000000000000000444 ) ) ;
#331 = EDGE_CURVE ( 'NONE', #696, #228, #1116, .T. ) ;
#332 = DIRECTION ( 'NONE',  ( 1.000000000000000000, 0.000000000000000000, 0.000000000000000000 ) ) ;
#333 = CARTESIAN_POINT ( 'NONE',  ( 0.000000000000000000, 0.6533333333333333215, 0.7533333333333334103 ) ) ;
#334 = ORIENTED_EDGE ( 'NONE', *, *, #1093, .T. ) ;
#335 = CARTESIAN_POINT ( 'NONE',  ( -1.553333333333333455, 0.04666666666666659941, -0.7999999999999999334 ) ) ;
#336 = DIRECTION ( 'NONE',  ( 0.000000000000000000, 1.000000000000000000, 0.000000000000000000 ) ) ;
#337 = EDGE_CURVE ( 'NONE', #449, #484, #351, .T. ) ;
#338 = ORIENTED_EDGE ( 'NONE', *, *, #422, .T. ) ;
#339 = CARTESIAN_POINT ( 'NONE',  ( 1.200000000000000178, 0.04666666666666666186, 0.8000000000000000444 ) ) ;
#340 = DIRECTION ( 'NONE',  ( 0.000000000000000000, -0.000000000000000000, -1.000000000000000000 ) ) ;
#341 = ADVANCED_FACE ( 'NONE', ( #861 ), #89, .T. ) ;
#342 = LINE ( 'NONE', #1026, #159 ) ;
#343 = ORIENTED_EDGE ( 'NONE', *, *, #1030, .T. ) ;
#344 = UNCERTAINTY_MEASURE_WITH_UNIT (LENGTH_MEASURE( 1.000000000000000082E-05 ), #668, 'distance_accuracy_value', 'NONE');
#345 = ORIENTED_EDGE ( 'NONE', *, *, #331, .T. ) ;
#346 = DIRECTION ( 'NONE',  ( 1.000000000000000000, 0.000000000000000000, 0.000000000000000000 ) ) ;
#347 = FACE_OUTER_BOUND ( 'NONE', #841, .T. ) ;
#348 = DIRECTION ( 'NONE',  ( 0.000000000000000000, -0.000000000000000000, 1.000000000000000000 ) ) ;
#349 = ORIENTED_EDGE ( 'NONE', *, *, #130, .T. ) ;
#350 = DIRECTION ( 'NONE',  ( -2.323290369611796681E-15, 1.000000000000000000, 0.000000000000000000 ) ) ;
#351 = LINE ( 'NONE', #943, #112 ) ;
#352 = ORIENTED_EDGE ( 'NONE', *, *, #1074, .F. ) ;
#353 = COLOUR_RGB ( '',1.000000000000000000, 1.000000000000000000, 1.000000000000000000 ) ;
#354 = CARTESIAN_POINT ( 'NONE',  ( 1.553333333333333455, 0.04666666666666659247, -0.8000000000000000444 ) ) ;
#355 = DIRECTION ( 'NONE',  ( -1.912192573756218439E-16, 1.000000000000000000, 0.000000000000000000 ) ) ;
#356 = FACE_OUTER_BOUND ( 'NONE', #787, .T. ) ;
#357 = ORIENTED_EDGE ( 'NONE', *, *, #544, .F. ) ;
#358 = DIRECTION ( 'NONE',  ( -1.000000000000000000, 0.000000000000000000, 0.000000000000000000 ) ) ;
#359 = ORIENTED_EDGE ( 'NONE', *, *, #910, .F. ) ;
#360 = CARTESIAN_POINT ( 'NONE',  ( -1.200000000000000178, 0.04666666666666666186, 0.8000000000000000444 ) ) ;
#361 = DIRECTION ( 'NONE',  ( -0.000000000000000000, -0.000000000000000000, -1.000000000000000000 ) ) ;
#362 = DIRECTION ( 'NONE',  ( 0.000000000000000000, -0.000000000000000000, -1.000000000000000000 ) ) ;
#363 = VERTEX_POINT ( 'NONE', #153 ) ;
#364 = EDGE_CURVE ( 'NONE', #1176, #228, #554, .T. ) ;
#365 = ORIENTED_EDGE ( 'NONE', *, *, #1067, .T. ) ;
#366 = FACE_OUTER_BOUND ( 'NONE', #275, .T. ) ;
#367 = CARTESIAN_POINT ( 'NONE',  ( 1.553333333333333455, 0.6066666666666666874, 0.8000000000000000444 ) ) ;
#368 = AXIS2_PLACEMENT_3D ( 'NONE', #864, #742, #651 ) ;
#369 = ORIENTED_EDGE ( 'NONE', *, *, #657, .T. ) ;
#370 = AXIS2_PLACEMENT_3D ( 'NONE', #582, #967, #307 ) ;
#371 = LINE ( 'NONE', #768, #643 ) ;
#372 = DIRECTION ( 'NONE',  ( -1.000000000000000000, -0.000000000000000000, -0.000000000000000000 ) ) ;
#373 = ORIENTED_EDGE ( 'NONE', *, *, #652, .F. ) ;
#374 = VECTOR ( 'NONE', #258, 1000.000000000000000 ) ;
#375 = PRESENTATION_STYLE_ASSIGNMENT (( #947 ) ) ;
#376 = ADVANCED_FACE ( 'NONE', ( #793 ), #788, .T. ) ;
#377 = LINE ( 'NONE', #766, #1150 ) ;
#378 = AXIS2_PLACEMENT_3D ( 'NONE', #244, #348, #1020 ) ;
#379 = LINE ( 'NONE', #395, #122 ) ;
#380 = ORIENTED_EDGE ( 'NONE', *, *, #268, .T. ) ;
#381 = EDGE_CURVE ( 'NONE', #712, #591, #1177, .T. ) ;
#382 = DIRECTION ( 'NONE',  ( 0.000000000000000000, 0.000000000000000000, 1.000000000000000000 ) ) ;
#383 = EDGE_CURVE ( 'NONE', #1168, #154, #129, .T. ) ;
#384 = LINE ( 'NONE', #204, #842 ) ;
#385 = LINE ( 'NONE', #194, #585 ) ;
#386 = CARTESIAN_POINT ( 'NONE',  ( 1.553333333333333455, 0.04666666666666659941, 0.8000000000000000444 ) ) ;
#387 = PLANE ( 'NONE',  #555 ) ;
#388 = VERTEX_POINT ( 'NONE', #335 ) ;
#389 =( NAMED_UNIT ( * ) SI_UNIT ( $, .STERADIAN. ) SOLID_ANGLE_UNIT ( ) );
#390 = VECTOR ( 'NONE', #989, 1000.000000000000000 ) ;
#391 = EDGE_CURVE ( 'NONE', #655, #926, #780, .T. ) ;
#392 = CARTESIAN_POINT ( 'NONE',  ( 0.000000000000000000, 0.000000000000000000, 0.8000000000000000444 ) ) ;
#393 = DIRECTION ( 'NONE',  ( 0.000000000000000000, -0.000000000000000000, -1.000000000000000000 ) ) ;
#394 = ORIENTED_EDGE ( 'NONE', *, *, #1037, .F. ) ;
#395 = CARTESIAN_POINT ( 'NONE',  ( 1.053333333333333455, 0.6999999999999999556, -3.001978907962361109 ) ) ;
#396 = FACE_OUTER_BOUND ( 'NONE', #1083, .T. ) ;
#397 =( LENGTH_UNIT ( ) NAMED_UNIT ( * ) SI_UNIT ( .MILLI., .METRE. ) );
#398 = COLOUR_RGB ( '',1.000000000000000000, 0.1686274509803921684, 0.1686274509803921684 ) ;
#399 = LINE ( 'NONE', #992, #574 ) ;
#400 = EDGE_LOOP ( 'NONE', ( #894, #71, #674, #145 ) ) ;
#401 = DIRECTION ( 'NONE',  ( -1.000000000000000000, 1.912192573756218193E-16, 0.000000000000000000 ) ) ;
#402 = EDGE_LOOP ( 'NONE', ( #261, #466, #260, #452 ) ) ;
#403 = VECTOR ( 'NONE', #1102, 1000.000000000000000 ) ;
#404 = ADVANCED_FACE ( 'NONE', ( #366 ), #961, .T. ) ;
#405 = LINE ( 'NONE', #317, #215 ) ;
#406 = DIRECTION ( 'NONE',  ( 0.000000000000000000, 0.000000000000000000, 1.000000000000000000 ) ) ;
#407 = PRESENTATION_STYLE_ASSIGNMENT (( #779 ) ) ;
#408 = CARTESIAN_POINT ( 'NONE',  ( 1.100000000000000089, 0.6533333333333333215, 0.8000000000000000444 ) ) ;
#409 = ORIENTED_EDGE ( 'NONE', *, *, #997, .T. ) ;
#410 = VECTOR ( 'NONE', #1012, 1000.000000000000000 ) ;
#411 = CARTESIAN_POINT ( 'NONE',  ( 1.553333333333333455, 0.04666666666666659941, 0.8000000000000000444 ) ) ;
#412 = ADVANCED_FACE ( 'NONE', ( #570 ), #764, .T. ) ;
#413 = DIRECTION ( 'NONE',  ( 0.000000000000000000, 0.000000000000000000, -1.000000000000000000 ) ) ;
#414 = ORIENTED_EDGE ( 'NONE', *, *, #513, .F. ) ;
#415 = CARTESIAN_POINT ( 'NONE',  ( -1.600000000000000089, 0.04666666666666659247, 0.8000000000000000444 ) ) ;
#416 = ORIENTED_EDGE ( 'NONE', *, *, #920, .T. ) ;
#417 =( NAMED_UNIT ( * ) PLANE_ANGLE_UNIT ( ) SI_UNIT ( $, .RADIAN. ) );
#418 = PLANE ( 'NONE',  #835 ) ;
#419 = CARTESIAN_POINT ( 'NONE',  ( 1.053333333333333233, 0.6999999999999999556, 0.7533333333333334103 ) ) ;
#420 = ORIENTED_EDGE ( 'NONE', *, *, #331, .F. ) ;
#421 = DIRECTION ( 'NONE',  ( -0.000000000000000000, 0.000000000000000000, -1.000000000000000000 ) ) ;
#422 = EDGE_CURVE ( 'NONE', #79, #568, #858, .T. ) ;
#423 = AXIS2_PLACEMENT_3D ( 'NONE', #834, #358, #647 ) ;
#424 = ORIENTED_EDGE ( 'NONE', *, *, #276, .T. ) ;
#425 = PLANE ( 'NONE',  #14 ) ;
#426 =( GEOMETRIC_REPRESENTATION_CONTEXT ( 3 ) GLOBAL_UNCERTAINTY_ASSIGNED_CONTEXT ( ( #817 ) ) GLOBAL_UNIT_ASSIGNED_CONTEXT ( ( #665, #26, #389 ) ) REPRESENTATION_CONTEXT ( 'NONE', 'WORKASPACE' ) );
#427 = CARTESIAN_POINT ( 'NONE',  ( 1.553333333333333455, -6.756413760605303213E-17, 0.8000000000000000444 ) ) ;
#428 = DIRECTION ( 'NONE',  ( 0.000000000000000000, -0.000000000000000000, -1.000000000000000000 ) ) ;
#429 = VERTEX_POINT ( 'NONE', #17 ) ;
#430 = ADVANCED_FACE ( 'NONE', ( #850 ), #476, .T. ) ;
#431 = MECHANICAL_DESIGN_GEOMETRIC_PRESENTATION_REPRESENTATION (  '', ( #721 ), #805 ) ;
#432 = VERTEX_POINT ( 'NONE', #386 ) ;
#433 = DIRECTION ( 'NONE',  ( -0.000000000000000000, 0.000000000000000000, -1.000000000000000000 ) ) ;
#434 = CARTESIAN_POINT ( 'NONE',  ( 1.053333333333333233, 0.6533333333333333215, -3.001978907962361109 ) ) ;
#435 = ORIENTED_EDGE ( 'NONE', *, *, #969, .F. ) ;
#436 = CARTESIAN_POINT ( 'NONE',  ( 0.000000000000000000, 0.000000000000000000, 0.8000000000000000444 ) ) ;
#437 = VECTOR ( 'NONE', #581, 1000.000000000000000 ) ;
#438 = ORIENTED_EDGE ( 'NONE', *, *, #298, .F. ) ;
#439 = PLANE ( 'NONE',  #465 ) ;
#440 = CARTESIAN_POINT ( 'NONE',  ( -1.200000000000000178, 0.000000000000000000, 0.8000000000000000444 ) ) ;
#441 = CARTESIAN_POINT ( 'NONE',  ( 1.100000000000000089, 0.6533333333333333215, -0.8000000000000000444 ) ) ;
#442 = VERTEX_POINT ( 'NONE', #103 ) ;
#443 = PLANE ( 'NONE',  #970 ) ;
#444 = ADVANCED_FACE ( 'NONE', ( #28 ), #294, .T. ) ;
#445 = EDGE_LOOP ( 'NONE', ( #1017, #550, #409, #719 ) ) ;
#446 = CARTESIAN_POINT ( 'NONE',  ( -1.599999999999999867, 0.04666666666666659247, 0.8000000000000000444 ) ) ;
#447 = VECTOR ( 'NONE', #803, 1000.000000000000000 ) ;
#448 = DIRECTION ( 'NONE',  ( -1.000000000000000000, -1.912192573756218439E-16, 0.000000000000000000 ) ) ;
#449 = VERTEX_POINT ( 'NONE', #1146 ) ;
#450 = FACE_OUTER_BOUND ( 'NONE', #400, .T. ) ;
#451 = CARTESIAN_POINT ( 'NONE',  ( 1.553333333333333455, 0.04666666666666659247, 0.8000000000000000444 ) ) ;
#452 = ORIENTED_EDGE ( 'NONE', *, *, #969, .T. ) ;
#453 = AXIS2_PLACEMENT_3D ( 'NONE', #451, #362, #1088 ) ;
#454 = DIRECTION ( 'NONE',  ( 1.000000000000000000, 0.000000000000000000, 0.000000000000000000 ) ) ;
#455 = DIRECTION ( 'NONE',  ( -1.000000000000000000, 0.000000000000000000, 0.000000000000000000 ) ) ;
#456 = FACE_OUTER_BOUND ( 'NONE', #473, .T. ) ;
#457 = ORIENTED_EDGE ( 'NONE', *, *, #40, .F. ) ;
#458 = VERTEX_POINT ( 'NONE', #299 ) ;
#459 = LINE ( 'NONE', #102, #855 ) ;
#460 = VERTEX_POINT ( 'NONE', #888 ) ;
#461 = ORIENTED_EDGE ( 'NONE', *, *, #931, .T. ) ;
#462 = EDGE_CURVE ( 'NONE', #388, #692, #771, .T. ) ;
#463 = CARTESIAN_POINT ( 'NONE',  ( -1.200000000000000178, 0.04666666666666666186, -0.8000000000000000444 ) ) ;
#464 = FACE_OUTER_BOUND ( 'NONE', #732, .T. ) ;
#465 = AXIS2_PLACEMENT_3D ( 'NONE', #354, #257, #829 ) ;
#466 = ORIENTED_EDGE ( 'NONE', *, *, #657, .F. ) ;
#467 = VECTOR ( 'NONE', #1140, 1000.000000000000000 ) ;
#468 = FILL_AREA_STYLE_COLOUR ( '', #909 ) ;
#469 = ADVANCED_FACE ( 'NONE', ( #598 ), #699, .T. ) ;
#470 = ORIENTED_EDGE ( 'NONE', *, *, #645, .T. ) ;
#471 = AXIS2_PLACEMENT_3D ( 'NONE', #517, #157, #525 ) ;
#472 = CARTESIAN_POINT ( 'NONE',  ( 1.553333333333333455, 0.6066666666666666874, 0.8000000000000000444 ) ) ;
#473 = EDGE_LOOP ( 'NONE', ( #939, #945, #682, #1127 ) ) ;
#474 = DIRECTION ( 'NONE',  ( 1.000000000000000000, 0.000000000000000000, 0.000000000000000000 ) ) ;
#475 = DIRECTION ( 'NONE',  ( -2.391622439306259897E-16, -1.000000000000000000, 0.000000000000000000 ) ) ;
#476 = PLANE ( 'NONE',  #368 ) ;
#477 = VECTOR ( 'NONE', #22, 1000.000000000000000 ) ;
#478 = PLANE ( 'NONE',  #863 ) ;
#479 = EDGE_CURVE ( 'NONE', #105, #1027, #131, .T. ) ;
#480 = EDGE_CURVE ( 'NONE', #161, #429, #42, .T. ) ;
#481 = DIRECTION ( 'NONE',  ( 0.000000000000000000, -0.000000000000000000, -1.000000000000000000 ) ) ;
#482 = CARTESIAN_POINT ( 'NONE',  ( 1.200000000000000178, 0.04666666666666666186, 0.8000000000000000444 ) ) ;
#483 = CARTESIAN_POINT ( 'NONE',  ( -1.553333333333333455, 0.04666666666666659941, 0.8000000000000000444 ) ) ;
#484 = VERTEX_POINT ( 'NONE', #509 ) ;
#485 = VECTOR ( 'NONE', #117, 1000.000000000000000 ) ;
#486 = DIRECTION ( 'NONE',  ( -0.000000000000000000, 1.000000000000000000, -0.000000000000000000 ) ) ;
#487 = AXIS2_PLACEMENT_3D ( 'NONE', #94, #526, #541 ) ;
#488 = APPLICATION_CONTEXT ( 'automotive_design' ) ;
#489 = FILL_AREA_STYLE_COLOUR ( '', #871 ) ;
#490 =( NAMED_UNIT ( * ) SI_UNIT ( $, .STERADIAN. ) SOLID_ANGLE_UNIT ( ) );
#491 = VECTOR ( 'NONE', #93, 1000.000000000000000 ) ;
#492 = FACE_OUTER_BOUND ( 'NONE', #75, .T. ) ;
#493 = VERTEX_POINT ( 'NONE', #978 ) ;
#494 = SURFACE_SIDE_STYLE ('',( #221 ) ) ;
#495 = MANIFOLD_SOLID_BREP ( 'Boss-Extrude1', #174 ) ;
#496 = DIRECTION ( 'NONE',  ( 1.000000000000000000, 0.000000000000000000, 0.000000000000000000 ) ) ;
#497 = LINE ( 'NONE', #797, #801 ) ;
#498 = EDGE_LOOP ( 'NONE', ( #999, #214, #1134, #1107 ) ) ;
#499 = DIRECTION ( 'NONE',  ( 0.000000000000000000, -0.000000000000000000, -1.000000000000000000 ) ) ;
#500 = FACE_OUTER_BOUND ( 'NONE', #82, .T. ) ;
#501 = ORIENTED_EDGE ( 'NONE', *, *, #502, .F. ) ;
#502 = EDGE_CURVE ( 'NONE', #704, #79, #37, .T. ) ;
#503 = PRESENTATION_LAYER_ASSIGNMENT (  '', '', ( #1155 ) ) ;
#504 = CARTESIAN_POINT ( 'NONE',  ( -1.200000000000000178, 0.000000000000000000, 0.8000000000000000444 ) ) ;
#505 = FILL_AREA_STYLE_COLOUR ( '', #353 ) ;
#506 = VERTEX_POINT ( 'NONE', #504 ) ;
#507 = VECTOR ( 'NONE', #512, 1000.000000000000000 ) ;
#508 = ORIENTED_EDGE ( 'NONE', *, *, #36, .T. ) ;
#509 = CARTESIAN_POINT ( 'NONE',  ( -1.553333333333333455, 0.6066666666666666874, 0.8000000000000000444 ) ) ;
#510 = DIRECTION ( 'NONE',  ( -0.000000000000000000, -0.000000000000000000, -1.000000000000000000 ) ) ;
#511 = ORIENTED_EDGE ( 'NONE', *, *, #1000, .F. ) ;
#512 = DIRECTION ( 'NONE',  ( -0.000000000000000000, -0.000000000000000000, -1.000000000000000000 ) ) ;
#513 = EDGE_CURVE ( 'NONE', #154, #152, #1171, .T. ) ;
#514 = ORIENTED_EDGE ( 'NONE', *, *, #337, .T. ) ;
#515 = LINE ( 'NONE', #1091, #848 ) ;
#516 = ADVANCED_FACE ( 'NONE', ( #396 ), #1060, .T. ) ;
#517 = CARTESIAN_POINT ( 'NONE',  ( -1.200000000000000178, 0.04666666666666666186, 0.8000000000000000444 ) ) ;
#518 = CARTESIAN_POINT ( 'NONE',  ( 1.599999999999999867, 0.6066666666666666874, 0.8000000000000000444 ) ) ;
#519 = VERTEX_POINT ( 'NONE', #1072 ) ;
#520 = DIRECTION ( 'NONE',  ( -0.000000000000000000, -0.000000000000000000, -1.000000000000000000 ) ) ;
#521 = AXIS2_PLACEMENT_3D ( 'NONE', #146, #217, #588 ) ;
#522 = ORIENTED_EDGE ( 'NONE', *, *, #1000, .T. ) ;
#523 = CARTESIAN_POINT ( 'NONE',  ( 1.553333333333333455, 0.04666666666666659247, 0.8000000000000000444 ) ) ;
#524 = STYLED_ITEM ( 'NONE', ( #292 ), #914 ) ;
#525 = DIRECTION ( 'NONE',  ( 1.000000000000000000, 1.917810446613510276E-16, 0.000000000000000000 ) ) ;
#526 = DIRECTION ( 'NONE',  ( 0.000000000000000000, 0.000000000000000000, 1.000000000000000000 ) ) ;
#527 = ORIENTED_EDGE ( 'NONE', *, *, #982, .T. ) ;
#528 = DIRECTION ( 'NONE',  ( 0.000000000000000000, -0.000000000000000000, -1.000000000000000000 ) ) ;
#529 = PRESENTATION_LAYER_ASSIGNMENT (  '', '', ( #974 ) ) ;
#530 = ORIENTED_EDGE ( 'NONE', *, *, #247, .F. ) ;
#531 = AXIS2_PLACEMENT_3D ( 'NONE', #472, #289, #11 ) ;
#532 = FACE_OUTER_BOUND ( 'NONE', #190, .T. ) ;
#533 = CARTESIAN_POINT ( 'NONE',  ( 1.053333333333333233, 0.6999999999999999556, -0.7533333333333332993 ) ) ;
#534 = CARTESIAN_POINT ( 'NONE',  ( 1.099999999999999867, 0.6806700337559222769, 0.7999999999999997113 ) ) ;
#535 = VERTEX_POINT ( 'NONE', #975 ) ;
#536 = LINE ( 'NONE', #725, #185 ) ;
#537 = EDGE_CURVE ( 'NONE', #90, #449, #883, .T. ) ;
#538 = ORIENTED_EDGE ( 'NONE', *, *, #337, .F. ) ;
#539 = DIRECTION ( 'NONE',  ( 0.000000000000000000, 1.000000000000000000, 0.000000000000000000 ) ) ;
#540 = CARTESIAN_POINT ( 'NONE',  ( -1.053333333333333455, 0.6999999999999999556, -3.001978907962361109 ) ) ;
#541 = DIRECTION ( 'NONE',  ( -1.000000000000000000, 0.000000000000000000, 0.000000000000000000 ) ) ;
#542 = ORIENTED_EDGE ( 'NONE', *, *, #381, .T. ) ;
#543 = CARTESIAN_POINT ( 'NONE',  ( 1.200000000000000178, 0.000000000000000000, 0.8000000000000000444 ) ) ;
#544 = EDGE_CURVE ( 'NONE', #1196, #266, #789, .T. ) ;
#545 = ORIENTED_EDGE ( 'NONE', *, *, #98, .T. ) ;
#546 = PLANE ( 'NONE',  #800 ) ;
#547 = VECTOR ( 'NONE', #274, 1000.000000000000000 ) ;
#548 = LINE ( 'NONE', #440, #686 ) ;
#549 = DIRECTION ( 'NONE',  ( 1.000000000000000000, 0.000000000000000000, 0.000000000000000000 ) ) ;
#550 = ORIENTED_EDGE ( 'NONE', *, *, #1093, .F. ) ;
#551 = CARTESIAN_POINT ( 'NONE',  ( 1.553333333333333455, 0.6066666666666666874, 0.8000000000000000444 ) ) ;
#552 = ORIENTED_EDGE ( 'NONE', *, *, #268, .F. ) ;
#553 = APPLICATION_CONTEXT ( 'automotive_design' ) ;
#554 = LINE ( 'NONE', #415, #507 ) ;
#555 = AXIS2_PLACEMENT_3D ( 'NONE', #1055, #1049, #209 ) ;
#556 =( NAMED_UNIT ( * ) SI_UNIT ( $, .STERADIAN. ) SOLID_ANGLE_UNIT ( ) );
#557 = ORIENTED_EDGE ( 'NONE', *, *, #52, .F. ) ;
#558 = EDGE_CURVE ( 'NONE', #930, #1122, #405, .T. ) ;
#559 = DIRECTION ( 'NONE',  ( 1.000000000000000000, 0.000000000000000000, 0.000000000000000000 ) ) ;
#560 = EDGE_CURVE ( 'NONE', #432, #1196, #313, .T. ) ;
#561 = ORIENTED_EDGE ( 'NONE', *, *, #897, .F. ) ;
#562 = CIRCLE ( 'NONE', #634, 0.04666666666666664798 ) ;
#563 = CARTESIAN_POINT ( 'NONE',  ( -1.100000000000000089, 0.6533333333333333215, -0.8000000000000000444 ) ) ;
#564 = FILL_AREA_STYLE_COLOUR ( '', #1145 ) ;
#565 = EDGE_CURVE ( 'NONE', #7, #994, #229, .T. ) ;
#566 = ORIENTED_EDGE ( 'NONE', *, *, #480, .F. ) ;
#567 = CYLINDRICAL_SURFACE ( 'NONE', #123, 0.04666666666666664798 ) ;
#568 = VERTEX_POINT ( 'NONE', #995 ) ;
#569 = CARTESIAN_POINT ( 'NONE',  ( -1.553333333333333455, 0.6066666666666666874, 0.8000000000000000444 ) ) ;
#570 = FACE_OUTER_BOUND ( 'NONE', #727, .T. ) ;
#571 = CARTESIAN_POINT ( 'NONE',  ( -1.100000000000000089, 0.6533333333333333215, -0.7999999999999999334 ) ) ;
#572 = VECTOR ( 'NONE', #499, 1000.000000000000000 ) ;
#573 = LINE ( 'NONE', #291, #1136 ) ;
#574 = VECTOR ( 'NONE', #590, 1000.000000000000000 ) ;
#575 = CARTESIAN_POINT ( 'NONE',  ( -1.553333333333333455, 0.04666666666666659247, 0.8000000000000000444 ) ) ;
#576 = VECTOR ( 'NONE', #1163, 1000.000000000000000 ) ;
#577 = CARTESIAN_POINT ( 'NONE',  ( -1.100000000000000089, 0.6533333333333333215, 0.8000000000000000444 ) ) ;
#578 = FACE_OUTER_BOUND ( 'NONE', #402, .T. ) ;
#579 = LINE ( 'NONE', #1129, #485 ) ;
#580 = CARTESIAN_POINT ( 'NONE',  ( 1.200000000000000178, 0.000000000000000000, 0.8000000000000000444 ) ) ;
#581 = DIRECTION ( 'NONE',  ( 0.000000000000000000, 0.000000000000000000, 1.000000000000000000 ) ) ;
#582 = CARTESIAN_POINT ( 'NONE',  ( -1.553333333333333455, 0.04666666666666659941, -3.956735303724051356 ) ) ;
#583 = ADVANCED_FACE ( 'NONE', ( #934 ), #236, .T. ) ;
#584 = DIRECTION ( 'NONE',  ( -0.000000000000000000, -0.000000000000000000, -1.000000000000000000 ) ) ;
#585 = VECTOR ( 'NONE', #660, 1000.000000000000000 ) ;
#586 = ORIENTED_EDGE ( 'NONE', *, *, #966, .T. ) ;
#587 = VECTOR ( 'NONE', #134, 1000.000000000000000 ) ;
#588 = DIRECTION ( 'NONE',  ( 0.000000000000000000, -0.000000000000000000, 1.000000000000000000 ) ) ;
#589 = AXIS2_PLACEMENT_3D ( 'NONE', #900, #421, #799 ) ;
#590 = DIRECTION ( 'NONE',  ( 1.000000000000000000, -0.000000000000000000, -0.000000000000000000 ) ) ;
#591 = VERTEX_POINT ( 'NONE', #735 ) ;
#592 = EDGE_CURVE ( 'NONE', #288, #655, #811, .T. ) ;
#593 = CARTESIAN_POINT ( 'NONE',  ( 1.100000000000000089, 0.6533333333333333215, 0.8000000000000000444 ) ) ;
#594 = CARTESIAN_POINT ( 'NONE',  ( 0.000000000000000000, 0.000000000000000000, 0.000000000000000000 ) ) ;
#595 = ADVANCED_FACE ( 'NONE', ( #532 ), #425, .F. ) ;
#596 = ORIENTED_EDGE ( 'NONE', *, *, #941, .F. ) ;
#597 = EDGE_CURVE ( 'NONE', #1168, #655, #165, .T. ) ;
#598 = FACE_OUTER_BOUND ( 'NONE', #956, .T. ) ;
#599 = DIRECTION ( 'NONE',  ( -1.000000000000000000, 2.391622439306259897E-16, -0.000000000000000000 ) ) ;
#600 = LINE ( 'NONE', #147, #849 ) ;
#601 = ORIENTED_EDGE ( 'NONE', *, *, #560, .T. ) ;
#602 = AXIS2_PLACEMENT_3D ( 'NONE', #551, #178, #559 ) ;
#603 = VERTEX_POINT ( 'NONE', #339 ) ;
#604 = SURFACE_STYLE_USAGE ( .BOTH. , #494 ) ;
#605 = APPLICATION_PROTOCOL_DEFINITION ( 'draft international standard', 'automotive_design', 1998, #553 ) ;
#606 = EDGE_CURVE ( 'NONE', #519, #930, #1002, .T. ) ;
#607 = EDGE_LOOP ( 'NONE', ( #345, #774, #373, #461 ) ) ;
#608 = VECTOR ( 'NONE', #706, 1000.000000000000000 ) ;
#609 = ORIENTED_EDGE ( 'NONE', *, *, #391, .F. ) ;
#610 = DIRECTION ( 'NONE',  ( 0.000000000000000000, 0.000000000000000000, 1.000000000000000000 ) ) ;
#611 = DIRECTION ( 'NONE',  ( 0.000000000000000000, -1.000000000000000000, 0.000000000000000000 ) ) ;
#612 = LINE ( 'NONE', #773, #305 ) ;
#613 = ORIENTED_EDGE ( 'NONE', *, *, #462, .T. ) ;
#614 = CARTESIAN_POINT ( 'NONE',  ( 1.553333333333333455, 0.04666666666666659247, 0.8000000000000000444 ) ) ;
#615 = ORIENTED_EDGE ( 'NONE', *, *, #606, .T. ) ;
#616 = DIRECTION ( 'NONE',  ( 1.000000000000000000, 0.000000000000000000, -0.000000000000000000 ) ) ;
#617 = DIRECTION ( 'NONE',  ( 0.000000000000000000, -0.000000000000000000, 1.000000000000000000 ) ) ;
#618 = EDGE_LOOP ( 'NONE', ( #661, #916, #394, #420, #108, #983, #184, #1038, #1190, #1006 ) ) ;
#619 = LINE ( 'NONE', #733, #952 ) ;
#620 = ORIENTED_EDGE ( 'NONE', *, *, #98, .F. ) ;
#621 = DIRECTION ( 'NONE',  ( -1.917810446613510276E-16, -1.000000000000000000, 0.000000000000000000 ) ) ;
#622 = VECTOR ( 'NONE', #867, 1000.000000000000000 ) ;
#623 = CARTESIAN_POINT ( 'NONE',  ( 1.200000000000000178, 0.000000000000000000, -0.8000000000000000444 ) ) ;
#624 = CARTESIAN_POINT ( 'NONE',  ( -1.200000000000000178, 0.000000000000000000, -0.8000000000000000444 ) ) ;
#625 = ORIENTED_EDGE ( 'NONE', *, *, #753, .F. ) ;
#626 = LINE ( 'NONE', #543, #1101 ) ;
#627 =( GEOMETRIC_REPRESENTATION_CONTEXT ( 3 ) GLOBAL_UNCERTAINTY_ASSIGNED_CONTEXT ( ( #1001 ) ) GLOBAL_UNIT_ASSIGNED_CONTEXT ( ( #397, #1153, #1157 ) ) REPRESENTATION_CONTEXT ( 'NONE', 'WORKASPACE' ) );
#628 = EDGE_LOOP ( 'NONE', ( #625, #414, #819, #320, #921, #1159, #187, #357, #748, #1188 ) ) ;
#629 = LINE ( 'NONE', #902, #1141 ) ;
#630 = CARTESIAN_POINT ( 'NONE',  ( -1.553333333333333455, 0.6066666666666666874, 0.8000000000000000444 ) ) ;
#631 = LINE ( 'NONE', #518, #876 ) ;
#632 = ORIENTED_EDGE ( 'NONE', *, *, #769, .T. ) ;
#633 = ADVANCED_FACE ( 'NONE', ( #1018 ), #1097, .F. ) ;
#634 = AXIS2_PLACEMENT_3D ( 'NONE', #188, #744, #25 ) ;
#635 = EDGE_LOOP ( 'NONE', ( #326, #380, #613, #21 ) ) ;
#636 = DIRECTION ( 'NONE',  ( 0.000000000000000000, -1.000000000000000000, -0.000000000000000000 ) ) ;
#637 = PLANE ( 'NONE',  #1128 ) ;
#638 = DIRECTION ( 'NONE',  ( -0.000000000000000000, -0.000000000000000000, -1.000000000000000000 ) ) ;
#639 = ORIENTED_EDGE ( 'NONE', *, *, #739, .F. ) ;
#640 = ADVANCED_BREP_SHAPE_REPRESENTATION ( 'SG732BRed', ( #495, #914, #104, #92, #208 ), #703 ) ;
#641 = CARTESIAN_POINT ( 'NONE',  ( -1.100000000000000089, 0.6533333333333333215, 0.8000000000000000444 ) ) ;
#642 = ORIENTED_EDGE ( 'NONE', *, *, #162, .T. ) ;
#643 = VECTOR ( 'NONE', #486, 1000.000000000000000 ) ;
#644 = DIRECTION ( 'NONE',  ( 0.000000000000000000, -1.000000000000000000, 0.000000000000000000 ) ) ;
#645 = EDGE_CURVE ( 'NONE', #442, #288, #1081, .T. ) ;
#646 = EDGE_LOOP ( 'NONE', ( #856, #985, #527, #511 ) ) ;
#647 = DIRECTION ( 'NONE',  ( 0.000000000000000000, 0.000000000000000000, 1.000000000000000000 ) ) ;
#648 = AXIS2_PLACEMENT_3D ( 'NONE', #630, #1105, #617 ) ;
#649 = ORIENTED_EDGE ( 'NONE', *, *, #1198, .T. ) ;
#650 = CARTESIAN_POINT ( 'NONE',  ( 1.553333333333333455, 0.04666666666666659941, 0.8000000000000000444 ) ) ;
#651 = DIRECTION ( 'NONE',  ( 1.000000000000000000, 0.000000000000000000, 0.000000000000000000 ) ) ;
#652 = EDGE_CURVE ( 'NONE', #429, #1176, #927, .T. ) ;
#653 = ORIENTED_EDGE ( 'NONE', *, *, #736, .F. ) ;
#654 = LINE ( 'NONE', #750, #869 ) ;
#655 = VERTEX_POINT ( 'NONE', #922 ) ;
#656 = DIRECTION ( 'NONE',  ( -0.000000000000000000, 1.000000000000000000, -0.000000000000000000 ) ) ;
#657 = EDGE_CURVE ( 'NONE', #1010, #304, #1011, .T. ) ;
#658 = DIRECTION ( 'NONE',  ( 1.000000000000000000, 0.000000000000000000, -0.000000000000000000 ) ) ;
#659 = DIRECTION ( 'NONE',  ( -1.000000000000000000, 0.000000000000000000, 0.000000000000000000 ) ) ;
#660 = DIRECTION ( 'NONE',  ( 1.000000000000000000, 0.000000000000000000, 0.000000000000000000 ) ) ;
#661 = ORIENTED_EDGE ( 'NONE', *, *, #836, .F. ) ;
#662 = LINE ( 'NONE', #577, #919 ) ;
#663 = VECTOR ( 'NONE', #41, 1000.000000000000000 ) ;
#664 = ORIENTED_EDGE ( 'NONE', *, *, #479, .T. ) ;
#665 =( LENGTH_UNIT ( ) NAMED_UNIT ( * ) SI_UNIT ( .MILLI., .METRE. ) );
#666 = LINE ( 'NONE', #650, #915 ) ;
#667 = DIRECTION ( 'NONE',  ( -0.000000000000000000, 0.000000000000000000, 1.000000000000000000 ) ) ;
#668 =( LENGTH_UNIT ( ) NAMED_UNIT ( * ) SI_UNIT ( .MILLI., .METRE. ) );
#669 = ORIENTED_EDGE ( 'NONE', *, *, #329, .F. ) ;
#670 = AXIS2_PLACEMENT_3D ( 'NONE', #1133, #658, #382 ) ;
#671 = CARTESIAN_POINT ( 'NONE',  ( 1.100000000000000089, 0.6533333333333333215, 0.8000000000000000444 ) ) ;
#672 = EDGE_CURVE ( 'NONE', #837, #712, #515, .T. ) ;
#673 = FACE_OUTER_BOUND ( 'NONE', #1065, .T. ) ;
#674 = ORIENTED_EDGE ( 'NONE', *, *, #1003, .T. ) ;
#675 = CARTESIAN_POINT ( 'NONE',  ( -1.553333333333333455, 0.6533333333333332105, -0.8000000000000000444 ) ) ;
#676 = CARTESIAN_POINT ( 'NONE',  ( 1.200000000000000178, 0.000000000000000000, 0.8000000000000000444 ) ) ;
#677 = ADVANCED_FACE ( 'NONE', ( #76 ), #439, .T. ) ;
#678 = LINE ( 'NONE', #1063, #296 ) ;
#679 = ADVANCED_FACE ( 'NONE', ( #242 ), #546, .F. ) ;
#680 = VECTOR ( 'NONE', #1180, 1000.000000000000000 ) ;
#681 = DIRECTION ( 'NONE',  ( -0.000000000000000000, 0.000000000000000000, -1.000000000000000000 ) ) ;
#682 = ORIENTED_EDGE ( 'NONE', *, *, #777, .F. ) ;
#683 = VECTOR ( 'NONE', #1112, 1000.000000000000000 ) ;
#684 = CARTESIAN_POINT ( 'NONE',  ( -1.200000000000000178, 0.04666666666666666186, 0.8000000000000000444 ) ) ;
#685 = EDGE_CURVE ( 'NONE', #715, #568, #629, .T. ) ;
#686 = VECTOR ( 'NONE', #166, 1000.000000000000000 ) ;
#687 = CARTESIAN_POINT ( 'NONE',  ( 1.553333333333333455, -6.756413760605303213E-17, -0.8000000000000000444 ) ) ;
#688 = PRODUCT_DEFINITION_FORMATION_WITH_SPECIFIED_SOURCE ( 'ANY', '', #1077, .NOT_KNOWN. ) ;
#689 = ORIENTED_EDGE ( 'NONE', *, *, #40, .T. ) ;
#690 = DIRECTION ( 'NONE',  ( 0.000000000000000000, 0.000000000000000000, 1.000000000000000000 ) ) ;
#691 = SURFACE_STYLE_FILL_AREA ( #790 ) ;
#692 = VERTEX_POINT ( 'NONE', #83 ) ;
#693 = ORIENTED_EDGE ( 'NONE', *, *, #818, .F. ) ;
#694 = DIRECTION ( 'NONE',  ( 0.000000000000000000, 1.000000000000000000, 0.000000000000000000 ) ) ;
#695 = EDGE_CURVE ( 'NONE', #603, #432, #1197, .T. ) ;
#696 = VERTEX_POINT ( 'NONE', #1110 ) ;
#697 = AXIS2_PLACEMENT_3D ( 'NONE', #1189, #1184, #350 ) ;
#698 = VERTEX_POINT ( 'NONE', #4 ) ;
#699 = PLANE ( 'NONE',  #1007 ) ;
#700 = FACE_OUTER_BOUND ( 'NONE', #142, .T. ) ;
#701 = CARTESIAN_POINT ( 'NONE',  ( -1.553333333333333455, 0.6066666666666666874, 0.8000000000000000444 ) ) ;
#702 = ORIENTED_EDGE ( 'NONE', *, *, #364, .T. ) ;
#703 =( GEOMETRIC_REPRESENTATION_CONTEXT ( 3 ) GLOBAL_UNCERTAINTY_ASSIGNED_CONTEXT ( ( #344 ) ) GLOBAL_UNIT_ASSIGNED_CONTEXT ( ( #668, #203, #556 ) ) REPRESENTATION_CONTEXT ( 'NONE', 'WORKASPACE' ) );
#704 = VERTEX_POINT ( 'NONE', #360 ) ;
#705 = CARTESIAN_POINT ( 'NONE',  ( 1.553333333333333455, 0.6066666666666666874, -3.956735303724051356 ) ) ;
#706 = DIRECTION ( 'NONE',  ( 0.000000000000000000, -0.000000000000000000, -1.000000000000000000 ) ) ;
#707 = LINE ( 'NONE', #814, #953 ) ;
#708 = ORIENTED_EDGE ( 'NONE', *, *, #114, .F. ) ;
#709 = DIRECTION ( 'NONE',  ( 1.000000000000000000, 0.000000000000000000, 0.000000000000000000 ) ) ;
#710 = CLOSED_SHELL ( 'NONE', ( #677, #759, #143, #775, #412, #469, #763, #186, #1123, #1045 ) ) ;
#711 = ADVANCED_FACE ( 'NONE', ( #58 ), #67, .F. ) ;
#712 = VERTEX_POINT ( 'NONE', #794 ) ;
#713 = DIRECTION ( 'NONE',  ( -0.000000000000000000, -1.000000000000000000, -0.000000000000000000 ) ) ;
#714 = PLANE ( 'NONE',  #471 ) ;
#715 = VERTEX_POINT ( 'NONE', #483 ) ;
#716 = CARTESIAN_POINT ( 'NONE',  ( -1.100000000000000089, 0.6806700337559221659, 0.7999999999999999334 ) ) ;
#717 = UNCERTAINTY_MEASURE_WITH_UNIT (LENGTH_MEASURE( 1.000000000000000082E-05 ), #891, 'distance_accuracy_value', 'NONE');
#718 = AXIS2_PLACEMENT_3D ( 'NONE', #1166, #783, #323 ) ;
#719 = ORIENTED_EDGE ( 'NONE', *, *, #597, .T. ) ;
#720 = AXIS2_PLACEMENT_3D ( 'NONE', #333, #265, #1200 ) ;
#721 = STYLED_ITEM ( 'NONE', ( #1069 ), #92 ) ;
#722 = ADVANCED_FACE ( 'NONE', ( #673 ), #88, .T. ) ;
#723 = CARTESIAN_POINT ( 'NONE',  ( -1.553333333333333455, 0.04666666666666659941, 0.8000000000000000444 ) ) ;
#724 = ORIENTED_EDGE ( 'NONE', *, *, #862, .T. ) ;
#725 = CARTESIAN_POINT ( 'NONE',  ( -1.553333333333333455, 0.04666666666666659941, 0.8000000000000000444 ) ) ;
#726 = VECTOR ( 'NONE', #1048, 1000.000000000000000 ) ;
#727 = EDGE_LOOP ( 'NONE', ( #993, #308, #724, #1076 ) ) ;
#728 = AXIS2_PLACEMENT_3D ( 'NONE', #580, #110, #280 ) ;
#729 = CARTESIAN_POINT ( 'NONE',  ( 1.200000000000000178, 0.04666666666666666186, 0.8000000000000000444 ) ) ;
#730 = CARTESIAN_POINT ( 'NONE',  ( -1.600000000000000089, 0.04666666666666659247, -0.8000000000000000444 ) ) ;
#731 = DIRECTION ( 'NONE',  ( 0.000000000000000000, 1.000000000000000000, 0.000000000000000000 ) ) ;
#732 = EDGE_LOOP ( 'NONE', ( #315, #501, #708, #245 ) ) ;
#733 = CARTESIAN_POINT ( 'NONE',  ( 1.553333333333333455, -6.756413760605303213E-17, 0.8000000000000000444 ) ) ;
#734 = ORIENTED_EDGE ( 'NONE', *, *, #818, .T. ) ;
#735 = CARTESIAN_POINT ( 'NONE',  ( 1.099999999999999867, 0.6533333333333334325, 0.8000000000000000444 ) ) ;
#736 = EDGE_CURVE ( 'NONE', #795, #798, #821, .T. ) ;
#737 = CARTESIAN_POINT ( 'NONE',  ( 1.080670033755922077, 0.6999999999999999556, 0.7806700337559223657 ) ) ;
#738 = ORIENTED_EDGE ( 'NONE', *, *, #592, .T. ) ;
#739 = EDGE_CURVE ( 'NONE', #154, #926, #619, .T. ) ;
#740 = ORIENTED_EDGE ( 'NONE', *, *, #597, .F. ) ;
#741 = CARTESIAN_POINT ( 'NONE',  ( -1.553333333333333455, 0.6066666666666666874, 0.8000000000000000444 ) ) ;
#742 = DIRECTION ( 'NONE',  ( 0.000000000000000000, 0.000000000000000000, -1.000000000000000000 ) ) ;
#743 = LINE ( 'NONE', #482, #69 ) ;
#744 = DIRECTION ( 'NONE',  ( 0.000000000000000000, 0.000000000000000000, 1.000000000000000000 ) ) ;
#745 = CARTESIAN_POINT ( 'NONE',  ( -1.553333333333333455, -6.756413760605303213E-17, 0.8000000000000000444 ) ) ;
#746 = AXIS2_PLACEMENT_3D ( 'NONE', #434, #1181, #332 ) ;
#747 = EDGE_CURVE ( 'NONE', #105, #363, #2, .T. ) ;
#748 = ORIENTED_EDGE ( 'NONE', *, *, #560, .F. ) ;
#749 = ORIENTED_EDGE ( 'NONE', *, *, #1037, .T. ) ;
#750 = CARTESIAN_POINT ( 'NONE',  ( -1.100000000000000089, 0.6999999999999999556, -0.7533333333333332993 ) ) ;
#751 = ORIENTED_EDGE ( 'NONE', *, *, #479, .F. ) ;
#752 = CLOSED_SHELL ( 'NONE', ( #1131, #633, #119, #595, #959, #1085, #722, #183, #341, #1158, #679, #430 ) ) ;
#753 = EDGE_CURVE ( 'NONE', #152, #603, #1008, .T. ) ;
#754 = DIRECTION ( 'NONE',  ( -1.000000000000000000, -1.917810446613510276E-16, 0.000000000000000000 ) ) ;
#755 = DIRECTION ( 'NONE',  ( 0.000000000000000000, 0.000000000000000000, 1.000000000000000000 ) ) ;
#756 = CARTESIAN_POINT ( 'NONE',  ( -1.100000000000000089, 0.6806700337559222769, -0.8000000000000000444 ) ) ;
#757 = DIRECTION ( 'NONE',  ( 1.000000000000000000, 2.391622439306259897E-16, 0.000000000000000000 ) ) ;
#758 = DIRECTION ( 'NONE',  ( -1.000000000000000000, 0.000000000000000000, 0.000000000000000000 ) ) ;
#759 = ADVANCED_FACE ( 'NONE', ( #450 ), #443, .F. ) ;
#760 = VECTOR ( 'NONE', #694, 1000.000000000000000 ) ;
#761 = CARTESIAN_POINT ( 'NONE',  ( -1.053333333333333455, 0.6999999999999999556, -0.7533333333333332993 ) ) ;
#762 = DIRECTION ( 'NONE',  ( -1.000000000000000000, 0.000000000000000000, 0.000000000000000000 ) ) ;
#763 = ADVANCED_FACE ( 'NONE', ( #255 ), #938, .T. ) ;
#764 = PLANE ( 'NONE',  #271 ) ;
#765 = FACE_OUTER_BOUND ( 'NONE', #56, .T. ) ;
#766 = CARTESIAN_POINT ( 'NONE',  ( 1.553333333333333455, 0.6533333333333332105, 0.8000000000000000444 ) ) ;
#767 = AXIS2_PLACEMENT_3D ( 'NONE', #1099, #904, #253 ) ;
#768 = CARTESIAN_POINT ( 'NONE',  ( -1.200000000000000178, 0.04666666666666666186, -0.8000000000000000444 ) ) ;
#769 = EDGE_CURVE ( 'NONE', #152, #698, #626, .T. ) ;
#770 = EDGE_CURVE ( 'NONE', #591, #798, #170, .T. ) ;
#771 = LINE ( 'NONE', #224, #827 ) ;
#772 = CARTESIAN_POINT ( 'NONE',  ( 1.553333333333333455, 0.04666666666666659941, 0.8000000000000000444 ) ) ;
#773 = CARTESIAN_POINT ( 'NONE',  ( -1.553333333333333455, 0.04666666666666659941, -0.8000000000000000444 ) ) ;
#774 = ORIENTED_EDGE ( 'NONE', *, *, #364, .F. ) ;
#775 = ADVANCED_FACE ( 'NONE', ( #942 ), #808, .T. ) ;
#776 = DIRECTION ( 'NONE',  ( -1.000000000000000000, 0.000000000000000000, 0.000000000000000000 ) ) ;
#777 = EDGE_CURVE ( 'NONE', #715, #316, #536, .T. ) ;
#778 =( NAMED_UNIT ( * ) PLANE_ANGLE_UNIT ( ) SI_UNIT ( $, .RADIAN. ) );
#779 = SURFACE_STYLE_USAGE ( .BOTH. , #219 ) ;
#780 = CIRCLE ( 'NONE', #884, 0.04666666666666664798 ) ;
#781 = ORIENTED_EDGE ( 'NONE', *, *, #672, .F. ) ;
#782 = AXIS2_PLACEMENT_3D ( 'NONE', #167, #1187, #1193 ) ;
#783 = DIRECTION ( 'NONE',  ( 0.000000000000000000, 0.000000000000000000, 1.000000000000000000 ) ) ;
#784 = SHAPE_DEFINITION_REPRESENTATION ( #890, #640 ) ;
#785 = PLANE ( 'NONE',  #944 ) ;
#786 = CARTESIAN_POINT ( 'NONE',  ( -1.100000000000000089, 0.6066666666666666874, 0.8000000000000000444 ) ) ;
#787 = EDGE_LOOP ( 'NONE', ( #137, #751, #807, #508 ) ) ;
#788 = PLANE ( 'NONE',  #589 ) ;
#789 = LINE ( 'NONE', #48, #59 ) ;
#790 = FILL_AREA_STYLE ('',( #505 ) ) ;
#791 = CARTESIAN_POINT ( 'NONE',  ( -1.553333333333333455, 0.04666666666666659247, 0.8000000000000000444 ) ) ;
#792 = ORIENTED_EDGE ( 'NONE', *, *, #276, .F. ) ;
#793 = FACE_OUTER_BOUND ( 'NONE', #618, .T. ) ;
#794 = CARTESIAN_POINT ( 'NONE',  ( 1.099999999999999867, 0.6533333333333334325, -0.7999999999999999334 ) ) ;
#795 = VERTEX_POINT ( 'NONE', #1108 ) ;
#796 = CARTESIAN_POINT ( 'NONE',  ( 1.553333333333333455, 0.04666666666666659941, 0.8000000000000000444 ) ) ;
#797 = CARTESIAN_POINT ( 'NONE',  ( 1.100000000000000089, 0.6533333333333333215, -0.8000000000000000444 ) ) ;
#798 = VERTEX_POINT ( 'NONE', #641 ) ;
#799 = DIRECTION ( 'NONE',  ( -1.000000000000000000, 0.000000000000000000, 0.000000000000000000 ) ) ;
#800 = AXIS2_PLACEMENT_3D ( 'NONE', #523, #155, #346 ) ;
#801 = VECTOR ( 'NONE', #1167, 1000.000000000000000 ) ;
#802 = VERTEX_POINT ( 'NONE', #1036 ) ;
#803 = DIRECTION ( 'NONE',  ( 0.000000000000000000, -0.000000000000000000, -1.000000000000000000 ) ) ;
#804 = CARTESIAN_POINT ( 'NONE',  ( -1.100000000000000089, 0.6066666666666666874, -3.001978907962361109 ) ) ;
#805 =( GEOMETRIC_REPRESENTATION_CONTEXT ( 3 ) GLOBAL_UNCERTAINTY_ASSIGNED_CONTEXT ( ( #717 ) ) GLOBAL_UNIT_ASSIGNED_CONTEXT ( ( #891, #34, #325 ) ) REPRESENTATION_CONTEXT ( 'NONE', 'WORKASPACE' ) );
#806 = CARTESIAN_POINT ( 'NONE',  ( 1.100000000000000089, 0.6066666666666666874, -0.8000000000000000444 ) ) ;
#807 = ORIENTED_EDGE ( 'NONE', *, *, #747, .T. ) ;
#808 = PLANE ( 'NONE',  #697 ) ;
#809 = PRESENTATION_LAYER_ASSIGNMENT (  '', '', ( #1033 ) ) ;
#810 = EDGE_LOOP ( 'NONE', ( #223, #792, #601, #53 ) ) ;
#811 = LINE ( 'NONE', #1185, #230 ) ;
#812 = EDGE_CURVE ( 'NONE', #149, #460, #654, .T. ) ;
#813 = PLANE ( 'NONE',  #889 ) ;
#814 = CARTESIAN_POINT ( 'NONE',  ( -1.200000000000000178, 0.000000000000000000, 0.8000000000000000444 ) ) ;
#815 = ORIENTED_EDGE ( 'NONE', *, *, #537, .F. ) ;
#816 = DIRECTION ( 'NONE',  ( -1.000000000000000000, 0.000000000000000000, 0.000000000000000000 ) ) ;
#817 = UNCERTAINTY_MEASURE_WITH_UNIT (LENGTH_MEASURE( 1.000000000000000082E-05 ), #665, 'distance_accuracy_value', 'NONE');
#818 = EDGE_CURVE ( 'NONE', #519, #837, #963, .T. ) ;
#819 = ORIENTED_EDGE ( 'NONE', *, *, #383, .F. ) ;
#820 = CARTESIAN_POINT ( 'NONE',  ( -1.100000000000000089, 0.6066666666666666874, -3.001978907962361109 ) ) ;
#821 =( BOUNDED_CURVE ( )  B_SPLINE_CURVE ( 3, ( #918, #80, #716, #100 ),
 .UNSPECIFIED., .F., .T. ) 
 B_SPLINE_CURVE_WITH_KNOTS ( ( 4, 4 ),
 ( 4.712388980384690562, 6.283185307179586232 ),
 .UNSPECIFIED. ) 
 CURVE ( )  GEOMETRIC_REPRESENTATION_ITEM ( )  RATIONAL_B_SPLINE_CURVE ( ( 1.000000000000000000, 0.8047378541243652705, 0.8047378541243652705, 1.000000000000000000 ) ) 
 REPRESENTATION_ITEM ( '' )  );
#822 = FACE_OUTER_BOUND ( 'NONE', #882, .T. ) ;
#823 = EDGE_CURVE ( 'NONE', #535, #458, #579, .T. ) ;
#824 = DIRECTION ( 'NONE',  ( 0.000000000000000000, 0.000000000000000000, 1.000000000000000000 ) ) ;
#825 = ORIENTED_EDGE ( 'NONE', *, *, #931, .F. ) ;
#826 = DIRECTION ( 'NONE',  ( -1.000000000000000000, 0.000000000000000000, -0.000000000000000000 ) ) ;
#827 = VECTOR ( 'NONE', #690, 1000.000000000000000 ) ;
#828 = VERTEX_POINT ( 'NONE', #745 ) ;
#829 = DIRECTION ( 'NONE',  ( 1.000000000000000000, 0.000000000000000000, 0.000000000000000000 ) ) ;
#830 = LINE ( 'NONE', #1098, #608 ) ;
#831 = DIRECTION ( 'NONE',  ( -0.000000000000000000, -0.000000000000000000, -1.000000000000000000 ) ) ;
#832 = PRODUCT_RELATED_PRODUCT_CATEGORY ( 'part', '', ( #1077 ) ) ;
#833 = ORIENTED_EDGE ( 'NONE', *, *, #311, .T. ) ;
#834 = CARTESIAN_POINT ( 'NONE',  ( -1.100000000000000089, 0.6533333333333333215, -0.7533333333333332993 ) ) ;
#835 = AXIS2_PLACEMENT_3D ( 'NONE', #796, #1058, #212 ) ;
#836 = EDGE_CURVE ( 'NONE', #1095, #79, #371, .T. ) ;
#837 = VERTEX_POINT ( 'NONE', #972 ) ;
#838 = DIRECTION ( 'NONE',  ( 1.000000000000000000, -1.917810446613510276E-16, 0.000000000000000000 ) ) ;
#839 = CARTESIAN_POINT ( 'NONE',  ( 1.599999999999999867, 0.04666666666666659247, 0.8000000000000000444 ) ) ;
#840 = PLANE ( 'NONE',  #782 ) ;
#841 = EDGE_LOOP ( 'NONE', ( #168, #435, #438, #365 ) ) ;
#842 = VECTOR ( 'NONE', #295, 1000.000000000000000 ) ;
#843 = ORIENTED_EDGE ( 'NONE', *, *, #290, .F. ) ;
#844 = CARTESIAN_POINT ( 'NONE',  ( 1.599999999999999867, 0.6066666666666666874, -0.8000000000000000444 ) ) ;
#845 = PLANE ( 'NONE',  #728 ) ;
#846 = ORIENTED_EDGE ( 'NONE', *, *, #753, .T. ) ;
#847 = ORIENTED_EDGE ( 'NONE', *, *, #329, .T. ) ;
#848 = VECTOR ( 'NONE', #1024, 1000.000000000000000 ) ;
#849 = VECTOR ( 'NONE', #510, 1000.000000000000000 ) ;
#850 = FACE_OUTER_BOUND ( 'NONE', #120, .T. ) ;
#851 = FILL_AREA_STYLE ('',( #564 ) ) ;
#852 = VERTEX_POINT ( 'NONE', #675 ) ;
#853 = LINE ( 'NONE', #1149, #1174 ) ;
#854 = EDGE_CURVE ( 'NONE', #1027, #442, #1135, .T. ) ;
#855 = VECTOR ( 'NONE', #644, 1000.000000000000000 ) ;
#856 = ORIENTED_EDGE ( 'NONE', *, *, #462, .F. ) ;
#857 = PRODUCT_DEFINITION ( 'UNKNOWN', '', #688, #887 ) ;
#858 = LINE ( 'NONE', #463, #1047 ) ;
#859 = CARTESIAN_POINT ( 'NONE',  ( 1.099999999999999645, 0.6806700337559223879, -0.7999999999999998224 ) ) ;
#860 = SURFACE_STYLE_FILL_AREA ( #287 ) ;
#861 = FACE_OUTER_BOUND ( 'NONE', #234, .T. ) ;
#862 = EDGE_CURVE ( 'NONE', #950, #149, #379, .T. ) ;
#863 = AXIS2_PLACEMENT_3D ( 'NONE', #1050, #659, #1043 ) ;
#864 = CARTESIAN_POINT ( 'NONE',  ( 1.553333333333333455, 0.04666666666666659247, -0.8000000000000000444 ) ) ;
#865 = SURFACE_STYLE_FILL_AREA ( #851 ) ;
#866 = EDGE_LOOP ( 'NONE', ( #749, #669, #1031, #702 ) ) ;
#867 = DIRECTION ( 'NONE',  ( 0.000000000000000000, 1.000000000000000000, 0.000000000000000000 ) ) ;
#868 = DIRECTION ( 'NONE',  ( -1.000000000000000000, 0.000000000000000000, 0.000000000000000000 ) ) ;
#869 = VECTOR ( 'NONE', #762, 1000.000000000000000 ) ;
#870 = CARTESIAN_POINT ( 'NONE',  ( 1.600000000000000089, 0.04666666666666659247, 0.8000000000000000444 ) ) ;
#871 = COLOUR_RGB ( '',0.7960784313725489669, 0.8235294117647058432, 0.9372549019607843146 ) ;
#872 = ORIENTED_EDGE ( 'NONE', *, *, #502, .T. ) ;
#873 = LINE ( 'NONE', #671, #622 ) ;
#874 = EDGE_CURVE ( 'NONE', #1183, #493, #385, .T. ) ;
#875 =( LENGTH_UNIT ( ) NAMED_UNIT ( * ) SI_UNIT ( .MILLI., .METRE. ) );
#876 = VECTOR ( 'NONE', #428, 1000.000000000000000 ) ;
#877 = ADVANCED_FACE ( 'NONE', ( #282 ), #567, .T. ) ;
#878 = EDGE_LOOP ( 'NONE', ( #973, #522, #19, #514 ) ) ;
#879 = EDGE_CURVE ( 'NONE', #266, #105, #873, .T. ) ;
#880 = DIRECTION ( 'NONE',  ( -0.000000000000000000, -0.000000000000000000, -1.000000000000000000 ) ) ;
#881 = SURFACE_STYLE_USAGE ( .BOTH. , #991 ) ;
#882 = EDGE_LOOP ( 'NONE', ( #642, #1130, #1078, #847 ) ) ;
#883 = LINE ( 'NONE', #1066, #663 ) ;
#884 = AXIS2_PLACEMENT_3D ( 'NONE', #906, #64, #709 ) ;
#885 = DIRECTION ( 'NONE',  ( -1.000000000000000000, 0.000000000000000000, 0.000000000000000000 ) ) ;
#886 = ORIENTED_EDGE ( 'NONE', *, *, #1151, .F. ) ;
#887 = PRODUCT_DEFINITION_CONTEXT ( 'detailed design', #553, 'design' ) ;
#888 = CARTESIAN_POINT ( 'NONE',  ( -1.053333333333333455, 0.6999999999999999556, -0.7533333333333332993 ) ) ;
#889 = AXIS2_PLACEMENT_3D ( 'NONE', #1186, #355, #448 ) ;
#890 = PRODUCT_DEFINITION_SHAPE ( 'NONE', 'NONE',  #857 ) ;
#891 =( LENGTH_UNIT ( ) NAMED_UNIT ( * ) SI_UNIT ( .MILLI., .METRE. ) );
#892 = ORIENTED_EDGE ( 'NONE', *, *, #879, .T. ) ;
#893 = PRESENTATION_LAYER_ASSIGNMENT (  '', '', ( #721 ) ) ;
#894 = ORIENTED_EDGE ( 'NONE', *, *, #52, .T. ) ;
#895 = FILL_AREA_STYLE ('',( #489 ) ) ;
#896 =( LENGTH_UNIT ( ) NAMED_UNIT ( * ) SI_UNIT ( .MILLI., .METRE. ) );
#897 = EDGE_CURVE ( 'NONE', #704, #715, #853, .T. ) ;
#898 = LINE ( 'NONE', #303, #273 ) ;
#899 = ORIENTED_EDGE ( 'NONE', *, *, #606, .F. ) ;
#900 = CARTESIAN_POINT ( 'NONE',  ( -1.553333333333333455, 0.04666666666666659247, -0.8000000000000000444 ) ) ;
#901 = ORIENTED_EDGE ( 'NONE', *, *, #480, .T. ) ;
#902 = CARTESIAN_POINT ( 'NONE',  ( -1.553333333333333455, 0.04666666666666659941, 0.8000000000000000444 ) ) ;
#903 = LINE ( 'NONE', #1004, #66 ) ;
#904 = DIRECTION ( 'NONE',  ( 2.391622439306259897E-16, -1.000000000000000000, 0.000000000000000000 ) ) ;
#905 = ORIENTED_EDGE ( 'NONE', *, *, #645, .F. ) ;
#906 = CARTESIAN_POINT ( 'NONE',  ( 1.553333333333333455, 0.04666666666666659247, -0.8000000000000000444 ) ) ;
#907 = AXIS2_PLACEMENT_3D ( 'NONE', #262, #621, #1191 ) ;
#908 = EDGE_CURVE ( 'NONE', #1176, #828, #971, .T. ) ;
#909 = COLOUR_RGB ( '',0.7960784313725489669, 0.8235294117647058432, 0.9372549019607843146 ) ;
#910 = EDGE_CURVE ( 'NONE', #266, #1029, #301, .T. ) ;
#911 = ORIENTED_EDGE ( 'NONE', *, *, #32, .T. ) ;
#912 = DIRECTION ( 'NONE',  ( -0.000000000000000000, -0.000000000000000000, -1.000000000000000000 ) ) ;
#913 = CARTESIAN_POINT ( 'NONE',  ( -1.553333333333333455, 0.6533333333333332105, 0.8000000000000000444 ) ) ;
#914 = MANIFOLD_SOLID_BREP ( 'Mirror2', #752 ) ;
#915 = VECTOR ( 'NONE', #481, 1000.000000000000000 ) ;
#916 = ORIENTED_EDGE ( 'NONE', *, *, #162, .F. ) ;
#917 = ADVANCED_FACE ( 'NONE', ( #1057 ), #206, .T. ) ;
#918 = CARTESIAN_POINT ( 'NONE',  ( -1.053333333333333455, 0.6999999999999999556, 0.7533333333333334103 ) ) ;
#919 = VECTOR ( 'NONE', #18, 1000.000000000000000 ) ;
#920 = EDGE_CURVE ( 'NONE', #1029, #1027, #497, .T. ) ;
#921 = ORIENTED_EDGE ( 'NONE', *, *, #1126, .F. ) ;
#922 = CARTESIAN_POINT ( 'NONE',  ( 1.600000000000000089, 0.04666666666666659247, -0.8000000000000000444 ) ) ;
#923 = FACE_OUTER_BOUND ( 'NONE', #635, .T. ) ;
#924 = CYLINDRICAL_SURFACE ( 'NONE', #378, 0.04666666666666664798 ) ;
#925 = ORIENTED_EDGE ( 'NONE', *, *, #127, .T. ) ;
#926 = VERTEX_POINT ( 'NONE', #687 ) ;
#927 = LINE ( 'NONE', #446, #1195 ) ;
#928 = LINE ( 'NONE', #1092, #374 ) ;
#929 = DIRECTION ( 'NONE',  ( 0.000000000000000000, -1.000000000000000000, 0.000000000000000000 ) ) ;
#930 = VERTEX_POINT ( 'NONE', #786 ) ;
#931 = EDGE_CURVE ( 'NONE', #429, #696, #319, .T. ) ;
#932 = VECTOR ( 'NONE', #880, 1000.000000000000000 ) ;
#933 = ORIENTED_EDGE ( 'NONE', *, *, #1089, .T. ) ;
#934 = FACE_OUTER_BOUND ( 'NONE', #1109, .T. ) ;
#935 = PLANE ( 'NONE',  #1160 ) ;
#936 = CARTESIAN_POINT ( 'NONE',  ( -1.100000000000000089, 0.6066666666666666874, 0.8000000000000000444 ) ) ;
#937 = ORIENTED_EDGE ( 'NONE', *, *, #862, .F. ) ;
#938 = CYLINDRICAL_SURFACE ( 'NONE', #423, 0.04666666666666664798 ) ;
#939 = ORIENTED_EDGE ( 'NONE', *, *, #988, .T. ) ;
#940 = CARTESIAN_POINT ( 'NONE',  ( -1.200000000000000178, 0.04666666666666666186, -0.8000000000000000444 ) ) ;
#941 = EDGE_CURVE ( 'NONE', #698, #46, #898, .T. ) ;
#942 = FACE_OUTER_BOUND ( 'NONE', #254, .T. ) ;
#943 = CARTESIAN_POINT ( 'NONE',  ( -1.553333333333333455, 0.6066666666666666874, 0.8000000000000000444 ) ) ;
#944 = AXIS2_PLACEMENT_3D ( 'NONE', #50, #413, #496 ) ;
#945 = ORIENTED_EDGE ( 'NONE', *, *, #1067, .F. ) ;
#946 = CARTESIAN_POINT ( 'NONE',  ( 1.200000000000000178, 0.04666666666666666186, -0.8000000000000000444 ) ) ;
#947 = SURFACE_STYLE_USAGE ( .BOTH. , #1142 ) ;
#948 = CARTESIAN_POINT ( 'NONE',  ( -1.080670033755922299, 0.6999999999999999556, -0.7806700337559221436 ) ) ;
#949 = CARTESIAN_POINT ( 'NONE',  ( 1.100000000000000089, 0.6066666666666666874, 0.8000000000000000444 ) ) ;
#950 = VERTEX_POINT ( 'NONE', #419 ) ;
#951 = ADVANCED_FACE ( 'NONE', ( #500 ), #1082, .F. ) ;
#952 = VECTOR ( 'NONE', #8, 1000.000000000000000 ) ;
#953 = VECTOR ( 'NONE', #831, 1000.000000000000000 ) ;
#954 = LINE ( 'NONE', #1052, #1013 ) ;
#955 = CARTESIAN_POINT ( 'NONE',  ( -1.100000000000000089, 0.6999999999999999556, -3.001978907962361109 ) ) ;
#956 = EDGE_LOOP ( 'NONE', ( #1104, #833, #933, #615 ) ) ;
#957 = DIRECTION ( 'NONE',  ( -1.000000000000000000, 0.000000000000000000, 0.000000000000000000 ) ) ;
#958 =( BOUNDED_CURVE ( )  B_SPLINE_CURVE ( 3, ( #160, #534, #737, #1117 ),
 .UNSPECIFIED., .F., .F. ) 
 B_SPLINE_CURVE_WITH_KNOTS ( ( 4, 4 ),
 ( 2.323290369611792736E-15, 1.570796326794895448 ),
 .UNSPECIFIED. ) 
 CURVE ( )  GEOMETRIC_REPRESENTATION_ITEM ( )  RATIONAL_B_SPLINE_CURVE ( ( 1.000000000000000000, 0.8047378541243658256, 0.8047378541243658256, 1.000000000000000000 ) ) 
 REPRESENTATION_ITEM ( '' )  );
#959 = ADVANCED_FACE ( 'NONE', ( #45 ), #233, .F. ) ;
#960 = CARTESIAN_POINT ( 'NONE',  ( -1.553333333333333455, 0.6533333333333334325, 0.8000000000000000444 ) ) ;
#961 = CYLINDRICAL_SURFACE ( 'NONE', #107, 0.04666666666666664798 ) ;
#962 = CARTESIAN_POINT ( 'NONE',  ( 1.553333333333333455, 0.04666666666666659941, -0.7999999999999999334 ) ) ;
#963 = LINE ( 'NONE', #211, #321 ) ;
#964 = CARTESIAN_POINT ( 'NONE',  ( 1.053333333333333233, 0.6999999999999999556, -0.7533333333333332993 ) ) ;
#965 = EDGE_LOOP ( 'NONE', ( #843, #30, #300, #424 ) ) ;
#966 = EDGE_CURVE ( 'NONE', #1170, #712, #399, .T. ) ;
#967 = DIRECTION ( 'NONE',  ( 0.000000000000000000, -1.000000000000000000, 0.000000000000000000 ) ) ;
#968 =( NAMED_UNIT ( * ) SI_UNIT ( $, .STERADIAN. ) SOLID_ANGLE_UNIT ( ) );
#969 = EDGE_CURVE ( 'NONE', #95, #493, #600, .T. ) ;
#970 = AXIS2_PLACEMENT_3D ( 'NONE', #436, #1114, #826 ) ;
#971 = CIRCLE ( 'NONE', #1009, 0.04666666666666664798 ) ;
#972 = CARTESIAN_POINT ( 'NONE',  ( 1.100000000000000089, 0.6066666666666666874, -0.7999999999999999334 ) ) ;
#973 = ORIENTED_EDGE ( 'NONE', *, *, #986, .T. ) ;
#974 = STYLED_ITEM ( 'NONE', ( #407 ), #104 ) ;
#975 = CARTESIAN_POINT ( 'NONE',  ( 1.553333333333333455, 0.04666666666666659941, -0.8000000000000000444 ) ) ;
#976 = SURFACE_STYLE_FILL_AREA ( #136 ) ;
#977 = VERTEX_POINT ( 'NONE', #1164 ) ;
#978 = CARTESIAN_POINT ( 'NONE',  ( -1.100000000000000089, 0.6066666666666666874, -0.8000000000000000444 ) ) ;
#979 = CLOSED_SHELL ( 'NONE', ( #81, #444, #917, #583, #516, #263 ) ) ;
#980 = LINE ( 'NONE', #44, #576 ) ;
#981 = CARTESIAN_POINT ( 'NONE',  ( -1.599999999999999867, 0.6066666666666666874, 0.8000000000000000444 ) ) ;
#982 = EDGE_CURVE ( 'NONE', #7, #90, #126, .T. ) ;
#983 = ORIENTED_EDGE ( 'NONE', *, *, #130, .F. ) ;
#984 = DIRECTION ( 'NONE',  ( -1.000000000000000000, 0.000000000000000000, 0.000000000000000000 ) ) ;
#985 = ORIENTED_EDGE ( 'NONE', *, *, #218, .T. ) ;
#986 = EDGE_CURVE ( 'NONE', #484, #692, #226, .T. ) ;
#987 = ORIENTED_EDGE ( 'NONE', *, *, #672, .T. ) ;
#988 = EDGE_CURVE ( 'NONE', #568, #1183, #612, .T. ) ;
#989 = DIRECTION ( 'NONE',  ( 0.000000000000000000, 1.000000000000000000, 0.000000000000000000 ) ) ;
#990 = VECTOR ( 'NONE', #1039, 1000.000000000000000 ) ;
#991 = SURFACE_SIDE_STYLE ('',( #976 ) ) ;
#992 = CARTESIAN_POINT ( 'NONE',  ( 1.553333333333333455, 0.6533333333333334325, -0.8000000000000000444 ) ) ;
#993 = ORIENTED_EDGE ( 'NONE', *, *, #169, .T. ) ;
#994 = VERTEX_POINT ( 'NONE', #1182 ) ;
#995 = CARTESIAN_POINT ( 'NONE',  ( -1.553333333333333455, 0.04666666666666659941, -0.8000000000000000444 ) ) ;
#996 = FACE_OUTER_BOUND ( 'NONE', #1023, .T. ) ;
#997 = EDGE_CURVE ( 'NONE', #802, #1168, #998, .T. ) ;
#998 = LINE ( 'NONE', #78, #216 ) ;
#999 = ORIENTED_EDGE ( 'NONE', *, *, #1074, .T. ) ;
#1000 = EDGE_CURVE ( 'NONE', #692, #90, #182, .T. ) ;
#1001 = UNCERTAINTY_MEASURE_WITH_UNIT (LENGTH_MEASURE( 1.000000000000000082E-05 ), #397, 'distance_accuracy_value', 'NONE');
#1002 = LINE ( 'NONE', #820, #680 ) ;
#1003 = EDGE_CURVE ( 'NONE', #798, #930, #70, .T. ) ;
#1004 = CARTESIAN_POINT ( 'NONE',  ( 1.099999999999999867, 0.6999999999999999556, 0.7533333333333334103 ) ) ;
#1005 = CYLINDRICAL_SURFACE ( 'NONE', #720, 0.04666666666666664798 ) ;
#1006 = ORIENTED_EDGE ( 'NONE', *, *, #422, .F. ) ;
#1007 = AXIS2_PLACEMENT_3D ( 'NONE', #124, #776, #1152 ) ;
#1008 = LINE ( 'NONE', #72, #403 ) ;
#1009 = AXIS2_PLACEMENT_3D ( 'NONE', #575, #31, #957 ) ;
#1010 = VERTEX_POINT ( 'NONE', #1014 ) ;
#1011 = LINE ( 'NONE', #330, #1172 ) ;
#1012 = DIRECTION ( 'NONE',  ( -1.000000000000000000, 1.912192573756218193E-16, 0.000000000000000000 ) ) ;
#1013 = VECTOR ( 'NONE', #361, 1000.000000000000000 ) ;
#1014 = CARTESIAN_POINT ( 'NONE',  ( -1.100000000000000089, 0.6533333333333333215, 0.8000000000000000444 ) ) ;
#1015 = EDGE_LOOP ( 'NONE', ( #530, #639, #248, #632 ) ) ;
#1016 = DIRECTION ( 'NONE',  ( -0.000000000000000000, -1.000000000000000000, -0.000000000000000000 ) ) ;
#1017 = ORIENTED_EDGE ( 'NONE', *, *, #592, .F. ) ;
#1018 = FACE_OUTER_BOUND ( 'NONE', #965, .T. ) ;
#1019 = DIRECTION ( 'NONE',  ( 1.000000000000000000, -0.000000000000000000, 0.000000000000000000 ) ) ;
#1020 = DIRECTION ( 'NONE',  ( 1.000000000000000000, 0.000000000000000000, 0.000000000000000000 ) ) ;
#1021 = ORIENTED_EDGE ( 'NONE', *, *, #1089, .F. ) ;
#1022 = DIRECTION ( 'NONE',  ( 1.000000000000000000, -2.391622439306259897E-16, 0.000000000000000000 ) ) ;
#1023 = EDGE_LOOP ( 'NONE', ( #39, #937, #352, #1139 ) ) ;
#1024 = DIRECTION ( 'NONE',  ( -2.323290369611796681E-15, 1.000000000000000000, 0.000000000000000000 ) ) ;
#1025 = CARTESIAN_POINT ( 'NONE',  ( 1.200000000000000178, 0.000000000000000000, 0.8000000000000000444 ) ) ;
#1026 = CARTESIAN_POINT ( 'NONE',  ( 1.100000000000000089, 0.6066666666666666874, -3.001978907962361109 ) ) ;
#1027 = VERTEX_POINT ( 'NONE', #441 ) ;
#1028 = VECTOR ( 'NONE', #638, 1000.000000000000000 ) ;
#1029 = VERTEX_POINT ( 'NONE', #806 ) ;
#1030 = EDGE_CURVE ( 'NONE', #837, #1122, #342, .T. ) ;
#1031 = ORIENTED_EDGE ( 'NONE', *, *, #908, .F. ) ;
#1032 = VECTOR ( 'NONE', #327, 1000.000000000000000 ) ;
#1033 = STYLED_ITEM ( 'NONE', ( #375 ), #640 ) ;
#1034 = ORIENTED_EDGE ( 'NONE', *, *, #1126, .T. ) ;
#1035 = DIRECTION ( 'NONE',  ( -1.000000000000000000, 2.391622439306259897E-16, -0.000000000000000000 ) ) ;
#1036 = CARTESIAN_POINT ( 'NONE',  ( 1.599999999999999867, 0.6066666666666666874, 0.8000000000000000444 ) ) ;
#1037 = EDGE_CURVE ( 'NONE', #228, #977, #43, .T. ) ;
#1038 = ORIENTED_EDGE ( 'NONE', *, *, #874, .F. ) ;
#1039 = DIRECTION ( 'NONE',  ( -0.000000000000000000, -0.000000000000000000, -1.000000000000000000 ) ) ;
#1040 = DIRECTION ( 'NONE',  ( -0.000000000000000000, -0.000000000000000000, -1.000000000000000000 ) ) ;
#1041 = FACE_OUTER_BOUND ( 'NONE', #1015, .T. ) ;
#1042 = ADVANCED_FACE ( 'NONE', ( #456 ), #840, .F. ) ;
#1043 = DIRECTION ( 'NONE',  ( 0.000000000000000000, 0.000000000000000000, 1.000000000000000000 ) ) ;
#1044 = DIRECTION ( 'NONE',  ( -0.000000000000000000, -0.000000000000000000, -1.000000000000000000 ) ) ;
#1045 = ADVANCED_FACE ( 'NONE', ( #62 ), #1005, .T. ) ;
#1046 = ORIENTED_EDGE ( 'NONE', *, *, #218, .F. ) ;
#1047 = VECTOR ( 'NONE', #754, 1000.000000000000000 ) ;
#1048 = DIRECTION ( 'NONE',  ( 1.000000000000000000, -1.917810446613510276E-16, 0.000000000000000000 ) ) ;
#1049 = DIRECTION ( 'NONE',  ( 1.000000000000000000, 0.000000000000000000, 0.000000000000000000 ) ) ;
#1050 = CARTESIAN_POINT ( 'NONE',  ( -1.100000000000000089, 0.6533333333333333215, 0.8000000000000000444 ) ) ;
#1051 = VECTOR ( 'NONE', #656, 1000.000000000000000 ) ;
#1052 = CARTESIAN_POINT ( 'NONE',  ( -1.553333333333333455, -6.756413760605303213E-17, 0.8000000000000000444 ) ) ;
#1053 = EDGE_CURVE ( 'NONE', #506, #1095, #707, .T. ) ;
#1054 = DIRECTION ( 'NONE',  ( 1.000000000000000000, 0.000000000000000000, 0.000000000000000000 ) ) ;
#1055 = CARTESIAN_POINT ( 'NONE',  ( -1.599999999999999867, 0.04666666666666659247, 0.8000000000000000444 ) ) ;
#1056 = LINE ( 'NONE', #1148, #477 ) ;
#1057 = FACE_OUTER_BOUND ( 'NONE', #646, .T. ) ;
#1058 = DIRECTION ( 'NONE',  ( 1.000000000000000000, 0.000000000000000000, -0.000000000000000000 ) ) ;
#1059 = SURFACE_STYLE_USAGE ( .BOTH. , #23 ) ;
#1060 = PLANE ( 'NONE',  #521 ) ;
#1061 = VECTOR ( 'NONE', #401, 1000.000000000000000 ) ;
#1062 = AXIS2_PLACEMENT_3D ( 'NONE', #408, #38, #1064 ) ;
#1063 = CARTESIAN_POINT ( 'NONE',  ( -1.553333333333333455, 0.6533333333333334325, -0.8000000000000000444 ) ) ;
#1064 = DIRECTION ( 'NONE',  ( 0.000000000000000000, 0.000000000000000000, 1.000000000000000000 ) ) ;
#1065 = EDGE_LOOP ( 'NONE', ( #905, #99, #1034, #334 ) ) ;
#1066 = CARTESIAN_POINT ( 'NONE',  ( 1.553333333333333455, 0.6066666666666666874, 0.8000000000000000444 ) ) ;
#1067 = EDGE_CURVE ( 'NONE', #316, #1183, #259, .T. ) ;
#1068 = AXIS2_PLACEMENT_3D ( 'NONE', #29, #758, #755 ) ;
#1069 = PRESENTATION_STYLE_ASSIGNMENT (( #881 ) ) ;
#1070 = ORIENTED_EDGE ( 'NONE', *, *, #908, .T. ) ;
#1071 = UNCERTAINTY_MEASURE_WITH_UNIT (LENGTH_MEASURE( 1.000000000000000082E-05 ), #896, 'distance_accuracy_value', 'NONE');
#1072 = CARTESIAN_POINT ( 'NONE',  ( -1.100000000000000089, 0.6066666666666666874, -0.7999999999999999334 ) ) ;
#1073 = DIRECTION ( 'NONE',  ( -1.000000000000000000, 0.000000000000000000, 0.000000000000000000 ) ) ;
#1074 = EDGE_CURVE ( 'NONE', #591, #950, #958, .T. ) ;
#1075 = CARTESIAN_POINT ( 'NONE',  ( 1.553333333333333455, 0.04666666666666659941, -3.956735303724051356 ) ) ;
#1076 = ORIENTED_EDGE ( 'NONE', *, *, #812, .T. ) ;
#1077 = PRODUCT ( 'SG732BRed', 'SG732BRed', '', ( #33 ) ) ;
#1078 = ORIENTED_EDGE ( 'NONE', *, *, #250, .F. ) ;
#1079 = CARTESIAN_POINT ( 'NONE',  ( 1.553333333333333455, 0.6066666666666666874, -0.7999999999999999334 ) ) ;
#1080 = DIRECTION ( 'NONE',  ( -1.000000000000000000, 0.000000000000000000, 0.000000000000000000 ) ) ;
#1081 = CIRCLE ( 'NONE', #156, 0.04666666666666664798 ) ;
#1082 = PLANE ( 'NONE',  #1103 ) ;
#1083 = EDGE_LOOP ( 'NONE', ( #12, #1100, #65, #538 ) ) ;
#1084 = ORIENTED_EDGE ( 'NONE', *, *, #298, .T. ) ;
#1085 = ADVANCED_FACE ( 'NONE', ( #356 ), #270, .F. ) ;
#1086 = FACE_OUTER_BOUND ( 'NONE', #445, .T. ) ;
#1087 = ORIENTED_EDGE ( 'NONE', *, *, #769, .F. ) ;
#1088 = DIRECTION ( 'NONE',  ( 1.000000000000000000, 0.000000000000000000, 0.000000000000000000 ) ) ;
#1089 = EDGE_CURVE ( 'NONE', #1170, #519, #6, .T. ) ;
#1090 = EDGE_LOOP ( 'NONE', ( #86, #359, #892, #664 ) ) ;
#1091 = CARTESIAN_POINT ( 'NONE',  ( 1.100000000000000089, 0.6066666666666666874, -0.7999999999999999334 ) ) ;
#1092 = CARTESIAN_POINT ( 'NONE',  ( -1.200000000000000178, 0.000000000000000000, -0.8000000000000000444 ) ) ;
#1093 = EDGE_CURVE ( 'NONE', #802, #288, #631, .T. ) ;
#1094 = CARTESIAN_POINT ( 'NONE',  ( 1.100000000000000089, 0.6066666666666666874, 0.8000000000000000444 ) ) ;
#1095 = VERTEX_POINT ( 'NONE', #624 ) ;
#1096 = ORIENTED_EDGE ( 'NONE', *, *, #897, .T. ) ;
#1097 = PLANE ( 'NONE',  #907 ) ;
#1098 = CARTESIAN_POINT ( 'NONE',  ( 1.553333333333333455, 0.6066666666666666874, 0.8000000000000000444 ) ) ;
#1099 = CARTESIAN_POINT ( 'NONE',  ( 1.553333333333333455, 0.6533333333333334325, 0.8000000000000000444 ) ) ;
#1100 = ORIENTED_EDGE ( 'NONE', *, *, #96, .T. ) ;
#1101 = VECTOR ( 'NONE', #528, 1000.000000000000000 ) ;
#1102 = DIRECTION ( 'NONE',  ( 0.000000000000000000, 1.000000000000000000, 0.000000000000000000 ) ) ;
#1103 = AXIS2_PLACEMENT_3D ( 'NONE', #791, #681, #885 ) ;
#1104 = ORIENTED_EDGE ( 'NONE', *, *, #1003, .F. ) ;
#1105 = DIRECTION ( 'NONE',  ( 0.000000000000000000, 1.000000000000000000, 0.000000000000000000 ) ) ;
#1106 = FACE_OUTER_BOUND ( 'NONE', #9, .T. ) ;
#1107 = ORIENTED_EDGE ( 'NONE', *, *, #770, .F. ) ;
#1108 = CARTESIAN_POINT ( 'NONE',  ( -1.053333333333333455, 0.6999999999999999556, 0.7533333333333334103 ) ) ;
#1109 = EDGE_LOOP ( 'NONE', ( #1194, #227, #911, #815 ) ) ;
#1110 = CARTESIAN_POINT ( 'NONE',  ( -1.599999999999999867, 0.6066666666666666874, -0.8000000000000000444 ) ) ;
#1111 = PLANE ( 'NONE',  #648 ) ;
#1112 = DIRECTION ( 'NONE',  ( -0.000000000000000000, -1.000000000000000000, -0.000000000000000000 ) ) ;
#1113 = ORIENTED_EDGE ( 'NONE', *, *, #854, .T. ) ;
#1114 = DIRECTION ( 'NONE',  ( 0.000000000000000000, 0.000000000000000000, -1.000000000000000000 ) ) ;
#1115 = ORIENTED_EDGE ( 'NONE', *, *, #1, .T. ) ;
#1116 = LINE ( 'NONE', #138, #205 ) ;
#1117 = CARTESIAN_POINT ( 'NONE',  ( 1.053333333333333233, 0.6999999999999999556, 0.7533333333333334103 ) ) ;
#1118 = EDGE_LOOP ( 'NONE', ( #899, #734, #343, #148 ) ) ;
#1119 = CARTESIAN_POINT ( 'NONE',  ( 1.553333333333333455, 0.6533333333333334325, 0.8000000000000000444 ) ) ;
#1120 = VECTOR ( 'NONE', #757, 1000.000000000000000 ) ;
#1121 = VECTOR ( 'NONE', #55, 1000.000000000000000 ) ;
#1122 = VERTEX_POINT ( 'NONE', #1094 ) ;
#1123 = ADVANCED_FACE ( 'NONE', ( #1106 ), #924, .T. ) ;
#1124 = LINE ( 'NONE', #202, #990 ) ;
#1125 = CARTESIAN_POINT ( 'NONE',  ( -1.600000000000000089, 0.04666666666666659247, 0.8000000000000000444 ) ) ;
#1126 = EDGE_CURVE ( 'NONE', #363, #802, #49, .T. ) ;
#1127 = ORIENTED_EDGE ( 'NONE', *, *, #685, .T. ) ;
#1128 = AXIS2_PLACEMENT_3D ( 'NONE', #839, #238, #68 ) ;
#1129 = CARTESIAN_POINT ( 'NONE',  ( 1.553333333333333455, 0.04666666666666659941, -0.8000000000000000444 ) ) ;
#1130 = ORIENTED_EDGE ( 'NONE', *, *, #1053, .F. ) ;
#1131 = ADVANCED_FACE ( 'NONE', ( #765 ), #1138, .F. ) ;
#1132 = LINE ( 'NONE', #946, #726 ) ;
#1133 = CARTESIAN_POINT ( 'NONE',  ( 1.200000000000000178, 0.04666666666666666186, 0.8000000000000000444 ) ) ;
#1134 = ORIENTED_EDGE ( 'NONE', *, *, #736, .T. ) ;
#1135 = LINE ( 'NONE', #106, #1120 ) ;
#1136 = VECTOR ( 'NONE', #1035, 1000.000000000000000 ) ;
#1137 = ORIENTED_EDGE ( 'NONE', *, *, #383, .T. ) ;
#1138 = PLANE ( 'NONE',  #670 ) ;
#1139 = ORIENTED_EDGE ( 'NONE', *, *, #381, .F. ) ;
#1140 = DIRECTION ( 'NONE',  ( 0.000000000000000000, -0.000000000000000000, -1.000000000000000000 ) ) ;
#1141 = VECTOR ( 'NONE', #912, 1000.000000000000000 ) ;
#1142 = SURFACE_SIDE_STYLE ('',( #865 ) ) ;
#1143 = CARTESIAN_POINT ( 'NONE',  ( -1.553333333333333455, 0.6066666666666666874, -0.7999999999999999334 ) ) ;
#1144 = AXIS2_PLACEMENT_3D ( 'NONE', #804, #611, #340 ) ;
#1145 = COLOUR_RGB ( '',0.7960784313725489669, 0.8235294117647058432, 0.9372549019607843146 ) ;
#1146 = CARTESIAN_POINT ( 'NONE',  ( 1.553333333333333455, 0.6066666666666666874, 0.8000000000000000444 ) ) ;
#1147 = CARTESIAN_POINT ( 'NONE',  ( -1.553333333333333455, 0.6066666666666666874, -0.8000000000000000444 ) ) ;
#1148 = CARTESIAN_POINT ( 'NONE',  ( 1.100000000000000089, 0.6066666666666666874, 0.8000000000000000444 ) ) ;
#1149 = CARTESIAN_POINT ( 'NONE',  ( -1.200000000000000178, 0.04666666666666666186, 0.8000000000000000444 ) ) ;
#1150 = VECTOR ( 'NONE', #198, 1000.000000000000000 ) ;
#1151 = EDGE_CURVE ( 'NONE', #712, #149, #310, .T. ) ;
#1152 = DIRECTION ( 'NONE',  ( 0.000000000000000000, 0.000000000000000000, 1.000000000000000000 ) ) ;
#1153 =( NAMED_UNIT ( * ) PLANE_ANGLE_UNIT ( ) SI_UNIT ( $, .RADIAN. ) );
#1154 = ORIENTED_EDGE ( 'NONE', *, *, #114, .T. ) ;
#1155 = STYLED_ITEM ( 'NONE', ( #139 ), #495 ) ;
#1156 = MECHANICAL_DESIGN_GEOMETRIC_PRESENTATION_REPRESENTATION (  '', ( #524 ), #426 ) ;
#1157 =( NAMED_UNIT ( * ) SI_UNIT ( $, .STERADIAN. ) SOLID_ANGLE_UNIT ( ) );
#1158 = ADVANCED_FACE ( 'NONE', ( #1041 ), #845, .F. ) ;
#1159 = ORIENTED_EDGE ( 'NONE', *, *, #747, .F. ) ;
#1160 = AXIS2_PLACEMENT_3D ( 'NONE', #77, #455, #1192 ) ;
#1161 = DIRECTION ( 'NONE',  ( 1.000000000000000000, 0.000000000000000000, 0.000000000000000000 ) ) ;
#1162 = ADVANCED_FACE ( 'NONE', ( #24 ), #387, .F. ) ;
#1163 = DIRECTION ( 'NONE',  ( -0.000000000000000000, 1.000000000000000000, -0.000000000000000000 ) ) ;
#1164 = CARTESIAN_POINT ( 'NONE',  ( -1.553333333333333455, -6.756413760605303213E-17, -0.8000000000000000444 ) ) ;
#1165 = ORIENTED_EDGE ( 'NONE', *, *, #247, .T. ) ;
#1166 = CARTESIAN_POINT ( 'NONE',  ( -1.553333333333333455, 0.6066666666666666874, 0.8000000000000000444 ) ) ;
#1167 = DIRECTION ( 'NONE',  ( 0.000000000000000000, 1.000000000000000000, 0.000000000000000000 ) ) ;
#1168 = VERTEX_POINT ( 'NONE', #870 ) ;
#1169 = ADVANCED_FACE ( 'NONE', ( #464 ), #197, .F. ) ;
#1170 = VERTEX_POINT ( 'NONE', #571 ) ;
#1171 = LINE ( 'NONE', #676, #1061 ) ;
#1172 = VECTOR ( 'NONE', #173, 1000.000000000000000 ) ;
#1173 = FACE_OUTER_BOUND ( 'NONE', #810, .T. ) ;
#1174 = VECTOR ( 'NONE', #297, 1000.000000000000000 ) ;
#1175 = DIRECTION ( 'NONE',  ( 0.000000000000000000, 1.000000000000000000, 0.000000000000000000 ) ) ;
#1176 = VERTEX_POINT ( 'NONE', #1125 ) ;
#1177 = LINE ( 'NONE', #241, #1032 ) ;
#1178 = EDGE_CURVE ( 'NONE', #95, #1010, #662, .T. ) ;
#1179 = ORIENTED_EDGE ( 'NONE', *, *, #1030, .F. ) ;
#1180 = DIRECTION ( 'NONE',  ( 0.000000000000000000, 0.000000000000000000, 1.000000000000000000 ) ) ;
#1181 = DIRECTION ( 'NONE',  ( 0.000000000000000000, -0.000000000000000000, 1.000000000000000000 ) ) ;
#1182 = CARTESIAN_POINT ( 'NONE',  ( 1.553333333333333455, 0.6066666666666666874, -0.7999999999999999334 ) ) ;
#1183 = VERTEX_POINT ( 'NONE', #1147 ) ;
#1184 = DIRECTION ( 'NONE',  ( 1.000000000000000000, 2.323290369611796681E-15, -0.000000000000000000 ) ) ;
#1185 = CARTESIAN_POINT ( 'NONE',  ( 1.599999999999999867, 0.04666666666666659247, -0.8000000000000000444 ) ) ;
#1186 = CARTESIAN_POINT ( 'NONE',  ( -1.200000000000000178, 0.000000000000000000, 0.8000000000000000444 ) ) ;
#1187 = DIRECTION ( 'NONE',  ( -1.000000000000000000, 0.000000000000000000, 0.000000000000000000 ) ) ;
#1188 = ORIENTED_EDGE ( 'NONE', *, *, #695, .F. ) ;
#1189 = CARTESIAN_POINT ( 'NONE',  ( 1.100000000000000089, 0.6066666666666666874, -3.001978907962361109 ) ) ;
#1190 = ORIENTED_EDGE ( 'NONE', *, *, #988, .F. ) ;
#1191 = DIRECTION ( 'NONE',  ( -1.000000000000000000, 1.917810446613510276E-16, 0.000000000000000000 ) ) ;
#1192 = DIRECTION ( 'NONE',  ( 0.000000000000000000, 0.000000000000000000, 1.000000000000000000 ) ) ;
#1193 = DIRECTION ( 'NONE',  ( 0.000000000000000000, 0.000000000000000000, 1.000000000000000000 ) ) ;
#1194 = ORIENTED_EDGE ( 'NONE', *, *, #982, .F. ) ;
#1195 = VECTOR ( 'NONE', #713, 1000.000000000000000 ) ;
#1196 = VERTEX_POINT ( 'NONE', #367 ) ;
#1197 = LINE ( 'NONE', #729, #293 ) ;
#1198 = EDGE_CURVE ( 'NONE', #603, #46, #743, .T. ) ;
#1199 = LINE ( 'NONE', #264, #164 ) ;
#1200 = DIRECTION ( 'NONE',  ( 0.000000000000000000, 0.000000000000000000, -1.000000000000000000 ) ) ;
#1201 = ORIENTED_EDGE ( 'NONE', *, *, #10, .T. ) ;
ENDSEC;
END-ISO-10303-21;
