ISO-10303-21;
HEADER;
FILE_DESCRIPTION(
  ('This file contains a STEP AP42 implementation'
    ,'as created by ZW3D STEP Interface translator.')
  ,'2;1'
  );
FILE_NAME(
  'CSBL1809 Footprint.stp'
  ,'23 726. 92613',
  (''),
  ('ZWCAD Software Co.'),
  'Version 1.0',
  'ZW3D to STEP translator',
  ''
  );
FILE_SCHEMA(('AUTOMOTIVE_DESIGN { 1 0 10303 214 1 1 1 1 }'));
ENDSEC;

DATA;

/**File Base Unit**/
#1 = (LENGTH_UNIT()NAMED_UNIT(*)SI_UNIT(.MILLI.,.METRE.));
#2 = (NAMED_UNIT(*)PLANE_ANGLE_UNIT()SI_UNIT($,.RADIAN.));
#3 = (NAMED_UNIT(*)SI_UNIT($,.STERADIAN.)SOLID_ANGLE_UNIT());
#4 = UNCERTAINTY_MEASURE_WITH_UNIT(LENGTH_MEASURE(0.01),#1,'DISTANCE_ACCURACY_VALUE','Maximum Tolerance applied to model');
#5 = (GEOMETRIC_REPRESENTATION_CONTEXT(3)GLOBAL_UNCERTAINTY_ASSIGNED_CONTEXT((#4))GLOBAL_UNIT_ASSIGNED_CONTEXT((#1,#2,#3))REPRESENTATION_CONTEXT('STEP 203','TOP_LEVEL_ASSEMBLY_PART'));

/**product_definition_shape**/
#6=APPLICATION_CONTEXT('mechanical parts and assemblies' );
#7=DESIGN_CONTEXT('NONE',#6,'design');
#8=MECHANICAL_CONTEXT('NONE',#6,'mechanical');
#9=PRODUCT('0','Part','',(#8));
#10=PRODUCT_DEFINITION_FORMATION_WITH_SPECIFIED_SOURCE('ANY','',#9,.NOT_KNOWN.);
#11=PRODUCT_DEFINITION('UNKNOWN','',#10,#7);
#12=PRODUCT_DEFINITION_SHAPE('NONE','NONE',#11);
#13=PRODUCT_RELATED_PRODUCT_CATEGORY('detail','',(#9));
/**geometry information**/
#14=CARTESIAN_POINT('',(0.,0.,0.));
#15=DIRECTION('',(0.,0.,1.));
#16=DIRECTION('',(1.,0.,0.));
#17=AXIS2_PLACEMENT_3D('',#14,#15,#16);
#18=APPLICATION_CONTEXT('part');
#19=MECHANICAL_CONTEXT('none',#18,'component');
#20=PRODUCT('1809','1809','',(#19));
#21=PRODUCT_RELATED_PRODUCT_CATEGORY('detail','',(#20));
#22=PRODUCT_DEFINITION_FORMATION_WITH_SPECIFIED_SOURCE('ANY','UNSPECIFIED',#20,.NOT_KNOWN.);
#23=APPLICATION_CONTEXT('part');
#24=APPLICATION_PROTOCOL_DEFINITION('international standard','config_control_design',1994,#23);
#25=DESIGN_CONTEXT('detailed',#23,'design');
#26=PRODUCT_DEFINITION('','UNSPECIFIED',#22,#25);
#27=PRODUCT_DEFINITION_SHAPE('NONE','NONE',#26);
#28=SHAPE_REPRESENTATION('1809',(#17),#5);
#29=SHAPE_DEFINITION_REPRESENTATION(#27,#28);
#30=CARTESIAN_POINT('',(1121.6873288757,-717.73235643898,0.));
#31=DIRECTION('',(0.,1.,0.));
#32=VECTOR('',#31,6.);
#33=LINE('',#30,#32);
#34=TRIMMED_CURVE('L185',#33,(PARAMETER_VALUE(0.)),(PARAMETER_VALUE(1.0)),.T.,.PARAMETER.);
#35=COLOUR_RGB('',0.,0.,0.000000);
#36=DRAUGHTING_PRE_DEFINED_CURVE_FONT('continuous');
#37=CURVE_STYLE('None', #36, 'POSITIVE_LENGTH_MEASURE( 0 )', #35);
#38=PRESENTATION_STYLE_ASSIGNMENT((#37));
#39=STYLED_ITEM('None', (#38), #34);
#40=CARTESIAN_POINT('',(1121.6873288757,-711.73235643898,0.));
#41=DIRECTION('',(1.,0.,0.));
#42=VECTOR('',#41,5.5);
#43=LINE('',#40,#42);
#44=TRIMMED_CURVE('L193',#43,(PARAMETER_VALUE(0.)),(PARAMETER_VALUE(1.0)),.T.,.PARAMETER.);
#45=STYLED_ITEM('None', (#38), #44);
#46=CARTESIAN_POINT('',(1127.1873288757,-711.73235643898,0.));
#47=DIRECTION('',(0.,-1.,0.));
#48=VECTOR('',#47,6.);
#49=LINE('',#46,#48);
#50=TRIMMED_CURVE('L200',#49,(PARAMETER_VALUE(0.)),(PARAMETER_VALUE(1.0)),.T.,.PARAMETER.);
#51=STYLED_ITEM('None', (#38), #50);
#52=CARTESIAN_POINT('',(1127.1873288757,-717.73235643898,0.));
#53=DIRECTION('',(-1.,0.,0.));
#54=VECTOR('',#53,5.5);
#55=LINE('',#52,#54);
#56=TRIMMED_CURVE('L206',#55,(PARAMETER_VALUE(0.)),(PARAMETER_VALUE(1.0)),.T.,.PARAMETER.);
#57=STYLED_ITEM('None', (#38), #56);
#58=CARTESIAN_POINT('',(1121.6873288757,-703.73235643898,0.));
#59=DIRECTION('',(0.,1.,0.));
#60=VECTOR('',#59,6.);
#61=LINE('',#58,#60);
#62=TRIMMED_CURVE('L213',#61,(PARAMETER_VALUE(0.)),(PARAMETER_VALUE(1.0)),.T.,.PARAMETER.);
#63=STYLED_ITEM('None', (#38), #62);
#64=CARTESIAN_POINT('',(1121.6873288757,-697.73235643898,0.));
#65=DIRECTION('',(1.,0.,0.));
#66=VECTOR('',#65,5.5);
#67=LINE('',#64,#66);
#68=TRIMMED_CURVE('L220',#67,(PARAMETER_VALUE(0.)),(PARAMETER_VALUE(1.0)),.T.,.PARAMETER.);
#69=STYLED_ITEM('None', (#38), #68);
#70=CARTESIAN_POINT('',(1127.1873288757,-697.73235643898,0.));
#71=DIRECTION('',(0.,-1.,0.));
#72=VECTOR('',#71,6.);
#73=LINE('',#70,#72);
#74=TRIMMED_CURVE('L226',#73,(PARAMETER_VALUE(0.)),(PARAMETER_VALUE(1.0)),.T.,.PARAMETER.);
#75=STYLED_ITEM('None', (#38), #74);
#76=CARTESIAN_POINT('',(1127.1873288757,-703.73235643898,0.));
#77=DIRECTION('',(-1.,0.,0.));
#78=VECTOR('',#77,5.5);
#79=LINE('',#76,#78);
#80=TRIMMED_CURVE('L233',#79,(PARAMETER_VALUE(0.)),(PARAMETER_VALUE(1.0)),.T.,.PARAMETER.);
#81=STYLED_ITEM('None', (#38), #80);
#82=CARTESIAN_POINT('',(1127.1873288757,-717.73235643898,0.));
#83=DIRECTION('',(-1.,0.,0.));
#84=VECTOR('',#83,5.5);
#85=LINE('',#82,#84);
#86=TRIMMED_CURVE('L240',#85,(PARAMETER_VALUE(0.)),(PARAMETER_VALUE(1.0)),.T.,.PARAMETER.);
#87=STYLED_ITEM('None', (#38), #86);
#88=CARTESIAN_POINT('',(1121.6873288757,-717.73235643898,0.));
#89=DIRECTION('',(0.,1.,0.));
#90=VECTOR('',#89,6.);
#91=LINE('',#88,#90);
#92=TRIMMED_CURVE('L246',#91,(PARAMETER_VALUE(0.)),(PARAMETER_VALUE(1.0)),.T.,.PARAMETER.);
#93=STYLED_ITEM('None', (#38), #92);
#94=CARTESIAN_POINT('',(1121.6873288757,-711.73235643898,0.));
#95=DIRECTION('',(1.,0.,0.));
#96=VECTOR('',#95,5.5);
#97=LINE('',#94,#96);
#98=TRIMMED_CURVE('L253',#97,(PARAMETER_VALUE(0.)),(PARAMETER_VALUE(1.0)),.T.,.PARAMETER.);
#99=STYLED_ITEM('None', (#38), #98);
#100=CARTESIAN_POINT('',(1127.1873288757,-711.73235643898,0.));
#101=DIRECTION('',(0.,-1.,0.));
#102=VECTOR('',#101,6.);
#103=LINE('',#100,#102);
#104=TRIMMED_CURVE('L260',#103,(PARAMETER_VALUE(0.)),(PARAMETER_VALUE(1.0)),.T.,.PARAMETER.);
#105=STYLED_ITEM('None', (#38), #104);
#106=CARTESIAN_POINT('',(1127.1873288757,-703.73235643898,0.));
#107=DIRECTION('',(-1.,0.,0.));
#108=VECTOR('',#107,5.5);
#109=LINE('',#106,#108);
#110=TRIMMED_CURVE('L266',#109,(PARAMETER_VALUE(0.)),(PARAMETER_VALUE(1.0)),.T.,.PARAMETER.);
#111=STYLED_ITEM('None', (#38), #110);
#112=CARTESIAN_POINT('',(1121.6873288757,-703.73235643898,0.));
#113=DIRECTION('',(0.,1.,0.));
#114=VECTOR('',#113,6.);
#115=LINE('',#112,#114);
#116=TRIMMED_CURVE('L273',#115,(PARAMETER_VALUE(0.)),(PARAMETER_VALUE(1.0)),.T.,.PARAMETER.);
#117=STYLED_ITEM('None', (#38), #116);
#118=CARTESIAN_POINT('',(1121.6873288757,-697.73235643898,0.));
#119=DIRECTION('',(1.,0.,0.));
#120=VECTOR('',#119,5.5);
#121=LINE('',#118,#120);
#122=TRIMMED_CURVE('L280',#121,(PARAMETER_VALUE(0.)),(PARAMETER_VALUE(1.0)),.T.,.PARAMETER.);
#123=STYLED_ITEM('None', (#38), #122);
#124=CARTESIAN_POINT('',(1127.1873288757,-697.73235643898,0.));
#125=DIRECTION('',(0.,-1.,0.));
#126=VECTOR('',#125,6.);
#127=LINE('',#124,#126);
#128=TRIMMED_CURVE('L286',#127,(PARAMETER_VALUE(0.)),(PARAMETER_VALUE(1.0)),.T.,.PARAMETER.);
#129=STYLED_ITEM('None', (#38), #128);
#130=CARTESIAN_POINT('',(1121.6873288757,-717.23235643898,0.));
#131=DIRECTION('',(-1.,0.,0.));
#132=VECTOR('',#131,6.75);
#133=LINE('',#130,#132);
#134=TRIMMED_CURVE('L350',#133,(PARAMETER_VALUE(0.)),(PARAMETER_VALUE(1.0)),.T.,.PARAMETER.);
#135=STYLED_ITEM('None', (#38), #134);
#136=CARTESIAN_POINT('',(1114.9373288757,-717.23235643898,0.));
#137=DIRECTION('',(0.,1.,0.));
#138=VECTOR('',#137,19.);
#139=LINE('',#136,#138);
#140=TRIMMED_CURVE('L357',#139,(PARAMETER_VALUE(0.)),(PARAMETER_VALUE(1.0)),.T.,.PARAMETER.);
#141=STYLED_ITEM('None', (#38), #140);
#142=CARTESIAN_POINT('',(1114.9373288757,-698.23235643898,0.));
#143=DIRECTION('',(1.,0.,0.));
#144=VECTOR('',#143,6.75);
#145=LINE('',#142,#144);
#146=TRIMMED_CURVE('L364',#145,(PARAMETER_VALUE(0.)),(PARAMETER_VALUE(1.0)),.T.,.PARAMETER.);
#147=STYLED_ITEM('None', (#38), #146);
#148=CARTESIAN_POINT('',(1127.1873288757,-698.23235643898,0.));
#149=DIRECTION('',(1.,0.,0.));
#150=VECTOR('',#149,6.75);
#151=LINE('',#148,#150);
#152=TRIMMED_CURVE('L370',#151,(PARAMETER_VALUE(0.)),(PARAMETER_VALUE(1.0)),.T.,.PARAMETER.);
#153=STYLED_ITEM('None', (#38), #152);
#154=CARTESIAN_POINT('',(1133.9373288757,-698.23235643898,0.));
#155=DIRECTION('',(0.,-1.,0.));
#156=VECTOR('',#155,19.);
#157=LINE('',#154,#156);
#158=TRIMMED_CURVE('L377',#157,(PARAMETER_VALUE(0.)),(PARAMETER_VALUE(1.0)),.T.,.PARAMETER.);
#159=STYLED_ITEM('None', (#38), #158);
#160=CARTESIAN_POINT('',(1133.9373288757,-717.23235643898,0.));
#161=DIRECTION('',(-1.,0.,0.));
#162=VECTOR('',#161,6.75);
#163=LINE('',#160,#162);
#164=TRIMMED_CURVE('L384',#163,(PARAMETER_VALUE(0.)),(PARAMETER_VALUE(1.0)),.T.,.PARAMETER.);
#165=STYLED_ITEM('None', (#38), #164);
#166=GEOMETRIC_CURVE_SET('None',(#34,#44,#50,#56,#62,#68,#74,#80,#86,#92,#98,#104,#110,#116,#122,#128,#134,#140,#146,#152,#158,#164));
#167=GEOMETRICALLY_BOUNDED_WIREFRAME_SHAPE_REPRESENTATION('None',(#166),#5);
#168=SHAPE_REPRESENTATION_RELATIONSHIP('None','None',#28,#167);
#169=PRESENTATION_LAYER_ASSIGNMENT('0','',(#34,#44,#50,#56,#62,#68,#74,#80,#86,#92,#98,#104,#110,#116,#122,#128,#134,#140,#146,#152,#158,#164));
#170=MECHANICAL_DESIGN_GEOMETRIC_PRESENTATION_REPRESENTATION('',(#39,#45,#51,#57,#63,#69,#75,#81,#87,#93,#99,#105,#111,#117,#123,#129,#135,#141,#147,#153,#159,#165),#5);
ENDSEC;
END-ISO-10303-21;
